<?xml version="1.0" encoding="utf-8"?>
<!-- Generator: Adobe Illustrator 21.1.0, SVG Export Plug-In . SVG Version: 6.00 Build 0)  -->
<svg version="1.1" id="Calque_1" xmlns="http://www.w3.org/2000/svg" xmlns:xlink="http://www.w3.org/1999/xlink" x="0px" y="0px"
	 viewBox="0 0 841.9 595.3" style="enable-background:new 0 0 841.9 595.3;" xml:space="preserve">
<style type="text/css">
	.st0{fill:#FF0000;}
</style>
<path class="st0" d="M678.4,344.1c-12.1,0.1-24.1,0.1-35.7,0H678.4c-17-0.2-33.5-0.2-49.3,0c-74-0.6-159.5,5.6-189.1-8.3
	c-21.9-13-21.2-89.4-21.2-89.4s4,73.2-24.8,87.4c-31.2,13.3-107.2,9.7-181.2,10.3c-15.9-0.2-32.4-0.1-49.3,0h35.7
	c-11.6,0-23.5,0-35.7,0l94.6,1c63.3,0.3,108-2.8,133.8,4.3c36.6,15.6,32.5,112.3,32.5,112.3S423,363.1,452.1,351
	c24.5-9.7,78.3-3.9,131.6-5.9L678.4,344.1z"/>
</svg>
