<?xml version="1.0" encoding="utf-8"?>
<!-- Generator: Adobe Illustrator 21.1.0, SVG Export Plug-In . SVG Version: 6.00 Build 0)  -->
<svg version="1.1" id="Calque_1" xmlns="http://www.w3.org/2000/svg" xmlns:xlink="http://www.w3.org/1999/xlink" x="0px" y="0px"
	 viewBox="0 0 841.9 595.3" style="enable-background:new 0 0 841.9 595.3;" xml:space="preserve">
<style type="text/css">
	.st0{fill:#73C4C5;}
	.st1{fill:none;}
	.st2{fill:#E42320;}
	.st3{fill:#FF4545;}
	.st4{fill:#FFF042;}
	.st5{fill:#FFFFFF;stroke:#000000;stroke-miterlimit:10;}
	.st6{fill:#FFFF00;}
</style>
<path class="st0" d="M727.1,296.5l115.8-7.6l-119.1-5.7l111.3-12.7l-120.4-0.3l104.7-17.5l-119.3,5l96-22l-115.9,10.3l85.4-26
	l-110.3,15.4l73.1-29.6L626,226l59.4-32.6L592.8,218l44.5-34.9l-80.9,28.4l28.7-36.5l-67.6,31.7l12.4-37.5l-53,34.4l-4.2-37.6
	l-37.4,36.5l-20.6-37.1l-17.2,30.9l-27-29.6l-8.2,38.3l-48.5-34.3l8.7,38.3L259.2,177l25.4,37.5l-76.5-28.7l41.6,36l-88.4-25
	l57,33.8l-98.5-20.8l71.3,30.9L84.4,224.4l84.1,27.4L55.8,240.5l95.4,23.4l-116.6-6.2l104.7,18.9l-118.2-0.9l112,14.1l-117.4,4.3
	l117.1,8.9l-114.4,9.5l119.8,3.6l-109,14.5l120.3-1.7L47.8,348.3l118.3-7.1L74,364.8l114-12.3L107.2,380l107.5-17.2l-68,30.8
	l98.9-21.9l-53.8,33.5l88.3-26.1l-38.6,35.6l76-29.7L295,422l62.2-32.8l-6.1,37.6l47.2-35.3l10.5,37.5l31.2-37l26.9,36.7l14.6-38.1
	l42.7,35.1l-2.2-38.3l57.7,32.9l-19-37.9l71.6,30l-35.5-36.6l84,26.5l-51.2-34.7l94.8,22.5l-66-32.1l103.8,18L682.7,347l110.7,13.2
	l-91.3-25l115.4,8.2l-101.4-20.7l117.9,2.9l-109.5-16l118-2.3L727.1,296.5z"/>
</svg>
