<?xml version="1.0" encoding="utf-8"?>
<!-- Generator: Adobe Illustrator 21.1.0, SVG Export Plug-In . SVG Version: 6.00 Build 0)  -->
<svg version="1.1" id="Calque_1" xmlns="http://www.w3.org/2000/svg" xmlns:xlink="http://www.w3.org/1999/xlink" x="0px" y="0px"
	 viewBox="0 0 841.9 595.3" style="enable-background:new 0 0 841.9 595.3;" xml:space="preserve">
<style type="text/css">
	.st0{fill:#FFFF00;}
	.st1{fill:#FF0000;}
</style>
<path class="st0" d="M20.9,552.6c0,0,29.2-77.9,31.7-255.5s0-249.3,0-249.3S56,481,59.3,490.3s27.5,23.4,25.9-73.2
	s0.1-247.7,0.1-247.7s-5.9,289.8,14.1,288.2S125.3,280,125.3,280s-19.2,155.8,0,199.4s56.8-21.8,55.9-126.2s-10-118.4-16.7-85.7
	s-5,102.8-5,102.8V103.9c0,0-2.5,107.5,10.9,110.6s25-28,25-28s-20,116.8-5,162c15,45.2,17.5,229,30,144.9
	c12.5-84.1,0-115.3,0-115.3l-9.2,21.8c0,0,33.5-81,39.7-118.4s-15.5,99.7-17.2,105.9c-1.7,6.2-10,132.4,11.7,42.1
	s28.4-204.1,29.2-249.3s-4.2,257.1,3.3,266.4s7.5,7.8,9.2-48.3s5-166.7,5-166.7s-9.2,268,5.8,268c15,0,10-461.2,10-461.2
	s4.2,380.1,13.4,397.3s26.7-124.6,23.4-171.4c-3.3-46.7,0.4-102.8,0.4-102.8s5.4,325.6,12.1,324.1s20-158.9,20-229
	s8.3-204.1,8.3-204.1s-20,412.9,0,434.7c20,21.8,27.5-333.4,28.4-358.3s0,412.9,13.4,364.6s15.9-155.8,6.7-151.1
	c-9.2,4.7,0.1-73.2,5.5-79.5c5.4-6.2-8.8,85.7,7.1,49.9c15.9-35.8,6.7-190.1,6.7-190.1s14.2,225.9,15,158.9s0-157.4,0-157.4
	s5.8,331.8,29.2,277.3s0-121.5,0-121.5s40.9-129.3,18.4-151.1s-32.6-9.3-32.6-9.3l65.9-6.2c0,0-19.2-3.1-17.5,54.5
	s-17.5,132.4,4.2,172.9c21.7,40.5,34.2-158.9,35.1-227.5s0-90.4,0-90.4s11.7,419.1,15,425.3s27.5,17.1,27.5-91.9
	s4.2-224.3,4.2-224.3s-2.5,386.4,15.9,397.3c18.4,10.9,50.1,34.3,41.7-143.3c-8.3-177.6,0.2-364.6,1.4-372.4
	c1.1-7.8-7.2,416,14.5,465.8c21.7,49.9,39.2,109.1,40.1-23.4s0-257.1,0-257.1s4.2,378.6,15,353.7c10.9-24.9,15-532.8,15-532.8
	s-4.2,397.3,11.7,387.9s14.2-227.5,14.2-261.7s1.7,316.3,10,316.3c8.3,0,10-252.4,10-252.4s-5.8,210.3,4.2,210.3
	c10,0,5.8,124.6,15.9,102.8c10-21.8,13.4-239.4,13.4-239.4s0,312.6,9.2,314.2c9.2,1.6-852.2,0-852.2,0L20.9,552.6z"/>
</svg>
