<?xml version="1.0" encoding="utf-8"?>
<!-- Generator: Adobe Illustrator 21.1.0, SVG Export Plug-In . SVG Version: 6.00 Build 0)  -->
<svg version="1.1" id="Calque_1" xmlns="http://www.w3.org/2000/svg" xmlns:xlink="http://www.w3.org/1999/xlink" x="0px" y="0px"
	 viewBox="0 0 525.6 666.9" style="enable-background:new 0 0 525.6 666.9;" xml:space="preserve">
<style type="text/css">
	.st0{fill:#FFFFFF;}
	.st1{fill:#0084FF;}
	.st2{fill:#FF1B00;}
	.st3{fill:#010202;}
	.st4{fill:#0073FF;}
	.st5{fill:#23AF3D;}
	.st6{fill:none;stroke:#010202;stroke-width:5;}
	.st7{fill:none;stroke:#010202;stroke-width:5;stroke-linecap:round;stroke-linejoin:round;}
	.st8{fill:#040304;}
	.st9{fill:none;stroke:#040304;stroke-width:5;}
	.st10{fill:#FF1B00;stroke:#010202;stroke-width:5;}
	.st11{fill:#FFFFFF;stroke:#000000;stroke-width:4.9674;}
	.st12{fill:none;stroke:#000000;stroke-width:4;}
	.st13{fill:#0A0406;}
	.st14{fill:#1D1D1B;}
	.st15{fill:#FFE400;}
	.st16{clip-path:url(#SVGID_2_);fill:none;stroke:#010202;stroke-width:4.5066;stroke-miterlimit:10;}
	.st17{fill:#FFD730;}
	.st18{fill:#E7423F;}
	.st19{fill:#0084FF;stroke:#000000;stroke-width:4.0709;}
	.st20{fill:#FFE400;stroke:#000000;stroke-width:4.0529;}
	.st21{fill:none;stroke:#000000;stroke-width:4.1421;}
	.st22{clip-path:url(#SVGID_4_);fill:none;stroke:#010202;stroke-width:4.1565;}
	.st23{fill:none;stroke:#010202;stroke-width:4.1565;stroke-miterlimit:10;}
	.st24{fill:#FFFFFF;stroke:#000000;stroke-width:8.047;stroke-miterlimit:10;}
	.st25{fill:none;stroke:#000000;stroke-width:8.047;stroke-miterlimit:10;}
	.st26{clip-path:url(#SVGID_6_);fill:none;stroke:#000000;stroke-width:8;}
	.st27{fill:#FFFFFF;stroke:#000000;stroke-width:4.1427;stroke-linecap:square;stroke-miterlimit:10;}
	.st28{fill:#FFFFFF;stroke:#000000;stroke-width:4;}
	.st29{fill:#FF1B00;stroke:#000000;stroke-width:4;}
	.st30{fill:none;stroke:#000000;stroke-width:3.4792;stroke-miterlimit:10;}
	.st31{fill:none;stroke:#000000;stroke-width:3.9158;}
	.st32{fill:none;stroke:#000000;stroke-width:3.9158;stroke-miterlimit:10;}
	.st33{fill:none;stroke:#000000;stroke-width:3.8626;}
	.st34{fill:none;stroke:#000000;stroke-width:3.9186;}
	.st35{fill:none;stroke:#000000;stroke-width:3.9354;}
	.st36{fill:#FFD72E;}
	.st37{fill:#FFE400;stroke:#000000;stroke-width:3.2832;}
	.st38{fill:#FFFFFF;stroke:#000000;stroke-width:3.9046;}
	.st39{stroke:#000000;stroke-width:3.9046;}
	.st40{fill:#23AF3D;stroke:#000000;stroke-width:3.9046;}
	.st41{fill:#E8423F;}
	.st42{fill:none;stroke:#010202;stroke-width:3.9405;}
	.st43{fill:none;stroke:#010202;stroke-width:3.9405;stroke-miterlimit:17;}
	.st44{clip-path:url(#SVGID_8_);fill:#FFE400;}
	.st45{clip-path:url(#SVGID_10_);fill:none;stroke:#010202;stroke-width:3.9405;stroke-miterlimit:16;}
	.st46{fill:none;stroke:#010202;stroke-width:3.9405;stroke-miterlimit:9;}
	.st47{fill:none;stroke:#010202;stroke-width:3.9405;stroke-miterlimit:5;}
	.st48{fill:none;stroke:#010202;stroke-width:3.9405;stroke-miterlimit:7;}
	.st49{fill:none;stroke:#010202;stroke-width:3.9405;stroke-miterlimit:10;}
	.st50{clip-path:url(#SVGID_12_);fill:none;stroke:#010202;stroke-width:3.9405;}
	.st51{clip-path:url(#SVGID_14_);fill:none;stroke:#010202;stroke-width:4;stroke-miterlimit:7;}
	.st52{fill:none;stroke:#FFFFFF;stroke-width:7.0508;stroke-linecap:round;stroke-linejoin:round;}
	.st53{fill:none;stroke:#FFFFFF;stroke-width:3.9746;}
	.st54{fill:none;stroke:#FFFFFF;stroke-width:7.0508;stroke-linecap:round;}
	.st55{fill:#12080D;}
	.st56{fill:none;stroke:#000000;stroke-width:3.9746;}
	.st57{fill:none;stroke:#E41E2E;stroke-width:0.8122;}
	.st58{fill:none;stroke:#FFFFFF;stroke-width:2.9047;stroke-linecap:round;stroke-linejoin:round;}
	.st59{fill:none;stroke:#FFFFFF;stroke-width:2.4365;stroke-linecap:round;stroke-linejoin:round;}
	.st60{fill:#FFE400;stroke:#010202;stroke-width:3.141;}
	.st61{fill:#FFE400;stroke:#010202;stroke-width:2.9332;stroke-miterlimit:10;}
	.st62{fill:none;stroke:#010202;stroke-width:2.6714;stroke-linecap:square;stroke-miterlimit:10;}
	.st63{fill:#FFD134;stroke:#010202;stroke-width:2.9332;stroke-linecap:square;stroke-miterlimit:10;}
	.st64{fill:#FFD134;stroke:#010202;stroke-width:3.1256;stroke-miterlimit:10;}
	.st65{fill:#FF1B00;stroke:#010202;stroke-width:2.8366;}
	.st66{fill:none;stroke:#010202;stroke-width:2.9332;}
	.st67{clip-path:url(#SVGID_16_);fill:#010202;}
	.st68{fill:#FFD730;stroke:#FFFFFF;stroke-width:2.8511;stroke-miterlimit:10;}
	.st69{fill:#FF0000;}
</style>
<g>
	<path class="st5" d="M262.6,1.8h261.5v415c0,138.2-117.1,250.1-261.4,250.1c-144.4,0-261.4-112-261.4-250.1V1.8H262.6z"/>
</g>
<g>
	<polygon class="st0" points="1.3,312.4 1.3,1.8 262.6,1.8 524.1,1.8 524.1,312.4 	"/>
</g>
<g>
	<path class="st68" d="M67.7,56.2V62l1.7,0.1c2.9,0.2,4.1,0.6,4.5,0.8c0.7,0.4,1.5,1.1,1.5,3.6v42.7c0,2.5-1,3.2-1.6,3.6
		c-0.5,0.3-1.6,0.7-4.4,0.8l-1.7,0.1v5.8H122l4.3-23.7h-6l-0.5,1.1c-2.5,6.4-5.4,10.6-8.6,12.7c-3.3,2.1-7.5,3.2-12.4,3.2
		c-3.5,0-4.7-0.5-4.9-0.7c-0.4-0.3-0.7-1.1-0.7-2.3V68.3c0-4.1,0.9-4.9,1-5c0.4-0.3,1.8-1,6.2-1.1l1.8-0.1v-5.8H67.7V56.2z"/>
</g>
<g>
	<path class="st17" d="M70.3,58.8v0.9c2.3,0.2,3.9,0.5,4.9,1c1.9,1,2.9,2.9,2.9,5.8v42.7c0,2.9-1,4.8-3,5.9c-1,0.6-2.7,0.9-4.8,1
		v0.9h49.6c0.2-1,3-17,3.3-18.5H122c-2.7,6.7-5.8,11.2-9.4,13.5c-3.7,2.4-8.4,3.6-13.8,3.6c-3.1,0-5.2-0.4-6.4-1
		c-1.2-0.8-1.9-2.3-1.9-4.5V68.3c0-3.7,0.7-6.1,2.1-7.1c1.2-1,3.5-1.4,6.9-1.6v-0.9L70.3,58.8L70.3,58.8z"/>
</g>
<g>
	<path class="st68" d="M126.4,56.2V62l1.7,0.1c3,0.1,4.3,0.6,4.8,0.8c0.7,0.4,1.5,1,1.5,3.6v42.7c0,2.5-1,3.3-1.7,3.7
		c-0.5,0.2-1.7,0.7-4.6,0.7h-1.8v5.8h34.5v-5.9H159c-3,0-4.6-0.6-5.2-1c-0.9-0.5-1.2-1.6-1.2-3.3V66.5c0-2.5,1-3.2,1.6-3.6
		c0.4-0.2,1.6-0.6,4.9-0.8l1.8-0.1v-5.8L126.4,56.2L126.4,56.2z"/>
</g>
<g>
	<path class="st17" d="M128.9,58.8v0.9c2.4,0.2,4.1,0.5,5.1,1c1.9,1,2.9,2.9,2.9,5.8v42.7c0,2.9-1,4.8-3,5.9c-1,0.6-2.8,0.9-4.9,1
		v0.9h29.3v-1c-2.6-0.1-4.5-0.5-5.9-1.3c-1.6-1-2.4-2.9-2.4-5.5V66.5c0-2.9,1-4.8,2.9-5.9c1-0.5,2.8-0.9,5.3-1v-0.9h-29.3V58.8z"/>
</g>
<g>
	<path class="st68" d="M160.8,56.2V62l1.7,0.1c2.9,0.2,4,0.6,4.4,0.8s1.5,0.9,1.5,3.6v42.7c0,2.5-1,3.2-1.6,3.6
		c-0.5,0.3-1.5,0.7-4.3,0.8l-1.8,0.1v5.8h30.1c7.8,0,14.2-1.6,19-4.8c5-3.3,7.6-7.9,7.6-13.4c0-5.9-2.7-10.5-7.9-13.8
		c-1.3-0.9-2.9-1.5-4.5-2.1c1.6-0.8,3.2-1.7,4.8-2.9c3.1-2.5,4.7-5.9,4.7-10.1c0-6.8-3.7-11.6-11-14.1c-3.6-1.2-8.3-1.9-13.6-1.9
		L160.8,56.2L160.8,56.2L160.8,56.2z M186,65c0-1.1,0.2-1.8,0.5-2c0.1-0.1,0.7-0.5,2.7-0.5c2.9,0,4.7,0.9,5.5,2.5
		c1,2,1.6,4.6,1.6,7.6c0,4-0.8,6.7-2.3,8.2c-1,0.9-3.1,1.9-8,2.1L186,65L186,65z M186.4,112L186.4,112c-0.1-0.2-0.4-0.9-0.5-2.6
		V89.3c3.5,0.1,6.3,0.6,7.9,1.5c3.1,1.7,4.7,5.3,4.7,10.9c0,3.8-0.7,6.7-2.2,8.6c-1.3,1.8-3.8,2.7-7.4,2.7
		C187,113,186.5,112.2,186.4,112"/>
</g>
<g>
	<path class="st17" d="M163.3,58.8v0.9c2.3,0.2,3.9,0.5,4.8,1c1.9,1,2.8,2.9,2.8,5.8v42.7c0,2.9-1,4.8-2.9,5.9c-1,0.6-2.6,0.9-4.7,1
		v0.9h27.6c7.3,0,13.2-1.5,17.6-4.5c4.3-2.9,6.5-6.6,6.5-11.2c0-4.9-2.2-8.8-6.7-11.6c-2.4-1.4-5.1-2.5-8.3-3l-0.6-0.1v-2l0.6-0.1
		c2.9-0.6,5.8-1.9,8.3-3.9s3.7-4.7,3.7-8.1c0-5.7-3-9.5-9.3-11.7c-3.3-1.1-7.7-1.8-12.8-1.8L163.3,58.8L163.3,58.8L163.3,58.8z
		 M183.5,65c0-1.8,0.4-3.1,1.3-3.9c0.9-0.8,2.3-1.1,4.3-1.1c3.8,0,6.4,1.3,7.7,3.8c1.3,2.4,1.9,5.3,1.9,8.8c0,4.8-1,8.1-3,10
		c-2.1,1.9-5.8,2.9-11.6,2.9h-0.8L183.5,65L183.5,65z M183.5,109.5V86.7h0.7c5-0.1,8.6,0.5,11,1.8c4,2.2,6,6.7,6,13.1
		c0,4.4-0.9,7.8-2.7,10.2c-1.9,2.5-5,3.7-9.4,3.7c-2.4,0-4-0.8-4.8-2.3C183.8,112.4,183.5,111.2,183.5,109.5"/>
</g>
<g>
	<path class="st68" d="M219.3,56.2V62l1.7,0.1c2.9,0.2,4.1,0.6,4.6,0.8c0.7,0.4,1.6,1.1,1.6,3.6v42.7c0,2.5-0.9,3.2-1.5,3.5
		c-0.5,0.3-1.6,0.7-4.6,0.8l-1.8,0.1v5.8h54.8l4.4-22h-5.8l-0.5,1c-2.6,5.6-5.6,9.5-8.8,11.4c-3.2,2-7.6,3-12.8,3
		c-3.6,0-4.7-0.6-4.8-0.7c-0.6-0.4-0.7-1.6-0.7-2.3V90.5c3.5,0.2,6,1,7.3,2.4c1.7,1.7,2.9,4.9,3.3,9.5l0.2,1.6h5.7V70.8H256
		l-0.3,1.4c-1.1,5.7-2.6,8.3-3.6,9.4c-1.2,1.2-3.6,1.9-7,2.1V65.2c0-1.3,0.3-1.8,0.4-1.9c0,0,0.8-0.5,4-0.5c6.6,0,11.1,1,13.5,2.8
		c2.3,1.8,4,5.4,5,10.5l0.3,1.4h5.6V56.2H219.3L219.3,56.2z"/>
</g>
<g>
	<path class="st17" d="M221.9,58.8v0.9c2.3,0.2,3.9,0.5,4.9,1c2,1,2.9,2.9,2.9,5.8v42.7c0,2.8-1,4.8-2.9,5.8c-1,0.7-2.8,1-5,1v0.9
		H272c0.2-1,3-15.3,3.3-16.8h-1.1c-2.8,5.8-6,9.9-9.5,12.2c-3.7,2.3-8.5,3.3-14.2,3.3c-3.1,0-5.2-0.4-6.4-1.1
		c-1.1-0.9-1.7-2.3-1.7-4.4V87.9h0.7c5.2,0,8.8,1.1,11,3.3c2,2.1,3.2,5.5,3.9,10.4h1V73.3h-1c-1,4.8-2.4,8.2-4.2,10.1
		c-2,2.1-5.4,3-10.7,2.9h-0.7V65.2c0-1.9,0.5-3.2,1.3-3.9c0.9-0.7,2.7-1,5.6-1c7.3,0,12.3,1,15,3.2c2.7,2.1,4.6,6,5.8,11.5h1V58.8
		H221.9L221.9,58.8z"/>
</g>
<g>
	<path class="st68" d="M278.3,56.2v5.7l1.6,0.1c3.7,0.3,4.6,0.9,4.8,1c0.4,0.3,1.2,1.4,1.2,5.2v39c0,3.8-0.8,4.8-1,5
		c-0.4,0.4-1.6,1-4.8,1.2l-1.7,0.1v5.8h33.2v-5.9l-1.8-0.1c-3.4-0.1-4.6-0.9-4.8-1.2c-0.3-0.3-1-1.4-1-5V95.5
		c4.6,6.1,17.9,23.9,17.9,23.9h21.2v-5.6l-1.7-0.1c-0.6-0.1-1.1-0.1-1.4-0.3c-0.1-0.1-0.4-0.2-0.8-0.8c0,0-12.7-17.1-17.2-23.1
		c2.4-0.8,4.8-1.8,7-3.4c4.2-3.1,6.3-7.4,6.3-12.8c0-7.3-4-12.4-11.8-15.2c-3.8-1.3-8.8-2-14.8-2L278.3,56.2L278.3,56.2z
		 M303.8,64.8c0-0.5,0.1-1.2,0.4-1.5c0,0,0.7-0.5,3.5-0.5c3.6,0,6,1.2,7.3,4c0.8,1.7,1.2,4.2,1.2,7.3c0,4.8-1,8-2.9,9.1
		s-5.2,1.9-9.6,2.1V64.8H303.8z"/>
</g>
<g>
	<path class="st17" d="M280.8,58.8v0.9c2.8,0.3,4.6,0.8,5.4,1.5c1.4,1.1,2.2,3.5,2.2,7.1v39c0,3.5-0.6,5.8-1.8,6.9
		c-1.1,1-3,1.6-5.8,1.8v0.9h28.1V116c-2.9-0.2-4.8-0.9-5.9-2c-1.1-1.2-1.7-3.4-1.7-6.7V64.8c0-1.5,0.5-2.8,1.4-3.4
		c0.9-0.7,2.5-1,5-1c4.6,0,7.8,1.8,9.6,5.4c1,2.1,1.5,4.9,1.5,8.5c0,5.9-1.3,9.6-4.1,11.3c-2.7,1.6-6.7,2.5-12.7,2.6h-0.7
		c0.2,0.2,1.3,1.6,1.3,1.6s19.9,26.6,20.3,27.2h17.3v-0.8c-0.6-0.1-1.1-0.2-1.6-0.3c-0.7-0.3-1.3-0.9-1.9-1.6l-19.4-26l1.1-0.2
		c3-0.6,5.9-1.8,8.6-3.8c3.5-2.7,5.2-6.2,5.2-10.7c0-6.2-3.3-10.4-10.1-12.8c-3.5-1.2-8.3-1.8-14-1.8L280.8,58.8L280.8,58.8z"/>
</g>
<g>
	<path class="st68" d="M339.7,56.2l-0.1,21.4h6l0.2-1.6c0.5-5.7,2.5-9.4,6.2-11.4c1.7-1,4.2-1.4,7.2-1.7v44.5c0,3.6-0.9,4.8-1.1,5.1
		c-0.3,0.4-1.6,1.1-5.7,1.1h-1.8v5.9h35.1v-5.9h-1.8c-4.2,0-5.4-0.8-5.8-1.1c-0.3-0.3-1.1-1.4-1.1-5.1V62.8c3.1,0.2,5.6,0.8,7.2,1.7
		c3.3,2,5.4,5.8,6.3,11.6l0.2,1.5h6l-0.1-21.4L339.7,56.2L339.7,56.2z"/>
</g>
<g>
	<path class="st17" d="M342.2,58.8c0,1.2-0.1,15-0.1,16.3h1.1c0.7-6.2,3.1-10.5,7.4-12.8c2.4-1.3,5.8-2,10.2-2.1h0.8v47.2
		c0,3.4-0.7,5.8-1.9,7c-1.2,1.1-3.4,1.7-6.7,1.8v0.9h30v-0.9c-3.3-0.1-5.6-0.7-6.8-1.7c-1.2-1.2-1.9-3.5-1.9-7V60.1h0.8
		c4.5,0.1,7.9,0.9,10.3,2.1c4,2.3,6.5,6.7,7.4,12.8h1.2c0-1.3-0.1-15-0.1-16.3L342.2,58.8L342.2,58.8z"/>
</g>
<g>
	<path class="st68" d="M432.7,35c-0.7,0.5-1.3,1-1.9,1.8l-13.7,16.8h9l12.3-8.1c1.2-0.9,2.2-1.6,2.9-2.4c0.9-1,1.3-2.3,1.3-3.8
		s-0.6-2.9-1.6-4s-2.5-1.7-4.2-1.7C435.3,33.7,434,34.2,432.7,35 M397.5,56.2V62l1.7,0.1c2.9,0.2,4.1,0.6,4.6,0.8
		c0.8,0.4,1.6,1.1,1.6,3.6v42.7c0,2.5-0.9,3.2-1.5,3.5c-0.5,0.3-1.6,0.7-4.6,0.8l-1.7,0.1v5.8h54.8l4.4-22H451l-0.5,1
		c-2.6,5.6-5.6,9.5-8.7,11.4c-3.2,2-7.6,3-12.8,3c-3.6,0-4.7-0.6-4.8-0.7c-0.6-0.4-0.7-1.6-0.7-2.3V90.5c3.4,0.2,6,1,7.3,2.4
		c1.7,1.7,2.8,4.9,3.3,9.5l0.2,1.6h5.7V70.8h-5.6l-0.3,1.4c-1,5.7-2.6,8.3-3.6,9.4c-1.2,1.2-3.7,1.9-7,2.1V65.2
		c0-1.3,0.3-1.8,0.4-1.9c0,0,0.8-0.5,4-0.5c6.6,0,11.1,1,13.5,2.8c2.3,1.8,4,5.4,5,10.5l0.3,1.4h5.6V56.2H397.5L397.5,56.2z"/>
</g>
<g>
	<path class="st17" d="M434.2,37.1L434.2,37.1c-0.5,0.3-1,0.8-1.3,1.2c0,0-7.6,9.4-10.4,12.7h2.9c0.3-0.3,11.6-7.7,11.6-7.7
		c1-0.7,1.8-1.3,2.4-1.9c0.4-0.5,0.7-1.2,0.7-2.2c0-0.9-0.3-1.6-0.9-2.3c-0.6-0.6-1.3-1-2.4-1C435.9,36.3,435.1,36.6,434.2,37.1
		 M400,58.8v0.9c2.4,0.2,4,0.5,4.9,1c1.9,1,2.9,2.9,2.9,5.8v42.7c0,2.8-1,4.8-2.9,5.8c-1,0.7-2.8,1-5,1v0.9h50.2
		c0.2-1,3-15.3,3.3-16.8h-1.1c-2.8,5.8-6,9.9-9.5,12.2c-3.7,2.3-8.5,3.3-14.2,3.3c-3.1,0-5.2-0.4-6.4-1.1c-1.1-0.9-1.7-2.3-1.7-4.4
		V87.9h0.8c5.2,0,8.8,1.1,10.9,3.3c2,2.1,3.2,5.5,3.9,10.4h0.9V73.3h-1c-1,4.8-2.4,8.2-4.2,10.1c-2,2.1-5.4,3-10.7,2.9h-0.8V65.2
		c0-1.9,0.5-3.2,1.3-3.9c0.8-0.7,2.7-1,5.6-1c7.2,0,12.2,1,15,3.2c2.7,2.1,4.7,6,5.8,11.5h1V58.8H400L400,58.8z"/>
</g>
<g>
	<path class="st68" d="M203.9,135.9v5.8l1.7,0.1c2.9,0.2,4.2,0.6,4.6,0.8c0.7,0.4,1.6,1.1,1.6,3.6v42.7c0,2.5-0.9,3.2-1.5,3.5
		c-0.5,0.3-1.6,0.7-4.6,0.8l-1.8,0.1v5.8h54.8l4.4-22h-5.8l-0.5,1c-2.6,5.6-5.6,9.5-8.7,11.4c-3.2,2-7.6,2.9-12.8,2.9
		c-3.6,0-4.7-0.5-4.9-0.7c-0.6-0.4-0.7-1.6-0.7-2.3V170c3.5,0.2,6,1,7.3,2.4c1.6,1.7,2.8,4.9,3.3,9.5l0.2,1.6h5.7v-33.2h-5.6
		l-0.3,1.5c-1.1,5.7-2.6,8.3-3.6,9.3c-1.1,1.2-3.6,2-7,2.1v-18.5c0-1.3,0.3-1.8,0.4-1.9c0,0,0.8-0.5,4-0.5c6.7,0,11.1,1,13.5,2.8
		c2.3,1.8,4,5.4,5,10.5l0.3,1.4h5.6v-21.4L203.9,135.9L203.9,135.9z"/>
</g>
<g>
	<path class="st17" d="M206.5,138.4v0.9c2.3,0.2,3.9,0.5,4.9,1c1.9,1,2.9,2.9,2.9,5.8v42.7c0,2.9-1,4.8-2.9,5.8c-1,0.6-2.8,1-5,1
		v0.9h50.2c0.2-1,3-15.3,3.3-16.8h-1c-2.8,5.8-6,10-9.6,12.2c-3.6,2.3-8.4,3.3-14.2,3.3c-3.1,0-5.2-0.4-6.4-1.1
		c-1.1-0.9-1.7-2.3-1.7-4.4v-22.1h0.8c5.2,0,8.8,1.1,10.9,3.3c2,2.1,3.2,5.5,4,10.4h0.9V153h-1c-1,4.8-2.3,8.2-4.1,10.1
		c-2,2.1-5.4,3-10.7,2.9h-0.7v-21.1c0-1.9,0.5-3.2,1.3-3.9c0.9-0.7,2.7-1,5.5-1c7.3,0,12.3,1,15,3.3c2.8,2.1,4.7,6,5.8,11.5h1v-16.3
		L206.5,138.4L206.5,138.4z"/>
</g>
<g>
	<path class="st68" d="M263.6,135.9l-0.1,21.4h6l0.2-1.6c0.5-5.7,2.5-9.5,6.2-11.5c1.7-0.9,4.1-1.5,7.2-1.7V187
		c0,3.6-0.9,4.8-1.1,5.1c-0.4,0.4-1.6,1.1-5.7,1.1h-1.8v5.9h35.1v-5.9h-1.8c-4.2,0-5.5-0.8-5.9-1c-0.3-0.3-1.1-1.4-1.1-5.1v-44.5
		c3.1,0.2,5.6,0.8,7.2,1.7c3.3,1.9,5.5,5.8,6.3,11.5l0.2,1.6h6l-0.1-21.4L263.6,135.9L263.6,135.9z"/>
</g>
<g>
	<path class="st17" d="M266.2,138.4c0,1.2-0.1,15-0.1,16.3h1.1c0.7-6.2,3.1-10.5,7.4-12.8c2.4-1.3,5.9-2,10.3-2.1h0.8V187
		c0,3.4-0.7,5.7-1.9,6.9c-1.2,1.1-3.4,1.7-6.7,1.8v0.8h30v-0.8c-3.3-0.1-5.6-0.7-6.8-1.8c-1.2-1.2-1.9-3.5-1.9-7v-47.2h0.8
		c4.6,0.1,8,0.9,10.3,2.1c4,2.3,6.5,6.7,7.4,12.8h1.2c0-1.3-0.1-15-0.1-16.3L266.2,138.4L266.2,138.4z"/>
</g>
<g>
	<path class="st68" d="M102.1,215.5v5.7l1.6,0.2c3.2,0.4,4.4,1,4.8,1.3c0.1,0.1,0.9,0.9,0.9,4.8v39c0,3.5-0.7,4.7-1,4.9
		c-0.3,0.3-1.3,1-4.7,1.2l-1.7,0.1v5.8h32.9v-5.8l-1.7-0.1c-3.2-0.1-4.5-0.8-4.8-1.1c-0.3-0.3-1-1.2-1-5v-14.6
		c4.4,0,7.8-0.2,10.3-0.4c2.9-0.3,5.7-1,8.5-2.1c3.9-1.7,6.7-4,8.5-6.8c1.7-2.9,2.6-5.9,2.6-9.1c0-6.6-2.3-11.3-6.7-14.1
		c-4.2-2.6-10.3-3.9-18.1-3.9L102.1,215.5L102.1,215.5L102.1,215.5z M127.2,223.3c0-0.5,0.1-0.8,0.2-0.9c0.2-0.1,1-0.4,2.9-0.4
		c3.1,0,5.1,1,6.2,2.8c1.1,2.2,1.8,5.2,1.8,8.8c0,5.2-1.1,8.6-3.3,10c-0.9,0.6-2.9,1.2-7.7,1.5L127.2,223.3L127.2,223.3z"/>
</g>
<g>
	<path class="st17" d="M104.5,218v0.9c2.7,0.4,4.5,1,5.5,1.8c1.1,1,1.7,3.2,1.7,6.8v39c0,3.3-0.6,5.5-1.7,6.7c-1,1-2.9,1.7-5.6,2
		v0.9h27.8v-0.9c-2.8-0.2-4.7-0.8-5.8-1.8c-1.2-1.1-1.8-3.4-1.8-6.8v-17.2h0.8c5.2,0,9.1-0.1,11.8-0.4c2.6-0.2,5.2-0.9,7.8-1.9
		c3.3-1.4,5.8-3.4,7.2-5.8c1.4-2.4,2.2-5,2.2-7.8c0-5.7-1.8-9.6-5.5-11.9c-3.8-2.4-9.4-3.5-16.7-3.5L104.5,218L104.5,218z
		 M124.7,223.3c0-1.5,0.5-2.6,1.5-3c0.9-0.5,2.2-0.8,4.1-0.8c4.1,0,6.9,1.4,8.4,4.1c1.4,2.6,2.1,6,2.1,10.1c0,6.2-1.5,10.3-4.6,12.2
		c-1.9,1.2-5.4,1.8-10.8,2h-0.8L124.7,223.3L124.7,223.3z"/>
</g>
<g>
	<path class="st68" d="M178.3,214.2l-20,49.4c-1.8,4.6-2.9,6.4-3.3,7c-1,1.3-2.2,2.1-3.8,2.2l-1.7,0.1v5.8h21.6v-5.9h-1.8
		c-2.3,0-3.4-0.3-4-0.5c-1.2-0.4-1.2-0.9-1.2-1c0-0.5,0.2-1.6,1-4.4c0,0,1.3-3.7,2.1-5.6h17.3c0.6,1.4,1.7,4.2,1.7,4.2l1.1,2.9
		c0.6,1.6,0.6,2.4,0.6,2.6c0,0.9-0.2,1.1-0.2,1.1c-0.4,0.1-1.4,0.5-5,0.6l-1.8,0.1v5.8H213v-5.9l-1.9,0.1c-1.4,0-2.4-0.4-3.1-1.4
		s-2.1-3.4-4.8-9.7l-20.1-47.4L178.3,214.2L178.3,214.2L178.3,214.2z M175.6,239.6c1.7,4,4.8,11.4,6,14.5h-11.7
		C171.1,251.1,174,243.7,175.6,239.6"/>
</g>
<g>
	<path class="st17" d="M180,216.7c-0.4,0.9-19.3,47.8-19.3,47.8c-1.6,3.9-2.9,6.4-3.7,7.6c-1.2,1.8-2.9,2.8-4.9,3v1h16.5v-0.9
		c-1.7-0.1-3-0.2-4-0.5c-2.5-0.9-3-2.4-3-3.4c0-1.1,0.4-2.9,1.2-5.2l2.7-7.4h0.5h20.2l2.5,5.8l1.1,3c0.5,1.5,0.7,2.6,0.7,3.4
		c0,1.8-0.6,3-1.8,3.5c-1,0.4-2.7,0.6-5.2,0.8v0.9h27.1v-0.9c-1.9-0.1-3.4-1-4.6-2.5c-1.1-1.5-2.8-4.9-5-10.2
		c0,0-17.6-41.4-19.5-45.9H180V216.7z M174.8,234.9h1.6l9.1,21.9h-19.3L174.8,234.9z"/>
</g>
<g>
	<path class="st68" d="M207.4,215.5l-0.1,21.4h6l0.2-1.6c0.5-5.7,2.5-9.4,6.2-11.5c1.7-1,4.1-1.4,7.2-1.7v44.5
		c0,3.6-0.8,4.8-1.1,5.1c-0.4,0.3-1.6,1.1-5.7,1.1h-1.8v5.9h35.1v-5.9h-1.8c-4.2,0-5.4-0.8-5.8-1.1c-0.3-0.3-1.1-1.4-1.1-5.1v-44.5
		c3.1,0.2,5.6,0.8,7.2,1.7c3.4,1.9,5.4,5.8,6.2,11.6l0.2,1.5h6l-0.1-21.4L207.4,215.5L207.4,215.5z"/>
</g>
<g>
	<path class="st17" d="M209.9,218c0,1.2-0.1,15-0.1,16.3h1.1c0.7-6.2,3.1-10.5,7.4-12.7c2.4-1.3,5.8-2,10.3-2.1h0.8v47.1
		c0,3.4-0.7,5.7-2,6.9c-1.2,1.1-3.4,1.7-6.7,1.8v0.9h30v-0.8c-3.3-0.1-5.6-0.7-6.8-1.8c-1.3-1.2-1.9-3.5-1.9-7v-47.1h0.8
		c4.6,0.1,8,0.9,10.3,2.1c4,2.3,6.5,6.7,7.4,12.7h1.2c0-1.2-0.1-15-0.1-16.3H209.9L209.9,218z"/>
</g>
<g>
	<path class="st68" d="M265.3,215.5v5.7l1.6,0.1c3.7,0.3,4.6,1,4.8,1c0.4,0.3,1.2,1.4,1.2,5.2v39c0,3.8-0.8,4.8-1,5
		c-0.4,0.4-1.6,1-4.8,1.2l-1.7,0.1v5.8h33.2v-5.8l-1.8-0.1c-3.4-0.1-4.6-1-4.8-1.2c-0.3-0.4-1-1.4-1-5v-11.9
		c4.6,6.2,17.9,23.9,17.9,23.9H330V273l-1.7-0.1c-0.6,0-1.1-0.2-1.5-0.3c-0.1,0-0.4-0.2-0.8-0.7c0,0-12.8-17.1-17.3-23.1
		c2.5-0.8,4.8-1.8,7-3.4c4.2-3.1,6.3-7.4,6.3-12.8c0-7.3-4-12.4-11.8-15.2c-3.8-1.3-8.8-1.9-14.9-1.9H265.3L265.3,215.5z
		 M290.9,224.1c0-0.6,0.1-1.2,0.4-1.5c0,0,0.7-0.5,3.5-0.5c3.7,0,6,1.2,7.3,4c0.9,1.7,1.2,4.2,1.2,7.3c0,4.8-1,8-2.9,9.1
		c-2,1.2-5.2,1.9-9.6,2.1C290.9,244.6,290.9,224.1,290.9,224.1z"/>
</g>
<g>
	<path class="st17" d="M267.9,218v0.9c2.8,0.3,4.6,0.8,5.4,1.5c1.5,1.2,2.2,3.5,2.2,7.2v39c0,3.5-0.6,5.8-1.8,6.9
		c-1.1,1-3,1.6-5.8,1.8v0.9H296v-0.9c-2.9-0.2-4.8-0.9-5.9-2c-1.1-1.2-1.7-3.4-1.7-6.7v-42.5c0-1.6,0.5-2.8,1.3-3.5
		c0.9-0.7,2.5-1,5.1-1c4.7,0,7.9,1.8,9.6,5.4c1,2.1,1.5,4.9,1.5,8.4c0,5.9-1.3,9.6-4.1,11.3c-2.7,1.6-6.7,2.5-12.7,2.6
		c0,0-0.5,0-0.7,0c0.2,0.2,1.2,1.6,1.2,1.6s20,26.6,20.3,27.2h17.3v-0.8c-0.6-0.1-1.1-0.2-1.5-0.3c-0.7-0.3-1.3-0.9-1.9-1.6
		l-19.5-25.9l1.1-0.2c3-0.6,6-1.8,8.6-3.8c3.5-2.7,5.2-6.2,5.2-10.7c0-6.2-3.3-10.4-10.1-12.8c-3.5-1.2-8.3-1.8-14.1-1.8h-27.1V218z
		"/>
</g>
<g>
	<path class="st68" d="M328.9,215.5v5.8l1.7,0.1c3,0.2,4.3,0.6,4.8,0.8c0.7,0.4,1.5,1.1,1.5,3.6v42.7c0,2.5-1,3.3-1.6,3.7
		c-0.5,0.2-1.7,0.7-4.6,0.7h-1.8v5.8h34.4v-5.9h-1.8c-3,0-4.6-0.6-5.2-1c-0.8-0.5-1.2-1.6-1.2-3.4v-42.7c0-2.5,1-3.3,1.6-3.6
		c0.5-0.2,1.7-0.6,4.9-0.8l1.7-0.1v-5.8L328.9,215.5L328.9,215.5z"/>
</g>
<g>
	<path class="st17" d="M331.5,218v0.9c2.4,0.1,4.1,0.5,5,1c1.9,1,2.9,2.9,2.9,5.8v42.7c0,2.9-1,4.9-3,5.9c-1,0.6-2.8,0.8-4.9,1v0.9
		h29.3v-0.9c-2.5-0.1-4.5-0.5-5.8-1.3c-1.6-1-2.4-2.9-2.4-5.6v-42.7c0-2.9,1-4.8,2.9-5.9c1-0.5,2.8-0.9,5.2-1v-0.9L331.5,218
		L331.5,218z"/>
</g>
<g>
	<path class="st68" d="M363.1,215.5v5.8l1.7,0.1c2.9,0.2,4.1,0.6,4.6,0.9c0.8,0.4,1.6,1.1,1.6,3.5v42.7c0,2.5-0.9,3.2-1.5,3.6
		c-0.5,0.3-1.6,0.7-4.6,0.8l-1.7,0.1v5.8H418l4.3-22h-5.8l-0.6,1c-2.6,5.6-5.5,9.5-8.7,11.4c-3.2,2-7.6,3-12.8,3
		c-3.6,0-4.7-0.5-4.8-0.7c-0.6-0.4-0.7-1.6-0.7-2.4v-19.5c3.4,0.2,6,1,7.3,2.4c1.6,1.7,2.8,4.9,3.3,9.6l0.2,1.6h5.7V230h-5.6
		l-0.3,1.5c-1,5.7-2.6,8.3-3.6,9.3c-1.2,1.2-3.7,2-7,2.1v-18.5c0-1.3,0.3-1.8,0.4-1.9c0,0,0.8-0.5,4-0.5c6.6,0,11.1,1,13.5,2.8
		c2.3,1.8,4,5.3,4.9,10.5l0.3,1.4h5.5v-21.4L363.1,215.5L363.1,215.5L363.1,215.5z"/>
</g>
<g>
	<path class="st17" d="M365.6,218v0.9c2.4,0.2,4,0.6,4.9,1c1.9,1,2.9,2.9,2.9,5.8v42.7c0,2.8-1,4.8-2.9,5.8c-1,0.6-2.8,1-5,1v0.9
		h50.3c0.2-1,3-15.3,3.3-16.8H418c-2.8,5.9-6,10-9.6,12.2s-8.4,3.3-14.2,3.3c-3.2,0-5.2-0.4-6.4-1.1c-1.1-0.9-1.8-2.3-1.8-4.4v-22
		h0.8c5.2,0,8.9,1.1,11,3.3c2,2.1,3.2,5.5,3.9,10.4h1v-28.2h-1c-1,4.8-2.4,8.2-4.2,10.1c-2,2-5.4,3-10.7,2.9H386v-21.1
		c0-1.9,0.5-3.2,1.4-3.9s2.7-1,5.6-1c7.2,0,12.2,1,15,3.3c2.8,2.1,4.7,6,5.8,11.5h1v-16.3L365.6,218L365.6,218L365.6,218z"/>
</g>
<g id="path4705_1_">
	<path class="st3" d="M517.5,8v408.9c0,32.8-6.7,64.6-19.9,94.4c-12.8,28.8-31.1,54.7-54.5,76.9c-23.4,22.2-50.6,39.6-81,51.8
		c-31.4,12.6-64.8,19-99.3,19s-67.9-6.4-99.3-19c-30.4-12.2-57.6-29.6-81-51.8S40.8,540.1,28,511.3c-13.2-29.8-20-61.6-20-94.4V8
		h254.5H517.5 M525.5,0h-263H0v416.9c0,138.9,117.6,250,262.8,250s262.8-111.2,262.8-250L525.5,0L525.5,0z"/>
</g>
</svg>
