<?xml version="1.0" encoding="utf-8"?>
<!-- Generator: Adobe Illustrator 21.1.0, SVG Export Plug-In . SVG Version: 6.00 Build 0)  -->
<svg version="1.1" id="Calque_1" xmlns="http://www.w3.org/2000/svg" xmlns:xlink="http://www.w3.org/1999/xlink" x="0px" y="0px"
	 viewBox="0 0 525 665.8" style="enable-background:new 0 0 525 665.8;" xml:space="preserve">
<style type="text/css">
	.st0{fill:#FFFFFF;}
	.st1{fill:#0084FF;}
	.st2{fill:#FF1B00;}
	.st3{fill:#010202;}
	.st4{fill:#0073FF;}
	.st5{fill:#23AF3D;}
	.st6{fill:none;stroke:#010202;stroke-width:5;}
	.st7{fill:none;stroke:#010202;stroke-width:5;stroke-linecap:round;stroke-linejoin:round;}
	.st8{fill:#040304;}
	.st9{fill:none;stroke:#040304;stroke-width:5;}
	.st10{fill:#FF1B00;stroke:#010202;stroke-width:5;}
	.st11{fill:#FFFFFF;stroke:#000000;stroke-width:4.9674;}
	.st12{fill:none;stroke:#000000;stroke-width:4;}
	.st13{fill:#0A0406;}
	.st14{fill:#1D1D1B;}
	.st15{fill:#FFE400;}
	.st16{clip-path:url(#SVGID_2_);fill:none;stroke:#010202;stroke-width:4.5066;stroke-miterlimit:10;}
	.st17{fill:#FFD730;}
	.st18{fill:#E7423F;}
	.st19{fill:#0084FF;stroke:#000000;stroke-width:4.0709;}
	.st20{fill:#FFE400;stroke:#000000;stroke-width:4.0529;}
	.st21{fill:none;stroke:#000000;stroke-width:4.1421;}
	.st22{clip-path:url(#SVGID_4_);fill:none;stroke:#010202;stroke-width:4.1565;}
	.st23{fill:none;stroke:#010202;stroke-width:4.1565;stroke-miterlimit:10;}
	.st24{fill:#FFFFFF;stroke:#000000;stroke-width:8.047;stroke-miterlimit:10;}
	.st25{fill:none;stroke:#000000;stroke-width:8.047;stroke-miterlimit:10;}
	.st26{clip-path:url(#SVGID_6_);fill:none;stroke:#000000;stroke-width:8;}
	.st27{fill:#FFFFFF;stroke:#000000;stroke-width:4.1427;stroke-linecap:square;stroke-miterlimit:10;}
	.st28{fill:#FFFFFF;stroke:#000000;stroke-width:4;}
	.st29{fill:#FF1B00;stroke:#000000;stroke-width:4;}
	.st30{fill:none;stroke:#000000;stroke-width:3.4792;stroke-miterlimit:10;}
	.st31{fill:none;stroke:#000000;stroke-width:3.9158;}
	.st32{fill:none;stroke:#000000;stroke-width:3.9158;stroke-miterlimit:10;}
	.st33{fill:none;stroke:#000000;stroke-width:3.8626;}
	.st34{fill:none;stroke:#000000;stroke-width:3.9186;}
	.st35{fill:none;stroke:#000000;stroke-width:3.9354;}
	.st36{fill:#FFD72E;}
	.st37{fill:#FFE400;stroke:#000000;stroke-width:3.2832;}
	.st38{fill:#FFFFFF;stroke:#000000;stroke-width:3.9046;}
	.st39{stroke:#000000;stroke-width:3.9046;}
	.st40{fill:#23AF3D;stroke:#000000;stroke-width:3.9046;}
	.st41{fill:#E8423F;}
	.st42{fill:none;stroke:#010202;stroke-width:3.9405;}
	.st43{fill:none;stroke:#010202;stroke-width:3.9405;stroke-miterlimit:17;}
	.st44{clip-path:url(#SVGID_8_);fill:#FFE400;}
	.st45{clip-path:url(#SVGID_10_);fill:none;stroke:#010202;stroke-width:3.9405;stroke-miterlimit:16;}
	.st46{fill:none;stroke:#010202;stroke-width:3.9405;stroke-miterlimit:9;}
	.st47{fill:none;stroke:#010202;stroke-width:3.9405;stroke-miterlimit:5;}
	.st48{fill:none;stroke:#010202;stroke-width:3.9405;stroke-miterlimit:7;}
	.st49{fill:none;stroke:#010202;stroke-width:3.9405;stroke-miterlimit:10;}
	.st50{clip-path:url(#SVGID_12_);fill:none;stroke:#010202;stroke-width:3.9405;}
	.st51{clip-path:url(#SVGID_14_);fill:none;stroke:#010202;stroke-width:4;stroke-miterlimit:7;}
	.st52{fill:none;stroke:#FFFFFF;stroke-width:7.0508;stroke-linecap:round;stroke-linejoin:round;}
	.st53{fill:none;stroke:#FFFFFF;stroke-width:3.9746;}
	.st54{fill:none;stroke:#FFFFFF;stroke-width:7.0508;stroke-linecap:round;}
	.st55{fill:#12080D;}
	.st56{fill:none;stroke:#000000;stroke-width:3.9746;}
	.st57{fill:none;stroke:#E41E2E;stroke-width:0.8122;}
	.st58{fill:none;stroke:#FFFFFF;stroke-width:2.9047;stroke-linecap:round;stroke-linejoin:round;}
	.st59{fill:none;stroke:#FFFFFF;stroke-width:2.4365;stroke-linecap:round;stroke-linejoin:round;}
	.st60{fill:#FFE400;stroke:#010202;stroke-width:3.141;}
	.st61{fill:#FFE400;stroke:#010202;stroke-width:2.9332;stroke-miterlimit:10;}
	.st62{fill:none;stroke:#010202;stroke-width:2.6714;stroke-linecap:square;stroke-miterlimit:10;}
	.st63{fill:#FFD134;stroke:#010202;stroke-width:2.9332;stroke-linecap:square;stroke-miterlimit:10;}
	.st64{fill:#FFD134;stroke:#010202;stroke-width:3.1256;stroke-miterlimit:10;}
	.st65{fill:#FF1B00;stroke:#010202;stroke-width:2.8366;}
	.st66{fill:none;stroke:#010202;stroke-width:2.9332;}
	.st67{clip-path:url(#SVGID_16_);fill:#010202;}
	.st68{fill:#FFD730;stroke:#FFFFFF;stroke-width:2.8511;stroke-miterlimit:10;}
	.st69{fill:#FF0000;}
</style>
<g>
	<path class="st5" d="M262.4,661.8c-69.1,0-134-25.7-182.9-72.5C30.7,542.6,3.8,480.6,3.8,414.6V4h517v410.6
		c0,66-26.9,128.1-75.7,174.7C396.5,636.1,331.5,661.8,262.4,661.8z"/>
	<path d="M517,8v406.6c0,32.8-6.7,64.6-19.9,94.5c-12.8,29-31.1,55-54.5,77.3c-23.4,22.4-50.6,39.9-80.9,52.2
		c-31.4,12.7-64.8,19.2-99.2,19.2c-34.4,0-67.8-6.4-99.2-19.2c-30.3-12.3-57.5-29.8-80.9-52.2c-23.3-22.3-41.7-48.3-54.5-77.3
		C14.7,479.2,8,447.3,8,414.6V8h254.4H517 M525,0H262.4H0v414.6c0,138.7,117.5,251.2,262.5,251.2S525,553.3,525,414.6V0L525,0z"/>
</g>
<g>
	<path class="st38" d="M279.1,614.1c0,7.5-5.9,13.7-13.3,13.7c-7.3,0-13.3-6.1-13.3-13.7V53.3c0-7.5,6-13.8,13.3-13.8
		c7.4,0,13.3,6.2,13.3,13.8V614.1z"/>
	<path class="st38" d="M192.6,38.1c11.6,22.3,44.3,38.1,53.8,39.8c9.5,1.6,39,8.3,39,8.3l15,12.6L285,113c0,0-33.6,2.7-38.4,2.7
		c-4.7,1.4-30.7,7.3-53.4,35.4c-3.3-4.7-17.6-18.4-17.6-58.8C175.6,59.8,190.3,40.9,192.6,38.1z"/>
	<path class="st38" d="M282.9,556.1c0,7.4-7.7,13.5-17,13.5s-17.1-6.1-17.1-13.5V171.3c0-7.4,7.7-13.4,17.1-13.4s17,6,17,13.4V556.1
		z"/>
	<path class="st38" d="M216.8,556.1c0,7.4-6,13.5-13.3,13.5s-13.1-6.1-13.1-13.5V171.3c0-7.4,5.9-13.4,13.1-13.4s13.3,6,13.3,13.4
		V556.1z"/>
	<path class="st38" d="M341.3,556.1c0,7.4-6,13.5-13.3,13.5s-13.1-6.1-13.1-13.5V171.3c0-7.4,5.9-13.4,13.1-13.4s13.3,6,13.3,13.4
		V556.1z"/>
	<path class="st38" d="M314.9,556.1c0,7.4-7.3,13.5-16.1,13.5c-9,0-16.3-6.1-16.3-13.5V171.3c0-7.4,7.3-13.4,16.3-13.4
		c8.9,0,16.1,6,16.1,13.4V556.1z"/>
	<path class="st38" d="M249.2,556.1c0,7.4-7.3,13.5-16.4,13.5c-9,0-16.3-6.1-16.3-13.5V171.3c0-7.4,7.3-13.4,16.3-13.4
		c9.1,0,16.4,6,16.4,13.4V556.1z"/>
</g>
<path class="st39" d="M246.3,78v37.7 M285.5,86.3l-0.4,26.7"/>
<g>
	<path class="st40" d="M182.5,190.2h166.6v29.7H182.5V190.2z"/>
	<path class="st40" d="M182.5,505.6h166.6v29.7H182.5V505.6z"/>
	<path class="st40" d="M182.6,492.9v-55.6l166.6-196.7v55.6L182.6,492.9z"/>
	<path class="st40" d="M349.2,492.9v-55.6L182.6,240.6v55.6L349.2,492.9z"/>
</g>
</svg>
