<?xml version="1.0" encoding="utf-8"?>
<!-- Generator: Adobe Illustrator 22.0.1, SVG Export Plug-In . SVG Version: 6.00 Build 0)  -->
<svg version="1.1" id="Calque_1" xmlns="http://www.w3.org/2000/svg" xmlns:xlink="http://www.w3.org/1999/xlink" x="0px" y="0px"
	 viewBox="0 0 551.2 669" style="enable-background:new 0 0 551.2 669;" xml:space="preserve">
<style type="text/css">
	.st0{fill:#FF0000;}
	.st1{fill:#FFFFFF;}
</style>
<path class="st0" d="M275.6,665c-72.6,0-140.8-27-192.1-76.1C32.3,539.9,4,474.7,4,405.4V4.1h543.1v401.3
	c0,69.3-28.2,134.5-79.5,183.5C416.4,637.9,348.2,665,275.6,665z"/>
<path d="M543.1,8.1v397.2c0,34.5-7.1,67.9-21,99.4c-13.5,30.4-32.7,57.8-57.3,81.3s-53.2,42-85,54.9c-33,13.4-68.1,20.1-104.2,20.1
	c-36.2,0-71.2-6.8-104.2-20.1c-31.9-12.9-60.5-31.4-85-54.9s-43.8-50.8-57.3-81.3c-13.9-31.5-21-64.9-21-99.4V8.1h267.3H543.1
	 M551.2,0H275.4H0v405.3C0,550.9,123.4,669,275.6,669s275.6-118.1,275.6-263.7V0L551.2,0z"/>
<rect x="216.1" y="116.5" class="st1" width="119.7" height="396.1"/>
<rect x="77.5" y="254.6" class="st1" width="396.1" height="119.7"/>
</svg>
