<?xml version="1.0" encoding="utf-8"?>
<!-- Generator: Adobe Illustrator 21.1.0, SVG Export Plug-In . SVG Version: 6.00 Build 0)  -->
<svg version="1.1" id="Calque_1" xmlns="http://www.w3.org/2000/svg" xmlns:xlink="http://www.w3.org/1999/xlink" x="0px" y="0px"
	 viewBox="0 0 525.7 666.9" style="enable-background:new 0 0 525.7 666.9;" xml:space="preserve">
<style type="text/css">
	.st0{fill:#FFFFFF;}
	.st1{fill:#0084FF;}
	.st2{fill:#FF1B00;}
	.st3{fill:#010202;}
	.st4{fill:#0073FF;}
	.st5{fill:#23AF3D;}
	.st6{fill:none;stroke:#010202;stroke-width:5;}
	.st7{fill:none;stroke:#010202;stroke-width:5;stroke-linecap:round;stroke-linejoin:round;}
	.st8{fill:#040304;}
	.st9{fill:none;stroke:#040304;stroke-width:5;}
	.st10{fill:#FF1B00;stroke:#010202;stroke-width:5;}
	.st11{fill:#FFFFFF;stroke:#000000;stroke-width:4.9674;}
	.st12{fill:none;stroke:#000000;stroke-width:4;}
	.st13{fill:#0A0406;}
	.st14{fill:#1D1D1B;}
	.st15{fill:#FFE400;}
	.st16{clip-path:url(#SVGID_2_);fill:none;stroke:#010202;stroke-width:4.5066;stroke-miterlimit:10;}
	.st17{fill:#FFD730;}
	.st18{fill:#E7423F;}
	.st19{fill:#0084FF;stroke:#000000;stroke-width:4.0709;}
	.st20{fill:#FFE400;stroke:#000000;stroke-width:4.0529;}
	.st21{fill:none;stroke:#000000;stroke-width:4.1421;}
	.st22{clip-path:url(#SVGID_4_);fill:none;stroke:#010202;stroke-width:4.1565;}
	.st23{fill:none;stroke:#010202;stroke-width:4.1565;stroke-miterlimit:10;}
	.st24{fill:#FFFFFF;stroke:#000000;stroke-width:8.047;stroke-miterlimit:10;}
	.st25{fill:none;stroke:#000000;stroke-width:8.047;stroke-miterlimit:10;}
	.st26{clip-path:url(#SVGID_6_);fill:none;stroke:#000000;stroke-width:8;}
	.st27{fill:#FFFFFF;stroke:#000000;stroke-width:4.1427;stroke-linecap:square;stroke-miterlimit:10;}
	.st28{fill:#FFFFFF;stroke:#000000;stroke-width:4;}
	.st29{fill:#FF1B00;stroke:#000000;stroke-width:4;}
	.st30{fill:none;stroke:#000000;stroke-width:3.4792;stroke-miterlimit:10;}
	.st31{fill:none;stroke:#000000;stroke-width:3.9158;}
	.st32{fill:none;stroke:#000000;stroke-width:3.9158;stroke-miterlimit:10;}
	.st33{fill:none;stroke:#000000;stroke-width:3.8626;}
	.st34{fill:none;stroke:#000000;stroke-width:3.9186;}
	.st35{fill:none;stroke:#000000;stroke-width:3.9354;}
	.st36{fill:#FFD72E;}
	.st37{fill:#FFE400;stroke:#000000;stroke-width:3.2832;}
	.st38{fill:#FFFFFF;stroke:#000000;stroke-width:3.9046;}
	.st39{stroke:#000000;stroke-width:3.9046;}
	.st40{fill:#23AF3D;stroke:#000000;stroke-width:3.9046;}
	.st41{fill:#E8423F;}
	.st42{fill:none;stroke:#010202;stroke-width:3.9405;}
	.st43{fill:none;stroke:#010202;stroke-width:3.9405;stroke-miterlimit:17;}
	.st44{clip-path:url(#SVGID_8_);fill:#FFE400;}
	.st45{clip-path:url(#SVGID_10_);fill:none;stroke:#010202;stroke-width:3.9405;stroke-miterlimit:16;}
	.st46{fill:none;stroke:#010202;stroke-width:3.9405;stroke-miterlimit:9;}
	.st47{fill:none;stroke:#010202;stroke-width:3.9405;stroke-miterlimit:5;}
	.st48{fill:none;stroke:#010202;stroke-width:3.9405;stroke-miterlimit:7;}
	.st49{fill:none;stroke:#010202;stroke-width:3.9405;stroke-miterlimit:10;}
	.st50{clip-path:url(#SVGID_12_);fill:none;stroke:#010202;stroke-width:3.9405;}
	.st51{clip-path:url(#SVGID_14_);fill:none;stroke:#010202;stroke-width:4;stroke-miterlimit:7;}
	.st52{fill:none;stroke:#FFFFFF;stroke-width:7.0508;stroke-linecap:round;stroke-linejoin:round;}
	.st53{fill:none;stroke:#FFFFFF;stroke-width:3.9746;}
	.st54{fill:none;stroke:#FFFFFF;stroke-width:7.0508;stroke-linecap:round;}
	.st55{fill:#12080D;}
	.st56{fill:none;stroke:#000000;stroke-width:3.9746;}
	.st57{fill:none;stroke:#E41E2E;stroke-width:0.8122;}
	.st58{fill:none;stroke:#FFFFFF;stroke-width:2.9047;stroke-linecap:round;stroke-linejoin:round;}
	.st59{fill:none;stroke:#FFFFFF;stroke-width:2.4365;stroke-linecap:round;stroke-linejoin:round;}
	.st60{fill:#FFE400;stroke:#010202;stroke-width:3.141;}
	.st61{fill:#FFE400;stroke:#010202;stroke-width:2.9332;stroke-miterlimit:10;}
	.st62{fill:none;stroke:#010202;stroke-width:2.6714;stroke-linecap:square;stroke-miterlimit:10;}
	.st63{fill:#FFD134;stroke:#010202;stroke-width:2.9332;stroke-linecap:square;stroke-miterlimit:10;}
	.st64{fill:#FFD134;stroke:#010202;stroke-width:3.1256;stroke-miterlimit:10;}
	.st65{fill:#FF1B00;stroke:#010202;stroke-width:2.8366;}
	.st66{fill:none;stroke:#010202;stroke-width:2.9332;}
	.st67{clip-path:url(#SVGID_16_);fill:#010202;}
	.st68{fill:#FFD730;stroke:#FFFFFF;stroke-width:2.8511;stroke-miterlimit:10;}
	.st69{fill:#FF0000;}
</style>
<g>
	<path class="st15" d="M262.9,662.9c-69.2,0-134.2-25.8-183.1-72.5C30.9,543.7,4,481.5,4,415.3V4h265.1l0,0h252.6v411.3
		c0,66.2-26.9,128.4-75.7,175.1C397.2,637.2,332.1,662.9,262.9,662.9z"/>
	<path class="st14" d="M517.7,8v407.3c0,32.9-6.7,64.8-20,94.8c-12.8,29-31.1,55.1-54.5,77.4c-23.4,22.4-50.6,40-81,52.3
		c-31.4,12.7-64.9,19.2-99.4,19.2s-67.9-6.5-99.3-19.2c-30.4-12.3-57.6-29.9-81-52.3c-23.4-22.4-41.7-48.4-54.5-77.4
		c-13.3-30-20-61.9-20-94.8V8h254.7h13l0,0L517.7,8 M525.7,0h-263l0,0H0v415.3c0,139.1,117.7,251.6,262.9,251.6
		c145.3,0,262.8-112.5,262.8-251.6V0L525.7,0z"/>
</g>
<g>
	<path class="st52" d="M401.7,285.1c2-13,3.1-27.8,2-37.7c-1.7-14.2-6.4-28.9-13.4-34.9c3.6-4.9,21.6-29.2-7-40.9 M124.2,285.1
		c-2.2-13-3.3-27.8-2.1-37.7c1.7-14.2,6.4-28.9,13.4-34.9c-3.5-4.9-21.5-29.2,7.1-40.9"/>
	<path class="st53" d="M208.4,523.9h106.9"/>
	<path class="st54" d="M131.4,227.2l87.7,60.4l0.4,114.3c0,0-1,16.5-5.7,26.3c-2.6,5.3-17.7,17.9-22.9,19.6 M393.1,227.2l-87.6,60.4
		l-0.3,114.3c0,0,1.1,16.5,5.6,26.3c2.5,5.3,17.6,17.9,23,19.6"/>
</g>
<g>
	<path d="M141.3,169.3c0,0-14.4-6.3-36.8-63.8C82.2,47.9,46,53.8,45.7,53.9c-1.1,0.3-3.8,0.5-4.4,3.8c-0.6,3.4,2,4.8,2.9,5.2
		c0.8,0.4,22.1,5.9,31.7,65.6c10.7,66.3,46.7,82.5,54.2,84.4C111.8,177.3,141.3,169.3,141.3,169.3"/>
	<path d="M421,105.4c22.4-57.6,58.5-51.7,58.8-51.6c1.1,0.3,3.9,0.5,4.5,3.8c0.6,3.4-2,4.8-2.8,5.2s-22.1,5.9-31.9,65.6
		c-10.6,66.3-46.7,82.5-54,84.4c18.2-35.5-11.2-43.5-11.2-43.5"/>
	<path d="M398.7,220.7c0,0,14,26.3,5.9,64.5c1.1,1.8,16.5,15.1,43.9,6.3s28.8-40.5,52.6-48.3C486,217.9,451.8,185.4,398.7,220.7"/>
</g>
<path class="st53" d="M495.2,241.8c0,0-21.8-10.9-34.1-10.9s-39.5,16.9-44.2,16.5c-5-0.3-10.1-0.3-10.1-0.3"/>
<path d="M126.8,219.6c0,0-13.9,26.3-5.8,64.4c-1.1,1.8-16.4,15.1-43.9,6.4c-27.5-8.8-28.9-40.5-52.8-48.3
	C39.5,216.8,73.7,184.4,126.8,219.6"/>
<path class="st53" d="M30.4,240.7c0,0,21.8-10.9,34.1-10.9s39.4,16.9,44.4,16.5c4.9-0.3,9.9-0.3,9.9-0.3"/>
<g>
	<path d="M208.4,525.9h106.8c0,0,2,19.3-12.9,19.3H219C207.6,545.2,208.4,525.9,208.4,525.9"/>
	<path d="M128.7,229.2l88.3,60.1l0.3,112.8c0,0-2.4,14.8-6.5,26c-2,5.3-17.7,18.2-23.1,18.2c-3.2-0.3-15-35.5-21.7-47.6
		c-3.2-5.9-28.8-27.2-12.6-50.4C106.4,276.4,128.7,229.2,128.7,229.2"/>
	<path d="M396.4,229.2L308,289.3l-0.3,112.8c0,0,2.5,14.8,6.4,26c2.2,5.3,17.9,18.2,23.2,18.2c3.4-0.3,15.1-35.5,21.8-47.6
		c3.1-5.9,28.6-27.2,12.6-50.4C418.5,276.4,396.4,229.2,396.4,229.2"/>
</g>
<g>
	<path class="st0" d="M164.7,271.8c0,13.5,11.6,24.4,25.9,24.4c7.1,0,13.5-2.7,18.2-7.1l-41.3-28.7
		C165.8,263.9,164.7,267.7,164.7,271.8"/>
	<path d="M172.5,271.8c0,9.4,8.1,17.1,18.1,17.1c4.9,0,9.3-1.8,12.6-4.8l-28.8-20C173.2,266.4,172.5,269,172.5,271.8"/>
	<path class="st0" d="M359.7,271.8c0,13.5-11.5,24.4-26,24.4c-7,0-13.4-2.7-18.2-7.1l41.1-28.7C358.6,263.9,359.7,267.7,359.7,271.8
		"/>
	<path d="M351.9,271.8c0,9.4-8.1,17.1-18.2,17.1c-4.8,0-9.2-1.8-12.6-4.8l28.8-20C351.1,266.4,351.9,269,351.9,271.8"/>
	<path d="M346.9,455c-1.1-0.6-11.8,0.6-28.3-14.8c-3.9-3.9-10.9-12.6-11.2-14.3c-3.4-12.3-4.5-25.8-4.2-47c0.3-24.6,0-92.4,0-92.4
		l92.1-63.8c0,0-6.7-14.3-17.4-14.8c-5.3-0.2-88.7,0.1-115.4,0.3c-26.7-0.1-110.1-0.5-115.3-0.3c-10.7,0.5-17.5,14.8-17.5,14.8
		l92.1,63.8c0,0-0.3,67.7,0.1,92.4c0.3,21.3-0.8,34.7-4.1,47c-0.4,1.7-7.3,10.4-11.4,14.3c-16.3,15.4-26.9,14.3-28.1,14.8
		c-6.4,2.2-13.8,7.3-6.4,36.1c7.4,28.6,20.2,30.8,20.2,30.8h141c0,0,12.6-2.2,20.2-30.8C360.6,462.3,353.3,457.3,346.9,455"/>
	<path class="st0" d="M140.5,169.4c-8.3,3.2-14.1,8.4-16.4,14.8c-0.8,2.2-1.2,4.5-1.2,6.9c0,6.3,2.2,14.6,7.6,22.2
		c14.9,21.2,33.5,18.8,42.2,14.8c0,0,0,0,0.1,0c2.8,5.3,5.5,8.8,11.7,11.6c4.4,2,10.1,0.3,15.6-1.2c1.9-0.6,4.6-1.3,5.8-1.4
		c0.8,0.4,2.5,2.1,3.8,3.2c3.2,3,6.8,6.4,11.1,6.9c3.4,0.3,6.9-1,10.7-2.4c3-1.1,6.3-2.4,8.3-2.2h0.4c0,0.1,0.3,0.3,0.3,0.3
		c3.2,2.7,7,4.8,22.1,5c15.3-0.2,19-2.5,21.8-5.3l0,0h0.3c2-0.2,5.3,1.1,8.4,2.2c3.6,1.4,7.3,2.7,10.6,2.4c4.2-0.4,7.8-3.9,11.2-6.9
		c1.1-1.1,2.8-2.7,3.6-3.2c1.1,0,3.9,0.8,5.9,1.4c5.3,1.6,11.2,3.2,15.4,1.2c6.2-2.8,9-6.2,11.8-11.6V228
		c5.3,2.2,26.9,6.6,43.4-14.7c5-6.5,6.4-15.9,6.4-22.2c0-2.4-0.3-4.6-1.1-6.7c-2.5-7.7-9.2-12.1-15.7-14.7"/>
	<path d="M378.5,172.6c0.8-2.1,1.1-4.5,1.1-6.8c0-12.5-10.4-22.5-23-22.5c-3.1,0-5.6,0.5-8.4,1.5c-2.8-9-11.5-15.5-21.8-15.5
		c-5,0-9.8,1.7-13.7,4.6c-4.2-6.4-11.2-10.7-19.3-10.7c-5,0-9.5,1.6-13.4,4.3c-4.8,3.6-17-4.1-17-4.1s-15,6.4-21.3,2.7
		c-3.4-1.9-7.2-3-11.3-3c-7.9,0-14.9,4-18.9,10.1c-3.8-2.7-8.3-4.3-13.4-4.3c-10.1,0-18.7,6.6-21.6,15.7c-2.6-1.1-5.5-1.7-8.5-1.7
		c-12.5,0-22.7,10.1-22.7,22.6c0,2.4,0.4,4.7,1.1,6.9c-9.7,2.7-28.6,13.2-11.2,37.9c17.4,24.7,36.6,12,36.6,12s3.2-1.7,5.6,2.9
		c2.4,4.6,4.3,7,9.2,9.2c4.8,2.2,16.7-4.1,20.6-2.9c3.9,1.2,9.4,9.5,14.1,9.9c4.6,0.5,12.8-5.1,18.9-4.6c6.1,0.5,0.7,5.1,22.5,5.3
		c21.7-0.3,15.6-4.8,21.4-5.3c6.2-0.5,14.3,5.1,19,4.6c4.5-0.5,10.1-8.7,14-9.9s15.7,5.1,20.7,2.9c4.8-2.2,6.7-4.6,9.2-9.2
		c2.2-4.6,5.3-2.9,5.3-2.9s20.2,12.4,37.5-12.3C407,185.7,388.3,175.5,378.5,172.6"/>
	<path class="st55" d="M226,490.6c1.8,3.6,0.7,7.8-2.5,9.2l-5.1,2.5c-3.2,1.7-7.2,0-9-3.4l-10.3-20.4c-1.8-3.6-0.7-7.8,2.5-9.5
		l5.1-2.5c3.2-1.4,7.2,0,9,3.6L226,490.6L226,490.6z"/>
	<path class="st55" d="M297.9,490.6c-1.7,3.6-0.8,7.8,2.5,9.2l5,2.5c3.1,1.7,7.3,0,9-3.4l10.4-20.4c1.7-3.6,0.6-7.8-2.5-9.5
		l-5.3-2.5c-3.1-1.4-7,0-8.7,3.6L297.9,490.6z"/>
</g>
<path class="st53" d="M226,491.7c1.8,3.6,0.7,7.8-2.5,9.2l-5.1,2.5c-3.2,1.7-7.2,0-9-3.4l-10.3-20.4c-1.8-3.6-0.7-7.8,2.5-9.5
	l5.1-2.5c3.2-1.4,7.2,0,9,3.6L226,491.7L226,491.7z M297.9,491.7c-1.7,3.6-0.8,7.8,2.5,9.2l5,2.5c3.1,1.7,7.3,0,9-3.4l10.4-20.4
	c1.7-3.6,0.6-7.8-2.5-9.5l-5.3-2.5c-3.1-1.4-7,0-8.7,3.6L297.9,491.7z"/>
<path class="st18" d="M306.8,481.1c4.8-7.6,6.2-7.3,6.4-7.3c19,14.3,31.6,36.7,31.6,61.6c0,43.1-37.2,78.1-82.9,78.1
	s-82.8-35-82.8-78.1c0-24.9,12.4-47.3,31.6-61.6c0.6-0.3,3.4-1.7,6.3,7.6c3,9.2,2.9,10.6,2.6,10.9c-12.6,10.6-20.6,26-20.6,43.1
	c0,32.2,28.2,58.2,62.8,58.2c34.7,0,62.7-26,62.7-58.2c0-17.4-8.1-32.7-21-43.7C303.8,491.7,301.5,489.8,306.8,481.1"/>
<path class="st56" d="M306.8,480c4.8-7.6,6.2-7.3,6.4-7.3c19,14.3,31.6,36.7,31.6,61.6c0,43.1-37.2,78.1-82.9,78.1
	s-82.8-35-82.8-78.1c0-24.9,12.4-47.3,31.6-61.6c0.6-0.3,3.4-1.7,6.3,7.6c3,9.2,2.9,10.6,2.6,10.9c-12.6,10.6-20.6,26-20.6,43.1
	c0,32.2,28.2,58.2,62.8,58.2c34.7,0,62.7-26,62.7-58.2c0-16.5-7.3-31.2-19.1-42.1c-1.7-1.5-2.3-3.9-1.6-6
	C304.3,484.7,305.2,482.7,306.8,480z"/>
<path class="st18" d="M284.5,522.2c1.1,5,2,10.4,2,16c0,21.8-11.1,39.5-24.9,39.5c-13.8,0-25-17.6-25-39.5c0-5.6,0.8-10.9,2.1-15.7
	C251.3,522.5,279.7,522.2,284.5,522.2"/>
<path class="st56" d="M284.5,523.4c1.1,5,2,10.4,2,16c0,21.8-11.1,39.5-24.9,39.5c-13.8,0-25-17.6-25-39.5c0-5.6,0.8-10.9,2.1-15.7
	C251.3,523.7,279.7,523.4,284.5,523.4z"/>
</svg>
