<?xml version="1.0" encoding="utf-8"?>
<!-- Generator: Adobe Illustrator 21.1.0, SVG Export Plug-In . SVG Version: 6.00 Build 0)  -->
<svg version="1.1" id="Calque_1" xmlns="http://www.w3.org/2000/svg" xmlns:xlink="http://www.w3.org/1999/xlink" x="0px" y="0px"
	 viewBox="0 0 549.9 667.5" style="enable-background:new 0 0 549.9 667.5;" xml:space="preserve">
<style type="text/css">
	.st0{fill:#FFFFFF;}
	.st1{fill:#0084FF;}
	.st2{fill:#FF1B00;}
	.st3{fill:#010202;}
	.st4{fill:#0073FF;}
	.st5{fill:#23AF3D;}
	.st6{fill:none;stroke:#010202;stroke-width:5;}
	.st7{fill:none;stroke:#010202;stroke-width:5;stroke-linecap:round;stroke-linejoin:round;}
	.st8{fill:#040304;}
	.st9{fill:none;stroke:#040304;stroke-width:5;}
	.st10{fill:#FF1B00;stroke:#010202;stroke-width:5;}
	.st11{fill:#FFFFFF;stroke:#000000;stroke-width:4.9674;}
	.st12{fill:none;stroke:#000000;stroke-width:4;}
	.st13{fill:#0A0406;}
	.st14{fill:#1D1D1B;}
	.st15{fill:#FFE400;}
	.st16{clip-path:url(#SVGID_2_);fill:none;stroke:#010202;stroke-width:4.5066;stroke-miterlimit:10;}
	.st17{fill:#FFD730;}
	.st18{fill:#E7423F;}
	.st19{fill:#0084FF;stroke:#000000;stroke-width:4.0709;}
	.st20{fill:#FFE400;stroke:#000000;stroke-width:4.0529;}
	.st21{fill:none;stroke:#000000;stroke-width:4.1421;}
	.st22{clip-path:url(#SVGID_4_);fill:none;stroke:#010202;stroke-width:4.1565;}
	.st23{fill:none;stroke:#010202;stroke-width:4.1565;stroke-miterlimit:10;}
	.st24{fill:#FFFFFF;stroke:#000000;stroke-width:8.047;stroke-miterlimit:10;}
	.st25{fill:none;stroke:#000000;stroke-width:8.047;stroke-miterlimit:10;}
	.st26{clip-path:url(#SVGID_6_);fill:none;stroke:#000000;stroke-width:8;}
	.st27{fill:#FFFFFF;stroke:#000000;stroke-width:4.1427;stroke-linecap:square;stroke-miterlimit:10;}
	.st28{fill:#FFFFFF;stroke:#000000;stroke-width:4;}
	.st29{fill:#FF1B00;stroke:#000000;stroke-width:4;}
	.st30{fill:none;stroke:#000000;stroke-width:3.4792;stroke-miterlimit:10;}
	.st31{fill:none;stroke:#000000;stroke-width:3.9158;}
	.st32{fill:none;stroke:#000000;stroke-width:3.9158;stroke-miterlimit:10;}
	.st33{fill:none;stroke:#000000;stroke-width:3.8626;}
	.st34{fill:none;stroke:#000000;stroke-width:3.9186;}
	.st35{fill:none;stroke:#000000;stroke-width:3.9354;}
	.st36{fill:#FFD72E;}
	.st37{fill:#FFE400;stroke:#000000;stroke-width:3.2832;}
	.st38{fill:#FFFFFF;stroke:#000000;stroke-width:3.9046;}
	.st39{stroke:#000000;stroke-width:3.9046;}
	.st40{fill:#23AF3D;stroke:#000000;stroke-width:3.9046;}
	.st41{fill:#E8423F;}
	.st42{fill:none;stroke:#010202;stroke-width:3.9405;}
	.st43{fill:none;stroke:#010202;stroke-width:3.9405;stroke-miterlimit:17;}
	.st44{clip-path:url(#SVGID_8_);fill:#FFE400;}
	.st45{clip-path:url(#SVGID_10_);fill:none;stroke:#010202;stroke-width:3.9405;stroke-miterlimit:16;}
	.st46{fill:none;stroke:#010202;stroke-width:3.9405;stroke-miterlimit:9;}
	.st47{fill:none;stroke:#010202;stroke-width:3.9405;stroke-miterlimit:5;}
	.st48{fill:none;stroke:#010202;stroke-width:3.9405;stroke-miterlimit:7;}
	.st49{fill:none;stroke:#010202;stroke-width:3.9405;stroke-miterlimit:10;}
	.st50{clip-path:url(#SVGID_12_);fill:none;stroke:#010202;stroke-width:3.9405;}
	.st51{clip-path:url(#SVGID_14_);fill:none;stroke:#010202;stroke-width:4;stroke-miterlimit:7;}
	.st52{fill:none;stroke:#FFFFFF;stroke-width:7.0508;stroke-linecap:round;stroke-linejoin:round;}
	.st53{fill:none;stroke:#FFFFFF;stroke-width:3.9746;}
	.st54{fill:none;stroke:#FFFFFF;stroke-width:7.0508;stroke-linecap:round;}
	.st55{fill:#12080D;}
	.st56{fill:none;stroke:#000000;stroke-width:3.9746;}
	.st57{fill:none;stroke:#E41E2E;stroke-width:0.8122;}
	.st58{fill:none;stroke:#FFFFFF;stroke-width:2.9047;stroke-linecap:round;stroke-linejoin:round;}
	.st59{fill:none;stroke:#FFFFFF;stroke-width:2.4365;stroke-linecap:round;stroke-linejoin:round;}
	.st60{fill:#FFE400;stroke:#010202;stroke-width:3.141;}
	.st61{fill:#FFE400;stroke:#010202;stroke-width:2.9332;stroke-miterlimit:10;}
	.st62{fill:none;stroke:#010202;stroke-width:2.6714;stroke-linecap:square;stroke-miterlimit:10;}
	.st63{fill:#FFD134;stroke:#010202;stroke-width:2.9332;stroke-linecap:square;stroke-miterlimit:10;}
	.st64{fill:#FFD134;stroke:#010202;stroke-width:3.1256;stroke-miterlimit:10;}
	.st65{fill:#FF1B00;stroke:#010202;stroke-width:2.8366;}
	.st66{fill:none;stroke:#010202;stroke-width:2.9332;}
	.st67{clip-path:url(#SVGID_16_);fill:#010202;}
	.st68{fill:#FFD730;stroke:#FFFFFF;stroke-width:2.8511;stroke-miterlimit:10;}
	.st69{fill:#FF0000;}
</style>
<g>
	<path class="st0" d="M274.9,663.6c-72.4,0-140.5-27-191.6-76C32.2,538.7,4,473.6,4,404.5V4.1h541.9v400.4
		c0,69.2-28.2,134.2-79.3,183.1C415.4,636.6,347.3,663.6,274.9,663.6z"/>
	<path d="M541.8,8.1v396.4c0,34.4-7,67.8-20.9,99.2c-13.4,30.4-32.6,57.6-57.1,81.1s-53.1,41.9-84.9,54.7
		c-32.9,13.3-67.9,20.1-104,20.1s-71.1-6.8-104-20.1c-31.8-12.9-60.3-31.3-84.8-54.7c-24.5-23.4-43.7-50.7-57.1-81.1
		c-13.9-31.4-20.9-64.8-20.9-99.2V8.1h266.7H541.8 M549.9,0H274.8H0v404.4c0,145.3,123.1,263.1,274.9,263.1
		c151.9,0,275-117.8,275-263.1L549.9,0L549.9,0z"/>
</g>
<rect x="274.8" y="7.5" class="st2" width="267.2" height="86.2"/>
<rect x="274.8" y="189.4" class="st2" width="267.8" height="95.6"/>
<path class="st2" d="M274.8,476.3h256.8c6.7-22.8,10.4-46.9,10.4-71.8v-23.8H274.9L274.8,476.3L274.8,476.3z"/>
<path class="st2" d="M476.7,571.9h-202v95.6h0.9c85-0.3,161-37.4,211.3-95.6H476.7L476.7,571.9z"/>
<g>
	<g>
		<g>
			<g>
				<g>
					<defs>
						<polyline id="SVGID_3_" points="-4.2,0 549.9,0 551.9,669.7 -2.1,669.7 						"/>
					</defs>
					<clipPath id="SVGID_2_">
						<use xlink:href="#SVGID_3_"  style="overflow:visible;"/>
					</clipPath>
					<path style="clip-path:url(#SVGID_2_);fill:none;stroke:#010202;stroke-width:4.1565;" d="M274.8,285h275.1v-95.6H274.8V285z
						 M482.2,571.2L274.8,572v89.9h0.9C360.7,661.6,431.9,629.4,482.2,571.2z M274.8,571.9H487c23.9-27.7,42-60.2,52.5-95.7H274.8
						V571.9z M274.8,476.3h264.7c6.7-22.8,10.4-46.9,10.4-71.8v-23.8H274.8V476.3z M274.8,380.6h275.1V285H274.8V380.6z M549.9,93.8
						V0.1H274.8v93.7H549.9z M274.8,189.4h275.1V93.8H274.8V189.4z"/>
				</g>
			</g>
		</g>
	</g>
</g>
<path class="st2" d="M23.4,100.8c0,28.4,13.6,62,51.9,63c7.2,0.2,25.4-0.7,37.4-12.4c7.2-7,10.8-16.7,10.8-28.8
	c0-20.3-10.3-29.3-19-33.3C94,84.5,81.6,85,74.4,87.2c2.3-6,8-15.7,27.7-16.4c7.9-0.3,19.2,1.8,28.2,12.8
	c10.8,13.2,20.5,42.3,5.3,105.4l-0.6,2.6h77.9v-2.1c1-65.7-12.5-113.1-40.1-141.1c-23.1-23.4-49.5-26-59.8-26
	C24.5,22.4,23.4,100,23.4,100.8"/>
<path class="st3" d="M113,20.3c-46.6,0-69,21.3-79.6,39.1c-11.9,20.1-12,40.4-12,41.3c0,29.4,14.1,64.1,53.9,65.1H76h0.8
	c11.5,0,48.8-3.1,48.8-43.3c0-28.9-20.5-39.2-39.6-39.2c-2.5,0-5.2,0.2-7.8,0.6c3.2-5.1,9.7-10.7,24-11.2c0.5,0,0.8,0,1.2,0
	c7.2,0,17.5,2.2,25.7,12.5c10.2,13,19.3,41.4,4.5,103.2l-1.2,5.1h5.3h73.2h4.1l0.1-4.1c1-66.2-12.7-114.2-40.7-142.6
	C150.6,22.9,123.6,20.3,113,20.3 M25.5,100.7c0-3.3,1.8-76.2,87.5-76.2c19.3,0,97.6,9.2,97.8,157.8c0,2.4,0,4.8-0.1,7.2h-73.1
	c5.5-22.8,7.9-41.9,7.9-57.5c0-46.1-20.5-63.3-42.1-63.3c-0.4,0-0.9,0-1.3,0C73.9,69.6,72,89.3,70.8,90.8c0.7-0.6,2-1.2,3.8-1.7
	c0.4-0.1,0.9-0.3,1.4-0.4c2.7-0.7,6.2-1.1,10.1-1.1c15.1,0,35.5,6.9,35.5,35c0,35.5-32.4,39.1-44.7,39.1c-0.5,0-1,0-1.4,0
	C39.3,160.8,25.5,129.3,25.5,100.7L25.5,100.7L25.5,100.7L25.5,100.7z"/>
<rect x="121.3" y="197.4" class="st2" width="105.5" height="15.7"/>
<rect x="121.3" y="197.4" class="st23" width="105.5" height="15.7"/>
<rect x="121.3" y="240.6" class="st2" width="105.5" height="15.7"/>
<rect x="121.3" y="240.6" class="st23" width="105.5" height="15.7"/>
<rect x="100" y="219" class="st2" width="148.1" height="15.7"/>
<rect x="100" y="219" class="st23" width="148.1" height="15.7"/>
<polygon class="st2" points="137.2,500.4 90.9,554.6 126.7,262.7 221.1,262.7 257.3,554.6 210.6,500.8 174.1,616.8 "/>
<polygon class="st23" points="137.2,500.4 90.9,554.6 126.7,262.7 221.1,262.7 257.3,554.6 210.6,500.8 174.1,616.8 "/>
<path class="st25" d="M274.8,663.2c-2.5,0,125.9,10,214.6-97.5"/>
</svg>
