<?xml version="1.0" encoding="utf-8"?>
<!-- Generator: Adobe Illustrator 21.1.0, SVG Export Plug-In . SVG Version: 6.00 Build 0)  -->
<svg version="1.1" id="Calque_1" xmlns="http://www.w3.org/2000/svg" xmlns:xlink="http://www.w3.org/1999/xlink" x="0px" y="0px"
	 viewBox="0 0 551.1 669" style="enable-background:new 0 0 551.1 669;" xml:space="preserve">
<style type="text/css">
	.st0{fill:#FFFFFF;}
	.st1{fill:#0084FF;}
	.st2{fill:#FF1B00;}
	.st3{fill:#010202;}
	.st4{fill:#0073FF;}
	.st5{fill:#23AF3D;}
	.st6{fill:none;stroke:#010202;stroke-width:5;}
	.st7{fill:none;stroke:#010202;stroke-width:5;stroke-linecap:round;stroke-linejoin:round;}
	.st8{fill:#040304;}
	.st9{fill:none;stroke:#040304;stroke-width:5;}
	.st10{fill:#FF1B00;stroke:#010202;stroke-width:5;}
	.st11{fill:#FFFFFF;stroke:#000000;stroke-width:4.9674;}
	.st12{fill:none;stroke:#000000;stroke-width:4;}
	.st13{fill:#0A0406;}
	.st14{fill:#1D1D1B;}
	.st15{fill:#FFE400;}
	.st16{clip-path:url(#SVGID_2_);fill:none;stroke:#010202;stroke-width:4.5066;stroke-miterlimit:10;}
	.st17{fill:#FFD730;}
	.st18{fill:#E7423F;}
	.st19{fill:#0084FF;stroke:#000000;stroke-width:4.0709;}
	.st20{fill:#FFE400;stroke:#000000;stroke-width:4.0529;}
	.st21{fill:none;stroke:#000000;stroke-width:4.1421;}
	.st22{clip-path:url(#SVGID_4_);fill:none;stroke:#010202;stroke-width:4.1565;}
	.st23{fill:none;stroke:#010202;stroke-width:4.1565;stroke-miterlimit:10;}
	.st24{fill:#FFFFFF;stroke:#000000;stroke-width:8.047;stroke-miterlimit:10;}
	.st25{fill:none;stroke:#000000;stroke-width:8.047;stroke-miterlimit:10;}
	.st26{clip-path:url(#SVGID_6_);fill:none;stroke:#000000;stroke-width:8;}
	.st27{fill:#FFFFFF;stroke:#000000;stroke-width:4.1427;stroke-linecap:square;stroke-miterlimit:10;}
	.st28{fill:#FFFFFF;stroke:#000000;stroke-width:4;}
	.st29{fill:#FF1B00;stroke:#000000;stroke-width:4;}
	.st30{fill:none;stroke:#000000;stroke-width:3.4792;stroke-miterlimit:10;}
	.st31{fill:none;stroke:#000000;stroke-width:3.9158;}
	.st32{fill:none;stroke:#000000;stroke-width:3.9158;stroke-miterlimit:10;}
	.st33{fill:none;stroke:#000000;stroke-width:3.8626;}
	.st34{fill:none;stroke:#000000;stroke-width:3.9186;}
	.st35{fill:none;stroke:#000000;stroke-width:3.9354;}
	.st36{fill:#FFD72E;}
	.st37{fill:#FFE400;stroke:#000000;stroke-width:3.2832;}
	.st38{fill:#FFFFFF;stroke:#000000;stroke-width:3.9046;}
	.st39{stroke:#000000;stroke-width:3.9046;}
	.st40{fill:#23AF3D;stroke:#000000;stroke-width:3.9046;}
	.st41{fill:#E8423F;}
	.st42{fill:none;stroke:#010202;stroke-width:3.9405;}
	.st43{fill:none;stroke:#010202;stroke-width:3.9405;stroke-miterlimit:17;}
	.st44{clip-path:url(#SVGID_8_);fill:#FFE400;}
	.st45{clip-path:url(#SVGID_10_);fill:none;stroke:#010202;stroke-width:3.9405;stroke-miterlimit:16;}
	.st46{fill:none;stroke:#010202;stroke-width:3.9405;stroke-miterlimit:9;}
	.st47{fill:none;stroke:#010202;stroke-width:3.9405;stroke-miterlimit:5;}
	.st48{fill:none;stroke:#010202;stroke-width:3.9405;stroke-miterlimit:7;}
	.st49{fill:none;stroke:#010202;stroke-width:3.9405;stroke-miterlimit:10;}
	.st50{clip-path:url(#SVGID_12_);fill:none;stroke:#010202;stroke-width:3.9405;}
	.st51{clip-path:url(#SVGID_14_);fill:none;stroke:#010202;stroke-width:4;stroke-miterlimit:7;}
	.st52{fill:none;stroke:#FFFFFF;stroke-width:7.0508;stroke-linecap:round;stroke-linejoin:round;}
	.st53{fill:none;stroke:#FFFFFF;stroke-width:3.9746;}
	.st54{fill:none;stroke:#FFFFFF;stroke-width:7.0508;stroke-linecap:round;}
	.st55{fill:#12080D;}
	.st56{fill:none;stroke:#000000;stroke-width:3.9746;}
	.st57{fill:none;stroke:#E41E2E;stroke-width:0.8122;}
	.st58{fill:none;stroke:#FFFFFF;stroke-width:2.9047;stroke-linecap:round;stroke-linejoin:round;}
	.st59{fill:none;stroke:#FFFFFF;stroke-width:2.4365;stroke-linecap:round;stroke-linejoin:round;}
	.st60{fill:#FFE400;stroke:#010202;stroke-width:3.141;}
	.st61{fill:#FFE400;stroke:#010202;stroke-width:2.9332;stroke-miterlimit:10;}
	.st62{fill:none;stroke:#010202;stroke-width:2.6714;stroke-linecap:square;stroke-miterlimit:10;}
	.st63{fill:#FFD134;stroke:#010202;stroke-width:2.9332;stroke-linecap:square;stroke-miterlimit:10;}
	.st64{fill:#FFD134;stroke:#010202;stroke-width:3.1256;stroke-miterlimit:10;}
	.st65{fill:#FF1B00;stroke:#010202;stroke-width:2.8366;}
	.st66{fill:none;stroke:#010202;stroke-width:2.9332;}
	.st67{clip-path:url(#SVGID_16_);fill:#010202;}
	.st68{fill:#FFD730;stroke:#FFFFFF;stroke-width:2.8511;stroke-miterlimit:10;}
	.st69{fill:#FF0000;}
</style>
<g>
	<path class="st0" d="M275.4,665c-72.6,0-140.8-26.6-192-75C32.2,541.7,4,477.4,4,409V4h543.1v405c0,68.4-28.2,132.7-79.5,181
		C416.2,638.4,348,665,275.4,665z"/>
	<path d="M543.1,8v401c0,34-7.1,67-21,98c-13.5,30-32.7,56.9-57.3,80.1c-24.6,23.2-53.2,41.4-85.1,54.1
		c-33,13.2-68.1,19.8-104.3,19.8s-71.3-6.7-104.3-19.8c-31.9-12.7-60.5-30.9-85-54.1C61.6,564,42.3,537,28.9,507C15,476,8,443,8,409
		V8H543.1 M551.1,0H0v409c0,143.7,123.2,260,275.4,260c152.1,0,275.7-116.3,275.7-260V0L551.1,0z"/>
</g>
<path d="M203.2,154.6c6.5,10.3,10.8,68.5-58.3,66.4c-41.7-1.2-71.6-50.5-59.6-103.5c12-53.3,66.4-84.4,113.9-83.5
	c82.7,2.1,124.9,64.6,137.2,99.6c10.8,32.3,17.2,75.2,16.9,102.3H229.4c8.6-49.3,4.6-64.5,3.4-69.4c-2.1-8.5-12-50.3-48.1-50.3
	s-43.5,31.4-43.5,31.4s-4,24.4,14.2,28.3c4.6,0.9,14.2,0.3,14.2-11.6c0-5.8-4.9-11.3-13.6-10.1C160,135.1,186.5,127.8,203.2,154.6
	L203.2,154.6z M194.8,268.5c-9.3,0-16.7,7.3-16.7,16.4c0,9.1,7.4,16.7,16.7,16.7h0.3H388c9.3,0,16.9-7.6,16.9-16.7
	c0-9.1-7.6-16.4-16.9-16.4H194.8L194.8,268.5z M212.8,242c-5.3,0-9.3,4.6-9.3,10.1c0,5.8,4,10.1,9.3,10.1H370c5,0,9.3-4.3,9.3-10.1
	c0-5.5-4.4-10.1-9.3-10.1H212.8z M204.1,307.8c-5.6,0-10.2,4.7-10.2,9.9c0,5.6,4.6,10.2,10.2,10.2h174.3c5.6,0,10.2-4.7,10.2-10.2
	c0-5.3-4.7-9.9-10.2-9.9H204.1z M210.9,333.5l-42,262.7l71.6-53.5l50.8,54.3l51.1-54.3l71.6,53.5l-42.4-262.7H210.9z"/>
</svg>
