<?xml version="1.0" encoding="utf-8"?>
<!-- Generator: Adobe Illustrator 21.1.0, SVG Export Plug-In . SVG Version: 6.00 Build 0)  -->
<svg version="1.1" id="Calque_1" xmlns="http://www.w3.org/2000/svg" xmlns:xlink="http://www.w3.org/1999/xlink" x="0px" y="0px"
	 viewBox="0 0 551.2 669" style="enable-background:new 0 0 551.2 669;" xml:space="preserve">
<style type="text/css">
	.st0{fill:#FFFFFF;}
	.st1{fill:#0084FF;}
	.st2{fill:#FF1B00;}
	.st3{fill:#010202;}
	.st4{fill:#0073FF;}
	.st5{fill:#23AF3D;}
	.st6{fill:none;stroke:#010202;stroke-width:5;}
	.st7{fill:none;stroke:#010202;stroke-width:5;stroke-linecap:round;stroke-linejoin:round;}
	.st8{fill:#040304;}
	.st9{fill:none;stroke:#040304;stroke-width:5;}
	.st10{fill:#FF1B00;stroke:#010202;stroke-width:5;}
	.st11{fill:#FFFFFF;stroke:#000000;stroke-width:4.9674;}
	.st12{fill:none;stroke:#000000;stroke-width:4;}
	.st13{fill:#0A0406;}
	.st14{fill:#1D1D1B;}
	.st15{fill:#FFE400;}
	.st16{clip-path:url(#SVGID_2_);fill:none;stroke:#010202;stroke-width:4.5066;stroke-miterlimit:10;}
	.st17{fill:#FFD730;}
	.st18{fill:#E7423F;}
	.st19{fill:#0084FF;stroke:#000000;stroke-width:4.0709;}
	.st20{fill:#FFE400;stroke:#000000;stroke-width:4.0529;}
	.st21{fill:none;stroke:#000000;stroke-width:4.1421;}
	.st22{clip-path:url(#SVGID_4_);fill:none;stroke:#010202;stroke-width:4.1565;}
	.st23{fill:none;stroke:#010202;stroke-width:4.1565;stroke-miterlimit:10;}
	.st24{fill:#FFFFFF;stroke:#000000;stroke-width:8.047;stroke-miterlimit:10;}
	.st25{fill:none;stroke:#000000;stroke-width:8.047;stroke-miterlimit:10;}
	.st26{clip-path:url(#SVGID_6_);fill:none;stroke:#000000;stroke-width:8;}
	.st27{fill:#FFFFFF;stroke:#000000;stroke-width:4.1427;stroke-linecap:square;stroke-miterlimit:10;}
	.st28{fill:#FFFFFF;stroke:#000000;stroke-width:4;}
	.st29{fill:#FF1B00;stroke:#000000;stroke-width:4;}
	.st30{fill:none;stroke:#000000;stroke-width:3.4792;stroke-miterlimit:10;}
	.st31{fill:none;stroke:#000000;stroke-width:3.9158;}
	.st32{fill:none;stroke:#000000;stroke-width:3.9158;stroke-miterlimit:10;}
	.st33{fill:none;stroke:#000000;stroke-width:3.8626;}
	.st34{fill:none;stroke:#000000;stroke-width:3.9186;}
	.st35{fill:none;stroke:#000000;stroke-width:3.9354;}
	.st36{fill:#FFD72E;}
	.st37{fill:#FFE400;stroke:#000000;stroke-width:3.2832;}
	.st38{fill:#FFFFFF;stroke:#000000;stroke-width:3.9046;}
	.st39{stroke:#000000;stroke-width:3.9046;}
	.st40{fill:#23AF3D;stroke:#000000;stroke-width:3.9046;}
	.st41{fill:#E8423F;}
	.st42{fill:none;stroke:#010202;stroke-width:3.9405;}
	.st43{fill:none;stroke:#010202;stroke-width:3.9405;stroke-miterlimit:17;}
	.st44{clip-path:url(#SVGID_8_);fill:#FFE400;}
	.st45{clip-path:url(#SVGID_10_);fill:none;stroke:#010202;stroke-width:3.9405;stroke-miterlimit:16;}
	.st46{fill:none;stroke:#010202;stroke-width:3.9405;stroke-miterlimit:9;}
	.st47{fill:none;stroke:#010202;stroke-width:3.9405;stroke-miterlimit:5;}
	.st48{fill:none;stroke:#010202;stroke-width:3.9405;stroke-miterlimit:7;}
	.st49{fill:none;stroke:#010202;stroke-width:3.9405;stroke-miterlimit:10;}
	.st50{clip-path:url(#SVGID_12_);fill:none;stroke:#010202;stroke-width:3.9405;}
	.st51{clip-path:url(#SVGID_14_);fill:none;stroke:#010202;stroke-width:4;stroke-miterlimit:7;}
	.st52{fill:none;stroke:#FFFFFF;stroke-width:7.0508;stroke-linecap:round;stroke-linejoin:round;}
	.st53{fill:none;stroke:#FFFFFF;stroke-width:3.9746;}
	.st54{fill:none;stroke:#FFFFFF;stroke-width:7.0508;stroke-linecap:round;}
	.st55{fill:#12080D;}
	.st56{fill:none;stroke:#000000;stroke-width:3.9746;}
	.st57{fill:none;stroke:#E41E2E;stroke-width:0.8122;}
	.st58{fill:none;stroke:#FFFFFF;stroke-width:2.9047;stroke-linecap:round;stroke-linejoin:round;}
	.st59{fill:none;stroke:#FFFFFF;stroke-width:2.4365;stroke-linecap:round;stroke-linejoin:round;}
	.st60{fill:#FFE400;stroke:#010202;stroke-width:3.141;}
	.st61{fill:#FFE400;stroke:#010202;stroke-width:2.9332;stroke-miterlimit:10;}
	.st62{fill:none;stroke:#010202;stroke-width:2.6714;stroke-linecap:square;stroke-miterlimit:10;}
	.st63{fill:#FFD134;stroke:#010202;stroke-width:2.9332;stroke-linecap:square;stroke-miterlimit:10;}
	.st64{fill:#FFD134;stroke:#010202;stroke-width:3.1256;stroke-miterlimit:10;}
	.st65{fill:#FF1B00;stroke:#010202;stroke-width:2.8366;}
	.st66{fill:none;stroke:#010202;stroke-width:2.9332;}
	.st67{clip-path:url(#SVGID_16_);fill:#010202;}
	.st68{fill:#FFD730;stroke:#FFFFFF;stroke-width:2.8511;stroke-miterlimit:10;}
	.st69{fill:#FF0000;}
</style>
<g>
	<path class="st0" d="M275.7,665c-72.6,0-140.8-27-192.1-76.1c-51.2-49-79.5-114.2-79.5-183.6V4h543.1v401.3
		c0,69.3-28.2,134.5-79.5,183.6C416.5,638,348.3,665,275.7,665z"/>
	<path d="M543.2,8v397.3c0,34.5-7.1,67.9-21,99.4c-13.5,30.4-32.7,57.8-57.3,81.3c-24.6,23.5-53.2,42-85.1,54.9
		c-33,13.4-68.1,20.1-104.3,20.1c-36.2,0-71.3-6.8-104.3-20.1c-31.9-12.9-60.5-31.4-85.1-54.9c-24.5-23.5-43.8-50.8-57.3-81.3
		c-13.9-31.5-21-64.9-21-99.4V8h267.4L543.2,8 M551.2,0H275.4H0v405.3C0,551,123.4,669,275.6,669s275.6-118.1,275.6-263.7L551.2,0
		L551.2,0z"/>
</g>
<path class="st2" d="M484.8,160.4c-0.1-3.1-0.3-6.2-0.7-9.3c-1.1-8.6-4-17.8-8.5-27.1c6.3-3.1,10.7-9.5,10.7-16.9
	c0-10.4-8.8-18.9-19.6-18.9c-5,0-9.5,1.8-12.9,4.7c-9.8-10.2-21.7-19.2-35.6-26.1c1.2-2.5,2-5.3,2-8.2c0-10.4-8.8-18.9-19.6-18.9
	c-9.6,0-17.6,6.7-19.2,15.6c-13.9-2.1-29-2.2-45.4,0.5c-2-8.4-9.8-14.6-19-14.6c-10.9,0-19.6,8.5-19.6,18.9c0,2.2,0.4,4.2,1.1,6.2
	c-1.4,0.6-2.8,1.1-4.2,1.7c-11.8,4.9-23.8,11.7-35.3,20.3c-3.5-3.7-8.6-6-14.2-6c-10.8,0-19.6,8.5-19.6,18.9
	c0,5.3,2.3,10.1,5.9,13.5c-9.7,11.4-18.3,24.6-25.2,39.5c-2.4-1-5.1-1.6-7.9-1.6c-11,0-19.9,8.6-19.9,19.2c0,9.1,6.5,16.7,15.3,18.7
	c-3.4,14.5-5.5,30.3-5.6,47.3h107.7c-0.5-43.2,9.4-75.1,27-92.8c20.3-20.5,50-22.7,73.8-12.7c25.1,10.5,35.9,35.7,26.2,54.9
	c-7.5,14.9-28.5,26.2-58.4,24.1c18.3,22.3,38,31.1,56,30.7c1.4,9.2,9.5,16.2,19.3,16.2c10.8,0,19.6-8.5,19.6-18.9
	c0-4.1-1.4-7.9-3.7-11c9.5-7.8,17.4-18.5,22.6-30.8c1.5,0.3,2.9,0.5,4.5,0.5c10.8,0,19.6-8.5,19.6-18.9
	C501.8,169.5,494.4,161.6,484.8,160.4"/>
<polygon class="st2" points="241.8,624 277.2,486.2 339.3,594.1 303.5,287.5 179.7,287.5 144.3,594.1 206,486.2 "/>
<path class="st6" d="M484.8,160.4c-0.1-3.1-0.3-6.2-0.7-9.3c-1.1-8.6-4-17.8-8.5-27.1c6.3-3.1,10.7-9.5,10.7-16.9
	c0-10.4-8.8-18.9-19.6-18.9c-5,0-9.5,1.8-12.9,4.7c-9.8-10.2-21.7-19.2-35.6-26.1c1.2-2.5,2-5.3,2-8.2c0-10.4-8.8-18.9-19.6-18.9
	c-9.6,0-17.6,6.7-19.2,15.6c-13.9-2.1-29-2.2-45.4,0.5c-2-8.4-9.8-14.6-19-14.6c-10.9,0-19.6,8.5-19.6,18.9c0,2.2,0.4,4.2,1.1,6.2
	c-1.4,0.6-2.8,1.1-4.2,1.7c-11.8,4.9-23.8,11.7-35.3,20.3c-3.5-3.7-8.6-6-14.2-6c-10.8,0-19.6,8.5-19.6,18.9
	c0,5.3,2.3,10.1,5.9,13.5c-9.7,11.4-18.3,24.6-25.2,39.5c-2.4-1-5.1-1.6-7.9-1.6c-11,0-19.9,8.6-19.9,19.2c0,9.1,6.5,16.7,15.3,18.7
	c-3.4,14.5-5.5,30.3-5.6,47.3h107.7c-0.5-43.2,9.4-75.1,27-92.8c20.3-20.5,50-22.7,73.8-12.7c25.1,10.5,35.9,35.7,26.2,54.9
	c-7.5,14.9-28.5,26.2-58.4,24.1c18.3,22.3,38,31.1,56,30.7c1.4,9.2,9.5,16.2,19.3,16.2c10.8,0,19.6-8.5,19.6-18.9
	c0-4.1-1.4-7.9-3.7-11c9.5-7.8,17.4-18.5,22.6-30.8c1.5,0.3,2.9,0.5,4.5,0.5c10.8,0,19.6-8.5,19.6-18.9
	C501.8,169.5,494.4,161.6,484.8,160.4z"/>
<path class="st7" d="M240.9,237.8c-0.5-43.2,11.8-71.4,24.7-92.6c14.9-24.7,50.1-62.3,126.3-46c85.4,18.2,76.5,144-22.8,114.5"/>
<path class="st8" d="M303.5,287.5H179.8l-35.4,306.6l2.1-3.6l3.2-5.5l56.5-98.7l33.6,129.5l1.1,4.3l1,4l1-4l1.1-4.3l33.3-129.5
	l56.8,98.7l3.2,5.5l2.1,3.6L303.5,287.5z M183.4,291.6h116.4l33,282.9l-52-90.4l-5.1-8.8l-2.5,9.9l-31.4,122.2l-31.7-122.2l-2.5-9.9
	l-5,8.9l-51.7,90.3L183.4,291.6z"/>
<line class="st9" x1="242.2" y1="289" x2="242.2" y2="612.5"/>
<rect x="149.7" y="235.6" class="st2" width="189.2" height="55.3"/>
<rect x="149.7" y="235.6" class="st6" width="189.2" height="55.3"/>
<rect x="126.5" y="251.6" class="st10" width="235.5" height="23.2"/>
</svg>
