<?xml version="1.0" encoding="utf-8"?>
<!-- Generator: Adobe Illustrator 21.1.0, SVG Export Plug-In . SVG Version: 6.00 Build 0)  -->
<svg version="1.1" id="Calque_1" xmlns="http://www.w3.org/2000/svg" xmlns:xlink="http://www.w3.org/1999/xlink" x="0px" y="0px"
	 viewBox="0 0 525.6 666.9" style="enable-background:new 0 0 525.6 666.9;" xml:space="preserve">
<style type="text/css">
	.st0{fill:#FFFFFF;}
	.st1{fill:#0084FF;}
	.st2{fill:#FF1B00;}
	.st3{fill:#010202;}
	.st4{fill:#0073FF;}
	.st5{fill:#23AF3D;}
	.st6{fill:none;stroke:#010202;stroke-width:5;}
	.st7{fill:none;stroke:#010202;stroke-width:5;stroke-linecap:round;stroke-linejoin:round;}
	.st8{fill:#040304;}
	.st9{fill:none;stroke:#040304;stroke-width:5;}
	.st10{fill:#FF1B00;stroke:#010202;stroke-width:5;}
	.st11{fill:#FFFFFF;stroke:#000000;stroke-width:4.9674;}
	.st12{fill:none;stroke:#000000;stroke-width:4;}
	.st13{fill:#0A0406;}
	.st14{fill:#1D1D1B;}
	.st15{fill:#FFE400;}
	.st16{clip-path:url(#SVGID_2_);fill:none;stroke:#010202;stroke-width:4.5066;stroke-miterlimit:10;}
	.st17{fill:#FFD730;}
	.st18{fill:#E7423F;}
	.st19{fill:#0084FF;stroke:#000000;stroke-width:4.0709;}
	.st20{fill:#FFE400;stroke:#000000;stroke-width:4.0529;}
	.st21{fill:none;stroke:#000000;stroke-width:4.1421;}
	.st22{clip-path:url(#SVGID_4_);fill:none;stroke:#010202;stroke-width:4.1565;}
	.st23{fill:none;stroke:#010202;stroke-width:4.1565;stroke-miterlimit:10;}
	.st24{fill:#FFFFFF;stroke:#000000;stroke-width:8.047;stroke-miterlimit:10;}
	.st25{fill:none;stroke:#000000;stroke-width:8.047;stroke-miterlimit:10;}
	.st26{clip-path:url(#SVGID_6_);fill:none;stroke:#000000;stroke-width:8;}
	.st27{fill:#FFFFFF;stroke:#000000;stroke-width:4.1427;stroke-linecap:square;stroke-miterlimit:10;}
	.st28{fill:#FFFFFF;stroke:#000000;stroke-width:4;}
	.st29{fill:#FF1B00;stroke:#000000;stroke-width:4;}
	.st30{fill:none;stroke:#000000;stroke-width:3.4792;stroke-miterlimit:10;}
	.st31{fill:none;stroke:#000000;stroke-width:3.9158;}
	.st32{fill:none;stroke:#000000;stroke-width:3.9158;stroke-miterlimit:10;}
	.st33{fill:none;stroke:#000000;stroke-width:3.8626;}
	.st34{fill:none;stroke:#000000;stroke-width:3.9186;}
	.st35{fill:none;stroke:#000000;stroke-width:3.9354;}
	.st36{fill:#FFD72E;}
	.st37{fill:#FFE400;stroke:#000000;stroke-width:3.2832;}
	.st38{fill:#FFFFFF;stroke:#000000;stroke-width:3.9046;}
	.st39{stroke:#000000;stroke-width:3.9046;}
	.st40{fill:#23AF3D;stroke:#000000;stroke-width:3.9046;}
	.st41{fill:#E8423F;}
	.st42{fill:none;stroke:#010202;stroke-width:3.9405;}
	.st43{fill:none;stroke:#010202;stroke-width:3.9405;stroke-miterlimit:17;}
	.st44{clip-path:url(#SVGID_8_);fill:#FFE400;}
	.st45{clip-path:url(#SVGID_10_);fill:none;stroke:#010202;stroke-width:3.9405;stroke-miterlimit:16;}
	.st46{fill:none;stroke:#010202;stroke-width:3.9405;stroke-miterlimit:9;}
	.st47{fill:none;stroke:#010202;stroke-width:3.9405;stroke-miterlimit:5;}
	.st48{fill:none;stroke:#010202;stroke-width:3.9405;stroke-miterlimit:7;}
	.st49{fill:none;stroke:#010202;stroke-width:3.9405;stroke-miterlimit:10;}
	.st50{clip-path:url(#SVGID_12_);fill:none;stroke:#010202;stroke-width:3.9405;}
	.st51{clip-path:url(#SVGID_14_);fill:none;stroke:#010202;stroke-width:4;stroke-miterlimit:7;}
	.st52{fill:none;stroke:#FFFFFF;stroke-width:7.0508;stroke-linecap:round;stroke-linejoin:round;}
	.st53{fill:none;stroke:#FFFFFF;stroke-width:3.9746;}
	.st54{fill:none;stroke:#FFFFFF;stroke-width:7.0508;stroke-linecap:round;}
	.st55{fill:#12080D;}
	.st56{fill:none;stroke:#000000;stroke-width:3.9746;}
	.st57{fill:none;stroke:#E41E2E;stroke-width:0.8122;}
	.st58{fill:none;stroke:#FFFFFF;stroke-width:2.9047;stroke-linecap:round;stroke-linejoin:round;}
	.st59{fill:none;stroke:#FFFFFF;stroke-width:2.4365;stroke-linecap:round;stroke-linejoin:round;}
	.st60{fill:#FFE400;stroke:#010202;stroke-width:3.141;}
	.st61{fill:#FFE400;stroke:#010202;stroke-width:2.9332;stroke-miterlimit:10;}
	.st62{fill:none;stroke:#010202;stroke-width:2.6714;stroke-linecap:square;stroke-miterlimit:10;}
	.st63{fill:#FFD134;stroke:#010202;stroke-width:2.9332;stroke-linecap:square;stroke-miterlimit:10;}
	.st64{fill:#FFD134;stroke:#010202;stroke-width:3.1256;stroke-miterlimit:10;}
	.st65{fill:#FF1B00;stroke:#010202;stroke-width:2.8366;}
	.st66{fill:none;stroke:#010202;stroke-width:2.9332;}
	.st67{clip-path:url(#SVGID_16_);fill:#010202;}
	.st68{fill:#FFD730;stroke:#FFFFFF;stroke-width:2.8511;stroke-miterlimit:10;}
	.st69{fill:#FF0000;}
</style>
<g>
	<path class="st2" d="M262.5,0.4H525v410.9c0,138.6-117.5,251.1-262.3,251.1L262.5,0.4z"/>
</g>
<g>
	<path class="st0" d="M262.7,662.3L262.7,662.3c-145,0-262.3-112.4-262.3-251.1V0.4h262.2L262.7,662.3z"/>
</g>
<g>
	<polygon class="st0" points="403.3,80 420.2,126.1 465.4,126.1 429.7,150.4 443.3,194.1 403.3,168.3 363.7,194.1 377.2,150.1 
		341.4,126.1 386.4,126.1 	"/>
</g>
<g>
	<path class="st3" d="M360.4,198.6l14.6-47.7l-39.9-26.7H385l18.3-49.6l18.3,49.6h49.9L432,151.3l14.7,47.3l-43.3-27.9L360.4,198.6z
		 M403.3,166.1l36.6,23.6l-12.4-40.1l31.7-21.7h-40.3l-15.6-42.5l-15.6,42.5h-40.1l31.9,21.4l-12.4,40.3L403.3,166.1z"/>
</g>
<g>
	<polygon class="st0" points="403.3,192 420.2,238 465.4,238 429.7,262.4 443.3,306.1 403.3,280.4 363.7,306.1 377.2,262.1 
		341.4,238 386.4,238 	"/>
</g>
<g>
	<path class="st3" d="M360.4,310.5l14.6-47.7l-39.9-26.7h50l18.3-49.7l18.3,49.7h49.9l-39.5,27l14.7,47.3l-43.3-27.9L360.4,310.5z
		 M403.3,278.1l36.6,23.5l-12.4-40.1l31.7-21.7h-40.3l-15.6-42.5l-15.6,42.5h-40.1l31.9,21.3l-12.4,40.3L403.3,278.1z"/>
</g>
<g>
	<polygon class="st0" points="403.3,303.9 420.2,350 465.4,350 429.7,374.4 443.3,418 403.3,392.3 363.7,418 377.2,374 341.4,350 
		386.4,350 	"/>
</g>
<g>
	<path class="st3" d="M360.4,422.6l14.6-47.7l-39.9-26.7H385l18.3-49.6l18.3,49.6h49.9L432,375.3l14.7,47.3l-43.3-27.9L360.4,422.6z
		 M403.3,390.1l36.6,23.5l-12.4-40.1l31.7-21.7h-40.3l-15.6-42.5l-15.6,42.5h-40.1l31.9,21.4l-12.4,40.3L403.3,390.1z"/>
</g>
<g>
	<polygon class="st0" points="403.3,415.9 420.2,462 465.4,462 429.7,486.3 443.3,530.1 403.3,504.3 363.7,530.1 377.2,486.1 
		341.4,462 386.4,462 	"/>
</g>
<g>
	<path class="st3" d="M360.4,534.5l14.6-47.7L335.1,460h50l18.3-49.6l18.3,49.6h49.9l-39.5,27l14.7,47.3l-43.3-27.9L360.4,534.5z
		 M403.3,502.1l36.6,23.5l-12.4-40l31.7-21.7h-40.3l-15.6-42.5l-15.6,42.5h-40.1l31.9,21.3l-12.4,40.3L403.3,502.1z"/>
</g>
<g>
	<polygon class="st2" points="121.1,80 138,126.1 183,126.1 147.5,150.4 161,194.1 121.1,168.3 81.5,194.1 95,150.1 59.1,126.1 
		104.1,126.1 	"/>
</g>
<g>
	<path class="st3" d="M78.1,198.6l14.7-47.7l-39.9-26.7h50l18.3-49.6l18.3,49.6h49.8l-39.4,27.1l14.7,47.3l-43.3-27.9L78.1,198.6z
		 M121.1,166.1l36.6,23.6l-12.4-40.1l31.6-21.7h-40.3L121,85.4l-15.6,42.5H65.3l31.9,21.4l-12.4,40.3L121.1,166.1z"/>
</g>
<g>
	<polygon class="st2" points="121.1,192 138,238 183,238 147.5,262.4 161,306.1 121.1,280.4 81.5,306.1 95,262.1 59.1,238 
		104.1,238 	"/>
</g>
<g>
	<path class="st3" d="M78.1,310.5l14.7-47.7l-39.9-26.7h50l18.3-49.7l18.3,49.7h49.8l-39.4,27l14.7,47.3l-43.3-27.9L78.1,310.5z
		 M121.1,278.1l36.6,23.6l-12.4-40.1l31.6-21.7h-40.3L121,197.4l-15.6,42.5H65.3l31.9,21.3l-12.4,40.3L121.1,278.1z"/>
</g>
<g>
	<polygon class="st2" points="121.1,303.9 138,350 183,350 147.5,374.4 161,418 121.1,392.3 81.5,418 95,374 59.1,350 104.1,350 	
		"/>
</g>
<g>
	<path class="st3" d="M78.1,422.6l14.7-47.7l-39.9-26.7h50l18.3-49.6l18.3,49.6h49.8l-39.4,27.1l14.7,47.3l-43.3-27.9L78.1,422.6z
		 M121.1,390.1l36.6,23.5l-12.4-40.1l31.6-21.7h-40.3L121,309.3l-15.6,42.5H65.3l31.9,21.4l-12.4,40.3L121.1,390.1z"/>
</g>
<g>
	<polygon class="st2" points="121.1,415.9 138,462 183,462 147.5,486.3 161,530.1 121.1,504.3 81.5,530.1 95,486.1 59.1,462 
		104.1,462 	"/>
</g>
<g>
	<path class="st3" d="M78.1,534.5l14.7-47.7l-39.9-26.7h50l18.3-49.6l18.3,49.6h49.8l-39.4,27l14.7,47.3l-43.3-27.9L78.1,534.5z
		 M121.1,502.1l36.6,23.5l-12.4-40l31.6-21.7h-40.3L121,421.4l-15.6,42.5H65.3l31.9,21.3l-12.4,40.3L121.1,502.1z"/>
</g>
<g>
	<polygon class="st2" points="262.1,131.2 222.2,156.6 235.7,112.9 200.1,88.6 245.2,88.6 262.1,42.8 	"/>
</g>
<g>
	<polygon class="st0" points="262.1,42.8 279.1,88.9 324.1,88.9 288.2,112.9 302.1,156.9 262.1,131.2 	"/>
</g>
<g>
	<path class="st3" d="M305.5,161.4l-43.4-27.9l-43.3,27.6l14.7-47.3l-39.5-27h49.9l18.2-49.4L280.4,87h50l-39.9,26.7L305.5,161.4z
		 M262.1,128.9l36.6,23.5l-12.8-40.3l31.9-21.3h-40.2L262,48.3l-15.5,42.1h-40.3l31.7,21.7l-12.5,40.1L262.1,128.9z"/>
</g>
<g>
	<polygon class="st2" points="262.1,243.2 222.2,268.6 235.7,224.9 200.1,200.5 245.2,200.5 262.1,154.8 	"/>
</g>
<g>
	<polygon class="st0" points="262.1,154.8 279.1,200.9 324.1,200.9 288.2,224.9 302.1,268.9 262.1,243.2 	"/>
</g>
<g>
	<path class="st3" d="M305.5,273.4l-43.4-27.9l-43.3,27.6l14.7-47.3l-39.5-27h49.9l18.2-49.4l18.3,49.6h50l-39.9,26.7L305.5,273.4z
		 M262.1,240.9l36.6,23.5l-12.8-40.3l31.9-21.3h-40.2L262,160.3l-15.4,42.1h-40.3l31.7,21.7l-12.5,40.1L262.1,240.9z"/>
</g>
<g>
	<polygon class="st2" points="262.1,355.2 222.2,380.6 235.7,336.9 200.1,312.5 245.2,312.5 262.1,266.8 	"/>
</g>
<g>
	<polygon class="st0" points="262.1,266.8 279.1,312.8 324.1,312.8 288.2,336.9 302.1,380.9 262.1,355.2 	"/>
</g>
<g>
	<path class="st3" d="M305.5,385.3l-43.4-27.9L218.8,385l14.7-47.2L194,310.7h49.9l18.2-49.3l18.3,49.6h50l-39.9,26.7L305.5,385.3z
		 M262.1,352.9l36.6,23.5l-12.8-40.3l31.9-21.3h-40.2L262,272.3l-15.5,42.1h-40.3l31.7,21.7l-12.4,40.1L262.1,352.9z"/>
</g>
<g>
	<polygon class="st2" points="262.1,467.1 222.2,492.6 235.7,448.8 200.1,424.5 245.2,424.5 262.1,378.7 	"/>
</g>
<g>
	<polygon class="st2" points="262.1,591.4 222.2,616.9 235.7,573.1 200.1,548.8 245.2,548.8 262.1,503 	"/>
</g>
<g>
	<polygon class="st0" points="262.1,378.7 279.1,424.8 324.1,424.8 288.2,448.8 302.1,492.9 262.1,467.1 	"/>
</g>
<g>
	<path class="st3" d="M305.5,497.4l-43.4-27.9l-43.3,27.6l14.7-47.3L194,422.7h49.9l18.2-49.4l18.3,49.6h50l-39.9,26.8L305.5,497.4z
		 M262.1,464.9l36.6,23.5l-12.8-40.3l31.9-21.4h-40.2L262,384.2l-15.5,42.1h-40.3l31.7,21.7l-12.5,40.1L262.1,464.9z"/>
</g>
<g>
	<polygon class="st0" points="262.1,502.9 279.1,549 324.1,549 288.2,573 302.1,617 262.1,591.3 	"/>
</g>
<g>
	<path class="st3" d="M305.5,621.5l-43.4-27.9l-43.3,27.6l14.7-47.3L194,546.8h49.9l18.2-49.4l18.3,49.6h50l-39.9,26.8L305.5,621.5z
		 M262.1,589.1l36.6,23.5l-12.8-40.3l31.9-21.4h-40.2L262,508.4l-15.5,42.1h-40.3l31.7,21.7l-12.5,40.1L262.1,589.1z"/>
</g>
<g id="path4705_3_">
	<path class="st3" d="M517.5,8v408.9c0,32.8-6.7,64.6-19.9,94.4c-12.8,28.8-31.1,54.7-54.5,76.9s-50.6,39.6-81,51.8
		c-31.4,12.6-64.8,19-99.3,19c-34.5,0-67.9-6.4-99.3-19c-30.4-12.2-57.6-29.6-81-51.8S40.8,540.1,28,511.3
		c-13.2-29.8-20-61.6-20-94.4V8h254.5H517.5 M525.5,0h-263H0v416.9c0,138.9,117.6,250,262.8,250s262.8-111.2,262.8-250L525.5,0
		L525.5,0z"/>
</g>
</svg>
