<?xml version="1.0" encoding="utf-8"?>
<!-- Generator: Adobe Illustrator 21.1.0, SVG Export Plug-In . SVG Version: 6.00 Build 0)  -->
<svg version="1.1" id="Calque_1" xmlns="http://www.w3.org/2000/svg" xmlns:xlink="http://www.w3.org/1999/xlink" x="0px" y="0px"
	 viewBox="0 0 525 665.8" style="enable-background:new 0 0 525 665.8;" xml:space="preserve">
<style type="text/css">
	.st0{fill:#FFFFFF;}
	.st1{fill:#0084FF;}
	.st2{fill:#FF1B00;}
	.st3{fill:#010202;}
	.st4{fill:#0073FF;}
	.st5{fill:#23AF3D;}
	.st6{fill:none;stroke:#010202;stroke-width:5;}
	.st7{fill:none;stroke:#010202;stroke-width:5;stroke-linecap:round;stroke-linejoin:round;}
	.st8{fill:#040304;}
	.st9{fill:none;stroke:#040304;stroke-width:5;}
	.st10{fill:#FF1B00;stroke:#010202;stroke-width:5;}
	.st11{fill:#FFFFFF;stroke:#000000;stroke-width:4.9674;}
	.st12{fill:none;stroke:#000000;stroke-width:4;}
	.st13{fill:#0A0406;}
	.st14{fill:#1D1D1B;}
	.st15{fill:#FFE400;}
	.st16{clip-path:url(#SVGID_2_);fill:none;stroke:#010202;stroke-width:4.5066;stroke-miterlimit:10;}
	.st17{fill:#FFD730;}
	.st18{fill:#E7423F;}
	.st19{fill:#0084FF;stroke:#000000;stroke-width:4.0709;}
	.st20{fill:#FFE400;stroke:#000000;stroke-width:4.0529;}
	.st21{fill:none;stroke:#000000;stroke-width:4.1421;}
	.st22{clip-path:url(#SVGID_4_);fill:none;stroke:#010202;stroke-width:4.1565;}
	.st23{fill:none;stroke:#010202;stroke-width:4.1565;stroke-miterlimit:10;}
	.st24{fill:#FFFFFF;stroke:#000000;stroke-width:8.047;stroke-miterlimit:10;}
	.st25{fill:none;stroke:#000000;stroke-width:8.047;stroke-miterlimit:10;}
	.st26{clip-path:url(#SVGID_6_);fill:none;stroke:#000000;stroke-width:8;}
	.st27{fill:#FFFFFF;stroke:#000000;stroke-width:4.1427;stroke-linecap:square;stroke-miterlimit:10;}
	.st28{fill:#FFFFFF;stroke:#000000;stroke-width:4;}
	.st29{fill:#FF1B00;stroke:#000000;stroke-width:4;}
	.st30{fill:none;stroke:#000000;stroke-width:3.4792;stroke-miterlimit:10;}
	.st31{fill:none;stroke:#000000;stroke-width:3.9158;}
	.st32{fill:none;stroke:#000000;stroke-width:3.9158;stroke-miterlimit:10;}
	.st33{fill:none;stroke:#000000;stroke-width:3.8626;}
	.st34{fill:none;stroke:#000000;stroke-width:3.9186;}
	.st35{fill:none;stroke:#000000;stroke-width:3.9354;}
	.st36{fill:#FFD72E;}
	.st37{fill:#FFE400;stroke:#000000;stroke-width:3.2832;}
	.st38{fill:#FFFFFF;stroke:#000000;stroke-width:3.9046;}
	.st39{stroke:#000000;stroke-width:3.9046;}
	.st40{fill:#23AF3D;stroke:#000000;stroke-width:3.9046;}
	.st41{fill:#E8423F;}
	.st42{fill:none;stroke:#010202;stroke-width:3.9405;}
	.st43{fill:none;stroke:#010202;stroke-width:3.9405;stroke-miterlimit:17;}
	.st44{clip-path:url(#SVGID_8_);fill:#FFE400;}
	.st45{clip-path:url(#SVGID_10_);fill:none;stroke:#010202;stroke-width:3.9405;stroke-miterlimit:16;}
	.st46{fill:none;stroke:#010202;stroke-width:3.9405;stroke-miterlimit:9;}
	.st47{fill:none;stroke:#010202;stroke-width:3.9405;stroke-miterlimit:5;}
	.st48{fill:none;stroke:#010202;stroke-width:3.9405;stroke-miterlimit:7;}
	.st49{fill:none;stroke:#010202;stroke-width:3.9405;stroke-miterlimit:10;}
	.st50{clip-path:url(#SVGID_12_);fill:none;stroke:#010202;stroke-width:3.9405;}
	.st51{clip-path:url(#SVGID_14_);fill:none;stroke:#010202;stroke-width:4;stroke-miterlimit:7;}
	.st52{fill:none;stroke:#FFFFFF;stroke-width:7.0508;stroke-linecap:round;stroke-linejoin:round;}
	.st53{fill:none;stroke:#FFFFFF;stroke-width:3.9746;}
	.st54{fill:none;stroke:#FFFFFF;stroke-width:7.0508;stroke-linecap:round;}
	.st55{fill:#12080D;}
	.st56{fill:none;stroke:#000000;stroke-width:3.9746;}
	.st57{fill:none;stroke:#E41E2E;stroke-width:0.8122;}
	.st58{fill:none;stroke:#FFFFFF;stroke-width:2.9047;stroke-linecap:round;stroke-linejoin:round;}
	.st59{fill:none;stroke:#FFFFFF;stroke-width:2.4365;stroke-linecap:round;stroke-linejoin:round;}
	.st60{fill:#FFE400;stroke:#010202;stroke-width:3.141;}
	.st61{fill:#FFE400;stroke:#010202;stroke-width:2.9332;stroke-miterlimit:10;}
	.st62{fill:none;stroke:#010202;stroke-width:2.6714;stroke-linecap:square;stroke-miterlimit:10;}
	.st63{fill:#FFD134;stroke:#010202;stroke-width:2.9332;stroke-linecap:square;stroke-miterlimit:10;}
	.st64{fill:#FFD134;stroke:#010202;stroke-width:3.1256;stroke-miterlimit:10;}
	.st65{fill:#FF1B00;stroke:#010202;stroke-width:2.8366;}
	.st66{fill:none;stroke:#010202;stroke-width:2.9332;}
	.st67{clip-path:url(#SVGID_16_);fill:#010202;}
	.st68{fill:#FFD730;stroke:#FFFFFF;stroke-width:2.8511;stroke-miterlimit:10;}
	.st69{fill:#FF0000;}
</style>
<path class="st0" d="M261.6,2h260.9v383.5c0,137.8-116.7,249.5-260.7,249.5S1,523.3,1,385.5V2H261.6L261.6,2z"/>
<path class="st5" d="M1,416.3c0,137.8,116.7,249.5,260.8,249.5c96.3,0,190-60.6,231.4-138.4L1,4.9V416.3z"/>
<path class="st41" d="M160.9,240.8c-1.5-0.6-7.9-2-9.5,0.8c-9.1,15.6,5.8,50,19.8,56.9c7.6,3.7,7.6,1.1,7.6,0.2
	C178.7,289,150.9,259.4,160.9,240.8"/>
<path class="st42" d="M160.9,240.8c-1.5-0.6-7.9-2-9.5,0.8c-9.1,15.6,5.8,50,19.8,56.9c7.6,3.7,7.6,1.1,7.6,0.2
	C178.7,289,150.9,259.4,160.9,240.8z"/>
<path class="st17" d="M289.5,445.2c-24.9-4.8-63.6,7.4-63.6,7.4s-22.8,9.9-27.7,22.1c-4.9,12.3,0.5,17.2,0.5,17.2
	s11.6,19.8,3.9,28.3c-14.3,3.6-37.9-0.2-43.8-8.3c-6.1-8.3,3.9-13.8,4.1-19.8c0.4-12.6-9.6-18.1-13.4-16.4c-2.4,1,5.1,6,1.2,11.6
	c-4.5,6.5-11.2-3.7-17.3-6.9c-6.2-3.2-12.1,1.5-12.1,1.5s6.2,1.9,7.6,3.2c1.4,1.3,1.6,7.4-1.5,9c-4.7,2.5-16.6-3-24.1,7.9
	c6.3-2,8.9-0.1,9.4,0.3c4.5,3.4-2.8,10.4,8.3,16.3c-7.9,0.2-10.6,0.4-12.4,0.9c8.4,1,5.9,10.1,11.7,12.5s10.3,1.8,11.3,2.7
	c44.9,39.5,118.6,10.4,123.6,5c1.2-1.3-7.9-11.4-9.6-14.9c-1-2,3.5-27.8,9.4-30c8.4-8.7,40-15,40-15S291.6,454.2,289.5,445.2"/>
<path class="st15" d="M289.5,445.2c-24.9-4.8-63.6,7.4-63.6,7.4s-22.8,9.9-27.7,22.1c-4.9,12.3,0.5,17.2,0.5,17.2
	s11.6,19.8,3.9,28.3c-14.3,3.6-37.9-0.2-43.8-8.3c-6.1-8.3,3.9-13.8,4.1-19.8c0.4-12.6-9.6-18.1-13.4-16.4c-2.4,1,5.1,6,1.2,11.6
	c-4.5,6.5-11.2-3.7-17.3-6.9c-6.2-3.2-12.1,1.5-12.1,1.5s6.2,1.9,7.6,3.2c1.4,1.3,1.6,7.4-1.5,9c-4.7,2.5-16.6-3-24.1,7.9
	c6.3-2,8.9-0.1,9.4,0.3c4.5,3.4-2.8,10.4,8.3,16.3c-7.9,0.2-10.6,0.4-12.4,0.9c8.4,1,5.9,10.1,11.7,12.5s10.3,1.8,11.3,2.7
	c44.9,39.5,118.6,10.4,123.6,5c1.2-1.3-7.9-11.4-9.6-14.9c-1-2,3.5-27.8,9.4-30c8.4-8.7,40-15,40-15S291.6,454.2,289.5,445.2"/>
<path class="st43" d="M289.5,445.2c-24.9-4.8-63.6,7.4-63.6,7.4s-22.8,9.9-27.7,22.1c-4.9,12.3,0.5,17.2,0.5,17.2
	s11.6,19.8,3.9,28.3c-14.3,3.6-37.9-0.2-43.8-8.3c-6.1-8.3,3.9-13.8,4.1-19.8c0.4-12.6-9.6-18.1-13.4-16.4c-2.4,1,5.1,6,1.2,11.6
	c-4.5,6.5-11.2-3.7-17.3-6.9c-6.2-3.2-12.1,1.5-12.1,1.5s6.2,1.9,7.6,3.2c1.4,1.3,1.6,7.4-1.5,9c-4.7,2.5-16.6-3-24.1,7.9
	c6.3-2,8.9-0.1,9.4,0.3c4.5,3.4-2.8,10.4,8.3,16.3c-7.9,0.2-10.6,0.4-12.4,0.9c8.4,1,5.9,10.1,11.7,12.5s10.3,1.8,11.3,2.7
	c44.9,39.5,118.6,10.4,123.6,5c1.2-1.3-7.9-11.4-9.6-14.9c-1-2,3.5-27.8,9.4-30c8.4-8.7,40-15,40-15S291.6,454.2,289.5,445.2z"/>
<path class="st42" d="M142.7,488c0,0-6.9,18.8,1.6,30.8c8.5,12.1,17.3,10.7,24.4,33.3 M124.4,495.8c0,0-1,4,6.2,7.9
	c-2.6,3.4-3.2,24.9,1.9,31.4"/>
<path class="st15" d="M222.9,360.5c0-0.1,0-0.2,0-0.4v0.1C222.9,360.3,222.9,360.4,222.9,360.5 M222.9,360.5
	C222.9,360.8,222.9,360.8,222.9,360.5 M413.3,461.6c-14.8-21.9-46-38.7-62.1-44.5c-19.5-14.7-23.5-14.8-29.3-18.9
	c2.8-19.1-13.1-42.3-13.1-42.3s-7.5-8.5-23.9-8.6c4.3,3.4,21.8,17.4,17.3,20.7c-19.9-34.7-48.7-23.1-48.7-23.1s11.9,2.2,15.1,9.3
	c3.3,7.1,15.4,34.1,28.5,46.6c4.2,4,12.7,10.4,23.7,14.3c26.9,9.5,65.4,33.1,73.5,43.6c4.2,5.5,6.9,13,6.8,15.8
	c-0.1,2.7-3,5.2-7,4.7c-5-0.6-65.3-39.6-65.3-39.6s-13-9.4-39.4-15.9c-17.3-23.4-67.8-47.3-78.5-56.1c-0.1,0.1-0.2,0.2-0.2,0.3
	c5.6-6.8,9.9-14.1,13-20.6c-0.8,6.9-0.8,11.4-0.7,12.9c0.1-2.5,26.3-29,21.3-41.2c19-7.5,16.5-9.6,15.7-16.9c-0.7,0.3-2.1,0.2-3.9,0
	c1.3,0.1,2.6,0.1,3.9,0c0-9.7-23.8-14.8-23.2-16.1c0.7-1.3,7.7,1.9,9.2,0.5c0.5-0.6-29.9-36.6-36.7-35.6c-2.7,0.8-4.1,3.3-7.1,1.6
	s-10.1-8.8-12.8-9.3c0.2,1-3.2,3.6-3.2,3.6s-4.1,1.4-7.3,3.7c-3.3,2.3-3.1,10.3,0.2,13.6c0.2,0.2-2.8,8.6-2.8,8.6s5.1-6.8,6-6.8
	s10.3,5.9,10.7,11.5c0.7,10-16.6,25.3-17.2,25.5c-3.6,0.5-10.3-12.2-12-13.1c-0.7-0.3-3.3-2.8-6.8,10.1c-0.3,1,0.7,3.2,2.5,6l0,0
	c0,0-14.1-9.8-28.2-11c2.4,0.1,4.5,0.5,6.1,1c-4.9-10.2-14.7-49.6-10-70.6c31.8-12,28.5-17.1,28.2-23.1c4.7-5.9-2.6-13.1-2.6-13.1
	l-2.8,8c0,0-3.2,2.2-7.2-0.7c-4-2.8-1.4-13.5-3.1-19.5c-1.7-6-8.5-12.2-8.5-12.2s1.6,4.8,1.9,6.2c0.3,1.4-0.6,4.2-6.2,3.9
	c-5.6-0.3-5.4-6.2-8.5-9s-9.4-4.4-9.4-4.4s4.2,9.2,3.2,10.6c-2.9,0.3-6.5,8.5-8.8,9.2s-9-9.8-14.3-2.8c6.5-0.7,7.1,2.8,7.2,4
	c0.4,4.5-10.5,21.7-1.9,26.9c-8.3,19.2,0.2,30.6,0.2,30.6s-6.4,31.9-7.1,69.1c1,0.7,1.7,1.6,2.3,2.4c-19.9-17.2-32.1-70-31-76.5
	c0.6-3.4,1.4-4.6,1.4-4.6s2.5,0.4,5.2-0.3c2.6-0.7,3.4-1.4,3.4-1.4s7.5-0.7,9.5-1.3s9.2-14.4,5.4-23.6c-1.1,2.3-2.5,7.5-5.5,8.3
	c-3.1,0.8-2.7-2.1-7.6-4.1c1.5-14.4-12.5-29.8-12.5-29.8s4.7,9.6,1.6,11.3c-3.1,1.7-8.4,3.4-8.4,3.4l-1.6,16.6
	c0.2-3.5,0.5-8.6,0.5-15.4c-1.9-4.3-5.9-11.6-11.3-17.7c2.5,4,5.5,10.9-0.9,19.9c0.2,0.6,0.7,1.9,4.4,10.1c-4.2-7.4-19.5-17-19.5-17
	s3.8,14.6-3.8,23c5.4,2.4,1.6,50.5,15.2,53c3.5,7.2,7.3,93.4,25.4,116.3c2.3,0.2,20.2-0.1,20.2-0.1l-3.4,0.8
	c0,0,23.2,25.9,31.8,32.3c11.7,9,61.9,17.2,96.2,20.6c34.3,3.5,51.3,16,52.4,14.3c0.6-1.4-7.9-11.3-6.2-11.8
	c3.6-1,19.3,49.7,33.4,61.6c14.1,11.9,48.2,16.7,50.3,28c1.7,8.8-3.6,32.4-17.5,30.6c-2.1-0.3-8.2-22.3-11.7-24
	c-3.5-1.6-12.8-3.6-21.1,1.1c1.4,0.4,9.9,2.4,13.2,3.2c2.9,2.9-2.1,8.8-3.8,9.5c-3.9,1.4-7,0.4-10.1,1.1
	c-8.4,1.8-13.5,13.3-13.5,13.3s15.2,0.5,15.8,8.6c8.2-4.6,10.8-8.2,16.5-4.7c-18.5,4.2-19.9,8.7-23.1,21.7c7-3.7,11.1-6.7,13.2-5.4
	c2,1.4,4.5,3,7.6,1.8c0.5-0.2,1.3-0.5,2.1-0.9c-1.5,1-2.8,2-3.1,2.6c-1,2.2-1.5,12.7-0.2,14c0.6-1.4,2.1-6.6,5.6-6.7
	c3.5-0.2,15.6,2.5,17.3,0c1.7-2.6-1.3,0.2,2.4-4.1c3.7-4.2,19.9-10.6,23.6-13.2c4.3-8.7,39.2-41.8,37.7-65.3
	c-22.1-4.1-21.3-9-23.9-12.8c-15.2-3.5-38.8-43.3-42.9-49.4c6,6.3,60.3,41.1,74,45.1C408.9,498.2,426.4,480.8,413.3,461.6
	 M250,301.4c-3.5-0.2-7.1-0.2-9.4,1.2C243.3,301,246.5,301.1,250,301.4 M180.4,388.1c1.1-0.3,2.3-0.7,3.4-1.1
	C182.7,387.5,181.6,387.8,180.4,388.1"/>
<path class="st42" d="M94.8,240c8.3-1.3,16.6-12.5,25.7-26.8c9.1-14.3,19.1-17.5,21.8-17.2 M94.3,208.8c0,0,17.7-18.8,30.1-22.4
	c-4.7-12.8,0.7-12,0.7-12 M70.6,208.2c0,0-11.2,11.5-11.7,24.8 M286.7,548.6c11,1.2,30.2,14.2,27.3,5.2 M286.2,245.1
	c-1,3.2-0.9,3.6,4.4,9c-9.7,18.9-2.7,32.7-2.7,32.7"/>
<path class="st41" d="M238.8,457c0,0,19.8,10,27,9.7c-1.3-3.5-5.1-11.3-5.1-11.3S253,451.1,238.8,457"/>
<path class="st42" d="M238.8,457c0,0,19.8,10,27,9.7c-1.3-3.5-5.1-11.3-5.1-11.3S253,451.1,238.8,457z"/>
<path class="st15" d="M421,252.3c-2.8-1.5-31.6-6.3-45.9-4.1c-14.3,2.2-16.9,16.5-17.8,23.1c-0.9,6.5,1.1,16.6-19.5,12.9
	c-8.7-1.6-19.8-12.4-19.7-18c0.1-7.7,9.6-10.9,9.9-16.9c0.1-1.8,0.2-16.8-11.4-16.8c-1,3.2,4.3,11.7-2.8,12.5
	c-6.8,0.7-12.5-9.1-18.4-12.8c-4.5-2.8-10.4-0.8-10.4-0.8l7.8,4.9c0,0-0.2,6.6-3.1,8.2c-5.5,2.9-16.8-6.6-27.1,4.7
	c6.7-0.8,8.6,1,10.5,1.4c2,4.9-2.5,13.8,5.3,17.2c-1.6-0.2-12.7-1-12.5-0.6c6.6,2.2,5.5,8.1,5.5,8.1s2.5,8.1,14.5,9.6
	c18.8,25.7,69.5,45.7,102.7,44c-0.4-26.3,8.1-33.7,23.8-36.4C413.6,286.4,420.7,253.6,421,252.3"/>
<path class="st15" d="M159.4,68.8c-0.3,1.3-4.1,13.7,3.3,26.2c0.1-0.3-0.1-2.3-0.1-2.3s4.6-3.3,6.4-6.9c0.9-1.7,7.1-4.1,10.6-8.4
	c3.6-5.3,0.7-16.6-6.2-22.8c0.4,5.4,1.8,8.6,0.8,9.6C170.6,68.2,159.8,67.5,159.4,68.8"/>
<path class="st42" d="M159.4,68.8c-0.3,1.3-4.1,13.7,3.3,26.2c0.1-0.3-0.1-2.3-0.1-2.3s4.6-3.3,6.4-6.9c0.9-1.7,7.1-4.1,10.6-8.4
	c3.6-5.3,0.7-16.6-6.2-22.8c0.4,5.4,1.8,8.6,0.8,9.6C170.6,68.2,159.8,67.5,159.4,68.8z"/>
<path class="st41" d="M314.7,35.6c-1.6-0.2-8.3,0-9.2,3.4c-5.3,19.1,18,52,33.7,55.7c8.4,1.9,7.9-0.9,7.7-1.7
	C344.2,82.5,309.4,58.1,314.7,35.6"/>
<path class="st42" d="M421,252.3c-2.8-1.5-31.6-6.3-45.9-4.1c-14.3,2.2-16.9,16.5-17.8,23.1c-0.9,6.5,1.1,16.6-19.5,12.9
	c-8.7-1.6-19.8-12.4-19.7-18c0.1-7.7,9.6-10.9,9.9-16.9c0.1-1.8,0.2-16.8-11.4-16.8c-1,3.2,4.3,11.7-2.8,12.5
	c-6.8,0.7-12.5-9.1-18.4-12.8c-4.5-2.8-10.4-0.8-10.4-0.8l7.8,4.9c0,0-0.2,6.6-3.1,8.2c-5.5,2.9-16.8-6.6-27.1,4.7
	c6.7-0.8,8.6,1,10.5,1.4c2,4.9-2.5,13.8,5.3,17.2c-1.6-0.2-12.7-1-12.5-0.6c6.6,2.2,5.5,8.1,5.5,8.1s2.5,8.1,14.5,9.6
	c18.8,25.7,69.5,45.7,102.7,44c-0.4-26.3,8.1-33.7,23.8-36.4C413.6,286.4,420.7,253.6,421,252.3z M314.7,35.6
	c-1.6-0.2-8.3,0-9.2,3.4c-5.3,19.1,18,52,33.7,55.7c8.4,1.9,7.9-0.9,7.7-1.7C344.2,82.5,309.4,58.1,314.7,35.6z"/>
<g>
	<g>
		<defs>
			<rect id="SVGID_7_" x="-1" width="525.4" height="637"/>
		</defs>
		<clipPath id="SVGID_2_">
			<use xlink:href="#SVGID_7_"  style="overflow:visible;"/>
		</clipPath>
		<path style="clip-path:url(#SVGID_2_);fill:#FFE400;" d="M515.7,273c-1.1-10.7-12.4-38.7-40-80.7c-19.5-29.6-21.1-44.8-17.5-57.9
			c17.9-2.6,41.5-26.8,40.8-41.4c-0.7-14.7-9.6-22.1-9.6-22.1s-5,31.6-11.6,29.8c2.2-3.2,9.1-13.4,9.2-27.7
			c0.1-14.3-20.2-26.9-23-27.1c1.9,2.6,9.8,10.8,7.8,17.2c-2,6.3-7.4,13.6-14.6,23.1c-7.3,9.6-16.8,25.4-18,40.6
			c-1.2,15,7.1,32.9,10.9,43.8c4,11.5,31.1,55.3,31.1,55.3s32.4,48.8,21.5,57.8c-3.3,2.8-17.5,1.9-25.4-9
			c-7.4-10.3-6.4-9.8-12.8-19.3c-9-13.5-14.6-12.5-15-14.1c-29-48.6-69.6-75.7-75.6-79.2c0,0,9.4-9.1,12.2-19.3
			c-0.2,3.5-0.9,12.6-0.9,12.6s26.1-29.3,23.1-44.5c33.8-3,21.3-19.2,18.5-20.8c0.2-1.9-19.3-10.2-19.3-12c0,0,0.4-0.3,1.1-0.5
			c6.4,1.9,8,1.5,7.9,0.5s-26.6-30.9-37.7-33c-3.7,2.6-4.3,1.1-6.7,1.6c-3.7,0.6-12.7-11.3-17.3-11.6c-0.5,1.8-4.7,4-4.7,4
			s-9.2,2.8-11,6.1c-1.8,3.4,1.6,11.3,1.6,11.3l-1.5,7.5c0,0,4.9-6,5.1-6.5c2.5,3.7,10.3,3.3,12.3,13.8c1.9,10.5-6.1,14-9.2,20.3
			c-3.1,6.3-6.3,4-9,3.6c-3.9-0.7-13.1-9.9-13.4-9.9c-4.1,0-6.3,10.8-6.3,12.2c1.2-0.4,1.7,3.9,2.9,4.5c0.5,0.3,1.3,0.7,2.1,1.3
			c-14.2-9.5-37.7-7.1-37.5-6.4s6.4,3.2,6,4.8c-0.3,1.1-11.1-1.6-25.7,3.5c0.2-0.1,0.3-0.1,0.5-0.2c0,0-25.9-26.8-19-45.8
			c8.7-2,15.6-1.2,20.8-3.2c8.6-3.3,12.7-13.4,12.5-18.1c-8.4,9.1-10.9,6.8-12.3,6.2c-5.2-2.3,0.5-15.7,0-20.5s-6.8-10.5-6.8-10.5
			s2,7.1-8.4,10.5c-4.9,1.6-8.9-5.6-12.3-8.6c-3.4-3-9.9-3.5-9.9-3.5s5.2,7.8,3.7,9.9c-3.4,0.1-6.5,5.5-10.9,6.6
			c-4.5,1-8.8-9-16.5-2.5c5.7-0.5,6.2,1.1,6.8,2.1c2.7,4.3-1.4,5.6-3.2,22.6c-0.8,7.4-0.1,15.2,0.7,21.6
			c1.8,14.6,12.7,31.1,18.9,64.8c0,0,0.1,0.1,0.2,0.1c-22.9-9.4-48.5-15.8-61.8-29.1c-13.8-13.8-12-35.1-10.2-38.3
			c0-1.1-9.3-15.1-26.8-17.2c9.2,7.5,8.1,5.2,1.3,15.9c4.5,5,7,10,8.3,13.6c-1.3-2.7-3.7-6.5-8.1-11.6c-4.7-1.5-12.3-1.7-22.1,0.8
			C125,73,122.4,88,122.4,88s3.4,2.3,10,5.7c-7.3-3.1-29.4,1.5-29.4,1.5s17.9,1.5,16.3,12.6c9,6,19.5,18,24.2,20.6
			c1.8,1.1,1,2,10,3.9c32.8,39.5,85.1,71.2,90.9,73.4c6.6-1.4,18.3-0.9,18.3-0.9s-4.9,0.6-9.9,1.2c8.7,11.4,39.3,13.5,79,18.1
			c53.1,6.3,74.1,35.9,77.2,36.4c0.9-2.6-1.8-4-2.1-13.4c8.9,14.6-1.6,58.1,14.2,74.4c15.2,15.6,36.7,29.1,42.1,36.5
			c1.7,2.3,3.9,7.1,2.7,20.5c-0.5,6.1-5,9.5-9.4,17.4c-2.8,1.4-6.5,1.7-11.2,0c-27.2-9.8-35.4,4.5-35.4,4.5s16.5-1.8,16,7.9
			c1.4-0.3,3-0.4,4.7-0.4c-3.9,1.4-7.7,4.6-10,11.2c7.1-4.1,13.6,4.2,16.7,8.3c3.1,4.2,6.7,0.6,6.7,0.6s8.5-9.9,15.6-10
			c-0.8,0.4-21.5,5.6-16.1,28.3c2.7-14.3,19.2-3.3,23.3-8.9c0.2-1-0.1-4.1,2.2-7.2s15.5-7.8,15.5-7.8s13.2-21.4,13.9-33.8
			c0.2-3.4,3.3-20.4,3.6-50.3c-22.5-2-23.7-16.9-25.8-33.2c-1.4-11.2-5.1-19.3-7.2-23.2c4.3,6.6,16.6,22.5,35,18.2
			C516.7,296.6,516.8,283.7,515.7,273 M326.6,105.2c-0.3-0.3-0.7-0.6-1.1-0.9C325.9,104.6,326.3,104.9,326.6,105.2 M325.1,103.9
			c-0.4-0.2-0.7-0.5-1.1-0.8C324.3,103.4,324.7,103.7,325.1,103.9"/>
	</g>
</g>
<g>
	<g>
		<g>
			<defs>
				<rect id="SVGID_9_" x="-1" width="525.4" height="637"/>
			</defs>
			<clipPath id="SVGID_4_">
				<use xlink:href="#SVGID_9_"  style="overflow:visible;"/>
			</clipPath>
			<path style="clip-path:url(#SVGID_4_);fill:none;stroke:#010202;stroke-width:3.9405;stroke-miterlimit:16;" d="M374,161.9
				c6,3.5,46.5,30.6,75.6,79.2c0.4,1.6,6,0.7,15,14.1c6.4,9.5,5.4,9.1,12.8,19.3c7.9,11,22,11.8,25.4,9c11-9-21.5-57.8-21.5-57.8
				s-27.1-43.8-31.1-55.3c-3.7-10.8-12-28.8-10.9-43.8c1.1-15.1,10.6-31,17.9-40.6c7.2-9.5,12.6-16.8,14.6-23.1
				c2-6.4-5.9-14.6-7.8-17.2c2.8,0.2,23.1,12.8,23,27.1s-6.9,24.4-9.2,27.7c6.6,1.8,11.6-29.8,11.6-29.8s8.9,7.4,9.6,22.1
				c0.7,14.6-22.9,38.8-40.8,41.4c-3.6,13-2,28.2,17.5,57.9c27.6,42,38.9,70,40,80.7c1.1,10.6,1,23.6-11.7,26.6
				c-23.1,5.3-36.6-21-36.6-21s6.8,9.7,8.9,26c2.1,16.3,3.2,31.3,25.8,33.2c-0.3,30-3.4,46.9-3.6,50.4
				c-0.7,12.4-13.9,33.8-13.9,33.8s-13.2,4.7-15.5,7.8c-2.4,3.1-2,6.2-2.2,7.2c-4.1,5.6-20.6-5.4-23.3,8.9
				c-5.4-22.7,15.3-27.8,16.1-28.3c-7.1,0.1-15.6,10-15.6,10s-3.6,3.6-6.7-0.6c-3.1-4.1-9.6-12.3-16.7-8.3
				c6.5-18.4,23.9-10.5,23.9-10.5s-11.8-1.5-18.6-0.3c0.5-9.7-16-7.9-16-7.9s8.1-14.3,35.4-4.5c4.7,1.7,8.4,1.4,11.2,0
				c4.4-7.9,8.9-11.2,9.4-17.4c1.2-13.4-1-18.2-2.7-20.4c-5.5-7.4-26.9-20.9-42.1-36.5c-15.8-16.3-5.4-59.8-14.2-74.4
				c0.3,9.3,3.1,10.8,2.1,13.4c-3.1-0.5-24.1-30.1-77.2-36.4c-39.6-4.7-70.2-6.8-78.9-18.1c5-0.6,9.9-1.2,9.9-1.2
				s-11.6-0.5-18.3,0.9c-5.8-2.2-58.1-34-90.9-73.4c-9-1.9-8.2-2.8-10-3.9c-4.7-2.6-15.2-14.6-24.2-20.6
				c1.6-11.1-16.3-12.6-16.3-12.6s24.2-5.1,30.4-1.1c-7.3-3.7-10.9-6.2-10.9-6.2s2.5-14.9-10.5-17.2c9.8-2.6,17.4-2.3,22.1-0.8
				c10.7,12.4,9.6,16.9,9.6,16.9s-1.2-9.3-9.7-18.8c6.8-10.8,8-8.4-1.3-15.9c17.6,2.2,26.8,16.1,26.8,17.2
				c-1.8,3.2-3.6,24.6,10.2,38.3c18.9,18.8,62.6,23.9,88.2,43.3c17,12.9,14.5,33.3-2.5,35c7.2,6.7,37.8,5.2,37.8,5.2
				s-5.8,5.5-7.8,7.3c2.6,1.9,36.2,6.4,57.2-17.9c-2.9,6.6-4.7,10-4.7,10S346.3,191.4,374,161.9z"/>
		</g>
	</g>
</g>
<path class="st46" d="M255.2,185.5c7.2,6.7,37.8,5.2,37.8,5.2s-5.8,5.5-7.8,7.3c2.6,1.9,36.2,6.4,57.2-17.9c-2.9,6.6-4.7,10-4.7,10
	s8.5,1.3,36.3-28.2c0,0,9.4-9.1,12.2-19.3c-0.2,3.5-0.9,12.6-0.9,12.6s26.1-29.3,23.1-44.5c33.8-3,21.3-19.2,18.5-20.8
	c-0.9-0.2-9.6,0-17.1-0.3c-7.5-0.4-9.8,7.1-9.8,7.1s-5.2,12.2-16.4,26.9c-16.6,21.9-43.4-6.6-57.1-18.5
	c-13.7-11.9-40.4-9.2-40.2-8.5s6.4,3.2,6,4.8c-0.4,1.6-21.9-4.6-45.2,14.7c1.1,0,11.9-0.1,11.5,2.8c-0.2,1.4-15.1,3.2-20.1,20.4
	c1.1,0.3,13.4,6.8,19,11C274.8,163.4,272.3,183.8,255.2,185.5"/>
<path class="st42" d="M238.8,139.5c5-17.2,19.9-19,20.1-20.4c0.4-3-10.5-2.8-11.5-2.8c7-5.8,13.8-9.3,20-11.4c0,0-25.9-26.8-19-45.8
	c8.7-2,15.6-1.2,20.8-3.2c8.6-3.3,12.7-13.4,12.5-18.1c-8.4,9.1-10.9,6.8-12.3,6.2c-5.2-2.3,0.5-15.7,0-20.5S262.6,13,262.6,13
	s2,7.1-8.4,10.5c-4.9,1.6-8.9-5.6-12.3-8.6c-3.4-3-9.9-3.5-9.9-3.5s5.2,7.8,3.7,9.9c-3.4,0.1-6.5,5.5-10.9,6.6
	c-4.5,1-8.8-9-16.5-2.5c5.7-0.5,6.2,1.1,6.8,2.1c2.7,4.3-1.4,5.6-3.2,22.6c-0.8,7.4-0.1,15.2,0.7,21.6c1.8,14.6,12.7,31.1,18.9,64.8
	C232,136.6,238.8,139.5,238.8,139.5z"/>
<path class="st47" d="M427,90c0,0.4-9.6,0-17.1-0.3c-7.5-0.4-9.8,7.1-9.8,7.1s-5.2,12.2-16.4,26.9c-16.6,21.9-43.4-6.6-57.1-18.5
	c-1.5-1.3-3.7-2.8-4.8-3.4c-1.2-0.6-1.7-4.9-2.9-4.5c-0.1-1.5,2.1-12.2,6.2-12.2c0.3,0,9.5,9.2,13.4,9.9c2.6,0.4,5.9,2.7,9-3.6
	c3.1-6.3,11.1-9.8,9.2-20.3c-1.9-10.5-9.8-10.1-12.3-13.8c-0.3,0.5-5.1,6.5-5.1,6.5l1.5-7.5c0,0-3.4-8-1.6-11.3
	c1.8-3.4,11-6.1,11-6.1s4.2-2.2,4.7-4c4.5,0.3,13.6,12.1,17.3,11.6c2.4-0.5,3,1,6.7-1.6c11,2.1,37.6,32.1,37.7,33
	c0.1,1-1.5,1.4-7.9-0.5c-0.6,0.3-1.1,0.5-1.1,0.5C407.7,79.8,427.2,88.1,427,90z"/>
<path class="st3" d="M374.6,53.9c1.5,0.2,15.3,3.7,17.7,19.9c-0.5,0.9-17.7-2.7-17.7-7.8C374.6,60.3,380.5,59,374.6,53.9"/>
<path class="st41" d="M382.6,258c10.8-0.1,23.7,0.4,26.9,5.7c0.1,2.2,0.8,7.1,1.2,10.6C405.4,273.5,382.6,259.2,382.6,258"/>
<path class="st42" d="M91.8,316.2c0,0,1.5-7.7,16.8-6c1.6-2.8-9.8-5.1-9.6-6s16.4-7.7,27.5-5.2c-2.3-1.8-4-2.5-7.2-2.8
	c5.6-2.3,13.7-1.8,18-0.5c-4.9-10.2-14.7-49.6-10-70.6c31.8-12,28.5-17.1,28.2-23.1c4.7-5.9-2.6-13.1-2.6-13.1l-2.8,8
	c0,0-3.2,2.2-7.2-0.7c-4-2.8-1.4-13.5-3.1-19.5c-1.7-6-8.5-12.2-8.5-12.2s1.6,4.8,1.9,6.2c0.3,1.4-0.6,4.2-6.2,3.9
	c-5.6-0.3-5.4-6.2-8.5-9s-9.4-4.4-9.4-4.4s4.2,9.2,3.2,10.6c-2.9,0.3-6.5,8.5-8.8,9.2s-9-9.8-14.3-2.8c6.5-0.7,7.1,2.8,7.2,4
	c0.4,4.5-10.5,21.7-1.9,26.9c-8.3,19.2,0.2,30.6,0.2,30.6s-6.4,31.9-7.1,69.1C91,311.5,91.8,316.2,91.8,316.2z M250.8,22.9
	c0.8,3.3-6.7,5.9-10.2,12.5c-15.4,3.9-26,16.2-29.1,24.3 M216,85c2.9-1.5,21.4-39.4,37.2-46.3c8.5-3.7,7.9,0.8,14.2-3.3 M382.6,258
	c10.8-0.1,23.7,0.4,26.9,5.7c0.1,2.2,0.8,7.1,1.2,10.6C405.4,273.5,382.6,259.2,382.6,258z"/>
<path class="st43" d="M176.2,272.6c0,0,5.1-6.8,6-6.8s10.3,5.9,10.7,11.5c0.7,10-16.6,25.4-17.2,25.5c-3.6,0.5-10.3-12.2-12-13.1
	c-0.7-0.3-3.3-2.8-6.8,10.1c-1.1,3.9,17.9,27,25.4,33.6c24.6,21.5,45.6-11.5,48.1-14c7.4-7.3,5.3-13.9,10.3-16.6
	c5.3-3,12.3,0,19.4-0.6c0-9.7-23.8-14.8-23.2-16.1c0.7-1.3,7.7,1.9,9.2,0.5c0.5-0.6-29.9-36.6-36.7-35.6c-2.7,0.8-4.1,3.3-7.1,1.6
	s-10.1-8.8-12.8-9.3c0.2,1-3.2,3.6-3.2,3.6s-4.1,1.4-7.3,3.7c-3.3,2.3-3.1,10.3,0.2,13.6C179.1,264.2,176.2,272.6,176.2,272.6z"/>
<path class="st48" d="M159.3,305.7c5.2,8.5,17.3,22.7,22.9,27.6c24.6,21.5,45.6-11.5,48.1-14c7.4-7.3,5.3-13.9,10.3-16.6
	c5.3-3,16.9,0.4,19.4-0.6c0.9,7.3,3.3,9.4-15.7,16.9c5,12.2-21.6,39.1-21.3,41.3c0.2,2.2-0.6-2.9,0.7-13c-7.1,15-20.6,34.7-43.2,41
	c0.6-1.2,2.5-4.5,4.5-9.6c-31,30.2-62.4,19.2-62.4,19.2s2.2-1.9,7.8-6.6c-20.6-1-29.5-3.6-48.6-19c11.8-1.6,17.1-13.2,18.5-24.2
	c1.4-10.9-3.7-12.6-6.4-18.6S92,316.4,92,316.4s1.5-7.7,16.8-6c1.6-2.8-9.8-5.1-9.6-6s16.4-7.7,27.5-5.2c-2.3-1.8-5.2-3.1-8.4-3.4
	C134.6,288.8,159.3,305.7,159.3,305.7z"/>
<path class="st49" d="M210.9,367.5c-7.1,8.4-17.5,17-30.4,20.7c0.6-1.2,2.4-4.5,4.5-9.6c-31,30.2-62.4,19.2-62.4,19.2
	s2.2-1.9,7.8-6.6c-20.6-1-29.5-3.6-48.6-19c11.8-1.6,17.1-13.2,18.5-24.2c1.4-10.9-3.7-12.6-6.4-18.6S92,316.3,92,316.3
	s-0.2-2.9-2.1-4.8c-19.9-17.2-32.1-70-31-76.5c0.6-3.4,1.4-4.6,1.4-4.6s2.5,0.4,5.2-0.3c2.6-0.7,3.4-1.4,3.4-1.4s7.5-0.7,9.5-1.3
	s9.2-14.4,5.4-23.6c-1.1,2.3-2.5,7.5-5.5,8.3c-3.1,0.8-2.7-2.1-7.6-4.1c1.5-14.4-12.5-29.8-12.5-29.8s4.7,9.6,1.6,11.3
	c-3.1,1.7-8.4,3.4-8.4,3.4l-2.2,21.9c0,0,1.1-7.1,1.1-20.7c-1.9-4.3-5.9-11.6-11.3-17.7c1.4,4.4,5.4,10.9-0.9,19.9
	c0.2,0.6,0.7,2.1,5.2,11.8c-2.5-7.6-20.3-18.7-20.3-18.7s3.8,14.6-3.8,23c5.4,2.4,1.6,50.5,15.2,53c3.5,7.2,7.3,93.4,25.4,116.3
	c2.3,0.2,20.2-0.1,20.2-0.1l-3.4,0.8c0,0,23.2,25.9,31.8,32.3c11.7,9,61.9,17.2,96.2,20.6c34.3,3.5,51.3,16,52.4,14.3
	c0.6-1.4-2.4-8.9-6.2-11.8c5.4,0.2,19.3,49.7,33.4,61.6c14.1,11.9,48.2,16.7,50.3,28c1.7,8.8-3.6,32.4-17.5,30.6
	c-2.1-0.3-8.2-22.3-11.7-24c-3.5-1.6-12.8-3.6-21.1,1.1c1.4,0.4,9.9,2.4,13.2,3.2c2.9,2.9-2.1,8.8-3.8,9.5c-3.9,1.4-7,0.4-10.1,1.1
	c-8.4,1.8-13.5,13.3-13.5,13.3s15.2,0.5,15.8,8.6c8.2-4.6,10.8-8.2,16.5-4.7c-18.5,4.2-19.9,8.7-23.1,21.7
	c6.9-3.7,11.1-6.7,13.2-5.4c2,1.4,4.5,3,7.6,1.8s10.7-5.8,10.7-5.8s-10.7,5.4-11.8,7.6c-1,2.2-1.5,12.7-0.2,14
	c0.6-1.4,2.1-6.6,5.6-6.7c3.5-0.2,15.6,2.5,17.3,0c1.7-2.6-1.3,0.2,2.4-4.1c3.7-4.2,19.9-10.6,23.6-13.2
	c4.3-8.7,39.2-41.8,37.7-65.3c-22.1-4.1-21.3-9-23.9-12.8c-16.1-3.7-41.4-47.3-43.5-50.2c0,2.8,60.1,41.6,74.6,45.9
	c16.6,4.9,34.1-12.6,21.1-31.8c-14.8-21.9-45.9-38.7-62.1-44.5c-19.5-14.8-23.5-14.8-29.3-19c2.8-19.1-13.1-42.3-13.1-42.3
	s-7.5-8.5-23.9-8.6c4.3,3.4,21.8,17.4,17.3,20.7c-19.9-34.7-48.7-23.1-48.7-23.1s11.9,2.2,15.1,9.3c3.3,7.1,15.4,34.1,28.5,46.6
	c4.2,4,12.7,10.4,23.7,14.3c26.9,9.5,65.4,33.1,73.5,43.6c4.2,5.5,6.9,13,6.8,15.8c-0.1,2.7-3,5.2-7,4.7c-5-0.6-65.3-39.6-65.3-39.6
	s-13-9.4-39.4-15.9C272.1,400.2,221.6,376.3,210.9,367.5z"/>
<path class="st3" d="M207.9,262.1c14.7,3.9,17.4,19.2,17.6,20.9c-1.6,0.4-15.7-2.5-17.2-8C206.8,269.9,215.6,266.1,207.9,262.1"/>
<path class="st42" d="M307.3,243.4c0,0-8.7,15.5-6.3,24.9c3.4,13.3,20,23.7,19.1,41.9"/>
<path class="st17" d="M431.7,391.5c0,0-0.4-3.7,0.9-5.5c1.3-1.8,1.9-6.7,1.7-8.2s0.7-1.9-7.6-3.4c7.3-2.8,19.3,1.8,21.8,3.7
	c2.4,1.8,3.8,13.8,7.1,15.7c-1.5,2.8-7.5,1.9-7.5,1.9L431.7,391.5z"/>
<g>
	<g>
		<g>
			<defs>
				<rect id="SVGID_11_" x="-1" width="525.4" height="637"/>
			</defs>
			<clipPath id="SVGID_6_">
				<use xlink:href="#SVGID_11_"  style="overflow:visible;"/>
			</clipPath>
			<path style="clip-path:url(#SVGID_6_);fill:none;stroke:#010202;stroke-width:3.9405;" d="M431.7,391.5c0,0-0.4-3.7,0.9-5.5
				c1.3-1.8,1.9-6.7,1.7-8.2s0.7-1.9-7.6-3.4c7.3-2.8,19.3,1.8,21.8,3.7c2.4,1.8,3.8,13.8,7.1,15.7c-1.5,2.8-7.5,1.9-7.5,1.9
				L431.7,391.5z"/>
		</g>
	</g>
</g>
<g>
	<g>
		<g>
			<defs>
				<polygon id="SVGID_13_" points="0,-0.9 524.4,0 524.4,637 0,636 				"/>
			</defs>
			<clipPath id="SVGID_8_">
				<use xlink:href="#SVGID_13_"  style="overflow:visible;"/>
			</clipPath>
			
				<line style="clip-path:url(#SVGID_8_);fill:none;stroke:#010202;stroke-width:4;stroke-miterlimit:7;" x1="1.3" y1="5.2" x2="493.1" y2="527.4"/>
		</g>
	</g>
</g>
<g>
	<path d="M517,8v406.6c0,32.8-6.7,64.6-19.9,94.5c-12.8,29-31.1,55-54.5,77.3c-23.4,22.4-50.6,39.9-80.9,52.2
		c-31.4,12.7-64.8,19.2-99.2,19.2s-67.8-6.4-99.2-19.2c-30.3-12.3-57.5-29.8-80.9-52.2c-23.3-22.3-41.7-48.3-54.5-77.3
		C14.7,479.2,8,447.3,8,414.6V8h254.4H517 M525,0H262.4H0v414.6c0,138.7,117.5,251.2,262.5,251.2S525,553.3,525,414.6V0L525,0z"/>
</g>
</svg>
