<?xml version="1.0" encoding="utf-8"?>
<!-- Generator: Adobe Illustrator 21.1.0, SVG Export Plug-In . SVG Version: 6.00 Build 0)  -->
<svg version="1.1" id="Calque_1" xmlns="http://www.w3.org/2000/svg" xmlns:xlink="http://www.w3.org/1999/xlink" x="0px" y="0px"
	 viewBox="0 0 551.2 669" style="enable-background:new 0 0 551.2 669;" xml:space="preserve">
<style type="text/css">
	.st0{fill:#FFFFFF;}
	.st1{fill:#0084FF;}
	.st2{fill:#FF1B00;}
	.st3{fill:#010202;}
	.st4{fill:#0073FF;}
	.st5{fill:#23AF3D;}
	.st6{fill:none;stroke:#010202;stroke-width:5;}
	.st7{fill:none;stroke:#010202;stroke-width:5;stroke-linecap:round;stroke-linejoin:round;}
	.st8{fill:#040304;}
	.st9{fill:none;stroke:#040304;stroke-width:5;}
	.st10{fill:#FF1B00;stroke:#010202;stroke-width:5;}
	.st11{fill:#FFFFFF;stroke:#000000;stroke-width:4.9674;}
	.st12{fill:none;stroke:#000000;stroke-width:4;}
	.st13{fill:#0A0406;}
	.st14{fill:#1D1D1B;}
	.st15{fill:#FFE400;}
	.st16{clip-path:url(#SVGID_2_);fill:none;stroke:#010202;stroke-width:4.5066;stroke-miterlimit:10;}
	.st17{fill:#FFD730;}
	.st18{fill:#E7423F;}
	.st19{fill:#0084FF;stroke:#000000;stroke-width:4.0709;}
	.st20{fill:#FFE400;stroke:#000000;stroke-width:4.0529;}
	.st21{fill:none;stroke:#000000;stroke-width:4.1421;}
	.st22{clip-path:url(#SVGID_4_);fill:none;stroke:#010202;stroke-width:4.1565;}
	.st23{fill:none;stroke:#010202;stroke-width:4.1565;stroke-miterlimit:10;}
	.st24{fill:#FFFFFF;stroke:#000000;stroke-width:8.047;stroke-miterlimit:10;}
	.st25{fill:none;stroke:#000000;stroke-width:8.047;stroke-miterlimit:10;}
	.st26{clip-path:url(#SVGID_6_);fill:none;stroke:#000000;stroke-width:8;}
	.st27{fill:#FFFFFF;stroke:#000000;stroke-width:4.1427;stroke-linecap:square;stroke-miterlimit:10;}
	.st28{fill:#FFFFFF;stroke:#000000;stroke-width:4;}
	.st29{fill:#FF1B00;stroke:#000000;stroke-width:4;}
	.st30{fill:none;stroke:#000000;stroke-width:3.4792;stroke-miterlimit:10;}
	.st31{fill:none;stroke:#000000;stroke-width:3.9158;}
	.st32{fill:none;stroke:#000000;stroke-width:3.9158;stroke-miterlimit:10;}
	.st33{fill:none;stroke:#000000;stroke-width:3.8626;}
	.st34{fill:none;stroke:#000000;stroke-width:3.9186;}
	.st35{fill:none;stroke:#000000;stroke-width:3.9354;}
	.st36{fill:#FFD72E;}
	.st37{fill:#FFE400;stroke:#000000;stroke-width:3.2832;}
	.st38{fill:#FFFFFF;stroke:#000000;stroke-width:3.9046;}
	.st39{stroke:#000000;stroke-width:3.9046;}
	.st40{fill:#23AF3D;stroke:#000000;stroke-width:3.9046;}
	.st41{fill:#E8423F;}
	.st42{fill:none;stroke:#010202;stroke-width:3.9405;}
	.st43{fill:none;stroke:#010202;stroke-width:3.9405;stroke-miterlimit:17;}
	.st44{clip-path:url(#SVGID_8_);fill:#FFE400;}
	.st45{clip-path:url(#SVGID_10_);fill:none;stroke:#010202;stroke-width:3.9405;stroke-miterlimit:16;}
	.st46{fill:none;stroke:#010202;stroke-width:3.9405;stroke-miterlimit:9;}
	.st47{fill:none;stroke:#010202;stroke-width:3.9405;stroke-miterlimit:5;}
	.st48{fill:none;stroke:#010202;stroke-width:3.9405;stroke-miterlimit:7;}
	.st49{fill:none;stroke:#010202;stroke-width:3.9405;stroke-miterlimit:10;}
	.st50{clip-path:url(#SVGID_12_);fill:none;stroke:#010202;stroke-width:3.9405;}
	.st51{clip-path:url(#SVGID_14_);fill:none;stroke:#010202;stroke-width:4;stroke-miterlimit:7;}
	.st52{fill:none;stroke:#FFFFFF;stroke-width:7.0508;stroke-linecap:round;stroke-linejoin:round;}
	.st53{fill:none;stroke:#FFFFFF;stroke-width:3.9746;}
	.st54{fill:none;stroke:#FFFFFF;stroke-width:7.0508;stroke-linecap:round;}
	.st55{fill:#12080D;}
	.st56{fill:none;stroke:#000000;stroke-width:3.9746;}
	.st57{fill:none;stroke:#E41E2E;stroke-width:0.8122;}
	.st58{fill:none;stroke:#FFFFFF;stroke-width:2.9047;stroke-linecap:round;stroke-linejoin:round;}
	.st59{fill:none;stroke:#FFFFFF;stroke-width:2.4365;stroke-linecap:round;stroke-linejoin:round;}
	.st60{fill:#FFE400;stroke:#010202;stroke-width:3.141;}
	.st61{fill:#FFE400;stroke:#010202;stroke-width:2.9332;stroke-miterlimit:10;}
	.st62{fill:none;stroke:#010202;stroke-width:2.6714;stroke-linecap:square;stroke-miterlimit:10;}
	.st63{fill:#FFD134;stroke:#010202;stroke-width:2.9332;stroke-linecap:square;stroke-miterlimit:10;}
	.st64{fill:#FFD134;stroke:#010202;stroke-width:3.1256;stroke-miterlimit:10;}
	.st65{fill:#FF1B00;stroke:#010202;stroke-width:2.8366;}
	.st66{fill:none;stroke:#010202;stroke-width:2.9332;}
	.st67{clip-path:url(#SVGID_16_);fill:#010202;}
	.st68{fill:#FFD730;stroke:#FFFFFF;stroke-width:2.8511;stroke-miterlimit:10;}
	.st69{fill:#FF0000;}
</style>
<g>
	<g>
		<path class="st0" d="M275.6,665c-72.6,0-140.8-27-192.1-76.1C32.3,539.9,4,474.7,4,405.4V4.1h543.1v401.3
			c0,69.3-28.2,134.5-79.5,183.5C416.4,637.9,348.2,665,275.6,665z"/>
		<path d="M543.1,8.1v397.2c0,34.5-7.1,67.9-21,99.4c-13.5,30.4-32.7,57.8-57.3,81.3s-53.2,42-85,54.9
			c-33,13.4-68.1,20.1-104.2,20.1c-36.2,0-71.2-6.8-104.2-20.1c-31.9-12.9-60.5-31.4-85-54.9s-43.8-50.8-57.3-81.3
			c-13.9-31.5-21-64.9-21-99.4V8.1h267.3H543.1 M551.2,0H275.4H0v405.3C0,550.9,123.4,669,275.6,669
			c152.2,0,275.6-118.1,275.6-263.7L551.2,0L551.2,0z"/>
	</g>
	<path class="st3" d="M175.4,135.3c27.6,9.5,71.9,26.8,79.6,31.7c-3.5,3.4-19.3,20.3-25.5,57c-14.1,6.4-18.3-0.6-18.3-0.6
		s-5.5,0.3-6.6,3c-10.6-6.6-8.5-15.4-15.7-10c-1.7,1.3-9.6-13-12.4-6.4c-7.5-1.9-7-10.7-9.1-11.2c-2-0.5-6.2,3.1-7.4,0.7
		c-2-4.1-4.3-8.9-5.1-9.5c-0.8-0.7-3.1,1.3-6.3,0.2s-5.2-9.3-8-10.5c-5.6,2.2-8.8-7.1-9.2-8.4c-0.9,2.5-8.5,3.4-7.5-0.9
		c3.5-15.1-20-14.6-18-29.1C76,136.2,82.4,80.6,76.5,79.5c-10.8-2.1-18.2-1.4-18.2-1.4s1-8.5,15.9-9.5c-7.8-5.5-18.3-6.9-18.3-6.9
		s4.3-6.7,23-3.1C74.8,49,64.8,44.2,64.8,44.2s11.4-2.9,23.2,7.6c-1-12.1-10.3-21.9-10.3-21.9s11.2-1.5,22,17.5
		C102.2,36,98,23.8,98,23.8s12.1,1.7,15.6,25.6c10.2,14.2,3.3,35.4,14,59.9C133.8,122.9,151.9,127.2,175.4,135.3"/>
	<path class="st3" d="M225.3,464.2c9.1-31,39.9-51.6,71.3-49c1.6-6.4,3.1-12.2,2.5-13.3c-18.4-38.9-29.3-43.2-29.3-43.2
		s-40.5-8.6-64.9,2.7c-4.9,2.3-41.4,25.3-34.2,26.9c11.8,2.6-4.7,10.3-7.3,16.6c-2.6,6.4,3.9,4.9,4.2,5.6
		c0.7,1.9-16.4,18.5-12.1,19.3c15.8,3.1-7.1,18.9-2.2,20c13.6,3.2-3.1,16.9,1.8,17.7c1.7,0.3,5.1,1.1,7.7,1.5
		c-1.5,2.7-5.5,10.5-4.7,18.5c0.4,3.7,4.8-3.4,7,1.5c-11.2,9.1,9.8,35.2,11.2,50.7c-7.6,0.9-6.3-8.7-12.9-11.6
		c-3.6,6.4-10.8,6.4-19.4,4.3c-8.6-2.1-18.7-6.3-27.9-6.5c-20.2-5.1-28.6,1.9-30.5,4.2c0.6,0.2,7.7,1.8,17.9,6.2
		C86.3,537.5,83.3,548,83.3,548s8.8-0.6,19.8,1.6c-17.8,9-15.4,18.9-15.4,18.9s9.9-5.8,20-6.6c-5.5,4.1-10,13-6.7,19.5
		c4-3.8,11.8-7.4,14.6-8.5c-3.8,8.6-3.2,14.9,0.9,19.4c11.1-15.2,15.1-14.3,18.4-14c1.8,0.1,6.6,1.6,13.6,2.4
		c5.9,0.6,13.3,0.4,21.8,0.9c20.4,1.1,44.1,1.8,59.7-13.9C225.3,532.9,216.5,494,225.3,464.2"/>
	<path class="st13" d="M361.9,41.2c9.4-11.4,45.8-3.9,29.1,23.2C376.7,68,375.2,43.3,361.9,41.2"/>
	<path class="st2" d="M259.8,374.9c0,0,10.5-2.9,26,2.6c2.1,3.4,6.1,9.3,9,15.7C288.8,386.9,259.8,374.9,259.8,374.9"/>
	<path class="st3" d="M258.4,221.5c-71.4,13.4-127.9,59.9-156.1,19.3c8,1.6,14.7,16,25.4,10.8c-13.2-11.4-21.9-37.6-36.8-45.9
		c-10.3-28.1-22.4-29.1-22.4-29.1s7.6,23.6,5.5,28.1C54.5,185.1,44,190,44,190l17.6,22.7c0,0-19.9-10-28.7-2.4
		c11.5,4.5,22.2,12.5,22,14.9c-1.4,0.2-17.8-2.1-20.9,7.2c6.5,1.1,18,4.9,20,8.2c-6.7,2.8-19,6.7-16.9,17.4
		c8.4-1.3,14.8-5.9,22.4-4.4c10.1-2.7,27.7,19.7,29.4,22c1.7,2.2,36.1,34.9,48.7,21.3c0.9-0.9,12.6,8.2,14.4,5.6
		c6.1-8.4,5-5.4,9.3-1.4c2.2,2.1,7.8-0.7,10.4,3.2c5.7-9.2,18.9,3.2,25.1-4.4c6.9,3.6,11,7.3,12.8-1.5c7.3,9,9.2,0,15.5,6.3
		c-0.5-8.6,4.8-5.1,14.7-3.5c6.4,1.1,15,0.1,24-1.2c23-3.3,32-22.7,33.7-26c3-6.3,6.4-5.8,5.4-2.2c-5.6,19.7-17.7,36.1-50.7,34.6
		c-1.8-0.1-2.7,0.7-3.4,1.8c-0.8,1.1-0.7,2-0.5,6c0.3,8.2,22.3,32.3,35,50.4c16.5,23.7,21.8,35.9,19.8,41.2
		c-3.5,9.3-11,58.2-10.6,59.8c0.3,1.6,3,3,5.7,0.8c3.2,3.3-2.9,16.2,1,16.5c3-1.9,6.7-3.5,6.7-3.5s-6.2,14.4,2.7,21.2
		c1.1-4,4.7-7,4.7-7s-1.7,13.9,6.9,17.8c0.1-0.9,0-1.5,1-5.9c5.2,16.9,7.7,18.5,9,17.3c1.4-1.1-2.5-7,2-5.8
		c1.6,14.7,6.2,14.5,6.2,14.5s0.6-0.6,2.7-4c5.2,12.5,34.5,25.8,29.4,55.9c-1.1,0.6-3.4,0.6-4.2-1.8c-0.7-2.3-2.5-9.2-3.4-10.1
		c-0.8-0.9-3.3-3.9-22.6-6c-19.3-2-28.9,6.7-28.9,6.7s-21.4-6.4-32.8,7.2c6.8-1.4,23.4,6.6,23.4,6.6s-17.1,3.7-19.8,19.4
		c12.2-5.6,24.7-4.1,24.7-4.1s-15.1,10.4-12.1,25.1c10.6-10,21.8-12.6,21.8-12.6s-10.3,15.5-1.7,25.8c4.1-5.4,11.7-16.7,17.4-15.9
		c2.4,15.4,12.1,20.8,13.4,19.7c1.3-1.1-2.6-14.2,7.2-22.2c16.8-3.6,58.1-10.7,74.1-45.4c-1.8-10.7-35.7-61-35-97.2
		c0.2-10.1,1.7-50.1,1.7-50.1s1.2-23.4-8-38.9c5.8,0.4,8,10.7,11.3,12.5c3.3,1.9,5.9-2.8,5.9-2.8l-1.2-8.8l6.6,7.2
		c0,0,5.7-11.2,0.9-25.1s-27-40.9-30-50c-2.1-6.4-6.1-30.4-7.7-40.3c-1.6-9.9-1-40-1-40s4.7,0.7,7.7,3.1c2.5-2.7-1.2-11.6-0.1-12.9
		c1,1.7,5.3,1.9,7.7,4.2c4-7.3,0.5-14.5,0.1-15.5c6.8,2.6,13,2,14-0.3c-2.6-2.4-6.1-16.4-6-18.1c2.6-1.2,10,4.8,11.4,2.6
		c-4.1-5.7-1.9-14.5-8.2-24.2c2.4-1.7,4.8,1.4,7.7-2.7c-12.5-17.6,2.9-35.4,1.5-48.5c-2.1-21-14.9-24.5-14.9-24.5S425,105.3,418,81
		c-7.1-24.4-24.6-8.8-36-15.1S370.8,43,353.2,42.1c-24.9-1.3-58.2,15.7-77.6,15.7c-6,0-5.2,0.9-19.6-2.9
		c-3.8,18.2,3.7,20.2,1.5,24.4c-4,8-2.5,10-2.5,10h2.1c-0.6,2.8-0.8,8.2,3.6,14.3c5.3-7.3,7.1-11.9,7.6-14.1h1.5
		c-0.3,3.3-0.1,9.5,3.4,14.1c5.3-4.8,7.2-11,7.9-13.9h0.3c0,0,12.2-0.8,20,3c7.8,3.9,7.5,18.8,7.5,18.8s-21.2-6.4-30.3-6.2
		c-12.9,0.3-32.9,5.1-45.1,2.6c-12.2-2.5-23.2-18.2-23.2-18.2s-19.1,25.8,23.6,32.3c9.5,1.4,18.5,0.9,26.3-0.2c0,0,20.4-4,24.8-4.5
		c4.4-0.5,22.1,1.8,22.1,1.8s-1,5.8-9.8,5.8c-2.9,0-37.7-0.6-37.7-0.6s-0.9,10.4,6.7,11.1c2.5,0.2,11.6-0.6,23.3,0.9
		c24.7,3.3,52.8,12.1,73.3-7.9c17.7-17.3,3.8-42.9,19.7-53.9c13-9,27.4-0.9,28,2.6c-19.5-7.1-23.6-0.8-25.8,0.7
		c-15.7,10.6,7.8,64.5-51.9,66.1c-20.8,0.6-42.7,1.7-52.2,10.9c-5.4,5.2-10.8,4.9-18.6,11.9c-21.1,19-23.4,42.3-25.6,54
		c-0.9,4.6,1.5,3.2,1.5,3.2s11.2-3.6,19.4-4.6c1.4-0.2,1.6,0.7,1.6,0.7s0,1-1.4,1.7"/>
	<path class="st2" d="M36.8,209.7c6.5,3,14.2,7.7,17.7,11.6c1.1-2.7,3.6-6.5,4.5-7.8C55.8,212,44.4,207.5,36.8,209.7"/>
	<path class="st2" d="M37.3,231c4.7,1.1,12.4,3.5,16.6,6.5c-0.1-1-0.2-2.1-0.3-3.1c-0.1-2.5,0-4.9,0.4-7.2
		C51.7,227,40.6,226.8,37.3,231"/>
	<path class="st2" d="M47.5,191.1c1,1.3,14.9,19.2,15.4,19.8c2.3-1.7,7.5-4.5,9.2-5.4C60,193.6,51.8,191.3,47.5,191.1"/>
	<path class="st2" d="M38.7,255.8c1.8-0.5,3.7-1.1,5.9-1.9c4-1.4,8-2.9,12.5-2.7c-1.3-2.7-2.3-5.6-3.1-8.6
		C51.6,243.5,38.8,248.9,38.7,255.8"/>
	<path class="st2" d="M76.2,200.3c0.1,1.4,0,2.4-0.2,3.2c2-0.2,8.5-0.8,12.4-0.3c-6.8-16.3-13.7-22.5-17.7-24.9
		C72.7,184.4,75.8,194.3,76.2,200.3"/>
	<path class="st2" d="M284.4,577.5c7.8,1.4,17.6,6,18.7,6.5c0,0,1,0.5,1.6,0.8c0-0.2,0-0.4,0-0.7c0-4.2,1.4-7.7,3.9-10.2
		C302.6,572.8,292.2,572.1,284.4,577.5"/>
	<path class="st2" d="M308.3,603.1L308.3,603.1c-0.1,0.1-10.9,7.8-11.4,18.7c8.5-6.9,16.6-9.5,18.7-10.1c-1.3-1.3-2.5-2.8-3.5-4.6
		c0,0,0,0-1.7-3.1c0,0-0.7-1.2-0.9-1.7C309.2,602.5,308.9,602.7,308.3,603.1"/>
	<path class="st2" d="M302.6,588.2L302.6,588.2c-0.2,0-12.5,3-16.7,13.7c11-3.9,20.9-2.9,21.4-2.8c0,0,0.5,0.1,0.9,0.1
		c-1.8-3.9-2.9-7.8-3.4-11.5C304.4,587.8,303.8,588,302.6,588.2"/>
	<path class="st2" d="M334.7,623.2v0.1c1.5,9.8,6.1,15.2,9,17.1c0-0.8,0-2.2,0-2.2c0-4.1,0.6-10,4.6-15.2
		C344.4,624.3,339.7,624.4,334.7,623.2"/>
	<path class="st2" d="M318.6,614.9c0,0.1-4.8,7.3-4.8,14.7c0,2.2,0.5,4.2,1.3,6c3.8-5.3,9.4-12.6,14.9-13.9
		C325.9,620.2,322,617.9,318.6,614.9"/>
	<path class="st2" d="M111.8,47.1L111.8,47.1c-2.6-12.8-7.5-18.4-11-20.8c0.7,2.5,1.4,5.8,1.7,9.5c0.3,3.5,0.3,7.2-0.5,11l-0.2,1.1
		C105.3,46.8,108.8,46.5,111.8,47.1"/>
	<path class="st2" d="M97.7,47.1c-5.8-9.8-11.6-13.8-15.6-15.4c3.1,4.3,7,11,7.7,18.8l0.2,2.1c2.9-1.7,5.8-3,8.6-3.9L97.7,47.1z"/>
	<path class="st2" d="M77.6,60.1c-9.1-1.4-14.5-0.6-17.7,0.5c4.1,1,9.7,2.7,14.6,5.9l0.8,0.5c1.1-2.1,2.7-4.2,4.5-6.3L77.6,60.1z"/>
	<path class="st2" d="M74.1,70.5c-8,0.8-11.4,3.6-13,5.7c2.3-0.1,7.1,0,12.1,0.4c-0.1-1.9,0.3-4,1.1-6.1L74.1,70.5L74.1,70.5z"/>
	<path class="st2" d="M87.8,54.1l-1.9-1.6c-5.8-4.9-11.4-6.6-15.6-7.1c7.1,4.8,10.7,12.7,11.2,13.7c0.7-0.7,3.5-3.1,5.5-4.5
		C87.3,54.5,87.5,54.3,87.8,54.1"/>
	<path class="st2" d="M112,561.6l-2.9,2.2c-3.9,2.9-7,8.2-7,12.8c0,0.4,0.1,0.7,0.1,1.1c4.8-3.4,11.1-6.1,12.5-6.7l3.9-1.6
		C116.1,567.1,113.8,564.5,112,561.6"/>
	<path class="st2" d="M107.9,549.7l-3.8,2c-9.8,4.9-12.9,10-13.9,13.2c3.9-1.9,10.5-4.4,17.3-5l3.4-0.3c-0.2-0.3-0.3-0.6-0.5-0.8
		C109.2,555.8,108.4,552.8,107.9,549.7"/>
	<path class="st2" d="M108.1,538.3l-4.5,0.3c-9.8,0.7-14.4,4.5-16.5,7.2c3.7,0,9.6,0.4,16.4,1.7l4.3,0.9
		C107.4,544.9,107.5,541.4,108.1,538.3"/>
	<path class="st2" d="M117.8,573.9c-1.6,3.5-2.3,6.6-2.3,9.4c0,2,0.5,3.8,1.3,5.3c6.3-8.1,10.4-11.2,13.7-12.1
		c-3.8-1.5-7.6-3.7-11-6.5L117.8,573.9z"/>
	<path class="st2" d="M90.3,529.3c3.2,1,8.1,2.6,14,5.1l4.2,1.8c0.9-3.4,2.2-6.4,4-8.6C100.6,525.2,93.8,527.3,90.3,529.3"/>
	<path class="st2" d="M387.2,95.4c0,0-2.3,0.3-2.1,1.7c0.1,1.4,1.8,1.7,1.8,1.7s9.3,2.6,11.6-7.7C397,95.9,387.2,95.4,387.2,95.4"/>
	<path class="st2" d="M388.4,87.8c-0.8-0.2-3.2,1.2-3.2,2.6c0.1,0.8,0.9,0.8,1.7,1c3.8,0.6,12.2-6.1,8.4-7.4
		C393.8,83.5,393.5,88.2,388.4,87.8"/>
	<path class="st2" d="M345.1,54.9c-0.9-0.9-30.4,9.8-31,15.1c-0.1,0.4,0.6,1.8,2.1,1.5c1.1-0.3,15.7-1.8,26.9-1.1
		c4.4,0.2,8.2,1.2,10.5,2.1c3,1.2,7.2,0.7,7.4-0.6s-10.7-4.4-15.4-4.8c-8.6-0.8-25.8,1.5-25.8,1.5S346.5,56.3,345.1,54.9"/>
	<path class="st0" d="M112.9,118.1c5-22.4-10.1-43.7-10.3-61c-4.3,13.1,3.1,27.2,6.1,41.1c3.2,15.2,2.7,27.8-6.8,27.7
		c-1.8,0-1.6,2-0.6,1.9C109.6,127.5,111.5,123.4,112.9,118.1"/>
	<path class="st0" d="M342.4,73.8c1.1,0.8,1.8,2.1,1.8,3.5c0,2.4-2,4.3-4.4,4.3s-4.4-1.9-4.4-4.3c0-1.6,0.9-2.9,2.2-3.7
		c-4,0.8-7.6,3.6-7.6,5.1c0,1.8,4.9,5.4,9.8,5.6c4.6,0.1,9.1-4,9.1-5.4C348.7,77.8,345.9,74.9,342.4,73.8"/>
	<path class="st3" d="M262.5,115.7c-0.9,1.7-2,4.4-2,7.4c0,3.3,1.3,6.1,3.7,8.2l0.5,0.4h10.1l-2.1-2.8c-1.3-1.8-2.2-4-3.2-6.4
		c-1.1-2.9-2.2-5.5-4.1-7.2l-1.8-1.6L262.5,115.7z"/>
	<path class="st3" d="M275.5,115.2c-0.9,1.9-2,5.1-2,9.3c0,1.6,0.2,3.4,0.6,5.3l0.3,1.5l5.2-0.2l4.6-0.1l3.3-0.1l-1.8-2.6
		c-1-1.5-1.9-3.6-2.9-5.8c-1.2-2.8-2.4-5.5-4.1-7.6l-1.8-2.3L275.5,115.2z"/>
	<path class="st0" d="M259.1,92.3c0,1.9,0.4,4.3,1.8,7c2.9-4.4,4.4-7.9,5.1-9.8c-2.4-0.2-4.7,0-6.5-0.1
		C259.2,90.1,259.1,91.1,259.1,92.3"/>
	<path class="st0" d="M272,91.4c0,2.4,0.3,5.5,1.7,8.3c3.1-3.6,4.5-7.9,5.1-10.3c-2.2,0-4.6,0-6.7-0.2C272.1,89.9,272,90.6,272,91.4
		"/>
	<path class="st0" d="M267.8,123c-1-2.6-2-5.1-3.6-6.5c-1,1.8-1.8,4.1-1.8,6.5c0,0.3,0,0.7,0.1,1.1c1.5,0,3.5,0.1,5.9,0.1
		C268.1,123.8,267.9,123.4,267.8,123"/>
	<path class="st0" d="M281,123.1c-1.1-2.6-2.3-5.2-3.9-7.2c-0.7,1.5-1.8,4.3-1.9,8.4c2.1,0,4.2,0.1,6.3,0.1
		C281.3,124,281.2,123.6,281,123.1"/>
	<path class="st0" d="M508.2,372.6c0,0,2.4,6.2-2.4,19.1c-4.7,12.9-26.9,16.7-26.9,16.7s-22.4,2.9-29.3,1.4
		c-3.6-7.5-0.7-64.4-0.7-64.4s6.9-4.2,23.5-4.7C503.4,339.5,508.2,372.6,508.2,372.6"/>
	<path class="st2" d="M208.8,102.9c0,1.8,0.4,3.4,1.1,4.9c2.9,5.8,11.1,9.7,24.5,11.5c7.9,1.1,16.2,1,25.5-0.2
		c0.1,0,20.2-3.7,24.8-4.2c3.9-0.4,16.1,0.8,21.1,1.4c0,0,1.6,0.2,2.2,0.3c0.2-0.9,0.6-2.5,0.8-3.4c-0.6-0.2-2.3-0.6-2.3-0.6
		c-4.6-1.2-20.5-5.3-27.8-5.1c-4.6,0.1-10.1,0.7-16,1.4c-10.6,1.2-21.5,2.5-29.7,0.9c-9.6-1.9-18.2-10.2-22.2-14.6
		C209.8,97.3,208.8,100,208.8,102.9"/>
</g>
</svg>
