<?xml version="1.0" encoding="utf-8"?>
<!-- Generator: Adobe Illustrator 21.1.0, SVG Export Plug-In . SVG Version: 6.00 Build 0)  -->
<svg version="1.1" id="Calque_1" xmlns="http://www.w3.org/2000/svg" xmlns:xlink="http://www.w3.org/1999/xlink" x="0px" y="0px"
	 viewBox="0 0 550.8 668.6" style="enable-background:new 0 0 550.8 668.6;" xml:space="preserve">
<style type="text/css">
	.st0{fill:#FFFFFF;}
	.st1{fill:#0084FF;}
	.st2{fill:#FF1B00;}
	.st3{fill:#010202;}
	.st4{fill:#0073FF;}
	.st5{fill:#23AF3D;}
	.st6{fill:none;stroke:#010202;stroke-width:5;}
	.st7{fill:none;stroke:#010202;stroke-width:5;stroke-linecap:round;stroke-linejoin:round;}
	.st8{fill:#040304;}
	.st9{fill:none;stroke:#040304;stroke-width:5;}
	.st10{fill:#FF1B00;stroke:#010202;stroke-width:5;}
	.st11{fill:#FFFFFF;stroke:#000000;stroke-width:4.9674;}
	.st12{fill:none;stroke:#000000;stroke-width:4;}
	.st13{fill:#0A0406;}
	.st14{fill:#1D1D1B;}
	.st15{fill:#FFE400;}
	.st16{clip-path:url(#SVGID_2_);fill:none;stroke:#010202;stroke-width:4.5066;stroke-miterlimit:10;}
	.st17{fill:#FFD730;}
	.st18{fill:#E7423F;}
	.st19{fill:#0084FF;stroke:#000000;stroke-width:4.0709;}
	.st20{fill:#FFE400;stroke:#000000;stroke-width:4.0529;}
	.st21{fill:none;stroke:#000000;stroke-width:4.1421;}
	.st22{clip-path:url(#SVGID_4_);fill:none;stroke:#010202;stroke-width:4.1565;}
	.st23{fill:none;stroke:#010202;stroke-width:4.1565;stroke-miterlimit:10;}
	.st24{fill:#FFFFFF;stroke:#000000;stroke-width:8.047;stroke-miterlimit:10;}
	.st25{fill:none;stroke:#000000;stroke-width:8.047;stroke-miterlimit:10;}
	.st26{clip-path:url(#SVGID_6_);fill:none;stroke:#000000;stroke-width:8;}
	.st27{fill:#FFFFFF;stroke:#000000;stroke-width:4.1427;stroke-linecap:square;stroke-miterlimit:10;}
	.st28{fill:#FFFFFF;stroke:#000000;stroke-width:4;}
	.st29{fill:#FF1B00;stroke:#000000;stroke-width:4;}
	.st30{fill:none;stroke:#000000;stroke-width:3.4792;stroke-miterlimit:10;}
	.st31{fill:none;stroke:#000000;stroke-width:3.9158;}
	.st32{fill:none;stroke:#000000;stroke-width:3.9158;stroke-miterlimit:10;}
	.st33{fill:none;stroke:#000000;stroke-width:3.8626;}
	.st34{fill:none;stroke:#000000;stroke-width:3.9186;}
	.st35{fill:none;stroke:#000000;stroke-width:3.9354;}
	.st36{fill:#FFD72E;}
	.st37{fill:#FFE400;stroke:#000000;stroke-width:3.2832;}
	.st38{fill:#FFFFFF;stroke:#000000;stroke-width:3.9046;}
	.st39{stroke:#000000;stroke-width:3.9046;}
	.st40{fill:#23AF3D;stroke:#000000;stroke-width:3.9046;}
	.st41{fill:#E8423F;}
	.st42{fill:none;stroke:#010202;stroke-width:3.9405;}
	.st43{fill:none;stroke:#010202;stroke-width:3.9405;stroke-miterlimit:17;}
	.st44{clip-path:url(#SVGID_8_);fill:#FFE400;}
	.st45{clip-path:url(#SVGID_10_);fill:none;stroke:#010202;stroke-width:3.9405;stroke-miterlimit:16;}
	.st46{fill:none;stroke:#010202;stroke-width:3.9405;stroke-miterlimit:9;}
	.st47{fill:none;stroke:#010202;stroke-width:3.9405;stroke-miterlimit:5;}
	.st48{fill:none;stroke:#010202;stroke-width:3.9405;stroke-miterlimit:7;}
	.st49{fill:none;stroke:#010202;stroke-width:3.9405;stroke-miterlimit:10;}
	.st50{clip-path:url(#SVGID_12_);fill:none;stroke:#010202;stroke-width:3.9405;}
	.st51{clip-path:url(#SVGID_14_);fill:none;stroke:#010202;stroke-width:4;stroke-miterlimit:7;}
	.st52{fill:none;stroke:#FFFFFF;stroke-width:7.0508;stroke-linecap:round;stroke-linejoin:round;}
	.st53{fill:none;stroke:#FFFFFF;stroke-width:3.9746;}
	.st54{fill:none;stroke:#FFFFFF;stroke-width:7.0508;stroke-linecap:round;}
	.st55{fill:#12080D;}
	.st56{fill:none;stroke:#000000;stroke-width:3.9746;}
	.st57{fill:none;stroke:#E41E2E;stroke-width:0.8122;}
	.st58{fill:none;stroke:#FFFFFF;stroke-width:2.9047;stroke-linecap:round;stroke-linejoin:round;}
	.st59{fill:none;stroke:#FFFFFF;stroke-width:2.4365;stroke-linecap:round;stroke-linejoin:round;}
	.st60{fill:#FFE400;stroke:#010202;stroke-width:3.141;}
	.st61{fill:#FFE400;stroke:#010202;stroke-width:2.9332;stroke-miterlimit:10;}
	.st62{fill:none;stroke:#010202;stroke-width:2.6714;stroke-linecap:square;stroke-miterlimit:10;}
	.st63{fill:#FFD134;stroke:#010202;stroke-width:2.9332;stroke-linecap:square;stroke-miterlimit:10;}
	.st64{fill:#FFD134;stroke:#010202;stroke-width:3.1256;stroke-miterlimit:10;}
	.st65{fill:#FF1B00;stroke:#010202;stroke-width:2.8366;}
	.st66{fill:none;stroke:#010202;stroke-width:2.9332;}
	.st67{clip-path:url(#SVGID_16_);fill:#010202;}
	.st68{fill:#FFD730;stroke:#FFFFFF;stroke-width:2.8511;stroke-miterlimit:10;}
	.st69{fill:#FF0000;}
</style>
<g>
	<path class="st4" d="M275.3,664.6c-72.5,0-140.7-27-191.9-76C32.2,539.6,4,474.4,4,405V4h275.2l0,0h267.5v401
		c0,69.4-28.2,134.6-79.4,183.6C416,637.6,347.9,664.6,275.3,664.6z"/>
	<path d="M542.7,8v397c0,34.5-7,68-20.9,99.4c-13.4,30.4-32.7,57.8-57.2,81.2c-24.5,23.5-53.1,41.9-85,54.8
		c-33,13.3-68.1,20.1-104.2,20.1s-71.2-6.8-104.2-20.1c-31.8-12.9-60.4-31.3-85-54.8c-24.5-23.5-43.8-50.8-57.2-81.2
		C15.1,472.9,8,439.5,8,405V8h267.2h8l0,0H542.7 M550.7,0H275.2l0,0H0v405c0,145.7,123.3,263.6,275.4,263.6
		c152.2,0,275.4-117.9,275.4-263.6L550.7,0L550.7,0z"/>
</g>
<path d="M275.3,668.6C123.3,668.6-0.1,550.7-0.1,405V0h275.2L275.3,668.6L275.3,668.6z"/>
<path class="st11" d="M476.4,185.6l16,43.3h42.2l-33.2,22.9l12.5,41l-37.6-24.1l-37.6,24.1l13.1-41.3L418,228.9h42.5L476.4,185.6z"
	/>
<path class="st11" d="M345.6,185.6l15.7,43.3h42.5l-33.5,22.9l12.8,41l-37.6-24.1l-37.2,24.1l12.8-41.3l-33.9-22.6h42.4L345.6,185.6
	z"/>
<path class="st11" d="M411.1,300.1l16,43.4h42.2l-33.8,22.7l13.1,41.4L411,383.4l-37.6,23.9l12.8-41.1l-33.5-23h42.2L411.1,300.1z"
	/>
<path class="st0" d="M266.5,249.4c-13,0-19-2.9-24.3-5.7c-2.9-1.7-5.8-3.4-9.9-4.5c-0.1,0-0.2-0.1-0.3-0.1c-0.1-0.1-0.2-0.1-0.4-0.1
	c-2.9-0.8-6.4-1.3-11-1.3h-0.1h-0.2c-6.1,0-10.3,0.9-13.7,2.2c-9.3,3.4-13.6,9.5-31.8,9.6c-5,0-8.9-0.5-12.2-1.2
	c-13.5-2.9-15.4-10.6-33.3-10.6h-0.2H129c-22.2,0-20.5,11.7-46,11.7s-23-11.7-45.2-11.7c-20.6,0-21.3,9.9-36.7,11.2v37.4
	c15.4-1.4,16.1-11.2,36.7-11.2c22.2,0,19.7,11.7,45.2,11.7c3.8,0,6.9-0.3,9.6-0.7l0,0c15.3-1.4,16.1-11.2,36.6-11.2
	c17.8,0.1,19.5,7.7,33.4,10.6c3.2,0.7,7.1,1.1,12,1.1c0.1,0,0.1,0,0.2,0s0.1,0,0.2,0c19.2,0,22.8-6.1,31.6-9.6
	c3.5-1.3,7.8-2.1,13.8-2.2c4.6,0,8.2,0.5,11.2,1.3c0.1,0,0.2,0.1,0.4,0.1c0.1,0,0.2,0.1,0.3,0.1c3.9,1.1,6.8,2.8,9.9,4.5
	c3.4,1.9,6.7,3.8,11.7,4.8v-0.1c3.4,0.7,7.4,1.2,12.7,1.2c3.3,0,6.2-0.2,8.7-0.5v-37.4C272.7,249.2,269.8,249.4,266.5,249.4"/>
<path class="st0" d="M266.5,299.4c-13,0-19-2.9-24.3-5.9c-2.9-1.8-5.8-3.3-9.9-4.5c-0.1,0-0.2-0.1-0.3-0.1c-0.1-0.1-0.2-0.1-0.4-0.1
	c-2.9-0.8-6.4-1.3-11-1.3h-0.1h-0.2c-6.1,0-10.3,0.9-13.7,2.2c-9.3,3.5-13.6,9.3-31.8,9.6c-5,0-8.9-0.6-12.2-1.2
	c-13.5-2.9-15.4-10.6-33.3-10.6h-0.2H129c-22.2,0-20.5,11.8-46,11.8s-23-11.8-45.2-11.8c-20.6,0-21.3,9.8-36.7,11.2v37.2
	c15.4-1.2,16.1-11.1,36.7-11.1c22.2,0,19.7,11.7,45.2,11.7c3.8,0,6.9-0.3,9.6-0.6c15.3-1.5,16.1-11.1,36.6-11.1
	c17.8,0,19.5,7.6,33.4,10.6c3.2,0.6,7.1,1.2,12,1.2h0.2h0.2c19.2,0,22.8-6.2,31.6-9.7c3.5-1.2,7.8-2.1,13.8-2.1
	c4.6,0,8.2,0.3,11.2,1.2h0.4c0.1,0,0.2,0.3,0.3,0.3c3.9,1.2,6.8,2.6,9.9,4.4c3.4,2.1,6.7,3.8,11.7,4.7c3.4,0.9,7.4,1.2,12.7,1.2
	c3.3,0,6.2,0,8.7-0.6v-37.2C272.7,299.1,269.8,299.4,266.5,299.4"/>
<path class="st0" d="M266.5,349.3c-13,0-19-2.9-24.3-5.9c-2.9-1.5-5.8-3.2-9.9-4.4H232c-0.1,0-0.2-0.3-0.4-0.3
	c-2.9-0.6-6.4-1.2-11-1.2h-0.1h-0.2c-6.1,0-10.3,0.9-13.7,2.1c-9.3,3.5-13.6,9.7-31.8,9.7c-5,0-8.9-0.6-12.2-1.2
	c-13.5-2.9-15.4-10.6-33.3-10.6h-0.2H129c-22.2,0-20.5,11.7-46,11.7s-23-11.7-45.2-11.7c-20.6,0-21.3,9.7-36.7,11.1v37.5
	c15.4-1.5,16.1-11.4,36.7-11.4c22.2,0,19.7,11.7,45.2,11.7c3.8,0,6.9,0,9.6-0.6c15.3-1.5,16.1-11.1,36.6-11.1
	c17.8,0,19.5,7.6,33.4,10.6c3.2,0.6,7.1,1.2,12,1.2h0.2h0.2c19.2,0,22.8-6.2,31.6-9.7c3.5-1.2,7.8-2.1,13.8-2.1
	c4.6,0,8.2,0.6,11.2,1.2c0.1,0,0.2,0,0.4,0.3h0.3c3.9,1.2,6.8,2.9,9.9,4.4c3.4,2.1,6.7,4.1,11.7,5v-0.3c3.4,0.9,7.4,1.2,12.7,1.2
	c3.3,0,6.2,0,8.7-0.3v-37.5C272.7,349,269.8,349.3,266.5,349.3"/>
<path class="st12" d="M274.8-0.4v668.9"/>
</svg>
