<?xml version="1.0" encoding="utf-8"?>
<!-- Generator: Adobe Illustrator 22.0.1, SVG Export Plug-In . SVG Version: 6.00 Build 0)  -->
<svg version="1.1" id="Calque_1" xmlns="http://www.w3.org/2000/svg" xmlns:xlink="http://www.w3.org/1999/xlink" x="0px" y="0px"
	 viewBox="0 0 525.8 665.8" style="enable-background:new 0 0 525.8 665.8;" xml:space="preserve">
<style type="text/css">
	.st0{fill:#FFFFFF;}
	.st1{fill:#0084FF;}
</style>
<g id="Calque_1_1_">
	<g>
		<path class="st0" d="M262.9,661.8c-69.1,0-134.1-27-183-76.1C31,536.6,4.1,471.4,4.1,401.9V3.9h517.7v398
			c0,69.4-26.9,134.7-75.8,183.8C397,634.8,332,661.8,262.9,661.8z"/>
		<path d="M517.7,8v394c0,34.6-6.7,68.1-20,99.6c-12.8,30.5-31.2,57.8-54.6,81.3s-50.7,41.9-81,54.8c-31.4,13.3-64.8,20.1-99.2,20.1
			s-67.8-6.8-99.2-20.1c-30.3-12.9-57.6-31.3-81-54.8S40.9,532,28.1,501.6c-13.3-31.5-20-65.1-20-99.6V8H517.7 M525.7,0H0v402
			c0,145.7,117.7,263.8,262.8,263.8S525.6,547.7,525.6,402V0H525.7z"/>
	</g>
	<path class="st1" d="M8.1,171V422h509.6V171H8.1z"/>
</g>
</svg>
