<?xml version="1.0" encoding="utf-8"?>
<!-- Generator: Adobe Illustrator 21.1.0, SVG Export Plug-In . SVG Version: 6.00 Build 0)  -->
<svg version="1.1" id="Calque_1" xmlns="http://www.w3.org/2000/svg" xmlns:xlink="http://www.w3.org/1999/xlink" x="0px" y="0px"
	 viewBox="0 0 550.7 668.5" style="enable-background:new 0 0 550.7 668.5;" xml:space="preserve">
<style type="text/css">
	.st0{fill:#FFFFFF;}
	.st1{fill:#0084FF;}
	.st2{fill:#FF1B00;}
	.st3{fill:#010202;}
	.st4{fill:#0073FF;}
	.st5{fill:#23AF3D;}
	.st6{fill:none;stroke:#010202;stroke-width:5;}
	.st7{fill:none;stroke:#010202;stroke-width:5;stroke-linecap:round;stroke-linejoin:round;}
	.st8{fill:#040304;}
	.st9{fill:none;stroke:#040304;stroke-width:5;}
	.st10{fill:#FF1B00;stroke:#010202;stroke-width:5;}
	.st11{fill:#FFFFFF;stroke:#000000;stroke-width:4.9674;}
	.st12{fill:none;stroke:#000000;stroke-width:4;}
	.st13{fill:#0A0406;}
	.st14{fill:#1D1D1B;}
	.st15{fill:#FFE400;}
	.st16{clip-path:url(#SVGID_2_);fill:none;stroke:#010202;stroke-width:4.5066;stroke-miterlimit:10;}
	.st17{fill:#FFD730;}
	.st18{fill:#E7423F;}
	.st19{fill:#0084FF;stroke:#000000;stroke-width:4.0709;}
	.st20{fill:#FFE400;stroke:#000000;stroke-width:4.0529;}
	.st21{fill:none;stroke:#000000;stroke-width:4.1421;}
	.st22{clip-path:url(#SVGID_4_);fill:none;stroke:#010202;stroke-width:4.1565;}
	.st23{fill:none;stroke:#010202;stroke-width:4.1565;stroke-miterlimit:10;}
	.st24{fill:#FFFFFF;stroke:#000000;stroke-width:8.047;stroke-miterlimit:10;}
	.st25{fill:none;stroke:#000000;stroke-width:8.047;stroke-miterlimit:10;}
	.st26{clip-path:url(#SVGID_6_);fill:none;stroke:#000000;stroke-width:8;}
	.st27{fill:#FFFFFF;stroke:#000000;stroke-width:4.1427;stroke-linecap:square;stroke-miterlimit:10;}
	.st28{fill:#FFFFFF;stroke:#000000;stroke-width:4;}
	.st29{fill:#FF1B00;stroke:#000000;stroke-width:4;}
	.st30{fill:none;stroke:#000000;stroke-width:3.4792;stroke-miterlimit:10;}
	.st31{fill:none;stroke:#000000;stroke-width:3.9158;}
	.st32{fill:none;stroke:#000000;stroke-width:3.9158;stroke-miterlimit:10;}
	.st33{fill:none;stroke:#000000;stroke-width:3.8626;}
	.st34{fill:none;stroke:#000000;stroke-width:3.9186;}
	.st35{fill:none;stroke:#000000;stroke-width:3.9354;}
	.st36{fill:#FFD72E;}
	.st37{fill:#FFE400;stroke:#000000;stroke-width:3.2832;}
	.st38{fill:#FFFFFF;stroke:#000000;stroke-width:3.9046;}
	.st39{stroke:#000000;stroke-width:3.9046;}
	.st40{fill:#23AF3D;stroke:#000000;stroke-width:3.9046;}
	.st41{fill:#E8423F;}
	.st42{fill:none;stroke:#010202;stroke-width:3.9405;}
	.st43{fill:none;stroke:#010202;stroke-width:3.9405;stroke-miterlimit:17;}
	.st44{clip-path:url(#SVGID_8_);fill:#FFE400;}
	.st45{clip-path:url(#SVGID_10_);fill:none;stroke:#010202;stroke-width:3.9405;stroke-miterlimit:16;}
	.st46{fill:none;stroke:#010202;stroke-width:3.9405;stroke-miterlimit:9;}
	.st47{fill:none;stroke:#010202;stroke-width:3.9405;stroke-miterlimit:5;}
	.st48{fill:none;stroke:#010202;stroke-width:3.9405;stroke-miterlimit:7;}
	.st49{fill:none;stroke:#010202;stroke-width:3.9405;stroke-miterlimit:10;}
	.st50{clip-path:url(#SVGID_12_);fill:none;stroke:#010202;stroke-width:3.9405;}
	.st51{clip-path:url(#SVGID_14_);fill:none;stroke:#010202;stroke-width:4;stroke-miterlimit:7;}
	.st52{fill:none;stroke:#FFFFFF;stroke-width:7.0508;stroke-linecap:round;stroke-linejoin:round;}
	.st53{fill:none;stroke:#FFFFFF;stroke-width:3.9746;}
	.st54{fill:none;stroke:#FFFFFF;stroke-width:7.0508;stroke-linecap:round;}
	.st55{fill:#12080D;}
	.st56{fill:none;stroke:#000000;stroke-width:3.9746;}
	.st57{fill:none;stroke:#E41E2E;stroke-width:0.8122;}
	.st58{fill:none;stroke:#FFFFFF;stroke-width:2.9047;stroke-linecap:round;stroke-linejoin:round;}
	.st59{fill:none;stroke:#FFFFFF;stroke-width:2.4365;stroke-linecap:round;stroke-linejoin:round;}
	.st60{fill:#FFE400;stroke:#010202;stroke-width:3.141;}
	.st61{fill:#FFE400;stroke:#010202;stroke-width:2.9332;stroke-miterlimit:10;}
	.st62{fill:none;stroke:#010202;stroke-width:2.6714;stroke-linecap:square;stroke-miterlimit:10;}
	.st63{fill:#FFD134;stroke:#010202;stroke-width:2.9332;stroke-linecap:square;stroke-miterlimit:10;}
	.st64{fill:#FFD134;stroke:#010202;stroke-width:3.1256;stroke-miterlimit:10;}
	.st65{fill:#FF1B00;stroke:#010202;stroke-width:2.8366;}
	.st66{fill:none;stroke:#010202;stroke-width:2.9332;}
	.st67{clip-path:url(#SVGID_16_);fill:#010202;}
	.st68{fill:#FFD730;stroke:#FFFFFF;stroke-width:2.8511;stroke-miterlimit:10;}
	.st69{fill:#FF0000;}
</style>
<g>
	<path class="st2" d="M275.4,666.4c-73,0-141.6-27.2-193.2-76.6c-51.6-49.4-80-115-80-184.9V2.1h274.5l0,0h272v402.8
		c0,69.9-28.4,135.6-79.9,184.9C417.1,639.2,348.5,666.4,275.4,666.4z"/>
	<path d="M546.5,4.1v400.7c0,35-7.2,69-21.3,101c-13.6,30.9-33.2,58.6-58,82.5c-24.9,23.8-53.9,42.5-86.2,55.6
		c-33.4,13.5-69,20.4-105.7,20.4c-36.6,0-72.2-6.9-105.6-20.4c-32.3-13.1-61.3-31.8-86.2-55.6s-44.4-51.6-58.1-82.5
		c-14.1-32-21.3-65.9-21.3-101V4.1h271h2.8l0,0H546.5 M550.7,0H275.2l0,0H0v404.9c0,145.7,123.3,263.6,275.3,263.6
		c152.2,0,275.3-117.9,275.3-263.6L550.7,0L550.7,0z"/>
</g>
<path class="st27" d="M324.9,241.4h37.8v31.5h58.6v-31.5h26.4v31.5h64.5v-35.7h-23.7v-28.4h23.7v-36h-64.5v31.5h-26.4v-31.5h-34.9
	v-27.6h34.9v-31.6h26.4v31.5h64.5v-35.7h-23.7V81h23.7V45.3h-64.5v31h-26.4v-31h-58.6v31h-37.8L324.9,241.4L324.9,241.4z"/>
<path class="st27" d="M224.9,241.4h-37.6v31.5h-58.7v-31.5h-26.5v31.5H37.7v-35.7h23.8v-28.4H37.7v-36h64.4v31.5h26.5v-31.5h34.9
	v-27.6h-34.9v-31.6h-26.5v31.5H37.7v-35.7h23.8V81H37.7V45.3h64.4v31h26.5v-31h58.7v31h37.6V241.4L224.9,241.4z"/>
<path class="st27" d="M281,14.3l0.4,379.1c0,0.6,0.5,38.7,39.5,38.7c21.1,0,30.5-7,39.3-13.5c10-7.3,19.9-14.7,45.7-15
	c9.4,0,31.4,1.2,45.7,15.5c9.4,9.4,14.1,22.3,14.1,39c0,15.2-10,30.2-26.1,39.3c-21.4,11.4-47.5,10.6-68.6-3.5l-5.3-3.5
	c-12-8.2-28.7-19.6-48.4-10c-12.6,6.2-19.3,16.7-18.5,29c0,7.6,2.3,12,5.3,17c4.4,7.3,9.7,16.4,9.7,41c0,14.7-4.7,40.2-35.1,42.8
	c-24.4,2.3-42.1-21.4-42.2-42.8c-0.1-24.6,5.3-33.7,9.6-41c2.9-5,5.4-9.4,5.4-16.7c0.8-12.6-6-23.2-18.6-29.3
	c-19.6-9.7-36.1,1.8-48.3,10l-5.2,3.5c-21.3,14.4-47.3,15-68.5,3.5c-16.2-9.1-26.3-24-26.3-39.3c0-16.7,4.7-29.6,14.1-39
	c14.3-14.3,36.3-15.5,45.1-15.5c26.4,0.3,36.4,7.6,46.2,15c9.1,6.4,18.4,13.5,39.4,13.5c39,0,39.5-38.1,39.5-38.7l0.3-379.1
	l-47.9-0.2v359.7c0,6.5-1.8,10.8-5,12.3c-3.7,1.8-9.5-0.6-15.7-6.2c-16.5-15-44.4-21.7-64.8-21.7c-20.5,0-97,16.7-97,99.4
	c0,44.3,33.3,92.1,106.4,92.1c22.4,0,44.1-11.4,55.9-19.6c-6.1,10.8-10.2,23.5-10.2,36.9c0,11.4,2.1,23.2,6.6,34.6
	c12,30.2,36.8,49.8,68.2,53.4c2.7,0.6,6.9,0.6,9.7,0.6c2.7,0,5.3,0,7.7-0.3c32.8-3.8,57.7-23.5,69.7-53.7
	c4.4-11.1,6.5-23.2,6.5-34.3c0-13.8-4.1-26.4-10.3-37.2c11.7,8.2,33.4,19.6,56,19.6c73,0,106.4-47.8,106.4-92.1
	c0-82.7-76.5-99.4-97-99.4c-20.2,0-48.4,6.7-64.8,21.7c-6.2,5.6-12,7.9-15.8,6.2c-2.9-1.5-4.7-5.9-4.7-12.3V14.1L281,14.3z"/>
<path class="st27" d="M352.5,324.3c0,8.5-6.7,15.2-15,15.2H213c-8.4,0-15.2-6.7-15.2-15.2s6.8-15.2,15.2-15.2h124.5
	C345.8,309,352.5,315.8,352.5,324.3z"/>
</svg>
