<?xml version="1.0" encoding="utf-8"?>
<!-- Generator: Adobe Illustrator 21.1.0, SVG Export Plug-In . SVG Version: 6.00 Build 0)  -->
<svg version="1.1" id="Calque_1" xmlns="http://www.w3.org/2000/svg" xmlns:xlink="http://www.w3.org/1999/xlink" x="0px" y="0px"
	 viewBox="0 0 526 666" style="enable-background:new 0 0 526 666;" xml:space="preserve">
<style type="text/css">
	.st0{fill:#FFFFFF;}
	.st1{fill:#0084FF;}
	.st2{fill:#FF1B00;}
	.st3{fill:#010202;}
	.st4{fill:#0073FF;}
	.st5{fill:#23AF3D;}
	.st6{fill:none;stroke:#010202;stroke-width:5;}
	.st7{fill:none;stroke:#010202;stroke-width:5;stroke-linecap:round;stroke-linejoin:round;}
	.st8{fill:#040304;}
	.st9{fill:none;stroke:#040304;stroke-width:5;}
	.st10{fill:#FF1B00;stroke:#010202;stroke-width:5;}
	.st11{fill:#FFFFFF;stroke:#000000;stroke-width:4.9674;}
	.st12{fill:none;stroke:#000000;stroke-width:4;}
	.st13{fill:#0A0406;}
	.st14{fill:#1D1D1B;}
	.st15{fill:#FFE400;}
	.st16{clip-path:url(#SVGID_2_);fill:none;stroke:#010202;stroke-width:4.5066;stroke-miterlimit:10;}
	.st17{fill:#FFD730;}
	.st18{fill:#E7423F;}
	.st19{fill:#0084FF;stroke:#000000;stroke-width:4.0709;}
	.st20{fill:#FFE400;stroke:#000000;stroke-width:4.0529;}
	.st21{fill:none;stroke:#000000;stroke-width:4.1421;}
	.st22{clip-path:url(#SVGID_4_);fill:none;stroke:#010202;stroke-width:4.1565;}
	.st23{fill:none;stroke:#010202;stroke-width:4.1565;stroke-miterlimit:10;}
	.st24{fill:#FFFFFF;stroke:#000000;stroke-width:8.047;stroke-miterlimit:10;}
	.st25{fill:none;stroke:#000000;stroke-width:8.047;stroke-miterlimit:10;}
	.st26{clip-path:url(#SVGID_6_);fill:none;stroke:#000000;stroke-width:8;}
	.st27{fill:#FFFFFF;stroke:#000000;stroke-width:4.1427;stroke-linecap:square;stroke-miterlimit:10;}
	.st28{fill:#FFFFFF;stroke:#000000;stroke-width:4;}
	.st29{fill:#FF1B00;stroke:#000000;stroke-width:4;}
	.st30{fill:none;stroke:#000000;stroke-width:3.4792;stroke-miterlimit:10;}
	.st31{fill:none;stroke:#000000;stroke-width:3.9158;}
	.st32{fill:none;stroke:#000000;stroke-width:3.9158;stroke-miterlimit:10;}
	.st33{fill:none;stroke:#000000;stroke-width:3.8626;}
	.st34{fill:none;stroke:#000000;stroke-width:3.9186;}
	.st35{fill:none;stroke:#000000;stroke-width:3.9354;}
	.st36{fill:#FFD72E;}
	.st37{fill:#FFE400;stroke:#000000;stroke-width:3.2832;}
	.st38{fill:#FFFFFF;stroke:#000000;stroke-width:3.9046;}
	.st39{stroke:#000000;stroke-width:3.9046;}
	.st40{fill:#23AF3D;stroke:#000000;stroke-width:3.9046;}
	.st41{fill:#E8423F;}
	.st42{fill:none;stroke:#010202;stroke-width:3.9405;}
	.st43{fill:none;stroke:#010202;stroke-width:3.9405;stroke-miterlimit:17;}
	.st44{clip-path:url(#SVGID_8_);fill:#FFE400;}
	.st45{clip-path:url(#SVGID_10_);fill:none;stroke:#010202;stroke-width:3.9405;stroke-miterlimit:16;}
	.st46{fill:none;stroke:#010202;stroke-width:3.9405;stroke-miterlimit:9;}
	.st47{fill:none;stroke:#010202;stroke-width:3.9405;stroke-miterlimit:5;}
	.st48{fill:none;stroke:#010202;stroke-width:3.9405;stroke-miterlimit:7;}
	.st49{fill:none;stroke:#010202;stroke-width:3.9405;stroke-miterlimit:10;}
	.st50{clip-path:url(#SVGID_12_);fill:none;stroke:#010202;stroke-width:3.9405;}
	.st51{clip-path:url(#SVGID_14_);fill:none;stroke:#010202;stroke-width:4;stroke-miterlimit:7;}
	.st52{fill:none;stroke:#FFFFFF;stroke-width:7.0508;stroke-linecap:round;stroke-linejoin:round;}
	.st53{fill:none;stroke:#FFFFFF;stroke-width:3.9746;}
	.st54{fill:none;stroke:#FFFFFF;stroke-width:7.0508;stroke-linecap:round;}
	.st55{fill:#12080D;}
	.st56{fill:none;stroke:#000000;stroke-width:3.9746;}
	.st57{fill:none;stroke:#E41E2E;stroke-width:0.8122;}
	.st58{fill:none;stroke:#FFFFFF;stroke-width:2.9047;stroke-linecap:round;stroke-linejoin:round;}
	.st59{fill:none;stroke:#FFFFFF;stroke-width:2.4365;stroke-linecap:round;stroke-linejoin:round;}
	.st60{fill:#FFE400;stroke:#010202;stroke-width:3.141;}
	.st61{fill:#FFE400;stroke:#010202;stroke-width:2.9332;stroke-miterlimit:10;}
	.st62{fill:none;stroke:#010202;stroke-width:2.6714;stroke-linecap:square;stroke-miterlimit:10;}
	.st63{fill:#FFD134;stroke:#010202;stroke-width:2.9332;stroke-linecap:square;stroke-miterlimit:10;}
	.st64{fill:#FFD134;stroke:#010202;stroke-width:3.1256;stroke-miterlimit:10;}
	.st65{fill:#FF1B00;stroke:#010202;stroke-width:2.8366;}
	.st66{fill:none;stroke:#010202;stroke-width:2.9332;}
	.st67{clip-path:url(#SVGID_16_);fill:#010202;}
	.st68{fill:#FFD730;stroke:#FFFFFF;stroke-width:2.8511;stroke-miterlimit:10;}
	.st69{fill:#FF0000;}
</style>
<g>
	<path class="st0" d="M263,662c-69.2,0-134.2-26.9-183.1-75.9S4,472.1,4,403V30h518v373c0,69.2-26.9,134.2-75.9,183.1
		C397.3,635.1,332.2,662,263,662z"/>
	<path d="M518,34v369c0,34.4-6.7,67.8-20,99.3c-12.8,30.4-31.2,57.6-54.7,81.1c-23.4,23.4-50.7,41.8-81.1,54.7
		c-31.4,13.3-64.8,20-99.3,20c-34.4,0-67.8-6.7-99.3-20c-30.4-12.8-57.6-31.2-81.1-54.7c-23.4-23.4-41.8-50.7-54.7-81.1
		c-13.3-31.4-20-64.8-20-99.3V34L518,34 M526,26H0v377c0,145.3,117.7,263,263,263s263-117.7,263-263V26L526,26z"/>
</g>
<g>
	<rect x="4" y="4.2" class="st2" width="518" height="313.6"/>
	<path d="M518,8.2v305.6H8V8.2H518 M526,0.2H0v321.6h526V0.2L526,0.2z"/>
</g>
<path class="st28" d="M280.1,332.9v-306h-42v306 M238.1,47.9h-50v24.3h-16V47.9h-62v42h45v18h-45v42h62v-24h16v24h24v17h-24v24h-16
	v-24h-62v42h45v18h-45v42h62v-24h16v24h50"/>
<g id="b">
	<path id="a" class="st29" d="M129.1,430.9c-18,31-11,62,14,76s36,1,35-22c16,17,5,43-11,47c-12,3-31-1-44-8c-36-20-48-72-24-111"/>
	<path class="st29" d="M260.1,351.9h-34c-4,0-6-4-6-7v-21c0-3,2-7,6-7h34 M260.1,634.9c-37,0-67-17-81-46c-11-22-7-42-1-58
		c11-29,51-23,55,1c-15-10-33-11-36,11c-4,36,22,57,63,57 M259.1,351.9h-27c-9,0-21,7-17,21l15,51h29"/>
	<g transform="matrix(-1,0,0,1,530,0)">
		<path id="a_1_" class="st29" d="M138.6,433.4c18.8-30.5,49.5-39,73.6-23.5c24.1,15.4,17.9,31.3-2.9,41.3
			c22.5,6.1,40.3-15.9,36.3-31.9c-3-12-15.5-26.9-27.8-35c-34.6-22.3-86.2-8.4-109.2,31.2"/>
	</g>
	<path class="st29" d="M260.1,342.9h-40c-12,0-11-17,0-17h40"/>
	<g>
		<path class="st2" d="M204.1,508.1c-8.9,0-16.2-7.3-16.2-16.2s7.3-16.2,16.2-16.2s16.2,7.3,16.2,16.2S213.1,508.1,204.1,508.1z"/>
		<path d="M204.1,477.7c7.8,0,14.2,6.4,14.2,14.2s-6.4,14.2-14.2,14.2s-14.2-6.4-14.2-14.2S196.3,477.7,204.1,477.7 M204.1,473.7
			c-10.1,0-18.2,8.1-18.2,18.2s8.1,18.2,18.2,18.2s18.2-8.1,18.2-18.2S214.2,473.7,204.1,473.7L204.1,473.7z"/>
	</g>
	<g>
		<path class="st2" d="M154.1,568.1c-8.9,0-16.2-7.3-16.2-16.2s7.3-16.2,16.2-16.2s16.2,7.3,16.2,16.2S163.1,568.1,154.1,568.1z"/>
		<path d="M154.1,537.7c7.8,0,14.2,6.4,14.2,14.2s-6.4,14.2-14.2,14.2s-14.2-6.4-14.2-14.2S146.3,537.7,154.1,537.7 M154.1,533.7
			c-10.1,0-18.2,8.1-18.2,18.2s8.1,18.2,18.2,18.2s18.2-8.1,18.2-18.2S164.2,533.7,154.1,533.7L154.1,533.7z"/>
	</g>
</g>
<g id="b_1_">
	<path id="a_2_" class="st29" d="M389.1,430.9c18,31,11,62-14,76s-36,1-35-22c-16,17-5,43,11,47c12,3,31-1,44-8c36-20,48-72,24-111"
		/>
	<path class="st29" d="M258.1,351.9h34c4,0,6-4,6-7v-21c0-3-2-7-6-7h-34 M258.1,634.9c37,0,67-17,81-46c11-22,7-42,1-58
		c-11-29-51-23-55,1c15-10,33-11,36,11c4,36-22,57-63,57 M259.1,351.9h27c9,0,21,7,17,21l-15,51h-29"/>
	<g transform="matrix(.472 -.882 -.882 -.472 581 970)">
		<path id="a_3_" class="st29" d="M249.6,651.9c34.9,8.3,62.6-7.4,68.7-35.4c6.2-27.9-9.5-34.8-31.3-27.2
			c11.6-20.2,39.7-17.3,48.2-3.1c6.4,10.6,8.1,30,5.1,44.4c-8.7,40.2-55,66.9-99.3,55.2"/>
	</g>
	<path class="st29" d="M258.1,342.9h40c12,0,11-17,0-17h-40"/>
	<g>
		<path class="st2" d="M314.1,508.1c-8.9,0-16.2-7.3-16.2-16.2s7.3-16.2,16.2-16.2s16.2,7.3,16.2,16.2S323.1,508.1,314.1,508.1z"/>
		<path d="M314.1,477.7c7.8,0,14.2,6.4,14.2,14.2s-6.4,14.2-14.2,14.2c-7.8,0-14.2-6.4-14.2-14.2S306.3,477.7,314.1,477.7
			 M314.1,473.7c-10.1,0-18.2,8.1-18.2,18.2s8.1,18.2,18.2,18.2s18.2-8.1,18.2-18.2S324.2,473.7,314.1,473.7L314.1,473.7z"/>
	</g>
	<g>
		<path class="st2" d="M364.1,568.1c-8.9,0-16.2-7.3-16.2-16.2s7.3-16.2,16.2-16.2s16.2,7.3,16.2,16.2S373.1,568.1,364.1,568.1z"/>
		<path d="M364.1,537.7c7.8,0,14.2,6.4,14.2,14.2s-6.4,14.2-14.2,14.2c-7.8,0-14.2-6.4-14.2-14.2S356.3,537.7,364.1,537.7
			 M364.1,533.7c-10.1,0-18.2,8.1-18.2,18.2s8.1,18.2,18.2,18.2s18.2-8.1,18.2-18.2S374.2,533.7,364.1,533.7L364.1,533.7z"/>
	</g>
</g>
<g>
	<path class="st2" d="M259.1,405.9c-10.5,0-19-11.7-19-26s8.5-26,19-26s19,11.7,19,26S269.6,405.9,259.1,405.9z"/>
	<path d="M259.1,355.9c9.4,0,17,10.8,17,24s-7.6,24-17,24s-17-10.8-17-24S249.8,355.9,259.1,355.9 M259.1,351.9
		c-11.6,0-21,12.5-21,28s9.4,28,21,28s21-12.5,21-28C280.1,364.5,270.7,351.9,259.1,351.9L259.1,351.9z"/>
</g>
<g>
	<path class="st2" d="M259.1,457.6c-12.5,0-22.7-10.2-22.7-22.7s10.2-22.7,22.7-22.7s22.7,10.2,22.7,22.7S271.7,457.6,259.1,457.6z"
		/>
	<path d="M259.1,414.2c11.4,0,20.7,9.3,20.7,20.7s-9.3,20.7-20.7,20.7s-20.7-9.3-20.7-20.7S247.7,414.2,259.1,414.2 M259.1,410.2
		c-13.6,0-24.7,11.1-24.7,24.7s11.1,24.7,24.7,24.7s24.7-11.1,24.7-24.7S272.8,410.2,259.1,410.2L259.1,410.2z"/>
</g>
</svg>
