<?xml version="1.0" encoding="utf-8"?>
<!-- Generator: Adobe Illustrator 21.1.0, SVG Export Plug-In . SVG Version: 6.00 Build 0)  -->
<svg version="1.1" id="Calque_1" xmlns="http://www.w3.org/2000/svg" xmlns:xlink="http://www.w3.org/1999/xlink" x="0px" y="0px"
	 viewBox="0 0 551.2 669" style="enable-background:new 0 0 551.2 669;" xml:space="preserve">
<style type="text/css">
	.st0{fill:#FFFFFF;}
	.st1{fill:#0084FF;}
	.st2{fill:#FF1B00;}
	.st3{fill:#010202;}
	.st4{fill:#0073FF;}
	.st5{fill:#23AF3D;}
	.st6{fill:none;stroke:#010202;stroke-width:5;}
	.st7{fill:none;stroke:#010202;stroke-width:5;stroke-linecap:round;stroke-linejoin:round;}
	.st8{fill:#040304;}
	.st9{fill:none;stroke:#040304;stroke-width:5;}
	.st10{fill:#FF1B00;stroke:#010202;stroke-width:5;}
	.st11{fill:#FFFFFF;stroke:#000000;stroke-width:4.9674;}
	.st12{fill:none;stroke:#000000;stroke-width:4;}
	.st13{fill:#0A0406;}
	.st14{fill:#1D1D1B;}
	.st15{fill:#FFE400;}
	.st16{clip-path:url(#SVGID_2_);fill:none;stroke:#010202;stroke-width:4.5066;stroke-miterlimit:10;}
	.st17{fill:#FFD730;}
	.st18{fill:#E7423F;}
	.st19{fill:#0084FF;stroke:#000000;stroke-width:4.0709;}
	.st20{fill:#FFE400;stroke:#000000;stroke-width:4.0529;}
	.st21{fill:none;stroke:#000000;stroke-width:4.1421;}
	.st22{clip-path:url(#SVGID_4_);fill:none;stroke:#010202;stroke-width:4.1565;}
	.st23{fill:none;stroke:#010202;stroke-width:4.1565;stroke-miterlimit:10;}
	.st24{fill:#FFFFFF;stroke:#000000;stroke-width:8.047;stroke-miterlimit:10;}
	.st25{fill:none;stroke:#000000;stroke-width:8.047;stroke-miterlimit:10;}
	.st26{clip-path:url(#SVGID_6_);fill:none;stroke:#000000;stroke-width:8;}
	.st27{fill:#FFFFFF;stroke:#000000;stroke-width:4.1427;stroke-linecap:square;stroke-miterlimit:10;}
	.st28{fill:#FFFFFF;stroke:#000000;stroke-width:4;}
	.st29{fill:#FF1B00;stroke:#000000;stroke-width:4;}
	.st30{fill:none;stroke:#000000;stroke-width:3.4792;stroke-miterlimit:10;}
	.st31{fill:none;stroke:#000000;stroke-width:3.9158;}
	.st32{fill:none;stroke:#000000;stroke-width:3.9158;stroke-miterlimit:10;}
	.st33{fill:none;stroke:#000000;stroke-width:3.8626;}
	.st34{fill:none;stroke:#000000;stroke-width:3.9186;}
	.st35{fill:none;stroke:#000000;stroke-width:3.9354;}
	.st36{fill:#FFD72E;}
	.st37{fill:#FFE400;stroke:#000000;stroke-width:3.2832;}
	.st38{fill:#FFFFFF;stroke:#000000;stroke-width:3.9046;}
	.st39{stroke:#000000;stroke-width:3.9046;}
	.st40{fill:#23AF3D;stroke:#000000;stroke-width:3.9046;}
	.st41{fill:#E8423F;}
	.st42{fill:none;stroke:#010202;stroke-width:3.9405;}
	.st43{fill:none;stroke:#010202;stroke-width:3.9405;stroke-miterlimit:17;}
	.st44{clip-path:url(#SVGID_8_);fill:#FFE400;}
	.st45{clip-path:url(#SVGID_10_);fill:none;stroke:#010202;stroke-width:3.9405;stroke-miterlimit:16;}
	.st46{fill:none;stroke:#010202;stroke-width:3.9405;stroke-miterlimit:9;}
	.st47{fill:none;stroke:#010202;stroke-width:3.9405;stroke-miterlimit:5;}
	.st48{fill:none;stroke:#010202;stroke-width:3.9405;stroke-miterlimit:7;}
	.st49{fill:none;stroke:#010202;stroke-width:3.9405;stroke-miterlimit:10;}
	.st50{clip-path:url(#SVGID_12_);fill:none;stroke:#010202;stroke-width:3.9405;}
	.st51{clip-path:url(#SVGID_14_);fill:none;stroke:#010202;stroke-width:4;stroke-miterlimit:7;}
	.st52{fill:none;stroke:#FFFFFF;stroke-width:7.0508;stroke-linecap:round;stroke-linejoin:round;}
	.st53{fill:none;stroke:#FFFFFF;stroke-width:3.9746;}
	.st54{fill:none;stroke:#FFFFFF;stroke-width:7.0508;stroke-linecap:round;}
	.st55{fill:#12080D;}
	.st56{fill:none;stroke:#000000;stroke-width:3.9746;}
	.st57{fill:none;stroke:#E41E2E;stroke-width:0.8122;}
	.st58{fill:none;stroke:#FFFFFF;stroke-width:2.9047;stroke-linecap:round;stroke-linejoin:round;}
	.st59{fill:none;stroke:#FFFFFF;stroke-width:2.4365;stroke-linecap:round;stroke-linejoin:round;}
	.st60{fill:#FFE400;stroke:#010202;stroke-width:3.141;}
	.st61{fill:#FFE400;stroke:#010202;stroke-width:2.9332;stroke-miterlimit:10;}
	.st62{fill:none;stroke:#010202;stroke-width:2.6714;stroke-linecap:square;stroke-miterlimit:10;}
	.st63{fill:#FFD134;stroke:#010202;stroke-width:2.9332;stroke-linecap:square;stroke-miterlimit:10;}
	.st64{fill:#FFD134;stroke:#010202;stroke-width:3.1256;stroke-miterlimit:10;}
	.st65{fill:#FF1B00;stroke:#010202;stroke-width:2.8366;}
	.st66{fill:none;stroke:#010202;stroke-width:2.9332;}
	.st67{clip-path:url(#SVGID_16_);fill:#010202;}
	.st68{fill:#FFD730;stroke:#FFFFFF;stroke-width:2.8511;stroke-miterlimit:10;}
	.st69{fill:#FF0000;}
</style>
<g>
	<path class="st2" d="M275.6,665c-72.6,0-140.8-27-192.1-76.1C32.3,539.9,4,474.7,4,405.3V4h543.1v401.3
		c0,69.3-28.2,134.5-79.5,183.6C416.4,638,348.2,665,275.6,665z"/>
	<path class="st14" d="M543.2,8v397.3c0,34.5-7.1,67.9-21,99.4c-13.5,30.4-32.7,57.8-57.3,81.3c-24.6,23.5-53.2,42-85.1,54.9
		c-33,13.4-68.1,20.1-104.3,20.1c-36.2,0-71.2-6.8-104.3-20.1c-31.9-12.9-60.5-31.4-85.1-54.9c-24.5-23.5-43.8-50.8-57.3-81.3
		c-13.9-31.5-21-64.9-21-99.4V8h267.4L543.2,8 M551.2,0H275.4H0v405.3C0,550.9,123.4,669,275.5,669c152.2,0,275.6-118.1,275.6-263.7
		V0H551.2z"/>
</g>
<path class="st15" d="M391.7,84c0,37.1-32.9,67.2-73.6,67.2c-40.6,0-73.6-30.1-73.6-67.2c0-37.1,32.9-67.2,73.6-67.2
	S391.7,46.9,391.7,84"/>
<g>
	<g>
		<g>
			<g>
				<g>
					<g>
						<defs>
							<rect id="SVGID_1_" width="551.8" height="669"/>
						</defs>
						<clipPath id="SVGID_2_">
							<use xlink:href="#SVGID_1_"  style="overflow:visible;"/>
						</clipPath>
						<path class="st16" d="M318.2,16.8c40.6,0,73.6,30.1,73.6,67.2s-32.9,67.2-73.6,67.2c-40.6,0-73.6-30.1-73.6-67.2
							S277.5,16.8,318.2,16.8z"/>
					</g>
				</g>
			</g>
		</g>
	</g>
</g>
<polygon class="st3" points="63.9,43.7 133.8,608 154.5,605.7 89.7,40.8 "/>
<path class="st15" d="M69.1,47.8c0.1,0.8,68.6,554.2,68.7,555c0.7-0.1,10.7-1.2,11.5-1.3c-0.1-0.9-63.6-554.7-63.7-555.6
	C84.8,46.1,69.9,47.7,69.1,47.8"/>
<path class="st3" d="M73.7,22.3L73.7,22.3C60.4,24,50.5,33,51.7,42.5s13,15.8,26.3,14.1c7.8-1,14.8-4.6,18.8-9.7
	c2.5-3.3,3.6-6.9,3.2-10.5C98.8,26.9,87,20.6,73.7,22.3"/>
<path class="st17" d="M74.3,27c-10.2,1.3-17.9,7.4-17.9,13.9c0,0.3,0,0.7,0.1,1c0.9,6.9,10.3,11.4,21.1,10
	c6.6-0.8,12.5-3.8,15.6-7.9c1.7-2.3,2.5-4.7,2.2-7.1C94.4,30.1,85,25.6,74.3,27"/>
<path class="st3" d="M91.8,165.9L91.8,165.9c-12.8,1.7-22.3,10.4-21.1,19.5c1.2,9.1,12.6,15.2,25.4,13.6
	c12.8-1.6,22.3-10.4,21.1-19.5C116.1,170.4,104.7,164.3,91.8,165.9"/>
<path class="st15" d="M92.4,170.6c-9.7,1.2-17.1,7.1-17.1,13.3c0,0.3,0,0.7,0.1,1c0.8,6.5,9.9,10.8,20.1,9.5s17.9-7.7,17-14.3
	C111.7,173.5,102.7,169.3,92.4,170.6"/>
<path class="st3" d="M146.1,220.4c55.6-4.8,122.6-24.2,152.5-96.6c29.4,0,37.7-2,37.7-2s10.8,14.3,62.5,41.5
	c9.8,5.1,39.6,112.1,39.6,112.1s5.5,21.2-9.9,22.9c-15.4,1.7-43.4,0.6-43.4,0.6s36,283.3,36.2,285.8c-2,0.6-14.3,7.1-28.3,14.4
	c-13.9,7.2-29.5,15.3-38.8,17.6c-0.6,0.2-7.4,1.8-10.6-4.4c-3.1-6.2,1.2-10.9,1.2-10.9l30.2-26.7c0,0,0.8-1.5,0.8-2.5
	c-0.1-1.1-1.4-1.5-1.4-1.5l-49.4-0.4l-46.5-239.7l-5.5,1.2L318.1,571l-96.6,0.1L247,257.7l-98-0.3
	C149.3,257.4,146.4,223.3,146.1,220.4"/>
<polygon class="st0" points="335.7,151.1 339.3,123.7 330.7,142.5 305.1,142.5 297.9,125.2 301.1,151.1 "/>
<rect x="297.1" y="212.7" class="st15" width="64.9" height="43.6"/>
<rect x="284.5" y="212.7" class="st15" width="9.7" height="43.6"/>
<rect x="275.9" y="212.7" class="st15" width="6.1" height="43.6"/>
<path class="st3" d="M365.8,84c0,25.3-22,45.7-49.1,45.7s-49.1-20.5-49.1-45.7c0-25.3,22-45.7,49.1-45.7S365.8,58.7,365.8,84"/>
<path class="st0" d="M315.6,63.8c11.3,0.2,31-3.9,27,20.1c-0.8,5,0,11.6,0,11.6s0.7,7.7-0.2,12.8c-1.7,15.4-5.2,18.3-22.9,19
	c-20.8,0.7-20.4-1.3-23.8-9.8C288,94,291.2,76,291.2,76S293.1,63.4,315.6,63.8"/>
<path class="st3" d="M257.2,575.8c0,0-23.1,0-36.1-0.1c-8.7,12.2-35.1,8.6-42.2,9c-6.2,0.4-10.4,4.4-10.4,10.8
	c0,6.5,5.4,10.9,11.1,10.9h66.3c8.1,0,10.5-7.3,10.5-7.3L257.2,575.8z"/>
<path class="st0" d="M328.3,290.2l-4-30.9l-21.4,0.1h-20c-0.8,0-1.6,0.9-1.6,1.9c0,1.1,0.7,2,1.6,2h15.9c0,0,0.4,2.8-0.8,2.8
	c0,0-17.5,0.3-18.3,0.3s-5.8-4.4-5.8-4.4c-0.3-0.3-0.4-0.4-0.5-0.6c-0.2-0.3-0.3-0.8-0.3-0.8c0-0.9-0.3-1.7-1.3-1.8
	s-1.8,0.6-1.9,1.5c-0.2,2,0.1,2.2,0.2,2.4s0.3,0.6,6.4,6.6c0.3,0.4,1,0.7,1.5,0.7l16-0.1l0.1,3h-16.2c-0.9,0-1.6,0.9-1.6,2
	s0.7,1.9,1.6,1.9h16.4l0.1,2.8h-15.8c-0.9,0-1.6,0.9-1.6,1.9c0,1.1,0.7,1.9,1.6,1.9h16l0.1,2.9h-15.1c-0.9,0-1.6,0.9-1.6,1.9
	c0,1.1,0.7,2,1.6,2h20.3c0.1,0,0.1-0.1,0.2-0.1L328.3,290.2L328.3,290.2z"/>
<path class="st3" d="M80.6,222.4c0,2.5,1.7,6.5,6.7,6.5H106v28.8l78.2-0.3l-3.6-37.9l-100-0.1C80.6,219.4,80.6,222.4,80.6,222.4z"/>
<path class="st0" d="M147.1,254.4l-3-32l-60.4-0.1c0,1.2,0.8,3.5,3.7,3.5h21.7v28.6H147.1z"/>
<path class="st3" d="M89.1,226c-2.7,0-5,2.3-5,5.2s2.2,5.2,5,5.2H108c2.8,0,5-2.3,5-5.2s-2.2-5.2-5-5.2H89.1z"/>
<path class="st0" d="M89.1,228.9c-1.1,0-2,1-2,2.3c0,1.2,0.9,2.2,2,2.2H108c1.1,0,2-1,2-2.2c0-1.3-0.9-2.3-2-2.3H89.1z"/>
<path class="st3" d="M90.5,234c-2.7,0-4.9,2.3-4.9,5.2c0,2.8,2.2,5.2,4.9,5.2h18.3c2.7,0,4.9-2.3,4.9-5.2s-2.2-5.2-4.9-5.2H90.5z"/>
<path class="st0" d="M90.5,237c-1.1,0-2,1-2,2.2s0.9,2.2,2,2.2h18.3c1.1,0,2-1,2-2.2s-0.9-2.2-2-2.2H90.5z"/>
<path class="st3" d="M91.1,241.9c-2.7,0-4.9,2.1-4.9,4.8c0,2.6,2.1,4.8,4.9,4.8h18.5c2.7,0,4.9-2.2,4.9-4.8s-2.2-4.8-4.9-4.8H91.1z"
	/>
<path class="st0" d="M91.1,244.9c-1.1,0-2,0.8-2,1.8s0.9,1.8,2,1.8h18.5c1.1,0,2-0.8,2-1.8s-0.9-1.8-2-1.8H91.1z"/>
<path class="st3" d="M92.3,248.7c-2.7,0-4.8,2-4.8,4.5s2.2,4.6,4.8,4.6h17.5c2.7,0,4.8-2.1,4.8-4.6s-2.2-4.5-4.8-4.5H92.3
	L92.3,248.7z"/>
<path class="st0" d="M92.3,251.6c-1,0-1.9,0.7-1.9,1.6c0,0.9,0.8,1.6,1.9,1.6h17.5c1.1,0,1.9-0.7,1.9-1.6c0-0.8-0.8-1.6-1.9-1.6
	H92.3z"/>
<path class="st3" d="M303.8,90.8c0,1.7-1.4,3-3,3s-3-1.3-3-3c0-1.6,1.3-3,3-3S303.8,89.2,303.8,90.8"/>
<path class="st3" d="M330.9,90.8c0,1.7-1.3,3-3,3c-1.6,0-3-1.3-3-3c0-1.6,1.4-3,3-3C329.6,87.8,330.9,89.2,330.9,90.8"/>
<path class="st3" d="M319.9,80.9c-0.6,0.5-0.7,1.5-0.2,2.1s2.4,1.2,3,0.7c0.2-0.1,5.2-2.9,6.5-2.7c2.2,0.4,5,1.2,8.1,2.8
	c0.7,0.4,1.6,0.3,2.1-0.3c0.5-0.7,0.1-2-0.6-2.5C328.8,73.7,320,80.8,319.9,80.9"/>
<path class="st3" d="M296.8,80.7c-0.8,0.3-1.1,1.2-0.8,2c0.3,0.8,1.8,1.4,2.5,1c1.6-0.7,5.8-2.4,8.3-0.6c1.5,1.1,2.1,3.3,1.9,6.5
	c-1,13.6-0.9,17.5-0.9,17.7c0,0.8,0.6,1.4,1.4,1.5l12.3,0.5c0.8,0,0.9-3,0.1-3c0,0-8.5,0.3-10.7,0.2c0.1-2.1,0.2-7.4,0.8-16.5
	c0-0.5,0-1,0-1.4c0-3.6,0.4-6.2-1.7-7.8C305.4,77.2,297,80.6,296.8,80.7"/>
<path class="st3" d="M309.3,115.5c-1.2,0-2.2,1-2.2,2.2s1,2.3,2.2,2.3h13.6c1.3,0,2.3-1,2.3-2.3c0-1.2-1-2.2-2.3-2.2H309.3z"/>
</svg>
