<?xml version="1.0" encoding="utf-8"?>
<!-- Generator: Adobe Illustrator 21.1.0, SVG Export Plug-In . SVG Version: 6.00 Build 0)  -->
<svg version="1.1" id="Calque_1" xmlns="http://www.w3.org/2000/svg" xmlns:xlink="http://www.w3.org/1999/xlink" x="0px" y="0px"
	 viewBox="0 0 525.5 665.6" style="enable-background:new 0 0 525.5 665.6;" xml:space="preserve">
<style type="text/css">
	.st0{fill:#FFFFFF;}
	.st1{fill:#0084FF;}
	.st2{fill:#FF1B00;}
	.st3{fill:#010202;}
	.st4{fill:#0073FF;}
	.st5{fill:#23AF3D;}
	.st6{fill:none;stroke:#010202;stroke-width:5;}
	.st7{fill:none;stroke:#010202;stroke-width:5;stroke-linecap:round;stroke-linejoin:round;}
	.st8{fill:#040304;}
	.st9{fill:none;stroke:#040304;stroke-width:5;}
	.st10{fill:#FF1B00;stroke:#010202;stroke-width:5;}
	.st11{fill:#FFFFFF;stroke:#000000;stroke-width:4.9674;}
	.st12{fill:none;stroke:#000000;stroke-width:4;}
	.st13{fill:#0A0406;}
	.st14{fill:#1D1D1B;}
	.st15{fill:#FFE400;}
	.st16{clip-path:url(#SVGID_2_);fill:none;stroke:#010202;stroke-width:4.5066;stroke-miterlimit:10;}
	.st17{fill:#FFD730;}
	.st18{fill:#E7423F;}
	.st19{fill:#0084FF;stroke:#000000;stroke-width:4.0709;}
	.st20{fill:#FFE400;stroke:#000000;stroke-width:4.0529;}
	.st21{fill:none;stroke:#000000;stroke-width:4.1421;}
	.st22{clip-path:url(#SVGID_4_);fill:none;stroke:#010202;stroke-width:4.1565;}
	.st23{fill:none;stroke:#010202;stroke-width:4.1565;stroke-miterlimit:10;}
	.st24{fill:#FFFFFF;stroke:#000000;stroke-width:8.047;stroke-miterlimit:10;}
	.st25{fill:none;stroke:#000000;stroke-width:8.047;stroke-miterlimit:10;}
	.st26{clip-path:url(#SVGID_6_);fill:none;stroke:#000000;stroke-width:8;}
	.st27{fill:#FFFFFF;stroke:#000000;stroke-width:4.1427;stroke-linecap:square;stroke-miterlimit:10;}
	.st28{fill:#FFFFFF;stroke:#000000;stroke-width:4;}
	.st29{fill:#FF1B00;stroke:#000000;stroke-width:4;}
	.st30{fill:none;stroke:#000000;stroke-width:3.4792;stroke-miterlimit:10;}
	.st31{fill:none;stroke:#000000;stroke-width:3.9158;}
	.st32{fill:none;stroke:#000000;stroke-width:3.9158;stroke-miterlimit:10;}
	.st33{fill:none;stroke:#000000;stroke-width:3.8626;}
	.st34{fill:none;stroke:#000000;stroke-width:3.9186;}
	.st35{fill:none;stroke:#000000;stroke-width:3.9354;}
	.st36{fill:#FFD72E;}
	.st37{fill:#FFE400;stroke:#000000;stroke-width:3.2832;}
	.st38{fill:#FFFFFF;stroke:#000000;stroke-width:3.9046;}
	.st39{stroke:#000000;stroke-width:3.9046;}
	.st40{fill:#23AF3D;stroke:#000000;stroke-width:3.9046;}
	.st41{fill:#E8423F;}
	.st42{fill:none;stroke:#010202;stroke-width:3.9405;}
	.st43{fill:none;stroke:#010202;stroke-width:3.9405;stroke-miterlimit:17;}
	.st44{clip-path:url(#SVGID_8_);fill:#FFE400;}
	.st45{clip-path:url(#SVGID_10_);fill:none;stroke:#010202;stroke-width:3.9405;stroke-miterlimit:16;}
	.st46{fill:none;stroke:#010202;stroke-width:3.9405;stroke-miterlimit:9;}
	.st47{fill:none;stroke:#010202;stroke-width:3.9405;stroke-miterlimit:5;}
	.st48{fill:none;stroke:#010202;stroke-width:3.9405;stroke-miterlimit:7;}
	.st49{fill:none;stroke:#010202;stroke-width:3.9405;stroke-miterlimit:10;}
	.st50{clip-path:url(#SVGID_12_);fill:none;stroke:#010202;stroke-width:3.9405;}
	.st51{clip-path:url(#SVGID_14_);fill:none;stroke:#010202;stroke-width:4;stroke-miterlimit:7;}
	.st52{fill:none;stroke:#FFFFFF;stroke-width:7.0508;stroke-linecap:round;stroke-linejoin:round;}
	.st53{fill:none;stroke:#FFFFFF;stroke-width:3.9746;}
	.st54{fill:none;stroke:#FFFFFF;stroke-width:7.0508;stroke-linecap:round;}
	.st55{fill:#12080D;}
	.st56{fill:none;stroke:#000000;stroke-width:3.9746;}
	.st57{fill:none;stroke:#E41E2E;stroke-width:0.8122;}
	.st58{fill:none;stroke:#FFFFFF;stroke-width:2.9047;stroke-linecap:round;stroke-linejoin:round;}
	.st59{fill:none;stroke:#FFFFFF;stroke-width:2.4365;stroke-linecap:round;stroke-linejoin:round;}
	.st60{fill:#FFE400;stroke:#010202;stroke-width:3.141;}
	.st61{fill:#FFE400;stroke:#010202;stroke-width:2.9332;stroke-miterlimit:10;}
	.st62{fill:none;stroke:#010202;stroke-width:2.6714;stroke-linecap:square;stroke-miterlimit:10;}
	.st63{fill:#FFD134;stroke:#010202;stroke-width:2.9332;stroke-linecap:square;stroke-miterlimit:10;}
	.st64{fill:#FFD134;stroke:#010202;stroke-width:3.1256;stroke-miterlimit:10;}
	.st65{fill:#FF1B00;stroke:#010202;stroke-width:2.8366;}
	.st66{fill:none;stroke:#010202;stroke-width:2.9332;}
	.st67{clip-path:url(#SVGID_16_);fill:#010202;}
	.st68{fill:#FFD730;stroke:#FFFFFF;stroke-width:2.8511;stroke-miterlimit:10;}
	.st69{fill:#FF0000;}
</style>
<path class="st15" d="M262.6,0h262.9v410.3c0,138.9-117.6,251.5-262.7,251.5C117.7,661.8,0,549.2,0,410.3V0H262.6L262.6,0z"/>
<path d="M496.6,269.4c-4.7-8.7-39.4-43.5-82.9-67.2c-19.1-10.4-78.3-42.3-126.8-51.1c-5.2-0.9-9.8-3.3-15.1-2
	c-2.2,0.5-5.5-2.7-1.7-4.8c2.1-1.2,4.2-2.2,14.9-2c-9.1-6.4-12.2-5.4-26.7-5.1c3.1-5.9,20-5.9,20-5.9s-7.8-4.8-31-3.1
	c4.7-3.9,13.8-5.7,13.8-5.7s-12.7-5.2-27.3,1.5c-1.2,0.5-2.6,1.6-5.4,1.8s-9.9-0.8-11.1-1.1c-1.1-0.3-5.6-1-5.1-5.1s3.9-4.2,4.8-4.2
	c0.9-0.1,11.3,0.6,14.1-4.4c1.8-3.5,5.3-16.8-4.1-20.7c-13.5-5.5-20.4-1-22.4-0.5s-4.8-1.6-4.8-1.6S189.4,77.6,186,75
	c-3.4-2.6-13.2-7-20.6-8.3c-1.6-0.3-4.6-1.1-5-1.5c-1.6-1.4-7.2-2.2-9.2-2c-2.5,0.2-7.9-0.6-10.7,3.7c-1.8,2.7-3.3,2.8-7,3.5
	c-3.7,0.6-13.4,0.1-13.4,0.1s-12.5-0.1-16.6-2.8c-1.9-1.3-7.7-6.6-9.3-8.4c-1.6-1.9-4-0.7-3.8,0c0.9,3.5,0.2,9.9-3.6,14.1
	c-4.3,4.8-9.1,9.1-10,10.2c-0.8,1-2.3,6,0.7,8c3,1.9,5.3,3.3,5.3,3.3s-1.9,12.4-1.6,16.2c-2.8-1.2-7.7-3.8-10.7-6.2
	c-19.4-15.5-21-32.9-25-33.7c-4-0.6-9.5,19.8,1.6,33.8c12.8,16.3,37.2,20,37.2,20s-4,5-3.6,12.1c-4.3,2.1-4.8,3.6-4.8,3.6
	s-0.4,2.7,2.4,4.9c75.5-1.7,130.1,70.2,117.5,152.9c-1.8,12-10.8,42-14.5,50.8c-3.7,8.7-4.7,22.9-4.7,22.9s-1.2,4.4-3.4,4.1
	c-2.1-0.3-2.3-2-2.2-3.2c0.4-1.6-1.1-8.1-0.5-12.2c0.6-4-1.7-7-1.7-7s5.9-12.9-9.2-24.1c2.7,14.6-2.1,17.9-2.1,17.9
	s-6.2-19.6-25.8-18.9c8.4,7.2,9.7,17.7,10.1,18.4c-2.4-4.7-21.9-17.6-33.2-0.1c19.2,1.2,22.4,8.4,22.4,8.4s-22.9-8.4-32.7,13.5
	c10.9-2.8,22.3-0.6,22.3-0.6s-13.6,3.1-13.7,15c7.5-3.7,19.1-1.2,19.1-1.2s-0.4,0-0.2,1.2c1.8,0.5,10.2,13.2,17.3,16.6
	c7,3.3,46.9,5.8,63.9-2.1c4.3-2,4.6-1.2,6.2-6.6c5.3-17.6,26.2-65.7,41-95.1c9.9-19.8,19-33.5,19-34.7c0.1-2.5-12.1-16.1-13.5-17.7
	c-1.4-1.6,1.2-2.5,1.2-2.5s9.2,2.2,13,7.6c3.8,5.4,4.5,6.4,3.7,9.2c-0.8,2.9-7.7,23.6-7.7,23.6s106.5,8.6,107.2,12.1
	c0.7,3.6-33.3,6.7-42.2,8.6c-15.3,3.3-29.6,21.5-28.2,26.6c6.2,21.5,8.4,75.5,9,79.6c0.5,4.1,5.9,6.1,8,6.2s13.1,0.2,14.2,1.9
	c1,1.7-0.5,2.4-0.5,2.4s-2.5,1.8-6.9,1.4s-30-7.5-34.1-12.1c-4.1-4.7-6.2-7-6.2-7s2.5-20.8-17.5-18.5c7.1,10.1,1.7,14.5,1.7,14.5
	s-8-15.4-32.8-7.9c16.7,6.4,17.2,11.2,17.2,11.2s-13.8-6.2-27.8,6.9c18.6,0.2,21.1,7.4,21.1,7.4s-20.9-4.3-25.2,18
	c14.9-9.2,23-3.3,23-3.3s-23.1,7.2-16.7,27.5c9.1-9,20.5-11.2,20.5-11.2l0.3,0.9c0,0,5.5,2.3,10.4,2.4s6.2-0.7,5.5-3.5
	c-0.7-2.7,0.4-5.9,0.5-6.9s1.8-1.3,1.8-1.3s1.1-0.3,1.5,1.4c0.8,3.6-1.8,6.6,1.6,10.6c3.5,4.1,9,3.2,10.7,3.8
	c1.7,0.6,11.2,2.5,11.2,2.5s26.7,4.7,35.2,1.1c5.9-2.6,23.5-13.9,28.3-21.7c2.3-3.8,3.3-8.7,3.9-14.1c2-20.6,7.3-45.3,22.2-57
	c1.2-0.9,3.6-1.6,4.8-2.4c1.5-0.9,2.7-1.2,3.3-2.6c0.4-3.3-5.2-45.3-6-56.9c-1.5-21-17.2-37.3-17.2-37.3s0-1.4,1.7-1.7
	c1.7-0.4,4.5,0.3,4.5,0.3s9.9-0.5,17.3,38.3c7.3,38.8,8,69.8,15.7,84.4c2.4,4.5,13.2,21.9,21.9,39c7.2,14.1,9.3,24.1,12.3,29.8
	c6.4,12.8,0.3,28.7-2.3,30.5s-2.7,0.1-3.7-0.4c-0.9-0.5,0.3-6.8,0.3-6.8s2.5-3-0.9-8.3c-3.5-5.4-19.1-9.2-19.1-9.2s-2.3-1.6-3.8-2.5
	c1.6-15.6-24.6-17.1-24.6-17.1s7.6,10.7,6.5,21c-18.8-13.8-34,0-34,0s14.2,2.5,20.6,13.7c-25-6.4-27.6,12.1-27.6,12.1
	s10.2-4.6,20.9,3.7c-23.5,1.7-19.8,20.3-19.8,20.3s6.1-8,24.3-2c-0.4,0.5-15,11.4-5.9,29.1c2.1-4.6,7.6-12,14.1-14.7
	c0.6,0.8,0.7,0.7,1,1c0,0,14.5-6.2,21.9-6.4s13.4-0.6,23-1.6s15.1-5.5,19.6-8c4.5-2.6,22.1-25.2,26.6-29.1s5.6-10.6,5.6-10.6
	s2.9-9.4,4.7-31.2c1.7-21.8,2.9-51.7,2.5-70.7c-0.6-25.9-16.2-84.4-16.2-84.4s-0.1-1.9,1.4-2.5c1.5-0.5,1.4,0,3.3,3.1
	c1.9,3,5.7,19.7,8.8,22c1.2,0.9,1,4.5,5.8,2.7c1.5-0.5,3.7-10,4.5-15.2C503.6,288.3,501.3,278.1,496.6,269.4 M95.9,99.6
	c0.5,0.2,1.2,0.5,1.2,0.5s-1.3,11.1,0.4,16.1c-6.9-2.6-12.4-4.6-12.4-4.6S91.5,101.5,95.9,99.6 M96.2,137.1c-0.3,0-1.1-0.1-2.2-0.2
	c-5-4.2-5.5-11.4-5.5-11.4s11.2,2.7,13.1,3.6C100.7,131.5,96.7,134.5,96.2,137.1 M109.9,139.3c-1.4-0.5-4.6-3.3-4.7-5.2
	c-0.1-2.6-0.7-4.2-0.7-4.2s16.4,4.5,21.1,12.6C119,141,111.3,139.8,109.9,139.3 M99.1,116.9c0,0,5.4-8.5,10-10.7
	c15.5,8,22.8,22,25.4,31.8C126,127.2,99.1,116.9,99.1,116.9"/>
<path d="M99.7,260.4c19.8-5.8,40.3-27.9,54.7-42.3c8.1-8.1,14.1-12.4,15.7-13.7c2.4,1.9,12.9,19.2,17.9,35.9
	c3.9,12.9,3.6,26.2,3.4,30.1c-0.6,11.7-8.3,14-8.3,14s-46.9,15.4-55,15.2c-3.8-0.1-32.4,6.8-40.7,5.9C65.5,303.4,60.2,293,60.2,293
	l-10.9-18.9c0,0-1.4-4.5,2.7-3.1c4,1.4,4.6,1.5,8.1,2.5c3.6,1,0.7-2.6,0.7-2.6s-3.6-2-6.7-3.4c-10.1-4.4-11.2-19.2-11.2-19.2
	s-0.5-12.2,0-21.1c0.5-9-20.2-8.3-20.2-8.3s8-16.4,32.3-6.9c0.2-8.8-21.1-15.4-21.1-15.4s13.1-13.9,37.2,5.5
	c1.3-14.1-11-25.3-11-25.3s19.3-3.5,27.2,23.4c8.2-6.6,3.2-24.6,3.2-24.6s18.7,10.3,12.8,29.4c9.7-1.7,13.4-14.4,13.4-14.4
	s7.5,13.2-4.7,26.2c-4.6,4.8-5.6,3.5-5.6,3.5s-19.4,25.3-7,57.4c1.6,4.1,4.3,1,4.7-0.8C104.4,275,103.4,268.2,99.7,260.4"/>
<path d="M187.6,71.7c0,0,14.3,12.8,15.5,14.5c1.2,1.4,9.8-3.3,14.2-2.3c2.7,0.6-1.5-7.7-3.1-10.1c-1.7-2.4-7.4-8.4-14.3-7.3
	C194,67.5,187.6,71.7,187.6,71.7"/>
<path class="st2" d="M126.5,138.6c-7.3-8.8-23-12.4-41.2-17.1c-13.2-3.4-27.4-9.1-34.5-19.2C47,97,45.3,91.1,45,85.9
	c-0.2-3.9,0.4-7.3,1.1-9.6c0.4,0.7,0.7,1.5,1,2.1c3.2,6.8,8.4,18.3,21.7,28.6c6.3,4.8,17.7,8.2,28.6,12.4
	c11.8,4,24.5,10.1,32.2,17.9c0,0,4.8,5.4,5.3,7.2c-1.1-0.2-2.8-0.6-5-1C129.2,141.7,126.5,138.6,126.5,138.6"/>
<path class="st57" d="M126.5,138.6c-7.3-8.8-23-12.4-41.2-17.1c-13.2-3.4-27.4-9.1-34.5-19.2C47,97,45.3,91.1,45,85.9
	c-0.2-3.9,0.4-7.3,1.1-9.6c0.4,0.7,0.7,1.5,1,2.1c3.2,6.8,8.4,18.3,21.7,28.6c6.3,4.8,17.7,8.2,28.6,12.4
	c11.8,4,24.5,10.1,32.2,17.9c0,0,4.8,5.4,5.3,7.2c-1.1-0.2-2.8-0.6-5-1C129.2,141.7,126.5,138.6,126.5,138.6z"/>
<path class="st0" d="M68.1,122.3c2,0,4.5-0.3,6.5,0c-2.8-2-4-9.7-4-9.7S67.8,116.9,68.1,122.3"/>
<path class="st0" d="M83.7,123.4c1.9,0.1,3.4,0.6,6.6,1.1c-2.9-1.9-1.7-5.6-2.8-7.1C85.5,120.6,84.2,121,83.7,123.4"/>
<path class="st0" d="M99.4,112.2c2.9-4.6,6.9-7.4,7-7.4c-1.4-0.6-7-3.5-7-3.5S99,111.9,99.4,112.2"/>
<path class="st0" d="M84.4,108.2c0,0,6.1-8.4,8.8-9.7c-4.2-1.2-5.9-2.2-7.3-3C84.7,102,84.4,108.2,84.4,108.2"/>
<path class="st2" d="M365.3,311c0,0,16.6-2.4,25.8,5.4c-0.1-1.6-1.2-10.2-1.2-10.2S373.7,300.4,365.3,311z"/>
<path class="st0" d="M153.1,71.5c0,0,4.5,0.4,6.1,4.8c1.6,4.3,2.3,10.5-1,23.5c-0.3,1.2-2.7,0.9-2.7-0.5s1.5-8,1.8-11.7
	c0.4-3.7-0.1-8.3-1.4-9.5c-1-0.9-2.9-1.6-3.4-1.7s-2.7-0.5-2.2-2.7C151,71.5,153.1,71.5,153.1,71.5"/>
<path class="st0" d="M154.2,84.3c2.3-0.6,1.3-2.9-1.6-3.9c-2.7-1-9.1,0.6-11.1,6.6c-1.8,5.5,7,10,8.9,9.9c3.1-0.1,3.9-4.3,2.1-5.1
	c-1.8-0.9-4.8-1.2-4.5-3.6C148.1,85.6,151.9,84.9,154.2,84.3"/>
<path class="st2" d="M104.8,208.6c0,0,5.2,0.2,10.4-7.6c-0.5,7-5.9,12.9-5.9,12.9L104.8,208.6z"/>
<path class="st2" d="M31.2,215.8c7.6-6.1,22.8,0,22.8,0l-7.8,6.8C46.2,222.5,43,215.7,31.2,215.8"/>
<path class="st2" d="M43.4,196.4c11-3.5,26.3,9.9,26.3,9.9s-8.1,4.2-10.5,5.4C59.3,210.7,58,201,43.4,196.4"/>
<path class="st2" d="M68.4,181.4c10.8,3.7,15,21.4,15,21.4l-8.6,1.7C74.8,204.6,77.2,193.3,68.4,181.4"/>
<path class="st2" d="M90.7,202.9c4-4.2,6.7-10.8,4.9-18.6c2.8,2.6,6.4,13.4,3.3,21.1C97.7,204.8,96.1,203.1,90.7,202.9"/>
<path class="st2" d="M166.3,351.2c-1.5-0.9-3.8-1.4-5.4-1.4c4.5-4.3,3.5-10.8,3.5-10.8S168.6,345.8,166.3,351.2"/>
<path class="st2" d="M154.8,349.9c-4.3,0.4-7.2,1.4-8,1.8c-0.6-12.3-4.9-17.8-4.9-17.8S151.8,339.6,154.8,349.9"/>
<path class="st2" d="M142.8,353.2c-2.2,1.6-1.7,0.9-5.2,3.5c-4-6.6-8.4-12.1-22.5-12.4C125.9,336.6,139.6,345.8,142.8,353.2"/>
<path class="st2" d="M106.8,363.7c3.9-7.5,20-7.9,27.9-3.6c-2.4,2.8-2.9,4.1-3.8,7.2C123.6,362.8,110.6,363.2,106.8,363.7"/>
<path class="st2" d="M112.9,377.7c5.3-7.1,16.2-7.1,16.4-6.9c-0.4,0.5-2.2,6.3-2.2,7.1C126.6,377.6,120.6,376,112.9,377.7"/>
<path class="st2" d="M286.8,400.2c-2.5-0.5-5.7-1.2-8-1.6c0.9-0.9,3.5-7.8,0.4-12.9C281.5,386.3,286.7,388.2,286.8,400.2"/>
<path class="st2" d="M264.1,401c3-1.9,5-2.1,7.4-2c-2.7-6.7-16.1-9.3-18.5-8.6C254.6,391,263.7,395.5,264.1,401"/>
<path class="st2" d="M241.1,404.7c9-4.3,17.4-1.1,18-0.6c-1,0.9-3.7,3.8-4.8,6.4C252.3,405.9,241.1,404.7,241.1,404.7"/>
<path class="st2" d="M232.6,426.3c0.7-1.7,9.1-10.2,18.7-7.4c-1.5,2.7-1.7,4.1-1,6.4C241,421.5,232.9,426.2,232.6,426.3"/>
<path class="st2" d="M236.3,450.1c2.2-11.2,10.4-14.5,14.5-16.4c-0.1,1.7,0.5,6.8,1.5,8.1C251,441.7,240.9,444.5,236.3,450.1"/>
<path class="st2" d="M410.5,459.2c-2.8,0.7-7,2.6-8.6,3.5c0.5-6.8-1.6-13.4-3.6-16.4C401.6,446.8,411.4,450.9,410.5,459.2"/>
<path class="st2" d="M388.9,475.1c-0.9-2.9-9.1-12.3-16.6-13.8c5.8-3.1,15.7-2.7,24.9,4.8C393.5,468.5,389.7,473.5,388.9,475.1"/>
<path class="st2" d="M362.7,483.5c4.8-8.5,19.5-5.1,23.7-3.5c-1.8,2-3.5,5.4-3.8,10.8C378.8,484.3,367.4,482.3,362.7,483.5"/>
<path class="st2" d="M362,505.2c-0.3,0.8,2.2-10.6,19.9-9.8c-0.5,4.3-0.5,6.1,0.1,10.4C370.4,501.1,362,505.2,362,505.2"/>
<path class="st2" d="M377.4,530.6c0,0-1.6-9.1,6.1-16.2c0.7,3.9,1.9,6.1,3.5,7.7C382.3,523.6,377.4,530.6,377.4,530.6"/>
<path class="st58" d="M93.4,211.4c-3.8,3.6-7.9,2.8-11.3,6.9c-2.5,2.8-9.2,12.7-5.7,28.7c2.4,10.4,4.6,28.8,5.9,34.8
	c1.8,8-2.8,15.5-6,15.6"/>
<path class="st59" d="M280.5,406.6c0.3,4.6,0.3,7.2,1.8,11.5c1.1,3,7,5.3,18.3,8.5c6.9,2,19.7,6.4,23.7,8c9.2,3.9,5.3,10.2,5.5,13.6
	"/>
<path class="st2" d="M0,386.6c0,138.9,92.1,271.7,262.8,275.3c60.2,1.3,130-34.4,174.3-67.1L0,329.3V386.6z"/>
<polygon class="st2" points="525.5,0 262.6,0 133.6,0 525.5,238 "/>
<g>
	<g>
		<path d="M517.5,8.1v406.1c0,32.8-6.7,64.7-20,94.6c-12.8,29-31.1,55-54.5,77.4s-50.6,40-81,52.2c-31.4,12.7-64.8,19.2-99.3,19.2
			c-34.4,0-67.8-6.5-99.3-19.2c-30.3-12.3-57.6-29.9-81-52.2c-23.4-22.4-41.7-48.4-54.5-77.4c-13.2-30-20-61.8-20-94.6V8.1h254.6
			H517.5 M525.5,0H262.6H0v414.1C0,553,117.7,665.6,262.8,665.6S525.5,553,525.5,414.1V0L525.5,0z"/>
	</g>
</g>
</svg>
