<?xml version="1.0" encoding="utf-8"?>
<!-- Generator: Adobe Illustrator 21.1.0, SVG Export Plug-In . SVG Version: 6.00 Build 0)  -->
<svg version="1.1" id="Calque_1" xmlns="http://www.w3.org/2000/svg" xmlns:xlink="http://www.w3.org/1999/xlink" x="0px" y="0px"
	 viewBox="0 0 549.7 669" style="enable-background:new 0 0 549.7 669;" xml:space="preserve">
<style type="text/css">
	.st0{fill:#FFFFFF;}
	.st1{fill:#0084FF;}
	.st2{fill:#FF1B00;}
	.st3{fill:#010202;}
	.st4{fill:#0073FF;}
	.st5{fill:#23AF3D;}
	.st6{fill:none;stroke:#010202;stroke-width:5;}
	.st7{fill:none;stroke:#010202;stroke-width:5;stroke-linecap:round;stroke-linejoin:round;}
	.st8{fill:#040304;}
	.st9{fill:none;stroke:#040304;stroke-width:5;}
	.st10{fill:#FF1B00;stroke:#010202;stroke-width:5;}
	.st11{fill:#FFFFFF;stroke:#000000;stroke-width:4.9674;}
	.st12{fill:none;stroke:#000000;stroke-width:4;}
	.st13{fill:#0A0406;}
	.st14{fill:#1D1D1B;}
	.st15{fill:#FFE400;}
	.st16{clip-path:url(#SVGID_2_);fill:none;stroke:#010202;stroke-width:4.5066;stroke-miterlimit:10;}
	.st17{fill:#FFD730;}
	.st18{fill:#E7423F;}
	.st19{fill:#0084FF;stroke:#000000;stroke-width:4.0709;}
	.st20{fill:#FFE400;stroke:#000000;stroke-width:4.0529;}
	.st21{fill:none;stroke:#000000;stroke-width:4.1421;}
	.st22{clip-path:url(#SVGID_4_);fill:none;stroke:#010202;stroke-width:4.1565;}
	.st23{fill:none;stroke:#010202;stroke-width:4.1565;stroke-miterlimit:10;}
	.st24{fill:#FFFFFF;stroke:#000000;stroke-width:8.047;stroke-miterlimit:10;}
	.st25{fill:none;stroke:#000000;stroke-width:8.047;stroke-miterlimit:10;}
	.st26{clip-path:url(#SVGID_6_);fill:none;stroke:#000000;stroke-width:8;}
	.st27{fill:#FFFFFF;stroke:#000000;stroke-width:4.1427;stroke-linecap:square;stroke-miterlimit:10;}
	.st28{fill:#FFFFFF;stroke:#000000;stroke-width:4;}
	.st29{fill:#FF1B00;stroke:#000000;stroke-width:4;}
	.st30{fill:none;stroke:#000000;stroke-width:3.4792;stroke-miterlimit:10;}
	.st31{fill:none;stroke:#000000;stroke-width:3.9158;}
	.st32{fill:none;stroke:#000000;stroke-width:3.9158;stroke-miterlimit:10;}
	.st33{fill:none;stroke:#000000;stroke-width:3.8626;}
	.st34{fill:none;stroke:#000000;stroke-width:3.9186;}
	.st35{fill:none;stroke:#000000;stroke-width:3.9354;}
	.st36{fill:#FFD72E;}
	.st37{fill:#FFE400;stroke:#000000;stroke-width:3.2832;}
	.st38{fill:#FFFFFF;stroke:#000000;stroke-width:3.9046;}
	.st39{stroke:#000000;stroke-width:3.9046;}
	.st40{fill:#23AF3D;stroke:#000000;stroke-width:3.9046;}
	.st41{fill:#E8423F;}
	.st42{fill:none;stroke:#010202;stroke-width:3.9405;}
	.st43{fill:none;stroke:#010202;stroke-width:3.9405;stroke-miterlimit:17;}
	.st44{clip-path:url(#SVGID_8_);fill:#FFE400;}
	.st45{clip-path:url(#SVGID_10_);fill:none;stroke:#010202;stroke-width:3.9405;stroke-miterlimit:16;}
	.st46{fill:none;stroke:#010202;stroke-width:3.9405;stroke-miterlimit:9;}
	.st47{fill:none;stroke:#010202;stroke-width:3.9405;stroke-miterlimit:5;}
	.st48{fill:none;stroke:#010202;stroke-width:3.9405;stroke-miterlimit:7;}
	.st49{fill:none;stroke:#010202;stroke-width:3.9405;stroke-miterlimit:10;}
	.st50{clip-path:url(#SVGID_12_);fill:none;stroke:#010202;stroke-width:3.9405;}
	.st51{clip-path:url(#SVGID_14_);fill:none;stroke:#010202;stroke-width:4;stroke-miterlimit:7;}
	.st52{fill:none;stroke:#FFFFFF;stroke-width:7.0508;stroke-linecap:round;stroke-linejoin:round;}
	.st53{fill:none;stroke:#FFFFFF;stroke-width:3.9746;}
	.st54{fill:none;stroke:#FFFFFF;stroke-width:7.0508;stroke-linecap:round;}
	.st55{fill:#12080D;}
	.st56{fill:none;stroke:#000000;stroke-width:3.9746;}
	.st57{fill:none;stroke:#E41E2E;stroke-width:0.8122;}
	.st58{fill:none;stroke:#FFFFFF;stroke-width:2.9047;stroke-linecap:round;stroke-linejoin:round;}
	.st59{fill:none;stroke:#FFFFFF;stroke-width:2.4365;stroke-linecap:round;stroke-linejoin:round;}
	.st60{fill:#FFE400;stroke:#010202;stroke-width:3.141;}
	.st61{fill:#FFE400;stroke:#010202;stroke-width:2.9332;stroke-miterlimit:10;}
	.st62{fill:none;stroke:#010202;stroke-width:2.6714;stroke-linecap:square;stroke-miterlimit:10;}
	.st63{fill:#FFD134;stroke:#010202;stroke-width:2.9332;stroke-linecap:square;stroke-miterlimit:10;}
	.st64{fill:#FFD134;stroke:#010202;stroke-width:3.1256;stroke-miterlimit:10;}
	.st65{fill:#FF1B00;stroke:#010202;stroke-width:2.8366;}
	.st66{fill:none;stroke:#010202;stroke-width:2.9332;}
	.st67{clip-path:url(#SVGID_16_);fill:#010202;}
	.st68{fill:#FFD730;stroke:#FFFFFF;stroke-width:2.8511;stroke-miterlimit:10;}
	.st69{fill:#FF0000;}
</style>
<g>
	<path class="st0" d="M274.8,665c-72.4,0-140.4-27-191.6-75.9c-51.1-48.9-79.3-113.9-79.3-183V4h541.7v402.1
		c0,69.1-28.1,134.1-79.3,183C415.2,638,347.2,665,274.8,665z"/>
	<path d="M541.7,8v398.1c0,34.4-7,67.7-20.9,99.1c-13.4,30.3-32.6,57.6-57.1,81s-53.1,41.9-84.8,54.7C346,654.2,311,661,274.9,661
		c-36.1,0-71-6.8-104-20.1c-31.8-12.9-60.3-31.3-84.8-54.7s-43.7-50.7-57.1-81c-13.9-31.4-20.9-64.7-20.9-99.1V8H541.7 M549.7,0H0
		v406.1C0,551.3,123.1,669,274.8,669c151.9,0,274.9-117.8,274.9-262.9L549.7,0L549.7,0z"/>
</g>
<path d="M137.1,323H0.2V1.2l136.9,0.1V323L137.1,323z M456,395c-0.3-1.5-1.2-2.9-1.7-4.1c0.3-1.7,0.3-3.5-0.3-5.2
	c-1.2-3.2-4.1-5.5-7.3-6.4c0-1.5,0-2.6-0.6-4.1c-1.2-3.8-5-6.4-9.6-6.7c0-1.2,0-2-0.3-2.9c-2-5.5-8.5-8.2-15.2-6.4
	c0-0.6,0-1.2-0.3-1.7c-2-5.5-9-8.5-15.7-6.1c-0.3,0.3-0.6,0.3-0.6,0.3c0-0.9-0.3-1.5-0.6-2.3c-1.7-5.2-8.7-7.6-15.4-5.2
	c-1.2,0.3-2.3,0.9-3.2,1.5c0-0.6,0-1.5-0.3-2c-1.7-5.2-8.7-7.6-15.7-5.2c-2.3,0.9-4.7,2.3-6.1,4.1c-1.5-5-7.9-8.2-14.6-7
	c-3.8,0.9-6.7,2.6-8.7,5c-2.3-3.8-7.9-5.8-13.7-5c-5.2,1.2-9.3,4.4-10.5,8.2c-2.3-3.5-7.6-5.5-12.8-4.7c-6.4,1.5-11.1,6.7-9.9,12.2
	c0,0.6,0.3,0.9,0.3,1.5c2.6-2,6.4-4.1,9.6-5c6.7-1.7,13.1-0.6,16.9,2.9c1.2-0.9,2.3-1.7,3.8-2.3c6.7-3.2,14.3-2.3,18.4,2
	c0.3,0,0.6-0.3,0.9-0.6c8.2-3.8,17.2-1.7,20.4,5v0.6c0.3-0.3,0.3-0.3,0.6-0.3c7.9-3.8,16.9-1.7,20.1,5c0.3,0.3,0.6,0.9,0.6,1.5
	c15.7-4.4,55.7,16.9,69.4,45.5C456.3,403.4,457.1,399.1,456,395 M247.1,364.7c0-1.2,1.1-2,2.8-2.6c0.3,2,2.2,3.8,4.5,3.8
	c2.5,0,4.6-2,4.6-4.7l0,0c2.8,0.3,5,1.5,5,3.5C264,370.5,247.1,369.3,247.1,364.7 M434.1,425.3c0.6-2.3,0.6-5-0.6-7.3
	c-1.5-2.6-3.5-4.7-5.8-5.5c0.9-2.3,0.9-5-0.3-7.6c-1.5-2.6-3.8-4.7-6.7-5.2c0.6-2.3,0.6-4.7-0.3-7c-1.7-3.5-5.5-5.2-9.6-5.2
	c0.6-2.3,0.3-5-0.6-7c-2.3-4.4-7.6-6.4-13.1-5.5c0-1.2-0.3-2.6-0.9-3.8c-2.3-5-8.5-7-14.6-5c0.3-2,0-3.8-0.6-5.2
	c-2.3-5-9.6-6.7-16.3-3.5c-1.5,0.6-2.6,1.5-3.8,2.6c0-1.5,0-2.9-0.9-4.4c-2.3-5-9.6-6.7-16-3.5c-1.2,0.6-2.3,1.2-3.2,2
	c-2.3-5.2-9.6-6.7-16.3-3.5c-2,0.9-3.8,2.3-5.2,3.8c-2.3-4.1-9-6.1-15.7-4.4c-4.1,1.2-7.3,3.2-9.6,5.8
	c-12.1-12.8-27.7-11.4-31.9-10.8c-21.7,3.2-32.4,16.9-46.1,18.1c-6.2,0.6-12.4-1.7-15.6-3.5c-3,5.5,2.5,3.8,2.1,7.6
	c-0.1,1.2-6.2,8.2,2.4,8.5c4.1,0.3,11.4-0.6,14,2.6c-40.2,6.7-29.2-12.5-36.1-12.5c-9.9,0-8.3,28.3,19.4,23c1,2,3,3.5,4.5,4.7
	c9.2-6.4,29.7-2.9,10.3,11.1c15.4,1.7,17.6-9,17.8-9.9c5.6-2.6,18.1,2.6,25.1,1.7c7-0.6,16.7-10.5,19.4-11.1
	c9.7,11.1,16.5,10.5,35.2,6.4c-6.4-16.3-24.8-10.8-26-15.2c7-4.7,21.3-7,37.3-6.4c0,0,0.3,0.3,0.6,0.3c14.6,0.6,31.2,3.8,45.5,10.2
	c30,14,55.7,40.2,56.5,71.4C436.4,442.8,437.6,433.7,434.1,425.3 M330.1,502.8c7.3,7.9,7.9,23.3,27.7,38.5
	c-12.2,11.4-14.6,3.5-15.4,2.9c-20.1,1.2-5.5-20.1-7-25.4c-26.8,24.5-9.9,43.4-9.9,43.4s4.4,7.3-2.6,8.7
	c-15.2,3.2-52.1,17.5-63.7,35.6c-6.1,9.3-11.7-3.5-14-3.2c-4.3,0.9-14.2,18.1-14.2,18.1s-23.1,3.5-23.8,2.6
	c-0.7-1.2,8.2-15.2,11.4-20.1c-5.8-2.9-14.3,12.2-14.3,12.2l-12.5,1.7c0,0,19.8-20.1,20.8-23.6c0.9-2.3,44.9,1.7,72.3-35.9
	C234.9,515.1,317.5,498.7,330.1,502.8 M28.1,511.6c0,0,7.9,2,9.7,2.9c1.7,1.2,15.5-11.4,16.6-11.4c1.1,0.3,2.1,0.9,2.3,2
	c0.2,1.2-19.1,19.8-19.1,19.8s16.8,0.9,26.5,0.3c9.7-0.9,9.4-7,12.1-12.5c3.7-3.8,5.7-4.7,5.7-4.7s2.6,3.8,8.5,4.7
	c6.4,1.2,13-13.7,30.3-25.4c11.1-7.9,43.4,2,43.4,2s48.3,14.9,51.1,20.1c14.5-3.8,15.6-31.8,21.1-29.7c9.6,3.8-2.2,12-1.9,17.2
	c7.7-1.5,80.8-4.4,86.9-1.5c0.6,0-16.6-9-16.6-9s23.3-14.9,44.6,36.4c7,17.2,27.1,16.6,39.4,22.2c35.6,5.2,23.9,49.6,25.4,55.1
	c-0.3,0.9-2.3,2.9-2.9,3.5c-2.3,2.6-9.3,3.8-9.3,3.8h-2.3c0,0-3.2-0.9-6.1-0.9c-7.6-0.3-14.9,10.2-24.5,21c6.1,2.9,12-1.7,12-1.7
	s11.1-18.1,14-12c0.3,0.9-12.5,21-13.7,22.2c1.5,4.7,9.6-2.6,12.2-3.2c2.9-0.3,17.2-1.5,19.8-13.1c1.2-6.7,17.2-5,17.2-5
	s2.9-1.2,4.1-2.6c-4.7-5.5-0.3-53.1-2.6-60.3c3.5-9-0.6-13.7-0.6-13.7s-7.3,0.3-13.1-4.7c-10.2-5-21.6-48.1-29.1-51.9
	c0.6-1.5,1.2-2.6,2.3-3.2c10.2-4.4,20.4,5.2,21.3,12.2c0.3,5,16.3,7,16.3,7s0.9-1.2-3.8-6.7c-1.2-1.2,1.2-2.3,1.2-2.3
	s17.8,7.9,21.6-5.5c-20.4,6.7-33.8-28-63-5c-12-10.5-37.6-27.1-113.2-38.8c22.9-25.7,17-41.7,7.8-46.1c-21,16-27.8,4.1-35.3,6.4
	c-6.1,26.2-72.3,5.2-75.4,62.7c1,0,19,0.9,21.6,0.9c0.9,3.5,2.3,3.5-7.2,5.8c-5.2-1.5-32.8-2-45.4-5.8c-13.4-2.6-26.7,8.7-26.7,8.7
	S89.1,489.6,84,491.9c-5.1,2.3-16.2,4.7-19.3,6.1c-3,1.2-8.8-0.6-8.8-0.6L28.1,511.6L28.1,511.6z M167.8,425c1.3,1.7,6,4.1,6,4.1
	s-8.5,10.2-13,32.4c-5.9-0.3-9.8-0.6-9.8-0.6s-7.3,0.6-9.8-9.3c-6.3-24.8-6.9-35.3-13.3-44c-3.1-4.4-11.5-6.7-19.2-9
	c-8-2.6-15.3-5-15.3-5s-10-4.7-18,2.3c-0.9,0.9-2.8,0.6-3.1-4.1c-0.3-4.7-5.3-2.6-5.3-2.6s-7.2,4.1-14.7,6.1
	c-9.4,2.6-24.6-16-29.6-15.7c7.3-0.3,28.8-0.6,28.8-0.6s3-2.3,0.8-4.4c-2.2-2-18.6,2.9-20.3,0.3c-1.7-2.6-4.9-7.6-4.9-7.6
	s9.1,2.9,22.6,1.2c10.3-1.5,16.5,0.3,17.5,0.9c21.1,13.1,58,14.6,63.9,13.7c8.3-1.2,12.4,6.4,14.1,9c2.3,3.8,3.4,7,3.4,7
	S158.5,412.5,167.8,425"/>
<path class="st18" d="M317.9,513c0,0,6.1-5.2,18.4,0c1.2,2.6,1.5,2.9,3.2,6.4C336,514.5,322,515.1,317.9,513"/>
<path class="st18" d="M182.2,368.4c2.4,0.3,1.4,10.5,13,12.5c6.4,1.2,14.1,1.2,23.1-0.3c0,1.2-0.1,1.7-0.2,2.9
	c-18.7,3.5-23.4,5-31.2,1.5C177.6,381.3,179.2,368.2,182.2,368.4"/>
<path class="st19" d="M275,5.2V323h268.4V5.2H275L275,5.2z"/>
<path class="st20" d="M543.3,123.1h-92.7V5.2h92.7V123.1L543.3,123.1z M367.7,323H275V208.3h92.7V323z M367.7,123.2h-92.3l-0.1,42.6
	H409V5.2h-41.3L367.7,123.2L367.7,123.2z M543.3,208.4v-42.7H409v157.5h41.6V208.5L543.3,208.4L543.3,208.4z"/>
<line class="st21" x1="275" y1="323" x2="0.2" y2="323"/>
</svg>
