<?xml version="1.0" encoding="utf-8"?>
<!-- Generator: Adobe Illustrator 21.1.0, SVG Export Plug-In . SVG Version: 6.00 Build 0)  -->
<svg version="1.1" id="Calque_1" xmlns="http://www.w3.org/2000/svg" xmlns:xlink="http://www.w3.org/1999/xlink" x="0px" y="0px"
	 viewBox="0 0 526.6 664.5" style="enable-background:new 0 0 526.6 664.5;" xml:space="preserve">
<style type="text/css">
	.st0{fill:#FFFFFF;}
	.st1{fill:#0084FF;}
	.st2{fill:#FF1B00;}
	.st3{fill:#010202;}
	.st4{fill:#0073FF;}
	.st5{fill:#23AF3D;}
	.st6{fill:none;stroke:#010202;stroke-width:5;}
	.st7{fill:none;stroke:#010202;stroke-width:5;stroke-linecap:round;stroke-linejoin:round;}
	.st8{fill:#040304;}
	.st9{fill:none;stroke:#040304;stroke-width:5;}
	.st10{fill:#FF1B00;stroke:#010202;stroke-width:5;}
	.st11{fill:#FFFFFF;stroke:#000000;stroke-width:4.9674;}
	.st12{fill:none;stroke:#000000;stroke-width:4;}
	.st13{fill:#0A0406;}
	.st14{fill:#1D1D1B;}
	.st15{fill:#FFE400;}
	.st16{clip-path:url(#SVGID_2_);fill:none;stroke:#010202;stroke-width:4.5066;stroke-miterlimit:10;}
	.st17{fill:#FFD730;}
	.st18{fill:#E7423F;}
	.st19{fill:#0084FF;stroke:#000000;stroke-width:4.0709;}
	.st20{fill:#FFE400;stroke:#000000;stroke-width:4.0529;}
	.st21{fill:none;stroke:#000000;stroke-width:4.1421;}
	.st22{clip-path:url(#SVGID_4_);fill:none;stroke:#010202;stroke-width:4.1565;}
	.st23{fill:none;stroke:#010202;stroke-width:4.1565;stroke-miterlimit:10;}
	.st24{fill:#FFFFFF;stroke:#000000;stroke-width:8.047;stroke-miterlimit:10;}
	.st25{fill:none;stroke:#000000;stroke-width:8.047;stroke-miterlimit:10;}
	.st26{clip-path:url(#SVGID_6_);fill:none;stroke:#000000;stroke-width:8;}
	.st27{fill:#FFFFFF;stroke:#000000;stroke-width:4.1427;stroke-linecap:square;stroke-miterlimit:10;}
	.st28{fill:#FFFFFF;stroke:#000000;stroke-width:4;}
	.st29{fill:#FF1B00;stroke:#000000;stroke-width:4;}
	.st30{fill:none;stroke:#000000;stroke-width:3.4792;stroke-miterlimit:10;}
	.st31{fill:none;stroke:#000000;stroke-width:3.9158;}
	.st32{fill:none;stroke:#000000;stroke-width:3.9158;stroke-miterlimit:10;}
	.st33{fill:none;stroke:#000000;stroke-width:3.8626;}
	.st34{fill:none;stroke:#000000;stroke-width:3.9186;}
	.st35{fill:none;stroke:#000000;stroke-width:3.9354;}
	.st36{fill:#FFD72E;}
	.st37{fill:#FFE400;stroke:#000000;stroke-width:3.2832;}
	.st38{fill:#FFFFFF;stroke:#000000;stroke-width:3.9046;}
	.st39{stroke:#000000;stroke-width:3.9046;}
	.st40{fill:#23AF3D;stroke:#000000;stroke-width:3.9046;}
	.st41{fill:#E8423F;}
	.st42{fill:none;stroke:#010202;stroke-width:3.9405;}
	.st43{fill:none;stroke:#010202;stroke-width:3.9405;stroke-miterlimit:17;}
	.st44{clip-path:url(#SVGID_8_);fill:#FFE400;}
	.st45{clip-path:url(#SVGID_10_);fill:none;stroke:#010202;stroke-width:3.9405;stroke-miterlimit:16;}
	.st46{fill:none;stroke:#010202;stroke-width:3.9405;stroke-miterlimit:9;}
	.st47{fill:none;stroke:#010202;stroke-width:3.9405;stroke-miterlimit:5;}
	.st48{fill:none;stroke:#010202;stroke-width:3.9405;stroke-miterlimit:7;}
	.st49{fill:none;stroke:#010202;stroke-width:3.9405;stroke-miterlimit:10;}
	.st50{clip-path:url(#SVGID_12_);fill:none;stroke:#010202;stroke-width:3.9405;}
	.st51{clip-path:url(#SVGID_14_);fill:none;stroke:#010202;stroke-width:4;stroke-miterlimit:7;}
	.st52{fill:none;stroke:#FFFFFF;stroke-width:7.0508;stroke-linecap:round;stroke-linejoin:round;}
	.st53{fill:none;stroke:#FFFFFF;stroke-width:3.9746;}
	.st54{fill:none;stroke:#FFFFFF;stroke-width:7.0508;stroke-linecap:round;}
	.st55{fill:#12080D;}
	.st56{fill:none;stroke:#000000;stroke-width:3.9746;}
	.st57{fill:none;stroke:#E41E2E;stroke-width:0.8122;}
	.st58{fill:none;stroke:#FFFFFF;stroke-width:2.9047;stroke-linecap:round;stroke-linejoin:round;}
	.st59{fill:none;stroke:#FFFFFF;stroke-width:2.4365;stroke-linecap:round;stroke-linejoin:round;}
	.st60{fill:#FFE400;stroke:#010202;stroke-width:3.141;}
	.st61{fill:#FFE400;stroke:#010202;stroke-width:2.9332;stroke-miterlimit:10;}
	.st62{fill:none;stroke:#010202;stroke-width:2.6714;stroke-linecap:square;stroke-miterlimit:10;}
	.st63{fill:#FFD134;stroke:#010202;stroke-width:2.9332;stroke-linecap:square;stroke-miterlimit:10;}
	.st64{fill:#FFD134;stroke:#010202;stroke-width:3.1256;stroke-miterlimit:10;}
	.st65{fill:#FF1B00;stroke:#010202;stroke-width:2.8366;}
	.st66{fill:none;stroke:#010202;stroke-width:2.9332;}
	.st67{clip-path:url(#SVGID_16_);fill:#010202;}
	.st68{fill:#FFD730;stroke:#FFFFFF;stroke-width:2.8511;stroke-miterlimit:10;}
	.st69{fill:#FF0000;}
</style>
<path class="st15" d="M262.7,0h263v412c0,139.1-117.6,251.6-262.8,251.6C117.7,663.6,0,551.1,0,412V0L262.7,0L262.7,0z"/>
<g>
	<path d="M517.6,8.1l0.9,404.8c0,32.9-6.7,64.7-19.9,94.7c-12.8,29-31.1,55-54.5,77.4s-50.6,40-81,52.2
		c-31.4,12.7-64.9,19.2-99.3,19.2s-67.9-6.4-99.3-19.2c-30.4-12.3-57.6-29.9-81-52.2c-23.4-22.4-41.7-48.4-54.5-77.4
		c-13.2-30-20-61.9-20-94.8L8.1,8h254.6h6.1l0,0L517.6,8.1 M0,0l0.9,412.9c0,139.1,117.7,251.6,262.9,251.6
		c145.3,0,262.8-112.5,262.8-251.6L525.7,0h-263l0,0L0,0L0,0z"/>
</g>
<path class="st30" d="M43.6,220.2c0,0,16.9,4,26.1,0.7c5.4-2,5.9-12.2,4.4-11.8c-4.1,1.2-25.6-2.2-32.9-4.1
	C39,204.5,43.6,220.2,43.6,220.2L43.6,220.2z"/>
<path class="st15" d="M79.2,218.8c0,0-39.6-0.9-42.1-1.9s4.7,16.8,14.9,21c5.9,2.4,16.4-10.1,28-11
	C82.9,226.7,79.2,218.8,79.2,218.8"/>
<path d="M67.9,206.4c-0.7,0.7-1.1,9.8-1.1,9.8l8.9,12.7c0,0,7.1-2.4,6.9-0.8c0.9,4.3-3.6,7.6,2.8,9.2c6.4,1.7,6.4-9,25.4-8.3
	s25.3,2.8,30.2,10c6.2,9.1,10.1,35.3,11.7,39c1.2,2.8,4.5,11.4,9.4,13.6c5.2,2,11.6-7.8,11.6-8c0-2.2-2.2-4.6-2.2-6.5
	s2.7-7,4.8-10.3c2.7-4.3-8.3-29-9-31.9c-0.1-4.9-2-9.5-2-9.5s-3.2-5.8-4.6-7.3c-1.5-1.5-1.8-3.1-3.6-3.7c-1.3-0.4-17.3-3.5-28.2-3.6
	c-3.2-0.1-26.5-4.1-29.1-2.3C90.7,205.8,76.9,196.3,67.9,206.4"/>
<path class="st31" d="M277.7,425.7c0.3,1.7,5.3,39.2,5.3,40.3s-7.9,12.3-18.6,11.5c-6.9-0.8-10.8-14-9.2-27.4
	C256.8,436.7,274.4,424.9,277.7,425.7z"/>
<path class="st15" d="M307.1,463.8c-7.6-12-23.2-36.1-23.2-36.1s-14.8,2.8-13.6,27.4C271.4,479.8,300.1,477.8,307.1,463.8"/>
<g>
	<path class="st31" d="M307.1,463.8c-7.6-12-23.2-36.1-23.2-36.1s-14.8,2.8-13.6,27.4C271.4,479.8,300.1,477.8,307.1,463.8z"/>
	<path class="st30" d="M79.2,218.8c0,0-39.6-0.9-42.1-1.9s4.7,16.8,14.9,21c5.9,2.4,16.4-10.1,28-11
		C82.9,226.7,79.2,218.8,79.2,218.8L79.2,218.8z"/>
	<path class="st32" d="M60.2,319.9l-9.3,28c0,0-23.7,0.3-21.4-1.4c2.2-2,14.5-21.6,17-22.4C48.9,323.3,60.2,319.9,60.2,319.9z"/>
</g>
<path class="st15" d="M59.2,317.7c0,0,16.3,2.5,15.3,2.2s0.9,23.2,0.2,24.4c-0.6,1.4-20,15.1-31.3,10.6
	C41.7,354.4,59.2,317.7,59.2,317.7"/>
<path class="st32" d="M59.2,317.7c0,0,16.3,2.5,15.3,2.2s0.9,23.2,0.2,24.4c-0.6,1.4-20,15.1-31.3,10.6
	C41.7,354.4,59.2,317.7,59.2,317.7L59.2,317.7z"/>
<path class="st31" d="M124.2,542.7c0,0,11.7-0.8,13.7,2s-16.8,20.4-16.8,20.4s-19.4,1.4-20.5-0.6
	C99.4,562.6,124.2,542.7,124.2,542.7z"/>
<path class="st15" d="M139.2,539.4l8.5,3.1c0,0,2.2,23.2-0.7,26.6c-3,3.6-20.2,11.2-34.9,4.8C108.7,572.1,139.2,539.4,139.2,539.4"
	/>
<path class="st31" d="M139.2,539.4l8.5,3.1c0,0,2.2,23.2-0.7,26.6c-3,3.6-20.2,11.2-34.9,4.8C108.7,572.1,139.2,539.4,139.2,539.4
	L139.2,539.4z M416.2,536.6c3.9-2.8,8.1-6.2,14.8-6.4l-1.1,31.9c0,0-20.2,9.5-20.7,8.1C408.7,568.8,413.2,539.4,416.2,536.6z"/>
<path class="st15" d="M430.8,521.5c0,0-10.9,48.4-9.8,50.1c0.8,1.4,27.7-11.8,29.1-21.3c1.1-9.2-7.3-30.8-7.3-30.8L430.8,521.5z"/>
<path class="st31" d="M430.8,521.5c0,0-10.9,48.4-9.8,50.1c0.8,1.4,27.7-11.8,29.1-21.3c1.1-9.2-7.3-30.8-7.3-30.8L430.8,521.5z"/>
<path d="M287.2,419.6c-3.1,3.9-7.8,5.9-8.4,4.8c1.7-10.6-3-23.8-11.3-34.1C277.4,391.6,290.8,415.4,287.2,419.6 M155.3,328.9
	c1.4,2-1.7,8.4,2,13.7c2.7,3.9,9.7,2.2,11.5,4.8c3,3.9,10.3,24.1,29.3,8.4c4.8,10.6,72,31.6,66.3,29.9c-26.5-6.4-24.7,2.5-29.8,0.6
	c-5.2-2.2-18.7-9.8-23,6.2c-10.9-2.8-16-2-23.5,12.6c-1.5,0.8-19.8,4.2-15.1,23.5c-11.2,6.4-8.3,16.2,1.8,27.2
	c-1.3,10.6-4.1,19,14.3,21.3c1.1,1.7,3.2,9.2,18.8,8.4c2.9,5-0.5,7.3-0.5,7.3s-42.2,30.2-60.6,31.1c-7.5,0.6-7.1,1.1-9,2.8
	s-7.2,14.3-7.2,14.3s-2.1,3.4,0.9,4.8c2.9,1.7,10.3,4.5,15.5,4.8c1.6,0.3,3.8-0.6,4.7-3.9c1-3.6,8-6.4,9,3.9
	c0.1,1.1,6.3-0.3,6.8-1.1c4.5-7.3,8.1-18.2,27.9-26.3c16.3-6.4,46.5-17.1,48.8-18.5c2.3-1.7,3.4-10.6,1.4-13.7
	c-2.1-2.8-7.3-9.8-7.3-9.8s19.1-6.7,20.8-7.3c-14.2-21.8,5.7-50.1,25.2-45.6c-0.6,0.6-5.9,6.4,4.2,13.4c-7,14.6,11.2,17.9,11.2,17.9
	s0.6,9.5,2.5,10.9s2,1.7,17.1,0.6c4.5-0.3,12.9,16,28.6,0c3.4,8.4,22.4,12,25.8-0.3c18.8,10.1,25.5-9.5,24.1-12.9
	c2.5,0,2.5-0.3,3.4-2.2c9,4.8,10.4,14,14.6,26c4.5,13.7,9.2,29.1,9.2,29.1s0.8,6.4-0.3,7.3c-2.8,1.7-5.3,8.7-2.8,16
	c17.1,8.7,25.8,1.1,25.8-0.3c0.3-1.4,1.1-5.9,2.5-7s8.1-4.2,8.1-5.9c-0.3-1.7-2.2-4.2-5-7.3c-3.1-1.4-5-5.6-7.6-7
	c-4.5-2.5-19-49.5-20.7-56.5c-1.4-7,4.5-24.9-5.3-26.9c-8.7-1.7-12.3,8.1-17.9,3.1c-1.4-1.7,3.6-3.1-0.6-9.5
	c-0.8-1.1-4.2-5-10.6-3.6c2.2-13.7-14.3-15.1-14.3-15.1s2.5-6.7-7.8-23c27.2,2,24.4-7.8,28.8-9c2.2-0.6,21.8,5.9,24.1-8.4
	c2.8,0,16.8,2,19.9-12.9c14.8,3.4,17.4-13.4,17.4-13.4s19.9-3.6,10.4-18.8c7.6-6.2,8.4-17.6-6.2-19.3c0.6-16.1-12-17.2-20.2-8.7
	c-0.6-1.3-13.4-10.7-21.6,9.3c-17.6-2.5-15.4,14-15.4,14s-14.3-3.6-13.2,17.4c-6.4,0.8-5.6,5.6-5.6,5.6s2.8,29.1-22.1,34.1
	c-9.2-15.4-36.4-23.2-55.1-33.3c-12.6-6.4-21-14-19.6-16.5c7.8-14.8,4.8-18.2,4.8-18.2s13.4-6.4,11.2-15.1
	c13.2-4.1,9.2-14.7,11.8-17.6c2.2-2.9,13.7-1.5,8.4-16.8c-1.1-2.6-15.4-7.6-20.7-15.2c-1.1,0-2,0.1-2,0.1s-0.6-10.7-5-11.1
	c-4.5-0.4-10.9,7.5-16.2,7.2c-2.8-0.1-11.1-0.5-13.3-0.8c-2.3-0.3-10.4,6.4-10.4,6.4s-18.2-4.3-23.4,6.1c-13.4-6.3-20,5.2-20,5.2
	s-17-5.3-19.9,14.8c-19.3,3.4-18.2,13.4-17.7,17.8c0.4,4.5,2.4,4.5,1,9.1c-7,1.8-13.9,10.1-13.9,10.1s-2.5,1.1-10.7-5.6
	c-9.8-7.8-14.4-11.6-16.7-14.1c-2.3-2.6-8.5-4-18.1,0.3c-4.1,1.8-3.6,3.5-15.2,10.9c-13.7,8.8-28.7,19.5-38.2,18.1
	c-5.7-0.8-16.4,8.1-16.5,15.7c-0.1,7.3,27.5,6.4,27.8,3.4c0.3-3.1,2.5-4.5,2.5-4.5s6.7,13.4,14.7,3.4c8.1-10.1,14.7-15.4,14.7-15.4
	s10.5-11.8,20.7-7.3S146.3,319.4,155.3,328.9"/>
<path class="st33" d="M225.2,95c-4.5-45.3,103.5-46.2,75.2,51.3"/>
<path class="st34" d="M317.4,183.5c2.8,2.2,20.2-36.4,23.5-40c3.4-3.6,5.3-8.5,5.3-14c0-8.7-5-16.2-12-18.9c2.5-4,3.9-8.8,3.9-14
	c0.3-13.7-9.5-24.9-21.8-25c-0.6,0-1.1,0-1.7,0.1c4.5-5.7,5.6-13.5,2-19.8c-4.5-8.1-15.1-10.4-23.5-5.2c-0.6,0.3-1.1,0.7-1.4,1
	c-0.3-2.5-1.1-4.9-2.5-7c-4.8-7.6-15.3-9.1-23.4-3.3c-0.9,0.6-1.7,1.4-2.5,2.1c-5-7.1-15.2-8.3-23.1-2.7c-2.3,1.6-4.1,3.7-5.5,5.9
	c-4.9-2.7-10.9-2.6-15.6,0.7c-6.5,4.6-8.3,13.8-4.6,21.3c-4.1-0.3-8,1.1-10.9,4.2c-5.9,6.1-5.4,16.5,1,23.3c0.4,0.4,0.8,0.8,1.2,1.1
	c-0.2,0.2-0.4,0.4-0.7,0.6c-5.5,5.8-5.5,15.3,0.1,21.3c4.1,4.3,10,5.6,15,3.7c-1.8,5.2-1,11.1,2.7,15c5.3,5.6,14.2,5.3,19.9-0.8
	c1-1.1,1.8-2.2,2.5-3.5c4.8,6.1,13,7.2,18.5,2.6c5.1-4.3,6-12.1,2.5-18.2c14.6-11.8-5.8-31.5-18-19.5c6.2,2.9,7,10.2,1.7,12.8
	c-2.5,1.2-5.3,2-7.6,1.3c-9.6-3.1-8.3-16.2-7.2-19.6c4.2-13.7,24.2-16.4,37.3-10.9c6.7,2.8,34.1,13.7,11.8,74.1"/>
<path class="st15" d="M458.8,225.2c6.4-4.2,10.4-11.9,9.2-20.2c-0.8-7.2-5.3-13.1-11.2-16c1.7-3.4,2.2-7.2,2-11.3
	c-1.4-10.9-10.9-18.7-22.1-17.9c1.1-2.3,1.7-4.8,1.4-7.4c-1.1-8.2-9.2-13.8-18.2-12.7c-4.8,0.6-9,3.1-11.5,6.5
	c-3.1-9-12.3-14.8-22.1-13.5c-6.4,0.8-11.8,4.3-15.1,9.2c-4.8-3.2-11.2-4.8-17.9-3.9c-13.4,1.8-23,11.9-21.6,22.6
	c0.3,3.4,1.7,6.5,3.9,9.1l-19.9,13.6l18.5,26.5c0,0,26.6-20.5,49.3-19.4c25.5,1.2,38.1,12.8,36.9,34.1c-1.1,18.5-20.2,18.4-23.8,9.2
	c-3.9-9.1,4.5-13.8,4.5-13.8c-11.5-11.3-23-2.2-24.6,5.4c-3.9-1-7.8-0.2-10.9,2.4c-5.6,4.7-6.2,13.5-1.4,19.8c1.1,1.2,2,2.2,3.1,3
	c-3.1,5.1-2.8,12.4,1.4,17.8c5,6.6,13.7,8.1,19.6,3.2c0-0.1,0.3-0.3,0.3-0.4c0.6,1.3,1.4,2.6,2.2,3.8c5,6.6,14,7.8,20.2,2.7
	c2.2-2,3.9-4.8,4.5-7.7c0.6,0.4,0.8,0.8,1.1,1.2c7,6.8,17.9,6.3,24.4-1.1c4.5-5,5.9-11.9,3.9-18c1.1,0,2,0,2.8-0.1
	c10.4-1.4,17.9-9.3,16.8-17.7C463.8,230.7,461.9,227.4,458.8,225.2"/>
<path class="st35" d="M458.8,225.2c6.4-4.2,10.4-11.9,9.2-20.2c-0.8-7.2-5.3-13.1-11.2-16c1.7-3.4,2.2-7.2,2-11.3
	c-1.4-10.9-10.9-18.7-22.1-17.9c1.1-2.3,1.7-4.8,1.4-7.4c-1.1-8.2-9.2-13.8-18.2-12.7c-4.8,0.6-9,3.1-11.5,6.5
	c-3.1-9-12.3-14.8-22.1-13.5c-6.4,0.8-11.8,4.3-15.1,9.2c-4.8-3.2-11.2-4.8-17.9-3.9c-13.4,1.8-23,11.9-21.6,22.6
	c0.3,3.4,1.7,6.5,3.9,9.1l-19.9,13.6l18.5,26.5c0,0,26.6-20.5,49.3-19.4c25.5,1.2,38.1,12.8,36.9,34.1c-1.1,18.5-20.2,18.4-23.8,9.2
	c-3.9-9.1,4.5-13.8,4.5-13.8c-11.5-11.3-23-2.2-24.6,5.4c-3.9-1-7.8-0.2-10.9,2.4c-5.6,4.7-6.2,13.5-1.4,19.8c1.1,1.2,2,2.2,3.1,3
	c-3.1,5.1-2.8,12.4,1.4,17.8c5,6.6,13.7,8.1,19.6,3.2c0-0.1,0.3-0.3,0.3-0.4c0.6,1.3,1.4,2.6,2.2,3.8c5,6.6,14,7.8,20.2,2.7
	c2.2-2,3.9-4.8,4.5-7.7c0.6,0.4,0.8,0.8,1.1,1.2c7,6.8,17.9,6.3,24.4-1.1c4.5-5,5.9-11.9,3.9-18c1.1,0,2,0,2.8-0.1
	c10.4-1.4,17.9-9.3,16.8-17.7C463.8,230.7,461.9,227.4,458.8,225.2z M388.5,236.4c12.3,29.1,59.1,7.6,36.7-35.4
	c-14.6-28-59.9-26.6-80.3-7.2"/>
<g>
	<path class="st36" d="M316.3,180.4c3.1,3.8,9.8,3,15.1-1.7c5.6-4.8,7.6-11.7,4.5-15.6c-3.1-3.8-10.1-3.1-15.4,1.7
		C315.2,169.6,313.2,176.6,316.3,180.4"/>
	<path class="st36" d="M293.4,157.5c3.1,4,10.1,3.4,15.4-1.4c5.6-4.8,7.3-11.9,4.2-15.9c-3.1-4-10.1-3.4-15.7,1.4
		C292,146.3,290.3,153.5,293.4,157.5"/>
	<path class="st36" d="M334,202.1c3.4,4,10.4,3.3,15.7-1.6c5.6-4.9,7.6-12,4.5-16c-3.4-4-10.4-3.3-15.7,1.6
		C332.8,190.9,330.9,198.1,334,202.1"/>
</g>
<path class="st37" d="M316.3,180.4c3.1,3.8,9.8,3,15.1-1.7c5.6-4.8,7.6-11.7,4.5-15.6c-3.1-3.8-10.1-3.1-15.4,1.7
	C315.2,169.6,313.2,176.6,316.3,180.4z M293.4,157.5c3.1,4,10.1,3.4,15.4-1.4c5.6-4.8,7.3-11.9,4.2-15.9c-3.1-4-10.1-3.4-15.7,1.4
	C292,146.3,290.3,153.5,293.4,157.5z M334,202.1c3.4,4,10.4,3.3,15.7-1.6c5.6-4.9,7.6-12,4.5-16c-3.4-4-10.4-3.3-15.7,1.6
	C332.8,190.9,330.9,198.1,334,202.1L334,202.1z"/>
<path class="st15" d="M279.1,150.6c7-14.8,3.9-30.3,3.9-30.3s23.2,11,12.9,42.3C294.8,161.5,285,153.8,279.1,150.6"/>
<path class="st15" d="M335.4,211.6c15.4-9.1,37.5-5,37.5-5s-16.5-24.9-44.5-6.2C329.5,201.4,333.1,205.7,335.4,211.6"/>
<path class="st35" d="M279.1,150.6c7-14.8,3.9-30.3,3.9-30.3s23.2,11,12.9,42.3C294.8,161.5,285,153.8,279.1,150.6L279.1,150.6z"/>
<path class="st33" d="M335.4,211.6c15.4-9.1,37.5-5,37.5-5s-16.5-24.9-44.5-6.2C329.5,201.4,333.1,205.7,335.4,211.6z"/>
<g>
	<path class="st15" d="M240,206.3c-2.9,2.4-44.5,17-54.9,3.3c-11.1-14.7,3.7-31.2,5.9-30c2.2,1.2,2.9,18.9,13.9,22.1
		c11.1,3.3,31.7,1.3,31.7,1.3L240,206.3L240,206.3z"/>
	<path class="st15" d="M291.1,183.7c5.3,6.4,16.2,5.4,24.9-2.2s11.5-19,6.4-25.4c-5-6.4-16.2-5.4-24.6,2.2
		C289.2,165.9,286.1,177.3,291.1,183.7"/>
	<path class="st15" d="M312.7,199.3c4.2,5.3,14,4,21.8-2.9c8.1-6.9,10.9-16.9,6.7-22.2c-4.2-5.3-14-4-21.8,2.9
		S308.5,194,312.7,199.3"/>
</g>
<path class="st35" d="M291.1,183.7c5.3,6.4,16.2,5.4,24.9-2.2s11.5-19,6.4-25.4c-5-6.4-16.2-5.4-24.6,2.2
	C289.2,165.9,286.1,177.3,291.1,183.7L291.1,183.7z M312.7,199.3c4.2,5.3,14,4,21.8-2.9c8.1-6.9,10.9-16.9,6.7-22.2
	c-4.2-5.3-14-4-21.8,2.9S308.5,194,312.7,199.3L312.7,199.3z"/>
<path class="st15" d="M273.3,157.5c31.3,17.4,49.7,48.6,54.5,59.8c3.9-1.9,5.3-4.9,9-6.5c-12.3-26.2-35.3-51.2-56.8-62.4
	C278,151.7,275.8,154.4,273.3,157.5"/>
<path class="st35" d="M273.3,157.5c31.3,17.4,49.7,48.6,54.5,59.8c3.9-1.9,5.3-4.9,9-6.5c-12.3-26.2-35.3-51.2-56.8-62.4
	C278,151.7,275.8,154.4,273.3,157.5z"/>
<path d="M300.9,172.2c12.3,12,24.6,28.6,28.5,41.4c-0.6,0.8,2-0.6,0.8,0c4.8,1.8,5.6,3,10.6,7.4c2.5,2.3,4.8,4.1,6.2,8.2
	c0.8,2.9,0.8,5.9,0.8,8.8c0.6,9.8-2.2,19.1-6.4,21.6c-5.6,3.5-5.9-3.9-9-9c-5.9-10.2-22.4-17-27.2-25.2c-1.1-2.1-3.4-12.4-3.4-12.4
	s-14.6,10.1-23.2,11.1c-8.9,1-13.4-5.8-29.9-5.4c-5.8,5.2-11.6,7.1-16.5,9.2c-5.1,2.2-7.7-6.7-14.7-11.2c2.6-2.1,21.7,1.6,22.3-10.4
	c-2.9,2.4-44.5,17-54.9,3.3c-11.1-14.7,3.7-31.2,5.9-30c2.2,1.2,2.9,18.9,13.9,22.1c11.1,3.3,31.7,1.3,31.7,1.3s-0.7-0.4-1.2-0.8
	c-0.4,1.4-27.5-0.8-27.5-0.8s-3.7-7.2-1.1-11.3c1.1-1.3,1.2-1.3,1.2-1.3l2.7-5.5c0,0,1.6-2.2,3.9-1.3c2.3,1,7.2,0.8,7.2,0.8
	s22.3-18.2,29.7-15.1c0.7-5.9,10.3-20.5,24.4-13.7c0.9-0.5,0,0.6,0.7,0.9C278.5,154.9,290,161.7,300.9,172.2"/>
<path class="st2" d="M185,194.2c-0.3,1.2-0.4,2.3-0.4,3.4c0,3.4,1.1,6.6,3.3,9.6c7.8,10.4,39.7,1.2,50.1-2.6c-9.6,3-27.6,2-34.6,0.4
	c-8.1-1.8-13.1-13.3-14.1-19.6l0,0C187.7,187.3,185.8,190.4,185,194.2"/>
<g>
	<path class="st15" d="M276.8,178.4c-0.6-0.5-5.5-3.9-7.7-3.6c-0.7-0.6-3.7-2.5-2.1-3.2c0.9-0.4,2.5-0.6,2.9-0.6s4,0.6,4.8,0.6
		c3.6,0.5,10.6,5.8,9.2,15C283.6,188.5,278.3,179.7,276.8,178.4"/>
	<path class="st15" d="M222.1,188.2l2.2-0.6l1.8,1v1l-0.9,1.9l-1.5,1.6l-2.5,1.6h-1.5l-0.9-0.6l-0.6-1.3l0.9-1.6L222.1,188.2
		L222.1,188.2z"/>
	<circle class="st15" cx="272.9" cy="180.4" r="5.3"/>
</g>
</svg>
