<?xml version="1.0" encoding="utf-8"?>
<!-- Generator: Adobe Illustrator 21.1.0, SVG Export Plug-In . SVG Version: 6.00 Build 0)  -->
<svg version="1.1" id="Calque_1" xmlns="http://www.w3.org/2000/svg" xmlns:xlink="http://www.w3.org/1999/xlink" x="0px" y="0px"
	 viewBox="0 0 525.5 668.4" style="enable-background:new 0 0 525.5 668.4;" xml:space="preserve">
<style type="text/css">
	.st0{fill:#FFFFFF;}
	.st1{fill:#0084FF;}
	.st2{fill:#FF1B00;}
	.st3{fill:#010202;}
	.st4{fill:#0073FF;}
	.st5{fill:#23AF3D;}
	.st6{fill:none;stroke:#010202;stroke-width:5;}
	.st7{fill:none;stroke:#010202;stroke-width:5;stroke-linecap:round;stroke-linejoin:round;}
	.st8{fill:#040304;}
	.st9{fill:none;stroke:#040304;stroke-width:5;}
	.st10{fill:#FF1B00;stroke:#010202;stroke-width:5;}
	.st11{fill:#FFFFFF;stroke:#000000;stroke-width:4.9674;}
	.st12{fill:none;stroke:#000000;stroke-width:4;}
	.st13{fill:#0A0406;}
	.st14{fill:#1D1D1B;}
	.st15{fill:#FFE400;}
	.st16{clip-path:url(#SVGID_2_);fill:none;stroke:#010202;stroke-width:4.5066;stroke-miterlimit:10;}
	.st17{fill:#FFD730;}
	.st18{fill:#E7423F;}
	.st19{fill:#0084FF;stroke:#000000;stroke-width:4.0709;}
	.st20{fill:#FFE400;stroke:#000000;stroke-width:4.0529;}
	.st21{fill:none;stroke:#000000;stroke-width:4.1421;}
	.st22{clip-path:url(#SVGID_4_);fill:none;stroke:#010202;stroke-width:4.1565;}
	.st23{fill:none;stroke:#010202;stroke-width:4.1565;stroke-miterlimit:10;}
	.st24{fill:#FFFFFF;stroke:#000000;stroke-width:8.047;stroke-miterlimit:10;}
	.st25{fill:none;stroke:#000000;stroke-width:8.047;stroke-miterlimit:10;}
	.st26{clip-path:url(#SVGID_6_);fill:none;stroke:#000000;stroke-width:8;}
	.st27{fill:#FFFFFF;stroke:#000000;stroke-width:4.1427;stroke-linecap:square;stroke-miterlimit:10;}
	.st28{fill:#FFFFFF;stroke:#000000;stroke-width:4;}
	.st29{fill:#FF1B00;stroke:#000000;stroke-width:4;}
	.st30{fill:none;stroke:#000000;stroke-width:3.4792;stroke-miterlimit:10;}
	.st31{fill:none;stroke:#000000;stroke-width:3.9158;}
	.st32{fill:none;stroke:#000000;stroke-width:3.9158;stroke-miterlimit:10;}
	.st33{fill:none;stroke:#000000;stroke-width:3.8626;}
	.st34{fill:none;stroke:#000000;stroke-width:3.9186;}
	.st35{fill:none;stroke:#000000;stroke-width:3.9354;}
	.st36{fill:#FFD72E;}
	.st37{fill:#FFE400;stroke:#000000;stroke-width:3.2832;}
	.st38{fill:#FFFFFF;stroke:#000000;stroke-width:3.9046;}
	.st39{stroke:#000000;stroke-width:3.9046;}
	.st40{fill:#23AF3D;stroke:#000000;stroke-width:3.9046;}
	.st41{fill:#E8423F;}
	.st42{fill:none;stroke:#010202;stroke-width:3.9405;}
	.st43{fill:none;stroke:#010202;stroke-width:3.9405;stroke-miterlimit:17;}
	.st44{clip-path:url(#SVGID_8_);fill:#FFE400;}
	.st45{clip-path:url(#SVGID_10_);fill:none;stroke:#010202;stroke-width:3.9405;stroke-miterlimit:16;}
	.st46{fill:none;stroke:#010202;stroke-width:3.9405;stroke-miterlimit:9;}
	.st47{fill:none;stroke:#010202;stroke-width:3.9405;stroke-miterlimit:5;}
	.st48{fill:none;stroke:#010202;stroke-width:3.9405;stroke-miterlimit:7;}
	.st49{fill:none;stroke:#010202;stroke-width:3.9405;stroke-miterlimit:10;}
	.st50{clip-path:url(#SVGID_12_);fill:none;stroke:#010202;stroke-width:3.9405;}
	.st51{clip-path:url(#SVGID_14_);fill:none;stroke:#010202;stroke-width:4;stroke-miterlimit:7;}
	.st52{fill:none;stroke:#FFFFFF;stroke-width:7.0508;stroke-linecap:round;stroke-linejoin:round;}
	.st53{fill:none;stroke:#FFFFFF;stroke-width:3.9746;}
	.st54{fill:none;stroke:#FFFFFF;stroke-width:7.0508;stroke-linecap:round;}
	.st55{fill:#12080D;}
	.st56{fill:none;stroke:#000000;stroke-width:3.9746;}
	.st57{fill:none;stroke:#E41E2E;stroke-width:0.8122;}
	.st58{fill:none;stroke:#FFFFFF;stroke-width:2.9047;stroke-linecap:round;stroke-linejoin:round;}
	.st59{fill:none;stroke:#FFFFFF;stroke-width:2.4365;stroke-linecap:round;stroke-linejoin:round;}
	.st60{fill:#FFE400;stroke:#010202;stroke-width:3.141;}
	.st61{fill:#FFE400;stroke:#010202;stroke-width:2.9332;stroke-miterlimit:10;}
	.st62{fill:none;stroke:#010202;stroke-width:2.6714;stroke-linecap:square;stroke-miterlimit:10;}
	.st63{fill:#FFD134;stroke:#010202;stroke-width:2.9332;stroke-linecap:square;stroke-miterlimit:10;}
	.st64{fill:#FFD134;stroke:#010202;stroke-width:3.1256;stroke-miterlimit:10;}
	.st65{fill:#FF1B00;stroke:#010202;stroke-width:2.8366;}
	.st66{fill:none;stroke:#010202;stroke-width:2.9332;}
	.st67{clip-path:url(#SVGID_16_);fill:#010202;}
	.st68{fill:#FFD730;stroke:#FFFFFF;stroke-width:2.8511;stroke-miterlimit:10;}
	.st69{fill:#FF0000;}
</style>
<g id="g5">
	<path id="path7" class="st2" d="M262.5,0h263v386.5c0,69.4-11.5,130.1-52.6,181.6s-113,100.3-210.2,100.3L262.5,0L262.5,0z"/>
</g>
<path id="polygon37" class="st60" d="M449,104.6V140h24.5v21.1H449v35.4h-21.5v-35.4H403V140h24.5v-35.4
	C427.5,104.6,449,104.6,449,104.6z M479.1,224.4v-25.2h25.7v-11.8v-85.7h-25.7v-25h25.7V42.5l-38.6-0.1v23.4l-32.3,0.4V42.3H395
	v59.2h-26.5l-0.2,97.8H395V259h38.9v-24l32.3-0.4v24.1h38.6v-34.2L479.1,224.4L479.1,224.4z"/>
<path id="path95" class="st61" d="M379.2,37.7c0-3.8-1.9-7.2-4.7-9.3c-0.6-5.9-5.6-10.6-11.6-10.6s-11,4.5-11.5,10.4
	c-3,2.1-4.9,5.6-4.9,9.5c0,0.3,0,0.7,0,1v353.7h32.8v-354v-0.7H379.2z M347,373.9c-0.1,17.1,0.8,70.6-48.9,89.6V496
	c49.7,19.1,49.2,61.7,49.3,78.8h30.8c0-17.1-2.2-59.9,47.5-78.9v-32.3c-49.7-19-47.4-72.7-47.5-89.8L347,373.9L347,373.9z
	 M362,451.2c7.7,0,13.9,6.2,14,13.7c7.6,0.2,13.7,6.4,13.7,13.9c0,7.6-6.1,13.8-13.7,13.9c-0.2,7.5-6.4,13.6-14,13.6
	s-13.9-6.1-14-13.6c-7.6-0.2-13.7-6.4-13.7-13.9s6.1-13.7,13.7-13.9C348.1,457.4,354.4,451.2,362,451.2z"/>
<g id="g9">
	<path id="path11" class="st15" d="M262.7,668.4L262.7,668.4C117.6,668.4,0,555.8,0,416.9V0h262.5L262.7,668.4z"/>
</g>
<line id="line41" class="st62" x1="504.8" y1="411.7" x2="504.8" y2="411.7"/>
<path id="path73" class="st63" d="M362.5,390.7c-0.1,17.9-8.9,72-64.2,87.8c-0.7-6-6.4-10.7-13.2-10.7c-7.3,0-13.3,5.4-13.3,12
	s6,12,13.3,12c6.9,0,12.7-4.9,13.2-11.1c68.8,18.3,62.5,79.6,64.1,83.8c0.7-9,2.5-72,62.4-84.1c0.4,6.4,6.2,11.4,13.2,11.4
	c7.3,0,13.2-5.4,13.2-12s-5.9-12-13.2-12c-6.8,0-12.5,4.7-13.2,10.8C374.3,464.8,362,411.8,362.5,390.7z M362,451.2
	c7.7,0,13.9,6.2,14,13.7c7.6,0.2,13.7,6.4,13.7,13.9c0,7.6-6.1,13.8-13.7,13.9c-0.2,7.5-6.4,13.6-14,13.6s-13.9-6.1-14-13.6
	c-7.6-0.2-13.7-6.4-13.7-13.9s6.1-13.7,13.7-13.9C348.1,457.4,354.4,451.2,362,451.2z M362.5,566.7c-7.3,0-13.3,5.4-13.3,12
	s6,12,13.3,12s13.2-5.4,13.2-12S369.9,566.6,362.5,566.7z"/>
<path id="path135" class="st64" d="M381.7,578.8c0.2,0,0.3,0,0.5,0c5,0,9-4.1,9-9c0-5-4-9-9-9h-0.1h-39H343c-5,0-9,4-9,9s4,9,9,9
	c0.2,0,0.3,0,0.5,0H381.7z M285.6,499c0,0.1-0.1,0.3-0.1,0.4c0,5,4,9,9,9s9-4,9-9l0,0l0,0v-39.1l0,0l0,0c0-5-4-9-9-9s-9,4-9,9
	c0,0.1,0,0.3,0,0.4L285.6,499L285.6,499L285.6,499z M438.1,460.6c0-0.2,0-0.3,0-0.4c0-5-4.1-9.1-9-9.1c-5,0-9,4-9,9.1l0,0v39l0,0
	v0.1c0,5,4,9,9,9s9-4,9-9c0-0.2,0-0.3,0-0.4V460.6z M384,377.5h-42.7c-4.7,0-8.4,3.8-8.4,8.4s3.7,8.4,8.4,8.5H384l0,0
	c4.6,0,8.4-3.8,8.4-8.5C392.4,381.3,388.6,377.5,384,377.5z M383.4,351h-42.2c-4.5,0-8.3,3.7-8.3,8.3c0,4.5,3.7,8.3,8.3,8.3h42.3
	l0,0c4.5,0,8.3-3.7,8.3-8.3C391.7,354.7,387.9,351,383.4,351z"/>
<path id="path147" class="st65" d="M207,419.7l-66,74.4c0,0-4.6,4.2-14.5,3.6c-12.1-0.6-18.4-13.6-23.5-22.4c-1.9-0.7-6-1.5-6-1.5
	l-8.5,6.8c0,0-2.6,2.5-1.1,5.4s18.1,19.5,24.5,20c3,0.3,0.6,2.4-0.2,2.7c-7.3,2.6-19.1-2.5-19.1-2.5s-0.8-0.2-7.9-0.9
	c-7-0.7-6,4.5-6,4.5s2.7,8.3,4.6,10.9c4.3,6,31.7-3.7,31.7-3.7s5.8-0.9,7.4,2.4c-10.8,10.2-18.1,17.7-21.6,23.2
	c-5.8,10-2.4,15.2-1.3,16.5c2.3,2,11.4,2.3,15.9-2.6c2.5-2.9,5.3-14.5,12.7-25.2c5.6-8,15.2-15.9,21-17.6
	c12.7-3.6,31.2,6.2,31.2,6.2s9,3.8,13-7.2c1-3,1.3-5.5,1.3-5.5l-1.2-3.5c0,0-22.6-5.8-32.1-1.8c-3.7,1.6-4.1-1.9-3.1-3.9
	c1.6-3.2,7.3-11,15.5-20.7c15.4-18.1,37.2-42,38.5-51.8C207.4,422.5,207,419.7,207,419.7L207,419.7z"/>
<path id="path369" class="st65" d="M162.4,84.5c-0.4,1.9-0.1,9,3.2,10.8c1.4,0.7,2.7,0,3.6-1.4s0.7-3.3,0.7-3.3s-2.3-4,0.5-8.3
	c3-4.6,11-10.1,31.9-10.3c20.9,0.2,28.9,5.7,31.9,10.3c2.7,4.3,0.5,8.2,0.5,8.3c0,0-0.2,1.9,0.7,3.3c0.9,1.4,2.2,2.2,3.7,1.4
	c3.2-1.8,3.5-8.9,3.2-10.8c-1.9-8.8-10.3-19.4-39.9-19.5C172.8,65.2,164.3,75.8,162.4,84.5L162.4,84.5z M172.3,152.2
	c-18.2-9.7-40.6-8.4-40.6-8.4s-5,2.3-5.5,6.6c-6.9-3.8-6.1-11.4-6.1-11.4s0.6-19.4,22.2-12.1c2.6,0.8,8.7-0.1,8.4-2.4
	c-0.4-2.3,5.8-8.2,12.8-3.2c7.2,5,54.1,55.1,61.1,72.1c-35.4-18.1-62.4-20.5-62.4-20.5s-8.3-0.6-17-0.4c5.7-5.5,17.3-12,22.2-10.4
	c6.5,2.1,24.5,8.3,24.5,8.3L172.3,152.2L172.3,152.2z M112.8,134.2c-2.1,13.1,1.6,14.1,6,16.8c5,2.9,38.7,0.5,45.2,1
	c6.6,0.6,25.3,18.7,25.3,18.7s-15.4-9.2-24.4-10.7c-13-2.2-32.5-0.2-45.5,1.5s-16.3-10.6-16.3-10.6S101.3,139.1,112.8,134.2z"/>
<path id="path4707" class="st66" d="M262.7,0.2V637"/>
<g id="path4705">
	<path class="st3" d="M517.5,8v408.9c0,32.8-6.7,64.7-20,94.6c-12.8,29-31.1,55-54.5,77.4c-23.4,22.4-50.7,40-81,52.3
		c-31.4,12.7-64.9,19.2-99.3,19.2s-67.8-6.5-99.3-19.2c-30.3-12.3-57.6-29.9-81-52.3c-23.4-22.4-41.7-48.4-54.5-77.4
		c-13.2-30-20-61.8-20-94.6V8h254.5H517.5 M525.5,0h-263H0v416.9c0,138.9,117.6,251.5,262.7,251.5c145.2,0,262.8-112.6,262.8-251.5
		V0L525.5,0z"/>
</g>
<path id="path4703" class="st65" d="M115.4,571.6c-6.3-5.1-6.4-11.7-6.3-15.7c0.1-5.1-8.8,1.7-8.1,4.9
	C101.4,562.8,98.5,574.7,115.4,571.6L115.4,571.6z"/>
<path id="path4701" class="st65" d="M70.3,533.2c0,0,1.4-15.1,13.2-17.2c7.1-1.4,2.6-7,2.6-7s-11.3-3.6-19,10.9
	C64.7,524.5,70.3,533.2,70.3,533.2z"/>
<path id="path4699" class="st65" d="M67.5,484.1c0.7-4.4,6.2-20.2,23-10.9c6.2,3.4,4.6,8.2,4.6,8.2s-3.4,4.2-7.4,1.3
	C76.8,475,77.7,473.4,67.5,484.1L67.5,484.1z"/>
<path id="path399" class="st65" d="M199.5,531.3c6-2.5,7.2-12.6,5.8-14.5c-7.4-9.9-16.7-10.6-16.7-10.6s-4.7,4.1,4.6,10.8
	C202.4,523.7,199.7,529.4,199.5,531.3z"/>
<path id="path4794" class="st65" d="M208.1,69.5c0,2.9-2.6,5.3-5.9,5.3s-5.9-2.3-5.9-5.3s2.6-5.3,5.9-5.3
	C205.5,64.2,208.1,66.6,208.1,69.5z M214.5,43.3c0,6.4-5.7,11.6-12.6,11.6s-12.6-5.2-12.6-11.6s5.7-11.6,12.6-11.6
	C208.8,31.7,214.5,36.9,214.5,43.3z M208.2,59.1c0,2.9-2.6,5.3-5.9,5.3s-5.9-2.4-5.9-5.3c0-2.9,2.6-5.3,5.9-5.3
	C205.6,53.9,208.2,56.2,208.2,59.1z M208.1,90.7c0,2.9-2.6,5.3-5.9,5.3s-5.9-2.3-5.9-5.3c0-2.9,2.6-5.3,5.9-5.3
	C205.5,85.4,208.1,87.8,208.1,90.7z M208.1,80.2c0,2.9-2.6,5.3-5.9,5.3s-5.9-2.3-5.9-5.3c0-2.9,2.6-5.3,5.9-5.3
	C205.5,74.9,208.1,77.2,208.1,80.2z M242.5,84.4c0,2.9,2.6,5.3,5.9,5.3c3.2,0,5.9-2.3,5.9-5.3s-2.6-5.3-5.9-5.3
	C245.1,79,242.5,81.5,242.5,84.4z M238.5,74.4c0,3,2.6,5.4,5.9,5.4s5.9-2.4,5.9-5.4s-2.6-5.4-5.9-5.4S238.5,71.4,238.5,74.4z
	 M230.1,66.9c0,2.9,2.6,5.3,5.9,5.3s5.9-2.3,5.9-5.3s-2.6-5.3-5.9-5.3C232.7,61.6,230.1,64,230.1,66.9z M219.6,62.3
	c0,2.9,2.6,5.3,5.9,5.3s5.9-2.3,5.9-5.3c0-2.9-2.6-5.3-5.9-5.3C222.2,57.1,219.6,59.4,219.6,62.3z M219.9,60c0,2.9-2.6,5.3-5.9,5.3
	s-5.9-2.3-5.9-5.3c0-2.9,2.6-5.3,5.9-5.3C217.3,54.7,219.9,57.1,219.9,60z M162.2,84.4c0,2.9-2.6,5.3-5.9,5.3s-5.9-2.3-5.9-5.3
	c0-2.9,2.6-5.3,5.9-5.3C159.6,79,162.2,81.5,162.2,84.4z M160.3,69c3.3,0,5.9,2.4,5.9,5.4s-2.6,5.4-5.9,5.4s-5.9-2.4-5.9-5.4
	S157.2,69,160.3,69z M174.5,66.9c0,2.9-2.6,5.3-5.9,5.3s-5.9-2.3-5.9-5.3c0-2.9,2.6-5.3,5.9-5.3C171.9,61.6,174.5,64.1,174.5,66.9z
	 M185.1,62.3c0,2.9-2.6,5.3-5.9,5.3s-5.9-2.3-5.9-5.3c0-2.9,2.6-5.3,5.9-5.3C182.5,57.1,185.1,59.4,185.1,62.3z M196.5,60
	c0,2.9-2.6,5.3-5.9,5.3s-5.9-2.3-5.9-5.3c0-2.9,2.6-5.3,5.9-5.3C193.9,54.7,196.5,57.1,196.5,60z M160.3,69c3.3,0,5.9,2.4,5.9,5.4
	s-2.6,5.4-5.9,5.4s-5.9-2.4-5.9-5.4S157.2,69,160.3,69z M236.7,105L236.7,105h-68.3c-2.1,0-3.8,2-3.8,4.5s1.7,4.5,3.8,4.5h68.3
	c2.1,0,3.8-2,3.8-4.5S238.9,105.1,236.7,105z M240.2,96.1L240.2,96.1h-74.9c-2.3,0-4.2,2-4.2,4.5s1.9,4.5,4.2,4.5c0.1,0,0.1,0,0.2,0
	H240c0.1,0,0.2,0,0.2,0c2.3,0,4.2-2,4.2-4.5C244.4,98,242.5,96.1,240.2,96.1z"/>
<g>
	<g>
		<g>
			<defs>
				<rect id="SVGID_15_" x="8.3" y="21.1" width="509.6" height="618.9"/>
			</defs>
			<clipPath id="SVGID_2_">
				<use xlink:href="#SVGID_15_"  style="overflow:visible;"/>
			</clipPath>
			<path id="path169" style="clip-path:url(#SVGID_2_);fill:#010202;" d="M263.4,164.9c0,0-8.1-9-9-9c5.5-4.7,9.5-7.5,9-10.8
				c-3.1,2.8-15.6-0.5-16.4-6.6c3.4-1.5,2.5-0.6,9.7-9c-22,2.9-19.6-16.7-19.6-16.7l-68.6-0.7l-6.8,13.5l61.4,64.8
				c0,0,9.2,16.9,9,21.9c-9.4-2-12.7-5.8-34.3,11c-21.1-7.7-15.8-3.9-52.1,7.6c-12.2,3.9-23.8-4.2-23.8-4.2S110,213,128.5,205
				c1.2-2.8-13.4-22.1-32.9-45c-26-37.8-51.7-86.5-66.7-112c-23.3,33.8-5.8,69,21.7,100.1c7.1,8.5,23.1,25.7,30.7,32.2
				c13,12.6,16.1,14.9,16.1,17.6c-2.7-0.1-7.1-1.6-9-1.7c-4.6-1.2-52.4-25.4-66.5-39c-11.4,41,13,49.3,31.7,54.5
				c14.2,3.9,27.3,6.7,38.2,8.5c-0.3,1.2-0.1,0.8-0.3,1.4c-17.7,4.7-53.1,7.2-72.8,3.2c-5,43,60.4,27.9,76,17.2c0.9,0,1.3,0,1.3,0
				s-0.6,1.7-1,3.1c-16.8,15.2-59.7,32.1-72.3,36.8c24.2,48.9,77.9-13.6,84.9-22.7c1.1,0,1.3,0,2.2,0c5.8,7.1-66.4,100.3-78.5,114.7
				c50.1,29.4,83.8-65.6,102.6-105.1c2.4,0.5,3.3,0.4,3.3,0.4s0.2,6-0.7,8c0.5,3.5-41.6,136.5-59.9,175
				c77.7,1.2,72.8-122.6,85.2-180.9c0.4-1.3,2.1-1.4,3.9-1c4.3,6.2-0.9,108.6-4.6,138.9c59.4-17.5,31.8-131.6,34.2-144
				c2.3-5.7,6.3-4,6.3-4s23.4,68.9,22.6,75c-2.7,5.8-54.1,111-54.1,111l26.9-5.6c0,0,14.9,47.7,17.4,48.9
				c19.1-69.4,23.3-91.7,26.4-94.8c6,20.7,24.1,58.4,15.8,104.7c-8.2,46.3-43.3,77.9-64.4,76.2c-11.6-0.3-11.8-8.3-9.9-10.5
				c14.4-16.2,9.1-33.3-8.1-34.5c-7.4-0.6-25.9,1.2-30.7,14.9c-1.2,3.5,1.9,3.5,1.9,3.5s4.2-3.8,12-4.8c23.2-3-15.8,23.9-13.3,42.6
				c0.8,6,4.5,11,7,13.3c6.7,6.3,20,6,22.5,5.8c3.5-0.2,41.2,3.5,82.8-59c1.1-1.8,2.3,0.4,2,6.2c-0.7,13.8-18.3,36.9-26.2,45.2
				c-2.3,2.4-5.5,14.6,3.2,17.6c12.8,4.6,27.8,19.6,27.8,19.6L263.4,164.9L263.4,164.9z"/>
		</g>
	</g>
</g>
<path id="path201" class="st0" d="M207.9,129.5c0,2.5-3.2,4.5-7.2,4.5c-3.9,0-7.2-2-7.2-4.5c0-2.4,3.3-4.4,7.2-4.4
	C204.6,125.1,207.9,127.1,207.9,129.5"/>
<path id="path205" class="st3" d="M201.4,128.8c0,1.8-1.6,3.1-3.6,3.1s-3.6-1.4-3.6-3.1c0-1.7,1.6-3.1,3.6-3.1
	C199.7,125.8,201.4,127.1,201.4,128.8"/>
<path id="path209" class="st0" d="M187.8,119.6c0,0-5.6,0.9-5.6,5c0.1,6.7,19.5-4.1,31.2-1.8c-8.5-3.9-26.5,3.8-27.7,0.8
	C185.2,122.8,187.8,119.6,187.8,119.6"/>
</svg>
