<svg id="Calque_1" data-name="Calque 1" xmlns="http://www.w3.org/2000/svg" viewBox="0 0 525.8 665.8"><defs><style>.cls-1{fill:#e21013;}.cls-2{fill:none;}.cls-3{fill:#010101;}.cls-4{fill:#fff;}</style></defs><title>Plan de travail 2</title><path class="cls-1" d="M4,3.82,525.5-.24l-4.39,429S486.42,665.64,263,661.64C25,657.38,7,429.7,5.43,411.47Z"/><path class="cls-2" d="M263,661.64A259.31,259.31,0,0,1,4.12,401.82L4,3.82l517.7-.16.12,398A259.29,259.29,0,0,1,263,661.64Z"/><path class="cls-3" d="M517.61,7.77l.11,394a254.8,254.8,0,1,1-509.6.15L8,7.92l509.6-.15m8-8L-.1-.08l.12,402c.05,145.7,117.79,263.77,262.89,263.72S525.67,547.46,525.62,401.76l-.12-402Z"/><rect class="cls-4" x="205.24" y="103.28" width="119.07" height="398.16"/><rect class="cls-4" x="203.38" y="103.28" width="119.07" height="398.16" transform="translate(565.27 39.44) rotate(90)"/></svg>