<?xml version="1.0" encoding="utf-8"?>
<!-- Generator: Adobe Illustrator 23.0.1, SVG Export Plug-In . SVG Version: 6.00 Build 0)  -->
<svg version="1.1" id="Calque_1" xmlns="http://www.w3.org/2000/svg" xmlns:xlink="http://www.w3.org/1999/xlink" x="0px" y="0px"
	 viewBox="0 0 100 125" style="enable-background:new 0 0 100 125;" xml:space="preserve">
<style type="text/css">
	.st0{fill:#FFFFFF;}
</style>
<g>
	<path class="st0" d="M82,66.2H41.6c-5.6-11.9-9.5-28.1-9.5-52c0-2.6-2.1-4.7-4.7-4.7s-4.7,2.1-4.7,4.7c0,23.3,3.7,40.1,9,52.7
		c-1.3,0.8-2.1,2.2-2.1,3.9c0,2.6,2.1,4.7,4.7,4.7h1.6c4.8,8.8,10.3,15.2,15.5,20.7l-13.5,17c-1.6,2-1.3,4.9,0.8,6.6
		c0.8,0.7,1.9,1.1,2.9,1.1c1.4,0,2.8-0.6,3.6-1.8l12.5-15.8c4.3,4.8,7.7,9.1,9.5,14.4c0.6,2,2.5,3.3,4.5,3.3c0.5,0,0.9-0.1,1.4-0.2
		c2.5-0.8,3.9-3.4,3-5.9c-2.3-7.5-7.1-13.2-12.5-19l15.9-20.1H82c2.6,0,4.7-2.1,4.7-4.7C86.7,68.2,84.5,66.2,82,66.2z M57.1,88.8
		c-3.5-3.9-7.1-8.1-10.4-13.2h20.8L57.1,88.8z"/>
</g>
</svg>
