<?xml version="1.0" encoding="utf-8"?>
<!-- Generator: Adobe Illustrator 23.0.1, SVG Export Plug-In . SVG Version: 6.00 Build 0)  -->
<svg version="1.1" id="Calque_1" xmlns="http://www.w3.org/2000/svg" xmlns:xlink="http://www.w3.org/1999/xlink" x="0px" y="0px"
	 viewBox="0 0 6827 8192" style="enable-background:new 0 0 6827 8192;" xml:space="preserve">
<style type="text/css">
	.st0{fill:#FFFFFF;}
	.st1{fill-rule:evenodd;clip-rule:evenodd;fill:#FFFFFF;}
</style>
<g>
	<g>
		<g>
			<path class="st0" d="M2752.6,5675.2c-1.9,1-645.1,250.5-1163.5-1077.1c-40.3-103.7-58.6-130.6-109.4-207.3
				c-13.4-20.2-12.5-18.2-22.1-33.6c-466.5-700.8-358.1-1403.5-30.7-1894c140.2-210.2,320.6-382.1,512.6-498.2
				c195.8-119,406.1-180.5,601.9-169.9c290.9,16.3,545.3,191,672,575l0,0c111.4,313.9-49,544.3-219.8,787.2
				c-238.1,340.8-498.2,712.3,157.4,1416.9l14.4,23c1,1.9,350.4,797.7-412.8,1077.1V5675.2z"/>
		</g>
		<g>
			<path class="st0" d="M2400.3,1008.9c55.7-93.1,137.3-150.7,230.4-150.7s174.7,57.6,230.4,150.7c49,80.6,78.7,191,78.7,311
				s-29.8,229.4-78.7,311c-55.7,93.1-137.3,150.7-230.4,150.7s-174.7-57.6-230.4-150.7c-49-80.6-78.7-191-78.7-311
				S2351.3,1090.5,2400.3,1008.9z"/>
		</g>
		<g>
			<path class="st0" d="M1848.3,1227.8c44.2-73.9,109.4-120,185.3-120c75.8,0,141.1,46.1,185.3,120c37.4,61.4,60.5,145,60.5,236.1
				c0,90.2-23,174.7-60.5,236.1c-44.2,73.9-109.4,120-185.3,120c-75.8,0-141.1-46.1-185.3-120c-37.4-61.4-60.5-145-60.5-236.1
				C1787.8,1373.7,1810.9,1289.2,1848.3,1227.8z"/>
		</g>
		<g>
			<path class="st0" d="M1443.2,1607.9c40.3-66.2,98.9-107.5,167-107.5c68.2,0,127.7,41.3,167,107.5
				c32.6,53.8,52.8,127.7,52.8,206.4s-20.2,151.7-52.8,206.4c-40.3,66.2-98.9,107.5-167,107.5c-68.2,0-127.7-41.3-167-107.5
				c-32.6-53.8-52.8-127.7-52.8-206.4S1410.6,1662.6,1443.2,1607.9z"/>
		</g>
		<g>
			<path class="st0" d="M1145.6,2034.1c32.6-53.8,81.6-87.4,138.2-87.4c57.6,0,105.6,33.6,138.2,87.4c25,42.2,40.3,97.9,40.3,158.4
				s-15.4,116.2-40.3,157.4c-32.6,53.8-81.6,87.4-138.2,87.4c-57.6,0-105.6-33.6-138.2-87.4c-25-42.2-40.3-97.9-40.3-157.4
				C1105.3,2132.1,1120.7,2076.4,1145.6,2034.1z"/>
		</g>
		<g>
			<path class="st1" d="M1038.1,2438.3c-46.1,0-82.6,61.4-82.6,137.3c0,75.8,37.4,137.3,82.6,137.3c46.1,0,82.6-61.4,82.6-137.3
				C1120.7,2499.7,1083.2,2438.3,1038.1,2438.3z"/>
		</g>
		<g>
			<path class="st0" d="M5237.9,4598.2c-518.4,1327.6-1161.5,1078-1163.5,1077.1c-763.2-278.4-413.7-1074.2-412.8-1077.1l14.4-23
				c124.8-134.4,216.9-256.3,283.2-367.7c21.1-35.5,39.4-70.1,54.7-103.7h336.9c98.9,0,178.6-79.7,178.6-178.6
				c0-222.7,45.1-1364.1-63.4-1449.5c-1.9-1-2.9-2.9-4.8-3.8l-77.8-61.4l0,0l-353.3-278.4c-65.3-51.8-157.4-54.7-223.7-2.9
				l-76.8,60.5l0,0l-65.3,50.9c137.3-295.7,365.7-432.9,622-447.3c195.8-11.5,406.1,50.9,601.9,169.9
				c193,116.2,372.5,288,512.6,498.2c327.3,491.5,435.8,1193.2-30.7,1894c-9.6,14.4-8.6,12.5-22.1,33.6
				c-51.8,76.8-69.1,103.7-109.4,207.3L5237.9,4598.2z"/>
		</g>
		<g>
			<path class="st0" d="M4196.3,858.2c93.1,0,174.7,57.6,230.4,150.7c49,80.6,78.7,191,78.7,311s-29.8,229.4-78.7,311
				c-55.7,93.1-137.3,150.7-230.4,150.7c-93.1,0-174.7-57.6-230.4-150.7c-49-80.6-78.7-191-78.7-311s29.8-229.4,78.7-311
				C4021.6,915.8,4103.2,858.2,4196.3,858.2z"/>
		</g>
		<g>
			<path class="st0" d="M4792.5,1107.8c75.8,0,141.1,46.1,185.3,120c37.4,61.4,60.5,145,60.5,236.1c0,90.2-23,174.7-60.5,236.1
				c-44.2,73.9-109.4,120-185.3,120s-141.1-46.1-185.3-120c-37.4-61.4-60.5-145-60.5-236.1c0-90.2,23-174.7,60.5-236.1
				C4651.4,1153.9,4716.6,1107.8,4792.5,1107.8z"/>
		</g>
		<g>
			<path class="st0" d="M5216.8,1500.4c68.2,0,127.7,41.3,167,107.5c32.6,53.8,52.8,127.7,52.8,206.4s-20.2,151.7-52.8,206.4
				c-40.3,66.2-98.9,107.5-167,107.5s-127.7-41.3-167-107.5c-32.6-53.8-52.8-127.7-52.8-206.4s20.2-151.7,52.8-206.4
				C5090.1,1541.7,5148.6,1500.4,5216.8,1500.4z"/>
		</g>
		<g>
			<path class="st0" d="M5542.2,1946.8c57.6,0,105.6,33.6,138.2,87.4c25,42.2,40.3,97.9,40.3,158.4s-15.4,116.2-40.3,157.4
				c-32.6,53.8-81.6,87.4-138.2,87.4c-57.6,0-105.6-33.6-138.2-87.4c-25-42.2-40.3-97.9-40.3-157.4c0-60.5,15.4-116.2,40.3-158.4
				C5436.6,1980.4,5485.6,1946.8,5542.2,1946.8z"/>
		</g>
		<g>
			<path class="st1" d="M5787.9,2438.3c46.1,0,82.6,61.4,82.6,137.3c0,75.8-37.4,137.3-82.6,137.3c-46.1,0-82.6-61.4-82.6-137.3
				C5705.4,2499.7,5742.8,2438.3,5787.9,2438.3z"/>
		</g>
		<g>
			<path class="st1" d="M3866.1,2212.7l-431,339.8c-20.2,14.4-33.6,38.4-33.6,64.3V3930c0,44.2,35.5,79.7,79.7,79.7H4349
				c44.2,0,79.7-35.5,79.7-79.7V2617.8c0-24-10.6-47-29.8-62.4l0,0l-431-338.9c-27.8-25-71-26.9-101.8-2.9l0,0V2212.7z
				 M3998.6,2578.4L3998.6,2578.4z M3832.5,2578.4c21.1-21.1,51.8-34.6,83.5-34.6c32.6,0,61.4,13.4,82.6,34.6l0,0
				c46.1,47,46.1,120,0,166.1l0,0c-5.8,4.8-10.6,9.6-17.3,13.4l-1,1c-16.3,10.6-35.5,17.3-53.8,19.2l0,0l0,0l0,0l0,0l0,0l0,0l0,0
				l0,0l0,0l0,0l0,0l0,0l0,0l0,0l0,0l0,0l0,0c-33.6,2.9-68.2-8.6-93.1-33.6c-46.1-46.1-46.1-121,0-166.1H3832.5z"/>
		</g>
	</g>
</g>
</svg>
