<?xml version="1.0" encoding="utf-8"?>
<!-- Generator: Adobe Illustrator 23.0.1, SVG Export Plug-In . SVG Version: 6.00 Build 0)  -->
<svg version="1.1" id="Calque_1" xmlns="http://www.w3.org/2000/svg" xmlns:xlink="http://www.w3.org/1999/xlink" x="0px" y="0px"
	 viewBox="0 0 100 92" style="enable-background:new 0 0 100 92;" xml:space="preserve">
<style type="text/css">
	.st0{fill:#FFFFFF;}
</style>
<g>
	<path class="st0" d="M24.6,25.6c3.8,0.3,4,2.9,4,2.9c1.4-0.8,3-4.1,3-4.1s0,0-3-0.2s-4.9-1.7-6.5-1.2
		C20.5,23.5,20.8,25.2,24.6,25.6z"/>
	<path class="st0" d="M17.4,39.5c-0.2,0.8-0.4,1.3-0.4,1.3C5.4,57.6,4.7,71,5.1,76.6c0.1,1.6,1.4,2.8,3,2.9c4.1,0.2,15-2.6,14-2.1
		c1-0.5,1.7-1.5,1.8-2.6c1.1-15.4,1.6-21.3,3.7-23.2C27.1,45.2,21.3,41.3,17.4,39.5z"/>
	<path class="st0" d="M92.8,23.7h-0.6v-2.4c0-0.4-0.4-0.8-0.8-0.8h-4c-0.3,0-0.5,0.1-0.7,0.4c-0.3,0.5-0.9,1.3-2.5,1.9v0.9H62.9
		c-0.5-0.7-1.3-1.2-2.2-1.2h-9.8c-1,0-2-0.4-2.7-1l-1.1-1H34.3c-3.1,12.2-12.1,14.6-15.5,15.1c-0.7,0.1-1.2,0.7-1.2,1.4
		c0,0.1,0,0.2,0,0.3c4.2,1.8,11,6,11.7,13.3c3.1-0.4,4.1,2.1,4.1,2.1c0.7,9,5,13.5,14.5,11.1c10.4-2.7,8.2-12.2,8.2-12.2l6-5.4
		c0.9-0.8,1.4-1.9,1.4-3v-5.6h8v-2.3h-3.9c-0.8,0-1.5-0.7-1.4-1.5c0-0.3,0.1-0.6,0.3-0.8h26.4c1.2,0,2.2-1,2.2-2.2V26
		C95,24.7,94,23.7,92.8,23.7z M39.1,28.4c0-0.4,0.3-0.6,0.6-0.6h2.5c0.4,0,0.6,0.3,0.6,0.6v13.8c0,0.4-0.3,0.6-0.6,0.6h-2.5
		c-0.4,0-0.6-0.3-0.6-0.6V28.4z M51.6,58.8c-4.3,4.4-14.5,3.6-14.8-2.5c-0.1-3.6,2.4-5.4,5.3-6.3c-0.1,2.8,0.5,7.5,5,9.2
		c0.5,0.2,0.9-0.4,0.6-0.8c-1.2-1.7-2.8-4.9-2.3-9c2.2-0.2,4.2,0.1,4.8,0.4c1.2,0.6,1.8,1.3,2.2,1.9C53.7,54,53.4,56.9,51.6,58.8z
		 M58,42.3c0,0.3-0.2,0.6-0.6,0.6H47.3c-0.9,0-1.7-0.8-1.7-1.7s0.8-1.7,1.7-1.7h10.1c0.3,0,0.6,0.2,0.6,0.6V42.3z M58,36.4
		c0,0.3-0.2,0.6-0.6,0.6H47.3c-0.9,0-1.7-0.8-1.7-1.7s0.8-1.7,1.7-1.7h10.1c0.3,0,0.6,0.2,0.6,0.6V36.4z M58,30.6
		c0,0.3-0.2,0.6-0.6,0.6H47.3c-0.9,0-1.7-0.8-1.7-1.7c0-0.9,0.8-1.7,1.7-1.7h10.1c0.3,0,0.6,0.2,0.6,0.6V30.6z"/>
</g>
</svg>
