<?xml version="1.0" encoding="utf-8"?>
<!-- Generator: Adobe Illustrator 23.0.1, SVG Export Plug-In . SVG Version: 6.00 Build 0)  -->
<svg version="1.1" id="Calque_1" xmlns="http://www.w3.org/2000/svg" xmlns:xlink="http://www.w3.org/1999/xlink" x="0px" y="0px"
	 viewBox="0 0 96 120" style="enable-background:new 0 0 96 120;" xml:space="preserve">
<style type="text/css">
	.st0{fill-rule:evenodd;clip-rule:evenodd;fill:#FFFFFF;}
</style>
<g transform="scale(1 -1)">
	<g transform="translate(0 -96)">
		<g>
			<path marker-end="none" marker-start="none" class="st0" d="M10.5,0v11.2l0,0v2.3l0,0v23c-4.1,0.8-5.8,2.2-7.6,3.4l-2.8,1.9
				l3.3,0.8c18,4.2,34,23.3,39.8,31.1l4.8,6.8l4.8-6.8c6.8-9,22-27.2,39.7-31.2l3.4-0.8L93,39.8c-1.7-1.1-3.4-2.6-7.6-3.4v-5l0,0
				v-2.3l0,0V27l0,0v-2.3l0,0V0H10.5z M82.5,3v0.7h-69V3H82.5z M29.2,6v5.2H13.5V6H29.2z M82.5,6v5.2H66.8V6H82.5z M63,12v0.7H33V12
				H63z M33.8,12.7v3h4.5v-3H39v3h5.3v-3H45v3h6v-3h0.7v3H57v-3h0.7v3h4.5v-3H63v3l0,0v0.7l0,0v3l0,0v0.7l0,0V24h-0.7l0,0h-4.5l0,0
				H57l0,0h-5.3l0,0H51l0,0H39l0,0h-0.7l0,0H33v-0.7l0,0V12.7H33.8z M29.2,13.5v11.2H13.5V13.5H29.2z M82.5,13.5v11.2H66.8V13.5
				H82.5z M33.8,16.5v3h4.5v-3H33.8z M39,16.5v3h5.3v-3H39z M45,16.5v3h6v-3H45z M51.7,16.5v3H57v-3H51.7z M57.8,16.5v3h4.5v-3H57.8
				z M33.8,20.2v3h4.5v-3H33.8z M39,20.2v3h5.3v-3H39z M45,20.2v3h6v-3H45z M51.7,20.2v3H57v-3H51.7z M57.8,20.2v3h4.5v-3H57.8z
				 M29.2,27v2.2H13.5V27H29.2z M46.5,27v2.2h-15V27H46.5z M64.5,27v2.2H48.8V27H64.5z M82.5,27v2.2H66.8V27H82.5z M29.2,31.5V34H23
				c-3.9,0-6.4,0.5-8.2,1.1c-0.5,0.2-1,0.4-1.4,0.6v-4.3h15.8V31.5z M46.5,31.5V34h-15v-2.5H46.5z M64.5,31.5V34H48.8v-2.5H64.5z
				 M82.5,31.5v4.3c-0.4-0.2-0.8-0.4-1.4-0.6C79.3,34.5,76.8,34,73,34h-6.2v-2.5H82.5z M23.2,37v3.2c-0.5-0.2-1-0.4-1.5-0.6V37h-0.6
				c0.6,0,1.2,0,1.8,0C22.9,37,23.2,37,23.2,37z M25.5,37v4.1c-0.5-0.2-1-0.4-1.5-0.6V37H25.5z M27.7,37v5.1c-0.5-0.2-1-0.5-1.5-0.7
				V37H27.7z M30,37v6.2l0,0c-0.5-0.2-1-0.5-1.5-0.7V37H30z M32.2,37v7.5c-0.5-0.3-1-0.6-1.5-0.8V37H32.2z M34.5,37v4.1h-0.1h-0.1
				h-0.1l0,0h-0.1H34l0,0l0,0l0,0h-0.1l0,0l0,0l0,0h-0.1l0,0l0,0l0,0l0,0l0,0l0,0v0.1v0.1l0,0l0,0v0.1v0.1l0,0l0,0v0.1v0.1l0,0l0,0
				v0.1v0.1l0,0l0,0V42v0.1l0,0l0,0v0.1v0.1l0,0l0,0l0,0l0,0l0,0l0,0l0,0l0,0l0,0l0,0h0.1l0,0c0.2,0.1,0.3,0.2,0.5,0.3v2.3
				c-0.3-0.2-0.6-0.4-0.9-0.6L33,44.9V37H34.5z M36.7,37v4.1h-1.5V37H36.7z M39,37v4.1h-1.5V37H39z M41.2,37v4.1h-1.5V37H41.2z
				 M43.5,37v4.1H42V37H43.5z M45.7,37v4.1h-1.5V37H45.7z M48,37v4.1h-1.5V37H48z M50.2,37v4.1h-1.5V37H50.2z M52.5,37v4.1H51V37
				H52.5z M54.7,37v4.1h-1.5V37H54.7z M57,37v4.1h-1.5V37H57z M59.2,37v4.1h-1.5V37H59.2z M61.5,37v4.1H60V37H61.5z M63.7,37v4.1
				h-1.5V37H63.7z M66,37v4.1h-1.5V37H66z M68.2,37v5.1c-0.5,0.2-1,0.5-1.5,0.7v-1.7l0.2-0.1h-0.2v-4.1L68.2,37L68.2,37z M70.5,37
				v4.1c-0.5,0.2-1,0.4-1.5,0.7V37H70.5z M72.7,37v3.2c-0.5,0.2-1,0.4-1.5,0.6V37H72.7z M73.5,37L73.5,37L73.5,37c0.5,0,1,0,1.5,0
				v2.4c-0.5,0.2-1,0.4-1.5,0.5V37L73.5,37H73C73.1,37,73.3,37,73.5,37z M21.2,37.1H21l0,0C21.1,37.1,21.1,37.1,21.2,37.1z M21,37.1
				L21,37.1L21,37.1v2.4c-0.5-0.2-1-0.3-1.5-0.5v-1.7C20.1,37.1,20.5,37.1,21,37.1z M75.4,37.1H75l0,0
				C75.2,37.1,75.4,37.1,75.4,37.1z M75.7,37.1L75.7,37.1L75.7,37.1c0.6,0,1.1,0.1,1.5,0.2v1.4c-0.5,0.2-1,0.3-1.5,0.5V37.1
				L75.7,37.1h-0.4C75.5,37.1,75.6,37.1,75.7,37.1z M19.7,37.2l-0.9,0.1v1.4c-0.4-0.1-0.7-0.2-1.1-0.3l-0.4-0.1v-0.7h-0.1l0,0
				c-0.2,0-0.1,0-0.1,0C17.7,37.4,18.6,37.3,19.7,37.2z M77.7,37.4l-0.5-0.1l0,0C77.4,37.3,77.6,37.3,77.7,37.4z M78,37.4
				c0.6,0.1,1.1,0.2,1.6,0.4l0.4,0.1l0,0l-0.5-0.1v0.3l-1.2,0.3c-0.1,0-0.2,0.1-0.3,0.1V37.4h-0.2C77.8,37.4,77.9,37.4,78,37.4z
				 M17.1,37.6l-0.6,0.2v0.3L16,37.9l0.4-0.1C16.6,37.7,16.7,37.7,17.1,37.6z M85.7,39.6L85.7,39.6L85.7,39.6
				c0.7,0.2,1.3,0.4,1.9,0.6l1,0.4l-0.2,0.1c-0.2,0.1-0.3,0.1-0.5,0.2v-0.5l-0.3-0.1l-0.4-0.1v1c-0.5,0.2-1,0.4-1.5,0.5V39.6
				L85.7,39.6L85.7,39.6L85.7,39.6L85.7,39.6z M10.3,39.6h0.2v0.1h0.3l0.2,0.1V42c-0.5-0.2-1-0.4-1.5-0.6v-1.6L8.8,40v1.1
				C8.4,41,8,40.9,7.7,40.7l-0.3-0.1l0,0l0,0l1-0.5C8.9,40,9.5,39.8,10.3,39.6z M85,39.8V42c-0.5,0.2-1,0.4-1.5,0.6v-2.5
				c0.3-0.1,0.5-0.1,0.8-0.2L85,39.8z M13.2,40.3V43c-0.5-0.2-1-0.5-1.4-0.7v-2.4C12.2,40.1,12.7,40.2,13.2,40.3z M82.8,40.3v2.6
				c-0.5,0.2-1,0.5-1.4,0.7v-3C81.8,40.5,82.3,40.4,82.8,40.3z M15.4,40.8v3.3c-0.5-0.3-1-0.5-1.4-0.8v-2.9
				C14.4,40.6,14.9,40.7,15.4,40.8z M80.6,40.8V44c-0.5,0.3-1,0.5-1.4,0.8v-3.6C79.7,41.1,80.1,41,80.6,40.8z M87.9,40.9L87.9,40.9
				l-0.7,0.3l0,0C87.4,41,87.7,40.9,87.9,40.9z M17.5,41.5v3.9l-0.3-0.2c-0.4-0.2-0.8-0.5-1.2-0.7V41C16.6,41.2,17.1,41.3,17.5,41.5
				z M26.1,41.4L26.1,41.4c0.1,0,0.1,0,0.1,0.1l0,0L26.1,41.4z M78.5,41.5v3.8c-0.5,0.3-1,0.6-1.4,0.9V42
				C77.5,41.8,78,41.6,78.5,41.5z M66,41.6v1.7c-0.5,0.3-1,0.5-1.5,0.8v-1.9L66,41.6z M85.7,41.7L85.7,41.7l-0.5,0.2
				C85.4,41.8,85.5,41.7,85.7,41.7z M19.7,42.2v4.6c-0.5-0.3-1-0.6-1.5-0.9v-4.1C18.7,41.8,19.2,42,19.7,42.2z M85.2,41.9L85.2,41.9
				L85.2,41.9L85.2,41.9z M85.2,41.9L85,42l0,0C85,41.9,85.1,41.9,85.2,41.9z M76.3,42.2v4.4c-0.1,0.1-0.2,0.1-0.3,0.2
				c-0.4,0.3-0.8,0.5-1.2,0.8v-4.9C75.3,42.5,75.8,42.3,76.3,42.2z M21.9,43v5.3c-0.5-0.3-1-0.7-1.5-1v-4.8
				C20.9,42.6,21.4,42.8,21.9,43z M63.7,42.5v2c-0.5,0.3-1,0.6-1.5,0.9v-2.2L63.7,42.5z M83.5,42.6L83.5,42.6L82.8,43l0,0
				C83.1,42.8,83.3,42.7,83.5,42.6z M74.1,43v5.1c-0.3,0.2-0.7,0.5-1,0.7c-0.2,0.1-0.3,0.2-0.5,0.3v-5.6
				C73.1,43.3,73.6,43.1,74.1,43z M13.9,43.4L13.9,43.4L13.2,43l0,0C13.4,43.1,13.7,43.2,13.9,43.4z M24.1,43.8v6
				c-0.3-0.2-0.6-0.4-0.9-0.6l-0.6-0.4v-5.5C23.1,43.4,23.6,43.6,24.1,43.8z M66,43.3L66,43.3L66,43.3C66.1,43.3,66,43.3,66,43.3z
				 M30,43.3L30,43.3L30,43.3c0.3,0.1,0.5,0.3,0.8,0.4l0,0L30,43.3z M47.2,48.9c0,0.1,0.1,0.2,0.2,0.3c0.2,0.1,0.4,0.2,0.5,0.2
				c0.2,0,0.4-0.1,0.5-0.2c0.1-0.1,0.2-0.2,0.2-0.3c1.9-2.1,4.2-3.8,6.5-5.5H57l-0.4,0.3c-2.9,2-5.8,4.6-8.7,7.8l-0.8-0.9
				c-2.8-3-5.4-5.2-8.4-7.1h-0.1h1.9C43,45.1,45.3,46.9,47.2,48.9z M47.9,47.5c-1.5-1.5-3.1-2.8-4.8-4.1h9.5
				C51,44.7,49.4,46,47.9,47.5z M61.5,43.5v2.3c-0.5,0.3-1,0.6-1.5,1v-2.5C60.5,44,61,43.8,61.5,43.5z M81.4,43.7L81.4,43.7
				l-0.7,0.4l0,0C80.9,43.9,81.1,43.8,81.4,43.7z M71.9,43.8v5.9c-1.2,0.9-2.5,1.9-3.6,2.9v-4.3l1.4-0.9v4l0.7-0.5l0.1-0.1v-3.9
				l0.1-0.1h-0.1v-2.4C71,44.2,71.4,44,71.9,43.8z M36.7,44.8v2.5c-0.5-0.3-1-0.7-1.5-1V44C35.8,44.2,36.3,44.5,36.7,44.8z
				 M26.2,44.8v2h-0.4c0.1,0.1,0.3,0.2,0.4,0.3v4.5L26,51.3c-0.4-0.3-0.8-0.6-1.2-0.9v-6.2C25.3,44.3,25.8,44.6,26.2,44.8z
				 M59.2,44.7v2.6c-0.5,0.3-1,0.7-1.5,1v-2.6C58.2,45.3,58.7,45,59.2,44.7z M69.8,44.8v2.1h-1.5v-1.4C68.8,45.2,69.3,45,69.8,44.8z
				 M79.2,44.8L79.2,44.8L79,44.9C79.1,44.9,79.1,44.9,79.2,44.8z M79,44.9L79,44.9l-0.5,0.3l0,0C78.6,45.2,78.8,45.1,79,44.9z
				 M28.4,45.8v0.9h-1.5v-1.6C27.4,45.4,27.9,45.6,28.4,45.8z M39,46.3v2.6c-0.5-0.4-1-0.7-1.5-1.1v-2.5C38,45.6,38.5,46,39,46.3z
				 M67.6,45.8v1h-1.5v-0.3C66.6,46.3,67.1,46.1,67.6,45.8z M77,46.1L77,46.1l-0.7,0.5l0,0C76.5,46.5,76.8,46.3,77,46.1z M30.1,46.8
				h-1v-0.5C29.5,46.4,29.8,46.6,30.1,46.8z M57,46.2v2.7c-0.5,0.4-1,0.8-1.5,1.1v-2.6C56,47,56.5,46.6,57,46.2z M20.3,47.1
				L20.3,47.1L20.3,47.1l-0.6-0.4l0,0C19.9,46.9,20.1,47,20.3,47.1z M41.2,48v2.6c-0.3-0.3-0.7-0.6-1.1-0.8l-0.4-0.3v-2.6
				C40.3,47.2,40.8,47.6,41.2,48z M20.3,47.1L20.3,47.1c0.1,0.1,0.1,0.1,0.2,0.1l0,0L20.3,47.1z M37,47.4l-0.2-0.1l0,0
				C36.8,47.3,36.9,47.4,37,47.4z M37,47.4L37,47.4L37,47.4L37,47.4z M37.5,47.8L37.5,47.8L37,47.4C37.2,47.6,37.3,47.7,37.5,47.8z
				 M28.4,48.6v4.7c-0.5-0.4-1-0.8-1.5-1.2v-4.6C27.4,47.9,27.9,48.3,28.4,48.6z M74.8,47.6L74.8,47.6l-0.7,0.5l0,0
				C74.4,47.9,74.6,47.7,74.8,47.6z M54.7,48v2.6c-0.5,0.4-1,0.8-1.5,1.2v-2.5C53.7,48.9,54.2,48.4,54.7,48z M43.5,50.1v2.4
				c-0.5-0.4-1-0.9-1.5-1.3v-2.5C42.5,49.1,43,49.6,43.5,50.1z M67.6,48.8v4.4c-1.3,1.1-2.5,2.2-3.6,3.3v-5.2c0.5-0.4,1-0.8,1.5-1.1
				v4.9l0.7-0.7v-4.8c0.4-0.3,0.8-0.6,1.2-0.8L67.6,48.8z M63.2,49.1l-0.5,0.4c-4.2,3.3-8.6,7.9-13.1,13.4L48,65l-0.4-0.4
				c-5.3-6.4-9.8-11-15.1-15.4h1.6c2.4,1.6,4.6,3.3,6.8,5L44,57l4,4.5l4-4.5l3.1-2.8c2.1-1.8,4.4-3.5,6.8-5.1
				C61.9,49.1,63.2,49.1,63.2,49.1z M72.7,49.1L72.7,49.1l-0.4,0.3C72.4,49.4,72.5,49.3,72.7,49.1z M30.6,50.4v4.9
				c-0.5-0.4-1-0.9-1.5-1.3v-4.8C29.6,49.6,30.1,50,30.6,50.4z M72.3,49.4l-0.4,0.3l0,0C72,49.6,72,49.6,72.3,49.4z M52.5,50.1v2.4
				c-0.5,0.4-1,0.9-1.5,1.3v-2.2C51.5,51.1,52,50.6,52.5,50.1z M45.7,52.4v2.1c-0.5-0.5-1-0.9-1.5-1.4v-2.3
				C44.7,51.3,45.2,51.8,45.7,52.4z M32.8,52.2v5.1c-0.5-0.5-1-0.9-1.5-1.4v-5C31.8,51.4,32.3,51.8,32.8,52.2z M63.2,52v5.3
				c-0.1,0.1-0.3,0.3-0.4,0.4c-0.4,0.4-0.7,0.7-1,1.1v-5.5C62.3,52.8,62.8,52.4,63.2,52z M52.8,52.2L52.8,52.2L52.8,52.2L52.8,52.2z
				 M52.8,52.2l-0.3,0.3l0,0C52.6,52.4,52.7,52.3,52.8,52.2z M50.2,52.4v2.1c-0.1,0.1-0.2,0.2-0.3,0.3l0,0L48,57l0.7-0.8v-2l0.1-0.1
				C49.3,53.4,49.8,52.9,50.2,52.4z M68.3,52.6L68.3,52.6l-0.5,0.5C68,52.9,68.1,52.8,68.3,52.6z M34.9,54.2v5.3
				c-0.4-0.4-0.9-0.9-1.3-1.3L33.5,58v-5.2C34,53.3,34.5,53.8,34.9,54.2z M67.8,53.1l-0.2,0.2l0,0C67.6,53.2,67.7,53.1,67.8,53.1
				L67.8,53.1z M47.1,54l0.9,1v2l0,0l-1.9-2.1l0.4,0.4v-2.1C46.7,53.5,46.9,53.7,47.1,54z M28.7,53.6L28.7,53.6
				c0.2,0.1,0.3,0.3,0.5,0.4l0,0L28.7,53.6z M51,53.8L51,53.8l-0.8,0.7l0,0C50.5,54.3,50.7,54.1,51,53.8z M61.1,53.9v5.6
				c-0.1,0.2-0.3,0.3-0.4,0.5c-0.3,0.4-0.7,0.7-1,1.1v-5.8C60.1,54.8,60.6,54.3,61.1,53.9z M37.1,56.3v5.5c-0.4-0.5-0.8-0.9-1.3-1.4
				l-0.2-0.2v-5.4C36.2,55.3,36.6,55.8,37.1,56.3z M31.2,55.9L31.2,55.9C31.3,55.9,31.3,55.9,31.2,55.9L31.2,55.9L31.2,55.9z
				 M58.9,56v5.8c-0.1,0.1-0.2,0.3-0.4,0.4c-0.4,0.4-0.7,0.8-1.1,1.2v-6C57.9,56.9,58.4,56.4,58.9,56z M64,56.6L64,56.6l-0.7,0.7
				l0,0C63.5,57,63.7,56.8,64,56.6z M39.3,58.5v5.7c-0.5-0.5-0.9-1-1.4-1.6l-0.1-0.1V57C38.3,57.5,38.8,58,39.3,58.5z M63.2,57.3
				l-0.4,0.4L63.2,57.3z M56.7,58.2v6c-0.1,0.1-0.1,0.1-0.2,0.2c-0.4,0.5-0.9,1-1.3,1.5v-6.2C55.7,59.2,56.2,58.7,56.7,58.2z
				 M61.8,58.7L61.8,58.7l-0.7,0.8l0,0C61.3,59.2,61.5,59,61.8,58.7z M41.5,60.8v6c-0.5-0.6-0.9-1.1-1.5-1.7v-5.8
				C40.5,59.8,41,60.3,41.5,60.8z M54.5,60.6v6.2c-0.5,0.6-1,1.2-1.4,1.8v-6.3C53.6,61.7,54,61.1,54.5,60.6z M59.6,61L59.6,61
				l-0.7,0.8l0,0C59.1,61.5,59.4,61.3,59.6,61z M43.6,63.3v6.2c-0.5-0.6-0.9-1.2-1.5-1.8v-6.1C42.7,62.2,43.2,62.7,43.6,63.3z
				 M52.3,63.1v6.4c-0.5,0.7-1,1.3-1.4,1.9v-6.5C51.4,64.3,51.9,63.7,52.3,63.1z M57.4,63.4L57.4,63.4l-0.7,0.8l0,0
				C56.9,64,57.2,63.7,57.4,63.4z M45.8,65.8v6.5l0.7,1v-6.6c0.2,0.2,0.4,0.5,0.6,0.7l0.9,1.1v6.9l0,0L45.6,72
				c-0.4-0.5-0.7-1-1.2-1.6l0,0v-6.3C44.9,64.7,45.3,65.3,45.8,65.8z M39.9,64.9L39.9,64.9L39.9,64.9L39.9,64.9z M40,65.1L40,65.1
				L40,65.1C39.9,65,40,65,40,65.1z M50.2,65.8v6.6l0.2-0.3L48,75.4l0.7-1v-6.8l0.2-0.2C49.3,66.9,49.7,66.3,50.2,65.8z M55.3,65.9
				L55.3,65.9l-0.4,0.5C55,66.3,55.1,66.1,55.3,65.9z M54.8,66.5L54.8,66.5L54.8,66.5C54.8,66.5,54.8,66.5,54.8,66.5z M54.7,66.6
				l-0.2,0.2l0,0C54.6,66.7,54.7,66.7,54.7,66.6z M41.5,66.9L41.5,66.9L41.5,66.9C41.5,66.8,41.5,66.8,41.5,66.9z M41.5,66.9
				L41.5,66.9L41.5,66.9C41.6,66.9,41.6,66.9,41.5,66.9z M53.1,68.6L53.1,68.6l-0.7,0.9l0,0C52.6,69.2,52.8,68.9,53.1,68.6z
				 M50.9,71.4L50.9,71.4L50.4,72C50.6,71.8,50.7,71.6,50.9,71.4z"/>
		</g>
	</g>
</g>
</svg>
