<?xml version="1.0" encoding="utf-8"?>
<!-- Generator: Adobe Illustrator 23.0.1, SVG Export Plug-In . SVG Version: 6.00 Build 0)  -->
<svg version="1.1" id="Calque_1" xmlns="http://www.w3.org/2000/svg" xmlns:xlink="http://www.w3.org/1999/xlink" x="0px" y="0px"
	 viewBox="0 0 512 640" style="enable-background:new 0 0 512 640;" xml:space="preserve">
<style type="text/css">
	.st0{fill:#FFFFFF;}
</style>
<path class="st0" d="M412,51.7c-2.3-5.7-10.1-6-12.9-0.6c-45,88-96.5,172.5-153.9,252.9L161,421.8l-32.5-23.2
	c-6.2-4.4-14.9-3-19.3,3.2l-6.7,9.3c-4.4,6.2-3,14.9,3.2,19.3l32.5,23.2l0,0l-10.9,15.3l-63.8,89.3c-5.1,7.1-3.5,17,3.7,22
	l28.7,20.5c7.1,5.1,17,3.5,22-3.7l63.8-89.3l10.9-15.3l32.5,23.2c6.2,4.4,14.9,3,19.3-3.2l6.7-9.3c4.4-6.2,3-14.9-3.2-19.3
	l-32.5-23.2l136.7-191.4c22.4-31.4,41.7-64.9,57.5-100.2C426.2,132,427.1,89.7,412,51.7z M115.3,570.4c-1.2,1.7-3,2.7-4.9,3
	s-3.9-0.1-5.6-1.3l-13.3-9.5c-3.3-2.4-4.1-7.1-1.7-10.5c2.4-3.3,7.1-4.1,10.5-1.7l13.3,9.4C116.9,562.3,117.7,566.9,115.3,570.4z
	 M136.9,540c-1.2,1.7-3,2.7-4.9,3s-3.9-0.1-5.6-1.3l-13.3-9.4c-3.3-2.4-4.1-7.1-1.7-10.5c2.4-3.3,7.1-4.1,10.5-1.7l13.2,9.5
	C138.6,531.9,139.4,536.6,136.9,540z M158.7,509.7c-1.2,1.7-3,2.7-4.9,3s-3.9-0.1-5.6-1.3L135,502c-3.3-2.4-4.1-7.1-1.7-10.5
	c2.4-3.3,7.1-4.1,10.5-1.7l13.2,9.5C160.3,501.6,161,506.3,158.7,509.7z M397.4,132.8c-16,41.3-43.7,89.7-82.4,144L218.4,412
	l-12.2-8.7L302.8,268c38-53.2,65.2-100.6,80.8-140.7c1.5-3.9,5.8-5.8,9.7-4.3C397,124.6,398.9,128.9,397.4,132.8z"/>
</svg>
