<?xml version="1.0" encoding="utf-8"?>
<!-- Generator: Adobe Illustrator 23.0.1, SVG Export Plug-In . SVG Version: 6.00 Build 0)  -->
<svg version="1.1" id="Calque_1" xmlns="http://www.w3.org/2000/svg" xmlns:xlink="http://www.w3.org/1999/xlink" x="0px" y="0px"
	 viewBox="0 0 64 80" style="enable-background:new 0 0 64 80;" xml:space="preserve">
<style type="text/css">
	.st0{fill:#FFFFFF;}
</style>
<g id="XMLID_1_">
	<g>
		<path d="M60,44.3v29c0,0.7-0.5,1.2-1,1.2H31c-0.3,0-0.5-0.1-0.7-0.4c-0.2-0.2-0.3-0.5-0.3-0.8v-6.1H5c-0.6,0-1-0.5-1-1.2V11.7
			c0,0,0,0,0-0.1s0-0.2,0-0.3v-0.1c0.1-0.1,0.1-0.2,0.2-0.3l7-8.5c0.1-0.1,0.2-0.2,0.3-0.2h0.1C11.8,2,11.9,2,11.9,2s0,0,0.1,0h35
			c0.5,0,1,0.5,1,1.2v36.9c0.6-0.4,1.3-0.7,2-0.7c1.2,0,2.3,0.7,3,1.7c0.7-1,1.8-1.7,3-1.7C58.2,39.4,60,41.6,60,44.3z M58,72V44.3
			c0-1.3-0.9-2.4-2-2.4s-2,1.1-2,2.4V54h-2v-9.7c0-1.3-0.9-2.4-2-2.4s-2,1.1-2,2.4V54h-2v-9.7c0-1.3-0.9-2.4-2-2.4s-2,1.1-2,2.4V54
			h-2v-9.7V29.8c0-1.3-0.9-2.4-2-2.4s-2,1.1-2,2.4v32.6h-2v-3.6l-2,1.8V72H58z M46,40.1V4.4H13v7.2c0,0.7-0.4,1.2-1,1.2H6v51.9h24
			v-4.8c0-0.4,0.1-0.7,0.4-1l3.6-3.3v-26c0-2.7,1.8-4.8,4-4.8s4,2.2,4,4.8v10.3c0.6-0.4,1.3-0.7,2-0.7S45.4,39.7,46,40.1z M11,10.4
			V6.1l-3.6,4.3H11z"/>
		<path class="st0" d="M58,44.3V72H32V60.6l2-1.8v3.6h2V29.8c0-1.3,0.9-2.4,2-2.4s2,1.1,2,2.4v14.5V54h2v-9.7c0-1.3,0.9-2.4,2-2.4
			s2,1.1,2,2.4V54h2v-9.7c0-1.3,0.9-2.4,2-2.4s2,1.1,2,2.4V54h2v-9.7c0-1.3,0.9-2.4,2-2.4S58,42.9,58,44.3z"/>
	</g>
</g>
<path class="st0" d="M9,16.5c-0.6,0-1,0.5-1,1.2v9.7c0,0.7,0.4,1.2,1,1.2h8c0.6,0,1-0.5,1-1.2v-9.7c0-0.7-0.4-1.2-1-1.2H9z"/>
<path class="st0" d="M17,32.2H9c-0.6,0-1,0.5-1,1.2v9.7c0,0.7,0.4,1.2,1,1.2h8c0.6,0,1-0.5,1-1.2v-9.7C18,32.7,17.6,32.2,17,32.2z"
	/>
<path class="st0" d="M17,47.9H9c-0.6,0-1,0.5-1,1.2v9.7C8,59.4,8.4,60,9,60h8c0.6,0,1-0.5,1-1.2v-9.7C18,48.4,17.6,47.9,17,47.9z"/>
<rect x="20" y="21.3" class="st0" width="12" height="2.4"/>
<rect x="20" y="37" class="st0" width="12" height="2.4"/>
<rect x="20" y="52.7" class="st0" width="4" height="2.4"/>
<rect x="26" y="52.7" width="2" height="2.4"/>
<rect x="30" y="52.7" width="2" height="2.4"/>
</svg>
