<?xml version="1.0" encoding="utf-8"?>
<!-- Generator: Adobe Illustrator 23.0.1, SVG Export Plug-In . SVG Version: 6.00 Build 0)  -->
<svg version="1.1"
	 id="Calque_1" xmlns:cc="http://creativecommons.org/ns#" xmlns:dc="http://purl.org/dc/elements/1.1/" xmlns:inkscape="http://www.inkscape.org/namespaces/inkscape" xmlns:rdf="http://www.w3.org/1999/02/22-rdf-syntax-ns#" xmlns:sodipodi="http://sodipodi.sourceforge.net/DTD/sodipodi-0.dtd" xmlns:svg="http://www.w3.org/2000/svg"
	 xmlns="http://www.w3.org/2000/svg" xmlns:xlink="http://www.w3.org/1999/xlink" x="0px" y="0px" viewBox="0 0 28 23.8"
	 style="enable-background:new 0 0 28 23.8;" xml:space="preserve">
<style type="text/css">
	.st0{stroke:#FFFFFF;stroke-miterlimit:10;}
	.st1{fill:none;stroke:#FFFFFF;stroke-miterlimit:10;}
</style>
<g>
	<path class="st0" d="M17.5,3.6c0.1,0,0.1,0,0.2,0C17.9,3.7,18,3.8,18,3.9c0,0.1,0.1,0.2,0,0.4l-6.8,15.9c-0.1,0.2-0.3,0.3-0.5,0.3
		c-0.1,0-0.1,0-0.2,0c-0.3-0.1-0.4-0.4-0.3-0.7l6.9-15.9C17.2,3.7,17.3,3.6,17.5,3.6 M17.5,2.6c-0.5,0-1.1,0.3-1.3,0.9L9.3,19.4
		c-0.3,0.8,0,1.6,0.8,2c0.2,0.1,0.4,0.1,0.6,0.1h0.1c0.5,0,1-0.4,1.2-0.9l6.8-15.9c0.3-0.8,0-1.6-0.8-2C17.9,2.6,17.7,2.6,17.5,2.6
		L17.5,2.6z"/>
</g>
<g>
	<line class="st1" x1="11.4" y1="14.6" x2="13.5" y2="15.4"/>
</g>
</svg>
