<?xml version="1.0" encoding="utf-8"?>
<!-- Generator: Adobe Illustrator 23.0.1, SVG Export Plug-In . SVG Version: 6.00 Build 0)  -->
<svg version="1.1" id="Calque_1" xmlns="http://www.w3.org/2000/svg" xmlns:xlink="http://www.w3.org/1999/xlink" x="0px" y="0px"
	 viewBox="0 0 59.7 75" style="enable-background:new 0 0 59.7 75;" xml:space="preserve">
<style type="text/css">
	.st0{fill:#FFFFFF;}
</style>
<g>
	<ellipse class="st0" cx="25.2" cy="39.5" rx="2.8" ry="3.4"/>
	<ellipse class="st0" cx="36.3" cy="39.5" rx="2.8" ry="3.4"/>
	<path class="st0" d="M48.9,20.4l1.3,0.6c0.9,0.4,1.9-0.3,2-1.5c0.2-2.2,0-4.7-0.2-6.3c-0.1-0.6-0.7-0.8-1-0.3
		c-1.3,2.1-1.6,2.6-2.7,4.7C47.7,18.7,48,20,48.9,20.4z"/>
	<path class="st0" d="M10.4,20.4l1.3-0.6c0.9-0.4,1.2-1.7,0.7-2.7c-1.1-2.1-1.4-2.7-2.7-4.7c-0.3-0.5-1-0.3-1,0.3
		c-0.2,1.6-0.4,4-0.2,6.3C8.5,20.1,9.5,20.8,10.4,20.4z"/>
	<path class="st0" d="M55.7,48.8c0,0-3,0.8-5.9,0.8c-0.9,0-1.7-0.1-2.3-0.2c-0.4-0.1-0.9-0.4-1.4-0.7l3.1-0.7c1.6-0.3,3-0.9,4.3-1.8
		c0.7-0.4,1.2-0.8,1.6-1.2c3.9-4,2-10.8,1.3-12.8c-0.1-0.4-0.5-0.8-0.9-0.8c-0.3,0-0.5,0.1-0.7,0.4c-0.2,0.2-0.3,0.6-0.3,0.9
		c0,0.8-0.1,2.3-0.9,3.9c-0.2-1.7-0.6-3.4-1.1-5c4.1-6.8,3.3-20.4,2.9-25.3c-0.1-1-0.7-1.7-1.5-1.7c-0.2,0-0.4,0.1-0.6,0.2
		c-1.2,0.6-2.4,1.8-3.8,3.4c-2.2,2.5-4.1,5.5-5.7,9.1l-0.1,0.2c-2-1.7-4.1-3-6.4-3.9c0-0.1,0-0.2,0-0.3c0-4.4-2.9-8-6.5-8
		c-3.5,0-6.3,3.4-6.5,7.6c-2.8,0.8-5.4,2.1-7.7,3.9v-0.1c-1.6-3.5-3.5-6.6-5.6-9C9.6,6,8.3,4.8,7.2,4.2C7,4.1,6.7,4,6.5,4
		C5.8,4,5.1,4.7,5,5.7c-0.4,4.7-1.1,17.4,2.4,24.5c-0.7,2.1-1.2,4.2-1.5,6.5c-0.8-1.7-0.9-3.2-0.8-4c0-0.3-0.1-0.7-0.3-0.9
		s-0.5-0.4-0.7-0.4c-0.4,0-0.8,0.3-0.9,0.8c-0.7,2-2.6,8.9,1.3,12.8c0.3,0.3,0.7,0.6,1.2,0.9c1.5,1,3.2,1.7,5,2.1l3,0.6
		c-0.6,0.4-1.4,0.8-1.9,0.9c-0.5,0.1-1.2,0.1-1.8,0.1c-3,0-6-0.8-6-0.8c-0.4-0.1-0.8,0.1-1,0.5s-0.2,1,0.1,1.3
		c0.1,0.2,3.4,5,8.3,5.7c6.5,10.8,13.1,16.6,19.3,16.6c8.2,0,13.9-9.9,16.9-15.2c0.3-0.5,0.5-0.9,0.8-1.3c4.9-0.7,8.1-5.5,8.3-5.7
		c0.3-0.4,0.3-0.9,0.1-1.3C56.5,48.9,56.1,48.7,55.7,48.8z M44.7,28.2c0.1-0.1,0.1-0.2,0.2-0.3c0.1-0.1,0.2-0.3,0.2-0.5
		c0-0.1,0.1-0.2,0.1-0.3c0.1-0.2,0.2-0.3,0.2-0.5c0-0.1,0.1-0.1,0.1-0.2c0.1-0.2,0.1-0.4,0.2-0.6c0-0.1,0-0.1,0.1-0.2
		c0.1-0.2,0.1-0.4,0.2-0.6v-0.1c0.1-0.2,0.1-0.4,0.1-0.6v-0.1c0-0.1,0.1-0.3,0.1-0.4c0.3-2.1,0-3.9-0.8-5.3l0.2-0.1
		c1.5-3.3,3.3-6.2,5.3-8.5c1-1.2,2-2.1,2.9-2.7c0.3,4.3,1,17.8-2.9,23.5c-0.2,0.2-0.3,0.4-0.5,0.6c-0.1,0.1-0.1,0.1-0.2,0.2
		c-0.2,0.2-0.4,0.4-0.6,0.6c-0.1,0.1-0.2,0.2-0.3,0.2c-0.1,0.1-0.3,0.2-0.4,0.3c-0.1,0.1-0.2,0.1-0.3,0.2c-0.2,0.1-0.5,0.2-0.7,0.3
		c0,0-1.7,0.6-3.8,0.6c-0.4,0-0.7,0-1.1-0.1c-1-0.1-1.9-0.4-2.7-0.8c0.2-0.1,0.3-0.2,0.5-0.3l0.1-0.1c1-0.6,1.9-1.4,2.6-2.4
		c0.2-0.2,0.3-0.4,0.5-0.7c0.1-0.1,0.1-0.2,0.2-0.3c0.1-0.1,0.2-0.3,0.3-0.4C44.6,28.5,44.6,28.3,44.7,28.2z M38.1,53.8
		c4,0.6,5,1.5,5,1.5c0,0.1,0.1,0.1,0.1,0.1c-0.7,0.5-1.4,0.9-2.1,1.3c-0.9,0.6-1.7,1-2.4,1.5c0.1-0.5,0.2-1,0.2-1.5
		C39,55.8,38.7,54.7,38.1,53.8z M40.9,40.7c0,0.1,0,0.2-0.1,0.3c0,0.3-0.1,0.5-0.2,0.7c0,0.1,0,0.2-0.1,0.2
		c-0.1,0.3-0.2,0.6-0.4,0.9c-0.1,0.3-0.3,0.5-0.5,0.8c0.1,0,0,0.1,0,0.1c-0.2,0.2-0.4,0.4-0.6,0.6c0,0-0.1,0-0.1,0.1
		c-0.2,0.2-0.4,0.3-0.7,0.4h-0.1c-0.2,0.1-0.5,0.2-0.8,0.3c-0.1,0-0.1,0-0.2,0c-0.3,0.1-0.5,0.1-0.8,0.1c-2.6,0-4.7-2.6-4.7-5.7
		c0-0.4,0-0.7,0.1-1c0-0.2,0.1-0.4,0.1-0.6c0-0.2,0.1-0.3,0.1-0.5c0-0.1,0.1-0.3,0.2-0.4c0.1-0.2,0.1-0.4,0.2-0.5
		c0.1-0.1,0.1-0.2,0.2-0.3c0.1-0.2,0.2-0.4,0.4-0.5c0.1-0.1,0.1-0.2,0.2-0.3c0.1-0.2,0.3-0.3,0.4-0.4c0.1-0.1,0.1-0.1,0.2-0.2
		c0.2-0.1,0.3-0.2,0.5-0.3c0.1,0,0.2-0.1,0.3-0.1c0.2-0.1,0.4-0.2,0.6-0.2c0.1,0,0.2-0.1,0.3-0.1C35.7,34,36,34,36.3,34
		c2.6,0,4.7,2.6,4.7,5.7C41,40.1,41,40.4,40.9,40.7z M16.9,22.1c0-0.2,0-0.4,0-0.6c0-0.1,0-0.2,0-0.3c0-0.3,0.1-0.6,0.1-0.8
		c0.1-0.3,0.1-0.5,0.1-0.8c0-0.1,0-0.3,0-0.4c0-0.1,0-0.2,0-0.3c2.4-1.8,4.9-3.1,7.5-3.8c0.5,2.6,2.1,4.8,4.1,5.7h0.1
		c0.3,0.1,0.6,0.2,1,0.3h0.1c0.3,0.1,0.7,0.1,1,0.1c0.3,0,0.6,0,0.9-0.1c0.1,0,0.1,0,0.2,0c0.3-0.1,0.6-0.1,0.8-0.3
		c0.1,0,0.1-0.1,0.2-0.1c0.2-0.1,0.4-0.2,0.6-0.3c0.1-0.1,0.2-0.1,0.3-0.2c0.2-0.1,0.4-0.3,0.6-0.5c0.1-0.1,0.2-0.2,0.3-0.3
		c0.1-0.1,0.3-0.3,0.4-0.4c0.1-0.1,0.2-0.2,0.3-0.3c0.2-0.2,0.3-0.4,0.4-0.6c0.1-0.1,0.1-0.2,0.2-0.3c0.2-0.3,0.3-0.6,0.4-0.9v-0.1
		c0.1-0.3,0.3-0.7,0.4-1c0,0,0,0,0-0.1c2.6,1.1,4.9,2.7,7,4.8c0.1,0.2,0.1,0.4,0.2,0.6c0,0.1,0,0.1,0.1,0.2c0,0.1,0,0.3,0,0.4
		c0,0.2,0,0.4,0,0.6c0,0.1,0,0.2,0,0.3c0,0.2,0,0.5-0.1,0.8c0,0.1,0,0.2-0.1,0.3c-0.1,0.3-0.1,0.6-0.2,0.9c0,0.1-0.1,0.3-0.1,0.4
		c-0.1,0.2-0.2,0.5-0.3,0.7c-0.1,0.1-0.1,0.3-0.2,0.4c0.1-1.8-0.4-3.3-1.3-4.4c-0.9-1.1-2.2-1.7-3.7-1.6c-3.1,0.3-5.7,3.5-5.9,7.3
		c-0.1,1.8,0.4,3.5,1.3,4.6c0,0-0.1,0-0.1,0.1c-0.2,0.1-0.4,0.2-0.6,0.3c-0.1,0.1-0.2,0.2-0.3,0.2c-0.1,0.1-0.2,0.2-0.3,0.2
		c-0.1,0.1-0.2,0.2-0.3,0.3c-0.1,0.1-0.2,0.2-0.3,0.3c-0.1,0.1-0.3,0.3-0.4,0.5c-0.1,0.1-0.2,0.3-0.3,0.4c-0.1,0.1-0.1,0.2-0.2,0.3
		c-0.1,0.1-0.2,0.3-0.3,0.4c0,0.1-0.1,0.1-0.1,0.2c0-0.1-0.1-0.1-0.1-0.2c-0.1-0.1-0.2-0.3-0.3-0.4c-0.1-0.1-0.1-0.2-0.2-0.3
		c-0.1-0.1-0.2-0.3-0.3-0.4c-0.1-0.2-0.3-0.3-0.4-0.5c-0.1-0.1-0.2-0.2-0.2-0.3c-0.1-0.1-0.2-0.2-0.3-0.3c-0.1-0.1-0.2-0.2-0.3-0.2
		c-0.1-0.1-0.2-0.2-0.3-0.2c-0.2-0.1-0.4-0.2-0.5-0.3c-0.1,0-0.2-0.1-0.3-0.1c-0.1-0.1-0.2-0.1-0.4-0.2c0.1-0.1,0.3-0.3,0.4-0.4
		c0.9-1.1,1.3-2.7,1.3-4.6c-0.2-3.9-2.8-7.1-5.9-7.3c-1.5-0.1-2.8,0.4-3.7,1.6c-0.9,1.1-1.3,2.7-1.2,4.4c0,0,0,0,0-0.1
		c-0.1-0.1-0.1-0.3-0.2-0.4c-0.1-0.2-0.1-0.4-0.2-0.5c0-0.1-0.1-0.3-0.1-0.4c-0.1-0.2-0.1-0.4-0.1-0.6c0-0.1-0.1-0.3-0.1-0.4
		c0-0.2-0.1-0.4-0.1-0.6C16.9,22.4,16.9,22.3,16.9,22.1z M25.1,45.1c-0.2,0.2-0.5,0.2-0.8,0.1h-0.1c-0.3-0.1-0.5-0.2-0.7-0.3
		c-0.1,0-0.1-0.1-0.2-0.1c-0.2-0.1-0.5-0.3-0.7-0.4l-0.1-0.1c-0.2-0.1-0.3-0.3-0.5-0.5c0-0.1-0.1-0.1-0.1-0.2
		c-0.2-0.2-0.3-0.5-0.5-0.7c-0.1-0.1-0.1-0.2-0.2-0.3C21.1,42.3,21,42.2,21,42c0-0.1-0.1-0.2-0.1-0.4c-0.1-0.2-0.1-0.4-0.2-0.7
		c0-0.1,0-0.2-0.1-0.3c0-0.3-0.1-0.7-0.1-1c0-3.2,2.1-5.7,4.7-5.7c0.3,0,0.6,0,0.9,0.1c0.1,0,0.2,0.1,0.3,0.1
		c0.2,0.1,0.4,0.1,0.6,0.2c0.1,0,0.2,0.1,0.3,0.1c0.2,0.1,0.4,0.2,0.5,0.3c0.1,0.1,0.2,0.1,0.2,0.2c0.2,0.1,0.3,0.3,0.4,0.4
		c0.1,0.1,0.1,0.2,0.2,0.3c0.1,0.2,0.2,0.3,0.3,0.5c0.1,0.1,0.1,0.2,0.2,0.3c0.1,0.2,0.2,0.3,0.2,0.5c0.1,0.1,0.1,0.3,0.2,0.4
		c0,0.1,0.1,0.3,0.1,0.5s0.1,0.4,0.1,0.6c0,0.3,0.1,0.7,0.1,1C29.8,42.6,27.7,45.1,25.1,45.1z M21.5,58.4c-1.5-0.8-3.2-1.8-5.1-2.9
		c0.4-0.2,2.1-1,5.7-1.5c-0.5,0.9-0.8,1.9-0.8,2.9C21.3,57.3,21.4,57.9,21.5,58.4z M6.8,6.5C7.7,7.1,8.7,8,9.7,9.2
		c2,2.3,3.8,5.2,5.3,8.5l0.1,0.3c0.1,0.2,0.2,0.5,0.2,0.7c0.1,0.4,0,0.7,0,1c-0.7,2.9,0.3,6.7,2.7,9.6c1,1.2,2.1,2.2,3.3,2.8
		c-0.3,0.2-0.6,0.4-0.9,0.5c0,0-0.1,0-0.1,0.1c-0.3,0.1-0.6,0.2-0.9,0.3c-0.2,0-0.4,0.1-0.6,0.1c-0.1,0-0.3,0.1-0.4,0.1
		c-0.3,0-0.7,0.1-1.1,0.1c-0.2,0-0.4,0-0.6,0c-0.1,0-0.2,0-0.3,0c-0.2,0-0.4,0-0.6-0.1h-0.1c-1.2-0.2-2.2-0.5-2.6-0.7H13
		c0,0,0,0-0.1,0c-0.2-0.1-0.4-0.1-0.6-0.2L12,32.1c-0.1-0.1-0.2-0.1-0.3-0.2c-0.1,0-0.2-0.1-0.2-0.2c-0.1-0.1-0.2-0.1-0.3-0.2
		c-0.1-0.1-0.2-0.1-0.3-0.2l-0.2-0.2c-0.5-0.5-1-1.1-1.4-1.9l-0.1-0.1C5.9,23.1,6.5,10.6,6.8,6.5z M10.2,40.9
		c-0.1,0-0.1-0.1-0.2-0.1c-0.3-0.2-0.6-0.3-0.9-0.5c0-0.2,0-0.3-0.1-0.3c-0.2-0.1-0.3-0.3-0.5-0.4c-0.1-0.1-0.1-0.1-0.2-0.2
		C8,39.2,7.8,39,7.6,38.8c0.2-2.3,0.6-4.5,1.2-6.6c0.8,1,1.8,1.8,2.9,2.2c0.2,0.1,0.4,0.2,0.6,0.2c0,0,0.1,0,0.1,0.1
		c0.1,0,0.1,0.1,0.3,0.1h0.1c0.1,0,0.2,0.1,0.3,0.1c0.1,0,0.1,0,0.2,0.1c0.1,0,0.3,0.1,0.4,0.1c0.1,0,0.2,0,0.3,0.1
		c0.1,0,0.3,0.1,0.4,0.1c0.1,0,0.2,0,0.3,0.1c0.2,0,0.3,0.1,0.5,0.1c0.1,0,0.3,0,0.4,0c0.2,0,0.3,0,0.5,0.1c0.1,0,0.3,0,0.4,0
		s0.3,0,0.4,0h0.3c0.4,0,0.7,0,1.1-0.1c0.1,0,0.2,0,0.3,0c0.3,0,0.6-0.1,0.8-0.1h0.1c0,0,0,0.1-0.1,0.1c-0.1,0.2-0.2,0.4-0.3,0.7
		c0,0.1-0.1,0.1-0.1,0.2c-0.1,0.3-0.2,0.6-0.3,0.9c0,0.1,0,0.1,0,0.2c-0.1,0.3-0.1,0.5-0.1,0.8c0,0.1,0,0.2,0,0.3
		c0,0.3-0.1,0.7-0.1,1c0,0.4,0,0.8,0.1,1.3c0,0.1,0,0.1,0,0.2c0.1,0.4,0.1,0.8,0.3,1.2v0.1h-0.1c-0.4-0.1-0.8-0.1-1.2-0.2
		c-0.1,0-0.3,0-0.4,0c-0.3,0-0.6-0.1-0.8-0.1c-0.1,0-0.2,0-0.3,0c-0.4,0-0.7-0.1-1-0.1C15,42,15,42,15,42c-0.3,0-0.6-0.1-0.9-0.1
		c0,0,0,0-0.1,0C12.6,41.8,11.3,41.5,10.2,40.9z M30.6,70.6c-5.2,0-11-4.8-16.8-14c0.1,0,0.1,0,0.2,0c4.4,2.7,7.9,4.6,10.8,5.8
		c1.5,0.8,3.3,1.3,5.2,1.3c0.1,0,0.2,0,0.3,0c0,0,0.1,0,0.2,0h0.1c3.6,0,6.5-1.8,11.3-4.9c1.1-0.7,2.3-1.4,3.6-2.3
		c0.1,0,0.2,0,0.3,0C43,61.7,37.7,70.6,30.6,70.6z M44.9,41.9c-0.1,0-0.1,0-0.2,0c-0.1,0-0.3,0-0.4,0c-0.2,0-0.4,0-0.6,0.1
		c-0.1,0-0.2,0-0.3,0c-0.2,0-0.3,0-0.5,0.1c-0.1,0-0.1,0-0.2,0c0.1-0.3,0.1-0.7,0.2-1.1c0-0.1,0-0.2,0-0.3c0-0.4,0.1-0.7,0.1-1.1
		c0-0.3,0-0.6,0-0.9c0-0.1,0-0.2,0-0.3c0-0.2-0.1-0.4-0.1-0.6c0-0.1,0-0.2-0.1-0.3c0-0.2-0.1-0.4-0.1-0.5s-0.1-0.2-0.1-0.3
		c-0.1-0.2-0.1-0.4-0.2-0.6c0-0.1,0-0.1-0.1-0.2c0.6,0.1,1.2,0.2,1.9,0.2c1.5,0,2.9-0.3,3.6-0.5c0.4-0.1,0.7-0.2,0.7-0.2h0.1
		c1.1-0.4,2-1,2.8-1.8c0.2,1.6,0.5,3.4,0.6,5.3c-0.2,0.2-0.4,0.3-0.5,0.5l-0.1,0.1c-0.2,0.2-0.5,0.4-0.7,0.6
		c-0.2,0.1-0.4,0.3-0.6,0.4c-0.2,0.1-0.3,0.2-0.5,0.3c-0.2,0.1-0.5,0.2-0.7,0.3c-0.2,0.1-0.4,0.2-0.5,0.2c-0.2,0.1-0.4,0.1-0.6,0.1
		c-0.2,0.1-0.5,0.1-0.7,0.2c-0.1,0-0.1,0-0.2,0c-0.4,0.1-0.7,0.1-1.1,0.2C45.5,41.8,45.3,41.8,44.9,41.9z"/>
</g>
</svg>
