<?xml version="1.0" encoding="utf-8"?>
<!-- Generator: Adobe Illustrator 23.0.1, SVG Export Plug-In . SVG Version: 6.00 Build 0)  -->
<svg version="1.1" id="Calque_1" xmlns="http://www.w3.org/2000/svg" xmlns:xlink="http://www.w3.org/1999/xlink" x="0px" y="0px"
	 viewBox="0 0 100 125" style="enable-background:new 0 0 100 125;" xml:space="preserve">
<style type="text/css">
	.st0{fill:#FFFFFF;}
</style>
<g>
	<path class="st0" d="M84.5,82.7C84.5,82.7,84.4,82.7,84.5,82.7c-0.1,0.2-0.3,0.3-0.4,0.4l-0.4,2.2l-2.5,0.6l-0.5-2.1
		c-0.1,0-0.1,0-0.2,0v3.2l-2.8,0.9l-0.8-2c0,0-0.1,0.1-0.1,0.1l0.2,2.5l-2.5,0.3L73.7,87c-0.1,0-0.2,0-0.2,0v1.6L69.6,88l-0.4-1.7
		c-0.3-0.1-0.6-0.2-0.9-0.4c-0.5,0.9-1.4,3.2,1,7c-4-0.9-4.9-7.1-5.1-9.1c-0.1-0.1-0.2-0.1-0.3-0.2c-0.5,0.9-2.1,2.9-5.5,3
		c1.9-1.8,2.1-4.1,2-5.3c-0.4-0.2-0.7-0.5-1-0.7c-0.7-0.5-1.3-0.9-1.9-1.3c-0.3,1.1-1.4,3.2-6.3,4.2c3-3,3.1-5,2.8-5.9
		c-1.6-0.7-3.1-1.2-4.4-1.6c0.2,0.7,1.4,6.5-4.6,9.8c12.7,2,18.5,6.1,20.9,7.8c0.1,0.1,0.2,0.2,0.2,0.4l5.3,1.6
		c0.1-1.9,0.3-4,1.2-5.3c0.2,2.4,0.6,4.4,1.1,6l2.3,0.7c-0.2-1.6-0.2-3.3,0.1-4.7c0.4,2,1.2,3.9,1.9,5.3l2.3,0.7
		c0.2-1.5,0.4-3.7-0.4-6.4c2,1.2,3,6.9,3,7.2l0.4,0.1c0,0,1-4.5-0.5-10.8c0.4,0.5,0.7,1.1,1.1,1.6l0.2-2.1c0-0.2,0.2-0.4,0.4-0.5
		c0.1,0,0.2,0,0.3,0C84.9,85.5,84.7,83.7,84.5,82.7z"/>
	<path class="st0" d="M59.4,77.9C59.4,77.9,59.4,77.9,59.4,77.9c-0.4,0-0.8,0-1.2,0c-0.3,0-0.5,0-0.7,0c0.7,0.4,1.6,1.1,2.6,1.8
		c2.7,1.9,6.4,4.6,9.8,5.7l2.8-1C67.7,84.4,59.8,78.2,59.4,77.9z"/>
	<path class="st0" d="M83.3,99.7c-1.9-0.5-7.4,1.9-7.4,1.9s-3.2,0.7-9.9-7.1c-0.1,0.1-0.2,0.1-0.3,0.1c-0.1,0-0.2,0-0.3-0.1
		c-2.4-1.7-8.1-5.8-20.9-7.7c-0.3,0-0.5-0.3-0.5-0.5c-1.7,0.7-3.9,1.3-6.6,1.6c1.3-0.5,2.4-1,3.3-1.5c-3.2-0.6-5.4-2.4-6.1-5.1
		c-0.8-2.9,0.2-6.2,2.6-8.4c2.5-2.3,6-3,9.8-2.1c-0.7-0.6-1.6-1.3-2.4-1.9c-2.2-1.6-4.9-3.6-6.8-5.6c-0.2-0.2-0.2-0.6,0-0.8
		c0.2-0.2,0.6-0.2,0.8,0c11.2,10,19.5,4.4,19.9,4.2c0.3-0.2,0.6-0.1,0.8,0.1s0.1,0.6-0.1,0.8c-0.1,0-5.6,3.8-13.5,0.7
		c2.9,2.2,3.9,3,3.9,3.7c0.1,0.3,1.2,1.8,3.3,3c1.8,1.1,4.7,2.3,7.9,1.3c2.4-1.3,2.2-2.1,2-3.2c-0.2-1.1-0.4-2.4,1.4-4.1
		c0.2-0.2,0.6-0.2,0.8,0c0.2,0.2,0.2,0.6,0,0.8c-1.3,1.3-1.2,2.1-1,3.1c0.3,1.5,0.2,2.8-2.7,4.4c0,0-0.1,0-0.1,0c-0.1,0-0.1,0-0.2,0
		c2.2,1.6,8.8,6.2,12.5,5.6c2.6-0.3,2.8-1.3,3-2.2c0.1-0.6,0.3-1.5,1.4-1.7c0.9-0.1,1.6,0.3,2.3,0.7c0.6,0.4,1.1,0.7,1.6,0.6
		c0.2,0,0.3-0.1,0.5-0.3c-0.3-0.1-0.5-0.2-0.8-0.4c-0.5-0.3-1.1-0.8-1.8-1.3c-1.1-0.9-2.4-1.9-3.6-2.5c-0.2,0.6-0.9,2.4-2.3,3.2
		c-0.4,0.2-0.9,0.3-1.3,0.3c-0.3,0-0.7-0.1-1.1-0.2c-3.5-1.1-4.4-3.3-4.1-5.1c0.3-1.7,1.6-2.9,3.2-3.2c-0.1-0.3-0.3-0.7-0.5-1
		c-0.2-0.3-0.1-0.6,0.2-0.8c0.3-0.2,0.6-0.1,0.8,0.2c0.1,0.2,0.8,1.3,0.7,2.2c0,0.3-0.3,0.5-0.6,0.5c0,0-0.1,0-0.1,0
		c-1.3,0-2.4,1-2.6,2.2c-0.2,1.3,0.6,3,3.4,3.8c0.6,0.2,1.1,0.2,1.5-0.1c1-0.5,1.5-1.9,1.7-2.5c-0.3-0.1-0.7-0.1-1,0
		c-0.7,0.1-1.3,0.6-1.8,1.5c-0.2,0.3-0.5,0.4-0.8,0.2c-0.3-0.2-0.4-0.5-0.2-0.8c0.7-1.1,1.6-1.8,2.6-2c2.2-0.4,4.6,1.6,6.6,3.1
		c0.6,0.5,1.2,1,1.7,1.3c0.4,0.3,0.7,0.4,1,0.3c0.1-0.2,0.3-0.2,0.4-0.2c0.1-0.1,0.3-0.2,0.4-0.4c0-0.2,0.1-0.4,0.2-0.5
		c0,0,0,0,0.1,0c0.2-0.5,0.4-1,0.4-1.8c0.4-4.2-2.1-6.3-4.3-8.1c-1.1-0.9-2-1.7-2.6-2.7c0-0.1-0.1-0.1-0.1-0.2
		c-2.2,0-3.9-2.1-3.9-4.6c0-2.5,1.8-4.6,4-4.6c0,0,0,0,0,0c0-0.2,0.1-0.5,0.4-0.5c3-1.1,3.1-4.1,2.8-5.8c-0.9,1.8-2.5,4.6-3.3,5.4
		c-0.5,0.4-0.9,0.3-1.1,0.2c-0.5-0.2-0.9-1-1.1-1.8c-0.4,1.1-0.9,2.4-1.3,3.5c-0.2,0.7-0.6,0.8-0.9,0.7c-0.4,0-1-0.1-1.6-4.8
		c-0.6,1.5-1.2,3.9-0.4,7c0.1,0.3-0.1,0.5-0.3,0.7c-0.2,0.1-0.5,0-0.7-0.2c-1.8-2.5-3.9-6.6-5.5-9.9c0.9,3.4,2,7.4,2.8,9.4
		c0.1,0.1,0.1,0.3,0,0.4c-0.2,0.7-0.7,1-1,1.1c-0.2,0.1-0.4,0.1-0.5,0.1c-0.3,0-0.5-0.1-0.8-0.1c0.1,0.2,0.2,0.4,0.3,0.7
		c0.9,2.4-0.1,4.9-2.2,5.7s-4.5-0.6-5.3-3c-0.1-0.4-0.2-0.8-0.3-1.2l-0.3,0.4c0,0-5.2,3.3-9.5,2.5c1.7-0.8,4.7-4.2,4.7-4.2
		s-4.7,2.9-10.7-2.3c3.8,0.5,8.9-0.5,9.5-0.5c0.6,0-6.8,0.1-9.5-7.9c6,5.3,10.9,5.8,10.9,5.8s-4.9-4.8-3.1-9.2
		c3.6,5.9,11.2,10.6,11.4,10.6L61,59c1.1-0.1,2.2,0.3,3.1,1.1c0.2-0.2,0.5-0.2,0.7-0.1c0.3,0.2,0.9,0.5,1.3,0.4c0,0,0.1,0,0.2-0.2
		c-1.7-4.1-4-14.4-4.1-14.9c-0.1-0.3,0.1-0.6,0.4-0.7c0.3-0.1,0.6,0,0.7,0.3c0,0.1,3.4,7.7,6.4,12.7c-0.2-4.1,1.7-6.7,1.8-6.8
		c0.1-0.2,0.4-0.3,0.6-0.2c0.2,0.1,0.4,0.3,0.4,0.5c0.2,1.7,0.5,3.7,0.8,4.8c0.7-2.1,1.8-4.6,1.8-4.7c0.1-0.2,0.4-0.4,0.6-0.3
		c0.3,0,0.5,0.3,0.5,0.5c0.1,1.2,0.4,2.5,0.6,2.9c0.2-0.2,0.4-0.5,0.7-0.9c0-0.1,0-0.2,0-0.3c0.3-1.6-0.8-2.3-2.5-3.2
		c-0.8-0.4-1.6-0.8-2.2-1.4c-0.1-0.1-0.1-0.1-0.1-0.2c-2.5-5.6-8.1-11.9-8.2-12c-0.2-0.2-0.2-0.5,0-0.8c-2-1.9-2.8-3.3-8.3-4.3
		c0,0.3-0.3,0.5-0.6,0.5c0,0,0,0-0.1,0c-0.7-0.1-1.5-0.2-2.5-0.4c-2.8-0.5-6.6-1.3-8.9-0.6c-0.2,0.1-0.3,0-0.5-0.1
		c-2.1,2.8-3.7,5.3-3.5,7.4c1.1-4.6,3.8-3.3,3,1.1c-0.8,1.8-2.6,8.9-9.8,8.9c-3-1.5-4.9-3.6-5.6-6c-1,1-3.3,3.9-2.5,5.7
		c4.9,2,9.6,4.9,10.6,9.8c0,0.2,0,0.4-0.1,0.5c-0.1,0.1-0.3,0.2-0.5,0.2L33,58.1c-0.3,0-0.5-0.2-0.5-0.4c0-0.1-0.4-1.3-2-2.1
		c0.6,1.5-0.4,3.5-1.3,5.2c-0.4,0.7-0.7,1.4-0.8,1.9c-0.1,0.5,0.3,0.9,1,1.5c0.7,0.6,1.5,1.4,1.5,2.5c0,1-0.6,2.2-2,3.5
		c0,0-0.1,0.1-0.1,0.1c-0.2,0.1-0.6,0.4-1.1,0.4c-0.2,0-0.4,0-0.6-0.1c-0.8-0.4-0.8-1.6-0.9-3.2c-0.1-2.5-0.2-6-3.1-7.9
		c-0.3-0.2-0.3-0.5-0.2-0.8c0.2-0.3,0.5-0.3,0.8-0.2c3.3,2.3,3.5,6.2,3.6,8.8c0,0.9,0.1,2.1,0.3,2.2c0,0,0.1,0,0.5-0.2
		c1.1-1.1,1.6-2,1.6-2.6c0-0.7-0.6-1.2-1.2-1.7c-0.7-0.7-1.6-1.4-1.4-2.6c0.1-0.6,0.5-1.4,0.9-2.2c0.8-1.5,1.8-3.5,1.1-4.5
		c-0.3-0.4-0.8-0.7-1.7-0.8c-0.2,0-0.3,0-0.5,0c-0.1,0-0.2,0-0.3-0.1c-0.3,0-0.7,0-1.1,0c-2.7,0.8-4.4,0.8-5.3-0.2
		c-0.7-0.7-0.6-1.7-0.5-2.3c-1.3-1.3-4.4-3.9-6.5-3.6c0,0.6,0,1.2,0.2,1.8c0.5,2.2,2.2,4,4.8,5.2l0.3,0.2c2.1,1.2,3.1,2,3.2,6
		c3.5,3.2,3.2,7.1,3,10.1c-0.2,3-0.2,4.5,2.1,4.8c1.2,0,1.4-0.5,1.8-2.2c0.3-1.4,0.7-3.3,2.5-5.1c0.9-0.9,1.8-1.3,2.5-1
		c0.9,0.3,1.4,1.5,1.6,3.8c0,0.3-0.2,0.6-0.5,0.6c-0.3,0-0.6-0.2-0.6-0.5c-0.1-2.4-0.7-2.7-0.8-2.8c-0.2-0.1-0.7,0.1-1.3,0.7
		c-1.6,1.5-1.9,3.2-2.2,4.6c-0.3,1.2-0.6,2.5-1.9,2.9c0.1,1.5,0.6,7.4,4.7,11.5c3,3,7.1,4.6,12.5,4.6c7.2,0.3,10.6,0.8,12.5,3.3
		l0.2,0.3c1.5,2.1,3.2,4.5,8.3,4.3c5.1-0.2,6.8,1.4,7.8,2.4c0.2,0.2,0.3,0.3,0.4,0.4c2.7,2.8,5.3,2.1,6,1.8c0.9-0.3,1.3-0.8,1.3-1
		c0.1-1.9,0.8-2.9,4.1-2.8c0.5,0,0.9-0.2,1.2-0.6c1.1-1.4,0.6-4.9,0.3-6.1c0-0.1-0.5-3.8-2.2-6.6l-0.1,0.8c0,0.3-0.3,0.6-0.6,0.5
		c0,0,0,0,0,0c1.8,3.5,2.1,7.1,2.1,7.1S85.2,100.2,83.3,99.7z"/>
	<path class="st0" d="M79.4,81c-0.5-0.3-1-0.6-1.4-0.6c-0.3,0.1-0.3,0.2-0.5,0.8c-0.1,0.5-0.3,1.1-0.7,1.7l1.2-0.4
		c0.1-0.2,0.2-0.4,0.3-0.6c0.1-0.2,0.2-0.3,0.4-0.3c0.2,0,0.3,0,0.5,0.1c0.2,0.1,0.3,0.2,0.5,0.3l1-0.4C80.2,81.5,79.8,81.3,79.4,81
		z"/>
	<path class="st0" d="M83.5,80.6l0.8-0.3c0-0.2,0-0.3,0-0.5c-0.2,0.1-0.3,0.3-0.5,0.4C83.7,80.4,83.6,80.5,83.5,80.6z"/>
	<path class="st0" d="M21.3,53.8c0.3,0.3,1.3,0.8,4.2-0.2c0.1,0,0.1,0,0.2,0c0.1,0,0.1,0,0.2,0c-1.7-1.6-4.1-1.2-4.8-1
		C21,53,21,53.5,21.3,53.8z"/>
	<path class="st0" d="M33.4,56.9l1,0c-2-6.3-11.4-9-17-10.7c-1.2-0.3-2.2-0.6-2.9-0.9c-0.4,0.6-0.7,1.3-0.9,2.2c2.8-0.2,6.2,3,7.2,4
		c1.1-0.3,4.6-0.8,6.7,2.2c0.1,0,0.1,0,0.2,0C31.6,53.9,33,56,33.4,56.9z"/>
	<path class="st0" d="M48.4,72.5c-4.1-1.5-7.9-1-10.5,1.3c-2.1,1.9-3,4.8-2.3,7.2c0.6,2.2,2.5,3.8,5.2,4.3c0.3,0.1,0.5,0.4,0.5,0.7
		c0,0,0,0,0,0c6.4-4.4,2.5-10.7,2.5-10.7l5.3,0.6c-7.1-2-8.3,0.3-8.7,1.2c-0.1,0.1-0.1,0.2-0.2,0.3c-0.5,1.3-0.6,2.4-0.1,3.3
		c0.5,1,1.5,1.8,3.1,2.3c0.3,0.1,0.5,0.4,0.4,0.7c-0.1,0.3-0.4,0.5-0.7,0.4c-1.9-0.6-3.2-1.6-3.8-2.9c-0.6-1.2-0.5-2.6,0.1-4.2
		c0,0,0-0.1,0.1-0.1c0-0.1,0.1-0.1,0.1-0.2c1-1.9,3.3-4,11.2-1.4C49.7,74.3,48.7,73.2,48.4,72.5z"/>
	<path class="st0" d="M27.7,41.9C27.7,41.9,27.7,41.9,27.7,41.9c0.7,2.5,2.6,4.6,5.6,6.1c7.2,0,9-7.1,9.8-8.9c0.8-4.4-1.9-5.7-3-1.1
		c-0.1-2.1,1.4-4.6,3.5-7.4c-0.1-0.1-0.2-0.2-0.3-0.3c-0.1-0.3,0.1-0.6,0.4-0.7c0.3-0.1,0.5-0.1,0.8-0.2C49.7,22.8,57.1,14.6,54.6,5
		C51,18,40.4,20.6,34.8,26.5c-5.7,5.1-8.1,10.2-7.4,14.5c0.1,0,0.2,0.1,0.3,0.1C27.9,41.3,27.9,41.7,27.7,41.9z"/>
	<path class="st0" d="M56.1,31.2C56.1,31.2,56.1,31.2,56.1,31.2c5.5,1,6.3,2.5,8.3,4.4c0,0,0,0,0,0c0.1-0.1,0.2-0.1,0.4-0.1
		c0.4-5.2,12.5-14.5,5.8-27c-3.5,15.9-12,18.7-14.7,22.4C56,30.8,56.1,31,56.1,31.2z"/>
	<path class="st0" d="M44.1,30.6c2.3-0.7,6.1,0,8.9,0.6c1,0.2,1.8,0.4,2.5,0.4c0,0,0,0,0.1,0c0.3,0,0.5-0.2,0.6-0.5
		c-0.2,0-0.3-0.1-0.5-0.1c0.1-0.1,0.2-0.3,0.3-0.4c-0.1-0.1-0.2-0.1-0.3-0.2c-0.6-0.1-1.4-0.2-2.4-0.4c-2.6-0.5-6.1-1.2-8.6-0.7
		c-0.3,0.4-0.6,0.8-0.9,1.2C43.7,30.7,43.9,30.7,44.1,30.6z"/>
	<path class="st0" d="M43.4,30.3c0,0.1,0.1,0.2,0.3,0.3c0.3-0.4,0.6-0.8,0.9-1.2c-0.3,0-0.6,0.1-0.8,0.2
		C43.4,29.7,43.3,30,43.4,30.3z"/>
	<path class="st0" d="M56.1,31.2C56.1,31.2,56.1,31.2,56.1,31.2c0-0.2,0-0.4-0.2-0.5c-0.1,0.1-0.2,0.3-0.3,0.4
		C55.8,31.1,55.9,31.2,56.1,31.2z"/>
	<path class="st0" d="M64.8,35.9c-0.1-0.1-0.3-0.3-0.4-0.4c-0.2,0.2-0.2,0.5,0,0.8c0.1,0.1,5.7,6.3,8.2,12c0,0.1,0.1,0.1,0.1,0.2
		c0.6,0.6,1.4,1,2.2,1.4c1.8,1,2.8,1.6,2.5,3.2c0,0.1,0,0.2,0,0.3c0.3-0.5,0.7-1.1,1-1.7c-0.4-1.4-1.8-2.1-3.1-2.8
		c-0.7-0.4-1.4-0.7-1.9-1.2c-2.6-5.8-8.1-11.9-8.3-12.1c-0.1-0.1-0.3-0.2-0.4-0.2C64.8,35.5,64.8,35.7,64.8,35.9z"/>
	<path class="st0" d="M64.4,35.5c0.1,0.1,0.3,0.2,0.4,0.4c0-0.2,0-0.4,0-0.6C64.7,35.3,64.5,35.4,64.4,35.5
		C64.4,35.5,64.4,35.5,64.4,35.5z"/>
	<path class="st0" d="M27.7,42c-0.1-0.3-0.2-0.7-0.2-1c-0.2,0-0.4,0-0.5,0.1c-0.2,0.2-3.3,3.3-3,6.1c0.4,0.2,0.9,0.3,1.3,0.5
		C24.4,45.9,26.6,43,27.7,42z"/>
	<path class="st0" d="M27.7,41.9c0.2-0.2,0.2-0.6,0-0.8C27.6,41,27.5,41,27.4,41C27.5,41.3,27.6,41.6,27.7,41.9
		C27.7,41.9,27.7,41.9,27.7,41.9z"/>
	<path class="st0" d="M43.9,75.2c0,0,3.8,6.3-2.5,10.7c-0.1,0.3-0.3,0.4-0.5,0.4c0,0-0.1,0-0.1,0c0,0,0,0,0,0
		c-0.9,0.6-2,1.1-3.3,1.5c2.8-0.3,4.9-0.8,6.6-1.6c0,0,0-0.1,0-0.1c0-0.3,0.3-0.5,0.6-0.5c0.1,0,0.3,0,0.4,0.1
		c6-3.3,4.8-9.1,4.6-9.8c-0.2-0.1-0.3-0.1-0.5-0.1L43.9,75.2z"/>
	<path class="st0" d="M78.6,53.3c-0.1,0.3-0.3,0.5-0.6,0.5c0,0-0.1,0-0.1,0c-0.2,0-0.4-0.2-0.4-0.4c-0.3,0.4-0.5,0.7-0.7,0.9
		c-0.2-0.4-0.5-1.6-0.6-2.9c0-0.3-0.2-0.5-0.5-0.5c-0.3,0-0.5,0.1-0.6,0.3c0,0.1-1.1,2.5-1.8,4.7c-0.3-1.1-0.6-3.1-0.8-4.8
		c0-0.2-0.2-0.4-0.4-0.5c-0.2-0.1-0.5,0-0.6,0.2c-0.1,0.1-2,2.7-1.8,6.8c-3-5-6.4-12.6-6.4-12.7c-0.1-0.3-0.4-0.4-0.7-0.3
		c-0.3,0.1-0.4,0.4-0.4,0.7c0.1,0.4,2.4,10.8,4.1,14.9c-0.1,0.2-0.2,0.2-0.2,0.2c-0.3,0.1-0.9-0.2-1.3-0.4c-0.2-0.2-0.5-0.1-0.7,0.1
		c0.4,0.4,0.8,0.8,1,1.3c0.2,0.1,0.5,0.1,0.8,0.1c0.2,0,0.4,0,0.5-0.1c0.3-0.1,0.8-0.4,1-1.1c0-0.1,0-0.3,0-0.4c-0.9-2-2-6-2.8-9.4
		c1.6,3.3,3.8,7.4,5.5,9.9c0.2,0.2,0.5,0.3,0.7,0.2c0.2-0.1,0.4-0.4,0.3-0.7c-0.8-3.1-0.2-5.5,0.4-7c0.7,4.7,1.2,4.8,1.6,4.8
		c0.2,0,0.6,0,0.9-0.7c0.3-1.1,0.9-2.5,1.3-3.5c0.2,0.8,0.5,1.6,1.1,1.8c0.2,0.1,0.6,0.2,1.1-0.2c0.8-0.8,2.4-3.6,3.3-5.4
		c0.3,1.8,0.2,4.7-2.8,5.8c-0.2,0.1-0.4,0.3-0.4,0.5c0.5,0,0.9,0.1,1.3,0.3c3.8-1.8,3.4-6.3,2.6-8.5c-0.1-0.2-0.3-0.4-0.5-0.4
		c-0.2,0-0.4,0.1-0.5,0.3c-0.5,1.1-1.3,2.5-2,3.7C78.7,52.1,78.7,52.7,78.6,53.3z"/>
	<path class="st0" d="M77.9,53.8c0,0,0.1,0,0.1,0c0.3,0,0.5-0.2,0.6-0.5c0.1-0.6,0.1-1.2,0-1.7c-0.4,0.6-0.7,1.2-1,1.7
		C77.5,53.6,77.7,53.7,77.9,53.8z"/>
	<path class="st0" d="M77.7,56.4c0-0.1,0-0.1,0-0.2c0,0,0,0,0,0c-2.2,0-4,2.1-4,4.6c0,2.5,1.8,4.6,3.9,4.6c0-0.2,0.1-0.5,0.3-0.6
		c0.3-0.2,0.6-0.1,0.8,0.2c0,0.1,0.1,0.1,0.1,0.2c1.7-0.6,2.9-2.3,2.9-4.4c0-2-1.1-3.7-2.6-4.3c-0.2,0.1-0.4,0.2-0.6,0.2
		C78.1,56.8,77.8,56.7,77.7,56.4z M79.7,60.1c1,1.3-0.1,4.6-2.4,3.6c-2.4-0.8-1.4-4.7,0.8-4.8c0.2,1.3,0.5,2.5,0.5,2.5
		S78.6,61.4,79.7,60.1z"/>
	<path class="st0" d="M77.7,56.4c0.1,0.3,0.4,0.4,0.7,0.3c0.2-0.1,0.4-0.2,0.6-0.2c-0.4-0.2-0.9-0.3-1.3-0.3
		C77.6,56.3,77.6,56.3,77.7,56.4z"/>
	<path class="st0" d="M61,59l-3.4,4.7c0,0.4,0.1,0.8,0.3,1.2c0.9,2.4,3.3,3.7,5.3,3s3.1-3.3,2.2-5.7c-0.1-0.2-0.2-0.5-0.3-0.7
		c-0.5-0.2-0.9-0.4-1-0.5c-0.3-0.2-0.3-0.5-0.1-0.8c0,0,0.1-0.1,0.1-0.1C63.2,59.3,62.1,58.9,61,59z M62.7,61.4
		c0.3,1.3,0.4,2.1,0.4,2.1s0.7-0.7,1.4-1.3c1,1.9-0.4,4.9-2.8,3.8C59.2,64.2,61.7,61.2,62.7,61.4z"/>
	<path class="st0" d="M64.2,61c0.1,0,0.5,0.3,1,0.5c-0.3-0.5-0.6-1-1-1.3c0,0-0.1,0-0.1,0.1C63.9,60.4,63.9,60.8,64.2,61z"/>
	<path class="st0" d="M60.1,59.2c0.3-0.1,0.6-0.2,0.9-0.2l0.1-0.1c-0.2,0-7.8-4.7-11.4-10.6c-1.8,4.4,3.1,9.2,3.1,9.2
		s-4.9-0.5-10.9-5.8c2.7,8,10.1,7.9,9.5,7.9c-0.6,0-5.7,1-9.5,0.5c6,5.2,10.7,2.3,10.7,2.3s-3,3.4-4.7,4.2c4.3,0.8,9.5-2.5,9.5-2.5
		l0.3-0.4C57.4,61.7,58.4,59.8,60.1,59.2z"/>
	<path class="st0" d="M60.1,59.2c-1.7,0.6-2.7,2.5-2.4,4.5L61,59C60.7,59,60.4,59.1,60.1,59.2z"/>
	<path class="st0" d="M83.5,79c0.1,0,0.2,0,0.3,0.1c0.3,0.2,0.4,0.5,0.2,0.8c-0.1,0.1-0.1,0.2-0.2,0.3c0.2-0.1,0.4-0.2,0.5-0.4
		c0-0.3-0.1-0.6-0.3-0.9c-0.1-0.1-0.1-0.2-0.1-0.3C83.7,78.8,83.6,78.9,83.5,79z"/>
	<path class="st0" d="M83,79.3C83,79.3,83,79.3,83,79.3c-0.3,0.1-0.6,0-1-0.3c-0.5-0.3-1.1-0.8-1.7-1.3c-1.9-1.6-4.3-3.5-6.6-3.1
		c-1,0.2-1.9,0.9-2.6,2c-0.2,0.3-0.1,0.6,0.2,0.8c0.3,0.2,0.6,0.1,0.8-0.2c0.5-0.9,1.1-1.3,1.8-1.5c0.3-0.1,0.6,0,1,0
		c0,0,0-0.1,0-0.1c0.1-0.3,0.4-0.5,0.7-0.4c0.3,0.1,0.5,0.4,0.4,0.7c0,0,0,0.1-0.1,0.2c1.2,0.6,2.5,1.6,3.6,2.5
		c0.6,0.5,1.3,1,1.8,1.3c0.3,0.2,0.5,0.3,0.8,0.4C82.4,80.1,82.7,79.8,83,79.3z"/>
	<path class="st0" d="M77.5,65.4c0,0.1,0,0.1,0.1,0.2c0.6,1,1.5,1.8,2.6,2.7c2.2,1.8,4.7,3.9,4.3,8.1c-0.1,0.7-0.2,1.3-0.4,1.8
		c0.2-0.1,0.6-0.1,0.7,0.1c0.1,0.1,0.2,0.3,0.3,0.4c0.3-0.6,0.5-1.4,0.6-2.2c0.4-4.8-2.4-7.2-4.7-9.1c-0.9-0.7-1.7-1.5-2.2-2.2
		C78.4,65.3,78,65.4,77.5,65.4C77.6,65.4,77.6,65.4,77.5,65.4z"/>
	<path class="st0" d="M77.8,64.8c-0.2,0.1-0.3,0.4-0.3,0.6c0,0,0,0,0.1,0c0.4,0,0.8-0.1,1.1-0.2c0-0.1-0.1-0.1-0.1-0.2
		C78.4,64.7,78.1,64.6,77.8,64.8z"/>
	<path class="st0" d="M73.2,78.3c-0.5,0.2-0.9,0.3-1.5,0.1c-2.8-0.9-3.6-2.5-3.4-3.8c0.2-1.3,1.3-2.2,2.6-2.2c0,0,0.1,0,0.1,0
		c0.3,0,0.5-0.2,0.6-0.5c0.1-0.9-0.5-2-0.7-2.2c-0.2-0.3-0.5-0.3-0.8-0.2c-0.3,0.2-0.3,0.5-0.2,0.8c0.2,0.2,0.3,0.6,0.5,1
		c-1.6,0.2-2.9,1.5-3.2,3.2c-0.3,1.8,0.6,4,4.1,5.1c0.4,0.1,0.7,0.2,1.1,0.2c0.5,0,0.9-0.1,1.3-0.3c1.4-0.8,2.1-2.6,2.3-3.2
		c-0.4-0.2-0.7-0.3-1.1-0.4C74.7,76.4,74.1,77.8,73.2,78.3z"/>
	<path class="st0" d="M75.6,75.2c-0.3-0.1-0.6,0.1-0.7,0.4c0,0,0,0.1,0,0.1c0.4,0.1,0.7,0.2,1.1,0.4c0-0.1,0-0.2,0.1-0.2
		C76.1,75.6,76,75.3,75.6,75.2z"/>
	<path class="st0" d="M49.3,72.2c-0.1,0.3-0.4,0.4-0.7,0.3c-0.1,0-0.1,0-0.2-0.1c0.3,0.8,1.3,1.8,2.3,2.6c1.6,0.5,3.5,1.2,5.7,2.2
		c0.3,0.1,0.7,0.3,1.2,0.6c0.2,0,0.5,0,0.7,0c0.4,0,0.7,0,1.1-0.1c-0.2-0.2-0.2-0.5,0-0.7c0.2-0.2,0.6-0.3,0.8-0.1
		c0,0,0.3,0.2,0.7,0.5c0.1,0,0.1,0,0.2,0c0,0,0.1,0,0.1,0c2.9-1.6,2.9-2.9,2.7-4.4c-0.2-1-0.3-1.8,1-3.1c0.2-0.2,0.2-0.6,0-0.8
		c-0.2-0.2-0.6-0.2-0.8,0c-1.8,1.7-1.6,3-1.4,4.1c0.2,1.1,0.3,1.9-2,3.2c-3.2,0.9-6.1-0.2-7.9-1.3c-2.1-1.3-3.2-2.7-3.3-3
		c0-0.7-1-1.6-3.9-3.7c7.9,3.1,13.5-0.6,13.5-0.7c0.3-0.2,0.3-0.5,0.1-0.8s-0.5-0.3-0.8-0.1c-0.4,0.2-8.7,5.8-19.9-4.2
		c-0.2-0.2-0.6-0.2-0.8,0c-0.2,0.2-0.2,0.6,0,0.8c1.9,2,4.6,4,6.8,5.6c0.8,0.6,1.7,1.3,2.4,1.9c0.7,0.2,1.3,0.4,2,0.6
		C49.3,71.6,49.4,71.9,49.3,72.2z"/>
	<path class="st0" d="M59.4,77.9c0.4,0.3,8.2,6.4,13.3,6.5l4-1.4c0.5-0.6,0.6-1.2,0.7-1.7c0.1-0.7,0.2-0.8,0.5-0.8
		c0.4-0.1,0.9,0.2,1.4,0.6c0.4,0.2,0.7,0.5,1.2,0.6l2.9-1c0.1-0.1,0.2-0.3,0.3-0.4c0,0-0.1,0.1-0.1,0.1c-0.3,0.1-0.6,0.2-0.9,0.2
		c-0.2,0-0.4,0-0.6-0.1c-0.2,0.1-0.3,0.3-0.5,0.3c-0.5,0.1-1-0.2-1.6-0.6c-0.7-0.4-1.4-0.9-2.3-0.7c-1,0.2-1.2,1.1-1.4,1.7
		c-0.2,0.9-0.4,1.9-3,2.2c-3.8,0.6-10.4-4-12.5-5.6C60.4,77.7,59.9,77.8,59.4,77.9C59.4,77.9,59.4,77.9,59.4,77.9z"/>
	<path class="st0" d="M83.5,79c-0.2,0-0.3,0.1-0.4,0.2c0,0,0.1,0,0.1,0C83.3,79.2,83.4,79.1,83.5,79z"/>
	<path class="st0" d="M83.6,80.3c0,0,0.1-0.1,0.1-0.1c0.1-0.1,0.1-0.2,0.2-0.3c0.2-0.3,0.1-0.6-0.2-0.8c-0.1-0.1-0.2-0.1-0.3-0.1
		c-0.1,0.1-0.2,0.2-0.3,0.2c0,0-0.1,0-0.1,0c0,0,0,0,0,0c-0.3,0.5-0.6,0.8-0.8,1.1c0.2,0.1,0.4,0.1,0.6,0.1
		C83.1,80.5,83.4,80.4,83.6,80.3z"/>
	<path class="st0" d="M59.4,77.1c-0.2,0.2-0.1,0.5,0,0.7c0.5-0.1,1-0.1,1.5-0.3c-0.4-0.3-0.7-0.5-0.7-0.5
		C59.9,76.9,59.5,76.9,59.4,77.1z"/>
	<path class="st0" d="M61.7,66c2.4,1.1,3.8-1.9,2.8-3.8c-0.7,0.6-1.4,1.3-1.4,1.3s-0.1-0.8-0.4-2.1C61.7,61.2,59.2,64.2,61.7,66z"/>
	<path class="st0" d="M77.3,63.7c2.3,1,3.4-2.3,2.4-3.6c-1.1,1.3-1.1,1.3-1.1,1.3s-0.3-1.2-0.5-2.5C75.9,59,74.9,62.9,77.3,63.7z"/>
	<path class="st0" d="M54.1,77.6c0.3,1,0.2,2.9-2.8,5.9c4.9-1,6.1-3.1,6.3-4.2c-0.7-0.5-1.3-0.9-1.7-1
		C55.3,78.1,54.7,77.8,54.1,77.6z"/>
	<path class="st0" d="M69.3,93c-2.4-3.8-1.5-6.1-1-7c-1.4-0.6-2.8-1.3-4.1-2.1C64.4,85.9,65.3,92.1,69.3,93z"/>
	<path class="st0" d="M58.5,86.7c3.4-0.2,4.9-2.1,5.5-3c-1.2-0.8-2.4-1.6-3.5-2.3C60.6,82.6,60.4,84.9,58.5,86.7z"/>
	<path class="st0" d="M73.6,84.4c-0.2,0-0.5,0.1-0.8,0.1c0,0,0,0,0,0l-2.8,1c1.6,0.5,3.2,0.7,4.6,0.4c1.5-0.4,2.6-1.5,3.4-3.2
		L76.8,83C76.3,83.6,75.3,84.1,73.6,84.4z"/>
	<path class="st0" d="M83.7,85.2l0.4-2.2c-0.6,0.5-1.7,1.1-3.4,0.7l0.5,2.1L83.7,85.2z"/>
	<path class="st0" d="M73.5,88.7v-1.6c-0.2,0-0.3,0-0.5,0c-1.2,0-2.5-0.3-3.8-0.7l0.4,1.7L73.5,88.7z"/>
	<path class="st0" d="M84.8,87.4c0.1,0,0.2,0.1,0.3,0.2c1.1-2.1,0.6-5.7,0.3-7c-0.1,0.7-0.4,1.5-0.9,2.1
		C84.7,83.7,84.9,85.5,84.8,87.4z"/>
	<path class="st0" d="M80.5,86.9v-3.2c-0.4-0.1-0.9-0.3-1.5-0.6c-0.6,1.2-1.3,2.1-2.1,2.8l0.8,2L80.5,86.9z"/>
	<path class="st0" d="M77,88.4l-0.2-2.5c-0.6,0.4-1.2,0.7-1.9,0.9C74.5,87,74.1,87,73.7,87l0.8,1.7L77,88.4z"/>
	<path class="st0" d="M81.9,81.8c-0.5,0.1-0.9,0-1.3-0.1l-1,0.4c1.6,0.9,3.1,0.9,4,0c0.4-0.5,0.7-1,0.7-1.6l-0.8,0.3
		C83,81.3,82.5,81.6,81.9,81.8z"/>
	<path class="st0" d="M81.9,81.8c0.6-0.1,1.1-0.5,1.6-1.1l-2.9,1C81,81.8,81.4,81.9,81.9,81.8z"/>
	<path class="st0" d="M72.8,84.4c0.3,0,0.5,0,0.8-0.1c1.8-0.2,2.7-0.8,3.2-1.4L72.8,84.4C72.8,84.4,72.8,84.4,72.8,84.4z"/>
	<path class="st0" d="M44.5,86.9c12.8,1.9,18.4,6,20.9,7.7c0.1,0.1,0.2,0.1,0.3,0.1c0.1,0,0.2-0.1,0.3-0.1c-0.2-0.3-0.5-0.5-0.7-0.8
		l1,0.3c0-0.1-0.1-0.3-0.2-0.4c-2.5-1.8-8.2-5.9-20.9-7.8c-0.3,0.2-0.7,0.4-1.1,0.5C44.1,86.6,44.2,86.8,44.5,86.9z"/>
	<path class="st0" d="M44,86.2c0,0,0,0.1,0,0.1c0.4-0.2,0.7-0.3,1.1-0.5c-0.1,0-0.3,0-0.4-0.1C44.4,85.7,44.1,85.9,44,86.2z"/>
	<path class="st0" d="M41.4,85.9c0.1-0.3-0.1-0.6-0.5-0.7c-2.7-0.5-4.6-2-5.2-4.3c-0.7-2.4,0.2-5.3,2.3-7.2
		c2.6-2.3,6.4-2.8,10.5-1.3c0-0.1-0.1-0.3-0.1-0.4c-0.1-0.2-0.6-0.7-1.3-1.2c-3.8-0.9-7.3-0.2-9.8,2.1c-2.4,2.2-3.4,5.5-2.6,8.4
		c0.8,2.7,2.9,4.5,6.1,5.1C40.9,86.2,41.1,86.1,41.4,85.9C41.4,85.9,41.4,85.9,41.4,85.9z"/>
	<path class="st0" d="M40.8,86.4c0.3,0,0.5-0.2,0.5-0.4c-0.2,0.1-0.4,0.3-0.7,0.4c0,0,0,0,0,0C40.7,86.4,40.8,86.4,40.8,86.4z"/>
	<path class="st0" d="M48.3,72.1c0,0.1,0,0.2,0.1,0.4c0.1,0,0.1,0,0.2,0.1c0.3,0.1,0.6,0,0.7-0.3c0.1-0.3,0-0.6-0.3-0.7
		c-0.7-0.3-1.4-0.5-2-0.6C47.7,71.4,48.2,71.9,48.3,72.1z"/>
	<path class="st0" d="M83.4,99.2L83,99.1c0,0,0,0,0,0l-3,0.9c0,0,0.2-0.6,0.4-1.7l-2.3-0.7c0.8,1.5,1.6,2.5,1.6,2.5l-2.9,0.7
		c0,0-0.4-1.7-0.7-3.8l-2.3-0.7c1.1,3.3,2.7,4.8,2.7,4.8l-4.8-1.2c0,0-0.2-2-0.2-4.3L66.3,94c0,0.1,0,0.3-0.1,0.4
		c0,0.1-0.1,0.1-0.1,0.1c6.7,7.8,9.9,7.1,9.9,7.1s5.5-2.4,7.4-1.9c1.9,0.5,3.2-1.7,3.2-1.7s-0.3-3.6-2.1-7.1
		c-0.3-0.1-0.5-0.3-0.5-0.6l0-0.2c-0.3-0.5-0.7-1.1-1.1-1.6C84.4,94.7,83.4,99.2,83.4,99.2z"/>
	<path class="st0" d="M66,94.5c0,0,0.1-0.1,0.1-0.1c0.1-0.1,0.1-0.3,0.1-0.4l-1-0.3C65.6,94,65.8,94.3,66,94.5z"/>
	<path class="st0" d="M80.5,83.1v0.6c0.1,0,0.1,0,0.2,0L80.5,83.1z"/>
	<path class="st0" d="M73.5,86.5v0.6c0.1,0,0.2,0,0.2,0L73.5,86.5z"/>
	<path class="st0" d="M76.7,85.3l0.1,0.6c0,0,0.1-0.1,0.1-0.1L76.7,85.3z"/>
	<path class="st0" d="M84.4,82.7C84.4,82.7,84.5,82.7,84.4,82.7c0-0.6-0.1-0.9-0.1-0.9L84.1,83C84.2,82.9,84.3,82.8,84.4,82.7z"/>
	<path class="st0" d="M83.8,78.6c0.1-0.1,0.2-0.3,0.3-0.5c0,0,0,0-0.1,0C83.9,78.3,83.8,78.4,83.8,78.6z"/>
	<path class="st0" d="M57.5,77.9c-0.9-0.1-1.7-0.2-2.5-0.5l2.7,1.3c0,0,0,0.2-0.1,0.6c0.6,0.4,1.2,0.8,1.9,1.3
		c0.3,0.2,0.7,0.5,1,0.7c0-0.5-0.1-0.9-0.1-0.9l8.2,5.1c0,0-0.1,0.1-0.3,0.4c0.3,0.1,0.6,0.2,0.9,0.4l-0.1-0.6l0.9-0.3
		c-3.4-1.1-7.1-3.7-9.8-5.7C59.1,79,58.2,78.4,57.5,77.9z"/>
	<path class="st0" d="M64,83.7c0.1,0.1,0.2,0.1,0.3,0.2c0-0.4,0-0.7,0-0.7S64.1,83.4,64,83.7z"/>
	<path class="st0" d="M84.3,79.8c0,0.2,0,0.3,0,0.5l1-0.4c0,0,0.1,0.2,0.1,0.6c0.1-0.7,0-1.3-0.3-1.9C84.9,79.1,84.6,79.5,84.3,79.8
		z"/>
	<path class="st0" d="M78.6,81.7c-0.2,0-0.3,0.2-0.4,0.3c-0.1,0.2-0.2,0.4-0.3,0.6l1.6-0.6c-0.2-0.1-0.3-0.2-0.5-0.3
		C79,81.6,78.8,81.6,78.6,81.7z"/>
	<path class="st0" d="M51,75.4c-0.1-0.1-0.2-0.2-0.4-0.3c-7.9-2.5-10.2-0.5-11.2,1.4c-0.1,0.1-0.1,0.2-0.1,0.2c0,0-0.1,0.1-0.1,0.1
		c-0.6,1.6-0.7,3-0.1,4.2c0.6,1.3,1.9,2.3,3.8,2.9c0.3,0.1,0.6-0.1,0.7-0.4c0.1-0.3-0.1-0.6-0.4-0.7c-1.6-0.5-2.6-1.3-3.1-2.3
		c-0.4-0.9-0.4-2,0.1-3.3c0.1-0.1,0.1-0.2,0.2-0.3c0.5-0.9,1.7-3.2,8.7-1.2l0.5,0.1c0,0,0,0,0,0.1c1.3,0.4,2.7,0.9,4.4,1.6
		c-0.1-0.2-0.2-0.4-0.2-0.6C52.6,76.5,51.6,75.8,51,75.4z"/>
	<path class="st0" d="M49.2,75.8c0.2,0,0.3,0.1,0.5,0.1c0-0.1,0-0.1,0-0.1L49.2,75.8z"/>
	<path class="st0" d="M84.1,78.1c-0.1,0.2-0.2,0.4-0.3,0.5c0,0.1,0,0.2,0.1,0.3c0.2,0.3,0.3,0.6,0.3,0.9c0.3-0.3,0.6-0.7,0.8-1.2
		c-0.1-0.1-0.2-0.3-0.3-0.4C84.7,78,84.4,78,84.1,78.1z"/>
	<path class="st0" d="M50.7,75.1c0.1,0.1,0.2,0.2,0.4,0.3c0.6,0.4,1.6,1.1,2.8,1.6c-0.1-0.1-0.1-0.2-0.1-0.2l1.3,0.6
		c0.8,0.2,1.6,0.4,2.5,0.5c-0.5-0.3-0.9-0.5-1.2-0.6C54.2,76.3,52.3,75.6,50.7,75.1z"/>
	<path class="st0" d="M57.7,78.7L55,77.4c-0.4-0.1-0.8-0.3-1.2-0.4c0.1,0.1,0.2,0.3,0.2,0.6c0.6,0.2,1.2,0.5,1.8,0.8
		c0.4,0.1,1,0.5,1.7,1C57.7,78.9,57.7,78.7,57.7,78.7z"/>
	<path class="st0" d="M53.8,77c0.4,0.2,0.8,0.3,1.2,0.4l-1.3-0.6C53.7,76.8,53.8,76.9,53.8,77z"/>
	<path class="st0" d="M60.4,80.5c0,0,0.1,0.3,0.1,0.9c1.1,0.8,2.2,1.6,3.5,2.3c0.2-0.3,0.2-0.5,0.2-0.5s0,0.3,0,0.7
		c1.3,0.8,2.7,1.6,4.1,2.1c0.2-0.3,0.3-0.4,0.3-0.4L60.4,80.5z"/>
	<path class="st0" d="M84.3,80.4c-0.1,0.6-0.3,1.2-0.7,1.6c-0.9,1-2.4,1-4,0L78,82.6c-0.8,1.7-2,2.8-3.4,3.2c-1.4,0.4-3,0.2-4.6-0.4
		l-0.9,0.3l0.1,0.6c1.3,0.5,2.6,0.7,3.8,0.7c0.2,0,0.3,0,0.5,0v-0.6l0.2,0.5c0.4,0,0.8-0.1,1.1-0.2c0.7-0.2,1.3-0.5,1.9-0.9
		l-0.1-0.6l0.2,0.5c0.8-0.7,1.6-1.6,2.1-2.8c0.5,0.3,1,0.5,1.5,0.6v-0.6l0.2,0.6c1.7,0.4,2.8-0.2,3.4-0.7l0.2-1.2
		c0,0,0.1,0.3,0.2,0.9c0.5-0.6,0.9-1.3,0.9-2.1c-0.1-0.4-0.1-0.6-0.1-0.6L84.3,80.4z"/>
	<path class="st0" d="M80,91.9c0.8,2.7,0.7,4.9,0.4,6.4l2.6,0.8C83,98.8,82,93.1,80,91.9z"/>
	<path class="st0" d="M83,99.1C83,99.1,83,99.1,83,99.1l-2.6-0.8C80.2,99.4,80,100,80,100L83,99.1z"/>
	<path class="st0" d="M76.2,92.3c-0.3,1.4-0.2,3.1-0.1,4.7l2,0.6C77.4,96.2,76.6,94.3,76.2,92.3z"/>
	<path class="st0" d="M79.7,100.1c0,0-0.7-1-1.6-2.5l-2-0.6c0.2,2.1,0.7,3.8,0.7,3.8L79.7,100.1z"/>
	<path class="st0" d="M72.7,90.3c-0.8,1.3-1.1,3.4-1.2,5.3l2.3,0.7C73.3,94.7,72.9,92.7,72.7,90.3z"/>
	<path class="st0" d="M71.7,99.9l4.8,1.2c0,0-1.5-1.5-2.7-4.8l-2.3-0.7C71.5,97.9,71.7,99.9,71.7,99.9z"/>
	<path class="st0" d="M88.5,95.9c0-0.2-0.7-5.3-3.3-8.3c0,0,0,0,0,0c-0.1,0.2-0.2,0.3-0.3,0.5c0-0.2,0-0.4,0-0.7c-0.1,0-0.2,0-0.3,0
		c-0.2,0.1-0.4,0.3-0.4,0.5L84,90c0.2,0.3,0.3,0.6,0.5,0.8c0,0,0,0,0,0c0.3,0,0.6-0.2,0.6-0.5l0.1-0.8c1.7,2.8,2.2,6.5,2.2,6.6
		c0.3,1.2,0.8,4.8-0.3,6.1c-0.3,0.4-0.7,0.6-1.2,0.6c-3.3-0.1-4,1-4.1,2.8c0,0.2-0.4,0.6-1.3,1c-0.7,0.3-3.3,0.9-6-1.8
		c-0.1-0.1-0.3-0.3-0.4-0.4c-1.1-1-2.7-2.6-7.8-2.4c-5.1,0.2-6.8-2.2-8.3-4.3l-0.2-0.3c-1.8-2.5-5.3-3-12.5-3.3
		c-5.3,0-9.5-1.6-12.5-4.6c-4.1-4.2-4.6-10-4.7-11.5c-0.3,0.1-0.6,0.2-1.1,0.2c0,0,0,0-0.1,0c0.1,1.8,0.7,7.8,5,12.2
		c3.2,3.2,7.6,4.9,13.3,4.9c7.6,0.3,10.2,1,11.6,2.9l0.2,0.3c1.6,2.2,3.6,5,9.3,4.8c4.7-0.2,6,1.1,7,2.1c0.2,0.2,0.3,0.3,0.5,0.4
		c1.9,1.9,3.8,2.4,5.2,2.4c0.9,0,1.6-0.2,2-0.3c1.2-0.4,2-1.2,2-1.9c0.1-1.1,0.1-1.9,2.9-1.8c0.9,0,1.6-0.3,2.1-1
		C89.6,100.9,88.6,96.4,88.5,95.9z"/>
	<path class="st0" d="M84.8,87.4c0,0.2,0,0.4,0,0.7c0.1-0.2,0.2-0.3,0.3-0.5C85,87.5,84.9,87.5,84.8,87.4z"/>
	<path class="st0" d="M84.4,90.9c-0.1-0.3-0.3-0.6-0.5-0.8l0,0.2C83.9,90.5,84.1,90.8,84.4,90.9z"/>
	<path class="st0" d="M27.2,54.9c0.2,0,0.3,0,0.5,0c-0.2,0-0.5-0.1-0.7-0.1C27,54.8,27.1,54.9,27.2,54.9z"/>
	<path class="st0" d="M26.9,77.5c0-0.3,0.2-0.6,0.6-0.6c0.3,0,0.6,0.3,0.6,0.6c0,0,0,0.2,0,0.4c1.3-0.4,1.6-1.7,1.9-2.9
		c0.3-1.3,0.6-3,2.2-4.6c0.7-0.7,1.1-0.8,1.3-0.7c0.1,0,0.7,0.4,0.8,2.8c0,0.3,0.3,0.6,0.6,0.5c0.3,0,0.6-0.3,0.5-0.6
		c-0.1-2.2-0.6-3.4-1.6-3.8c-0.7-0.3-1.6,0.1-2.5,1c-1.8,1.8-2.2,3.7-2.5,5.1c-0.4,1.7-0.5,2.2-1.8,2.2c-2.4-0.3-2.4-1.8-2.1-4.8
		c0.2-3.1,0.5-6.9-3-10.1c0-4-1.1-4.8-3.2-6l-0.3-0.2c-2.6-1.2-4.2-3-4.8-5.2c-0.2-0.6-0.2-1.2-0.2-1.8c2.1-0.4,5.1,2.2,6.5,3.6
		c0-0.2,0.1-0.4,0.1-0.4c0.1-0.3,0.4-0.5,0.7-0.3c0.3,0.1,0.5,0.4,0.3,0.7c0,0-0.1,0.2-0.1,0.4c0.8-0.2,3.1-0.6,4.8,1
		c0.6,0,1.1,0,1.6,0.1c-2.1-3-5.6-2.4-6.7-2.2c-0.9-0.9-4.3-4.1-7.2-4c0.2-0.9,0.5-1.6,0.9-2.2c0.7,0.3,1.7,0.6,2.9,0.9
		c5.7,1.7,15.1,4.4,17,10.7l-1,0c-0.4-0.9-1.8-3.1-5.7-3.2c1.3,0.2,2.2,0.6,2.6,1.4c0.1,0.1,0.1,0.3,0.2,0.4c1.6,0.8,2,2,2,2.1
		c0.1,0.2,0.3,0.4,0.5,0.4l2.2,0.1c0.2,0,0.3-0.1,0.5-0.2c0.1-0.1,0.2-0.3,0.1-0.5c-1-4.8-5.8-7.8-10.6-9.8c0,0,0,0.1,0.1,0.1
		c0.1,0.3,0,0.6-0.2,0.8c-0.1,0-0.2,0.1-0.3,0.1c-0.2,0-0.4-0.1-0.5-0.3c-0.2-0.4-0.3-0.8-0.3-1.2c-2.2-0.8-4.3-1.4-6.1-2
		c-1.3-0.4-2.5-0.7-3.2-1c-0.2-0.1-0.5,0-0.7,0.2c-1,1.3-1.9,3.8-1.3,6.5c0.4,1.8,1.7,4.2,5.4,6l0.3,0.2c1.8,1,2.6,1.5,2.6,5.2
		c0,0.2,0.1,0.3,0.2,0.4c3.3,2.9,3,6.4,2.8,9.4c-0.2,2.8-0.4,5.5,3.1,6.1C26.9,77.7,26.9,77.5,26.9,77.5z"/>
	<path class="st0" d="M24.7,48.7c0.1,0,0.2,0,0.3-0.1c0.3-0.1,0.4-0.5,0.2-0.8c0,0,0-0.1-0.1-0.1c-0.4-0.2-0.9-0.3-1.3-0.5
		c0,0.4,0.1,0.8,0.3,1.2C24.3,48.6,24.5,48.7,24.7,48.7z"/>
	<path class="st0" d="M28.1,77.9c0-0.2,0-0.4,0-0.4c0-0.3-0.2-0.6-0.6-0.6c-0.3,0-0.6,0.2-0.6,0.6c0,0,0,0.3,0,0.6c0,0,0,0,0.1,0
		C27.4,78.1,27.8,78,28.1,77.9z"/>
	<path class="st0" d="M29.3,55.7c0.6,1-0.3,2.9-1.1,4.5c-0.4,0.8-0.8,1.6-0.9,2.2c-0.2,1.2,0.6,1.9,1.4,2.6c0.6,0.5,1.2,1,1.2,1.7
		c0,0.7-0.5,1.6-1.6,2.6c-0.4,0.2-0.5,0.2-0.5,0.2c-0.2-0.2-0.3-1.4-0.3-2.2c-0.1-2.6-0.2-6.6-3.6-8.8c-0.3-0.2-0.6-0.1-0.8,0.2
		c-0.2,0.3-0.1,0.6,0.2,0.8c2.9,1.9,3,5.4,3.1,7.9c0.1,1.6,0.1,2.8,0.9,3.2c0.2,0.1,0.4,0.1,0.6,0.1c0.5,0,0.9-0.3,1.1-0.4
		c0,0,0.1-0.1,0.1-0.1c1.4-1.4,2-2.5,2-3.5c0-1.2-0.8-1.9-1.5-2.5c-0.7-0.6-1.1-1-1-1.5c0.1-0.4,0.5-1.1,0.8-1.9
		c0.8-1.7,1.9-3.7,1.3-5.2c-0.7-0.3-1.6-0.6-2.8-0.6C28.5,55,29.1,55.3,29.3,55.7z"/>
	<path class="st0" d="M20.5,54.6c0.9,0.9,2.6,1,5.3,0.2c0.4,0,0.8,0,1.1,0c-0.1,0-0.2-0.1-0.2-0.2c-0.2-0.4-0.5-0.7-0.8-1
		c-0.1,0-0.1,0-0.2,0c-0.1,0-0.1,0-0.2,0c-2.9,0.9-3.9,0.5-4.2,0.2C21,53.5,21,53,21.1,52.7c-0.2,0-0.3,0.1-0.3,0.1
		c-0.2,0.1-0.4,0-0.6-0.1c-0.1-0.1-0.1-0.2-0.2-0.2C19.8,52.9,19.8,53.9,20.5,54.6z"/>
	<path class="st0" d="M27.7,53.7c-0.1,0-0.1,0-0.2,0c0,0,0,0,0,0C27.6,53.7,27.6,53.7,27.7,53.7z"/>
	<path class="st0" d="M26.9,54.8c0.3,0,0.5,0,0.7,0.1c1.2,0.1,2.1,0.3,2.8,0.6c-0.1-0.1-0.1-0.3-0.2-0.4c-0.5-0.7-1.3-1.2-2.6-1.4
		c-0.1,0-0.1,0-0.1,0c0,0,0,0,0,0c-0.5-0.1-1-0.1-1.6-0.1c0.3,0.3,0.6,0.6,0.8,1C26.8,54.7,26.8,54.8,26.9,54.8z"/>
	<path class="st0" d="M20.8,52.7c0,0,0.1,0,0.3-0.1c0-0.2,0.1-0.4,0.1-0.4c0.1-0.3,0-0.6-0.3-0.7c-0.3-0.1-0.6,0-0.7,0.3
		c0,0-0.1,0.2-0.1,0.4c0.1,0.1,0.2,0.2,0.2,0.2C20.3,52.8,20.6,52.8,20.8,52.7z"/>
</g>
</svg>
