<?xml version="1.0" encoding="utf-8"?>
<!-- Generator: Adobe Illustrator 23.0.1, SVG Export Plug-In . SVG Version: 6.00 Build 0)  -->
<svg version="1.1" id="Calque_1" xmlns="http://www.w3.org/2000/svg" xmlns:xlink="http://www.w3.org/1999/xlink" x="0px" y="0px"
	 viewBox="0 0 100 125" style="enable-background:new 0 0 100 125;" xml:space="preserve">
<style type="text/css">
	.st0{fill:#FFFFFF;stroke:#FFFFFF;stroke-width:2;stroke-miterlimit:10;}
	.st1{fill:#020202;stroke:#FFFFFF;stroke-width:2;stroke-miterlimit:10;}
</style>
<title>WeaponsArtboards</title>
<g>
	<path class="st0" d="M54.9,60.5L54.9,60.5l10-13.5l0,0l0,0l0.8-1.1l-1-0.6l1.1-1.5c0.7-0.5,1.4-0.8,2.2-1h0.1l23-31.1l0,0v-0.1
		c-0.3-1.3-0.2-2.7,0.1-4.1L91.3,7l-0.5,0.3c-1.2,0.8-2.6,1.3-4,1.6h-0.1L63.8,40.1l0,0v0.1c0.1,0.8,0,1.5-0.2,2.3L62.4,44l-0.9-0.6
		l0,0l-0.8,1l0,0l0,0l-10,13.5l0,0c-0.4-0.1-0.8,0.1-1,0.4l-0.1,0.2c-0.2,0.2-0.2,0.5-0.2,0.7c0,0.1,0,0.2,0.1,0.4l0,0l-37.2,52.7
		l0,0l-0.6,0.8l0.8,0.5l-0.4,0.6c-0.4-0.1-0.8,0-1,0.3l-0.1,0.1c-0.3,0.4-0.2,0.9,0.2,1.1l2.3,1.5c0.4,0.2,0.9,0.1,1.2-0.2l0.1-0.1
		c0.2-0.4,0.1-0.8-0.2-1l0.4-0.6l0.9,0.6l0.6-0.8l0,0l0,0l37.3-52.8l0,0c0.1,0,0.2,0,0.4-0.1l0,0c0.3-0.1,0.5-0.2,0.6-0.4v-0.1
		C55,61.5,55,61.2,55,61C55,60.7,55,60.6,54.9,60.5z M14.7,116.7l-0.1,0.2c-0.2,0.3-0.6,0.4-0.9,0.2l0,0l-2.3-1.5
		c-0.3-0.2-0.4-0.6-0.2-0.9l0.1-0.1c0.2-0.3,0.6-0.4,0.9-0.2l2.3,1.5C14.8,116,14.9,116.4,14.7,116.7z M15.9,115.5L15,115l-0.6,0.6
		l-2-1.3l-0.2-0.1l0,0l0.5-0.7L12,113l0.4-0.5l4,2.5L15.9,115.5z M64.2,40.1L87,9.1c1.3-0.3,2.5-0.7,3.7-1.4c-0.2,1.2-0.2,2.5,0,3.7
		l-22.8,31c-0.8,0.2-1.6,0.6-2.3,1.1L64.5,45l-1.6-1l1.1-1.5l0,0C64.2,41.7,64.3,40.9,64.2,40.1z M61.4,43.5l0.8,0.5l0,0l2.4,1.5
		l0.1-0.1l0.9,0.5L65,46.8l-4.1-2.6L61.4,43.5z M50,59.7c-0.4-0.2-0.5-0.7-0.2-1l0,0l0.1-0.2c0.3-0.4,0.8-0.5,1.1-0.2l0,0l3.5,2.2
		c0.4,0.2,0.5,0.7,0.2,1l0,0l-0.2,0.2C54.4,61.9,54.2,62,54,62l0,0"/>
	<path class="st1" d="M54.9,60.5L54.9,60.5l10-13.5l0,0l0,0l0.8-1.1l-1-0.6l1.1-1.5c0.7-0.5,1.4-0.8,2.2-1h0.1l23-31.1l0,0v-0.1
		c-0.3-1.3-0.2-2.7,0.1-4.1L91.3,7l-0.5,0.3c-1.2,0.8-2.6,1.3-4,1.6h-0.1L63.8,40.1l0,0v0.1c0.1,0.8,0,1.5-0.2,2.3L62.4,44l-0.9-0.6
		l0,0l-0.8,1l0,0l0,0l-10,13.5l0,0c-0.4-0.1-0.8,0.1-1,0.4l-0.1,0.2c-0.2,0.2-0.2,0.5-0.2,0.7c0,0.1,0,0.2,0.1,0.4l0,0l-37.2,52.7
		l0,0l-0.6,0.8l0.8,0.5l-0.4,0.6c-0.4-0.1-0.8,0-1,0.3l-0.1,0.1c-0.3,0.4-0.2,0.9,0.2,1.1l2.3,1.5c0.4,0.2,0.9,0.1,1.2-0.2l0.1-0.1
		c0.2-0.4,0.1-0.8-0.2-1l0.4-0.6l0.9,0.6l0.6-0.8l0,0l0,0l37.3-52.8l0,0c0.1,0,0.2,0,0.4-0.1l0,0c0.3-0.1,0.5-0.2,0.6-0.4v-0.1
		C55,61.5,55,61.2,55,61C55,60.7,55,60.6,54.9,60.5z M14.7,116.7l-0.1,0.2c-0.2,0.3-0.6,0.4-0.9,0.2l0,0l-2.3-1.5
		c-0.3-0.2-0.4-0.6-0.2-0.9l0.1-0.1c0.2-0.3,0.6-0.4,0.9-0.2l2.3,1.5C14.8,116,14.9,116.4,14.7,116.7z M15.9,115.5L15,115l-0.6,0.6
		l-2-1.3l-0.2-0.1l0,0l0.5-0.7L12,113l0.4-0.5l4,2.5L15.9,115.5z M64.2,40.1L87,9.1c1.3-0.3,2.5-0.7,3.7-1.4c-0.2,1.2-0.2,2.5,0,3.7
		l-22.8,31c-0.8,0.2-1.6,0.6-2.3,1.1L64.5,45l-1.6-1l1.1-1.5l0,0C64.2,41.7,64.3,40.9,64.2,40.1z M61.4,43.5l0.8,0.5l0,0l2.4,1.5
		l0.1-0.1l0.9,0.5L65,46.8l-4.1-2.6L61.4,43.5z M50,59.7c-0.4-0.2-0.5-0.7-0.2-1l0,0l0.1-0.2c0.3-0.4,0.8-0.5,1.1-0.2l0,0l3.5,2.2
		c0.4,0.2,0.5,0.7,0.2,1l0,0l-0.2,0.2C54.4,61.9,54.2,62,54,62l0,0"/>
</g>
</svg>
