<svg id="Calque_1" data-name="Calque 1" xmlns="http://www.w3.org/2000/svg" viewBox="0 0 1767.56 1135.49"><defs><style>.cls-1{fill:none;stroke:#000;stroke-miterlimit:10;}</style></defs><title>carte site</title><polygon class="cls-1" points="64.52 854.07 85.14 818 46.01 793.13 81.51 728.05 64.69 706.36 189.31 591.43 197.36 548.03 266.49 523.92 270.51 509.45 300.26 500.61 313.12 544.82 319.55 589.83 370.18 593.04 385.45 574.55 364.66 529.78 381.51 516.82 408.76 569.73 377.42 608.31 386.46 611.69 350.07 658.24 323.2 669.4 323.2 707.07 363.61 717.62 358.13 739.31 332.46 739.31 346.88 758.41 371.79 748.47 398.31 754.34 403.14 789.47 425.51 761.07 454.9 760.49 477.08 732.32 498.32 731.77 501.59 781.21 477.89 787.69 486.34 854.46 475.2 866.32 475.2 880.35 433.13 927.4 406.88 916.15 376.07 845.42 354.64 818.09 383.71 806.03 382.98 792.37 267.27 749.77 215.85 744.14 194.15 766.65 146.74 774.69 128.25 807.64 102.53 826.13 84.85 866.32 64.52 854.07"/><polygon class="cls-1" points="3.41 965.79 0.52 940.49 26.54 903.63 61.23 894.23 63.56 858.14 83.38 869.8 85.24 884.67 79.18 894.23 78.02 915.91 94.57 904.96 97.37 881.41 111.82 866.02 119.05 868.82 109.26 881.41 124.88 895.87 135.97 889.07 132.03 912.36 86.45 930.06 79.89 946.79 3.41 965.79"/><polygon class="cls-1" points="199.28 537.23 199.72 481.26 271.27 456.54 280.38 441.58 302.49 436.38 294.04 409.06 348.59 373.75 365.59 386.94 355.83 412.96 367.54 416.86 418.28 392.79 445.6 429.22 420.23 444.83 421.53 464.35 394.21 461.74 359.74 486.46 350.63 504.03 315.05 533.79 302.87 494.53 268.1 504.19 261.14 520.42 199.08 542.66 199.28 537.23"/><polygon class="cls-1" points="323.24 570.99 326.05 585.97 366.87 588.55 379.56 574.92 360.83 533.5 323.24 570.99"/><polygon class="cls-1" points="395.93 505.41 423.84 552.42 440.5 543.12 435.6 529.41 442.45 522.06 423.84 471.13 395.93 505.41"/><polygon class="cls-1" points="330.55 702.92 330.18 671.7 355.4 661.42 394.7 609.26 384.78 605.96 414.11 571.04 385.24 515.25 391.02 509.47 423.76 562.92 448.31 543.66 441.57 530.18 451.2 520.07 431.94 480.1 462.75 472.88 487.31 459.4 499.83 471.44 486.83 488.29 486.35 521.99 545.09 529.21 547.98 553.77 529.2 552.8 523.42 621.17 554.23 642.36 548.94 669.32 534.49 665.95 527.27 681.84 534.01 691.95 497.79 727.21 473.97 726.94 452.86 754.87 424.03 755.59 406.3 777.42 401.93 749.41 371.37 742.66 348.81 751.23 342.01 742.89 362.82 741.45 372.82 712.3 330.55 702.92"/><polygon class="cls-1" points="351.37 359.21 366.63 371.34 383.37 358.15 400.87 363.22 433.85 324.92 460.23 323.15 470.12 295.25 524.65 299.05 546.72 275.46 575.13 286.62 615.71 281.8 618.5 272.67 600.24 255.17 573.53 252.82 552.21 229.71 540.21 230.16 538.43 222.6 522.88 219.05 498.88 230.6 473.55 205.27 482.44 186.16 462.44 175.94 432.23 183.05 412.67 175.5 400.23 184.38 402.97 207.47 380.78 219.8 381.39 237.06 359.2 253.7 364.75 268.5 424.55 255.55 432.56 277.74 392.49 296.85 388.18 328.91 351.37 359.21"/><polygon class="cls-1" points="350.63 365.04 367.28 376.95 383.55 363.37 404.73 368.3 436.49 328.99 464.47 327.48 473.55 299.89 526.58 303.69 547.91 280.6 573.52 291.08 616 285.06 616.19 291.85 594.85 297.29 588.3 308.6 556.91 322.43 536.36 339.24 543.46 353.07 568.87 364.66 588.68 357.93 598.77 370.64 573.73 381.3 570.74 401.31 547.07 401.31 556.54 416.56 589.8 415.27 611.48 373.33 627.92 368.44 647.35 375.33 670.52 359.53 639.5 323.23 633.9 306.01 669.78 297.77 729.95 322.06 734.43 348.22 752.37 372.13 744.52 421.09 753.86 455.47 775.91 465.33 762.09 510.31 747.38 510.31 740.03 540.28 747.88 558.23 788.25 592.25 832.82 583.94 859.98 599.38 880.07 595.56 909.08 600.35 939.92 587.02 970.47 599.95 972.7 638.26 950.75 644.21 939.59 704.47 886.02 739.82 834.31 721.59 801.57 713.03 784.21 727.15 781.03 749.45 731.34 764.73 690.57 796.58 657.45 781.93 637.7 800.41 609.04 806.78 600.12 821.43 557.44 824.61 548.1 834.17 522.2 841.17 522.2 829.48 490.96 851.32 481.9 790.62 505.79 783.76 502.08 728.01 541.92 691.75 533.81 682.57 537.73 673.39 552.74 675.8 561.45 638.59 528.59 618.77 532.46 558.84 555.66 559.8 550.35 525.49 491.86 517.75 491.38 488.75 508.3 470.87 488 452.5 461.41 467.49 431.45 475.22 423.71 448.15 453.45 429.38 420.92 388.11 369.08 411.61 361.83 409.88 370.81 385 349.39 370.14 350.63 365.04"/><polygon class="cls-1" points="349.91 818.48 333.58 817.14 322.93 833.72 332.52 868.2 350.08 883.12 328.86 932.85 319.57 954.07 327.2 966.67 364.66 968.33 352.39 1013.42 381.57 1008.45 413.73 1038.29 448.55 1119.52 472.09 1108.25 524.81 1086.03 560.28 1093.99 603.39 1062.49 625.6 1059.18 629.91 1043.26 670.36 1050.89 698.55 1079.73 755.58 1077.27 764.53 1040.31 795.7 1040.31 816.25 1006.63 825.87 974.88 871.29 946.57 838.82 890.58 925.98 817.63 915.21 795.04 955.14 778.72 954.1 755.1 977.02 751.62 983.27 729.75 955.49 697.45 965.91 671.75 952.69 659.97 944.3 706.05 888.13 744.8 802.44 718.49 789.61 728.58 786.33 750.7 734.28 767.97 693.08 802.93 658.96 787.53 638.98 807.09 611.51 811.25 602.77 826.65 557.83 828.73 550.75 839.55 519.54 847.88 518.71 837.89 492.9 854.12 481.25 867.02 481.67 883.25 435.06 934.02 401.76 919.46 371.38 847.88 349.91 818.48"/><polygon class="cls-1" points="958.95 778 958.07 758.36 980.34 754.42 987.55 729.44 1000.35 720.97 1003.24 704.45 1052.99 711.31 1064.84 703.31 1090.7 703.31 1109.71 712.62 1155.45 699.79 1149.46 674.15 1190.07 685.26 1202.46 700.22 1196.48 731.42 1212.29 755.36 1226.83 768.18 1228.96 822.03 1218.28 838.28 1214.43 872.9 1220.84 881.87 1226.4 911.79 1251.19 937.01 1225.97 958.38 1229.39 987.87 1201.61 1007.96 1189.21 1051.13 1235.8 1086.17 1210.58 1134.9 1164.85 1122.5 1175.54 1101.56 1152.03 1060.1 1116.98 1035.74 1139.63 993 1114.84 973.34 1046.88 962.65 978.5 892.56 972.94 857.94 982.77 810.49 984.05 783.57 976.36 773.74 958.95 778"/><polygon class="cls-1" points="546.5 350.52 541.77 340.75 560.22 326.67 590.2 313.24 598.45 300.61 620.99 294.57 619.76 282.62 624.98 271.21 602.86 252.11 574.57 248.31 579.56 234.71 607.62 239.05 608.29 225.36 642.68 216.34 645.02 184.28 678.42 192.96 666.06 229.7 650.37 229.15 655.71 251.31 683.7 251.31 708.81 268.44 739.87 245.06 772.6 224.69 771.26 199.64 781.28 199.31 803.99 249 790.97 272.31 758.7 272.31 739.87 289.14 728 318.1 668.73 294.15 628.02 303.19 635.56 325.28 663.09 357.01 647.13 369.63 628.37 363.85 610.67 369.11 587.17 412.06 558.25 413.99 552.81 404.69 574.55 404.34 577.01 383.31 603.48 371.03 589.98 354.2 568.94 360.51 546.5 350.52"/><polygon class="cls-1" points="540.79 221.53 542.59 227.37 558.39 227.47 581.94 220.47 572.08 207.32 550.87 221.74 540.79 221.53"/><polygon class="cls-1" points="572.82 181.65 593.5 189.82 606.23 175.93 611.85 178.26 610.58 199.26 585.97 205.09 577.06 196.93 567.83 185.36 572.82 181.65"/><polygon class="cls-1" points="558.42 231 571.23 245.07 576.64 231.05 603.66 234.09 604.67 221.59 638.62 214 641.85 179.64 684.91 190.89 669.87 233.69 655 232.91 658.38 246.93 684.67 246.4 708.38 263.03 768.12 221.51 766.28 184.7 744.68 172.12 740.48 160.81 729.5 160.16 716.58 176.64 703.99 161.13 691.39 163.07 681.7 155 656.83 150.8 646.38 157.9 640.94 171.66 631.07 169.55 617.87 140.6 590.03 151.91 592.36 159.23 609 159.46 600.68 171.55 614.88 177.09 613.1 201.61 586.48 207.82 576.28 199.5 573.39 204.05 586.15 221.57 558.42 231"/><polygon class="cls-1" points="735.58 329.3 731.46 316.69 743.33 290 760.17 276.19 793.42 276.44 807.7 249.18 783.22 196.31 770.7 196.31 769.65 181.92 747.11 169.8 742.26 157.2 726.99 156.23 716.57 171.01 704.93 156.71 692.33 158.41 682.63 151.38 717.78 143.38 721.17 132.96 749.77 128.35 766.01 146.77 808.67 146.53 838 128.35 870.97 107.27 907.32 115.51 924.05 134.9 946.35 129.08 956.29 138.29 933.02 169.8 930.35 187.01 941.02 201.31 935.44 235.49 953.28 271.69 964.6 278.35 946.28 297.33 955.28 379.58 930.63 365.93 908.99 297 880.68 296.67 871.69 323.97 855.38 311.32 802.43 315.64 794.77 300.31 777.7 300.31 735.58 329.3"/><polygon class="cls-1" points="735.15 333.42 778.7 304.31 792.42 304.31 800.13 320.24 854.29 316.24 873.51 330.56 884.92 300.07 905.94 300.42 927.06 369.28 969.31 392.04 947.54 427.75 970.56 431.66 988.53 460.47 882.14 465.56 879.59 479.44 861.6 480.64 841.61 516.02 826.81 516.43 815.21 545.23 815.94 583.35 790.14 587.87 751.94 556.36 744.38 540.53 750.23 514.87 765.7 515.31 783.02 462.91 758.06 452.42 748.91 421.55 757.06 371.34 737.85 346.22 735.15 333.42"/><polygon class="cls-1" points="864.71 484.27 913.29 481.72 913.83 503.24 925.78 508.29 922.06 565.42 936.22 584.41 909.04 595.72 879.96 591.91 861.64 595.32 835.11 580.19 820.86 582.3 819.36 546.69 829.97 519.7 845.35 519.51 864.71 484.27"/><polygon class="cls-1" points="989.04 464.2 1009.96 481.16 1000.84 505.89 982.35 511.42 974.43 546.47 936.74 538.78 943.94 566.88 960.41 581.6 961.09 592.62 939.92 583.18 926.43 564.9 930.04 505.78 917.67 500.61 916.99 477.78 883.25 479.36 885.04 468.98 989.04 464.2"/><polygon class="cls-1" points="941.6 543.54 999.36 554.49 981.7 579.37 988.24 592.71 965.3 593.41 964.13 580.13 947.76 565.83 941.6 543.54"/><polygon class="cls-1" points="959.85 696.84 985.39 726.3 996.62 719.03 1000.59 700.09 1052.35 708.24 1064.02 699.87 1053.23 665.51 1064.9 636.44 1087.59 623.88 1089.35 610.45 1114.68 607.14 1120.62 578.29 1136.26 565.74 1167.76 527.64 1156.74 509.13 1125.91 529.84 1109.17 493.06 1067.76 507.37 1059.61 491.51 1035.83 489.97 1023.93 470.15 1014.85 480.73 1004.65 508.31 985.96 513.94 978.32 546.79 1007.2 552.23 986.4 579.66 995.05 596.29 974.48 597.4 976.72 640.31 954.6 647.43 953.52 655.48 970.7 671.42 959.85 696.84"/><polygon class="cls-1" points="953.82 425 972.88 393.76 1014.79 413.15 1049.38 402.33 1061.76 379.41 1062.48 342.13 1173.44 343.9 1184.19 362.84 1159.35 437.24 1139.1 444.71 1170.74 486.01 1158.28 503.74 1127.42 522.72 1110.96 487.74 1070.04 501.69 1062.72 487.28 1038.26 485.91 1024.77 463.74 1011.74 477 992.54 460.08 973.34 428.53 953.82 425"/><polygon class="cls-1" points="1068.89 699.11 1057.66 665.44 1068.89 639.79 1092.29 626.64 1093.26 614.46 1119.55 610.93 1124.67 581.01 1143.15 565.16 1159.82 577.87 1192.89 565.96 1207.11 529.58 1233.65 539.06 1277.72 508.73 1362.07 530.06 1374.86 489.3 1396.18 467.51 1371.07 427.7 1467.84 428.65 1523.93 457.63 1527.67 493.16 1583.76 518.4 1617.42 539.9 1659.49 521.2 1710.91 450.15 1759.52 481.94 1729.6 643.67 1767 663.3 1757.65 711.92 1674.44 688.55 1662.29 657.7 1614.61 667.98 1592.17 710.05 1596.85 779.23 1637.05 788.58 1623.96 832.52 1647.33 889.55 1600.59 891.42 1557.58 806.34 1480.92 827.85 1466.58 859.09 1397.77 846.62 1367.86 797.26 1370.85 743.91 1301.54 739.43 1286.21 779.4 1305.74 842.7 1256.21 933.66 1231.23 910.5 1225.78 880.55 1218.99 871.78 1223.18 840.07 1234.33 823.33 1231.89 764.77 1216.2 751.52 1201.56 730.26 1208.19 696.8 1194.59 682.51 1141.96 666.82 1148.58 695.06 1110.24 706.56 1092.81 698.19 1068.89 699.11"/><polygon class="cls-1" points="1145.97 561.59 1160.84 571.86 1187.87 562.13 1203.82 523.74 1232.74 533.47 1281.12 501.04 1273.56 486.17 1279.5 459.68 1267.07 440.49 1237.87 437.24 1255.44 420.75 1252.2 390.75 1214.63 384.26 1188.52 365.13 1163.81 438.86 1145.49 446.29 1176.57 485.39 1160.87 507.76 1172.96 529 1145.97 561.59"/><polygon class="cls-1" points="959.26 381.34 952.62 324.79 973.96 337.06 1006.51 332.8 1031.59 344.8 1035.86 358.14 1058.19 371.31 1058.06 378.4 1046.97 398.17 1015.43 408.46 959.26 381.34"/><polygon class="cls-1" points="1113.08 317.38 1058.11 338.33 1057.8 364.45 1039.93 355.03 1036.79 340.07 1009.03 328 975 331.14 953.06 318.58 950.89 299.51 972.24 277.37 957.62 269.34 939.84 234.19 945.88 199.17 934.77 186.37 936.7 171.87 962.7 135.96 978.79 131.07 966.78 117.84 994.47 101.95 1017.28 119.06 1026.65 80.98 1044.97 64.48 1063.62 90.5 1090.13 90 1104.36 84.11 1103.87 109.64 1074.91 107.18 1080.8 120.92 1113.68 132.7 1115.65 152.33 1137.24 158.71 1132.82 188.65 1171.6 275.03 1159.55 291.67 1153.99 313.29 1120.06 323.61 1113.08 317.38"/><polygon class="cls-1" points="946.2 73.81 946.2 57.81 962.66 45.6 976.94 20.46 1004.21 9.81 1008.26 0.65 1066.43 24.08 1067.71 53.7 1047.64 53.78 1042.35 61.55 1023.13 78.4 1004.94 79.23 975 97.24 946.2 73.81"/><polygon class="cls-1" points="1068 338.12 1110.7 322.71 1119.29 330.11 1159.24 316.2 1165.16 292.82 1177.3 275.07 1162.5 245.77 1178.18 211.14 1192.98 208.18 1183.51 177.1 1230.86 178.88 1242.7 166.45 1275.26 180.06 1295.09 176.51 1287.98 159.94 1300.71 152.24 1319.36 175.33 1347.77 167.34 1370.56 181.84 1397.78 173.85 1431.49 194.24 1439.39 233.76 1387.8 298.67 1371.15 357.34 1384.47 401.86 1363.46 427.68 1390.4 466.29 1370.64 486.58 1359.51 523.4 1284.25 505.8 1289.28 500.42 1278.14 486.05 1285.15 458.03 1270.78 438.09 1247.87 434.67 1260.72 421.51 1256.38 387.29 1217.36 379.85 1188.61 360.06 1175.42 339.23 1068 338.12"/><polygon class="cls-1" points="1048.99 62.9 1101.13 72.11 1100.61 63.29 1083.88 54.6 1085.82 40.47 1121.62 52.92 1121.91 80.21 1155.1 87.84 1195.9 71.69 1286.94 101.74 1344.34 162.28 1320.83 170.48 1301.31 147.85 1283.15 158.3 1289.99 173.97 1276.31 176.08 1242.24 161.65 1229.06 174.84 1175.33 172.85 1187.27 204.43 1174.34 207.79 1160.16 241.12 1136.9 187.89 1142.25 155.44 1119.49 149.34 1117.88 129.44 1084.43 118.25 1081.32 111.04 1107.73 113.9 1108.71 77.76 1088.74 86.33 1065.46 86.95 1048.99 62.9"/><polygon class="cls-1" points="1295.45 280.58 1311.44 318.34 1329.9 323.72 1370.78 294.32 1376.69 263.48 1318.55 241.31 1309.46 264.74 1295.45 280.58"/><polygon class="cls-1" points="1307.31 317.81 1287.59 305.79 1278.63 307.59 1256.04 299.16 1265.54 291.27 1261.6 278 1268.41 266.89 1253.71 252.91 1274.86 225.3 1312.34 230.47 1322.2 223.57 1336.26 224.31 1387.3 192.75 1409.24 204.09 1379.16 217.41 1370.78 236.15 1373.98 257.84 1316.23 235.51 1305.68 260.8 1289.25 280.04 1307.31 317.81"/></svg>