<?xml version="1.0" standalone="no"?>
<!DOCTYPE svg PUBLIC "-//W3C//DTD SVG 1.1//EN" "http://www.w3.org/Graphics/SVG/1.1/DTD/svg11.dtd" >
<svg xmlns="http://www.w3.org/2000/svg" xmlns:xlink="http://www.w3.org/1999/xlink" version="1.1">
<metadata></metadata>
<defs>
<font id="frivoleregular" horiz-adv-x="600" >
<font-face units-per-em="1000" ascent="800" descent="-200" />
<missing-glyph horiz-adv-x="300" />
<glyph horiz-adv-x="0" />
<glyph horiz-adv-x="333" />
<glyph unicode=" "  horiz-adv-x="300" />
<glyph unicode="&#x09;" horiz-adv-x="300" />
<glyph unicode="&#xa0;" horiz-adv-x="300" />
<glyph unicode="!" horiz-adv-x="232" d="M136 184q-63 125 -90 238.5t-25 204.5t25 203h98q-44 -124 -59.5 -214.5t-2.5 -197t63 -233.5zM207 63q0 -27 -18.5 -45.5t-45.5 -18.5t-45.5 18.5t-18.5 45.5t18.5 45.5t45.5 18.5t45.5 -18.5t18.5 -45.5z" />
<glyph unicode="&#x22;" horiz-adv-x="307" d="M79 526h13q0 75 7 125.5t15.5 68.5t15.5 39t7 44q0 20 -14.5 31t-33.5 11q-24 0 -36.5 -12t-12.5 -30q0 -19 22.5 -45t23.5 -50q2 -28 -2.5 -79t-4.5 -103zM209 526h13q0 75 7 125.5t15.5 68.5t15.5 39t7 44q0 20 -14.5 31t-33.5 11q-24 0 -36.5 -12t-12.5 -30 q0 -19 22 -45.5t24 -49.5q2 -28 -2.5 -79t-4.5 -103z" />
<glyph unicode="#" horiz-adv-x="835" d="M815 531l-211 -1l-70 -204l190 1v-30l-199 4l-110 -319l-10 3l101 316l-299 6l-112 -325l-10 3l103 323l-168 3v12l174 1l65 204l-148 -1v30l156 -3l91 283l30 -7l-96 -277l293 -5l93 289l30 -7l-98 -283l205 -4v-12zM514 326l66 204l-296 -2l-71 -204z" />
<glyph unicode="$" horiz-adv-x="649" d="M647 453q-65 101 -114.5 150.5t-126.5 68.5l-1 -261q125 -32 179.5 -75t54.5 -128q0 -80 -61 -139t-174 -79v-134h-6l-2 132q-49 -7 -93 -7l1 -125h-6l-2 125q-32 0 -65 3l-217 301l6 5q91 -109 122 -138q68 -64 152 -82l-5 259q-120 37 -166.5 84.5t-46.5 135.5 q0 72 49.5 128t155.5 76l-2 100h20v-96q36 5 88 7l-1 89h20v-89q21 0 75 -4l176 -307h-10zM99 575q0 -59 41.5 -85.5t146.5 -50.5l-5 247q-80 0 -131.5 -31.5t-51.5 -79.5zM391 415l-3 262q-39 8 -88 9l1 -250l53 -12l13 -3zM303 68q41 -9 93 -9l-3 242q-31 7 -41 10l-15 4 q-7 2 -19 5.5t-16 4.5zM615 180q0 43 -45.5 65.5t-164.5 52.5l-1 -239h1q90 0 150 33t60 88z" />
<glyph unicode="%" horiz-adv-x="706" d="M56 572q0 87 40 137.5t108 50.5q59 0 93 -38t34 -93q0 -45 -33 -70l-3 6q24 30 -7 70t-99 40q-54 0 -89 -27t-35 -73q0 -52 46.5 -76t98.5 -24q67 0 109 23.5t80 65.5q23 25 56.5 76t59.5 78t56 27h53l-491 -730q17 0 43.5 30t60.5 82t41 61q68 89 99 117q53 45 104 45 q79 0 115.5 -48.5t36.5 -133.5q0 -87 -40 -137.5t-108 -50.5q-59 0 -93 38t-34 93q0 45 33 70l3 -6q-24 -30 7 -70t99 -40q54 0 89 27t35 73q0 52 -46.5 76t-98.5 24q-116 0 -189 -84q-21 -25 -55.5 -77.5t-60.5 -78t-56 -25.5h-7l445 730q-15 -1 -37 -23.5t-38.5 -46 t-39.5 -59t-30 -44.5q-30 -42 -46 -62.5t-44.5 -50t-55.5 -42t-57 -12.5q-75 0 -113.5 49.5t-38.5 132.5z" />
<glyph unicode="&#x26;" horiz-adv-x="871" d="M35 208q0 64 48 102t135 70v2q-80 28 -121 66.5t-41 100.5q0 91 78.5 153t245.5 62q22 0 80 -4l145 -266l-6 -3q-53 82 -91 120.5t-90 56.5t-136 18q-100 0 -157 -40t-57 -98q0 -71 90 -111.5t304 -52.5v-6q-218 -16 -314.5 -59t-96.5 -113q0 -42 42.5 -72.5t102.5 -44.5 t126 -14q110 0 174 28t64 84q0 37 -30 58t-89 21q-76 0 -211 -43l-2 8q117 46 239.5 106t187.5 88.5t109 28.5q43 0 57 -54l30 -113l-4 -2l-10 28q-22 62 -84 66.5t-121.5 -28.5t-88.5 -76q33 -49 33 -110q0 -81 -62 -133t-192 -52q-114 0 -200.5 64t-86.5 164z" />
<glyph unicode="'" horiz-adv-x="184" d="M18 532l10 -9q83 84 115 137.5t32 128.5q0 56 -49 56q-21 0 -33.5 -13t-12.5 -32q0 -18 20.5 -42t20.5 -50q0 -40 -18 -72.5t-85 -103.5z" />
<glyph unicode="(" horiz-adv-x="495" d="M30 304q1 -117 57.5 -220.5t160 -168.5t227.5 -65v9q-87 4 -156.5 47t-110.5 108.5t-62 140t-21 149.5q0 59 13 118.5t41 117.5t68 103t99 74t129 32v10q-125 0 -228.5 -65t-160 -169t-56.5 -221z" />
<glyph unicode=")" horiz-adv-x="495" d="M465 304q0 117 -56.5 221t-160 169t-228.5 65v-10q70 -3 129 -32t99 -74t68 -103t41 -117.5t13 -118.5q0 -75 -21 -149.5t-62 -140t-110.5 -108.5t-156.5 -47v-9q124 0 227.5 65t160 168.5t57.5 220.5z" />
<glyph unicode="*" d="M273 650q-12 33 10 87.5t14 90.5l1 1q18 -37 11 -93t15 -85q19 22 48.5 28t62 12t55.5 28l1 -1q-16 -22 -37 -35.5t-38 -19t-36 -19t-31 -35.5q23 -4 41 -19.5t28.5 -32t29.5 -34t43 -24.5v-1q-40 3 -83 36t-82 32q12 -34 -10 -88t-14 -90l-1 -1q-17 37 -10 92.5 t-14 84.5q-23 -27 -81.5 -35t-85.5 -33h-1q23 33 73 54.5t68 55.5q-29 5 -49 28t-41.5 48t-51.5 34l-1 1q34 -2 60 -19.5t50 -33t56 -14.5z" />
<glyph unicode="+" horiz-adv-x="664" d="M396 328q-25 0 -35 1q-1 -3 -6 -16t-6.5 -17.5t-5 -17.5t-4.5 -23t-2.5 -26.5t-1.5 -34.5q0 -62 35 -140l-8 -4q-74 152 -74 258q0 25 1 36q-3 1 -16 6t-17.5 6.5t-17.5 5t-23 4.5t-26.5 2.5t-34.5 1.5q-62 0 -138 -35l-6 8q156 74 258 74q26 0 36 -1q0 1 5.5 15 t6.5 17.5l5 17.5t5 23.5t2.5 26t1.5 34.5q0 62 -35 138l8 6q74 -156 74 -258q0 -25 -1 -35q3 -1 16 -6t17.5 -6.5t17.5 -5t23 -4.5t26 -2.5t34 -1.5q62 0 140 35l4 -8q-152 -74 -258 -74z" />
<glyph unicode="," horiz-adv-x="222" d="M9 -209l10 -9q83 84 115 137.5t32 128.5q0 56 -49 56q-21 0 -33.5 -13t-12.5 -32q0 -18 20.5 -42t20.5 -50q0 -40 -18 -72.5t-85 -103.5z" />
<glyph unicode="-" horiz-adv-x="505" d="M455 321q-136 1 -242 -11t-124 -13q-46 -1 -46 30q0 33 46 30q1 0 114.5 -12.5t251.5 -11.5v-12z" />
<glyph unicode="." horiz-adv-x="196" d="M106 106q24 0 40.5 -16.5t16.5 -40.5t-16.5 -40.5t-40.5 -16.5t-40.5 16.5t-16.5 40.5t16.5 40.5t40.5 16.5z" />
<glyph unicode="/" horiz-adv-x="396" d="M345 837l30 -7l-343 -983l-10 3z" />
<glyph unicode="0" horiz-adv-x="648" d="M60 370q1 182 73.5 286t190.5 104q124 0 193.5 -109t70.5 -281q-1 -172 -72 -278.5t-192 -106.5t-192 106.5t-72 278.5zM79 372q1 -80 21 -138.5t55.5 -91t77 -47.5t91.5 -15t91.5 15t77 47.5t55.5 91.5t21 139q-1 80 -21 138.5t-55.5 91t-77 47.5t-91.5 15t-91.5 -15 t-77 -48t-55.5 -91.5t-21 -138.5z" />
<glyph unicode="1" horiz-adv-x="376" d="M246 -10h6q16 362 64 750l-39 20l-257 -287l8 -8l177 154h4z" />
<glyph unicode="2" horiz-adv-x="647" d="M627 497l10 -2q-8 -107 -29 -196.5t-56 -162.5t-89 -114t-122 -41q-41 0 -82 17t-67.5 37.5t-52.5 37.5t-40 17q-29 0 -40 -71l-4 -23h-16l5 36q8 55 60 123.5t120.5 132t136 124.5t114 119t46.5 99q0 45 -34 67.5t-79 22.5q-43 0 -88 -17.5t-87 -52t-76 -93.5t-50 -133 l-72 81q19 84 71.5 143.5t114.5 85.5t127 26q88 0 139 -41t51 -121q0 -22 -3 -39.5t-14 -53t-40 -74t-75 -88t-125.5 -111.5t-183.5 -129q15 5 31 5q19 0 93 -16t131 -16q33 0 64.5 9.5t67 37.5t63 73t49.5 122.5t31 178.5z" />
<glyph unicode="3" horiz-adv-x="575" d="M25 287q31 -148 105.5 -225t174.5 -77q97 0 166 72.5t69 170.5q0 72 -42 120t-103 66q72 37 95 59q39 38 39 95q0 75 -58 133.5t-150 58.5q-65 0 -118 -26t-86 -70t-53.5 -87t-32.5 -92l6 -3q37 84 112.5 133.5t173.5 49.5q86 0 135.5 -27t49.5 -80q0 -31 -21.5 -57.5 t-65 -49.5t-87 -41t-108.5 -42q-7 -2 -10 -3.5t-8.5 -3t-9.5 -3.5l-73 -27l3 -7l55 14q148 36 246 -1.5t98 -112.5q0 -48 -38 -82t-86 -48t-97 -14q-93 0 -165.5 54.5t-106.5 155.5z" />
<glyph unicode="4" horiz-adv-x="665" d="M424 484l13 -210l-325 26q34 51 81.5 111.5t79 98t97 112.5t87.5 101l-92 37q-136 -264 -304 -508v-42q202 24 376 34l17 -259h6l14 261l214 14v8l-215 5q12 165 22 231z" />
<glyph unicode="5" horiz-adv-x="632" d="M30 287l9 3q33 -97 116 -153.5t186 -56.5q53 0 106 14t94 48.5t41 82.5q0 39 -19 67.5t-52 44t-71 23t-81 7.5q-164 0 -251 -50l40 404q38 14 60.5 21t59 13t78.5 6q95 0 162 -54.5t104 -143.5l-12 -6q-79 126 -225 126q-102 0 -161 -80.5t-85 -244.5q55 51 109 72.5 t126 21.5q101 0 167.5 -71.5t66.5 -162.5q0 -97 -75.5 -165t-182.5 -68q-113 0 -197.5 78t-112.5 224z" />
<glyph unicode="6" horiz-adv-x="608" d="M567 258q0 -117 -68 -195t-174 -78q-285 0 -285 414q0 61 19.5 123.5t54.5 116t92.5 87.5t126.5 34q73 0 128 -32t107 -104l-4 -9q-91 60 -206 60q-125 0 -212 -77.5t-87 -216.5q0 -151 69.5 -226t188.5 -75q101 0 167.5 50t66.5 125q0 76 -62 115.5t-148 39.5 q-191 0 -237 -146l-11 1q19 92 83 161t160 69q41 0 79 -11.5t73.5 -36.5t57 -73.5t21.5 -115.5z" />
<glyph unicode="7" horiz-adv-x="530" d="M550 745l-370 -753l-7 3l256 733l-105 -5q-126 -6 -193 -81.5t-111 -222.5h-10l61 326h479z" />
<glyph unicode="8" horiz-adv-x="565" d="M438 401q16 29 23 44t13.5 39.5t6.5 49.5q0 67 -57 104t-140 37q-96 0 -156.5 -34.5t-60.5 -93.5q0 -29 11 -50.5t28 -35t52 -25.5t66.5 -19t88.5 -17q45 -8 79.5 -20.5t66.5 -34.5t49 -58t17 -84q0 -94 -65 -156t-167 -62q-110 0 -181.5 68t-71.5 154q0 69 46 130l6 -3 q-24 -39 -24 -98q0 -73 63.5 -119.5t171.5 -46.5q85 0 144 36.5t59 95.5q0 38 -32 62t-61 30.5t-98 16.5q-17 3 -25 4q-128 18 -186 67t-58 159q0 97 66.5 158t177.5 61q93 0 156.5 -56.5t63.5 -148.5q0 -44 -16 -79t-49 -79z" />
<glyph unicode="9" horiz-adv-x="608" d="M44 487q0 117 68 195t175 78q281 0 281 -410q0 -62 -17.5 -125t-49.5 -117.5t-85.5 -88.5t-117.5 -34q-62 0 -119 23t-139 80l3 8q97 -32 203 -32q131 0 217 80t86 224q0 149 -68 223t-184 74t-176.5 -49t-60.5 -127q0 -75 67.5 -114.5t153.5 -39.5q38 0 67.5 4.5 t64 18.5t60 45t39.5 78l9 -1q-21 -96 -79.5 -163t-154.5 -67q-46 0 -86 11.5t-77 36.5t-58.5 73.5t-21.5 115.5z" />
<glyph unicode=":" horiz-adv-x="254" d="M127 466q24 0 40.5 -16.5t16.5 -40.5t-16.5 -40.5t-40.5 -16.5t-40.5 16.5t-16.5 40.5t16.5 40.5t40.5 16.5zM127 106q24 0 40.5 -16.5t16.5 -40.5t-16.5 -40.5t-40.5 -16.5t-40.5 16.5t-16.5 40.5t16.5 40.5t40.5 16.5z" />
<glyph unicode=";" horiz-adv-x="318" d="M191 467q24 0 40.5 -16.5t16.5 -40.5t-16.5 -40.5t-40.5 -16.5t-40.5 16.5t-16.5 40.5t16.5 40.5t40.5 16.5zM73 -209l10 -9q83 84 115 137.5t32 128.5q0 56 -49 56q-21 0 -33.5 -13t-12.5 -32q0 -18 20.5 -42t20.5 -50q0 -40 -18 -72.5t-85 -103.5z" />
<glyph unicode="&#x3c;" horiz-adv-x="555" d="M60 373l407 -259l28 79l-414 182l414 182l-28 79l-407 -259v-4z" />
<glyph unicode="=" horiz-adv-x="684" d="M20 443q156 74 258 74q64 0 120 -21t122 -21q62 0 140 35l4 -8q-152 -74 -258 -74q-64 0 -120 21t-122 21q-62 0 -138 -35zM20 223q156 74 258 74q64 0 120 -21t122 -21q62 0 140 35l4 -8q-152 -74 -258 -74q-64 0 -120 21t-122 21q-62 0 -138 -35z" />
<glyph unicode="&#x3e;" horiz-adv-x="555" d="M495 373v4l-407 259l-28 -79l414 -182l-414 -182l28 -79z" />
<glyph unicode="?" horiz-adv-x="614" d="M15 451q42 149 124.5 229t198.5 80q122 0 189 -78.5t67 -186.5q0 -94 -52.5 -160t-143.5 -66q-68 0 -119 19l-3 -2l61 -127h-10l-189 313l7 4q82 -127 242 -127q82 0 138.5 39t56.5 106q0 76 -62 126t-180 50q-115 0 -192.5 -51.5t-124.5 -169.5zM270 64q0 27 18.5 45.5 t45.5 18.5t45.5 -18.5t18.5 -45.5t-18.5 -45.5t-45.5 -18.5t-45.5 18.5t-18.5 45.5z" />
<glyph unicode="@" horiz-adv-x="850" d="M815 370q0 -118 -53.5 -222t-140.5 -147l-13 -6l-6 161q-22 -77 -82.5 -124t-138.5 -47q-103 0 -160.5 57.5t-57.5 144.5q0 111 95 159l291 -157l-1 -8q-23 12 -59.5 30t-114.5 48.5t-115 30.5q-35 0 -53.5 -26t-18.5 -69q0 -60 58 -95t136 -35q93 0 155.5 51t62.5 138 q0 108 -39.5 175t-119.5 67q-71 0 -141 -31t-124 -82l-5 6q78 98 146 144.5t149 46.5q85 0 127.5 -71t37.5 -208l-7 -236q74 34 125.5 121t51.5 178q0 78 -30 139.5t-80.5 98.5t-110 56t-123.5 19q-61 0 -111 -10t-102 -38.5t-90 -75t-66.5 -125t-39.5 -183.5l-12 3 q48 514 435 514q147 0 246 -111t99 -281z" />
<glyph unicode="A" horiz-adv-x="639" d="M110 450l212 316q201 -492 337 -770l-8 -3l-113 202q-81 144 -387 22l-4 9l88 34q29 11 106.5 36.5t106.5 36.5l-182 310l-105 -159q-34 -51 -53 -105.5t-22.5 -108.5t15 -101t57 -82t108 -54t162.5 -15v-11q-154 -29 -251 -5.5t-138.5 83.5t-23.5 155t95 210z" />
<glyph unicode="B" horiz-adv-x="719" d="M526 400q158 -31 158 -199q0 -105 -67.5 -163t-178.5 -58q-162 0 -291 129q30 115 30 438h6l6 -191q16 2 57.5 8t68 10t68.5 12.5t70 17.5t60.5 23t52 30.5t32.5 39.5t13 50q0 60 -62.5 89t-167.5 29q-116 0 -214 -57t-138 -153l-9 3q33 145 132.5 223.5t223.5 78.5 q108 0 180 -62.5t72 -153.5q0 -86 -102 -141v-3zM438 75q230 0 230 135q0 60 -59 84.5t-143 17t-156 -22t-117 -31.5l4 -130q32 -23 103.5 -38t137.5 -15z" />
<glyph unicode="C" horiz-adv-x="747" d="M538 335q34 46 37.5 103.5t-20 107.5t-81 84.5t-136.5 34.5q-131 0 -210.5 -77.5t-79.5 -199.5q0 -79 33 -140.5t84 -95t105 -50.5t105 -17q50 0 92 9.5t87 37.5t78.5 73.5t58.5 122.5t35 179l11 -3q-10 -118 -36.5 -210t-61.5 -148t-81 -92t-90.5 -50t-94.5 -14 q-155 0 -246.5 109t-91.5 283q0 168 87.5 273t240.5 105q64 0 115.5 -22.5t82.5 -58t47.5 -77.5t16.5 -85q0 -122 -81 -191z" />
<glyph unicode="D" horiz-adv-x="770" d="M24 464l-9 3q33 145 132.5 223.5t223.5 78.5q165 0 264.5 -110.5t99.5 -287.5q0 -175 -97 -285t-254 -110q-146 0 -229 101q53 190 67 487h9l15 -477q58 -16 118 -16q52 0 101 10t96 32.5t81.5 56t55.5 83.5t21 111q0 82 -31 144.5t-83 97t-109.5 51.5t-119.5 17 q-116 0 -214 -57t-138 -153z" />
<glyph unicode="E" horiz-adv-x="640" d="M567 623l-44 -92q-116 179 -275 179q-69 0 -114 -30.5t-45 -75.5q0 -34 20.5 -62t50.5 -47t77.5 -36t86 -27.5t92.5 -23.5q28 -7 42 -10v-87q-91 19 -199 19q-207 0 -207 -105q0 -65 76 -105t186 -40q210 0 271 199l11 -2q-23 -140 -96 -216t-188 -76q-122 0 -199.5 63 t-77.5 173q0 160 224 185v5q-87 41 -135 85t-48 106q0 70 62 114t152 44q83 0 158 -40t119 -97z" />
<glyph unicode="F" horiz-adv-x="727" d="M720 362l1 -7l-466 -14q24 -155 64 -341h-13l-83 274l-203 60v28h176l-117 388l130 -19l1 -9q5 -54 18.5 -68t38 2t52.5 40t72 46.5t87 22.5q111 0 173 -88.5t76 -225.5l-11 -2q-27 221 -227 221q-40 0 -89.5 -14t-81 -27t-60.5 -11t-41 29q13 -133 35 -285h468z" />
<glyph unicode="G" horiz-adv-x="716" d="M636 520q-70 145 -260 145q-40 0 -82.5 -10t-87 -33t-79.5 -57t-57 -86.5t-22 -116.5q0 -124 79.5 -203t210.5 -79q47 0 90.5 15.5t75.5 40t56 55t35.5 61.5t11 59t-14.5 47q-19 32 -60 39t-87 -5.5t-100 -38.5t-96.5 -51.5t-79.5 -52.5v122q80 26 141.5 40.5t122.5 18.5 t102.5 -10t70 -51t36.5 -98l34 -271h-7l-46 154q-29 -73 -96 -118.5t-164 -45.5q-153 0 -240.5 105t-87.5 273q0 174 92 283t247 109q86 0 158.5 -57t111.5 -179z" />
<glyph unicode="H" horiz-adv-x="766" d="M653 745h13q-5 -377 20 -730l-120 -20l87 601h-3q-9 -63 -25.5 -112t-45.5 -93t-76 -73t-110 -41q-147 -33 -206 -86t-69 -176l-2 -15h-16q5 378 -20 730l120 20l-84 -654h2q8 35 23.5 70t44 76t79 73t115.5 46q52 12 92.5 34t79.5 64t65 114.5t36 171.5z" />
<glyph unicode="I" horiz-adv-x="280" d="M108 0h-15l-3 730l120 20q-81 -375 -102 -750z" />
<glyph unicode="J" horiz-adv-x="574" d="M20 405l86 318q77 35 159 35q146 0 210 -82.5t64 -241.5q0 -98 -29.5 -177.5t-76 -129t-106.5 -82.5t-118 -46.5t-114 -13.5l-53 99q59 -4 123 5t129 34.5t116 65.5t83.5 103.5t32.5 142.5q0 115 -60 180t-163 65q-57 0 -102.5 -21.5t-77.5 -63.5t-53 -86.5t-41 -106.5z " />
<glyph unicode="K" horiz-adv-x="665" d="M637 -8l-432 426l-57 -53l-50 -365h-15q29 380 -3 730l120 20l-50 -370l223 233q58 61 108.5 87t84.5 16.5t55 -48.5t21.5 -109t-15.5 -163h-9q7 94 -17.5 150t-67 67.5t-95 -7t-101.5 -64.5l-45 -42q158 -268 353 -503z" />
<glyph unicode="L" horiz-adv-x="697" d="M686 496l11 -2q-9 -107 -32 -196.5t-62 -162.5t-99 -114t-136 -41q-49 0 -99 24t-81 49.5t-58.5 42t-44 1t-25.5 -73.5l-4 -23h-16q76 356 110 730l130 20l-204 -647q11 25 41.5 26t66 -12t91.5 -27.5t104 -14.5q34 0 68 9.5t74.5 38t72.5 73t57.5 122t34.5 178.5z" />
<glyph unicode="M" horiz-adv-x="982" d="M463 -2q-127 -20 -225 1.5t-151 77.5t-51 148.5t69 205.5l192 326l147 -352l264 355l274 -765l-11 -5l-304 646l-217 -245l164 -399l-10 -7l-360 651l-88 -171q-30 -58 -35.5 -122t15 -123.5t61.5 -107t110.5 -76t155.5 -27.5v-11z" />
<glyph unicode="N" horiz-adv-x="769" d="M43 745h24l606 -629l7 278q2 78 -21 143.5t-72.5 111t-127 51.5t-183.5 -36l-5 9q87 52 158.5 76.5t128 20t93 -39t52.5 -106t8 -177.5l-33 -457l-565 557h-4l71 -554h-12z" />
<glyph unicode="O" horiz-adv-x="717" d="M359 -15q-144 0 -234 107.5t-90 281.5t89.5 280t234.5 106t234 -106t89 -280t-89.5 -281.5t-233.5 -107.5zM359 80q47 0 90.5 11t82.5 34t68 57t46 83t17 108q0 143 -89 217.5t-215 74.5t-215.5 -74.5t-89.5 -217.5q0 -73 26 -131t69.5 -92.5t97 -52t112.5 -17.5z" />
<glyph unicode="P" horiz-adv-x="619" d="M-10 458q33 147 124 224.5t212 77.5q123 0 198 -80t75 -190q0 -137 -66 -217t-170 -80q-90 0 -151 55.5t-105 152.5l51 -406l-118 20q37 242 45 492q80 -219 266 -219q99 0 164 46.5t65 135.5q0 51 -23 90t-60.5 61t-81 33t-89.5 11q-112 -2 -199.5 -57.5t-127.5 -152.5z " />
<glyph unicode="Q" horiz-adv-x="749" d="M720 130l9 -5l-175 -302q-58 -4 -80 -4q-103 0 -174.5 63t-96.5 144q-79 46 -123.5 137t-44.5 211q0 174 89.5 280t234.5 106t234 -106t89 -280t-89.5 -281.5t-233.5 -107.5q-66 0 -125 25q69 -113 184 -113q51 0 91 13.5t76.5 47t64.5 70t70 102.5zM54 373 q0 -73 26 -131t69.5 -92.5t97 -52t112.5 -17.5q47 0 90.5 11t82.5 34t68 57t46 83t17 108q0 143 -89 217.5t-215 74.5t-215.5 -74.5t-89.5 -217.5z" />
<glyph unicode="R" horiz-adv-x="652" d="M-17 458q33 146 127 224t216 78q136 0 212.5 -79t76.5 -190q0 -129 -72 -207t-175 -78q-92 0 -161 69q72 -92 188 -138t233 -38l-53 -99q-277 0 -452 396l51 -401l-118 20q48 286 45 505q56 -111 120.5 -165t158.5 -54q89 0 152.5 49t63.5 133q0 62 -40.5 105t-99.5 60.5 t-130 16.5q-113 -2 -204 -58t-130 -152z" />
<glyph unicode="S" horiz-adv-x="649" d="M352 311q165 -42 202 -58q60 -29 61 -73q0 -55 -60 -88t-150 -33q-57 0 -102.5 10t-76 22.5t-66.5 45t-56 54.5t-64 75q-4 5 -6.5 8t-6.5 7.5t-7 8.5l-6 -5l217 -301q35 -3 67 -3q161 0 251 64t90 163q0 91 -62 134t-210 79l-13 3q-148 33 -187 51q-62 29 -67 87 q-1 6 -1 13q0 48 51.5 79.5t131.5 31.5q60 0 107 -10.5t80 -26.5t65.5 -49t55 -63t57.5 -84h10l-176 307q-58 4 -80 4q-168 0 -246.5 -62t-78.5 -153q0 -95 55.5 -144t205.5 -90z" />
<glyph unicode="T" horiz-adv-x="697" d="M438 760q79 0 136 -54.5t85.5 -138t37.5 -191.5l-11 -2q-9 88 -32.5 147.5t-60 89.5t-76.5 42t-93 12q-51 0 -137.5 -19.5t-106.5 -21.5q99 -334 211 -629l-141 20l-83 608q-44 -2 -72.5 16t-42.5 66l-12 40h13l7 -23q15 -50 37 -63.5t55 1t70 36.5t96.5 43t119.5 21z " />
<glyph unicode="U" horiz-adv-x="652" d="M98 745l14 -1q-26 -101 -36 -194.5t-1 -180t39 -150t89.5 -101.5t144.5 -38q122 0 190 75.5t68 204.5q0 141 -64.5 235t-176.5 94q-80 0 -179 -48l-6 9q203 110 296 110q174 0 149 -419q-4 -74 -22 -136t-51 -112.5t-88 -79t-126 -28.5q-94 0 -159 43t-95.5 115.5 t-38 171.5t6.5 206t46 224z" />
<glyph unicode="V" horiz-adv-x="701" d="M263 736v11q154 29 251 5.5t138.5 -83.5t23.5 -155t-95 -210l-212 -316l-371 756l8 5l406 -658l118 179q39 59 54.5 125.5t3 128.5t-49 111t-108 77t-167.5 24z" />
<glyph unicode="W" horiz-adv-x="815" d="M362 737q172 14 278 1.5t147 -64t21.5 -138.5t-98.5 -222l-192 -326l-104 267l-214 -272l-300 768l7 4l340 -662l160 177l-200 486l7 4l347 -669l98 189q40 76 58 139t11.5 121.5t-44 98t-119 63.5t-203.5 24v11z" />
<glyph unicode="X" horiz-adv-x="786" d="M312 335q84 -94 211 -160t233 -78l-54 -97q-98 15 -216 102.5t-215 225.5q-118 -71 -118 -165q0 -64 47 -112t131 -72l-5 -9q-130 18 -208.5 69t-78.5 121q0 33 16 60t47 47.5t62 35.5t75 34q5 1 7 2.5t6 3t7 2.5q-125 184 -170 398l10 2q55 -223 193 -386l16 7l11 5 q140 66 204 142t31 142t-166 98l4 9q261 -18 286 -109q22 -78 -131 -181q-85 -57 -212 -112l-16 -7q-2 -1 -4.5 -2t-4 -2t-3.5 -2l-4 -2z" />
<glyph unicode="Y" horiz-adv-x="599" d="M173 752q105 12 182 15.5t131.5 -3.5t86 -21.5t41 -42t2 -62t-36.5 -85.5t-70.5 -107t-102.5 -131q-12 -14 -46 -54.5t-60.5 -69t-66.5 -66.5t-87 -70t-99 -55l-104 98q222 39 409 196l-336 450l9 6l389 -397q169 191 105.5 295t-346.5 96v8z" />
<glyph unicode="Z" horiz-adv-x="697" d="M686 496l11 -2q-9 -107 -32 -196.5t-62 -162.5t-99 -114t-136 -41q-35 0 -70 11.5t-60 27.5t-49.5 32.5t-41.5 26.5t-31.5 10.5t-25 -16.5t-16.5 -54l-4 -23h-16l4 26q12 75 89 193t199.5 277.5t174.5 238.5h-4l-72 -7q-84 -8 -147 -31t-105.5 -55.5t-74 -85 t-50.5 -107.5t-37 -135h-10l71 436h579l-582 -660q18 19 47.5 21.5t60 -5.5t83 -17t99.5 -9q34 0 68 9.5t74.5 38t72.5 73t57.5 122t34.5 178.5z" />
<glyph unicode="[" horiz-adv-x="269" d="M239 751h-107v-892h107v-9h-179v910h179v-9z" />
<glyph unicode="\" horiz-adv-x="508" d="M103 837l323 -987l-10 -3l-343 983z" />
<glyph unicode="]" horiz-adv-x="269" d="M209 745v-883h-179v9h107v865h-107v9h179z" />
<glyph unicode="^" horiz-adv-x="382" d="M189 845l-159 -227l79 -28l82 234l82 -234l79 28l-159 227h-4z" />
<glyph unicode="_" horiz-adv-x="568" d="M534 -38q-81 1 -140.5 0t-107 -4t-69.5 -5t-67.5 -7.5t-61.5 -7.5q-20 -2 -33 6.5t-13 23.5t12.5 23.5t33.5 6.5q16 -2 61.5 -7.5t67.5 -7.5t69.5 -5t107 -4t140.5 0v-12z" />
<glyph unicode="`" d="M215 802h2q37 -74 116 -114.5t170 -9.5l3 -9q-72 -30 -137.5 -24.5t-114.5 30.5t-77 62z" />
<glyph unicode="a" horiz-adv-x="571" d="M505 0h-14l-6 140q-22 -72 -84.5 -116t-142.5 -44q-93 0 -144 53t-51 132q0 52 24 91.5t62 58.5l282 -55v-9q-82 3 -147.5 2t-111 -7.5t-69.5 -26t-24 -53.5q0 -46 54.5 -75t125.5 -29q95 0 159 48.5t64 130.5q0 122 -43 195t-136 73q-66 0 -133.5 -31.5t-121.5 -84.5 l-6 7q79 102 147.5 148.5t155.5 46.5q88 0 131.5 -78t38.5 -227z" />
<glyph unicode="b" horiz-adv-x="643" d="M102 458l-23 387h-13q9 -436 -11 -855l90 20l-29 235h3q22 -112 92 -186t168 -74q102 0 163 78.5t61 225.5q0 146 -68.5 226t-167.5 80q-179 0 -234 -215l6 -6q62 133 225 133q98 0 160.5 -59t62.5 -172q0 -103 -58 -153.5t-151 -50.5q-52 0 -97 20.5t-84 64t-64 120.5 t-31 181z" />
<glyph unicode="c" horiz-adv-x="625" d="M486 274q16 24 17.5 56.5t-12 66t-39 61.5t-68.5 46t-95 18q-101 0 -167 -62t-66 -166q0 -50 19 -90t48 -64.5t66.5 -41t71.5 -22.5t66 -6q99 0 173.5 45t105.5 146l9 -2q-23 -140 -101.5 -207t-188.5 -67q-130 0 -207.5 85t-77.5 220q0 141 73 223t204 82q110 0 173 -60 t63 -147q0 -84 -59 -123z" />
<glyph unicode="d" horiz-adv-x="656" d="M534 458q15 -386 -246 -386q-95 0 -163.5 50.5t-68.5 153.5q0 113 62.5 172t160.5 59q159 0 220 -132l11 5q-55 215 -234 215q-99 0 -167.5 -79t-68.5 -221q0 -151 67 -230.5t176 -79.5q106 0 173 82t80 208h3l5 -275h13q12 428 53 830l-90 -20z" />
<glyph unicode="e" horiz-adv-x="645" d="M161 411l311 -123q26 36 18.5 77.5t-33 77t-73.5 59t-103 23.5q-97 0 -160.5 -63.5t-63.5 -165.5q0 -96 79 -163.5t193 -67.5q106 0 178.5 54t101.5 155l11 -2q-22 -139 -99.5 -215.5t-193.5 -76.5q-126 0 -206.5 87.5t-80.5 224.5q0 139 75.5 221t203.5 82 q106 0 171.5 -59t65.5 -155q0 -89 -85 -134l-315 155z" />
<glyph unicode="f" horiz-adv-x="488" d="M-20 480h160v57q0 72 16 127.5t41 89t59.5 55t68 29t70.5 7.5q55 0 97 -22t64.5 -56t33.5 -68t11 -64l-414 -155l451 1v-8l-421 -18l-1 -440l-72 -20l-4 457l-160 -7v35zM158 480h1l410 185q-32 103 -169 103q-111 0 -178.5 -74.5t-63.5 -213.5z" />
<glyph unicode="g" horiz-adv-x="659" d="M549 325q-6 26 -15 54.5t-30 69t-46.5 71.5t-66.5 53t-89 22q-108 0 -177.5 -81t-69.5 -229q0 -136 83 -218t196 -82q165 0 236 184h5q-5 -172 -73 -261t-173 -89q-87 0 -141.5 30t-108.5 107l-5 -6q73 -215 259 -215q68 0 120 34t82.5 94t45.5 137t14 169q-2 196 18 391 l-90 20l27 -255h-1zM337 73q-114 0 -188.5 57t-74.5 169q0 100 70 154.5t161 54.5q51 0 91.5 -18t67 -44.5t48 -69t33.5 -80t24 -88.5q-31 -69 -93.5 -102t-138.5 -33z" />
<glyph unicode="h" horiz-adv-x="564" d="M80 212l50 623l-90 -20q9 -164 8.5 -407.5t-6.5 -407.5h13q16 147 52 259.5t95.5 180.5t134.5 68t115 -65.5t45 -234.5l6 -208h14l1 229q2 84 -4.5 145t-25 114t-55.5 80t-93 27q-192 0 -257 -383h-3z" />
<glyph unicode="i" horiz-adv-x="216" d="M113 804q22 0 37.5 -14.5t15.5 -35.5t-15.5 -35.5t-37.5 -14.5t-37.5 14.5t-15.5 35.5t15.5 35.5t37.5 14.5zM158 585l-90 -20l33 -565h13q5 302 44 585z" />
<glyph unicode="j" horiz-adv-x="267" d="M133 804q22 0 37.5 -14.5t15.5 -35.5t-15.5 -35.5t-37.5 -14.5t-37.5 14.5t-15.5 35.5t15.5 35.5t37.5 14.5zM190 580l7 -325q2 -110 -20 -199.5t-58 -145t-84 -93.5t-93 -53t-89 -15l-53 99q59 -5 123.5 16t123.5 65.5t97.5 126.5t38.5 186q0 67 -8.5 122t-27.5 100 t-28.5 63t-31.5 53h103z" />
<glyph unicode="k" horiz-adv-x="547" d="M113 331q90 -106 210 -166.5t224 -65.5l-53 -99q-93 28 -177 93.5t-205 212.5q-6 -153 -6 -306h-13l-33 815l90 20q-25 -236 -35 -458q123 218 262 218q60 0 100.5 -43t40.5 -123q0 -93 -49 -137.5t-111 -44.5q-103 0 -245 86v-2zM372 512q-82 0 -143.5 -38t-114.5 -120 q0 -2 -0.5 -6t-0.5 -5q95 -33 234 -33q59 0 108.5 30.5t49.5 83.5q0 88 -133 88z" />
<glyph unicode="l" horiz-adv-x="210" d="M150 835l-90 -20l33 -815h13q0 429 44 835z" />
<glyph unicode="m" horiz-adv-x="975" d="M40 565q19 -273 8 -565h13q16 147 52 259.5t95.5 180.5t134.5 68q34 0 62.5 -11t55.5 -38.5t38 -84t2 -136.5l-28 -243l72 20l-14 231q-7 123 53.5 192.5t151.5 69.5q81 0 124 -65.5t48 -234.5l6 -208h14l1 229q0 85 -6.5 145t-24.5 113.5t-54.5 80.5t-92.5 27 q-94 0 -154.5 -87t-76.5 -197h-3q4 124 -35.5 204t-135.5 80q-192 0 -257 -383h-3l44 373z" />
<glyph unicode="n" horiz-adv-x="570" d="M86 212l44 373l-90 -20q19 -273 8 -565h13q16 147 52 259.5t95.5 180.5t134.5 68t115 -65.5t45 -234.5l6 -208h14l1 229q2 84 -4.5 145t-25 114t-55.5 80t-93 27q-192 0 -257 -383h-3z" />
<glyph unicode="o" horiz-adv-x="621" d="M40 286q0 146 71 227.5t199 81.5t199.5 -81.5t71.5 -227.5q0 -134 -75 -217.5t-196 -83.5q-120 0 -195 83.5t-75 217.5zM565 284q0 104 -70 167t-185 63t-184.5 -63t-69.5 -167q0 -92 72.5 -154t181.5 -62t182 62t73 154z" />
<glyph unicode="p" horiz-adv-x="650" d="M112 122q-5 110 14 189t57.5 120t83 59t99.5 18q94 0 161 -50.5t67 -153.5q0 -113 -62.5 -172t-160.5 -59q-159 0 -220 132l-11 -5q55 -215 234 -215q99 0 167.5 79t68.5 221q0 151 -66 230.5t-175 79.5q-107 0 -176.5 -82.5t-81.5 -207.5h-3l-2 275h-13 q-12 -420 -53 -815l90 -20z" />
<glyph unicode="q" horiz-adv-x="643" d="M541 122l23 -387h13q-9 429 11 830l-90 20l29 -250h-3q-22 113 -89 186.5t-165 73.5q-103 0 -166.5 -78.5t-63.5 -225.5q0 -146 68.5 -226t167.5 -80q179 0 234 215l-6 6q-62 -133 -225 -133q-98 0 -160.5 59t-62.5 172q0 102 61 153t154 51q110 0 184 -92t86 -294z" />
<glyph unicode="r" horiz-adv-x="405" d="M99 212q14 68 35 129t53 119t79.5 94.5t104.5 40.5l48 -98q-117 8 -212 -111t-126 -315l-11 -71h-12q11 292 -8 565l90 20l-44 -373h3z" />
<glyph unicode="s" horiz-adv-x="513" d="M266 239q133 -33 159 -45q42 -21 43 -52q0 -41 -44.5 -65.5t-111.5 -24.5q-44 0 -80 8t-58.5 17t-52 35t-43.5 42t-49 58q-4 4 -5.5 6.5t-4.5 6t-6 6.5l-8 -7l152 -231q40 -5 68 -5q125 0 195 49.5t70 126.5q0 71 -48 107t-156 57l-10 2q-117 23 -159.5 44t-42.5 71 q0 39 41 62.5t117 23.5q96 0 150 -41t112 -138l9 6l-121 232q-45 5 -77 5q-130 0 -191 -48t-61 -119q0 -85 40.5 -120.5t160.5 -65.5z" />
<glyph unicode="t" horiz-adv-x="578" d="M245 526l-67 -246q-3 -104 50 -157t142 -53q81 0 127.5 30.5t64.5 105.5l9 -3q0 -30 -11 -65t-33 -70.5t-63 -59t-94 -23.5q-40 0 -74 11t-66.5 36t-51 74t-18.5 117v85l2 215l-162 -8v35l275 125h11l-34 -125h326v-8z" />
<glyph unicode="u" horiz-adv-x="570" d="M484 368l-44 -373l90 20q-19 273 -8 565h-13q-15 -148 -50 -260.5t-92.5 -180t-129.5 -67.5q-121 0 -153 123t9 385h-14q-36 -209 -32.5 -341t49 -193t138.5 -61q184 0 247 383h3z" />
<glyph unicode="v" horiz-adv-x="562" d="M210 515q88 12 155.5 5.5t107.5 -35.5t53 -69.5t-7.5 -94.5t-73.5 -111l-211 -225l-214 605l9 5l262 -516l84 103q41 50 54 108t-2.5 107.5t-72 81t-144.5 28.5v8z" />
<glyph unicode="w" horiz-adv-x="775" d="M440 551q146 24 222.5 -6t77 -106.5t-64.5 -192.5l-149 -256l-99 225l-181 -229l-266 601l6 4l296 -499l140 136l-152 359l6 4l284 -499l52 110q23 49 34.5 96t7.5 93t-25.5 80.5t-69.5 54.5t-119 17v8z" />
<glyph unicode="x" horiz-adv-x="655" d="M615 448q0 -29 -26 -53.5t-50.5 -35.5t-79.5 -31q-14 -5 -21 -8q118 -146 154 -330l-9 -2q-45 168 -195 312q-10 -6 -20 -10q-153 -76 -153 -156q0 -51 39 -87t111 -54l-2 -8q-111 13 -178.5 52.5t-67.5 94.5q0 31 25.5 57t54 40t82.5 36.5t78 34.5q3 1 6.5 3t7.5 4l6 3 q-149 136 -337 197l46 76q203 -89 338 -247q93 58 93 110q0 51 -39 87t-111 54l2 8q111 -13 178.5 -52.5t67.5 -94.5z" />
<glyph unicode="y" horiz-adv-x="563" d="M149 559q112 21 191.5 27t133 -1t77 -32t23.5 -63t-28.5 -97t-77 -131t-123.5 -167q-1 -1 -14.5 -20.5t-31.5 -44t-46 -60.5t-56.5 -71t-65 -74t-71.5 -71l-115 94q215 70 353 223l-303 485l6 3l357 -415q89 115 118 199t-0.5 133.5t-111 68t-214.5 6.5z" />
<glyph unicode="z" horiz-adv-x="555" d="M20 144l71 436h444l-443 -553l414 90l-44 -117h-413l378 559l-12 -1q-79 -6 -138 -28.5t-98 -55.5t-68.5 -86t-46.5 -108.5t-34 -135.5h-10z" />
<glyph unicode="{" horiz-adv-x="428" d="M35 85q0 34 13.5 66.5t28 52.5t25 38t3 31t-38.5 22l-16 3v13l16 3q31 9 38.5 21.5t-2.5 30.5t-25 38t-28.5 52.5t-13.5 66.5q0 71 56 123.5t136 78t179 34.5l2 -8q-82 -8 -140.5 -33t-86.5 -59t-39.5 -65.5t-11.5 -62.5q0 -37 16 -75t30 -60t17 -42t-23 -31.5t-90 -18.5 q64 -7 90 -18.5t23 -31.5t-17 -42t-30 -60t-16 -75q0 -31 11.5 -62.5t39.5 -65.5t86.5 -59t140.5 -33l-2 -7q-99 8 -179 34t-136 78t-56 123z" />
<glyph unicode="|" horiz-adv-x="211" d="M150 760q31 -82 32 -150.5t-19.5 -118.5t-50 -98t-57 -100t-43.5 -111.5t-7 -146t50 -190.5h6q-31 82 -32 151t19.5 120t50 99.5t57 100.5t43.5 111.5t7 145t-50 187.5h-6z" />
<glyph unicode="}" horiz-adv-x="428" d="M393 85q0 -71 -56 -123t-136 -78t-179 -34l-2 7q82 8 140.5 33t86.5 59t39.5 65.5t11.5 62.5q0 37 -16 75t-30 60t-17 42t23 31.5t90 18.5q-64 7 -90 18.5t-23 31.5t17 42t30 60t16 75q0 31 -11.5 62.5t-39.5 65.5t-86.5 59t-140.5 33l2 8q99 -9 179 -34.5t136 -78 t56 -123.5q0 -34 -13.5 -66.5t-28.5 -52.5t-25 -38t-2.5 -30.5t38.5 -21.5l16 -3v-13l-16 -3q-31 -9 -38.5 -22t3 -31t25 -38t28 -52.5t13.5 -66.5z" />
<glyph unicode="~" horiz-adv-x="684" d="M20 296q135 81 239 87q43 2 77.5 -12t55 -32t56 -32t79.5 -12q62 3 131 42l6 -8q-134 -81 -239 -87q-35 -2 -63.5 7.5t-48.5 23t-40.5 27.5t-50 23t-65.5 7q-61 -3 -129 -41z" />
<glyph unicode="&#xa1;" horiz-adv-x="206" d="M207 835q0 -27 -18.5 -45.5t-45.5 -18.5t-45.5 18.5t-18.5 45.5t18.5 45.5t45.5 18.5t45.5 -18.5t18.5 -45.5zM136 714l9 -1q-50 -127 -63 -233.5t2.5 -197t59.5 -214.5h-98q-23 112 -25 203t25 204.5t90 238.5z" />
<glyph unicode="&#xa2;" horiz-adv-x="625" d="M606 261l9 -2q-23 -140 -101.5 -207t-188.5 -67q-13 0 -20 1l-2 -121h-6v121q-118 10 -187.5 93.5t-69.5 210.5q0 136 67.5 217t189.5 87v98h20l-2 -97h2q110 0 173 -60t63 -147q0 -84 -59 -123l-8 9q41 64 -8.5 150t-163.5 97l-8 -450q8 -1 21 -1q99 0 173.5 45 t105.5 146zM56 294q0 -56 23 -99.5t61 -68t77 -38t80 -17.5v451h-8q-101 0 -167 -62t-66 -166z" />
<glyph unicode="&#xa3;" horiz-adv-x="762" d="M686 496l11 -2q-9 -107 -32 -196.5t-62 -162.5t-99 -114t-136 -41q-49 0 -99 24t-81 49.5t-58.5 42t-44 1t-25.5 -73.5l-4 -23h-16q31 144 58 309h-88v20l90 -2l12 77h-102v20l104 -3q22 155 36 309l130 20l-104 -331l381 -10v-6l-386 1l-25 -78l411 -9v-6l-416 -2 l-65 -206q11 25 41.5 26t66 -12t91.5 -27.5t104 -14.5q34 0 68 9.5t74.5 38t72.5 73t57.5 122t34.5 178.5z" />
<glyph unicode="&#xa5;" horiz-adv-x="632" d="M173 752q102 12 177.5 15.5t129.5 -2.5t86.5 -19.5t44.5 -39t6.5 -58t-30 -79.5t-62 -99.5t-93.5 -122.5l170 -5v-6h-179q-5 -7 -17 -21l-51 -59l247 -6v-6l-257 -1q-44 -51 -79 -87t-95 -82t-124 -74l-104 98q182 31 342 145l-220 -1v20l240 -5q32 24 47 37l-32 43h-255 v20l245 -7l-294 394l9 6l389 -397q169 191 105.5 295t-346.5 96v8z" />
<glyph unicode="&#xa6;" horiz-adv-x="140" d="M65 398q1 119 -7 215.5t-8 100.5q-1 46 20 46t20 -46q0 -4 -8 -100.5t-7 -215.5h-10zM65 357h10q-1 -123 7 -222.5t8 -103.5q1 -46 -20 -46t-20 46q0 4 8 103.5t7 222.5z" />
<glyph unicode="&#xa7;" horiz-adv-x="617" d="M14 41l206 -287q33 -3 64 -3q154 0 239 61t85 156q0 60 -28 97t-88 63q56 28 86 73.5t30 99.5q0 45 -15.5 77t-50.5 55t-79 38.5t-114 31.5l-12 3q-143 33 -177 49q-60 27 -65 82q-1 6 -1 13q0 45 49 75.5t125 30.5q48 0 86 -5.5t69.5 -20.5t55 -30t48.5 -44.5t43 -54 t46 -67.5h9l-167 292q-54 4 -76 4q-159 0 -234 -59t-75 -145q0 -63 23 -103t79 -69q-102 -52 -102 -162q0 -91 52.5 -137.5t195.5 -85.5l15 -4q156 -42 180 -51q64 -25 69 -63q1 -5 1 -10q0 -52 -57.5 -83.5t-142.5 -31.5q-55 0 -98 9t-73.5 22.5t-62.5 42t-54.5 53.5 t-60.5 71q-12 15 -18 22zM94 317q0 43 45 72.5t117 32.5q46 -14 80 -23q156 -42 183 -53q62 -33 67 -72q0 -52 -53.5 -82.5t-135.5 -32.5l-48 11l-12 3q-143 33 -177 49q-60 27 -65 82q-1 6 -1 13z" />
<glyph unicode="&#xa8;" d="M170 804q22 0 37.5 -14.5t15.5 -35.5t-15.5 -35.5t-37.5 -14.5t-37.5 14.5t-15.5 35.5t15.5 35.5t37.5 14.5zM350 804q22 0 37.5 -14.5t15.5 -35.5t-15.5 -35.5t-37.5 -14.5t-37.5 14.5t-15.5 35.5t15.5 35.5t37.5 14.5z" />
<glyph unicode="&#xa9;" horiz-adv-x="761" d="M357 760q137 0 204 -92t67 -246q0 -131 -72 -208t-166 -77q-123 0 -188.5 67.5t-65.5 174.5q0 112 56 177t155 65q84 0 132 -48t48 -118q0 -65 -43 -94l-7 7q34 50 -10 116.5t-138 66.5q-76 0 -124.5 -46t-48.5 -123q0 -58 37 -97.5t88 -54.5t110 -15q54 0 103 21.5 t84 70.5t35 117q0 124 -71 188.5t-176 64.5q-154 0 -235.5 -77.5t-81.5 -226.5q0 -80 31 -141t82 -94.5t108 -50t118 -16.5q69 0 123 19.5t100.5 66t73 134t29.5 212.5l12 -3q-3 -143 -32 -246t-78.5 -160t-109 -82.5t-132.5 -25.5q-146 0 -242.5 105.5t-96.5 283.5 q0 79 18.5 147t56 122t101 85t146.5 31z" />
<glyph unicode="&#xab;" horiz-adv-x="594" d="M20 286q101 -195 238 -286l83 41q-77 46 -119 73.5t-97 75t-86 95.5v5q31 48 86 95.5t97 75t119 73.5l-83 41q-137 -91 -238 -286v-3zM240 286q101 -195 238 -286l83 41q-77 46 -119 73.5t-97 75t-86 95.5v5q31 48 86 95.5t97 75t119 73.5l-83 41q-137 -91 -238 -286v-3z " />
<glyph unicode="&#xac;" d="M101 320q239 18 376 14l17 -159h6l14 195l-413 14v-64z" />
<glyph unicode="&#xad;" horiz-adv-x="505" d="M455 321q-136 1 -242 -11t-124 -13q-46 -1 -46 30q0 33 46 30q1 0 114.5 -12.5t251.5 -11.5v-12z" />
<glyph unicode="&#xae;" horiz-adv-x="805" d="M92 375q0 79 18.5 147t56 122t101 85t146.5 31q137 0 204 -92t67 -246q0 -108 -47.5 -186t-133.5 -78q-68 0 -122 46t-113 179l34 -214l-72 20l24 269q34 -61 72.5 -92t90.5 -31q58 0 96 26t38 75q0 60 -45.5 90.5t-102.5 30.5q-119 0 -155 -77l-5 3q20 64 62 102t103 38 q74 0 116.5 -50t42.5 -119q0 -84 -45.5 -135t-104.5 -51q-48 0 -89 33q84 -90 177 -90q79 0 121.5 58.5t42.5 154.5q0 124 -71 188.5t-176 64.5q-154 0 -235.5 -77.5t-81.5 -226.5q0 -80 31 -141t82 -94.5t108 -50t118 -16.5q69 0 123 19.5t100.5 66t73 134t29.5 212.5 l12 -3q-3 -143 -32 -246t-78.5 -160t-109 -82.5t-132.5 -25.5q-146 0 -242.5 105.5t-96.5 283.5z" />
<glyph unicode="&#xaf;" d="M416 741q-45 0 -83.5 -0.5t-62.5 -1.5t-52.5 -4.5t-39.5 -5t-40 -6.5t-38 -6v60q53 -10 79.5 -14t87 -7.5t149.5 -2.5v-12z" />
<glyph unicode="&#xb0;" horiz-adv-x="223" d="M11 717q0 65 34.5 105.5t90.5 40.5t91 -40.5t35 -105.5q0 -67 -35 -107t-91 -40t-90.5 40t-34.5 107zM252 716q0 39 -33 58.5t-81 19.5t-82.5 -19.5t-34.5 -58.5q0 -38 34.5 -57.5t82.5 -19.5t81 19.5t33 57.5z" />
<glyph unicode="&#xb1;" horiz-adv-x="664" d="M10 440q156 74 258 74q26 0 36 -1q1 1 5 8t5.5 9.5t4.5 9t4.5 11.5t3.5 12.5t2.5 15.5t0.5 18q0 48 -35 108l8 6q58 -104 67 -135q7 -23 7 -43q0 -25 -1 -35q3 -1 16 -6t17.5 -6.5t17.5 -5t23 -4.5t26 -2.5t34 -1.5q62 0 140 35l4 -8q-152 -74 -258 -74q-25 0 -35 1 q-1 -2 -6 -10t-6.5 -11t-5 -11t-4.5 -14.5t-2.5 -16.5t-1.5 -22q0 -49 35 -110l-8 -4q-34 60 -44.5 79.5t-20 47t-9.5 51.5q0 25 1 36q-3 1 -16 6t-17.5 6.5t-17.5 5t-23 4.5t-26.5 2.5t-34.5 1.5q-62 0 -138 -35zM20 124q156 74 258 74q64 0 120 -21t122 -21q62 0 140 35 l4 -8q-152 -74 -258 -74q-64 0 -120 21t-122 21q-62 0 -138 -35z" />
<glyph unicode="&#xb2;" horiz-adv-x="379" d="M353 623l6 -1q-9 -120 -47 -196t-107 -76q-27 0 -53 15.5t-45 31t-28 15.5q-14 0 -21 -37l-2 -12h-8l3 19q8 49 48 98.5t83.5 82.5t78.5 68.5t35 60.5q0 24 -17 35.5t-39 11.5q-47 0 -92 -40.5t-61 -117.5l-47 52q15 62 64 94.5t105 32.5q46 0 72.5 -21.5t26.5 -62.5 q0 -20 -1 -31.5t-12.5 -40.5t-33 -53.5t-67.5 -60t-112 -71.5q8 2 12 2q11 0 48.5 -6t64.5 -6q52 0 93.5 47t52.5 167z" />
<glyph unicode="&#xb3;" horiz-adv-x="343" d="M32 683q23 30 67 53.5t91 23.5t79.5 -23t32.5 -60q0 -31 -23.5 -55.5t-69.5 -55.5v-2q114 -5 114 -79q0 -65 -40 -101t-105 -36q-64 0 -105 41.5t-53 118.5l6 1q31 -104 151 -104q59 0 98 22t39 61q0 47 -68 47q-70 0 -144 -36v68q43 7 85.5 22t75 39t32.5 50 q0 20 -20 33t-54 13q-44 0 -88.5 -29t-69.5 -80z" />
<glyph unicode="&#xb4;" d="M414 802l38 -65q-28 -37 -77 -62t-114.5 -30.5t-137.5 24.5l3 9q91 -31 170 9.5t116 114.5h2z" />
<glyph unicode="&#xb5;" />
<glyph unicode="&#xb6;" horiz-adv-x="553" d="M263 760q80 0 135.5 -40.5t74.5 -118.5l-6 -4q-21 37 -59 56l-10 -716h-6l-14 727q-18 6 -37 9l-10 -736h-6l-7 434q-107 -54 -195 0t-88 172q0 96 62.5 156.5t165.5 60.5zM317 447l-4 229q-17 2 -53 2q-88 0 -152 -33.5t-64 -104.5q0 -60 43 -92t105.5 -30.5t124.5 29.5 z" />
<glyph unicode="&#xb7;" horiz-adv-x="196" d="M106 356q24 0 40.5 -16.5t16.5 -40.5t-16.5 -40.5t-40.5 -16.5t-40.5 16.5t-16.5 40.5t16.5 40.5t40.5 16.5z" />
<glyph unicode="&#xb8;" d="M326 -275l-6 15q60 27 65 69q4 25 -12.5 46.5t-39.5 29.5q-38 13 -74 5t-85 -40l-4 2l91 148h10l-39 -91q64 51 125 41q34 -5 56.5 -33.5t22.5 -67.5q0 -35 -31 -70t-79 -54z" />
<glyph unicode="&#xb9;" horiz-adv-x="247" d="M158 355l-29 330h-2l-103 -91l-4 4l149 157l48 -15q-49 -214 -53 -385h-6z" />
<glyph unicode="&#xbb;" horiz-adv-x="594" d="M354 286v3q-101 195 -238 286l-83 -41q77 -46 119 -73.5t97 -75t86 -95.5v-5q-31 -48 -86 -95.5t-97 -75t-119 -73.5l83 -41q137 91 238 286zM574 286v3q-101 195 -238 286l-83 -41q77 -46 119 -73.5t97 -75t86 -95.5v-5q-31 -48 -86 -95.5t-97 -75t-119 -73.5l83 -41 q137 91 238 286z" />
<glyph unicode="&#xbc;" horiz-adv-x="716" d="M545 762l44 -17l-506 -745h-7zM158 355l-29 330h-2l-103 -91l-4 4l149 157l48 -15q-49 -214 -53 -385h-6zM555 253l48 10q-7 -32 -19 -123l112 -3v-5l-112 -7l-10 -140h-3l-9 139q-142 -15 -202 -28v32q27 39 52 79.5t65 107t49 81.5l60 -29q-8 -8 -32.5 -34t-34.5 -36.5 t-30.5 -33t-32.5 -36.5t-28 -33.5t-29 -37.5l163 -16z" />
<glyph unicode="&#xbd;" horiz-adv-x="759" d="M545 762l44 -17l-506 -745h-7zM149 685h-2l-103 -91l-4 4l149 157l48 -15q-49 -214 -53 -385h-6zM700 246h6q-9 -115 -45.5 -188t-102.5 -73q-26 0 -51 14.5t-43 29.5t-27 15q-13 0 -20 -35l-2 -12h-7l3 19q6 38 32.5 76.5t59.5 67.5t65.5 56t54.5 52t22 45 q0 22 -16 33.5t-37 11.5q-46 0 -89 -39t-58 -113l-45 50q15 59 62 90.5t100 31.5q43 0 69 -21t26 -60q0 -19 -1 -30t-12 -38.5t-31.5 -51t-64.5 -57.5t-107 -68q4 1 11 1q10 0 46 -5.5t62 -5.5q50 0 89.5 44.5t50.5 159.5z" />
<glyph unicode="&#xbe;" horiz-adv-x="851" d="M640 762l44 -17l-506 -745h-7zM81 687q22 29 64 51t86 22q45 0 76 -21.5t31 -57.5q0 -21 -14 -41t-29 -32t-45 -33v-2q108 -5 108 -74q0 -63 -38.5 -97t-99.5 -34t-100 39.5t-50 112.5l6 1q29 -98 143 -98q56 0 93 21t37 58q0 44 -64 44q-69 0 -137 -35v65q67 12 125 41 t58 65q0 19 -18.5 31.5t-51.5 12.5q-42 0 -84 -28t-67 -76zM617 253l48 10q-7 -32 -19 -123l112 -3v-5l-112 -7l-10 -140h-3l-9 139q-142 -15 -202 -28v32q27 39 52 79.5t65 107t49 81.5l60 -29q-8 -8 -32.5 -34t-34.5 -36.5t-30.5 -33t-32.5 -36.5t-28 -33.5t-29 -37.5 l163 -16z" />
<glyph unicode="&#xbf;" horiz-adv-x="573" d="M307 501q0 -27 -18.5 -45.5t-45.5 -18.5t-45.5 18.5t-18.5 45.5t18.5 45.5t45.5 18.5t45.5 -18.5t18.5 -45.5zM562 114q-42 -149 -124.5 -229t-198.5 -80q-122 0 -189 78.5t-67 186.5q0 94 52.5 160t143.5 66q68 0 119 -19l3 2l-61 127h10l189 -313l-7 -4 q-82 127 -242 127q-82 0 -138.5 -39t-56.5 -106q0 -76 62 -126t180 -50q115 0 192.5 51.5t124.5 169.5z" />
<glyph unicode="&#xc0;" horiz-adv-x="639" d="M183 987h2q37 -74 116 -114.5t170 -9.5l3 -9q-72 -30 -137.5 -24.5t-114.5 30.5t-77 62zM110 450l212 316q201 -492 337 -770l-8 -3l-113 202q-81 144 -387 22l-4 9l88 34q29 11 106.5 36.5t106.5 36.5l-182 310l-105 -159q-34 -51 -53 -105.5t-22.5 -108.5t15 -101 t57 -82t108 -54t162.5 -15v-11q-154 -29 -251 -5.5t-138.5 83.5t-23.5 155t95 210z" />
<glyph unicode="&#xc1;" horiz-adv-x="639" d="M436 987l38 -65q-28 -37 -77 -62t-114.5 -30.5t-137.5 24.5l3 9q91 -31 170 9.5t116 114.5h2zM110 450l212 316q201 -492 337 -770l-8 -3l-113 202q-81 144 -387 22l-4 9l88 34q29 11 106.5 36.5t106.5 36.5l-182 310l-105 -159q-34 -51 -53 -105.5t-22.5 -108.5t15 -101 t57 -82t108 -54t162.5 -15v-11q-154 -29 -251 -5.5t-138.5 83.5t-23.5 155t95 210z" />
<glyph unicode="&#xc2;" horiz-adv-x="639" d="M105 804q84 33 132 82t71 121h4q23 -72 71 -121t132 -82l-4 -9q-9 3 -53.5 19.5t-61.5 23.5t-44 22.5t-42 31.5q-15 -16 -42 -31.5t-44 -22.5t-61.5 -23.5t-53.5 -19.5zM110 450l212 316q201 -492 337 -770l-8 -3l-113 202q-81 144 -387 22l-4 9l88 34q29 11 106.5 36.5 t106.5 36.5l-182 310l-105 -159q-34 -51 -53 -105.5t-22.5 -108.5t15 -101t57 -82t108 -54t162.5 -15v-11q-154 -29 -251 -5.5t-138.5 83.5t-23.5 155t95 210z" />
<glyph unicode="&#xc3;" horiz-adv-x="639" d="M61 890q106 74 195 82q32 3 55.5 -6.5t35 -22t35 -23.5t56.5 -10q53 3 105 43l4 -8q-101 -73 -195 -82q-32 -3 -55.5 7t-35 23t-35 23.5t-56.5 8.5q-53 -3 -105 -43zM110 450l212 316q201 -492 337 -770l-8 -3l-113 202q-81 144 -387 22l-4 9l88 34q29 11 106.5 36.5 t106.5 36.5l-182 310l-105 -159q-34 -51 -53 -105.5t-22.5 -108.5t15 -101t57 -82t108 -54t162.5 -15v-11q-154 -29 -251 -5.5t-138.5 83.5t-23.5 155t95 210z" />
<glyph unicode="&#xc4;" horiz-adv-x="639" d="M220 969q22 0 37.5 -14.5t15.5 -35.5t-15.5 -35.5t-37.5 -14.5t-37.5 14.5t-15.5 35.5t15.5 35.5t37.5 14.5zM400 969q22 0 37.5 -14.5t15.5 -35.5t-15.5 -35.5t-37.5 -14.5t-37.5 14.5t-15.5 35.5t15.5 35.5t37.5 14.5zM110 450l212 316q201 -492 337 -770l-8 -3 l-113 202q-81 144 -387 22l-4 9l88 34q29 11 106.5 36.5t106.5 36.5l-182 310l-105 -159q-34 -51 -53 -105.5t-22.5 -108.5t15 -101t57 -82t108 -54t162.5 -15v-11q-154 -29 -251 -5.5t-138.5 83.5t-23.5 155t95 210z" />
<glyph unicode="&#xc5;" horiz-adv-x="639" d="M228 893q0 40 23 64.5t59 24.5q37 0 60 -24.5t23 -64.5q0 -41 -23 -65.5t-60 -24.5q-36 0 -59 24.5t-23 65.5zM384 892q0 24 -21.5 36t-52.5 12t-53 -12t-22 -36q0 -23 22 -35t53 -12t52.5 12t21.5 35zM110 450l212 316q201 -492 337 -770l-8 -3l-113 202 q-81 144 -387 22l-4 9l88 34q29 11 106.5 36.5t106.5 36.5l-182 310l-105 -159q-34 -51 -53 -105.5t-22.5 -108.5t15 -101t57 -82t108 -54t162.5 -15v-11q-154 -29 -251 -5.5t-138.5 83.5t-23.5 155t95 210z" />
<glyph unicode="&#xc6;" horiz-adv-x="928" d="M873 279l11 -2q-18 -115 -81 -189t-152 -95l-113 202q-81 144 -387 22l-4 9l88 34q29 11 106.5 36.5t106.5 36.5l-182 310l-105 -159q-34 -51 -53 -105.5t-22.5 -108.5t15 -101t57 -82t108 -54t162.5 -15v-11q-154 -29 -251 -5.5t-138.5 83.5t-23.5 155t95 210l212 316 q7 -19 21 -52t19 -45q25 42 77.5 66.5t118.5 24.5q83 0 158 -40t119 -97l-44 -92q-116 179 -275 179q-50 0 -89 -17t-57 -45q54 -133 113 -269q106 -57 331 33l4 -9l-88 -34q-29 -11 -106 -36.5t-105 -35.5q57 -128 99 -215q93 8 161 59.5t94 137.5zM438 417l-11 17 q4 -9 11 -17z" />
<glyph unicode="&#xc7;" horiz-adv-x="747" d="M373 -10q-19 0 -29 1l-35 -82q64 51 125 41q34 -5 56.5 -33.5t22.5 -67.5q0 -35 -31 -70t-79 -54l-6 15q60 27 65 69q4 25 -12.5 46.5t-39.5 29.5q-38 13 -74 5t-85 -40l-4 2l86 140q-138 15 -218 121.5t-80 268.5q0 168 87.5 273t240.5 105q64 0 115.5 -22.5t82.5 -58 t47.5 -77.5t16.5 -85q0 -122 -81 -191l-6 9q34 46 37.5 103.5t-20 107.5t-81 84.5t-136.5 34.5q-131 0 -210.5 -77.5t-79.5 -199.5q0 -79 33 -140.5t84 -95t105 -50.5t105 -17q50 0 92 9.5t87 37.5t78.5 73.5t58.5 122.5t35 179l11 -3q-10 -118 -36.5 -210t-61.5 -148 t-81 -92t-90.5 -50t-94.5 -14z" />
<glyph unicode="&#xc8;" horiz-adv-x="640" d="M196 1022h2q37 -74 116 -114.5t170 -9.5l3 -9q-72 -30 -137.5 -24.5t-114.5 30.5t-77 62zM567 623l-44 -92q-116 179 -275 179q-69 0 -114 -30.5t-45 -75.5q0 -34 20.5 -62t50.5 -47t77.5 -36t86 -27.5t92.5 -23.5q28 -7 42 -10v-87q-91 19 -199 19q-207 0 -207 -105 q0 -65 76 -105t186 -40q210 0 271 199l11 -2q-23 -140 -96 -216t-188 -76q-122 0 -199.5 63t-77.5 173q0 160 224 185v5q-87 41 -135 85t-48 106q0 70 62 114t152 44q83 0 158 -40t119 -97z" />
<glyph unicode="&#xc9;" horiz-adv-x="640" d="M449 1022l38 -65q-28 -37 -77 -62t-114.5 -30.5t-137.5 24.5l3 9q91 -31 170 9.5t116 114.5h2zM567 623l-44 -92q-116 179 -275 179q-69 0 -114 -30.5t-45 -75.5q0 -34 20.5 -62t50.5 -47t77.5 -36t86 -27.5t92.5 -23.5q28 -7 42 -10v-87q-91 19 -199 19 q-207 0 -207 -105q0 -65 76 -105t186 -40q210 0 271 199l11 -2q-23 -140 -96 -216t-188 -76q-122 0 -199.5 63t-77.5 173q0 160 224 185v5q-87 41 -135 85t-48 106q0 70 62 114t152 44q83 0 158 -40t119 -97z" />
<glyph unicode="&#xca;" horiz-adv-x="640" d="M118 839q84 33 132 82t71 121h4q23 -72 71 -121t132 -82l-4 -9q-9 3 -53.5 19.5t-61.5 23.5t-44 22.5t-42 31.5q-15 -16 -42 -31.5t-44 -22.5t-61.5 -23.5t-53.5 -19.5zM567 623l-44 -92q-116 179 -275 179q-69 0 -114 -30.5t-45 -75.5q0 -34 20.5 -62t50.5 -47t77.5 -36 t86 -27.5t92.5 -23.5q28 -7 42 -10v-87q-91 19 -199 19q-207 0 -207 -105q0 -65 76 -105t186 -40q210 0 271 199l11 -2q-23 -140 -96 -216t-188 -76q-122 0 -199.5 63t-77.5 173q0 160 224 185v5q-87 41 -135 85t-48 106q0 70 62 114t152 44q83 0 158 -40t119 -97z" />
<glyph unicode="&#xcb;" horiz-adv-x="640" d="M233 1004q22 0 37.5 -14.5t15.5 -35.5t-15.5 -35.5t-37.5 -14.5t-37.5 14.5t-15.5 35.5t15.5 35.5t37.5 14.5zM413 1004q22 0 37.5 -14.5t15.5 -35.5t-15.5 -35.5t-37.5 -14.5t-37.5 14.5t-15.5 35.5t15.5 35.5t37.5 14.5zM567 623l-44 -92q-116 179 -275 179 q-69 0 -114 -30.5t-45 -75.5q0 -34 20.5 -62t50.5 -47t77.5 -36t86 -27.5t92.5 -23.5q28 -7 42 -10v-87q-91 19 -199 19q-207 0 -207 -105q0 -65 76 -105t186 -40q210 0 271 199l11 -2q-23 -140 -96 -216t-188 -76q-122 0 -199.5 63t-77.5 173q0 160 224 185v5 q-87 41 -135 85t-48 106q0 70 62 114t152 44q83 0 158 -40t119 -97z" />
<glyph unicode="&#xcc;" horiz-adv-x="280" d="M13 1022h2q37 -74 116 -114.5t170 -9.5l3 -9q-72 -30 -137.5 -24.5t-114.5 30.5t-77 62zM108 0h-15l-3 730l120 20q-81 -375 -102 -750z" />
<glyph unicode="&#xcd;" horiz-adv-x="279" d="M239 967l38 -65q-28 -37 -77 -62t-114.5 -30.5t-137.5 24.5l3 9q91 -31 170 9.5t116 114.5h2z" />
<glyph unicode="&#xce;" horiz-adv-x="279" d="M-42 794q84 33 132 82t71 121h4q23 -72 71 -121t132 -82l-4 -9q-9 3 -53.5 19.5t-61.5 23.5t-44 22.5t-42 31.5q-15 -16 -42 -31.5t-44 -22.5t-61.5 -23.5t-53.5 -19.5z" />
<glyph unicode="&#xcf;" horiz-adv-x="280" d="M50 1004q22 0 37.5 -14.5t15.5 -35.5t-15.5 -35.5t-37.5 -14.5t-37.5 14.5t-15.5 35.5t15.5 35.5t37.5 14.5zM230 1004q22 0 37.5 -14.5t15.5 -35.5t-15.5 -35.5t-37.5 -14.5t-37.5 14.5t-15.5 35.5t15.5 35.5t37.5 14.5zM108 0h-15l-3 730l120 20q-81 -375 -102 -750z " />
<glyph unicode="&#xd0;" horiz-adv-x="920" d="M521 769q165 0 264.5 -110.5t99.5 -287.5q0 -175 -97 -285t-254 -110q-146 0 -229 101q29 102 46 237l-341 -9v50l345 -9q10 88 17 218h9l7 -219l384 -10v-10l-383 -10l7 -228q58 -16 118 -16q52 0 101 10t96 32.5t81.5 56t55.5 83.5t21 111q0 82 -31 144.5t-83 97 t-109.5 51.5t-119.5 17q-116 0 -214 -57t-138 -153l-9 3q33 145 132.5 223.5t223.5 78.5z" />
<glyph unicode="&#xd1;" horiz-adv-x="769" d="M136 890q106 74 195 82q32 3 55.5 -6.5t35 -22t35 -23.5t56.5 -10q53 3 105 43l4 -8q-101 -73 -195 -82q-32 -3 -55.5 7t-35 23t-35 23.5t-56.5 8.5q-53 -3 -105 -43zM43 745h24l606 -629l7 278q2 78 -21 143.5t-72.5 111t-127 51.5t-183.5 -36l-5 9q87 52 158.5 76.5 t128 20t93 -39t52.5 -106t8 -177.5l-33 -457l-565 557h-4l71 -554h-12z" />
<glyph unicode="&#xd2;" horiz-adv-x="717" d="M231 1002h2q37 -74 116 -114.5t170 -9.5l3 -9q-72 -30 -137.5 -24.5t-114.5 30.5t-77 62zM359 -15q-144 0 -234 107.5t-90 281.5t89.5 280t234.5 106t234 -106t89 -280t-89.5 -281.5t-233.5 -107.5zM359 80q47 0 90.5 11t82.5 34t68 57t46 83t17 108q0 143 -89 217.5 t-215 74.5t-215.5 -74.5t-89.5 -217.5q0 -73 26 -131t69.5 -92.5t97 -52t112.5 -17.5z" />
<glyph unicode="&#xd3;" horiz-adv-x="717" d="M484 1002l38 -65q-28 -37 -77 -62t-114.5 -30.5t-137.5 24.5l3 9q91 -31 170 9.5t116 114.5h2zM359 -15q-144 0 -234 107.5t-90 281.5t89.5 280t234.5 106t234 -106t89 -280t-89.5 -281.5t-233.5 -107.5zM359 80q47 0 90.5 11t82.5 34t68 57t46 83t17 108 q0 143 -89 217.5t-215 74.5t-215.5 -74.5t-89.5 -217.5q0 -73 26 -131t69.5 -92.5t97 -52t112.5 -17.5z" />
<glyph unicode="&#xd4;" horiz-adv-x="717" d="M153 819q84 33 132 82t71 121h4q23 -72 71 -121t132 -82l-4 -9q-9 3 -53.5 19.5t-61.5 23.5t-44 22.5t-42 31.5q-15 -16 -42 -31.5t-44 -22.5t-61.5 -23.5t-53.5 -19.5zM359 -15q-144 0 -234 107.5t-90 281.5t89.5 280t234.5 106t234 -106t89 -280t-89.5 -281.5 t-233.5 -107.5zM359 80q47 0 90.5 11t82.5 34t68 57t46 83t17 108q0 143 -89 217.5t-215 74.5t-215.5 -74.5t-89.5 -217.5q0 -73 26 -131t69.5 -92.5t97 -52t112.5 -17.5z" />
<glyph unicode="&#xd5;" horiz-adv-x="717" d="M109 905q106 74 195 82q32 3 55.5 -6.5t35 -22t35 -23.5t56.5 -10q53 3 105 43l4 -8q-101 -73 -195 -82q-32 -3 -55.5 7t-35 23t-35 23.5t-56.5 8.5q-53 -3 -105 -43zM359 -15q-144 0 -234 107.5t-90 281.5t89.5 280t234.5 106t234 -106t89 -280t-89.5 -281.5 t-233.5 -107.5zM359 80q47 0 90.5 11t82.5 34t68 57t46 83t17 108q0 143 -89 217.5t-215 74.5t-215.5 -74.5t-89.5 -217.5q0 -73 26 -131t69.5 -92.5t97 -52t112.5 -17.5z" />
<glyph unicode="&#xd6;" horiz-adv-x="717" d="M268 984q22 0 37.5 -14.5t15.5 -35.5t-15.5 -35.5t-37.5 -14.5t-37.5 14.5t-15.5 35.5t15.5 35.5t37.5 14.5zM448 984q22 0 37.5 -14.5t15.5 -35.5t-15.5 -35.5t-37.5 -14.5t-37.5 14.5t-15.5 35.5t15.5 35.5t37.5 14.5zM359 -15q-144 0 -234 107.5t-90 281.5t89.5 280 t234.5 106t234 -106t89 -280t-89.5 -281.5t-233.5 -107.5zM359 80q47 0 90.5 11t82.5 34t68 57t46 83t17 108q0 143 -89 217.5t-215 74.5t-215.5 -74.5t-89.5 -217.5q0 -73 26 -131t69.5 -92.5t97 -52t112.5 -17.5z" />
<glyph unicode="&#xd7;" horiz-adv-x="662" d="M461 247q42 -43 124 -75l-3 -8q-160 55 -235 130q-10 10 -24 26q-4 -2 -18.5 -8.5t-21 -10.5t-19.5 -12.5t-26.5 -20t-28.5 -26.5q-43 -42 -74 -123l-9 2q55 158 130 235q11 11 27 25q-2 3 -7 15t-7.5 17t-9 16.5t-13 19.5t-17 20.5t-23.5 25.5q-45 44 -123 73l2 9 q164 -58 234 -130q11 -11 25 -27q3 1 13.5 6t14 7t13 7t16 9.5t16 12t19.5 16.5t21 20q42 41 73 122l10 -2q-58 -162 -130 -234q-10 -10 -26 -24q2 -3 7 -15t7.5 -17t9 -16.5t13 -19.5t17 -20t23.5 -25z" />
<glyph unicode="&#xd8;" horiz-adv-x="717" d="M482 736q93 -39 146.5 -134t53.5 -228q0 -174 -89.5 -281.5t-233.5 -107.5q-72 0 -129 27l-58 -165l-10 3l55 168q-85 44 -133.5 137.5t-48.5 218.5q0 174 89.5 280t234.5 106q49 0 96 -14l30 91l30 -7zM54 373q0 -107 52 -176.5t137 -98.5l184 561q-33 6 -68 6 q-126 0 -215.5 -74.5t-89.5 -217.5zM359 80q47 0 90.5 11t82.5 34t68 57t46 83t17 108q0 114 -58 185t-152 95l-195 -559q51 -14 101 -14z" />
<glyph unicode="&#xd9;" horiz-adv-x="652" d="M199 987h2q37 -74 116 -114.5t170 -9.5l3 -9q-72 -30 -137.5 -24.5t-114.5 30.5t-77 62zM98 745l14 -1q-26 -101 -36 -194.5t-1 -180t39 -150t89.5 -101.5t144.5 -38q122 0 190 75.5t68 204.5q0 141 -64.5 235t-176.5 94q-80 0 -179 -48l-6 9q203 110 296 110 q174 0 149 -419q-4 -74 -22 -136t-51 -112.5t-88 -79t-126 -28.5q-94 0 -159 43t-95.5 115.5t-38 171.5t6.5 206t46 224z" />
<glyph unicode="&#xda;" horiz-adv-x="652" d="M452 987l38 -65q-28 -37 -77 -62t-114.5 -30.5t-137.5 24.5l3 9q91 -31 170 9.5t116 114.5h2zM98 745l14 -1q-26 -101 -36 -194.5t-1 -180t39 -150t89.5 -101.5t144.5 -38q122 0 190 75.5t68 204.5q0 141 -64.5 235t-176.5 94q-80 0 -179 -48l-6 9q203 110 296 110 q174 0 149 -419q-4 -74 -22 -136t-51 -112.5t-88 -79t-126 -28.5q-94 0 -159 43t-95.5 115.5t-38 171.5t6.5 206t46 224z" />
<glyph unicode="&#xdb;" horiz-adv-x="652" d="M121 804q84 33 132 82t71 121h4q23 -72 71 -121t132 -82l-4 -9q-9 3 -53.5 19.5t-61.5 23.5t-44 22.5t-42 31.5q-15 -16 -42 -31.5t-44 -22.5t-61.5 -23.5t-53.5 -19.5zM98 745l14 -1q-26 -101 -36 -194.5t-1 -180t39 -150t89.5 -101.5t144.5 -38q122 0 190 75.5 t68 204.5q0 141 -64.5 235t-176.5 94q-80 0 -179 -48l-6 9q203 110 296 110q174 0 149 -419q-4 -74 -22 -136t-51 -112.5t-88 -79t-126 -28.5q-94 0 -159 43t-95.5 115.5t-38 171.5t6.5 206t46 224z" />
<glyph unicode="&#xdc;" horiz-adv-x="652" d="M236 969q22 0 37.5 -14.5t15.5 -35.5t-15.5 -35.5t-37.5 -14.5t-37.5 14.5t-15.5 35.5t15.5 35.5t37.5 14.5zM416 969q22 0 37.5 -14.5t15.5 -35.5t-15.5 -35.5t-37.5 -14.5t-37.5 14.5t-15.5 35.5t15.5 35.5t37.5 14.5zM98 745l14 -1q-26 -101 -36 -194.5t-1 -180 t39 -150t89.5 -101.5t144.5 -38q122 0 190 75.5t68 204.5q0 141 -64.5 235t-176.5 94q-80 0 -179 -48l-6 9q203 110 296 110q174 0 149 -419q-4 -74 -22 -136t-51 -112.5t-88 -79t-126 -28.5q-94 0 -159 43t-95.5 115.5t-38 171.5t6.5 206t46 224z" />
<glyph unicode="&#xdd;" horiz-adv-x="632" d="M415 902q-28 -37 -77 -62t-114.5 -30.5t-137.5 24.5l3 9q91 -31 170 9.5t116 114.5h2zM173 752q105 12 182 15.5t131.5 -3.5t86 -21.5t41 -42t2 -62t-36.5 -85.5t-70.5 -107t-102.5 -131q-12 -14 -46 -54.5t-60.5 -69t-66.5 -66.5t-87 -70t-99 -55l-104 98 q222 39 409 196l-336 450l9 6l389 -397q169 191 105.5 295t-346.5 96v8z" />
<glyph unicode="&#xde;" d="M361 510q-28 0 -57.5 -6t-62.5 -22.5t-58.5 -41t-42.5 -64.5t-17 -90q0 -105 59 -166.5t152 -61.5q44 0 80.5 18t58 46t33.5 61.5t10.5 66t-15.5 56.5l7 9q51 -39 51 -123q0 -89 -53 -148t-154 -59q-86 0 -150 63t-84 157h-3l-31 -455h-13l-11 1080h90l-35 -460h2 q20 92 87.5 158.5t154.5 66.5q97 0 165.5 -67t89.5 -207l-8 -2q-19 68 -58 112.5t-85 61.5t-102 17z" />
<glyph unicode="&#xdf;" horiz-adv-x="738" d="M-20 525v35h170v57q0 72 15.5 127.5t41 89t60 55t68 29t70.5 7.5q53 0 94.5 -17.5t66 -44t40.5 -60.5t22 -63.5t6 -57.5q0 -47 -18.5 -80t-47.5 -50t-64.5 -28t-71 -17.5t-64.5 -14t-47.5 -22t-18.5 -37.5q0 -46 53 -68q31 -12 150 -36l10 -2q107 -21 155 -58.5 t48 -111.5q0 -85 -84 -135.5t-233 -38.5l-168 234l5 4q76 -89 102 -111q67 -58 167 -64q16 -1 33 -1q67 0 111.5 24.5t44.5 65.5q0 31 -34.5 46.5t-127.5 38.5q-26 6 -41 10l-12 3q-119 29 -159.5 65.5t-40.5 122.5q0 47 18.5 77t48 43t65.5 20t72 13t65.5 16t48 34.5 t18.5 63.5q0 62 -54.5 111t-152.5 49q-111 0 -178.5 -74.5t-63.5 -213.5h-1l-1 -560h-72l-4 532z" />
<glyph unicode="&#xe0;" horiz-adv-x="571" d="M192 837h2q37 -74 116 -114.5t170 -9.5l3 -9q-72 -30 -137.5 -24.5t-114.5 30.5t-77 62zM505 0h-14l-6 140q-22 -72 -84.5 -116t-142.5 -44q-93 0 -144 53t-51 132q0 52 24 91.5t62 58.5l282 -55v-9q-82 3 -147.5 2t-111 -7.5t-69.5 -26t-24 -53.5q0 -46 54.5 -75 t125.5 -29q95 0 159 48.5t64 130.5q0 122 -43 195t-136 73q-66 0 -133.5 -31.5t-121.5 -84.5l-6 7q79 102 147.5 148.5t155.5 46.5q88 0 131.5 -78t38.5 -227z" />
<glyph unicode="&#xe1;" horiz-adv-x="571" d="M445 837l38 -65q-28 -37 -77 -62t-114.5 -30.5t-137.5 24.5l3 9q91 -31 170 9.5t116 114.5h2zM505 0h-14l-6 140q-22 -72 -84.5 -116t-142.5 -44q-93 0 -144 53t-51 132q0 52 24 91.5t62 58.5l282 -55v-9q-82 3 -147.5 2t-111 -7.5t-69.5 -26t-24 -53.5q0 -46 54.5 -75 t125.5 -29q95 0 159 48.5t64 130.5q0 122 -43 195t-136 73q-66 0 -133.5 -31.5t-121.5 -84.5l-6 7q79 102 147.5 148.5t155.5 46.5q88 0 131.5 -78t38.5 -227z" />
<glyph unicode="&#xe2;" horiz-adv-x="571" d="M114 654q84 33 132 82t71 121h4q23 -72 71 -121t132 -82l-4 -9q-9 3 -53.5 19.5t-61.5 23.5t-44 22.5t-42 31.5q-15 -16 -42 -31.5t-44 -22.5t-61.5 -23.5t-53.5 -19.5zM505 0h-14l-6 140q-22 -72 -84.5 -116t-142.5 -44q-93 0 -144 53t-51 132q0 52 24 91.5t62 58.5 l282 -55v-9q-82 3 -147.5 2t-111 -7.5t-69.5 -26t-24 -53.5q0 -46 54.5 -75t125.5 -29q95 0 159 48.5t64 130.5q0 122 -43 195t-136 73q-66 0 -133.5 -31.5t-121.5 -84.5l-6 7q79 102 147.5 148.5t155.5 46.5q88 0 131.5 -78t38.5 -227z" />
<glyph unicode="&#xe3;" horiz-adv-x="571" d="M70 740q106 74 195 82q32 3 55.5 -6.5t35 -22t35 -23.5t56.5 -10q53 3 105 43l4 -8q-101 -73 -195 -82q-32 -3 -55.5 7t-35 23t-35 23.5t-56.5 8.5q-53 -3 -105 -43zM505 0h-14l-6 140q-22 -72 -84.5 -116t-142.5 -44q-93 0 -144 53t-51 132q0 52 24 91.5t62 58.5 l282 -55v-9q-82 3 -147.5 2t-111 -7.5t-69.5 -26t-24 -53.5q0 -46 54.5 -75t125.5 -29q95 0 159 48.5t64 130.5q0 122 -43 195t-136 73q-66 0 -133.5 -31.5t-121.5 -84.5l-6 7q79 102 147.5 148.5t155.5 46.5q88 0 131.5 -78t38.5 -227z" />
<glyph unicode="&#xe4;" horiz-adv-x="571" d="M229 819q22 0 37.5 -14.5t15.5 -35.5t-15.5 -35.5t-37.5 -14.5t-37.5 14.5t-15.5 35.5t15.5 35.5t37.5 14.5zM409 819q22 0 37.5 -14.5t15.5 -35.5t-15.5 -35.5t-37.5 -14.5t-37.5 14.5t-15.5 35.5t15.5 35.5t37.5 14.5zM505 0h-14l-6 140q-22 -72 -84.5 -116t-142.5 -44 q-93 0 -144 53t-51 132q0 52 24 91.5t62 58.5l282 -55v-9q-82 3 -147.5 2t-111 -7.5t-69.5 -26t-24 -53.5q0 -46 54.5 -75t125.5 -29q95 0 159 48.5t64 130.5q0 122 -43 195t-136 73q-66 0 -133.5 -31.5t-121.5 -84.5l-6 7q79 102 147.5 148.5t155.5 46.5q88 0 131.5 -78 t38.5 -227z" />
<glyph unicode="&#xe5;" horiz-adv-x="571" d="M237 743q0 40 23 64.5t59 24.5q37 0 60 -24.5t23 -64.5q0 -41 -23 -65.5t-60 -24.5q-36 0 -59 24.5t-23 65.5zM393 742q0 24 -21.5 36t-52.5 12t-53 -12t-22 -36q0 -23 22 -35t53 -12t52.5 12t21.5 35zM505 0h-14l-6 140q-22 -72 -84.5 -116t-142.5 -44q-93 0 -144 53 t-51 132q0 52 24 91.5t62 58.5l282 -55v-9q-82 3 -147.5 2t-111 -7.5t-69.5 -26t-24 -53.5q0 -46 54.5 -75t125.5 -29q95 0 159 48.5t64 130.5q0 122 -43 195t-136 73q-66 0 -133.5 -31.5t-121.5 -84.5l-6 7q79 102 147.5 148.5t155.5 46.5q88 0 131.5 -78t38.5 -227z" />
<glyph unicode="&#xe6;" horiz-adv-x="1103" d="M42 400l6 -7q54 53 121.5 84.5t133.5 31.5q93 0 136 -73t43 -195q0 -82 -64 -130.5t-159 -48.5q-71 0 -125.5 29t-54.5 75q0 34 24 53.5t69.5 26t111 7.5t147.5 -2v9l-289 40q-35 -18 -57 -53t-22 -82q0 -79 51 -132t144 -53q83 0 148 50.5t91 146.5l10 36 q27 -99 103.5 -166t174.5 -67q116 0 193.5 76.5t99.5 215.5l-11 2q-29 -101 -101.5 -155t-178.5 -54q-112 0 -191 66t-81 161v19q0 95 64.5 154.5t159.5 59.5q55 0 103 -23.5t73.5 -59t33 -77t-18.5 -77.5l-311 123l-5 -9l315 -155q85 45 85 134q0 96 -65.5 155t-171.5 59 q-101 0 -170.5 -52.5t-95.5 -146.5q-23 199 -166 199q-87 0 -155.5 -46.5t-147.5 -148.5z" />
<glyph unicode="&#xe7;" horiz-adv-x="625" d="M325 -15q-22 0 -43 3l-34 -79q64 51 125 41q34 -5 56.5 -33.5t22.5 -67.5q0 -35 -31 -70t-79 -54l-6 15q60 27 65 69q4 25 -12.5 46.5t-39.5 29.5q-38 13 -74 5t-85 -40l-4 2l84 137q-107 18 -168.5 99.5t-61.5 201.5q0 141 73 223t204 82q110 0 173 -60t63 -147 q0 -84 -59 -123l-8 9q16 24 17.5 56.5t-12 66t-39 61.5t-68.5 46t-95 18q-101 0 -167 -62t-66 -166q0 -50 19 -90t48 -64.5t66.5 -41t71.5 -22.5t66 -6q99 0 173.5 45t105.5 146l9 -2q-23 -140 -101.5 -207t-188.5 -67z" />
<glyph unicode="&#xe8;" horiz-adv-x="645" d="M192 819h2q37 -74 116 -114.5t170 -9.5l3 -9q-72 -30 -137.5 -24.5t-114.5 30.5t-77 62zM161 411l311 -123q26 36 18.5 77.5t-33 77t-73.5 59t-103 23.5q-97 0 -160.5 -63.5t-63.5 -165.5q0 -96 79 -163.5t193 -67.5q106 0 178.5 54t101.5 155l11 -2 q-22 -139 -99.5 -215.5t-193.5 -76.5q-126 0 -206.5 87.5t-80.5 224.5q0 139 75.5 221t203.5 82q106 0 171.5 -59t65.5 -155q0 -89 -85 -134l-315 155z" />
<glyph unicode="&#xe9;" horiz-adv-x="645" d="M445 819l38 -65q-28 -37 -77 -62t-114.5 -30.5t-137.5 24.5l3 9q91 -31 170 9.5t116 114.5h2zM161 411l311 -123q26 36 18.5 77.5t-33 77t-73.5 59t-103 23.5q-97 0 -160.5 -63.5t-63.5 -165.5q0 -96 79 -163.5t193 -67.5q106 0 178.5 54t101.5 155l11 -2 q-22 -139 -99.5 -215.5t-193.5 -76.5q-126 0 -206.5 87.5t-80.5 224.5q0 139 75.5 221t203.5 82q106 0 171.5 -59t65.5 -155q0 -89 -85 -134l-315 155z" />
<glyph unicode="&#xea;" horiz-adv-x="645" d="M114 636q84 33 132 82t71 121h4q23 -72 71 -121t132 -82l-4 -9q-9 3 -53.5 19.5t-61.5 23.5t-44 22.5t-42 31.5q-15 -16 -42 -31.5t-44 -22.5t-61.5 -23.5t-53.5 -19.5zM161 411l311 -123q26 36 18.5 77.5t-33 77t-73.5 59t-103 23.5q-97 0 -160.5 -63.5t-63.5 -165.5 q0 -96 79 -163.5t193 -67.5q106 0 178.5 54t101.5 155l11 -2q-22 -139 -99.5 -215.5t-193.5 -76.5q-126 0 -206.5 87.5t-80.5 224.5q0 139 75.5 221t203.5 82q106 0 171.5 -59t65.5 -155q0 -89 -85 -134l-315 155z" />
<glyph unicode="&#xeb;" horiz-adv-x="645" d="M229 801q22 0 37.5 -14.5t15.5 -35.5t-15.5 -35.5t-37.5 -14.5t-37.5 14.5t-15.5 35.5t15.5 35.5t37.5 14.5zM409 801q22 0 37.5 -14.5t15.5 -35.5t-15.5 -35.5t-37.5 -14.5t-37.5 14.5t-15.5 35.5t15.5 35.5t37.5 14.5zM161 411l311 -123q26 36 18.5 77.5t-33 77 t-73.5 59t-103 23.5q-97 0 -160.5 -63.5t-63.5 -165.5q0 -96 79 -163.5t193 -67.5q106 0 178.5 54t101.5 155l11 -2q-22 -139 -99.5 -215.5t-193.5 -76.5q-126 0 -206.5 87.5t-80.5 224.5q0 139 75.5 221t203.5 82q106 0 171.5 -59t65.5 -155q0 -89 -85 -134l-315 155z" />
<glyph unicode="&#xec;" horiz-adv-x="200" d="M-15 822h2q37 -74 116 -114.5t170 -9.5l3 -9q-72 -30 -137.5 -24.5t-114.5 30.5t-77 62zM150 580h-90l33 -580h13z" />
<glyph unicode="&#xed;" horiz-adv-x="200" d="M238 822l38 -65q-28 -37 -77 -62t-114.5 -30.5t-137.5 24.5l3 9q91 -31 170 9.5t116 114.5h2zM150 580h-90l33 -580h13z" />
<glyph unicode="&#xee;" horiz-adv-x="200" d="M-93 639q84 33 132 82t71 121h4q23 -72 71 -121t132 -82l-4 -9q-9 3 -53.5 19.5t-61.5 23.5t-44 22.5t-42 31.5q-15 -16 -42 -31.5t-44 -22.5t-61.5 -23.5t-53.5 -19.5zM150 580h-90l33 -580h13z" />
<glyph unicode="&#xef;" horiz-adv-x="200" d="M22 804q22 0 37.5 -14.5t15.5 -35.5t-15.5 -35.5t-37.5 -14.5t-37.5 14.5t-15.5 35.5t15.5 35.5t37.5 14.5zM202 804q22 0 37.5 -14.5t15.5 -35.5t-15.5 -35.5t-37.5 -14.5t-37.5 14.5t-15.5 35.5t15.5 35.5t37.5 14.5zM150 580h-90l33 -580h13z" />
<glyph unicode="&#xf0;" horiz-adv-x="691" d="M645 695l-163 -57q41 -52 63 -116t22 -123q0 -414 -285 -414q-106 0 -174 78t-68 195q0 66 25.5 115t66.5 74t82.5 36.5t83.5 11.5q95 0 155.5 -58.5t86.5 -145.5q8 45 8 90q0 154 -121 238l-263 -92l-10 31l250 75q-103 58 -241 42l25 85q174 17 282 -107l171 51z M290 80q100 0 171.5 42t71.5 125q0 74 -72 118.5t-168 44.5q-56 0 -107.5 -15t-90.5 -52t-39 -88q0 -75 66.5 -125t167.5 -50z" />
<glyph unicode="&#xf1;" horiz-adv-x="570" d="M19 725q106 74 195 82q32 3 55.5 -6.5t35 -22t35 -23.5t56.5 -10q53 3 105 43l4 -8q-101 -73 -195 -82q-32 -3 -55.5 7t-35 23t-35 23.5t-56.5 8.5q-53 -3 -105 -43zM86 212l44 373l-90 -20q19 -273 8 -565h13q16 147 52 259.5t95.5 180.5t134.5 68t115 -65.5t45 -234.5 l6 -208h14l1 229q2 84 -4.5 145t-25 114t-55.5 80t-93 27q-192 0 -257 -383h-3z" />
<glyph unicode="&#xf2;" horiz-adv-x="621" d="M184 822h2q37 -74 116 -114.5t170 -9.5l3 -9q-72 -30 -137.5 -24.5t-114.5 30.5t-77 62zM40 286q0 146 71 227.5t199 81.5t199.5 -81.5t71.5 -227.5q0 -134 -75 -217.5t-196 -83.5q-120 0 -195 83.5t-75 217.5zM565 284q0 104 -70 167t-185 63t-184.5 -63t-69.5 -167 q0 -92 72.5 -154t181.5 -62t182 62t73 154z" />
<glyph unicode="&#xf3;" horiz-adv-x="621" d="M437 822l38 -65q-28 -37 -77 -62t-114.5 -30.5t-137.5 24.5l3 9q91 -31 170 9.5t116 114.5h2zM40 286q0 146 71 227.5t199 81.5t199.5 -81.5t71.5 -227.5q0 -134 -75 -217.5t-196 -83.5q-120 0 -195 83.5t-75 217.5zM565 284q0 104 -70 167t-185 63t-184.5 -63 t-69.5 -167q0 -92 72.5 -154t181.5 -62t182 62t73 154z" />
<glyph unicode="&#xf4;" horiz-adv-x="621" d="M106 639q84 33 132 82t71 121h4q23 -72 71 -121t132 -82l-4 -9q-9 3 -53.5 19.5t-61.5 23.5t-44 22.5t-42 31.5q-15 -16 -42 -31.5t-44 -22.5t-61.5 -23.5t-53.5 -19.5zM40 286q0 146 71 227.5t199 81.5t199.5 -81.5t71.5 -227.5q0 -134 -75 -217.5t-196 -83.5 q-120 0 -195 83.5t-75 217.5zM565 284q0 104 -70 167t-185 63t-184.5 -63t-69.5 -167q0 -92 72.5 -154t181.5 -62t182 62t73 154z" />
<glyph unicode="&#xf5;" horiz-adv-x="621" d="M62 725q106 74 195 82q32 3 55.5 -6.5t35 -22t35 -23.5t56.5 -10q53 3 105 43l4 -8q-101 -73 -195 -82q-32 -3 -55.5 7t-35 23t-35 23.5t-56.5 8.5q-53 -3 -105 -43zM40 286q0 146 71 227.5t199 81.5t199.5 -81.5t71.5 -227.5q0 -134 -75 -217.5t-196 -83.5 q-120 0 -195 83.5t-75 217.5zM565 284q0 104 -70 167t-185 63t-184.5 -63t-69.5 -167q0 -92 72.5 -154t181.5 -62t182 62t73 154z" />
<glyph unicode="&#xf6;" horiz-adv-x="621" d="M221 804q22 0 37.5 -14.5t15.5 -35.5t-15.5 -35.5t-37.5 -14.5t-37.5 14.5t-15.5 35.5t15.5 35.5t37.5 14.5zM401 804q22 0 37.5 -14.5t15.5 -35.5t-15.5 -35.5t-37.5 -14.5t-37.5 14.5t-15.5 35.5t15.5 35.5t37.5 14.5zM40 286q0 146 71 227.5t199 81.5t199.5 -81.5 t71.5 -227.5q0 -134 -75 -217.5t-196 -83.5q-120 0 -195 83.5t-75 217.5zM565 284q0 104 -70 167t-185 63t-184.5 -63t-69.5 -167q0 -92 72.5 -154t181.5 -62t182 62t73 154z" />
<glyph unicode="&#xf7;" horiz-adv-x="532" d="M267 579q24 0 40.5 -16.5t16.5 -40.5t-16.5 -40.5t-40.5 -16.5t-40.5 16.5t-16.5 40.5t16.5 40.5t40.5 16.5zM-44 343q156 74 258 74q64 0 120 -21t122 -21q62 0 140 35l4 -8q-152 -74 -258 -74q-64 0 -120 21t-122 21q-62 0 -138 -35zM267 277q24 0 40.5 -16.5 t16.5 -40.5t-16.5 -40.5t-40.5 -16.5t-40.5 16.5t-16.5 40.5t16.5 40.5t40.5 16.5z" />
<glyph unicode="&#xf8;" horiz-adv-x="621" d="M418 577q78 -30 120.5 -105t42.5 -186q0 -134 -75 -217.5t-196 -83.5q-51 0 -93 15l-85 -243l-10 3l80 246q-75 32 -118.5 106t-43.5 174q0 146 71 227.5t199 81.5q46 0 82 -10l53 162l30 -7zM56 284q0 -73 46.5 -128.5t123.5 -76.5l141 430q-30 5 -57 5 q-115 0 -184.5 -63t-69.5 -167zM310 68q109 0 182 62t73 154q0 83 -46 141.5t-126 78.5l-150 -429q29 -7 67 -7z" />
<glyph unicode="&#xf9;" horiz-adv-x="570" d="M229 802h2q37 -74 116 -114.5t170 -9.5l3 -9q-72 -30 -137.5 -24.5t-114.5 30.5t-77 62zM484 368l-44 -373l90 20q-19 273 -8 565h-13q-15 -148 -50 -260.5t-92.5 -180t-129.5 -67.5q-121 0 -153 123t9 385h-14q-36 -209 -32.5 -341t49 -193t138.5 -61q184 0 247 383h3z " />
<glyph unicode="&#xfa;" horiz-adv-x="570" d="M360 802l38 -65q-28 -37 -77 -62t-114.5 -30.5t-137.5 24.5l3 9q91 -31 170 9.5t116 114.5h2zM484 368l-44 -373l90 20q-19 273 -8 565h-13q-15 -148 -50 -260.5t-92.5 -180t-129.5 -67.5q-121 0 -153 123t9 385h-14q-36 -209 -32.5 -341t49 -193t138.5 -61 q184 0 247 383h3z" />
<glyph unicode="&#xfb;" horiz-adv-x="570" d="M116 629q84 33 132 82t71 121h4q23 -72 71 -121t132 -82l-4 -9q-9 3 -53.5 19.5t-61.5 23.5t-44 22.5t-42 31.5q-15 -16 -42 -31.5t-44 -22.5t-61.5 -23.5t-53.5 -19.5zM484 368l-44 -373l90 20q-19 273 -8 565h-13q-15 -148 -50 -260.5t-92.5 -180t-129.5 -67.5 q-121 0 -153 123t9 385h-14q-36 -209 -32.5 -341t49 -193t138.5 -61q184 0 247 383h3z" />
<glyph unicode="&#xfc;" horiz-adv-x="570" d="M210 804q22 0 37.5 -14.5t15.5 -35.5t-15.5 -35.5t-37.5 -14.5t-37.5 14.5t-15.5 35.5t15.5 35.5t37.5 14.5zM390 804q22 0 37.5 -14.5t15.5 -35.5t-15.5 -35.5t-37.5 -14.5t-37.5 14.5t-15.5 35.5t15.5 35.5t37.5 14.5zM484 368l-44 -373l90 20q-19 273 -8 565h-13 q-15 -148 -50 -260.5t-92.5 -180t-129.5 -67.5q-121 0 -153 123t9 385h-14q-36 -209 -32.5 -341t49 -193t138.5 -61q184 0 247 383h3z" />
<glyph unicode="&#xfd;" horiz-adv-x="563" d="M446 757q-28 -37 -77 -62t-114.5 -30.5t-137.5 24.5l3 9q91 -31 170 9.5t116 114.5h2zM149 559q112 21 191.5 27t133 -1t77 -32t23.5 -63t-28.5 -97t-77 -131t-123.5 -167q-1 -1 -14.5 -20.5t-31.5 -44t-46 -60.5t-56.5 -71t-65 -74t-71.5 -71l-115 94q215 70 353 223 l-303 485l6 3l357 -415q89 115 118 199t-0.5 133.5t-111 68t-214.5 6.5z" />
<glyph unicode="&#xfe;" horiz-adv-x="628" d="M101 335l29 495h-90l11 -1080h13l25 469q26 -114 94.5 -183t168.5 -69q98 0 167 79.5t69 220.5q0 165 -61 246.5t-166 81.5q-100 0 -167 -68.5t-90 -191.5h-3zM97 255q66 253 258 253q93 0 153.5 -55.5t60.5 -171.5q0 -121 -60.5 -173.5t-159.5 -52.5q-85 0 -153 47.5 t-99 152.5z" />
<glyph unicode="&#xff;" horiz-adv-x="563" d="M192 704q-22 0 -37.5 14.5t-15.5 35.5t15.5 35.5t37.5 14.5t37.5 -14.5t15.5 -35.5t-15.5 -35.5t-37.5 -14.5zM372 704q-22 0 -37.5 14.5t-15.5 35.5t15.5 35.5t37.5 14.5t37.5 -14.5t15.5 -35.5t-15.5 -35.5t-37.5 -14.5zM149 559q112 21 191.5 27t133 -1t77 -32 t23.5 -63t-28.5 -97t-77 -131t-123.5 -167q-1 -1 -14.5 -20.5t-31.5 -44t-46 -60.5t-56.5 -71t-65 -74t-71.5 -71l-115 94q215 70 353 223l-303 485l6 3l357 -415q89 115 118 199t-0.5 133.5t-111 68t-214.5 6.5z" />
<glyph unicode="&#x152;" horiz-adv-x="1152" d="M35 374q0 174 89.5 280t234.5 106q121 0 205 -76q69 77 189 77q63 0 115.5 -24t86.5 -64t55.5 -80.5t34.5 -84.5l-6 -3q-38 75 -111.5 118t-172.5 43q-90 0 -149 -28q69 -96 75 -238q24 -11 128 -51l138 -52v-8q-139 39 -268 22q-13 -121 -75 -204q69 -27 163 -27 q111 0 197 59.5t138 171.5l6 -4q-14 -54 -43.5 -107.5t-72.5 -103t-105.5 -80.5t-131.5 -31q-116 0 -194 75q-83 -75 -202 -75q-144 0 -234 107.5t-90 281.5zM54 373q0 -73 26 -131t69.5 -92.5t97 -52t112.5 -17.5q47 0 90.5 11t82.5 34t68 57t46 83t17 108q0 143 -89 217.5 t-215 74.5t-215.5 -74.5t-89.5 -217.5z" />
<glyph unicode="&#x153;" horiz-adv-x="1130" d="M40 286q0 141 70 223.5t200 82.5q89 0 151 -40.5t93 -114.5q32 73 95.5 114.5t152.5 41.5q114 0 175 -63t61 -152q0 -88 -85 -134l-313 154l5 10l309 -123q15 23 17 53.5t-10 62t-34.5 58.5t-61 44t-84.5 17q-106 0 -173 -61t-67 -165q0 -52 19 -94t48 -67.5t66.5 -42.5 t71.5 -23.5t66 -6.5q219 0 278 201l10 -2q-23 -145 -101.5 -214.5t-188.5 -69.5q-89 0 -155.5 43.5t-99.5 119.5q-31 -76 -94.5 -118.5t-150.5 -42.5q-125 0 -197.5 84.5t-72.5 224.5zM56 284q0 -59 23.5 -104t61.5 -70t81 -37.5t88 -12.5q70 0 134.5 29.5t95.5 88.5 q-15 51 -15 112q0 55 14 105q-33 58 -96 86t-133 28q-46 0 -88.5 -12t-81 -37t-61.5 -70.5t-23 -105.5zM531 296l1 -2l1 12z" />
<glyph unicode="&#x178;" horiz-adv-x="632" d="M227 869q-22 0 -37.5 14.5t-15.5 35.5t15.5 35.5t37.5 14.5t37.5 -14.5t15.5 -35.5t-15.5 -35.5t-37.5 -14.5zM407 869q-22 0 -37.5 14.5t-15.5 35.5t15.5 35.5t37.5 14.5t37.5 -14.5t15.5 -35.5t-15.5 -35.5t-37.5 -14.5zM173 752q105 12 182 15.5t131.5 -3.5t86 -21.5 t41 -42t2 -62t-36.5 -85.5t-70.5 -107t-102.5 -131q-12 -14 -46 -54.5t-60.5 -69t-66.5 -66.5t-87 -70t-99 -55l-104 98q222 39 409 196l-336 450l9 6l389 -397q169 191 105.5 295t-346.5 96v8z" />
<glyph unicode="&#x2c6;" d="M129 629q84 33 132 82t71 121h4q23 -72 71 -121t132 -82l-4 -9q-9 3 -53.5 19.5t-61.5 23.5t-44 22.5t-42 31.5q-15 -16 -42 -31.5t-44 -22.5t-61.5 -23.5t-53.5 -19.5z" />
<glyph unicode="&#x2dc;" d="M57 725q106 74 195 82q32 3 55.5 -6.5t35 -22t35 -23.5t56.5 -10q53 3 105 43l4 -8q-101 -73 -195 -82q-32 -3 -55.5 7t-35 23t-35 23.5t-56.5 8.5q-53 -3 -105 -43z" />
<glyph unicode="&#x2000;" horiz-adv-x="521" />
<glyph unicode="&#x2001;" horiz-adv-x="1042" />
<glyph unicode="&#x2002;" horiz-adv-x="521" />
<glyph unicode="&#x2003;" horiz-adv-x="1042" />
<glyph unicode="&#x2004;" horiz-adv-x="347" />
<glyph unicode="&#x2005;" horiz-adv-x="260" />
<glyph unicode="&#x2006;" horiz-adv-x="173" />
<glyph unicode="&#x2007;" horiz-adv-x="173" />
<glyph unicode="&#x2008;" horiz-adv-x="130" />
<glyph unicode="&#x2009;" horiz-adv-x="208" />
<glyph unicode="&#x200a;" horiz-adv-x="57" />
<glyph unicode="&#x2010;" horiz-adv-x="505" d="M455 321q-136 1 -242 -11t-124 -13q-46 -1 -46 30q0 33 46 30q1 0 114.5 -12.5t251.5 -11.5v-12z" />
<glyph unicode="&#x2011;" horiz-adv-x="505" d="M455 321q-136 1 -242 -11t-124 -13q-46 -1 -46 30q0 33 46 30q1 0 114.5 -12.5t251.5 -11.5v-12z" />
<glyph unicode="&#x2012;" horiz-adv-x="505" d="M455 321q-136 1 -242 -11t-124 -13q-46 -1 -46 30q0 33 46 30q1 0 114.5 -12.5t251.5 -11.5v-12z" />
<glyph unicode="&#x2013;" horiz-adv-x="568" d="M534 321q-81 1 -140.5 0t-107 -4t-69.5 -5t-67.5 -7.5t-61.5 -7.5q-20 -2 -33 6.5t-13 23.5t12.5 23.5t33.5 6.5q16 -2 61.5 -7.5t67.5 -7.5t69.5 -5t107 -4t140.5 0v-12z" />
<glyph unicode="&#x2014;" horiz-adv-x="882" d="M822 321q-80 1 -193.5 -2t-193.5 -6.5t-199.5 -9t-147.5 -6.5q-22 -1 -34 7.5t-12 22.5q0 33 46 30q405 -27 734 -24v-12z" />
<glyph unicode="&#x2018;" horiz-adv-x="209" d="M29 532l10 -9q83 84 115 137.5t32 128.5q0 56 -49 56q-21 0 -33.5 -13t-12.5 -32q0 -18 20.5 -42t20.5 -50q0 -40 -18 -72.5t-85 -103.5z" />
<glyph unicode="&#x2019;" horiz-adv-x="209" d="M183 532q-67 71 -85 103.5t-18 72.5q0 26 20.5 50t20.5 42q0 19 -12.5 32t-33.5 13q-49 0 -49 -56q0 -75 32 -128.5t115 -137.5z" />
<glyph unicode="&#x201a;" d="M9 -209l10 -9q83 84 115 137.5t32 128.5q0 56 -49 56q-21 0 -33.5 -13t-12.5 -32q0 -18 20.5 -42t20.5 -50q0 -40 -18 -72.5t-85 -103.5z" />
<glyph unicode="&#x201c;" horiz-adv-x="389" d="M163 909l-10 9q-83 -84 -115 -137.5t-32 -128.5q0 -56 49 -56q21 0 33.5 13t12.5 32q0 18 -20.5 42t-20.5 50q0 40 18 72.5t85 103.5zM333 909l-10 9q-83 -84 -115 -137.5t-32 -128.5q0 -56 49 -56q21 0 33.5 13t12.5 32q0 18 -20.5 42t-20.5 50q0 40 18 72.5t85 103.5z " />
<glyph unicode="&#x201d;" horiz-adv-x="329" d="M-4 909q67 -71 85 -103.5t18 -72.5q0 -26 -20.5 -50t-20.5 -42q0 -19 12.5 -32t33.5 -13q49 0 49 56q0 75 -32 128.5t-115 137.5zM166 909q67 -71 85 -103.5t18 -72.5q0 -26 -20.5 -50t-20.5 -42q0 -19 12.5 -32t33.5 -13q49 0 49 56q0 75 -32 128.5t-115 137.5z" />
<glyph unicode="&#x201e;" d="M117 104q49 0 49 -56q0 -75 -32 -128.5t-115 -137.5l-10 9q67 71 85 103.5t18 72.5q0 26 -20.5 50t-20.5 42q0 19 12.5 32t33.5 13z" />
<glyph unicode="&#x2022;" d="M299 141q-56 0 -95.5 39.5t-39.5 95.5t39.5 95t95.5 39q55 0 94.5 -39t39.5 -95t-39 -95.5t-95 -39.5z" />
<glyph unicode="&#x2026;" d="M106 106q24 0 40.5 -16.5t16.5 -40.5t-16.5 -40.5t-40.5 -16.5t-40.5 16.5t-16.5 40.5t16.5 40.5t40.5 16.5z" />
<glyph unicode="&#x202f;" horiz-adv-x="208" />
<glyph unicode="&#x2039;" horiz-adv-x="384" d="M20 286q101 -195 238 -286l83 41q-77 46 -119 73.5t-97 75t-86 95.5v5q31 48 86 95.5t97 75t119 73.5l-83 41q-137 -91 -238 -286v-3z" />
<glyph unicode="&#x203a;" horiz-adv-x="384" d="M364 286v3q-101 195 -238 286l-83 -41q77 -46 119 -73.5t97 -75t86 -95.5v-5q-31 -48 -86 -95.5t-97 -75t-119 -73.5l83 -41q137 91 238 286z" />
<glyph unicode="&#x205f;" horiz-adv-x="260" />
<glyph unicode="&#x20ac;" horiz-adv-x="886" d="M860 507l11 -3q-10 -118 -36.5 -210t-61.5 -148t-81 -92t-90.5 -50t-94.5 -14q-137 0 -226 87t-107 233l-159 -1v23l157 -4q-3 26 -3 54v20l-154 -1v23l155 -4q10 153 96.5 246.5t230.5 93.5q64 0 115.5 -22.5t82.5 -58t47.5 -77.5t16.5 -85q0 -122 -81 -191l-6 9 q34 46 37.5 103.5t-20 107.5t-81 84.5t-136.5 34.5q-122 0 -200 -68t-89 -178l369 -10v-6l-370 -1v-14q0 -29 5 -61l365 -10v-6l-361 -1q15 -58 51 -103.5t82.5 -71t93.5 -38t91 -12.5q50 0 92 9.5t87 37.5t78.5 73.5t58.5 122.5t35 179z" />
<glyph unicode="&#x2122;" horiz-adv-x="1660" d="M1549 -10l-304 646l-176 -232l183 -373l-70 -46l-327 670l-98 -190q-30 -58 -35.5 -122t15 -123.5t61.5 -107t110.5 -76t155.5 -27.5v-11q-122 -20 -218 -1t-149 71.5t-60 135.5t49 191q-9 88 -32.5 147t-60 89t-76.5 42t-93 12q-51 0 -135.5 -19t-106.5 -21l209 -625 h-141l-83 624q-87 -3 -115 81l-12 40h13l7 -23q17 -50 39.5 -63t55 1t69 36.5t95.5 43t119 20.5q77 0 133.5 -52t85 -131.5t38.5 -183.5l11 18l192 326l165 -339l223 342l334 -728z" />
<glyph unicode="&#x25fc;" horiz-adv-x="595" d="M0 595h595v-595h-595v595z" />
<glyph unicode="&#xfb01;" horiz-adv-x="696" d="M646 480l-44 -480h-13l-32 470l-340 -15l-1 -455h-72l-4 452l-160 -7v35h160v57q0 72 16 127.5t41 89t59.5 55t68 29t70.5 7.5q55 0 97 -22t64.5 -56t33.5 -68t11 -64l-414 -155h459zM158 480h1l410 185q-32 103 -169 103q-111 0 -178.5 -74.5t-63.5 -213.5z" />
<glyph unicode="&#xfb02;" horiz-adv-x="678" d="M-20 445v35h160v57q0 72 16 128t40.5 89t58 54.5t65.5 29t66 7.5q95 0 142 -50l82 35h8l-44 -830h-13l-20 470l-324 -15l-1 -455h-72l-4 452zM158 480l383 1l-11 258q-46 29 -130 29q-108 0 -177 -75t-65 -213z" />
<glyph unicode="&#xfb03;" horiz-adv-x="1016" d="M507 480h459q-32 -231 -35 -480h-13l-45 470l-336 -15l-1 -455h-72l-4 452l-245 -4l-1 -448h-72l-4 447l-158 -2v35h158v57q0 72 16 127.5t41 89t59.5 55t68 29t70.5 7.5q93 0 149 -63q66 63 173 63q55 0 97 -22t64.5 -56t33.5 -68t11 -64zM460 537q0 129 49 204 q-43 27 -111 27q-111 0 -178.5 -74.5t-63.5 -213.5h304v57zM478 480h1l410 185q-32 103 -169 103q-111 0 -178.5 -74.5t-63.5 -213.5z" />
<glyph unicode="&#xfb04;" horiz-adv-x="988" d="M920 830h8l-44 -830h-13l-20 470l-324 -15l-1 -455h-72l-4 452l-235 -4l-1 -448h-72l-4 447l-158 -2v35h158v57q0 72 16 127.5t41 89t59.5 55t68 29t70.5 7.5q89 0 144 -57q64 57 159 57t142 -50zM450 537q0 132 51 209q-43 22 -103 22q-111 0 -178.5 -74.5t-63.5 -213.5 h294v57zM468 480l383 1l-11 258q-46 29 -130 29q-108 0 -177 -75t-65 -213z" />
</font>
</defs>
</svg>
