<?xml version="1.0" encoding="utf-8"?>
<!-- Generator: Adobe Illustrator 21.1.0, SVG Export Plug-In . SVG Version: 6.00 Build 0)  -->
<svg version="1.1" id="Calque_1" xmlns="http://www.w3.org/2000/svg" xmlns:xlink="http://www.w3.org/1999/xlink" x="0px" y="0px"
	 viewBox="0 0 841.9 595.3" style="enable-background:new 0 0 841.9 595.3;" xml:space="preserve">
<path d="M478.9,25.7c0,0,3.1,187.6-26.7,131.9S453.3,23,453.3,23s-53.3,157.9-66.7,133.7c-13.4-24.2-3.1-150-3.1-150
	s-1.1,213.6-11.3,212.7c-10.3-0.9-23.6,0-23.6,0s29.8,12.6,22.6,18.9c-7.2,6.3-20.5,7.2-20.5,7.2s27.7,68.2,19.5,68.2
	c-8.2,0,47.2,31.4,10.3,36.8s70.8,61.9,30.8,61.9s-58.5,1.8-58.5,1.8s36.9,2.7,38,73.6c1.1,70.9,1.1,96.9,1.1,96.9
	s-2.1-183.1,34.9-129.2s24.6,124.8,24.6,124.8s6.2-161.5,19.5-166s7.2,39.5,7.2,39.5s3.1-61.1,12.3-63.7c9.3-2.7-68.8,5.4-40-24.3
	c28.7-29.6,38-42.2,38-42.2s-49.2,37.7-48.3-11.7c1.1-49.4-34.9-88,4.1-106.8s35.9,32.3,35.9,32.3L478.9,25.7z"/>
</svg>
