<?xml version="1.0" encoding="utf-8"?>
<!-- Generator: Adobe Illustrator 23.0.1, SVG Export Plug-In . SVG Version: 6.00 Build 0)  -->
<svg version="1.1" id="Calque_1" xmlns="http://www.w3.org/2000/svg" xmlns:xlink="http://www.w3.org/1999/xlink" x="0px" y="0px"
	 viewBox="0 0 146 146" style="enable-background:new 0 0 146 146;" xml:space="preserve">
<style type="text/css">
	.st0{fill:#FFFFFF;}
	.st1{font-family:'SuisseBPIntl-BoldItalic';}
	.st2{font-size:19.2819px;}
</style>
<g>
	
		<ellipse transform="matrix(0.7071 -0.7071 0.7071 0.7071 -30.9558 72.0442)" class="st0" cx="71.5" cy="73.4" rx="66.4" ry="66.4"/>
	<path d="M71.5,9c35.5,0,64.4,28.9,64.4,64.4s-28.9,64.4-64.4,64.4S7.1,108.9,7.1,73.4S36,9,71.5,9 M71.5,5
		C33.7,5,3.1,35.6,3.1,73.4s30.6,68.4,68.4,68.4s68.4-30.6,68.4-68.4S109.3,5,71.5,5L71.5,5z"/>
</g>
<g>
	<path class="st0" d="M44.5,27.1c-3.4,2.5-12.6,11.8-5.9,26.1C46.2,70,58,92.8,61.3,98.7l16-7.6L44.5,27.1z"/>
	<g>
		<g>
			<path d="M79,129c-1.7-0.8-2.5-0.8-2.5-1.7c-0.8-1.7-0.8-3.4,0-5.9c0.8-3.4,1.7-6.7-0.8-11.8l-5.9-11l-10.1,5.1l-0.8-1.7
				c0,0-14.3-27.8-23.6-47.2c-9.3-20.2,9.3-32,9.3-32l1.7-0.8l49.7,98.6v0.8c0,0-1.7,10.1-13.5,8.4C80.7,129.8,79.9,129,79,129z
				 M44.5,27.1c-3.4,2.5-12.6,11.8-5.9,26.1C46.2,70,58,92.8,61.3,98.7l16-7.6L44.5,27.1z"/>
		</g>
		<g>
			<path d="M69.7,94.5c-5.1-7.6-9.3-16-13.5-23.6c-2.5-4.2-5.1-7.6-6.7-11.8c-1.7-4.2-3.4-8.4-4.2-13.5l0,0c3.4,3.4,5.9,7.6,8.4,11
				c2.5,4.2,4.2,8.4,5.9,12.6C63,77.6,66.4,86,69.7,94.5L69.7,94.5z"/>
		</g>
	</g>
</g>
<text transform="matrix(0.3309 0.6561 -0.8929 0.4504 49.6908 18.6005)" class="st1 st2">TIMELINE 10 SEC.</text>
</svg>
