<?xml version="1.0" encoding="utf-8"?>
<!-- Generator: Adobe Illustrator 23.0.1, SVG Export Plug-In . SVG Version: 6.00 Build 0)  -->
<svg version="1.1" id="Calque_1" xmlns="http://www.w3.org/2000/svg" xmlns:xlink="http://www.w3.org/1999/xlink" x="0px" y="0px"
	 viewBox="0 0 100 103" style="enable-background:new 0 0 100 103;" xml:space="preserve">
<title>languageManifestoKit</title>
<path d="M40.3,17c-4.3,0-7.7,3.4-7.7,7.7s3.4,7.7,7.7,7.7s7.7-3.4,7.7-7.7C48,20.4,44.6,17,40.3,17z"/>
<path d="M28.7,31.2h-0.2c-6.5,0-17.2,15.5-19.2,18.6C9.1,50,9,50.4,9,50.7c-0.1,3.6,2.4,6.8,5.9,7.5v22.1c-0.1,4.1,3.1,7.6,7.3,7.7
	c0.1,0,0.3,0,0.4,0c1.8,0,6.5-1.4,6.5-7.7V51c1.1-3.2,2.7-6.1,4.7-8.8l0,0c1.6-2.1,1.9-4.9,0.8-7.2C33.5,32.7,31.2,31.2,28.7,31.2z"
	/>
<path d="M69.4,24.7c0-4.3-3.4-7.7-7.7-7.7c-4.3,0-7.7,3.4-7.7,7.7c0,4.2,3.4,7.7,7.7,7.7C65.9,32.4,69.4,28.9,69.4,24.7
	C69.4,24.7,69.4,24.7,69.4,24.7z"/>
<path d="M92.8,49.7c-2.1-3.1-12.7-18.6-19.3-18.6h-0.2c-2.5,0-4.8,1.5-5.9,3.8c-1.1,2.3-0.8,5.1,0.8,7.2c2.1,2.6,3.7,5.6,4.7,8.8
	v29.4c0,6.3,4.7,7.7,6.5,7.7c4.1,0.1,7.6-3.1,7.7-7.3c0-0.1,0-0.3,0-0.4V58.2c3.5-0.8,6-3.9,5.9-7.5C93,50.4,92.9,50,92.8,49.7z"/>
</svg>
