<?xml version="1.0" encoding="utf-8"?>
<!-- Generator: Adobe Illustrator 23.0.0, SVG Export Plug-In . SVG Version: 6.00 Build 0)  -->
<svg version="1.1" id="Calque_1" xmlns="http://www.w3.org/2000/svg" xmlns:xlink="http://www.w3.org/1999/xlink" x="0px" y="0px"
	 viewBox="0 0 2000 2000" style="enable-background:new 0 0 2000 2000;" xml:space="preserve">
<style type="text/css">
	.st0{fill:#FFFFFF;}
	.st1{fill:none;stroke:#FFFFFF;stroke-width:20;stroke-miterlimit:10;}
</style>
<g>
	<path class="st0" d="M1000,20c66.51,0,132.96,6.7,197.53,19.91c62.91,12.87,124.79,32.08,183.93,57.09
		c58.06,24.56,114.07,54.96,166.46,90.35c51.9,35.06,100.7,75.33,145.05,119.68c44.35,44.35,84.62,93.15,119.68,145.05
		c35.39,52.39,65.79,108.39,90.35,166.46c25.01,59.13,44.22,121.02,57.09,183.93C1973.3,867.04,1980,933.5,1980,1000
		c0,66.51-6.7,132.96-19.91,197.53c-12.87,62.91-32.08,124.79-57.09,183.93c-24.56,58.06-54.96,114.07-90.35,166.46
		c-35.06,51.9-75.33,100.7-119.68,145.05c-44.35,44.35-93.15,84.62-145.05,119.68c-52.39,35.39-108.39,65.79-166.46,90.35
		c-59.13,25.01-121.02,44.22-183.93,57.09C1132.96,1973.3,1066.51,1980,1000,1980c-66.5,0-132.96-6.7-197.53-19.91
		c-62.91-12.87-124.8-32.08-183.93-57.09c-58.06-24.56-114.07-54.96-166.46-90.35c-51.9-35.06-100.7-75.33-145.05-119.68
		c-44.35-44.35-84.62-93.15-119.68-145.05c-35.39-52.39-65.79-108.39-90.35-166.46c-25.01-59.13-44.22-121.02-57.09-183.93
		C26.7,1132.96,20,1066.51,20,1000c0-66.5,6.7-132.96,19.91-197.53c12.87-62.91,32.08-124.8,57.09-183.93
		c24.56-58.06,54.96-114.07,90.35-166.46c35.06-51.9,75.33-100.7,119.68-145.05s93.15-84.62,145.05-119.68
		c52.39-35.39,108.39-65.79,166.46-90.35c59.13-25.01,121.02-44.22,183.93-57.09C867.04,26.7,933.5,20,1000,20 M1000,0
		C447.72,0,0,447.72,0,1000s447.72,1000,1000,1000s1000-447.72,1000-1000S1552.29,0,1000,0L1000,0z"/>
</g>
<g>
	<path class="st0" d="M1000,120c59.72,0,119.4,6.02,177.37,17.88c56.49,11.56,112.06,28.81,165.16,51.27
		c52.14,22.05,102.43,49.35,149.47,81.13c46.6,31.48,90.42,67.64,130.25,107.47c39.83,39.83,75.98,83.65,107.47,130.25
		c31.78,47.04,59.08,97.33,81.13,149.47c22.46,53.1,39.71,108.67,51.27,165.16C1873.99,880.6,1880,940.28,1880,1000
		s-6.02,119.4-17.88,177.37c-11.56,56.49-28.81,112.06-51.27,165.16c-22.05,52.14-49.35,102.43-81.13,149.47
		c-31.48,46.6-67.64,90.42-107.47,130.25c-39.83,39.83-83.65,75.98-130.25,107.47c-47.04,31.78-97.33,59.08-149.47,81.13
		c-53.1,22.46-108.67,39.71-165.16,51.27C1119.4,1873.99,1059.72,1880,1000,1880s-119.4-6.02-177.37-17.88
		c-56.49-11.56-112.06-28.81-165.16-51.27c-52.14-22.05-102.43-49.35-149.47-81.13c-46.6-31.48-90.42-67.64-130.25-107.47
		c-39.83-39.83-75.98-83.65-107.47-130.25c-31.78-47.04-59.08-97.33-81.13-149.47c-22.46-53.1-39.71-108.67-51.27-165.16
		C126.02,1119.4,120,1059.72,120,1000s6.02-119.4,17.88-177.37c11.56-56.49,28.81-112.06,51.27-165.16
		C211.2,605.33,238.5,555.04,270.28,508c31.48-46.6,67.64-90.42,107.47-130.25c39.83-39.83,83.65-75.98,130.25-107.47
		c47.04-31.78,97.33-59.08,149.47-81.13c53.1-22.46,108.67-39.71,165.16-51.27C880.6,126.02,940.28,120,1000,120 M1000,100
		c-497.06,0-900,402.94-900,900s402.94,900,900,900s900-402.94,900-900S1497.06,100,1000,100L1000,100z"/>
</g>
<g>
	<path class="st0" d="M1000,220c105.31,0,207.46,20.62,303.61,61.29c46.21,19.55,90.79,43.74,132.49,71.91
		c41.31,27.91,80.15,59.96,115.45,95.26c35.3,35.3,67.35,74.14,95.26,115.45c28.17,41.7,52.36,86.27,71.91,132.49
		c40.67,96.15,61.29,198.3,61.29,303.61s-20.62,207.46-61.29,303.61c-19.55,46.21-43.74,90.79-71.91,132.49
		c-27.91,41.31-59.96,80.15-95.26,115.45c-35.3,35.3-74.15,67.35-115.45,95.26c-41.7,28.17-86.27,52.36-132.49,71.91
		c-96.15,40.67-198.3,61.29-303.61,61.29s-207.46-20.62-303.61-61.29c-46.21-19.55-90.79-43.74-132.49-71.91
		c-41.31-27.91-80.15-59.96-115.45-95.26c-35.3-35.3-67.35-74.14-95.26-115.45c-28.17-41.7-52.36-86.27-71.91-132.49
		C240.62,1207.46,220,1105.31,220,1000s20.62-207.46,61.29-303.61c19.55-46.21,43.74-90.79,71.91-132.49
		c27.91-41.31,59.96-80.15,95.26-115.45c35.3-35.3,74.14-67.35,115.45-95.26c41.7-28.17,86.27-52.36,132.49-71.91
		C792.54,240.62,894.69,220,1000,220 M1000,200c-441.83,0-800,358.17-800,800s358.17,800,800,800s800-358.17,800-800
		S1441.83,200,1000,200L1000,200z"/>
</g>
<g>
	<path class="st0" d="M1000,320c91.81,0,180.86,17.98,264.68,53.43c40.29,17.04,79.15,38.13,115.5,62.69
		c36.01,24.33,69.88,52.27,100.65,83.05c30.78,30.78,58.72,64.64,83.05,100.65c24.56,36.35,45.65,75.21,62.69,115.5
		C1662.02,819.14,1680,908.19,1680,1000s-17.98,180.86-53.43,264.68c-17.04,40.29-38.13,79.15-62.69,115.5
		c-24.33,36.01-52.27,69.88-83.05,100.65c-30.78,30.78-64.64,58.72-100.65,83.05c-36.35,24.56-75.21,45.65-115.5,62.69
		c-83.82,35.45-172.87,53.43-264.68,53.43s-180.86-17.98-264.68-53.43c-40.29-17.04-79.15-38.13-115.5-62.69
		c-36.01-24.33-69.88-52.27-100.65-83.05c-30.78-30.78-58.72-64.64-83.05-100.65c-24.56-36.35-45.65-75.21-62.69-115.5
		C337.98,1180.86,320,1091.81,320,1000s17.98-180.86,53.43-264.68c17.04-40.29,38.13-79.15,62.69-115.5
		c24.33-36.01,52.27-69.88,83.05-100.65c30.78-30.78,64.64-58.72,100.65-83.05c36.35-24.56,75.21-45.65,115.5-62.69
		C819.14,337.98,908.19,320,1000,320 M1000,300c-386.6,0-700,313.4-700,700s313.4,700,700,700s700-313.4,700-700
		S1386.6,300,1000,300L1000,300z"/>
</g>
<g>
	<path class="st0" d="M1000,420c78.31,0,154.26,15.33,225.76,45.57c34.36,14.53,67.51,32.52,98.51,53.47
		c30.72,20.75,59.6,44.58,85.85,70.84s50.08,55.14,70.83,85.85c20.95,31.01,38.94,64.15,53.47,98.51
		C1564.67,845.74,1580,921.69,1580,1000s-15.33,154.26-45.57,225.76c-14.53,34.36-32.52,67.51-53.47,98.51
		c-20.75,30.72-44.58,59.6-70.83,85.85s-55.14,50.08-85.85,70.83c-31.01,20.95-64.15,38.94-98.51,53.47
		c-71.49,30.24-147.45,45.57-225.76,45.57s-154.26-15.33-225.76-45.57c-34.36-14.53-67.51-32.52-98.51-53.47
		c-30.72-20.75-59.6-44.58-85.85-70.83s-50.08-55.14-70.84-85.85c-20.95-31.01-38.94-64.15-53.47-98.51
		C435.33,1154.26,420,1078.31,420,1000s15.33-154.26,45.57-225.76c14.53-34.36,32.52-67.51,53.47-98.51
		c20.75-30.72,44.58-59.6,70.84-85.85s55.14-50.08,85.85-70.84c31.01-20.95,64.15-38.94,98.51-53.47
		C845.74,435.33,921.69,420,1000,420 M1000,400c-331.37,0-600,268.63-600,600s268.63,600,600,600s600-268.63,600-600
		S1331.37,400,1000,400L1000,400z"/>
</g>
<g>
	<path class="st0" d="M1000,520c64.81,0,127.67,12.69,186.83,37.71c57.16,24.17,108.49,58.79,152.58,102.88
		c44.09,44.09,78.7,95.42,102.88,152.58C1467.31,872.33,1480,935.19,1480,1000s-12.69,127.67-37.71,186.83
		c-24.17,57.16-58.79,108.49-102.88,152.58c-44.09,44.09-95.42,78.7-152.58,102.88c-59.16,25.02-122.02,37.71-186.83,37.71
		s-127.67-12.69-186.83-37.71c-57.16-24.17-108.49-58.79-152.58-102.88c-44.09-44.09-78.7-95.42-102.88-152.58
		C532.69,1127.67,520,1064.81,520,1000s12.69-127.67,37.71-186.83c24.17-57.16,58.79-108.49,102.88-152.58
		c44.09-44.09,95.42-78.7,152.58-102.88C872.33,532.69,935.19,520,1000,520 M1000,500c-276.14,0-500,223.86-500,500
		s223.86,500,500,500s500-223.86,500-500S1276.14,500,1000,500L1000,500z"/>
</g>
<g>
	<path class="st0" d="M1000,620c51.31,0,101.07,10.04,147.91,29.85c45.25,19.14,85.89,46.54,120.79,81.45
		c34.91,34.91,62.31,75.55,81.45,120.79c19.81,46.84,29.85,96.6,29.85,147.91s-10.04,101.07-29.85,147.91
		c-19.14,45.25-46.54,85.89-81.45,120.79c-34.91,34.91-75.55,62.31-120.79,81.45c-46.84,19.81-96.6,29.85-147.91,29.85
		s-101.07-10.04-147.91-29.85c-45.25-19.14-85.89-46.54-120.79-81.45c-34.91-34.91-62.31-75.55-81.45-120.79
		C630.04,1101.07,620,1051.31,620,1000s10.04-101.07,29.85-147.91c19.14-45.25,46.54-85.89,81.45-120.79
		c34.91-34.91,75.55-62.31,120.79-81.45C898.93,630.04,948.69,620,1000,620 M1000,600c-220.91,0-400,179.09-400,400
		s179.09,400,400,400s400-179.09,400-400S1220.91,600,1000,600L1000,600z"/>
</g>
<line class="st1" x1="1000" y1="9.06" x2="1000" y2="110.63"/>
<line class="st1" x1="1000" y1="409.01" x2="1000" y2="510.58"/>
<line class="st1" x1="1385.76" y1="1000.14" x2="1487.91" y2="1000.14"/>
<line class="st1" x1="309.73" y1="1000.14" x2="411.88" y2="1000.14"/>
<line class="st1" x1="703.52" y1="1000.14" x2="805.66" y2="1000.14"/>
<line class="st1" x1="1791.52" y1="1000.14" x2="1893.66" y2="1000.14"/>
<line class="st1" x1="1000" y1="1782.85" x2="1000" y2="1700"/>
<line class="st1" x1="1000" y1="1393.05" x2="1000" y2="1288.52"/>
<g>
	<path class="st0" d="M1000,720c37.81,0,74.48,7.4,108.98,22c33.34,14.1,63.29,34.29,89.01,60.01
		c25.72,25.72,45.91,55.67,60.01,89.01c14.6,34.51,22,71.17,22,108.98c0,37.81-7.4,74.48-22,108.98
		c-14.1,33.34-34.29,63.29-60.01,89.01c-25.72,25.72-55.67,45.91-89.01,60.01c-34.51,14.6-71.17,22-108.98,22
		c-37.81,0-74.48-7.4-108.98-22c-33.34-14.1-63.29-34.29-89.01-60.01c-25.72-25.72-45.91-55.67-60.01-89.01
		c-14.6-34.51-22-71.17-22-108.98c0-37.81,7.4-74.48,22-108.98c14.1-33.34,34.29-63.29,60.01-89.01
		c25.72-25.72,55.67-45.91,89.01-60.01C925.52,727.4,962.19,720,1000,720 M1000,700c-165.69,0-300,134.31-300,300
		s134.31,300,300,300s300-134.31,300-300S1165.69,700,1000,700L1000,700z"/>
</g>
<g>
	<path class="st0" d="M1000,820c48.08,0,93.28,18.72,127.28,52.72c34,34,52.72,79.2,52.72,127.28c0,48.08-18.72,93.28-52.72,127.28
		c-34,34-79.2,52.72-127.28,52.72c-48.08,0-93.28-18.72-127.28-52.72c-34-34-52.72-79.2-52.72-127.28
		c0-48.08,18.72-93.28,52.72-127.28S951.92,820,1000,820 M1000,800c-110.46,0-200,89.54-200,200s89.54,200,200,200
		s200-89.54,200-200S1110.46,800,1000,800L1000,800z"/>
</g>
</svg>
