<svg id="Calque_1" data-name="Calque 1" xmlns="http://www.w3.org/2000/svg" xmlns:xlink="http://www.w3.org/1999/xlink" viewBox="0 0 595.28 2834.65"><defs><style>.cls-1,.cls-3{fill:none;}.cls-2{clip-path:url(#clip-path);}.cls-3{stroke:#000;stroke-miterlimit:10;}</style><clipPath id="clip-path"><rect class="cls-1" y="-2.52" width="595.28" height="2837.16"/></clipPath></defs><title>4</title><g class="cls-2"><path class="cls-3" d="M597.68-27.16c-4.07,9.22,48.37,164.43,95.29,444.32,17.72,106.5,36.62,222.06,49.1,359.83,12.43,138,15.62,281.91,18.38,448.63,2,113.3,4.27,224-.43,348.74-5.28,142.05-21.12,282.32-36.87,438.56-14.62,145.5-28.61,289.75-53.22,447.75-19.21,123.31-45.25,248.81-74.69,375.24"/><path class="cls-3" d="M591.66-27.19c-4.75,10.76,47.15,166,93.82,444.46C703.25,524.32,722.57,639.09,735,777.11c12.44,138.63,14.72,281.56,17.57,448.69,2,113.87,5,223.6.34,348.74-5.19,142.64-21.92,281.9-37.54,438.54C700.88,2159,688,2302.42,663.68,2460.84c-19,123.65-45.28,249.22-74.87,375.27"/><path class="cls-3" d="M585.65-27.22C580.22-14.93,631.57,140.25,678,417.39,695.81,525,715.55,639,728,777.23c12.44,139.26,13.8,281.22,16.75,448.76,2.12,114.44,5.67,223.22,1.11,348.72-5.1,143.25-22.71,281.49-38.21,438.53-14.39,146.37-26.22,288.92-50.2,447.77-18.71,124-45.3,249.63-75,375.31"/><path class="cls-3" d="M579.63-27.25c-6.11,13.83,44.7,169,90.86,444.75,17.89,108.14,38,221.34,50.45,359.85,12.44,139.89,12.89,280.88,15.92,448.82,2.21,115,6.38,222.85,1.9,348.72-5,143.84-23.51,281.07-38.88,438.51-14.28,146.81-25,288.51-48.7,447.78-18.47,124.31-45.33,250-75.22,375.35"/><path class="cls-3" d="M573.61-27.28c-6.79,15.36,43.48,170.5,89.38,444.9,18,108.68,38.51,221.09,50.91,359.85C726.34,918,725.87,1058,729,1226.35c2.28,115.59,7.07,222.48,2.67,348.71-4.94,144.45-24.31,280.66-39.55,438.49-14.17,147.25-23.85,288.11-47.19,447.81-18.22,124.64-45.36,250.43-75.4,375.38"/><path class="cls-3" d="M567.59-27.31c-7.46,16.9,42.26,172,87.9,445,18,109.23,39,220.86,51.36,359.86,12.45,141.15,11.07,280.19,14.29,448.94,2.36,116.16,7.77,222.11,3.44,348.71-4.85,145-25.1,280.24-40.22,438.47-14.05,147.69-22.66,287.7-45.68,447.82-18,125-45.38,250.84-75.57,375.42"/><path class="cls-3" d="M561.57-27.34C553.43-8.91,602.6,146.2,648,417.84c18.07,109.78,39.45,220.62,51.81,359.87,12.46,141.78,10.16,279.85,13.47,449,2.44,116.74,8.47,221.74,4.21,348.7-4.76,145.65-25.89,279.83-40.89,438.46-13.93,148.12-21.46,287.28-44.17,447.83C614.71,2587,587,2713,556.68,2837.16"/><path class="cls-3" d="M555.55-27.37c-8.82,20,39.81,175.06,85,445.33,18.13,110.32,39.93,220.38,52.27,359.88,12.46,142.41,9.24,279.5,12.64,449.05,2.52,117.32,9.18,221.37,5,348.7C705.73,1721.83,683.71,1855,668.84,2014c-13.81,148.56-20.27,286.87-42.66,447.84-17.48,125.63-45.44,251.65-75.93,375.5"/><path class="cls-3" d="M549.54-27.41C540-5.9,588.12,149.18,633,418.07,651.2,528.94,673.41,638.21,685.73,778c12.46,143,8.33,279.15,11.82,449.11,2.6,117.89,9.88,221,5.76,348.7-4.59,146.84-27.48,279-42.23,438.42-13.7,149-19.08,286.46-41.15,447.85-17.23,126-45.46,252.06-76.1,375.54"/><path class="cls-3" d="M543.52-27.44c-10.18,23,37.36,178.11,82,445.62,18.25,111.42,40.88,219.91,53.17,359.9,12.47,143.67,7.42,278.81,11,449.18,2.68,118.46,10.57,220.61,6.53,348.68-4.5,147.45-28.27,278.58-42.89,438.41-13.59,149.43-17.9,286.05-39.65,447.86-17,126.3-45.49,252.47-76.28,375.58"/><path class="cls-3" d="M537.5-27.47C526.64-2.89,573.64,152.16,618,418.3c18.32,112,41.35,219.66,53.63,359.9,12.47,144.3,6.51,278.47,10.19,449.24,2.76,119,11.27,220.24,7.31,348.68-4.42,148-29.08,278.16-43.57,438.38-13.47,149.88-16.7,285.65-38.14,447.88C590.7,2589,561.91,2715.26,531,2838"/><path class="cls-3" d="M531.48-27.5c-11.54,26.11,34.92,181.15,79,445.91,18.37,112.51,41.82,219.42,54.08,359.91,12.47,144.93,5.6,278.13,9.36,449.3,2.84,119.61,12,219.87,8.09,348.67-4.33,148.65-29.87,277.75-44.24,438.37-13.36,150.31-15.51,285.23-36.63,447.9-16.49,127-45.54,253.27-76.63,375.65"/><path class="cls-3" d="M525.46-27.53C513.25.12,559.15,155.14,603,418.53c18.43,113.05,42.3,219.18,54.54,359.91C670,924,662.24,1056.22,666.1,1227.8,669,1348,678.78,1447.3,675,1576.47c-4.24,149.24-30.66,277.33-44.91,438.35-13.24,150.75-14.32,284.82-35.12,447.91-16.24,127.29-45.57,253.68-76.8,375.69"/><path class="cls-3" d="M519.45-27.56c-12.9,29.18,32.46,184.19,76.08,446.2,18.49,113.6,42.77,218.94,55,359.92C663,924.75,654.29,1056,658.24,1228c3,120.76,13.38,219.13,9.63,348.66-4.15,149.85-31.46,276.92-45.58,438.34-13.12,151.19-13.12,284.41-33.61,447.92-16,127.62-45.6,254.09-77,375.73"/><path class="cls-3" d="M513.43-27.59C499.85,3.13,544.67,158.11,588,418.75c18.55,114.16,43.24,218.71,55.44,359.93,12.49,146.82,2.86,277.1,6.91,449.48,3.08,121.33,14.08,218.76,10.4,348.66-4.07,150.44-32.25,276.51-46.25,438.32-13,151.62-11.93,284-32.1,447.93-15.74,127.95-45.62,254.49-77.16,375.77"/><path class="cls-3" d="M507.41-27.62c-14.26,32.25,30,187.22,73.12,446.49,18.61,114.7,43.72,218.46,55.9,359.93,12.49,147.45,2,276.75,6.08,449.55,3.16,121.9,14.78,218.37,11.18,348.64-4,151-33,276.1-46.91,438.31-12.9,152.06-10.75,283.58-30.6,447.94-15.5,128.29-45.65,254.9-77.33,375.81"/><path class="cls-3" d="M501.39-27.65C486.46,6.14,530.71,161,573,419c18.9,115.21,44.19,218.22,56.35,359.95,12.49,148.08,1,276.4,5.26,449.6,3.24,122.47,15.48,218,12,348.64-3.89,151.64-33.84,275.68-47.58,438.28-12.78,152.5-9.56,283.18-29.09,448-15.25,128.62-45.68,255.31-77.51,375.85"/><path class="cls-3" d="M495.37-27.69c-15.61,35.33,28.12,190.18,70.17,446.78,19,115.76,44.66,218,56.8,360,12.51,148.71.13,276.06,4.45,449.66,3.32,123,16.18,217.63,12.73,348.63-3.81,152.25-34.64,275.27-48.26,438.27-12.66,152.94-8.36,282.77-27.58,448-15,129-45.7,255.72-77.68,375.89"/><path class="cls-3" d="M489.35-27.72C473.06,9.15,516.26,164,558.05,419.21c19,116.29,45.13,217.74,57.25,360,12.51,149.34-.78,275.72,3.63,449.72,3.4,123.62,16.88,217.26,13.5,348.63-3.72,152.84-35.43,274.85-48.93,438.25-12.55,153.38-7.17,282.36-26.07,448-14.75,129.28-45.73,256.11-77.86,375.92"/><path class="cls-3" d="M483.34-27.75c-17,38.4,25.69,193.22,67.21,447.07,19.11,116.84,45.61,217.51,57.71,360,12.51,150-1.7,275.37,2.8,449.78,3.48,124.2,17.59,216.89,14.28,348.62-3.63,153.45-36.22,274.44-49.6,438.24-12.43,153.81-6,282-24.56,448-14.51,129.61-45.76,256.52-78,376"/><path class="cls-3" d="M477.32-27.78C459.67,12.16,501.8,167,543.06,419.44c19.17,117.38,46.08,217.26,58.16,360,12.51,150.6-2.61,275,2,449.84,3.56,124.77,18.29,216.52,15,348.62-3.55,154.05-37,274-50.27,438.22-12.31,154.25-4.79,281.53-23.05,448-14.26,129.94-45.78,256.93-78.21,376"/><path class="cls-3" d="M471.3-27.81C453,13.66,494.58,168.44,535.56,419.55c19.25,117.93,46.55,217,58.61,360,12.52,151.23-3.52,274.69,1.17,449.91,3.64,125.34,19,216.14,15.82,348.6-3.46,154.65-37.81,273.61-50.93,438.21-12.2,154.68-3.6,281.12-21.55,448-14,130.27-45.81,257.33-78.39,376"/><path class="cls-3" d="M465.28-27.84c-19,43,22.07,197.77,62.78,447.5,19.32,118.48,47,216.79,59.07,360,12.52,151.86-4.43,274.35.35,450,3.72,125.91,19.68,215.76,16.59,348.6-3.37,155.25-38.6,273.19-51.6,438.18-12.09,155.13-2.41,280.72-20,448-13.76,130.61-45.84,257.74-78.56,376.08"/><path class="cls-3" d="M459.26-27.87c-19.68,44.54,20.86,199.28,61.31,447.65,19.38,119,47.5,216.54,59.52,360,12.53,152.49-5.34,274-.48,450,3.8,126.49,20.39,215.39,17.37,348.59-3.28,155.85-39.4,272.78-52.27,438.17-12,155.57-1.22,280.31-18.53,448.05-13.52,130.94-45.86,258.15-78.74,376.12"/><path class="cls-3" d="M453.24-27.9c-20.36,46.08,19.65,200.8,59.83,447.79,19.45,119.57,48,216.31,60,360,12.53,153.12-6.26,273.66-1.3,450.09,3.88,127.06,21.09,215,18.15,348.59C586.7,1735,549.7,1850.93,537,2016.72c-11.85,156,0,279.89-17,448.06C506.66,2596.05,474,2723.34,441,2840.94"/><path class="cls-3" d="M447.23-27.93C426.18,19.68,465.66,174.39,505.58,420,525.1,540.12,554,636.07,566,780c12.54,153.75-7.16,273.31-2.11,450.14,4,127.64,21.79,214.65,18.92,348.59-3.11,157-41,271.94-53.62,438.13-11.74,156.44,1.17,279.48-15.51,448.08-13,131.6-45.92,258.95-79.09,376.19"/><path class="cls-3" d="M441.21-28c-21.72,49.16,17.22,203.85,56.87,448.09C517.67,540.77,547,635.94,559,780.14c12.54,154.38-8.08,273-2.94,450.2,4.05,128.21,22.49,214.28,19.7,348.58-3,157.65-41.79,271.53-54.29,438.12-11.62,156.87,2.36,279.07-14,448.09-12.77,131.93-45.94,259.36-79.27,376.23"/><path class="cls-3" d="M435.19-28c-22.4,50.69,16,205.36,55.39,448.23,19.66,121.2,49.4,215.59,61.34,360,12.54,155-9,272.62-3.76,450.26,4.12,128.79,23.19,213.91,20.47,348.58-2.94,158.24-42.58,271.11-55,438.09-11.51,157.32,3.54,278.67-12.5,448.11-12.53,132.26-46,259.77-79.44,376.27"/><path class="cls-3" d="M429.17-28C406.09,24.2,444,178.85,483.09,420.35c19.72,121.74,49.87,215.34,61.79,360,12.55,155.64-9.9,272.28-4.58,450.33,4.2,129.35,23.89,213.52,21.24,348.56-2.85,158.85-43.37,270.7-55.62,438.08-11.39,157.76,4.74,278.26-11,448.12-12.28,132.59-46,260.17-79.62,376.31"/><path class="cls-3" d="M423.15-28.06c-23.75,53.76,13.58,208.4,52.44,448.52,19.79,122.29,50.34,215.11,62.24,360,12.56,156.27-10.81,271.94-5.39,450.39,4.28,129.93,24.59,213.15,22,348.56-2.76,159.45-44.17,270.28-56.29,438.06-11.28,158.19,5.93,277.84-9.48,448.13-12,132.93-46,260.58-79.8,376.35"/><path class="cls-3" d="M417.13-28.09c-24.43,55.3,12.36,209.92,51,448.66C488,543.41,518.91,635.44,530.79,780.62c12.56,156.9-11.72,271.59-6.22,450.45,4.37,130.51,25.3,212.78,22.8,348.55-2.68,160.05-45,269.87-57,438.05-11.16,158.63,7.12,277.43-8,448.14-11.77,133.26-46,261-80,376.39"/><path class="cls-3" d="M411.12-28.12C386,28.71,422.26,183.32,460.6,420.69c19.93,123.38,51.29,214.63,63.15,360.05,12.56,157.53-12.64,271.25-7,450.51,4.44,131.08,26,212.41,23.57,348.55-2.59,160.65-45.76,269.45-57.64,438-11,159.06,8.31,277-6.47,448.15-11.53,133.59-46.07,261.4-80.14,376.43"/><path class="cls-3" d="M405.1-28.15c-25.79,58.37,9.93,213,48,449,20,123.93,51.76,214.39,63.61,360.06,12.56,158.16-13.55,270.91-7.86,450.57,4.52,131.66,26.69,212,24.34,348.54-2.51,161.25-46.56,269-58.31,438-10.93,159.5,9.51,276.61-5,448.17-11.28,133.92-46.09,261.79-80.31,376.46"/><path class="cls-3" d="M399.08-28.18c-26.47,59.9,8.71,214.47,46.53,449.09C465.67,545.39,497.84,635.06,509.66,781c12.57,158.79-14.45,270.56-8.67,450.63,4.6,132.23,27.39,211.67,25.11,348.54-2.42,161.85-47.35,268.63-59,438-10.82,160,10.69,276.21-3.46,448.19-11,134.25-46.12,262.2-80.49,376.5"/><path class="cls-3" d="M393.06-28.22c-27.15,61.45,7.5,216,45.05,449.25,20.13,125,52.71,213.91,64.51,360.08,12.58,159.42-15.37,270.21-9.5,450.69,4.69,132.8,28.1,211.29,25.89,348.52-2.33,162.45-48.14,268.22-59.64,438-10.7,160.38,11.88,275.79-1.95,448.2-10.78,134.58-46.15,262.61-80.67,376.54"/><path class="cls-3" d="M387-28.25c-27.83,63,6.28,217.52,43.58,449.39,20.19,125.57,53.18,213.67,65,360.09,12.58,160-16.28,269.87-10.32,450.75,4.76,133.37,28.8,210.91,26.66,348.52-2.24,163-48.94,267.8-60.31,438-10.59,160.82,13.07,275.38-.44,448.21-10.54,134.91-46.17,263-80.84,376.58"/><path class="cls-3" d="M381-28.28c-28.51,64.52,5.05,219,42.09,449.54,20.26,126.11,53.65,213.43,65.42,360.09,12.58,160.68-17.2,269.53-11.14,450.81,4.84,133.95,29.5,210.54,27.43,348.51-2.15,163.65-49.73,267.39-61,437.95-10.47,161.25,14.27,275,1.07,448.22-10.29,135.25-46.2,263.42-81,376.62"/><path class="cls-3" d="M375-28.31c-29.19,66.05,3.84,220.55,40.61,449.68C436,548,469.75,634.56,481.5,781.47c12.58,161.31-18.11,269.18-12,450.87,4.92,134.52,30.19,210.17,28.21,348.51-2.07,164.25-50.53,267-61.66,437.93-10.35,161.69,15.46,274.56,2.58,448.23-10,135.58-46.23,263.83-81.19,376.66"/><path class="cls-3" d="M369-28.34c-29.87,67.59,2.62,222.07,39.14,449.82,20.39,127.2,54.6,212.95,66.32,360.11,12.59,161.94-19,268.84-12.78,450.93,5,135.1,30.9,209.8,29,348.5-2,164.86-51.32,266.56-62.33,437.92-10.23,162.12,16.65,274.14,4.09,448.24-9.79,135.91-46.25,264.24-81.37,376.7"/><path class="cls-3" d="M363-28.37c-30.54,69.12,1.4,223.59,37.66,450,20.46,127.74,55.08,212.71,66.78,360.11,12.59,162.57-19.93,268.5-13.6,451,5.08,135.67,31.6,209.43,29.76,348.5-1.9,165.45-52.12,266.14-63,437.89-10.13,162.57,17.83,273.74,5.59,448.27-9.55,136.24-46.28,264.63-81.55,376.73"/><path class="cls-3" d="M357-28.4c-31.22,70.66.18,225.11,36.19,450.11C413.66,550,448.68,634.18,460.37,781.83,473,945,439.53,1050,446,1232.88c5.16,136.25,32.3,209.06,30.53,348.49-1.81,166.06-52.91,265.73-63.66,437.88-10,163,19,273.33,7.1,448.28-9.3,136.57-46.31,265-81.72,376.77"/><path class="cls-3" d="M350.93-28.43c-31.9,72.19-1,226.63,34.71,450.25,20.59,128.84,56,212.24,67.69,360.13,12.6,163.83-21.76,267.81-15.24,451.12,5.24,136.81,33,208.68,31.3,348.48-1.72,166.65-53.7,265.31-64.33,437.86-9.89,163.44,20.22,272.92,8.61,448.29-9.05,136.9-46.33,265.45-81.9,376.81"/><path class="cls-3" d="M344.92-28.46c-32.58,73.73-2.26,228.15,33.22,450.4,20.66,129.38,56.5,212,68.14,360.13,12.61,164.46-22.66,267.47-16.06,451.18,5.33,137.39,33.71,208.3,32.08,348.47-1.63,167.26-54.5,264.9-65,437.85-9.78,163.88,21.41,272.51,10.12,448.3-8.8,137.23-46.36,265.85-82.07,376.85"/><path class="cls-3" d="M338.9-28.5c-33.26,75.27-3.48,229.68,31.75,450.55,20.72,129.93,57,211.75,68.59,360.15,12.61,165.08-23.58,267.12-16.88,451.23,5.4,138,34.4,207.93,32.85,348.47-1.54,167.85-55.29,264.48-65.67,437.83C379.88,2184,412.15,2291.82,401.17,2468c-8.56,137.57-46.39,266.26-82.25,376.89"/><path class="cls-3" d="M332.88-28.53c-33.94,76.81-4.7,231.2,30.27,450.7,20.79,130.47,57.44,211.51,69.05,360.15,12.61,165.72-24.49,266.77-17.7,451.29,5.48,138.54,35.1,207.56,33.63,348.47-1.47,168.45-56.09,264.06-66.35,437.81-9.54,164.75,23.8,271.68,13.14,448.32-8.31,137.9-46.41,266.67-82.43,376.93"/><path class="cls-3" d="M326.86-28.56c-34.62,78.34-5.92,232.71,28.8,450.84,20.85,131,57.91,211.27,69.5,360.16,12.62,166.35-25.4,266.43-18.53,451.35C412.2,1372.9,442.44,1441,441,1582.25c-1.38,169-56.89,263.65-67,437.79-9.42,165.2,25,271.28,14.65,448.34-8.06,138.23-46.44,267.08-82.6,377"/><path class="cls-3" d="M320.84-28.59c-35.29,79.88-7.15,234.23,27.32,451,20.92,131.57,58.39,211,69.95,360.17,12.63,167-26.31,266.09-19.34,451.41,5.65,139.69,36.51,206.82,35.18,348.46-1.29,169.65-57.68,263.23-67.68,437.77-9.32,165.63,26.17,270.87,16.15,448.36-7.81,138.56-46.47,267.47-82.78,377"/><path class="cls-3" d="M314.82-28.62c-36,81.41-8.37,235.75,25.84,451.13,21,132.11,58.86,210.79,70.41,360.17,12.63,167.61-27.22,265.75-20.16,451.48,5.72,140.25,37.21,206.44,35.95,348.44-1.2,170.26-58.47,262.82-68.35,437.76-9.2,166.07,27.37,270.45,17.66,448.37-7.57,138.89-46.49,267.88-82.95,377"/><path class="cls-3" d="M308.81-28.65c-36.66,82.95-9.6,237.27,24.36,451.27C354.22,555.28,392.5,633.17,404,782.8c12.63,168.24-28.14,265.4-21,451.54,5.8,140.83,37.91,206.07,36.72,348.44-1.11,170.85-59.27,262.4-69,437.74-9.08,166.5,28.56,270,19.17,448.38-7.32,139.22-46.52,268.29-83.13,377.08"/><path class="cls-3" d="M302.79-28.68C265.46,55.8,292,210.11,325.67,422.73,346.79,555.94,385.48,633.05,397,782.92c12.63,168.87-29.05,265.06-21.81,451.6,5.89,141.4,38.61,205.69,37.5,348.43-1,171.46-60.06,262-69.69,437.73-9,166.94,29.75,269.63,20.68,448.39-7.07,139.55-46.55,268.69-83.31,377.12"/><path class="cls-3" d="M296.77-28.71c-38,86-12,240.31,21.41,451.56C339.36,556.6,378.46,632.92,389.94,783c12.64,169.5-29.95,264.72-22.62,451.66,6,142,39.31,205.32,38.27,348.43-.94,172-60.85,261.58-70.36,437.71-8.85,167.38,30.94,269.22,22.19,448.4-6.82,139.89-46.57,269.1-83.48,377.16"/><path class="cls-3" d="M290.75-28.74C252.06,58.81,277.48,213.09,310.68,423c21.24,134.3,60.75,209.84,72.22,360.2,12.65,170.13-30.87,264.37-23.44,451.72,6,142.55,40,204.95,39.05,348.42-.86,172.66-61.66,261.17-71,437.69-8.73,167.82,32.14,268.82,23.7,448.42-6.58,140.22-46.6,269.51-83.66,377.2"/><path class="cls-3" d="M284.73-28.78c-39.36,89.1-14.49,243.36,18.46,451.86,21.3,134.84,61.22,209.59,72.67,360.21,12.65,170.75-31.78,264-24.26,451.77,6.12,143.13,40.71,204.58,39.82,348.42-.77,173.25-62.45,260.75-71.7,437.67-8.62,168.26,33.32,268.4,25.2,448.43-6.33,140.55-46.63,269.92-83.83,377.24"/><path class="cls-3" d="M278.71-28.81c-40,90.63-15.71,244.88,17,452,21.37,135.38,61.7,209.36,73.13,360.22,12.65,171.39-32.7,263.68-25.09,451.84,6.21,143.7,41.42,204.2,40.6,348.4-.68,173.86-63.24,260.34-72.37,437.66-8.51,168.69,34.51,268,26.71,448.45-6.08,140.88-46.65,270.31-84,377.27"/><path class="cls-3" d="M272.7-28.84C232,63.33,255.75,217.56,288.19,423.3c21.44,135.93,62.18,209.12,73.58,360.23,12.66,172-33.6,263.34-25.9,451.9,6.29,144.27,42.11,203.83,41.37,348.4-.59,174.45-64,259.92-73,437.64-8.39,169.13,35.7,267.58,28.22,448.46-5.83,141.21-46.68,270.72-84.19,377.31"/><path class="cls-3" d="M266.68-28.87c-41.41,93.7-18.17,247.92,14,452.29,21.49,136.47,62.64,208.87,74,360.23,12.66,172.65-34.52,263-26.72,452,6.36,144.85,42.81,203.46,42.14,348.39-.5,175.06-64.83,259.51-73.71,437.63-8.27,169.57,36.9,267.17,29.73,448.47-5.59,141.54-46.71,271.13-84.36,377.35"/><path class="cls-3" d="M260.66-28.9c-42.08,95.24-19.4,249.44,12.54,452.43,21.56,137,63.12,208.64,74.49,360.24,12.67,173.28-35.43,262.65-27.54,452,6.44,145.42,43.51,203.08,42.91,348.39-.42,175.66-65.62,259.09-74.38,437.61-8.16,170,38.09,266.75,31.24,448.48-5.34,141.87-46.73,271.53-84.54,377.39"/><path class="cls-3" d="M254.64-28.93C211.88,67.84,234,222,265.71,423.64,287.33,561.21,329.3,632,340.65,783.89,353.32,957.8,304.31,1046.2,312.28,1236c6.53,146,44.22,202.71,43.69,348.38-.33,176.26-66.41,258.68-75.05,437.59-8,170.45,39.28,266.35,32.75,448.5-5.09,142.21-46.76,271.94-84.71,377.43"/><path class="cls-3" d="M248.62-29c-43.44,98.31-21.85,252.48,9.59,452.72C279.89,561.87,322.28,631.92,333.6,784c12.68,174.54-37.25,262-29.18,452.14,6.6,146.57,44.92,202.34,44.47,348.38-.25,176.86-67.22,258.26-75.72,437.57C265.24,2193,313.64,2288,307.42,2470.61c-4.84,142.54-46.79,272.35-84.89,377.47"/><path class="cls-3" d="M242.61-29c-44.12,99.84-23.08,254,8.1,452.86,21.75,138.66,64.54,207.92,75.85,360.26,12.68,175.17-38.16,261.62-30,452.2,6.68,147.15,45.62,202,45.24,348.37-.16,177.46-68,257.85-76.39,437.56-7.81,171.32,41.66,265.53,35.76,448.52-4.6,142.87-46.81,272.76-85.06,377.51"/><path class="cls-3" d="M236.59-29c-44.8,101.39-24.31,255.53,6.63,453,21.81,139.2,65,207.67,76.3,360.26,12.68,175.8-39.08,261.28-30.82,452.27,6.76,147.71,46.31,201.59,46,348.36-.07,178.06-68.8,257.43-77.06,437.54C250,2194.18,300.5,2287.54,294.92,2471c-4.35,143.2-46.84,273.15-85.24,377.54"/><path class="cls-3" d="M230.57-29.06C185.09,73.86,205,228,235.72,424.1c21.87,139.75,65.49,207.44,76.76,360.28,12.68,176.42-40,260.93-31.65,452.32,6.85,148.29,47,201.22,46.79,348.36,0,178.65-69.6,257-77.73,437.52-7.58,172.19,44,264.7,38.78,448.55-4.1,143.53-46.87,273.56-85.42,377.58"/><path class="cls-3" d="M224.55-29.09c-46.15,104.46-26.76,258.57,3.68,453.3,21.93,140.3,66,207.2,77.2,360.29,12.7,177.06-40.89,260.58-32.46,452.38,6.92,148.86,47.72,200.84,47.56,348.35.1,179.26-70.39,256.6-78.4,437.51-7.46,172.63,45.24,264.29,40.29,448.56-3.85,143.86-46.89,274-85.59,377.62"/><path class="cls-3" d="M218.53-29.12c-46.83,106-28,260.09,2.2,453.45,22,140.84,66.43,207,77.66,360.29,12.7,177.69-41.81,260.24-33.28,452.44,7,149.44,48.42,200.47,48.33,348.35.19,179.85-71.18,256.18-79.07,437.48C227,2196,280.8,2286.78,276.17,2471.47c-3.61,144.19-46.92,274.37-85.77,377.66"/><path class="cls-3" d="M212.51-29.15c-47.51,107.53-29.22,261.61.72,453.59,22.06,141.39,66.91,206.72,78.12,360.3,12.7,178.32-42.72,259.9-34.1,452.5,7.08,150,49.12,200.1,49.1,348.34.28,180.46-72,255.77-79.73,437.47-7.24,173.51,47.61,263.48,43.3,448.59-3.36,144.53-47,274.78-85.94,377.7"/><path class="cls-3" d="M206.5-29.18C158.3,79.88,176,234,205.74,424.55,227.85,566.49,273.12,631,284.31,784.86c12.7,178.95-43.64,259.56-34.93,452.56,7.17,150.59,49.82,199.73,49.89,348.34.36,181.06-72.78,255.35-80.41,437.45-7.12,173.94,48.8,263.06,44.81,448.6-3.11,144.86-47,275.19-86.12,377.74"/><path class="cls-3" d="M200.48-29.21c-48.87,110.6-31.69,264.65-2.24,453.88,22.18,142.48,67.85,206.24,79,360.31,12.71,179.58-44.54,259.21-35.74,452.63,7.24,151.15,50.52,199.35,50.66,348.32.45,181.66-73.57,255-81.08,437.44-7,174.38,50,262.65,46.32,448.61-2.86,145.19-47,275.6-86.3,377.78"/><path class="cls-3" d="M194.46-29.24c-49.55,112.13-32.92,266.17-3.71,454,22.23,143,68.32,206,79.47,360.32,12.71,180.21-45.45,258.87-36.56,452.69,7.32,151.73,51.22,199,51.43,348.32.54,182.26-74.37,254.53-81.75,437.42-6.89,174.82,51.19,262.24,47.83,448.63-2.62,145.52-47,276-86.47,377.81"/><path class="cls-3" d="M188.44-29.27C138.21,84.4,154.3,238.42,183.25,424.89c22.29,143.58,68.8,205.77,79.93,360.33,12.72,180.84-46.37,258.53-37.39,452.75,7.41,152.3,51.93,198.61,52.21,348.31.62,182.86-75.16,254.12-82.42,437.41-6.77,175.25,52.38,261.83,49.34,448.64-2.37,145.85-47,276.4-86.65,377.85"/><path class="cls-3" d="M182.42-29.31C131.52,85.9,147.05,239.91,175.75,425,198.11,569.13,245,630.53,256.14,785.34c12.72,181.47-47.28,258.18-38.21,452.81,7.49,152.88,52.63,198.23,53,348.31.71,183.46-76,253.7-83.09,437.38-6.65,175.7,53.57,261.43,50.85,448.66-2.12,146.18-47.08,276.81-86.82,377.89"/><path class="cls-3" d="M176.4-29.34c-51.58,116.75-36.6,270.74-8.14,454.46C190.67,569.79,238,630.4,249.09,785.47c12.73,182.09-48.19,257.83-39,452.86,7.56,153.45,53.33,197.86,53.75,348.3.8,184.06-76.75,253.29-83.75,437.37-6.55,176.13,54.76,261,52.35,448.67-1.87,146.51-47.11,277.21-87,377.93"/><path class="cls-3" d="M170.39-29.37c-52.27,118.28-37.84,272.26-9.63,454.61,22.47,145.21,70.22,205,81.29,360.35,12.73,182.73-49.1,257.49-39.84,452.92,7.64,154,54,197.49,54.52,348.3.89,184.66-77.54,252.87-84.42,437.35-6.43,176.57,55.95,260.6,53.86,448.68-1.63,146.85-47.13,277.62-87.18,378"/><path class="cls-3" d="M164.37-29.4c-52.95,119.82-39.07,273.78-11.1,454.75C175.8,571.12,224,630.15,235,785.71c12.73,183.36-50,257.15-40.67,453,7.73,154.6,54.73,197.12,55.31,348.29,1,185.26-78.34,252.46-85.1,437.34-6.31,177,57.14,260.19,55.37,448.69-1.38,147.18-47.16,278-87.35,378"/><path class="cls-3" d="M158.35-29.43C104.73,91.92,118,245.87,145.77,425.46,168.36,571.78,216.94,630,228,785.83c12.74,184-50.93,256.8-41.49,453.05,7.81,155.17,55.43,196.74,56.08,348.28,1.06,185.86-79.14,252-85.77,437.32-6.2,177.44,58.34,259.78,56.88,448.7-1.13,147.51-47.19,278.44-87.53,378.05"/><path class="cls-3" d="M152.33-29.46c-54.3,122.89-41.54,276.82-14.06,455C160.92,572.44,209.91,629.9,220.92,786c12.75,184.62-51.83,256.46-42.3,453.11,7.88,155.74,56.13,196.37,56.85,348.27C236.61,1773.8,155.54,1839,149,2024.64,143,2202.52,208.56,2284,207.42,2473.36c-.88,147.84-47.21,278.83-87.7,378.08"/><path class="cls-3" d="M146.31-29.49c-55,124.42-42.77,278.34-15.53,455.18,22.7,147.41,72.11,204.09,83.1,360.38,12.75,185.25-52.75,256.12-43.12,453.17,8,156.32,56.83,196,57.62,348.27,1.23,187.06-80.72,251.21-87.11,437.28-6,178.32,60.72,259,59.9,448.74-.64,148.17-47.24,279.24-87.88,378.12"/><path class="cls-3" d="M140.29-29.52c-55.65,126-44,279.86-17,455.32,22.76,148,72.59,203.85,83.56,360.39,12.75,185.88-53.66,255.77-44,453.23,8.05,156.9,57.53,195.62,58.4,348.26,1.32,187.67-81.52,250.8-87.77,437.27-5.85,178.76,61.9,258.55,61.4,448.75-.39,148.5-47.27,279.65-88.06,378.16"/><path class="cls-3" d="M134.28-29.55C77.94,97.94,89,251.84,115.79,425.92c22.81,148.5,73.05,203.6,84,360.39,12.75,186.51-54.58,255.43-44.77,453.29,8.13,157.47,58.23,195.25,59.17,348.26,1.41,188.26-82.31,250.38-88.44,437.25-5.74,179.2,63.1,258.14,62.91,448.76-.14,148.84-47.29,280.05-88.23,378.2"/><path class="cls-3" d="M128.26-29.59c-57,129-46.47,282.92-20,455.62,22.87,149.05,73.53,203.37,84.46,360.4,12.76,187.14-55.48,255.09-45.58,453.35,8.2,158,58.93,194.88,59.94,348.26,1.5,188.86-83.1,250-89.11,437.23C112.38,2204.9,182.29,2283,182.42,2474c.11,149.17-47.32,280.46-88.41,378.24"/><path class="cls-3" d="M122.24-29.62C64.55,101,74.53,254.82,100.79,426.15c22.93,149.59,74,203.12,84.92,360.4,12.77,187.77-56.39,254.75-46.4,453.42,8.28,158.61,59.63,194.5,60.72,348.24,1.58,189.46-83.9,249.55-89.79,437.22-5.5,180.07,65.48,257.31,65.93,448.78.35,149.5-47.35,280.87-88.58,378.28"/><path class="cls-3" d="M116.22-29.65c-58.37,132.11-48.94,286-22.92,455.91,23,150.14,74.48,202.89,85.37,360.42,12.77,188.4-57.31,254.39-47.23,453.47,8.37,159.19,60.34,194.13,61.5,348.24,1.66,190.06-84.7,249.13-90.46,437.19-5.39,180.51,66.67,256.91,67.44,448.81.6,149.82-47.37,281.27-88.76,378.31"/><path class="cls-3" d="M110.2-29.68C51.15,104,60,257.8,85.8,426.37c23,150.69,75,202.65,85.83,360.43,12.77,189-58.22,254-48,453.53,8.45,159.76,61,193.76,62.27,348.23,1.75,190.66-85.49,248.72-91.13,437.18-5.27,181,67.87,256.5,68.95,448.82.85,150.16-47.4,281.67-88.94,378.35"/><path class="cls-3" d="M104.18-29.71c-59.73,135.18-51.41,289-25.87,456.2,23.09,151.23,75.42,202.4,86.27,360.43,12.78,189.66-59.13,253.71-48.86,453.59,8.52,160.34,61.73,193.39,63,348.23C180.6,1780,92.48,1837,87,2025.9,81.81,2207.29,156,2282,157.42,2474.73c1.1,150.49-47.43,282.08-89.11,378.39"/><path class="cls-3" d="M98.17-29.74C37.76,107,45.52,260.78,70.81,426.6,94,578.38,146.71,628.77,157.54,787c12.78,190.29-60,253.37-49.68,453.65,8.6,160.91,62.43,193,63.81,348.22,1.93,191.87-87.08,247.9-92.46,437.15-5,181.82,70.24,255.68,72,448.84,1.34,150.82-47.45,282.49-89.29,378.43"/><path class="cls-3" d="M92.15-29.77c-61.09,138.25-53.88,292-28.83,456.48C86.52,579,139.69,628.64,150.5,787.16c12.79,190.92-60.95,253-50.51,453.71,8.69,161.49,63.14,192.64,64.59,348.22,2,192.46-87.87,247.48-93.13,437.13-4.93,182.26,71.44,255.26,73.47,448.85,1.59,151.16-47.48,282.9-89.46,378.47"/><path class="cls-3" d="M86.13-29.8C24.36,110,31,263.76,55.82,426.83c23.26,152.88,76.84,201.69,87.64,360.45C156.25,978.83,81.59,1040,92.13,1241.06c8.77,162,63.84,192.26,65.36,348.2,2.11,193.07-88.66,247.07-93.8,437.12-4.81,182.69,72.63,254.85,75,448.86,1.84,151.49-47.51,283.3-89.64,378.51"/><path class="cls-3" d="M80.11-29.83C17.67,111.49,23.76,265.25,48.32,426.94c23.31,153.43,77.32,201.45,88.09,360.46,12.8,192.18-62.77,252.34-52.14,453.84,8.84,162.63,64.54,191.89,66.14,348.2,2.18,193.66-89.47,246.65-94.48,437.09-4.69,183.14,73.82,254.45,76.49,448.88,2.09,151.82-47.53,283.71-89.82,378.55"/><path class="cls-3" d="M74.09-29.87C11,113,16.5,266.75,40.83,427.06c23.36,154,77.79,201.2,88.54,360.46,12.8,192.81-63.69,252-53,453.9,8.93,163.2,65.25,191.52,66.92,348.19,2.27,194.27-90.26,246.24-95.15,437.08-4.58,183.58,75,254,78,448.9,2.33,152.14-47.56,284.11-90,378.58"/><path class="cls-3" d="M68.08-29.9C4.27,114.5,9.25,268.24,33.33,427.17c23.42,154.52,78.26,201,89,360.47,12.8,193.44-64.6,251.65-53.79,454,9,163.78,65.94,191.15,67.69,348.19,2.36,194.86-91,245.82-95.81,437.06-4.47,184,76.2,253.62,79.5,448.91,2.58,152.48-47.59,284.51-90.17,378.62"/><path class="cls-3" d="M62.06-29.93C-2.42,116,2,269.73,25.84,427.28,49.3,582.35,104.57,628,115.29,787.77c12.8,194.07-65.52,251.3-54.61,454,9.09,164.35,66.64,190.77,68.46,348.18,2.45,195.47-91.85,245.41-96.48,437.05-4.35,184.45,77.39,253.21,81,448.92,2.83,152.81-47.61,284.92-90.34,378.65"/><path class="cls-3" d="M56-30C-9.12,117.51-5.26,271.22,18.34,427.4,41.86,583,97.55,627.89,108.24,787.89c12.82,194.7-66.42,251-55.42,454.07,9.16,164.93,67.34,190.4,69.23,348.18,2.54,196.06-92.64,245-97.15,437-4.23,184.88,78.58,252.8,82.52,448.93,3.08,153.14-47.64,285.33-90.52,378.69"/><path class="cls-3" d="M50-30c-65.84,149-62.54,302.7-39.18,457.5C34.41,583.67,90.53,627.76,101.2,788,114,983.34,33.87,1038.62,45,1242.14c9.25,165.5,68.05,190,70,348.17,2.63,196.67-93.43,244.58-97.82,437-4.12,185.32,79.77,252.39,84,448.94C104.49,2629.75,53.5,2762,10.47,2855"/><path class="cls-3" d="M44-30C-22.52,120.52-19.78,274.2,3.35,427.62,27,584.34,83.5,627.63,94.16,788.13c12.82,196-68.25,250.27-57.07,454.2,9.33,166.07,68.75,189.65,70.78,348.16,2.71,197.26-94.23,244.16-98.49,437-4,185.76,81,252,85.54,449,3.57,153.81-47.69,286.14-90.87,378.77"/><path class="cls-3" d="M38-30C-29.21,122-27,275.69-4.15,427.74,19.52,585,76.48,627.51,87.12,788.25,99.94,984.84,18,1038.18,29.23,1242.51c9.41,166.64,69.44,189.28,71.56,348.15,2.79,197.87-95,243.75-99.17,437-3.88,186.2,82.16,251.57,87.05,449,3.82,154.14-47.72,286.55-91,378.81"/><path class="cls-3" d="M32-30.08C-35.91,123.53-34.29,277.19-11.64,427.85c23.71,157.81,81.1,199.53,91.71,360.52C92.9,985.59,10,1038,21.37,1242.69c9.48,167.22,70.14,188.91,72.33,348.15,2.88,198.47-95.82,243.33-99.83,437-3.78,186.64,83.34,251.16,88.55,449,4.07,154.46-47.75,286.95-91.22,378.84"/><path class="cls-3" d="M26-30.12C-42.61,125-41.55,278.68-19.14,428,4.63,586.32,62.44,627.26,73,788.49c12.83,197.85-71,249.24-59.53,454.38,9.57,167.79,70.85,188.54,73.11,348.14,3,199.07-96.62,242.92-100.5,437-3.66,187.07,84.53,250.75,90.06,449,4.31,154.8-47.77,287.35-91.4,378.88"/><path class="cls-3" d="M19.93-30.15C-49.3,126.54-48.8,280.17-26.64,428.08-2.82,587,55.41,627.13,66,788.61,78.83,987.09-5.9,1037.51,5.64,1243.05c9.65,168.37,71.55,188.16,73.88,348.14,3.06,199.67-97.41,242.5-101.17,436.93-3.54,187.51,85.73,250.34,91.57,449,4.56,155.13-47.8,287.76-91.58,378.92"/><path class="cls-3" d="M13.91-30.18C-56,128-56.06,281.66-34.13,428.19-10.27,587.65,48.39,627,59,788.73c12.84,199.11-72.81,248.56-61.17,454.5C7.51,1412.17,70,1431,72.43,1591.37c3.15,200.26-98.2,242.08-101.84,436.91-3.42,187.94,86.92,249.92,93.08,449,4.81,155.46-47.83,288.17-91.75,379"/><path class="cls-3" d="M7.89-30.21C-62.7,129.55-63.32,283.15-41.63,428.31c23.91,160,83,198.57,93.53,360.55,12.85,199.74-73.71,248.2-62,454.56,9.8,169.51,73,187.41,75.42,348.12,3.23,200.87-99,241.67-102.51,436.89-3.31,188.39,88.11,249.52,94.59,449,5.06,155.8-47.85,288.58-91.93,379"/><path class="cls-3" d="M1.87-30.24c-71.26,161.29-72.45,314.88-51,458.66C-25.17,589,34.35,626.75,44.86,789c12.85,200.37-74.63,247.86-62.81,454.62,9.89,170.08,73.65,187,76.2,348.12C61.57,1793.18-41.54,1833-44.93,2028.59c-3.19,188.83,89.31,249.11,96.1,449.05,5.3,156.13-47.88,289-92.1,379"/><path class="cls-3" d="M-4.14-30.27c-71.95,162.83-74,316.45-52.48,458.8,23.69,161.15,83.94,198.1,94.44,360.57,12.85,201-75.54,247.52-63.63,454.68,10,170.66,74.35,186.67,77,348.11C54.57,1794-49.42,1832.74-52.68,2028.75c-3.08,189.26,90.49,248.7,97.6,449.06C50.47,2634.27-3,2767.2-47.36,2856.89"/><path class="cls-3" d="M-10.16-30.3c-72.63,164.36-75.19,318-54,459C-40.37,590.34,20.3,626.5,30.78,789.22,43.64,990.85-45.67,1036.4-33.67,1244c10.05,171.24,75.05,186.3,77.75,348.11C47.57,1794.73-57.3,1832.5-60.44,2028.91c-3,189.7,91.68,248.29,99.11,449.08,5.8,156.78-47.93,289.79-92.46,379.11"/><path class="cls-3" d="M-16.18-30.33c-73.31,165.9-76.41,319.48-55.43,459.09C-47.8,591,13.28,626.38,23.73,789.34c12.87,202.26-77.36,246.83-65.26,454.8C-31.41,1416,34.22,1430.07,37,1592.24c3.58,203.27-102.18,240-105.19,436.83C-71,2219.2,24.67,2276.94,32.42,2478.16c6,157.12-48,290.19-92.63,379.15"/><path class="cls-3" d="M-22.2-30.36c-74,167.43-77.63,321-56.91,459.24,23.87,162.78,85.36,197.37,95.8,360.58C29.56,992.35-61.58,1036-49.4,1244.32c10.21,172.39,76.46,185.55,79.3,348.1C33.57,1796.29-73.07,1832-76,2029.23c-2.73,190.57,94.07,247.46,102.13,449.1,6.29,157.45-48,290.6-92.81,379.19"/><path class="cls-3" d="M-28.22-30.4c-74.66,169-78.85,322.53-58.38,459.39C-62.68,592.32-.77,626.12,9.65,789.58,22.52,993.1-69.54,1035.73-57.26,1244.5c10.29,173,77.15,185.18,80.07,348.09,3.75,204.47-103.76,239.19-106.53,436.79-2.61,191,95.26,247.06,103.64,449.12,6.54,157.78-48,291-93,379.23"/><path class="cls-3" d="M-34.24-30.43C-109.58,140.08-114.32,293.62-94.1,429.1-70.11,593-7.79,626,2.61,789.7c12.87,204.15-80.1,245.8-67.73,455,10.36,173.53,77.85,184.8,80.84,348.08,3.84,205.07-104.56,238.77-107.2,436.77C-94,2221,5,2276.19,13.67,2478.67c6.79,158.12-48,291.42-93.16,379.27"/><path class="cls-3" d="M-40.25-30.46c-76,172.05-81.31,325.57-61.35,459.68,24,164.42,86.79,196.65,97.16,360.6,12.88,204.78-81,245.46-68.55,455C-62.54,1419,5.57,1429.3,8.63,1592.94,12.56,1798.61-96.72,1831.3-99.23,2029.7c-2.39,191.89,97.63,246.24,106.65,449.14,7,158.45-48.07,291.82-93.34,379.31"/><path class="cls-3" d="M-46.27-30.49C-123,143.09-128.8,296.6-109.09,429.33-85,594.3-21.84,625.75-11.48,790c12.89,205.41-81.92,245.11-69.37,455.1,10.53,174.68,79.26,184.06,82.4,348.07,4,206.27-106.15,237.94-108.54,436.74C-109.26,2222.18-8.16,2275.68,1.17,2479c7.28,158.78-48.09,292.23-93.51,379.35"/></g></svg>