<svg id="Calque_1" data-name="Calque 1" xmlns="http://www.w3.org/2000/svg" xmlns:xlink="http://www.w3.org/1999/xlink" viewBox="0 0 595.28 2834.65"><defs><style>.cls-1{fill:none;stroke:blue;stroke-miterlimit:10;}.cls-2{clip-path:url(#clip-path);}</style><clipPath id="clip-path"><rect class="cls-1" y="-2.52" width="595.28" height="2837.16"/></clipPath></defs><title>7</title><g class="cls-2"><path class="cls-1" d="M595.33-9.82s462,1205.62,0,2844.47"/><path class="cls-1" d="M589.84-9.74s458.13,1219.31,0,2844.39"/><path class="cls-1" d="M584.36-9.66s454.25,1233,0,2844.31"/><path class="cls-1" d="M578.88-9.58s450.36,1246.7,0,2844.23"/><path class="cls-1" d="M573.4-9.49s446.48,1260.38,0,2844.14"/><path class="cls-1" d="M567.91-9.41s442.6,1274.07,0,2844.06"/><path class="cls-1" d="M562.43-9.33s438.72,1287.76,0,2844"/><path class="cls-1" d="M557-9.25s434.84,1301.46,0,2843.9"/><path class="cls-1" d="M551.47-9.16s430.95,1315.14,0,2843.81"/><path class="cls-1" d="M546-9.08s427.07,1328.83,0,2843.73"/><path class="cls-1" d="M540.5-9s423.19,1342.52,0,2843.65"/><path class="cls-1" d="M535-8.92s419.31,1356.21,0,2843.57"/><path class="cls-1" d="M529.54-8.83s415.42,1369.89,0,2843.48"/><path class="cls-1" d="M524.06-8.75s411.54,1383.59,0,2843.4"/><path class="cls-1" d="M518.58-8.67s407.65,1397.28,0,2843.32"/><path class="cls-1" d="M513.09-8.59s403.78,1411,0,2843.24"/><path class="cls-1" d="M507.61-8.5s399.89,1424.65,0,2843.15"/><path class="cls-1" d="M502.13-8.42s396,1438.34,0,2843.07"/><path class="cls-1" d="M496.65-8.34s392.12,1452,0,2843"/><path class="cls-1" d="M491.16-8.26s388.25,1465.73,0,2842.91"/><path class="cls-1" d="M485.68-8.17s384.37,1479.41,0,2842.82"/><path class="cls-1" d="M480.2-8.09s380.48,1493.1,0,2842.74"/><path class="cls-1" d="M474.72-8s376.6,1506.79,0,2842.66"/><path class="cls-1" d="M469.24-7.93s372.71,1520.48,0,2842.58"/><path class="cls-1" d="M463.75-7.84s368.84,1534.17,0,2842.49"/><path class="cls-1" d="M458.27-7.76s365,1547.86,0,2842.41"/><path class="cls-1" d="M452.79-7.68s361.07,1561.55,0,2842.33"/><path class="cls-1" d="M447.31-7.6s357.18,1575.24,0,2842.25"/><path class="cls-1" d="M441.83-7.51s353.3,1588.92,0,2842.16"/><path class="cls-1" d="M436.34-7.43s349.42,1602.61,0,2842.08"/><path class="cls-1" d="M430.86-7.35s345.54,1616.31,0,2842"/><path class="cls-1" d="M425.38-7.27s341.65,1630,0,2841.92"/><path class="cls-1" d="M419.9-7.18s337.77,1643.68,0,2841.83"/><path class="cls-1" d="M414.41-7.1s333.9,1657.37,0,2841.75"/><path class="cls-1" d="M408.93-7s330,1671.06,0,2841.67"/><path class="cls-1" d="M403.45-6.94s326.13,1684.76,0,2841.59"/><path class="cls-1" d="M398-6.85s322.24,1698.44,0,2841.5"/><path class="cls-1" d="M392.49-6.77s318.36,1712.13,0,2841.42"/><path class="cls-1" d="M387-6.69s314.48,1725.82,0,2841.34"/><path class="cls-1" d="M381.52-6.6s310.6,1739.5,0,2841.25"/><path class="cls-1" d="M376-6.52s306.71,1753.19,0,2841.17"/><path class="cls-1" d="M370.56-6.44s302.83,1766.89,0,2841.09"/><path class="cls-1" d="M365.08-6.36s298.94,1780.58,0,2841"/><path class="cls-1" d="M359.59-6.27s295.07,1794.26,0,2840.92"/><path class="cls-1" d="M354.11-6.19s291.18,1808,0,2840.84"/><path class="cls-1" d="M348.63-6.11s287.3,1821.64,0,2840.76"/><path class="cls-1" d="M343.15-6s283.42,1835.33,0,2840.68"/><path class="cls-1" d="M337.66-5.94s279.54,1849,0,2840.59"/><path class="cls-1" d="M332.18-5.86s275.66,1862.71,0,2840.51"/><path class="cls-1" d="M326.7-5.78s271.77,1876.4,0,2840.43"/><path class="cls-1" d="M321.22-5.7s267.89,1890.09,0,2840.35"/><path class="cls-1" d="M315.74-5.61s264,1903.77,0,2840.26"/><path class="cls-1" d="M310.25-5.53s260.13,1917.47,0,2840.18"/><path class="cls-1" d="M304.77-5.45s256.24,1931.16,0,2840.1"/><path class="cls-1" d="M299.29-5.37s252.36,1944.85,0,2840"/><path class="cls-1" d="M293.81-5.28s248.47,1958.53,0,2839.93"/><path class="cls-1" d="M288.33-5.2s244.59,1972.22,0,2839.85"/><path class="cls-1" d="M282.84-5.12s240.72,1985.91,0,2839.77"/><path class="cls-1" d="M277.36-5s236.83,1999.61,0,2839.69"/><path class="cls-1" d="M271.88-4.95s233,2013.29,0,2839.6"/><path class="cls-1" d="M266.4-4.87s229.06,2027,0,2839.52"/><path class="cls-1" d="M260.91-4.79s225.19,2040.67,0,2839.44"/><path class="cls-1" d="M255.43-4.71s221.3,2054.36,0,2839.36"/><path class="cls-1" d="M250-4.62s217.42,2068,0,2839.27"/><path class="cls-1" d="M244.47-4.54s213.53,2081.74,0,2839.19"/><path class="cls-1" d="M239-4.46S448.64,2091,239,2834.65"/><path class="cls-1" d="M233.5-4.38s205.77,2109.12,0,2839"/><path class="cls-1" d="M228-4.29s201.89,2122.8,0,2838.94"/><path class="cls-1" d="M222.54-4.21s198,2136.49,0,2838.86"/><path class="cls-1" d="M217.06-4.13s194.12,2150.19,0,2838.78"/><path class="cls-1" d="M211.57-4s190.25,2163.88,0,2838.7"/><path class="cls-1" d="M206.09-4s186.36,2177.56,0,2838.61"/><path class="cls-1" d="M200.61-3.88s182.48,2191.25,0,2838.53"/><path class="cls-1" d="M195.13-3.8s178.59,2204.94,0,2838.45"/><path class="cls-1" d="M189.65-3.72s174.71,2218.64,0,2838.37"/><path class="cls-1" d="M184.16-3.63s170.83,2232.32,0,2838.28"/><path class="cls-1" d="M178.68-3.55s167,2246,0,2838.2"/><path class="cls-1" d="M173.2-3.47s163.06,2259.7,0,2838.12"/><path class="cls-1" d="M167.72-3.39s159.18,2273.39,0,2838"/><path class="cls-1" d="M162.24-3.3s155.29,2287.07,0,2838"/><path class="cls-1" d="M156.75-3.22s151.42,2300.77,0,2837.87"/><path class="cls-1" d="M151.27-3.14s147.53,2314.46,0,2837.79"/><path class="cls-1" d="M145.79-3s143.65,2328.14,0,2837.7"/><path class="cls-1" d="M140.31-3s139.77,2341.83,0,2837.62"/><path class="cls-1" d="M134.82-2.89s135.89,2355.52,0,2837.54"/><path class="cls-1" d="M129.34-2.81s132,2369.21,0,2837.46"/><path class="cls-1" d="M123.86-2.72s128.12,2382.9,0,2837.37"/><path class="cls-1" d="M118.38-2.64s124.24,2396.59,0,2837.29"/><path class="cls-1" d="M112.9-2.56s120.35,2410.28,0,2837.21"/><path class="cls-1" d="M107.41-2.48s116.48,2424,0,2837.13"/><path class="cls-1" d="M101.93-2.39s112.59,2437.65,0,2837"/><path class="cls-1" d="M96.45-2.31s108.71,2451.35,0,2837"/><path class="cls-1" d="M91-2.23s104.82,2465,0,2836.88"/><path class="cls-1" d="M85.49-2.15s100.94,2478.73,0,2836.8"/><path class="cls-1" d="M80-2.06s97.06,2492.41,0,2836.71"/><path class="cls-1" d="M74.52-2s93.18,2506.1,0,2836.63"/><path class="cls-1" d="M69-1.9s89.3,2519.79,0,2836.55"/><path class="cls-1" d="M63.56-1.82s85.41,2533.49,0,2836.47"/><path class="cls-1" d="M58.07-1.73s81.54,2547.17,0,2836.38"/><path class="cls-1" d="M52.59-1.65s77.65,2560.86,0,2836.3"/><path class="cls-1" d="M47.11-1.57s73.77,2574.55,0,2836.22"/><path class="cls-1" d="M41.63-1.49s69.88,2588.24,0,2836.14"/><path class="cls-1" d="M36.15-1.4s66,2601.93,0,2836.05"/><path class="cls-1" d="M30.66-1.32s62.12,2615.62,0,2836"/><path class="cls-1" d="M25.18-1.24s58.24,2629.31,0,2835.89"/><path class="cls-1" d="M19.7-1.16s54.35,2643,0,2835.81"/><path class="cls-1" d="M14.22-1.07s50.47,2656.68,0,2835.72"/><path class="cls-1" d="M8.74-1s46.58,2670.37,0,2835.64"/><path class="cls-1" d="M3.25-.91S46,2683.16,3.25,2834.65"/><path class="cls-1" d="M-2.23-.83s38.83,2697.76,0,2835.48"/><path class="cls-1" d="M-7.71-.74s34.94,2711.44,0,2835.39"/><path class="cls-1" d="M-13.19-.66s31.06,2725.13,0,2835.31"/><path class="cls-1" d="M595.33-9.82s462,1205.62,0,2844.47"/><path class="cls-1" d="M589.84-9.74s458.13,1219.31,0,2844.39"/><path class="cls-1" d="M584.36-9.66s454.25,1233,0,2844.31"/><path class="cls-1" d="M578.88-9.58s450.36,1246.7,0,2844.23"/><path class="cls-1" d="M573.4-9.49s446.48,1260.38,0,2844.14"/><path class="cls-1" d="M567.91-9.41s442.6,1274.07,0,2844.06"/><path class="cls-1" d="M562.43-9.33s438.72,1287.76,0,2844"/><path class="cls-1" d="M557-9.25s434.84,1301.46,0,2843.9"/><path class="cls-1" d="M551.47-9.16s430.95,1315.14,0,2843.81"/><path class="cls-1" d="M546-9.08s427.07,1328.83,0,2843.73"/><path class="cls-1" d="M540.5-9s423.19,1342.52,0,2843.65"/><path class="cls-1" d="M535-8.92s419.31,1356.21,0,2843.57"/><path class="cls-1" d="M529.54-8.83s415.42,1369.89,0,2843.48"/><path class="cls-1" d="M524.06-8.75s411.54,1383.59,0,2843.4"/><path class="cls-1" d="M518.58-8.67s407.65,1397.28,0,2843.32"/><path class="cls-1" d="M513.09-8.59s403.78,1411,0,2843.24"/><path class="cls-1" d="M507.61-8.5s399.89,1424.65,0,2843.15"/><path class="cls-1" d="M502.13-8.42s396,1438.34,0,2843.07"/><path class="cls-1" d="M496.65-8.34s392.12,1452,0,2843"/><path class="cls-1" d="M491.16-8.26s388.25,1465.73,0,2842.91"/><path class="cls-1" d="M485.68-8.17s384.37,1479.41,0,2842.82"/><path class="cls-1" d="M480.2-8.09s380.48,1493.1,0,2842.74"/><path class="cls-1" d="M474.72-8s376.6,1506.79,0,2842.66"/><path class="cls-1" d="M469.24-7.93s372.71,1520.48,0,2842.58"/><path class="cls-1" d="M463.75-7.84s368.84,1534.17,0,2842.49"/><path class="cls-1" d="M458.27-7.76s365,1547.86,0,2842.41"/><path class="cls-1" d="M452.79-7.68s361.07,1561.55,0,2842.33"/><path class="cls-1" d="M447.31-7.6s357.18,1575.24,0,2842.25"/><path class="cls-1" d="M441.83-7.51s353.3,1588.92,0,2842.16"/><path class="cls-1" d="M436.34-7.43s349.42,1602.61,0,2842.08"/><path class="cls-1" d="M430.86-7.35s345.54,1616.31,0,2842"/><path class="cls-1" d="M425.38-7.27s341.65,1630,0,2841.92"/><path class="cls-1" d="M419.9-7.18s337.77,1643.68,0,2841.83"/><path class="cls-1" d="M414.41-7.1s333.9,1657.37,0,2841.75"/><path class="cls-1" d="M408.93-7s330,1671.06,0,2841.67"/><path class="cls-1" d="M403.45-6.94s326.13,1684.76,0,2841.59"/><path class="cls-1" d="M398-6.85s322.24,1698.44,0,2841.5"/><path class="cls-1" d="M392.49-6.77s318.36,1712.13,0,2841.42"/><path class="cls-1" d="M387-6.69s314.48,1725.82,0,2841.34"/><path class="cls-1" d="M381.52-6.6s310.6,1739.5,0,2841.25"/><path class="cls-1" d="M376-6.52s306.71,1753.19,0,2841.17"/><path class="cls-1" d="M370.56-6.44s302.83,1766.89,0,2841.09"/><path class="cls-1" d="M365.08-6.36s298.94,1780.58,0,2841"/><path class="cls-1" d="M359.59-6.27s295.07,1794.26,0,2840.92"/><path class="cls-1" d="M354.11-6.19s291.18,1808,0,2840.84"/><path class="cls-1" d="M348.63-6.11s287.3,1821.64,0,2840.76"/><path class="cls-1" d="M343.15-6s283.42,1835.33,0,2840.68"/><path class="cls-1" d="M337.66-5.94s279.54,1849,0,2840.59"/><path class="cls-1" d="M332.18-5.86s275.66,1862.71,0,2840.51"/><path class="cls-1" d="M326.7-5.78s271.77,1876.4,0,2840.43"/><path class="cls-1" d="M321.22-5.7s267.89,1890.09,0,2840.35"/><path class="cls-1" d="M315.74-5.61s264,1903.77,0,2840.26"/><path class="cls-1" d="M310.25-5.53s260.13,1917.47,0,2840.18"/><path class="cls-1" d="M304.77-5.45s256.24,1931.16,0,2840.1"/><path class="cls-1" d="M299.29-5.37s252.36,1944.85,0,2840"/><path class="cls-1" d="M293.81-5.28s248.47,1958.53,0,2839.93"/><path class="cls-1" d="M288.33-5.2s244.59,1972.22,0,2839.85"/><path class="cls-1" d="M282.84-5.12s240.72,1985.91,0,2839.77"/><path class="cls-1" d="M277.36-5s236.83,1999.61,0,2839.69"/><path class="cls-1" d="M271.88-4.95s233,2013.29,0,2839.6"/><path class="cls-1" d="M266.4-4.87s229.06,2027,0,2839.52"/><path class="cls-1" d="M260.91-4.79s225.19,2040.67,0,2839.44"/><path class="cls-1" d="M255.43-4.71s221.3,2054.36,0,2839.36"/><path class="cls-1" d="M250-4.62s217.42,2068,0,2839.27"/><path class="cls-1" d="M244.47-4.54s213.53,2081.74,0,2839.19"/><path class="cls-1" d="M239-4.46S448.64,2091,239,2834.65"/><path class="cls-1" d="M233.5-4.38s205.77,2109.12,0,2839"/><path class="cls-1" d="M228-4.29s201.89,2122.8,0,2838.94"/><path class="cls-1" d="M222.54-4.21s198,2136.49,0,2838.86"/><path class="cls-1" d="M217.06-4.13s194.12,2150.19,0,2838.78"/><path class="cls-1" d="M211.57-4s190.25,2163.88,0,2838.7"/><path class="cls-1" d="M206.09-4s186.36,2177.56,0,2838.61"/><path class="cls-1" d="M200.61-3.88s182.48,2191.25,0,2838.53"/><path class="cls-1" d="M195.13-3.8s178.59,2204.94,0,2838.45"/><path class="cls-1" d="M189.65-3.72s174.71,2218.64,0,2838.37"/><path class="cls-1" d="M184.16-3.63s170.83,2232.32,0,2838.28"/><path class="cls-1" d="M178.68-3.55s167,2246,0,2838.2"/><path class="cls-1" d="M173.2-3.47s163.06,2259.7,0,2838.12"/><path class="cls-1" d="M167.72-3.39s159.18,2273.39,0,2838"/><path class="cls-1" d="M162.24-3.3s155.29,2287.07,0,2838"/><path class="cls-1" d="M156.75-3.22s151.42,2300.77,0,2837.87"/><path class="cls-1" d="M151.27-3.14s147.53,2314.46,0,2837.79"/><path class="cls-1" d="M145.79-3s143.65,2328.14,0,2837.7"/><path class="cls-1" d="M140.31-3s139.77,2341.83,0,2837.62"/><path class="cls-1" d="M134.82-2.89s135.89,2355.52,0,2837.54"/><path class="cls-1" d="M129.34-2.81s132,2369.21,0,2837.46"/><path class="cls-1" d="M123.86-2.72s128.12,2382.9,0,2837.37"/><path class="cls-1" d="M118.38-2.64s124.24,2396.59,0,2837.29"/><path class="cls-1" d="M112.9-2.56s120.35,2410.28,0,2837.21"/><path class="cls-1" d="M107.41-2.48s116.48,2424,0,2837.13"/><path class="cls-1" d="M101.93-2.39s112.59,2437.65,0,2837"/><path class="cls-1" d="M96.45-2.31s108.71,2451.35,0,2837"/><path class="cls-1" d="M91-2.23s104.82,2465,0,2836.88"/><path class="cls-1" d="M85.49-2.15s100.94,2478.73,0,2836.8"/><path class="cls-1" d="M80-2.06s97.06,2492.41,0,2836.71"/><path class="cls-1" d="M74.52-2s93.18,2506.1,0,2836.63"/><path class="cls-1" d="M69-1.9s89.3,2519.79,0,2836.55"/><path class="cls-1" d="M63.56-1.82s85.41,2533.49,0,2836.47"/><path class="cls-1" d="M58.07-1.73s81.54,2547.17,0,2836.38"/><path class="cls-1" d="M52.59-1.65s77.65,2560.86,0,2836.3"/><path class="cls-1" d="M47.11-1.57s73.77,2574.55,0,2836.22"/><path class="cls-1" d="M41.63-1.49s69.88,2588.24,0,2836.14"/><path class="cls-1" d="M36.15-1.4s66,2601.93,0,2836.05"/><path class="cls-1" d="M30.66-1.32s62.12,2615.62,0,2836"/><path class="cls-1" d="M25.18-1.24s58.24,2629.31,0,2835.89"/><path class="cls-1" d="M19.7-1.16s54.35,2643,0,2835.81"/><path class="cls-1" d="M14.22-1.07s50.47,2656.68,0,2835.72"/><path class="cls-1" d="M8.74-1s46.58,2670.37,0,2835.64"/><path class="cls-1" d="M3.25-.91S46,2683.16,3.25,2834.65"/><path class="cls-1" d="M-2.23-.83s38.83,2697.76,0,2835.48"/><path class="cls-1" d="M-7.71-.74s34.94,2711.44,0,2835.39"/><path class="cls-1" d="M-13.19-.66s31.06,2725.13,0,2835.31"/></g><rect class="cls-1" y="-2.52" width="595.28" height="2837.16"/></svg>