<?xml version="1.0" encoding="utf-8"?>
<!-- Generator: Adobe Illustrator 22.1.0, SVG Export Plug-In . SVG Version: 6.00 Build 0)  -->
<svg version="1.1" id="Calque_1" xmlns="http://www.w3.org/2000/svg" xmlns:xlink="http://www.w3.org/1999/xlink" x="0px" y="0px"
	 viewBox="0 0 660.5 1351.8" style="enable-background:new 0 0 660.5 1351.8;" xml:space="preserve">
<style type="text/css">
	.st0{fill:#FFFFFF;}
	.st1{fill:none;stroke:#FFFFFF;stroke-width:2;stroke-miterlimit:10;}
</style>
<path class="st0" d="M461.2,883.9"/>
<polyline class="st1" points="372.1,1115.1 27.7,1115.1 27.7,166.9 637.1,166.9 637.1,1115.1 539,1115.1 "/>
<g>
	<path class="st0" d="M126.2,224.6c4.2,0,8.5,0.7,12.9,2s8.3,3.6,11.8,6.8s6.3,7.6,8.5,13.1s3.3,12.5,3.3,20.9
		c0,7.7-1.1,14.2-3.4,19.7c-2.2,5.4-5.2,9.9-9,13.3s-8,5.9-12.8,7.5s-9.8,2.4-15,2.4H96.2v-85.7H126.2z M123.1,307.9
		c5,0,9.8-0.8,14.3-2.5c4.5-1.6,8.5-4.1,11.9-7.4c3.4-3.3,6.1-7.5,8-12.6c2-5.1,2.9-11.1,2.9-17.9c0-8-1-14.6-3-19.8
		s-4.6-9.3-7.9-12.4c-3.3-3.1-7-5.2-11.1-6.4s-8.3-1.8-12.7-1.8h-27V308L123.1,307.9L123.1,307.9z"/>
	<path class="st0" d="M176.3,224.6v85.7h-2.4v-85.7H176.3z"/>
	<path class="st0" d="M189.3,310.3v-85.7H224c8.2,0,14.6,2,19.2,5.9c4.6,3.9,6.8,9.8,6.8,17.5c0,3.8-0.7,7.1-2,10
		c-1.4,2.9-3.2,5.4-5.6,7.3c-2.4,2-5.3,3.4-8.6,4.4s-7,1.5-11,1.5h-31.1v39h-2.4V310.3z M224,268.9c3.4,0,6.5-0.5,9.4-1.4
		c2.9-0.9,5.4-2.3,7.5-4.1c2.1-1.8,3.8-4,5-6.5c1.2-2.6,1.8-5.5,1.8-8.9c0-6.8-1.9-12-5.8-15.6c-3.9-3.6-9.8-5.4-17.8-5.4h-32.3
		v41.9H224z"/>
	<path class="st0" d="M310.6,310.3h-52.4v-85.7h2.4v83.3h50V310.3z"/>
	<path class="st0" d="M313.2,267.4c0-6.1,0.9-11.8,2.6-17.3c1.7-5.4,4.2-10.2,7.6-14.3c3.3-4.1,7.4-7.3,12.4-9.7s10.6-3.6,17-3.6
		s12.1,1.2,17,3.6c4.9,2.4,9,5.6,12.4,9.7c3.3,4.1,5.8,8.8,7.6,14.3c1.7,5.4,2.6,11.2,2.6,17.3s-0.9,11.8-2.6,17.3
		c-1.7,5.4-4.2,10.2-7.6,14.3c-3.3,4.1-7.4,7.3-12.4,9.7c-4.9,2.4-10.6,3.5-17,3.5s-12.1-1.2-17-3.5c-4.9-2.4-9-5.6-12.4-9.7
		c-3.3-4.1-5.8-8.8-7.6-14.3C314.1,279.3,313.2,273.5,313.2,267.4z M315.7,267.4c0.1,6.2,1,11.8,2.7,17c1.7,5.2,4.2,9.7,7.3,13.4
		c3.2,3.8,7,6.7,11.6,8.8s9.7,3.2,15.5,3.2s10.9-1.1,15.5-3.2s8.4-5.1,11.6-8.8c3.2-3.8,5.6-8.2,7.3-13.4c1.7-5.2,2.6-10.9,2.7-17
		c-0.1-6.2-1-11.8-2.7-17s-4.2-9.7-7.3-13.4c-3.2-3.8-7-6.7-11.6-8.8c-4.6-2.1-9.7-3.2-15.5-3.2s-10.9,1.1-15.5,3.2
		c-4.6,2.1-8.4,5.1-11.6,8.8c-3.2,3.8-5.6,8.2-7.3,13.4C316.6,255.6,315.7,261.3,315.7,267.4z"/>
	<path class="st0" d="M483,224.6v85.7h-2.4v-82.7h-0.2L444,310.3h-2.6L405,227.6h-0.2v82.7h-2.4v-85.7h4l36.2,82.6h0.2l36.2-82.6
		H483z"/>
	<path class="st0" d="M553.4,307.9v2.4H496v-85.7h56.9v2.4h-54.5v37.4h51.2v2.4h-51.2v41h55V307.9z"/>
</g>
<g>
	<path class="st0" d="M263.4,362.4v85.7H261v-82.7h-0.2l-36.4,82.7h-2.6l-36.4-82.7h-0.2v82.7h-2.4v-85.7h4L223,445h0.2l36.2-82.6
		L263.4,362.4L263.4,362.4z"/>
	<path class="st0" d="M271.2,448.1h-2.6l34.7-85.7h3.1l33.8,85.7h-2.6l-11.3-28.2h-43.7L271.2,448.1z M304.9,364.8h-0.2l-21.1,52.7
		h41.8L304.9,364.8z"/>
	<path class="st0" d="M402.6,362.4L367.9,412v36.1h-2.4V412L331,362.4h3l32.8,47l33-47H402.6L402.6,362.4z"/>
	<path class="st0" d="M393.7,448.1h-2.6l34.7-85.7h3.1l33.8,85.7h-2.6l-11.3-28.2h-43.7L393.7,448.1z M427.4,364.8h-0.2l-21.1,52.7
		h41.8L427.4,364.8z"/>
</g>
<polyline class="st1" points="539.4,1084.1 617.1,946 536.8,806.9 376.1,806.9 295.8,946 373,1077.9 "/>
<polyline class="st1" points="539,998.5 539,1338.9 454.7,1167.3 372.8,1338.9 372.8,991.7 "/>
<circle class="st1" cx="458" cy="949.4" r="95"/>
<circle class="st1" cx="458.3" cy="948.8" r="59.6"/>
</svg>
