<?xml version="1.0" encoding="utf-8"?>
<!-- Generator: Adobe Illustrator 22.1.0, SVG Export Plug-In . SVG Version: 6.00 Build 0)  -->
<svg version="1.1" id="Calque_1" xmlns="http://www.w3.org/2000/svg" xmlns:xlink="http://www.w3.org/1999/xlink" x="0px" y="0px"
	 viewBox="0 0 852 852.8" style="enable-background:new 0 0 852 852.8;" xml:space="preserve">
<style type="text/css">
	.st0{fill:none;stroke:#0000FF;stroke-width:6;stroke-linejoin:round;stroke-miterlimit:10;}
</style>
<title>sens0</title>
<path class="st0" d="M688,437.8c0,0,52.8-179.4-54.7-226.7s-228.8-32.7-297.2,58.6s-82.1,130-138.6,175.2s-14.1,82.4,36.9,73.4
	c0,0,8.7,28.1,47.7,19.9c39.1-8.1,22.8-48.9-1.1-54.3"/>
<path class="st0" d="M209.6,517.2c0,0-5.2,24.7-28.9,32.1c-23.7,7.4,10.4,59.3,64.4,57.5c54-1.9,9.6-51.3-9.6-53.1"/>
<path class="st0" d="M204.1,597.2c0,0-30.1,4.2-28.1,27.1s52.8,21.7,54.2,44c1.4,22.3-2.7,68.6,128.9,60.1c0,0,83.8,7.6,169.6,2.6
	S672,664.5,680,551.1l6.9-98.2c0.7-10.1,2.2-20.2,4.3-30.2l2.4-10.9"/>
<path class="st0" d="M336.1,269.7c0,0,82.2-26.2,123.5,29.7s-16.3,119.1-52.4,128.4c-36.1,9.3-40.4,41.6-7.7,66
	s-17.2,58.1-17.2,58.1"/>
<path class="st0" d="M273.7,357.2c0,0,54.7,70.5,122.7,35.9s35.2-87.4-7-103.1c-29.6-11-70.4,2.6-70.4,2.6"/>
<path class="st0" d="M304.3,383c0,0-41.6,51.5,33.7,46.1"/>
<path class="st0" d="M225.8,658c0,0-88.6,20-73,82.9s123.3,55.4,149.1,33.5c25.8-21.9,23.9-44,23.9-44"/>
<path class="st0" d="M151.9,732.3c0,0,22.7,0,39.2-13.2"/>
<path class="st0" d="M175.2,774c0,0,38.5-14.2,51.8-43.8"/>
<path class="st0" d="M227.1,789.8c0,0,32.9-11.1,37.9-40.1"/>
<path class="st0" d="M292.9,329.1c0,0-72.9,19.9-83.4-48.2s1.4-156.2,194.6-153.1c0,0-17.2,53.7,23.2,71.2"/>
<path class="st0" d="M517.9,183.4c0,0,51.7-18.7,29.9-63.1C526,75.9,470.7,98.4,403.3,91.6c-67.4-6.8-84.6-36.2-155-27.5
	c-17.6,2.2-34.1,8-48.2,16c-51.7,29.4-36.3,96.3,24.3,109l0,0"/>
<path class="st0" d="M208.2,267.6c0,0-47.5,9.4-51.6-8.7c-4.1-18.1-4.3-46.8,15.7-42.8c20.2,4.1,36.3,5.2,36.3,5.2s-54,0-47.8-24.2
	s35.3-17.9,58.9-6.3"/>
<path class="st0" d="M214,295.1c0,0-16,16.7-42.1,12.3c-26-4.5-20-37.3-3-38.5c0,0,28.7,2,37.1-1.1"/>
<path class="st0" d="M261,330.2c0,0-10.4,51.6-59.8,39.9s-29.3-62.8-29.3-62.8"/>
<path class="st0" d="M368.1,235.6c0,0-5.6-24.5-33.3-22.2c-27.8,2.3-26.5,20.6-25,33.5c2.8,24.5-33.3,29.8-42.1,1.7
	c-8.8-28.1,5.2-92.8,133.8-91.4"/>
<ellipse class="st0" cx="476.1" cy="139.7" rx="24" ry="20"/>
<path class="st0" d="M411.7,606.6c0,0,64.3-56.9,42.9-136.6l79.9,235.8"/>
<path class="st0" d="M495.5,471.6c0,0,64.3-56.9,42.9-136.6l79.9,235.8"/>
</svg>
