<?xml version="1.0" encoding="utf-8"?>
<!-- Generator: Adobe Illustrator 22.1.0, SVG Export Plug-In . SVG Version: 6.00 Build 0)  -->
<svg version="1.1" id="Calque_1" xmlns="http://www.w3.org/2000/svg" xmlns:xlink="http://www.w3.org/1999/xlink" x="0px" y="0px"
	 viewBox="0 0 852 852.8" style="enable-background:new 0 0 852 852.8;" xml:space="preserve">
<style type="text/css">
	.st0{fill:none;stroke:#0000FF;stroke-width:6;stroke-linecap:square;stroke-linejoin:round;}
</style>
<title>sens0</title>
<path class="st0" d="M300.8,392.6c0,0,42.3,0.7,38.3,53.9s-57.7,49.6-82.5,32.3c-16-11.1-30.8-6.1-39.4-1.2
	c-9.5,5.5-20.4,7.7-30.9,5.2c-16.2-3.9-33.5-17.7-25-61.5c14.7-76.1,54.3-137.1,111.3-138.6"/>
<path class="st0" d="M221.8,301.8c0,0-50.2,3.5-49.1-62.9c0.5-31,1.2-52.5,1.9-66.7c1-23.1,9.9-45.2,25.7-61
	c16.5-16.5,41.7-27.9,76.5-7.4"/>
<path class="st0" d="M325.3,275.8c0,0-2.2,20.3-29.9,14.8c-27.7-5.5-54.1-15.4-44.7-107.7s58.4-98.3,96.6-97.3
	c14.1,0.4,18.9,2.8,21.6,7.3c4.5,7.7,2.9,21.5,30.8,42.1c44.3,32.8,92.3,25.9,92.3,25.9s85-7.8,100.3-83.9c0,0,65.9-14.9,90.1,19.6
	s10.8,505,10.8,505s20.1,147.8-85.9,150.4s-124.4-4.3-124.4-4.3"/>
<path class="st0" d="M368.8,92.8c0,0,44.8-27.9,120.7-27.3C565.4,66,592.3,77,592.3,77"/>
<ellipse class="st0" cx="486.4" cy="108.9" rx="16.1" ry="17.2"/>
<path class="st0" d="M319.2,214.6c0,0-34,70.3,44.6,73.6c45.6,2,26.7-25.9,107.2-33.2s94.3,48.4,94.3,48.4s24.8-50.4,77.5-25.8"/>
<path class="st0" d="M432.7,263c0,0,18,70.3-16.1,73.6s-63.2,15.3-50.2-33.2"/>
<path class="st0" d="M340.9,351.2c0,0-8.7,94.9,83.1,94.2c91.7-0.7,106-3.3,128.3-27.9s18.6-110.1,44-116.1"/>
<path class="st0" d="M201,483.5c0,0-16.8,29.9-26,40.5c-8,9.3-10.2,36.8,11.9,39.7c3.2,0.4,6.8,0.3,11-0.4
	c33.7-5.7,57.4-7.4,69.3,11.1c11.9,18.4,61.6,39.3,91.8,29.5c0,0,8-3.7,1.5-13.1c-6.5-9.4-31,3.7-45.5-11.9
	c-14.5-15.6-20.9-24.5-47.1-44.2c-29.8-22.5-77.7-12.7-93-10.6"/>
<path class="st0" d="M186.1,566.5c0,0-25.1,42.5-7.4,63.4s37.2,17.3,41.3-0.7c4-17.9,26.1-16.3,50.9-11.3s18.9-25.6,18.9-25.6"/>
<path class="st0" d="M356.6,606.1c0,0,17.3,31.6-15.7,35s-116.9,4.7-124.4-5.4"/>
<path class="st0" d="M201.2,643.1"/>
<path class="st0" d="M665.5,674c0,0-81.4,27.3-101.4-28.8s-13.5-152.3,0.7-180.8c17.9-36.2,41.4-55.4,106.9-53.9"/>
<path class="st0" d="M196.5,661.3c0,0-46.1,64.2-2.8,89.9c43.4,25.7,142.1,18.8,156-16.8"/>
<ellipse class="st0" cx="245.9" cy="696.4" rx="16.4" ry="17.6"/>
<ellipse class="st0" cx="639.6" cy="477.4" rx="16.4" ry="17.6"/>
<ellipse class="st0" cx="653.4" cy="607.4" rx="16.4" ry="17.6"/>
<ellipse class="st0" cx="606.5" cy="557.1" rx="16.4" ry="17.6"/>
<line class="st0" x1="409.2" y1="540.6" x2="409.2" y2="702.9"/>
<path class="st0" d="M467.7,444.6c0,0,0.1,172-25.9,198.7c0,0,88.6,6,114.5,47.1"/>
<path class="st0" d="M507.1,575.5c0,0-34.6,74-21.1,125.3"/>
</svg>
