<?xml version="1.0" encoding="utf-8"?>
<!-- Generator: Adobe Illustrator 22.1.0, SVG Export Plug-In . SVG Version: 6.00 Build 0)  -->
<svg version="1.1" id="Calque_1" xmlns="http://www.w3.org/2000/svg" xmlns:xlink="http://www.w3.org/1999/xlink" x="0px" y="0px"
	 viewBox="0 0 852 852.8" style="enable-background:new 0 0 852 852.8;" xml:space="preserve">
<style type="text/css">
	.st0{fill:none;stroke:#0000FF;stroke-width:6;stroke-linecap:square;stroke-linejoin:round;}
</style>
<title>sens0</title>
<path class="st0" d="M320.4,391.1c0,0,9,36.4-56.1,53.9s-68.4,55.3-68.4,55.3s57.4-41.3,69,9.8c11.6,51.1-43.2,3.5-69,28.7
	s-25.2,51.1-7.1,73.5"/>
<path class="st0" d="M702.4,285c5.4,60.6-86.2,119.7-204.4,132s-218.5-26.9-223.8-87.5c-2.3-25.7,12.9-51.1,40-72.8
	c37-29.5,96.2-52.2,164.4-59.2C596.8,185.3,697,224.4,702.4,285z"/>
<path class="st0" d="M314.2,256.8"/>
<path class="st0" d="M635,255.5"/>
<path class="st0" d="M277.8,350.1c142.2-40.4,359.5-15.4,359.5-15.4"/>
<ellipse class="st0" cx="491.4" cy="370" rx="21.6" ry="16.6"/>
<path class="st0" d="M415,416.9c0,0,13.1,44.8-32.6,53.1c-1.7,0.3-3.3,0.6-5,0.8c-41.7,5.4-52.6-21.9-52.6-21.9"/>
<path class="st0" d="M361.5,544.3c0,0,40.9-25.5,15.9-73.5"/>
<path class="st0" d="M402.3,460.7c0,0,22.7,43.8,76.1,33s44-78.7,44-78.7"/>
<path class="st0" d="M382.7,508.6c0,0,86.4,56.7,148.1,10.8s58.9-123.1,58.9-123.1"/>
<path class="st0" d="M225,606.9c-0.9-0.2-1.9-0.3-2.8-0.5c-7.5-1.6-43.6-7.1-45.6,37.3c-2.2,49.6,15,42.5,36.6,43.1
	c12.1,0.4,21.4-9.3,28.9-21.7c5.9-9.8,10.6-21.2,14.6-30.9C264.7,614.6,232.3,608.1,225,606.9z"/>
<path class="st0" d="M257.2,624.6c0,0,3.8-15.4,33.3-10.4c4.4,0.7,8.2,1.8,11.6,3c7.2,2.6,12.6,8.1,15.6,14.9
	c3.5,7.8,3.8,17.3,0,25.8c-6.4,14.2-17.7,30.3-35.9,30c-32.2-0.6-41.1,0.3-42-18.9"/>
<path class="st0" d="M304.2,681.9c0,0,0.9,15.2,29.5,12.5c28.6-2.6,34.2-27.4,39.8-39c11.8-24.1-24-61.4-54.1-19.5"/>
<path class="st0" d="M360.9,684c0,0,1.2,17.2,30.2,14.3c29.1-2.9,57.8-23.9,46.7-46.8s-55.6-24.2-62-2.5"/>
<path class="st0" d="M226.2,682.4c0,0-20.6,36.4,7.6,62.9s97.2,21.5,110.1-6.6"/>
<ellipse class="st0" cx="279.2" cy="721.7" rx="15.2" ry="16.5"/>
<path class="st0" d="M634.1,376.6c0,0,52.9-26.7,39.5,60.2s-12.5,188.2-8.3,211.8c4.2,23.5-7.5,95-62.5,83.3"/>
<path class="st0" d="M440.6,655.4c0,0,55.9,28,67.4-4.7s31.1-68,78.9-49.8s50.7,154.7-42.1,176.5c-92.7,21.8-167.8,7.3-182.1-16.1"
	/>
<path class="st0" d="M345.9,718.7c0,0,111.9,33.2,168.3-32.7"/>
<path class="st0" d="M510.8,741c0,0-35.4,2.6-35.9-26"/>
<ellipse class="st0" cx="564.8" cy="649.7" rx="11" ry="11.9"/>
<ellipse class="st0" cx="549.3" cy="719.4" rx="11" ry="11.9"/>
<path class="st0" d="M640.2,217.7c0,0,57.6-10.6,39.5-75.8c-18.1-65.1-111.3-74.1-157.2-43.4"/>
<path class="st0" d="M405.9,213c0,0,49.8-76.8,5.4-121.9c0,0,107-48.8,115.2,28.6c8.4,79-31.5,76.6-31.5,76.6"/>
<path class="st0" d="M329.9,246.3c0,0,16.5-68.3-52.5-55.4s-129.2,8.5-123.5-63.1s101.2-67.6,106.4-30.4c0,0,30.6-50.1,100.7-26.5"
	/>
<path class="st0" d="M225.7,196.5c0,0-89.4,48.8-74.8,161.8c14.6,113,119.8,54.9,120.9,21.4"/>
<path class="st0" d="M370.2,224.5l-18.3,72.9l82.8-3.8c0,0,18.5-105.7,104.8-98"/>
<path class="st0" d="M630.4,212.9c0,0,53.9,54-32.9,91.5"/>
</svg>
