<?xml version="1.0" encoding="utf-8"?>
<!-- Generator: Adobe Illustrator 22.1.0, SVG Export Plug-In . SVG Version: 6.00 Build 0)  -->
<svg version="1.1" id="Calque_1" xmlns="http://www.w3.org/2000/svg" xmlns:xlink="http://www.w3.org/1999/xlink" x="0px" y="0px"
	 viewBox="0 0 852 852.8" style="enable-background:new 0 0 852 852.8;" xml:space="preserve">
<style type="text/css">
	.st0{fill:none;stroke:#0000FF;stroke-width:6;stroke-linecap:square;stroke-linejoin:round;}
</style>
<title>sens0</title>
<path class="st0" d="M564.9,677.1c0,0-4.2-33.4,31-44.4c13.2-4.1,19.4-15.7,23.1-28.2c15-50.7-15.5-76.9-52.3-82
	c-7.6-1.1-16.3-1.5-26.1-1.1c-70.4,3-96.1,53.7-164.3,40.4s-63.2-81.5-53.7-115.9s-16.8-53.7-43.6-55.5c-26.8-1.8-54.8,6-58.7,50.1"
	/>
<path class="st0" d="M449.5,484.2c0,0,37.9,2.6,56.8-56.2c18.9-58.8,88.8-57.5,114.8-29.4s46.2,112.5,29.6,182.7
	c-16.6,70.3-33.1,97.1-52.1,108.6"/>
<ellipse class="st0" cx="389.2" cy="341.7" rx="67.7" ry="73.1"/>
<ellipse class="st0" cx="387.9" cy="341.1" rx="36.3" ry="39.1"/>
<path class="st0" d="M303,326.8c0,0-31.6,56.8-98.5,30C137.5,330,163.8,125.4,312.8,84s276.5-15,305.4,1.6
	c39,22.4,103.1,80.4,54.2,203.8"/>
<path class="st0" d="M198.5,354.6c0,0-41.5,40.2-55,107.8c-5.5,27.8,1.6,63.5,27.8,70.2c19.3,4.9,7.7-45.9,43.7-41.5
	c36.1,4.5,21.9,41.5,7.1,47.2"/>
<path class="st0" d="M540.6,521.5c0,0-57.8-5.4-89,106.3c0,0,0,49.1-94.5,55.8s-143.6-18.3-141.8,17.3s35.7,62.6,136.4,61.6
	s198-2.4,237.2-19c0,0,105.1-26.4,106.4-167.4c1.3-141,6.7-229.9-44.8-266.5s-167.1-5.4-173.4,20.3"/>
<path class="st0" d="M165,552.3c0,0-54,93,0.8,97.7c0,0,26.9,1.9,41.9-39.3c15-41.2,62.1-13.1,59.4,18.9c0,0-5.4-43.5,37.1-40
	s34.4,42.9,34.4,42.9s1.5-62.9,48.4-45.3c44.6,16.8,34.3,74.5,34.3,74.5"/>
<path class="st0" d="M203.7,619.4c0,0-24.8,63.1,39,61.8c0,0,28.2,4.9,24.4-51.8c0,0-9.7,55.9,29.4,55s41.1-9.7,42.4-62.4
	c0,0-6.6,66.2,25,62.4c38-4.6,62.2-11.6,57.8-46.5"/>
<path class="st0" d="M286,306c0,0-6.1-68.7-63.6-83.9c0,0,177.7-10.9,318.1,39.2"/>
<ellipse transform="matrix(0.2787 -0.9604 0.9604 0.2787 168.182 561.2837)" class="st0" cx="457.8" cy="168.7" rx="40.1" ry="114.7"/>
</svg>
