<?xml version="1.0" encoding="utf-8"?>
<!-- Generator: Adobe Illustrator 22.1.0, SVG Export Plug-In . SVG Version: 6.00 Build 0)  -->
<svg version="1.1" id="Calque_1" xmlns="http://www.w3.org/2000/svg" xmlns:xlink="http://www.w3.org/1999/xlink" x="0px" y="0px"
	 viewBox="0 0 852 852.8" style="enable-background:new 0 0 852 852.8;" xml:space="preserve">
<style type="text/css">
	.st0{fill:none;stroke:#0000FF;stroke-width:6;stroke-linecap:square;stroke-linejoin:round;}
</style>
<title>sens0</title>
<ellipse transform="matrix(0.7903 -0.6127 0.6127 0.7903 -22.0207 176.4478)" class="st0" cx="246.8" cy="120.4" rx="50.2" ry="24.6"/>
<ellipse class="st0" cx="541.1" cy="560.6" rx="32" ry="28.2"/>
<ellipse class="st0" cx="591.8" cy="641.6" rx="32" ry="28.2"/>
<ellipse class="st0" cx="411.7" cy="697.5" rx="32" ry="28.2"/>
<path class="st0" d="M245.3,570.8c0,0-42,18.4-65.7-11.7C156,529,185,504.9,220.7,521c35.7,16.1,85.5,45.3,82.5,88.1
	c0,0-61-10.7-91.7,16.4s12.4,55.2,50.8,57.3s11.5,43.1,154.1,75.9s213.5-7.9,213.5-7.9"/>
<path class="st0" d="M338.2,150.4c0,0-71,0.4-91.9,42.3s12.4,46.5,12.4,46.5s35.5,7.5,78.4-43.6c0,0-64.7,52.5-11.9,70.8
	c58.1,20,95.6-62.2,95.6-62.2s-54,74.4-10.7,82.1c40.3,7.2,72.9-65.8,72.9-65.8s-48.3,73.7,4.4,83.6s67.5-42.2,77.2-68
	c0,0-23.9,218.7-82.7,234c-58.8,15.3-91.3-11.3-100.9-36.9c0,0,8.6,57.7-52.8,51.2c-53.3-5.6-35.7-71.4-35.7-71.4
	s-10.8,92.4-87.6,67c-76.9-25.4-38.2-81.8-19.1-111.1c19.2-29.3,58.3-80.5,26-111.6s-92-108.2-3.4-178.2s112.4,18,176.8,20.2
	c64.4,2.2,91.7-15.5,136.3-32.7s114.2-13.1,120.1,56.7"/>
<path class="st0" d="M269.7,311.1c0,0,39.7,45.4,105.2,2.1"/>
<path class="st0" d="M600.1,294.3c0,0,57.4-10.3,45.9,40.9s-37.1,56-25.7,108.7c11.4,52.7-16.5,100-72.7,63.1"/>
<polyline class="st0" points="520.7,146.5 607.6,209.2 644.7,173.3 559.5,108.1 "/>
<ellipse class="st0" cx="419.5" cy="596.2" rx="63.6" ry="56"/>
<path class="st0" d="M463.3,735.4c0,0,88.1-17.2,64.4-85.5C504,581.7,466.5,558,466.5,558"/>
</svg>
