<?xml version="1.0" encoding="utf-8"?>
<!-- Generator: Adobe Illustrator 22.1.0, SVG Export Plug-In . SVG Version: 6.00 Build 0)  -->
<svg version="1.1" id="Calque_1" xmlns="http://www.w3.org/2000/svg" xmlns:xlink="http://www.w3.org/1999/xlink" x="0px" y="0px"
	 viewBox="0 0 574.8 746.1" style="enable-background:new 0 0 574.8 746.1;" xml:space="preserve">
<style type="text/css">
	.st0{fill:none;stroke:#FFFFFF;stroke-width:4;stroke-linejoin:round;stroke-miterlimit:10;}
</style>
<title>sens1</title>
<path class="st0" d="M69.3,295.5c0,0-71,96.5-58.6,164.7c10.3,56.6,45.4,20.6,71.8,27.4c26.4,6.9,54.9,27.4,65.2-18.9
	c10.3-46.3-33.7-53.2-43.2-36"/>
<path class="st0" d="M29,491.3c0,0-25.5,35.4,1.6,49.2s13.1-12.2,42-11.6s42.4,14.8,42,54.4c-0.5,39.6,47.8,30.1,50.1-1.1"/>
<path class="st0" d="M27.2,537.7c0,0-16.3,6.4-9.6,26.5c6.7,20.1,30.5,9.3,44,0.5c17.4-11.4,52.1,22.8,52.1,22.8
	s-34.5,35.6-73.4,26.7c0,0-24.3-4.4-19.3,34.8s38.9,30.8,68.2,25.8c0,0,42.3,58.8,164.8,48.4c0,0-20.7-53.8,34.4-65.1
	c55.1-11.3,19.3-54.3,19.3-54.3s-61.8,5.7-22.2-79.2s54.1-182.1,25.1-203.6"/>
<path class="st0" d="M434,294.9l-300.7,16.4C66.7,315,9.8,254.2,6.7,176.3l0,0C3.6,98.5,55.5,31.7,122,28.1l300.7-16.4
	c66.5-3.6,123.5,57.1,126.6,135v0C552.4,224.6,500.5,291.3,434,294.9z"/>
<line class="st0" x1="116.3" y1="132.7" x2="511.8" y2="117.8"/>
<line class="st0" x1="84.4" y1="178.6" x2="519.1" y2="157.3"/>
<path class="st0" d="M70.7,220.2c0,0,110.3-18.1,110.3,30.9s0,58.7,0,58.7"/>
<path class="st0" d="M434,294.9c0,0-23.4-80,29.5-93.9c52.9-13.9,61.1-8.5,61.1-8.5"/>
<line class="st0" x1="223.6" y1="233.4" x2="224.2" y2="308.2"/>
<line class="st0" x1="307.4" y1="234.1" x2="309.2" y2="302.6"/>
<line class="st0" x1="378.6" y1="221.4" x2="378.6" y2="299.7"/>
<path class="st0" d="M564.6,496.6c0,74.7-77.7,112.7-141.5,112.7s-89.5-38-89.5-112.7s51.7-135.3,115.5-135.3
	S564.6,421.9,564.6,496.6z"/>
<path class="st0" d="M158.8,340.9c0,0-13.7,39.7,24.2,38.7c37.9-0.9,60.5-37.8,60.5-37.8"/>
<path class="st0" d="M530.3,268.8c0,0,36.7-17.6,36.1,42.6c-0.5,56.9-37.7,66.1-37.7,66.1"/>
<path class="st0" d="M253.8,723.1c0,0,80.3,24.5,94.2-16.9c0,0,14,23.1,50.9,15.4c21.2-4.4,34.3-16.4,41.7-34.7
	c5.6-13.6,8-30.8,8.4-50.9"/>
<path class="st0" d="M527.9,571.6c0,0,20.5,100.9-21.3,116.3s-65.8-1-65.8-1"/>
<line class="st0" x1="449.1" y1="361.3" x2="440.2" y2="317.6"/>
<path class="st0" d="M479,431.4c38.9,14.4-6.4,118.7-6.4,118.7s71.9-3.4,67.6-77.4"/>
<path class="st0" d="M458.2,484.2c-12.2-7.1-17.2-24.5-11.1-38.8s23.2-19.3,35.5-12.2"/>
<path class="st0" d="M374.9,390c0,0,94.8,136.7,62.7,220.1"/>
</svg>
