<?xml version="1.0" encoding="utf-8"?>
<!-- Generator: Adobe Illustrator 22.1.0, SVG Export Plug-In . SVG Version: 6.00 Build 0)  -->
<svg version="1.1" id="Calque_1" xmlns="http://www.w3.org/2000/svg" xmlns:xlink="http://www.w3.org/1999/xlink" x="0px" y="0px"
	 viewBox="0 0 574.8 746.1" style="enable-background:new 0 0 574.8 746.1;" xml:space="preserve">
<style type="text/css">
	.st0{fill:none;stroke:#FFFFFF;stroke-width:4;stroke-linejoin:round;stroke-miterlimit:10;}
</style>
<title>sens1</title>
<path class="st0" d="M435.3,637.2c0,0-4.2-33.4,31-44.4c13.2-4.1,19.4-15.7,23.1-28.2c15-50.7-15.5-76.9-52.3-82
	c-7.6-1.1-16.3-1.5-26.1-1.1c-70.4,3-96.1,53.7-164.3,40.4c-68.2-13.3-63.2-81.5-53.7-115.9s-16.8-53.7-43.6-55.5
	c-26.8-1.8-54.8,6-58.7,50.1"/>
<path class="st0" d="M319.9,444.3c0,0,37.9,2.6,56.8-56.2s88.8-57.5,114.8-29.4c26,28.1,46.2,112.5,29.6,182.7
	c-16.6,70.3-33.1,97.1-52.1,108.6"/>
<ellipse class="st0" cx="259.6" cy="301.8" rx="67.7" ry="73.1"/>
<ellipse class="st0" cx="258.3" cy="301.2" rx="36.3" ry="39.1"/>
<path class="st0" d="M173.4,286.9c0,0-31.6,56.8-98.5,30C7.9,290.1,34.2,85.5,183.2,44.1s276.5-15,305.4,1.6
	c39,22.4,103.1,80.4,54.2,203.8"/>
<path class="st0" d="M68.9,314.7c0,0-41.5,40.2-55,107.8c-5.5,27.8,1.6,63.5,27.8,70.2c19.3,4.9,7.7-45.9,43.7-41.5
	c36.1,4.5,21.9,41.5,7.1,47.2"/>
<path class="st0" d="M411,481.6c0,0-57.8-5.4-89,106.3c0,0,0,49.1-94.5,55.8S83.9,625.4,85.7,661c1.8,35.6,35.7,62.6,136.4,61.6
	s198-2.4,237.2-19c0,0,105.1-26.4,106.4-167.4c1.3-141,6.7-229.9-44.8-266.5s-167.1-5.4-173.4,20.3"/>
<path class="st0" d="M35.4,512.4c0,0-54,93,0.8,97.7c0,0,26.9,1.9,41.9-39.3s62.1-13.1,59.4,18.9c0,0-5.4-43.5,37.1-40
	s34.4,42.9,34.4,42.9s1.5-62.9,48.4-45.3c44.6,16.8,34.3,74.5,34.3,74.5"/>
<path class="st0" d="M74.1,579.5c0,0-24.8,63.1,39,61.8c0,0,28.2,4.9,24.4-51.8c0,0-9.7,55.9,29.4,55s41.1-9.7,42.4-62.4
	c0,0-6.6,66.2,25,62.4c38-4.6,62.2-11.6,57.8-46.5"/>
<path class="st0" d="M156.4,266.1c0,0-6.1-68.7-63.6-83.9c0,0,177.7-10.9,318.1,39.2"/>
<ellipse transform="matrix(0.2787 -0.9604 0.9604 0.2787 112.9981 407.9617)" class="st0" cx="328.1" cy="128.8" rx="40.1" ry="114.7"/>
</svg>
