<?xml version="1.0" encoding="utf-8"?>
<!-- Generator: Adobe Illustrator 22.1.0, SVG Export Plug-In . SVG Version: 6.00 Build 0)  -->
<svg version="1.1" id="Calque_1" xmlns="http://www.w3.org/2000/svg" xmlns:xlink="http://www.w3.org/1999/xlink" x="0px" y="0px"
	 viewBox="0 0 574.8 746.1" style="enable-background:new 0 0 574.8 746.1;" xml:space="preserve">
<style type="text/css">
	.st0{fill:none;stroke:#FFFFFF;stroke-width:4;stroke-miterlimit:10;}
	.st1{fill:none;stroke:#FFFFFF;stroke-width:4;stroke-linecap:square;stroke-linejoin:round;stroke-miterlimit:10;}
</style>
<title>sens1</title>
<path class="st0" d="M105.6,357.3c0,0,39.9-35,62.2-18c22.4,17,7.6,80.4-26.1,75.6s-17.7-40.4-78.4-32.3
	c-60.8,8.1-50.4-58.5-19.1-80.8c31.3-22.3,132.1-169,199.6-219s154.8-57.2,192.5-50.4"/>
<path class="st0" d="M121.5,136.6c-6,5.4-39.2,37.2-44.5,43.4c-23.3,27-54.7,57.8-68.4,39.8c-13.6-17.9,4.1-31,17.7-37.9
	c3-1.5,2.8-6.2-0.4-7.3c-8.4-3-17-10.3-13.4-28.3c8.2-41.3,65.9-13.4,65.9-13.4s-53-16.3-38.6-50.4c14.7-34.8,63.8-0.6,63.8-0.6
	s-50.2-20.4-27.3-57c26.3-42,145.5-4.4,149.7,0s8.7,15.5-11.3,28.2L121.5,136.6z"/>
<path class="st0" d="M300.1,497.8c-1.5-29.8-28.1-39.4-62.8-27.9c-51.2,17-96.5-1.6-96.5-1.6c-12.8-4.8-35.7-17.7-50.2-29.7
	c-6.1-5.1-18-12.2-25.9-10.8c-7.6,1.3-16.2,4.2-19.3,16.7c-6.2,25,15.3,32.5,40.5,45.4c16.2,8.3,32,16.8,47.9,22.8
	c0,0,16.4,7.3,40.1,13c-7.6,1.1-15.5,1.7-23,0.4c-32.7-5.4-79.3-35.7-94.1-4.7c0,0-14.7,28.6,31.4,48.6s67.4,20.7,86.3,12.9
	c17.8-7.4,46.5-31.9,45.4-50.9C260.8,533.1,301.6,528.5,300.1,497.8z"/>
<path class="st0" d="M163.8,685.9c-1.4,0.3-2.8,0.6-4.2,1c-5.4,1.5-23.7,4.9-43.5-8.4c-23.6-15.9-38.9-40.3-59.6-30.5
	s-15.7,39.9,1.4,60.3c17.1,20.4,55.8,32.1,73.5,31.4c30.9-1.2,51.9-8.5,76.9-30c24.1-20.8,30.6-46.8,30.6-46.8s-4.4,72.5,57.5,68.2
	c0,0,55.4-6.8,78-34.1s-8.3-43.5-21.8-37.8S293,694.1,279.2,673c-13.8-21.1-7.8-40.7-24.3-51.5c-16.5-10.9-36.5-5.7-47,14.6
	C194.2,663,173.6,683.7,163.8,685.9z"/>
<ellipse class="st0" cx="485.9" cy="412.9" rx="41.5" ry="55.2"/>
<path class="st0" d="M571.5,90c0,0-73.9-45-127.1,4s-33.1,90-10.9,89.5c22.2-0.4,22.5-14.8,77.3-2.9c0,0-63.9-19.8-90.2,29.7
	c-26.3,49.5,11.8,65,23.8,63.9s77.3-0.9,83.1,14.8c0,0-74.3-38.2-124.6,37.9c-23.1,35-22.4,78.6-19.1,104
	c3.1,24.2,14.4,50.6,29.4,68.9c11.1,13.5,25.2,28.5,72.5,34.2c45.7,5.5,57.1-33.2,57.1-33.2s-18.7,83.7-63.7,82.7
	c-34.7-0.7-40.5-13-43.1-23.2c-1.5-6-3.2-21.9-14.8-25.7c-8-2.6-21.5-5.9-32.9,13.5c-20.1,34.5-1.3,72.6,25,87.5
	s64.2,30.2,100.6,12.1c33.1-16.4,50.4-57.3,50.4-57.3"/>
<path class="st0" d="M384.3,284.1c0,0-66.9,36.4-62.2,122.7s45.5,113.4,45.5,113.4"/>
<path class="st0" d="M226.2,97.4c0,0-63.8,43.1-35.9,90.2c19.6,33,109.6,21.7,161.5,12.1c5.5-1,8.3,6.9,3.6,10
	c-22.2,15-50.1,40.4-66.4,79.8c-32.3,78.1-124.8,43.7-117-10.5c7.9-54.2,56.2-41.5,63.8-23.2s0,38.5-19.3,37.6"/>
<path class="st1" d="M301,321c0,0,27.8,41.2-27.2,58.4c-17.4,5.4-26.9,17.7-21.1,29.3c5.3,10.6,22.9,20.6,69.8,20.9"/>
</svg>
