<?xml version="1.0" encoding="utf-8"?>
<!-- Generator: Adobe Illustrator 22.1.0, SVG Export Plug-In . SVG Version: 6.00 Build 0)  -->
<svg version="1.1" id="Calque_1" xmlns="http://www.w3.org/2000/svg" xmlns:xlink="http://www.w3.org/1999/xlink" x="0px" y="0px"
	 viewBox="0 0 574.8 746.1" style="enable-background:new 0 0 574.8 746.1;" xml:space="preserve">
<style type="text/css">
	.st0{fill:none;stroke:#FFFFFF;stroke-width:4;stroke-linecap:square;stroke-linejoin:round;stroke-miterlimit:10;}
	.st1{fill:none;stroke:#FFFFFF;stroke-width:4;stroke-linejoin:round;stroke-miterlimit:10;}
</style>
<title>sens1</title>
<g>
	<path class="st0" d="M146.6,350.2c0,0,35.4,4.7,35.4,43.8s-33.4,45.5-72.5,39.5S1.4,405.4,43.9,332.7S188.8,124.8,314.3,88.1"/>
	<path class="st0" d="M303.1,230.3c-0.8,2.2-41.9,47.6-88.8,14"/>
	<path class="st0" d="M85,490.1c43.5,17.1,80.1,56,69.6,79.9c-6.1,13.8-27.3-0.3-38.9-4.3c-13.4-4.6-43.7-10.6-74.1-15.5
		c-40.8-6.5-54.1-59-11.6-70.9c5-1.4,44.9,7.1,48.6-26.5"/>
	<path class="st0" d="M417.2,445.7"/>
	<path class="st0" d="M331.9,532.8"/>
	<path class="st0" d="M420.4,561.5"/>
	<path class="st0" d="M374.7,614.9"/>
	<path class="st0" d="M209.5,578.3c-25.2,47.4-55.9,26-55.9,26S125,587,103.8,582s-71.2-4.1-70.1,37.6c1,34.7,65.3,3.7,78.7,26.9
		c25,43,35.3,94.7,132,93.6c34.7-0.4,92.7-18.9,125.2-47.5c50.5-44.4,72.5-108.5,85.3-140.4"/>
	<path class="st0" d="M206.2,3.7c-23.6-2.8-45,14.9-47.6,39.5c-0.4,3.5-0.3,7,0.1,10.4C139.9,49,114,59.2,93.4,81.2
		c-26.5,28.4-33.9,65.7-16.5,83.3s53.1,8.8,79.6-19.7c16.5-17.7,25.6-38.8,25.9-56.4c4.3,2.2,9.1,3.7,14.1,4.3
		c23.6,2.8,45-14.9,47.6-39.5C246.8,28.7,229.8,6.5,206.2,3.7z"/>
	<path class="st0" d="M497.5,90.6c0,0-43.7-15.8-66.8-18.9c-15.3-2.1-60.7-8.4-82.8,8.8c-9.1,7.1-9.6,16.5-5.2,23.7
		c8.1,13.4,27.8,10.4,35.8,9.8c16.6-1.2,35.6-2,55.8-1.8c23.9,0.3,61.1-0.5,60.3,22.5c-1,29.7-55.5,9.5-87.4,13.3
		c-24.1,2.9-35.4,12.1-35.7,27.3c-0.2,7.3,4.5,14.5,14.3,17.4c10.7,3.1,29,0.2,40.4-4.1c21.9-8.3,55.6-20.5,65.8-5.7
		c10.2,14.8,0.3,32.3-30.4,38.7s-54.4,26.9-80,64.9c-4.7,6.9-9.6,15.2-14.6,24.1c-33.2,59.1-55.7,124.2-66,191.8
		c-1.1,7.3-2,14.2-2.5,20.1c-3.5,39.7,0.5,87.5,3.3,94.9s9.4,47.6,31.4,43.9s6-39,7.8-103.6c3.1-110.4,38.9-191.1,74.3-245.4
		c14.2-21.8,45.1-50.3,62.4-52.1c33.9-3.5,44.9,19.6,11.7,56.2c-51.6,56.9-67.7,64.1-90.3,163.4c-22.6,99.2-12,121.3-12,121.3"/>
	<path class="st0" d="M503,507.9c0,0,35.8,96.8-43.2,124.4c-54.9,19.2-45,107.7,28.2,107.5c100.1-0.4,100-186.8,49.4-239.1
		c-5-5.2-13.4-12.5-22.1-17.4c-5.2-2.9-18.7-7.2-31.8-13.1c-30-13.6-33.1-55.7-1.7-65.6c34.3-10.8,52,32.6,26.2,52.6"/>
	<path class="st1" d="M195.7,335.4c0,0,87.2,22.4,128.2-60.7c0,0-84.1,171.6-82.1,253.6"/>
</g>
</svg>
