<?xml version="1.0" encoding="utf-8"?>
<!-- Generator: Adobe Illustrator 22.1.0, SVG Export Plug-In . SVG Version: 6.00 Build 0)  -->
<svg version="1.1" id="Calque_1" xmlns="http://www.w3.org/2000/svg" xmlns:xlink="http://www.w3.org/1999/xlink" x="0px" y="0px"
	 viewBox="0 0 574.8 746.1" style="enable-background:new 0 0 574.8 746.1;" xml:space="preserve">
<style type="text/css">
	.st0{fill:none;stroke:#FFFFFF;stroke-width:4;stroke-linejoin:round;stroke-miterlimit:10;}
</style>
<title>sens1</title>
<ellipse transform="matrix(0.8334 -0.5526 0.5526 0.8334 -25.4597 76.3749)" class="st0" cx="114" cy="80.4" rx="53.5" ry="25.4"/>
<ellipse class="st0" cx="438.4" cy="520.6" rx="35.3" ry="28.2"/>
<ellipse class="st0" cx="494.2" cy="601.6" rx="35.3" ry="28.2"/>
<ellipse class="st0" cx="295.8" cy="657.5" rx="35.3" ry="28.2"/>
<path class="st0" d="M112.4,530.8c0,0-46.3,18.4-72.4-11.7C13.9,489,45.9,464.9,85.3,481s94.2,45.3,90.9,88.1
	c0,0-67.2-10.7-101.1,16.4s13.7,55.2,56,57.3s12.7,43.1,169.8,75.9s235.3-7.9,235.3-7.9"/>
<path class="st0" d="M214.7,110.4c0,0-78.3,0.4-101.3,42.3s13.7,46.5,13.7,46.5s39.1,7.5,86.4-43.6c0,0-71.3,52.5-13.1,70.8
	c64,20,105.4-62.2,105.4-62.2s-59.5,74.4-11.8,82.1c44.4,7.2,80.4-65.8,80.4-65.8s-53.2,73.7,4.8,83.6c58,9.9,74.4-42.2,85.1-68
	c0,0-26.3,218.7-91.2,234c-64.8,15.3-100.6-11.3-111.2-36.9c0,0,9.5,57.7-58.2,51.2c-58.7-5.6-39.3-71.4-39.3-71.4
	s-11.9,92.4-96.5,67c-84.7-25.4-42.1-81.8-21-111.1c21.2-29.3,64.2-80.5,28.7-111.6S-25.8,109.1,71.9,39.1s123.9,18,194.9,20.2
	S367.9,43.8,417,26.6s125.9-13.1,132.4,56.7"/>
<path class="st0" d="M139.3,271.1c0,0,43.7,45.4,115.9,2.1"/>
<path class="st0" d="M503.4,254.3c0,0,63.3-10.3,50.6,40.9s-40.9,56-28.3,108.7s-18.2,100-80.1,63.1"/>
<polyline class="st0" points="415.9,106.5 511.7,169.2 552.6,133.3 458.6,68.1 "/>
<ellipse class="st0" cx="304.4" cy="556.2" rx="70.1" ry="56"/>
<path class="st0" d="M352.6,695.4c0,0,97.1-17.2,71-85.5c-26.1-68.2-67.4-91.9-67.4-91.9"/>
</svg>
