<?xml version="1.0" encoding="utf-8"?>
<!-- Generator: Adobe Illustrator 22.1.0, SVG Export Plug-In . SVG Version: 6.00 Build 0)  -->
<svg version="1.1" id="Calque_1" xmlns="http://www.w3.org/2000/svg" xmlns:xlink="http://www.w3.org/1999/xlink" x="0px" y="0px"
	 viewBox="0 0 574.8 746.1" style="enable-background:new 0 0 574.8 746.1;" xml:space="preserve">
<style type="text/css">
	.st0{fill:none;stroke:#FFFFFF;stroke-width:4;stroke-linecap:square;stroke-linejoin:round;stroke-miterlimit:10;}
</style>
<title>sens1</title>
<path class="st0" d="M558.1,80.7c0,0-101.7,3.6-118.5,29.2c-16.8,25.7,0.3,45.7,5.4,47.9c5.1,2.3,32.6,6.8,59.1-14.2
	c0,0-58.2,42.5-45.6,75.8c12.6,33.3,50.5,10.9,61.4-8c0,0-1,48.2-58.7,69.3"/>
<path class="st0" d="M452.6,578.5"/>
<path class="st0" d="M301.4,685.3c-22.8,33.2-71.7,43.6-113.8,40.5s-92.5-42.1-76.1-73.8c0,0,23.8-43.2,5.9-93.7
	c-3.9-11-7.3-24.8-3.1-39.2c0.1-0.3,0.2-0.6,0.3-0.9c6.7-22.1,35.3-23.5,43.7-2.1l6.3,15.1c11.1,26.8,44.2,36.5,68,19.8l0,0
	c17.6-12.4,41.2-12.2,58.7,0.3l0,0c48.5,34.8,114.3,32.5,160.3-5.6l54.2-45"/>
<path class="st0" d="M405,277c0,0,115,140.1,154.6-7.2v230.9"/>
<path class="st0" d="M341.9,272.5c0-36.8-27.6-66.6-61.8-66.6c-0.9,0-1.9,0-2.8,0.1c-53.1,2.6-70.6,72.8-26,101.8
	c17.8,11.6,43.8,20.6,80.1,16.7l-77.4,88.8c-30.7,35.2-81.5,46.6-123.4,25.9c-11.7-5.8-24.6-8.5-37.8-5.2"/>
<path class="st0" d="M132.6,378.1c0,0,4.9,53.5-39.9,55.8s-62.4,87.9,15.7,84.3"/>
<path class="st0" d="M451.9,379c0,0-129.6-3.3-141.2,72.5c-11.6,75.8,78,93.5,102.1,50.1c28.1-50.5-19.8-98.9-66-84.4
	c-32.5,10.2-36.1,34.3-36.1,34.3"/>
<path class="st0" d="M372.8,23.8c0,0,116.9-3.4,116.9,61.9"/>
<path class="st0" d="M145.8,299.1c0,0,43,4.3,43,40.6s-40.5,42.1-87.9,36.6c-47.5-5.5-131.2-26-79.6-93.3
	C59.1,233.5,136.3,152.6,235,99.8"/>
<path class="st0" d="M505.8,424.4c67,69.8,83.6,134.3,13.8,201.3S339,690.6,272,620.8"/>
<ellipse transform="matrix(0.9236 -0.3833 0.3833 0.9236 -28.106 58.4935)" class="st0" cx="132.7" cy="99.8" rx="77.4" ry="51.4"/>
<path class="st0" d="M113.4,643.7c-18.1-2.1-66.7-14.3-63.6-85.5h62.8"/>
<circle class="st0" cx="275.5" cy="261.9" r="22.7"/>
<path class="st0" d="M207.5,160.3c0,0-23.8,49.4,32.9,58.7"/>
</svg>
