<?xml version="1.0" encoding="utf-8"?>
<!-- Generator: Adobe Illustrator 22.1.0, SVG Export Plug-In . SVG Version: 6.00 Build 0)  -->
<svg version="1.1" id="Calque_1" xmlns="http://www.w3.org/2000/svg" xmlns:xlink="http://www.w3.org/1999/xlink" x="0px" y="0px"
	 viewBox="0 0 971.5 1255.4" style="enable-background:new 0 0 971.5 1255.4;" xml:space="preserve">
<style type="text/css">
	.st0{fill:none;stroke:#FFFFFF;stroke-width:4;stroke-linecap:square;stroke-linejoin:round;stroke-miterlimit:10;}
	.st1{fill:none;stroke:#FFFFFF;stroke-width:4;stroke-linejoin:round;stroke-miterlimit:10;}
</style>
<title>sens0</title>
<g>
	<g>
		<path class="st0" d="M265.6,521.9c0,0,67.8,8.6,67.8,80.7s-63.9,83.8-138.8,72.9c-74.9-11-207-51.8-125.6-185.7
			S346.5,106.6,586.7,39s229.2,2.8,226.8,14.6c-10.9,53.4-170.7,70.9-133.4,129.9c26.3,41.6,111.7-34.2,213.5-84.8
			c93.3-46.4,70.7,57-30.7,102.1s-143.5-20.2-145,182.8c-1.5,203-6,271.7,45.1,270.2c51.1-1.5-27.7-356.1,36.1-356.8
			c76.6-0.8-24.5,358.6,55.8,358.8c33.8,0.1,34.6-34.9,32.5-208c-0.5-44.6-24.7-182.8,28.9-183.6c85.9-1.4,35.7,391,35.7,391"/>
		<path class="st0" d="M392.3,225.7c1.6-4,80.1-87.7,170-25.7"/>
		<path class="st0" d="M339,884.4c-19.4,21.1-64.3-7-90.2-16.3c-30-10.8-99.3-27.9-169.2-43.2C-14.3,804.4-26.7,715.4,78,706.1
			C177.3,697.3,384.8,834.6,339,884.4z"/>
		<path class="st0" d="M386,942.2c-48.3,87.4-107,47.9-107,47.9s-54.7-31.8-95.2-41.1s-136.3-7.5-134.1,69.2
			c1.8,63.9,125,6.9,150.7,49.6c47.8,79.2,67.6,174.6,252.6,172.5c169.6-1.9,325.5-160.1,410.1-222.1c14.2-10.4,46-33.6,56.5-41.7
			c14.5-11.3,38-32.2,20.5-57.3c-5.3-7.6-21.3-14.7-41.7-7.4c-37.4,13.4-212.2,113.1-196,97.8c13.1-12.4,106-50.4,87.4-98.3
			c-21-54.1-126.9,12.9-126.9,12.9s134.6-60.7,103.5-101.8c-32.7-43.1-145.9,35.9-145.9,35.9s206.3-111,163.3-160.5
			c-35.2-40.4-147.7,39.1-196.1,80.3c-42.6,36.3-101.1,26.1-154.6,54.4"/>
	</g>
	<ellipse class="st1" cx="509.6" cy="467" rx="102.2" ry="158.8"/>
</g>
</svg>
