<?xml version="1.0" encoding="utf-8"?>
<!-- Generator: Adobe Illustrator 22.1.0, SVG Export Plug-In . SVG Version: 6.00 Build 0)  -->
<svg version="1.1" id="Calque_1" xmlns="http://www.w3.org/2000/svg" xmlns:xlink="http://www.w3.org/1999/xlink" x="0px" y="0px"
	 viewBox="0 0 574.8 746.1" style="enable-background:new 0 0 574.8 746.1;" xml:space="preserve">
<style type="text/css">
	.st0{fill:none;stroke:#FFFFFF;stroke-width:4;stroke-linejoin:round;stroke-miterlimit:10;}
</style>
<title>sens1</title>
<path class="st0" d="M546.5,383.5c0,0,52.8-179.4-54.7-226.7S263,124.1,194.6,215.4S112.5,345.4,56,390.6S41.9,473,92.9,464
	c0,0,8.7,28.1,47.7,19.9c39.1-8.1,22.8-48.9-1.1-54.3"/>
<path class="st0" d="M68.1,462.9c0,0-5.2,24.7-28.9,32.1s10.4,59.3,64.4,57.5c54-1.9,9.6-51.3-9.6-53.1"/>
<path class="st0" d="M62.6,542.9c0,0-30.1,4.2-28.1,27.1s52.8,21.7,54.2,44c1.4,22.3-2.7,68.6,128.9,60.1c0,0,83.8,7.6,169.6,2.6
	c85.8-5,143.3-66.5,151.3-179.9l6.9-98.2c0.7-10.1,2.2-20.2,4.3-30.2l2.4-10.9"/>
<path class="st0" d="M194.6,215.4c0,0,82.2-26.2,123.5,29.7s-16.3,119.1-52.4,128.4c-36.1,9.3-40.4,41.6-7.7,66
	c32.7,24.4-17.2,58.1-17.2,58.1"/>
<path class="st0" d="M132.2,302.9c0,0,54.7,70.5,122.7,35.9s35.2-87.4-7-103.1c-29.6-11-70.4,2.6-70.4,2.6"/>
<path class="st0" d="M162.8,328.7c0,0-41.6,51.5,33.7,46.1"/>
<path class="st0" d="M84.3,603.7c0,0-88.6,20-73,82.9s123.3,55.4,149.1,33.5s23.9-44,23.9-44"/>
<path class="st0" d="M10.4,678c0,0,22.7,0,39.2-13.2"/>
<path class="st0" d="M33.7,719.7c0,0,38.5-14.2,51.8-43.8"/>
<path class="st0" d="M85.6,735.5c0,0,32.9-11.1,37.9-40.1"/>
<path class="st0" d="M151.4,274.8c0,0-72.9,19.9-83.4-48.2S69.4,70.4,262.6,73.5c0,0-17.2,53.7,23.2,71.2"/>
<path class="st0" d="M376.4,129.1c0,0,51.7-18.7,29.9-63.1s-77.1-21.9-144.5-28.7s-84.6-36.2-155-27.5C89.2,12,72.7,17.8,58.6,25.8
	c-51.7,29.4-36.3,96.3,24.3,109l0,0"/>
<path class="st0" d="M66.7,213.3c0,0-47.5,9.4-51.6-8.7s-4.3-46.8,15.7-42.8c20.2,4.1,36.3,5.2,36.3,5.2s-54,0-47.8-24.2
	s35.3-17.9,58.9-6.3"/>
<path class="st0" d="M72.5,240.8c0,0-16,16.7-42.1,12.3c-26-4.5-20-37.3-3-38.5c0,0,28.7,2,37.1-1.1"/>
<path class="st0" d="M119.5,275.9c0,0-10.4,51.6-59.8,39.9S30.4,253,30.4,253"/>
<path class="st0" d="M226.6,181.3c0,0-5.6-24.5-33.3-22.2c-27.8,2.3-26.5,20.6-25,33.5c2.8,24.5-33.3,29.8-42.1,1.7
	s5.2-92.8,133.8-91.4"/>
<ellipse class="st0" cx="334.6" cy="85.4" rx="24" ry="20"/>
<path class="st0" d="M270.2,552.3c0,0,64.3-56.9,42.9-136.6L393,651.5"/>
<path class="st0" d="M354,417.3c0,0,64.3-56.9,42.9-136.6l79.9,235.8"/>
</svg>
