<?xml version="1.0" encoding="utf-8"?>
<!-- Generator: Adobe Illustrator 22.1.0, SVG Export Plug-In . SVG Version: 6.00 Build 0)  -->
<svg version="1.1" id="Calque_1" xmlns="http://www.w3.org/2000/svg" xmlns:xlink="http://www.w3.org/1999/xlink" x="0px" y="0px"
	 viewBox="0 0 574.8 746.1" style="enable-background:new 0 0 574.8 746.1;" xml:space="preserve">
<style type="text/css">
	.st0{fill:none;stroke:#FFFFFF;stroke-width:4;stroke-miterlimit:10;}
	.st1{fill:none;stroke:#FFFFFF;stroke-width:4;stroke-linecap:square;stroke-linejoin:round;stroke-miterlimit:10;}
</style>
<title>sens1</title>
<path class="st0" d="M358,178.1"/>
<path class="st0" d="M172.4,354.2c0,0,44.5,4.5,44.5,42s-41.9,43.6-91,37.9s-135.8-26.9-82.4-96.6
	c39.3-51.2,119.2-134.9,221.4-189.6"/>
<path class="st0" d="M180.5,542.9c-10.1,11-33.5-3.6-46.9-8.5c-15.6-5.6-51.7-14.5-88-22.5c-48.9-10.7-55.3-57-0.8-61.8
	C96.3,445.5,204.3,516.9,180.5,542.9z"/>
<path class="st0" d="M229.4,515.9"/>
<path class="st0" d="M369.5,608"/>
<path class="st0" d="M232.7,572.9c0.9,20.6-11.8,26.8-24.8,27.9c-13.5,1.1-26.8-4.1-37-13.8c-12.3-11.6-33-29-51.8-33.3
	c-19.4-4.4-49.2-1.9-48.1,38.1c0.9,33.3,60.9,24.3,73.2,46.5c22.8,41.2,32.2,90.8,120.5,89.8c80.9-1,187-17.3,227.3-49.6
	c4.4-3.5,12.2-9.7,18.6-14.9c10.7-8.6,19.1-20.2,23.8-33.7c5.8-16.7,7.7-39.9-7.8-65.9"/>
<ellipse transform="matrix(0.9505 -0.3107 0.3107 0.9505 -70.9703 90.2838)" class="st0" cx="247.9" cy="267.9" rx="62.1" ry="39.2"/>
<circle class="st0" cx="142.8" cy="91.6" r="81.9"/>
<circle class="st0" cx="140.8" cy="92.3" r="20.6"/>
<path class="st0" d="M303.9,143.5c0,0,11.2,43.4,41.1,39.8c9.7-1.2,14.9-7.7,19.1-16.1c18-35.6,55.1-42,78-12.1
	c0.5,0.7,1,1.4,1.5,2.1c11.2,15.9,20.8,22.3,42.2-3.7c38.7-46.8,67.9,27.1,67.9,19.3"/>
<path class="st0" d="M519.7,265.4c-50.9-15.2-109.3,31.3-131.2,103.5c-21.1,69.4,1.7,133.7,50.4,157.6c1.5,0.7,3.2,1.1,4.8,1.8
	c8,3.3,37.2,14.5,53.9,5.6c9.7-5.2,10.5-11.7,8.8-16.9c-1.7-5.3-6.2-9.2-11.6-10.7l-17.8-4.9c-37.6-11.2-55.2-63.7-39.3-117.1
	s58.4-83.7,97-76.5c8.4,1.6,29.7,4.7,28.9,27.2s-26,13.7-26,13.7c-24.2-7.2-52.1,14.8-62.3,49.1c-4.3,14.5-4.8,28.9-2.1,41.2
	c4.4,19.9,32,22,39.3,3l14.6-37.9"/>
<path class="st0" d="M525.5,20.8H270.9c-4.9,0-9.8,1.2-14.1,3.7c-4.9,2.9-9.8,8-9.8,16.7s4.9,14.1,9.8,17.4c4.4,3,9.7,4.3,15,4.3
	h253.7c0,0,24.8-1.5,24.8,20.1c0,10.8-6.2,17.1-12.4,20.7c-5.3,3-11.3,4.4-17.4,4.4h-254"/>
<path class="st1" d="M251.3,432.9c0,0-11.6-57.5,34.7-76.7s80.9,38.4,61.6,76.7s-53.9,38.4-53.9,38.4s75.7-4.4,77,64.9
	s-93.7,67.9-115.5,1.5"/>
</svg>
