<?xml version="1.0" encoding="utf-8"?>
<!-- Generator: Adobe Illustrator 22.1.0, SVG Export Plug-In . SVG Version: 6.00 Build 0)  -->
<svg version="1.1" id="Calque_1" xmlns="http://www.w3.org/2000/svg" xmlns:xlink="http://www.w3.org/1999/xlink" x="0px" y="0px"
	 viewBox="0 0 574.8 746.1" style="enable-background:new 0 0 574.8 746.1;" xml:space="preserve">
<style type="text/css">
	.st0{fill:none;stroke:#FFFFFF;stroke-width:4;stroke-linejoin:round;stroke-miterlimit:10;}
</style>
<title>sens1</title>
<path class="st0" d="M158.5,347.9c0,0,42.3,0.7,38.3,53.9s-57.7,49.6-82.5,32.3c-16-11.1-30.8-6.1-39.4-1.2
	c-9.5,5.5-20.4,7.7-30.9,5.2c-16.2-3.9-33.5-17.7-25-61.5C33.7,300.5,73.3,239.5,130.3,238"/>
<path class="st0" d="M79.5,257.1c0,0-50.2,3.5-49.1-62.9c0.5-31,1.2-52.5,1.9-66.7c1-23.1,9.9-45.2,25.7-61
	c16.5-16.5,41.7-27.9,76.5-7.4"/>
<path class="st0" d="M183,231.1c0,0-2.2,20.3-29.9,14.8S99,230.5,108.4,138.2s58.4-98.3,96.6-97.3c14.1,0.4,18.9,2.8,21.6,7.3
	c4.5,7.7,2.9,21.5,30.8,42.1c44.3,32.8,92.3,25.9,92.3,25.9s85-7.8,100.3-83.9c0,0,65.9-14.9,90.1,19.6s10.8,505,10.8,505
	s20.1,147.8-85.9,150.4c-106,2.6-124.4-4.3-124.4-4.3"/>
<path class="st0" d="M226.5,48.1c0,0,44.8-27.9,120.7-27.3C423.1,21.3,450,32.3,450,32.3"/>
<ellipse class="st0" cx="344.1" cy="64.2" rx="16.1" ry="17.2"/>
<path class="st0" d="M176.9,169.9c0,0-34,70.3,44.6,73.6c45.6,2,26.7-25.9,107.2-33.2s94.3,48.4,94.3,48.4s24.8-50.4,77.5-25.8"/>
<path class="st0" d="M290.4,218.3c0,0,18,70.3-16.1,73.6c-34.1,3.3-63.2,15.3-50.2-33.2"/>
<path class="st0" d="M198.6,306.5c0,0-8.7,94.9,83.1,94.2c91.7-0.7,106-3.3,128.3-27.9s18.6-110.1,44-116.1"/>
<path class="st0" d="M58.7,438.8c0,0-16.8,29.9-26,40.5c-8,9.3-10.2,36.8,11.9,39.7c3.2,0.4,6.8,0.3,11-0.4
	c33.7-5.7,57.4-7.4,69.3,11.1c11.9,18.4,61.6,39.3,91.8,29.5c0,0,8-3.7,1.5-13.1c-6.5-9.4-31,3.7-45.5-11.9
	c-14.5-15.6-20.9-24.5-47.1-44.2c-29.8-22.5-77.7-12.7-93-10.6"/>
<path class="st0" d="M43.8,521.8c0,0-25.1,42.5-7.4,63.4c17.7,20.9,37.2,17.3,41.3-0.7c4-17.9,26.1-16.3,50.9-11.3
	c24.8,5,18.9-25.6,18.9-25.6"/>
<path class="st0" d="M214.3,561.4c0,0,17.3,31.6-15.7,35c-33,3.4-116.9,4.7-124.4-5.4"/>
<path class="st0" d="M58.9,598.4"/>
<path class="st0" d="M523.2,629.3c0,0-81.4,27.3-101.4-28.8c-20-56.1-13.5-152.3,0.7-180.8c17.9-36.2,41.4-55.4,106.9-53.9"/>
<path class="st0" d="M54.2,616.6c0,0-46.1,64.2-2.8,89.9c43.4,25.7,142.1,18.8,156-16.8"/>
<ellipse class="st0" cx="103.6" cy="651.7" rx="16.4" ry="17.6"/>
<ellipse class="st0" cx="497.3" cy="432.7" rx="16.4" ry="17.6"/>
<ellipse class="st0" cx="511.1" cy="562.7" rx="16.4" ry="17.6"/>
<ellipse class="st0" cx="464.2" cy="512.4" rx="16.4" ry="17.6"/>
<line class="st0" x1="266.9" y1="495.9" x2="266.9" y2="658.2"/>
<path class="st0" d="M325.4,399.9c0,0,0.1,172-25.9,198.7c0,0,88.6,6,114.5,47.1"/>
<path class="st0" d="M364.8,530.8c0,0-34.6,74-21.1,125.3"/>
</svg>
