<?xml version="1.0" encoding="utf-8"?>
<!-- Generator: Adobe Illustrator 22.1.0, SVG Export Plug-In . SVG Version: 6.00 Build 0)  -->
<svg version="1.1" id="Calque_1" xmlns="http://www.w3.org/2000/svg" xmlns:xlink="http://www.w3.org/1999/xlink" x="0px" y="0px"
	 viewBox="0 0 574.8 746.1" style="enable-background:new 0 0 574.8 746.1;" xml:space="preserve">
<style type="text/css">
	.st0{fill:none;stroke:#FFFFFF;stroke-width:4;stroke-linecap:square;stroke-linejoin:round;stroke-miterlimit:10;}
</style>
<title>sens1</title>
<g>
	<ellipse class="st0" cx="317.2" cy="242.9" rx="83.1" ry="71.1"/>
	<ellipse class="st0" cx="317.3" cy="246.9" rx="38.5" ry="31.5"/>
	<path class="st0" d="M6.2,281.8c0,0,0.5,16.4,23.8,25.7c19.6,7.8,84.4,3.3,121-2.3s29.4-32.7,22.2-41.9
		c-8.1-10.3-24.7-8.4-24.7-8.4s-30.7,2.8-39.9,3.6c-10.3,0.9-39,7.3-59.8,6.2c-16.5-0.9-29.3-7-29.3-20.1
		c0-24.6,30.2-25.4,39.1-25.5l111.8-4.5"/>
	<path class="st0" d="M210.5,214.6"/>
	<path class="st0" d="M189.1,326.6c0,0-68.8,25.6-65.8,80.4s73.5,63.9,99.3,49.4s31.8-34.9,23.8-63.4"/>
	<path class="st0" d="M91.5,185c0,0,32.1-62.9,21.7-92c-7.8-21.7-31-21.4-48.5-3.2c-28.8,29.9-68.3,4-42.5-26.6s60.5-43.8,91.9-35.9
		c19.6,4.9,33.2,12.2,40.5,21.6c6.8,8.8,10.4,19.8,12.9,29.9c3.1,12.7,1.8,27.3-6.1,56.3c0,0-17.3,35.6,9,39.6s24.8-25.8,34.2-57.6
		c19.6-66.2,47.7-95.9,76.5-104.3c21.5-6.2,59.7-2.9,68,23.7s-15.6,44.1-38.7,34.8s-35.9-5.9-46.3,2.5c-9,7.4-31,53.6,14.3,54.7
		c45.2,1.1,61.7-13.6,103.4-65.8s78.6-42.6,86.8-28.7c8.2,13.8,11.6,49-34.9,47.9c-46.5-1.1-43.1,36.2-26.7,52.1s73.2,22.9,80-20.2
		c6.8-43.1,10.9-86.7,48.5-83.5s31.5,36.2,28.7,50.5c-0.5,2.9-2.1,7-4.2,11.7c-13.4,30.1-37.2,56.8-68.4,77.4
		c-6.9,4.6-23.9,14.2-35.9,21.3c-7.3,4.3-12.9,10.2-15.8,16.9c-2.5,5.9-3,12.6,3.7,17.4c18.3,12.9,49.7-6.8,70.3,7.7
		c17.4,12.2,7.8,41.2-48.6,38.9c-46.5-1.9-32.9,20.3-32.9,20.3"/>
	<path class="st0" d="M136.2,469.5c0,0-51,19.4-58.1,45.4c-4,14.5-4.9,29.6,5.4,35.9c8.1,5,23.3,4.6,49.5-5.8
		c59.4-23.6,116.9,8.2,116.9,8.2"/>
	<path class="st0" d="M73,578.3c0,0-20.1,45.9,30.3,38c31.2-4.9,50.2-22.3,65-0.5c7,10.3,2.9,24.1-3.8,34.6
		c-9.7,15.2-20.7,41.2,1.1,65.5c35.1,39.1,108.2,30.6,134.5-10.6s31.3-83.2,63.7-75.2s-25.2,72.3,1.1,95.5
		c30,26.6,143.1,6.2,143.1-15.4s-35.8-0.6-31-67.1s-24.2-42.2-54.6-74.2s-10.2-61.8,19.5-81.5s82.2-51.7,82.2-105.9
		c0-49.2-67.4-53.5-67.4-53.5"/>
	<path class="st0" d="M316.9,388.1"/>
	<path class="st0" d="M330.2,399.1c0,0-5.7-36,37.3-43.8s54.2,25.1,52.4,39.9C412.7,452,290,476.9,290,476.9s20.1,48.4,91.1,24.9"/>
</g>
</svg>
