<?xml version="1.0" encoding="utf-8"?>
<!-- Generator: Adobe Illustrator 22.1.0, SVG Export Plug-In . SVG Version: 6.00 Build 0)  -->
<svg version="1.1" id="Calque_1" xmlns="http://www.w3.org/2000/svg" xmlns:xlink="http://www.w3.org/1999/xlink" x="0px" y="0px"
	 viewBox="0 0 986.9 1755" style="enable-background:new 0 0 986.9 1755;" xml:space="preserve">
<style type="text/css">
	.st0{fill:none;stroke:#FFFFFF;stroke-width:4;stroke-miterlimit:10;}
	.st1{fill:none;}
	.st2{fill:#FFFFFF;}
	.st3{font-family:'HelveticaNeue-Thin';}
	.st4{font-size:99px;}
</style>
<title>9</title>
<rect x="47" y="384.8" class="st0" width="474.5" height="120.3"/>
<g>
	<ellipse class="st0" cx="607.3" cy="114" rx="59.3" ry="60.2"/>
</g>
<ellipse class="st0" cx="106.3" cy="324.7" rx="59.3" ry="60.2"/>
<ellipse class="st0" cx="224.9" cy="324.7" rx="59.3" ry="60.2"/>
<ellipse class="st0" cx="343.5" cy="324.7" rx="59.3" ry="60.2"/>
<ellipse class="st0" cx="462.2" cy="324.7" rx="59.3" ry="60.2"/>
<rect x="47" y="57.7" class="st0" width="474.5" height="120.3"/>
<line class="st0" x1="576.4" y1="454.8" x2="661.1" y2="454.8"/>
<line class="st0" x1="576.4" y1="484.8" x2="661.1" y2="484.8"/>
<rect x="54.3" y="667.5" class="st0" width="474.5" height="120.3"/>
<ellipse class="st0" cx="113.6" cy="607.3" rx="59.3" ry="60.2"/>
<ellipse class="st0" cx="232.2" cy="607.3" rx="59.3" ry="60.2"/>
<ellipse class="st0" cx="118.3" cy="890.4" rx="59.3" ry="60.2"/>
<line class="st0" x1="581.6" y1="737.4" x2="666.3" y2="737.4"/>
<line class="st0" x1="581.6" y1="767.5" x2="666.3" y2="767.5"/>
<rect x="58.5" y="1071.9" class="st0" width="474.5" height="120.3"/>
<rect x="58.3" y="951.3" class="st0" width="474.5" height="120.3"/>
<line class="st0" x1="580.7" y1="1131.4" x2="665.5" y2="1131.4"/>
<line class="st0" x1="580.7" y1="1161.5" x2="665.5" y2="1161.5"/>
<line class="st0" x1="47.7" y1="226.1" x2="937.8" y2="226.1"/>
<ellipse class="st0" cx="118.9" cy="1290.1" rx="59.3" ry="60.2"/>
<ellipse class="st0" cx="237.9" cy="1290.1" rx="59.3" ry="60.2"/>
<ellipse class="st0" cx="356.7" cy="1290.3" rx="59.3" ry="60.2"/>
<ellipse class="st0" cx="475.7" cy="1290.3" rx="59.3" ry="60.2"/>
<rect x="59.1" y="1471.5" class="st0" width="474.5" height="120.3"/>
<rect x="59" y="1351" class="st0" width="474.5" height="120.3"/>
<rect x="59.1" y="1592" class="st0" width="474.5" height="120.3"/>
<line class="st0" x1="585.5" y1="1653.9" x2="670.2" y2="1653.9"/>
<line class="st0" x1="586" y1="1683.9" x2="670.7" y2="1683.9"/>
<rect x="259.2" y="79.2" class="st1" width="217.5" height="170.8"/>
<text transform="matrix(1 0 0 1 259.1743 149.9162)" class="st2 st3 st4">5</text>
<rect x="255.9" y="410.1" class="st1" width="217.5" height="170.8"/>
<text transform="matrix(1 0 0 1 255.9143 480.8046)" class="st2 st3 st4">5</text>
<rect x="255.9" y="691.5" class="st1" width="217.5" height="170.8"/>
<text transform="matrix(1 0 0 1 255.9143 762.2173)" class="st2 st3 st4">5</text>
<rect x="257.6" y="976.9" class="st1" width="217.5" height="170.8"/>
<text transform="matrix(1 0 0 1 257.5735 1047.5992)" class="st2 st3 st4">5</text>
<rect x="255.9" y="1096.4" class="st1" width="217.5" height="170.8"/>
<text transform="matrix(1 0 0 1 255.9143 1167.0616)" class="st2 st3 st4">5</text>
<rect x="256" y="1370.6" class="st1" width="217.5" height="170.8"/>
<text transform="matrix(1 0 0 1 256.0475 1441.312)" class="st2 st3 st4">5</text>
<rect x="256.4" y="1491.1" class="st1" width="217.5" height="170.8"/>
<text transform="matrix(1 0 0 1 256.3883 1561.7744)" class="st2 st3 st4">5</text>
<rect x="257.5" y="1614.9" class="st1" width="217.5" height="170.8"/>
<text transform="matrix(1 0 0 1 257.4674 1685.5513)" class="st2 st3 st4">5</text>
<rect x="700.2" y="417.5" class="st1" width="217.5" height="170.8"/>
<text transform="matrix(1 0 0 1 700.1613 488.2087)" class="st2 st3 st4">9</text>
<rect x="706.8" y="707.5" class="st1" width="217.5" height="170.8"/>
<text transform="matrix(1 0 0 1 706.8471 778.1615)" class="st2 st3 st4">7</text>
<rect x="577.5" y="78.1" class="st1" width="217.5" height="170.8"/>
<text transform="matrix(1 0 0 1 577.4767 148.811)" class="st2 st3 st4">1</text>
<rect x="74.7" y="289.3" class="st1" width="217.5" height="170.8"/>
<text transform="matrix(1 0 0 1 74.7169 359.9941)" class="st2 st3 st4">1</text>
<rect x="81.8" y="570.7" class="st1" width="217.5" height="170.8"/>
<text transform="matrix(1 0 0 1 81.7522 641.4069)" class="st2 st3 st4">1</text>
<rect x="87.1" y="856.1" class="st1" width="217.5" height="170.8"/>
<text transform="matrix(1 0 0 1 87.0706 926.7893)" class="st2 st3 st4">1</text>
<rect x="87.1" y="1255.1" class="st1" width="217.5" height="170.8"/>
<text transform="matrix(1 0 0 1 87.0706 1325.8142)" class="st2 st3 st4">1</text>
<rect x="205.9" y="1253.6" class="st1" width="217.5" height="170.8"/>
<text transform="matrix(1 0 0 1 205.8644 1324.2913)" class="st2 st3 st4">1</text>
<rect x="326.2" y="1255.1" class="st1" width="217.5" height="170.8"/>
<text transform="matrix(1 0 0 1 326.1812 1325.8142)" class="st2 st3 st4">1</text>
<rect x="443.5" y="1253.6" class="st1" width="217.5" height="170.8"/>
<text transform="matrix(1 0 0 1 443.452 1324.2913)" class="st2 st3 st4">1</text>
<rect x="702.7" y="1098.9" class="st1" width="217.5" height="170.8"/>
<text transform="matrix(1 0 0 1 702.697 1169.6113)" class="st2 st3 st4">16</text>
<rect x="702.7" y="1613.8" class="st1" width="217.5" height="170.8"/>
<text transform="matrix(1 0 0 1 702.697 1684.4395)" class="st2 st3 st4">19</text>
<rect x="199.9" y="569.3" class="st1" width="217.5" height="170.8"/>
<text transform="matrix(1 0 0 1 199.9455 639.9998)" class="st2 st3 st4">1</text>
<rect x="195.9" y="288.1" class="st1" width="217.5" height="170.8"/>
<text transform="matrix(1 0 0 1 195.9072 358.7943)" class="st2 st3 st4">1</text>
<rect x="311.1" y="286.9" class="st1" width="217.5" height="170.8"/>
<text transform="matrix(1 0 0 1 311.098 357.5944)" class="st2 st3 st4">1</text>
<rect x="431.1" y="284.5" class="st1" width="217.5" height="170.8"/>
<text transform="matrix(1 0 0 1 431.0884 355.1945)" class="st2 st3 st4">1</text>
</svg>
