<svg id="Calque_1" data-name="Calque 1" xmlns="http://www.w3.org/2000/svg" xmlns:xlink="http://www.w3.org/1999/xlink" viewBox="0 0 300 300"><defs><style>.cls-1{fill:url(#Dégradé_sans_nom_6);}.cls-2{fill:url(#Dégradé_sans_nom_6-2);}.cls-3{fill:url(#Dégradé_sans_nom_6-3);}.cls-4{fill:url(#Dégradé_sans_nom_6-4);}.cls-5{fill:url(#Dégradé_sans_nom_6-5);}.cls-6{fill:url(#Dégradé_sans_nom_6-6);}.cls-7{fill:#fff;}.cls-8{fill:url(#Dégradé_sans_nom_10);}.cls-9{fill:url(#Dégradé_sans_nom_10-2);}.cls-10{fill:url(#Dégradé_sans_nom_10-3);}.cls-11{fill:url(#Dégradé_sans_nom_10-4);}.cls-12{fill:#231f20;}</style><linearGradient id="Dégradé_sans_nom_6" x1="159.68" y1="-830.73" x2="142.74" y2="-815.26" gradientTransform="matrix(1, 0, 0, -1, 0, -658)" gradientUnits="userSpaceOnUse"><stop offset="0" stop-color="#231f20"/><stop offset="1" stop-color="#6d6e71"/></linearGradient><linearGradient id="Dégradé_sans_nom_6-2" x1="154.9" y1="-807.76" x2="131.08" y2="-792.05" xlink:href="#Dégradé_sans_nom_6"/><linearGradient id="Dégradé_sans_nom_6-3" x1="142.26" y1="-779.77" x2="123.6" y2="-758.4" xlink:href="#Dégradé_sans_nom_6"/><linearGradient id="Dégradé_sans_nom_6-4" x1="136.11" y1="-730.75" x2="124.57" y2="-721.66" xlink:href="#Dégradé_sans_nom_6"/><linearGradient id="Dégradé_sans_nom_6-5" x1="186.88" y1="-855.47" x2="166.01" y2="-838.77" xlink:href="#Dégradé_sans_nom_6"/><linearGradient id="Dégradé_sans_nom_6-6" x1="218.2" y1="-867.91" x2="199.3" y2="-860.79" xlink:href="#Dégradé_sans_nom_6"/><linearGradient id="Dégradé_sans_nom_10" x1="166.25" y1="-717.11" x2="171.16" y2="-712.52" gradientTransform="matrix(1, 0, 0, -1, 0, -658)" gradientUnits="userSpaceOnUse"><stop offset="0" stop-color="#fff"/><stop offset="1" stop-color="#f15a29"/></linearGradient><linearGradient id="Dégradé_sans_nom_10-2" x1="180.65" y1="-742.68" x2="168.25" y2="-732.86" xlink:href="#Dégradé_sans_nom_10"/><linearGradient id="Dégradé_sans_nom_10-3" x1="190.18" y1="-819.59" x2="176.76" y2="-824.91" xlink:href="#Dégradé_sans_nom_10"/><linearGradient id="Dégradé_sans_nom_10-4" x1="110.92" y1="-824.87" x2="153.9" y2="-804.49" xlink:href="#Dégradé_sans_nom_10"/></defs><title>y_Plan de travail 15</title><g id="object"><path class="cls-1" d="M144.87,210.6c19.57-45.24,51.13-63.53,65.37-112,8-27.21-8.84-44.28-8.84-44.28s2,38.8-30.33,80.1c-27,34.55-76.73,93.76-79.68,113.4s10.31,37.33,35.36,33.89C126.75,281.68,125.3,255.83,144.87,210.6Z"/><path class="cls-2" d="M185.85,105.69c9.51-17.68,13.93-40.76,12-51.39s-12.59-18.17-12.59-18.17,12.1,35.06-36,87c-20.38,22-66.16,53.11-69.59,74.57s10.14,42.73,10.14,42.73,2.45-6.7,9.65-18.66S176.35,123.37,185.85,105.69Z"/><path class="cls-3" d="M123.61,140.27C152.34,116,174.24,92.8,179.89,71.19S181.61,37,176,31.56s-13.26-3.27-14.24-1.79c0,0,9.8,18.93,2.28,35.58s-62.52,42.8-73.1,58.19-18,44.33-10.12,56.88C80.88,180.42,94.88,164.58,123.61,140.27Z"/><path class="cls-4" d="M157,52.09c1.18-17.49-5.25-22.59-5.25-22.59s-15.13,19.15-28.39,29-22.84,41.75-22.84,41.75,11.79-3,20.39-8.35S155.75,69.57,157,52.09Z"/><path class="cls-5" d="M195,192.79c17.83-28,34.21-73.15,19.4-96.5,0,0,.25,15.49-19.64,44.69s-43.78,61.07-51.1,85.16-5,56-5,56,15.84,3.49,26.64-7.56C165.3,274.56,162.6,243.62,195,192.79Z"/><path class="cls-6" d="M223.5,138.28c-1,16.45-15.23,50.83-29.71,76.61s-16.95,53-16.95,53c10.81,5,29-16.2,29-16.2l.49-9.58c.49-9.58,20.63-42.24,23.08-63.85S223.5,138.28,223.5,138.28Z"/><path class="cls-7" d="M244.47,185.08a.46.46,0,0,0-.12-.42.39.39,0,0,0-.32-.07,18,18,0,0,1-16.9-4.17,26.37,26.37,0,0,1-1.86-2.12c-.35-.41-.69-.86-1.06-1.25a10.92,10.92,0,0,0-3.58-2.6l-.27-.12A11,11,0,0,0,216,173h-.39l.17-.36c.72-1.55-.24-3.74-2.06-4.64a10.26,10.26,0,0,0-5.3-.67,22.68,22.68,0,0,0-3.61.49l-.45.1.15-.42a4.58,4.58,0,0,0,0-3.92,5.16,5.16,0,0,0-4.18-2.29,24.93,24.93,0,0,0-6.09.37,10.3,10.3,0,0,0-4.47,1.74l-.24.18-.12-.28c-.47-1.08-1-2.08-1.43-2.92-2.72-5.23-5.47-10.43-8.2-15.66l-4.1-7.81a.28.28,0,0,0-.17-.17l-.25-.08.07-.24c1-2.78,2.19-5.53,3.37-8.21,2.75-6.16,5.57-12.54,5.16-19.62,0-.14,0-.31,0-.49a3.91,3.91,0,0,0-.71-2.7c-.71-.69-1.74-.29-2.65,0l-.13,0a17,17,0,0,1-8,.83,20.59,20.59,0,0,1-2.89-.59l-.22,0,0-.22a7.23,7.23,0,0,1,1.39-2.7l.15-.22c1-1.43,2.16-2.78,3.27-4.08l.51-.61a92.42,92.42,0,0,0,9.16-12.16,29.56,29.56,0,0,0,4.42-15.2,26.65,26.65,0,0,0-3.43-13.77,26.17,26.17,0,0,0-6.07-7l0,0,0,0,.22-.12-.22.1a9.31,9.31,0,0,0-4.1-4.62.47.47,0,0,0-.47,0,.2.2,0,0,0-.1.22c.05.34.1.71.2,1.18l.1.51-.45-.24c-6.87-3.81-15.71-3.05-23.67,2-1.32.86-2.65,1.8-3.93,2.7a60.45,60.45,0,0,1-6.65,4.3l-.08.05-.09,0a.19.19,0,0,0-.18,0,5.08,5.08,0,0,1-5.89-3.07,18.62,18.62,0,0,1-1.08-3.12,21.8,21.8,0,0,0-.71-2.26,2.27,2.27,0,0,0-.84-1.23,2.12,2.12,0,0,0-.88-.15h-.3l-2.65-.12h-.76a7.87,7.87,0,0,1-4.3-.83,5.39,5.39,0,0,1-2.48-4.62V40.3c0-.1,0-.17,0-.22A.34.34,0,0,0,119,40h0a.53.53,0,0,0-.32.07.3.3,0,0,0-.1.25v.05c-.83,7.24,3.78,16.48,11.2,18l.05,0c6,2.82,13.14,2.21,16.84,1.57l.79-.12-.56.54a8.14,8.14,0,0,1-2.78,1.2c-2.16.66-4.84,1.52-6,3.83-1,2-.12,3,.81,4.13a6.39,6.39,0,0,1,1.87,4.39c0,1.38-1.11,2.68-3.39,3.86l-.05,0h-.05c-1.28.12-3.54-1.1-5.5-2.18-2.24-1.23-4.35-2.39-5.82-2.26a8.37,8.37,0,0,0-2.78.64A23.67,23.67,0,0,1,119,75.19c-2.46.52-4.79-1.25-7.27-3.09-2-1.52-4.1-3.07-6.29-3.32-2.7-.29-6.58,1.87-11.49,6.44l-.27.24a1.16,1.16,0,0,0-.22.2l-.17.3.24.19c.18.15.27.17.62-.12l0,0c.54-.29,5.6-2.67,15.47,1.48a56.83,56.83,0,0,0,20.5,4.22h.22a32.82,32.82,0,0,0,3.81.22c11.12,0,19.2-6.11,22-11.81,2.08-4.3,8.89-6.68,10.92-7.32l.27-.1.05.3a8.51,8.51,0,0,1-.27,3l0,.08,0,0c-1.13,1.08-2.43,2.21-4,3.53a54.16,54.16,0,0,1-6.31,4.55l-1.42.81a11.07,11.07,0,0,0-3.81,2.8l-.05.07-.1,0a.4.4,0,0,0-.22.15,8.84,8.84,0,0,0-1,2.29l0,0a30.75,30.75,0,0,0-1.48,6.46l0,.1-.2.15c-3.8,2.63-7.73,5.33-11.37,8.3a80.14,80.14,0,0,0-13,13.33A78.33,78.33,0,0,0,113,129a58.72,58.72,0,0,0-3.46,27.74c1.17,10.32,4.51,20.34,7.71,30l.22.68-.47-.14a13.57,13.57,0,0,0-8.54.19c-2,.72-5.33,2.39-5.75,5.53a3.76,3.76,0,0,0,.52,2.48l.27.44-.52,0c-3.39-.39-7.34,1.94-9.31,4.35-1.08,1.3-2.13,3.34-1.86,5.08a1.14,1.14,0,0,0,1.08,1,6.27,6.27,0,0,0,1.32.13l1,0-.91.44A15.79,15.79,0,0,0,88.17,212c-2,2.95-2.68,6.41-1.94,10.59.1.54.2,1.08.3,1.59a37.17,37.17,0,0,1,.73,5.33,26.21,26.21,0,0,1-2.7,12.67l0,.13c-.27.56-.71,1.4-.49,1.89a.77.77,0,0,0,.54.41.28.28,0,0,0,.39-.19l0-.1.1-.05c8-3.61,12.53-10.93,16.87-18,3.51-5.7,7.15-11.59,12.6-15.65,3.85-2.87,8.45-4.78,12.45-6.36l.24-.09.08.24a13.16,13.16,0,0,0,2.06,4.25,15.15,15.15,0,0,0,3.39,3,21.61,21.61,0,0,1,2.26,1.74c1.94,1.72,3,4,4.1,6.61a41.33,41.33,0,0,0,3.36,6.72,35.23,35.23,0,0,0,4.3,5.09l.37.37c.52.54,1,1.1,1.5,1.64a31.94,31.94,0,0,0,3.21,3.27,7.09,7.09,0,0,0,4.28,1.89h1.27a11.54,11.54,0,0,1,3.66.32,7.47,7.47,0,0,1,3.71,2.67l.27.32-.42.08a9.35,9.35,0,0,0-6.38,4.29,25.43,25.43,0,0,0-2.06,4.74c-1.62,4.4-3.81,10.44-7.91,12.31-1.84.83-4,.76-6.53-.23-6.58-2.52-11.45-7.71-15.72-12.25l-.64-.69c-4.47-4.76-8.32-8.89-13.55-9.06-4.25-.12-7.42,1.08-9.41,3.56-3.9,4.89-1.91,12.9-1.84,13.24l.17.71.47-.56c.07-.1.07-.15.1-.47.29-5.8,1.77-10.07,4.17-12a5.39,5.39,0,0,1,3.59-1.28,5.58,5.58,0,0,1,1.13.1c3.58.54,8.27,5.28,12.4,9.67,4.61,4.91,9.84,10.51,17.43,13.44,3.71,1.42,7.17,1.47,10.14.12,5.87-2.65,8.57-10,10.37-14.93a26.16,26.16,0,0,1,1.54-3.73,5.08,5.08,0,0,1,6.24-2l.1,0,.05.07c.22.39.42.76.59,1.1a.35.35,0,0,0,0,.08l0,0c1.45,2.31,3.27,4.5,6.66,4.82a20,20,0,0,0,9.18-1.62,9.77,9.77,0,0,0,3.49-2.61c.14-.17.29-.37.44-.54a10.06,10.06,0,0,1,3.41-3,13.46,13.46,0,0,1,5.33-1.1c.34,0,.71,0,1.08,0a8.89,8.89,0,0,0,3.49-.46c3.19-1.33,3.58-4.92,2.94-7.59l0-.08,0-.07a.23.23,0,0,0,0-.2,5.46,5.46,0,0,0-.19-.66l0-.07,0-.08c0-.07,1.64-7.26,4.49-6.92a25.52,25.52,0,0,1,3.83,1.08h0c2.77.93,5.94,2,9,1.87,4-.18,6.81-2.29,8.45-6.29,2.33-5.7.44-11.57-1.05-16.26-1.06-3.31-2-6.82-.86-8a11.72,11.72,0,0,1,8.42-3.46l1.59.09-1.42-.78c-1-.54-6-3-11,1.82-3.16,3-1.71,7.56-.44,11.54,1.38,4.29,2.95,9.18,1.16,13.58-2.16,5.28-6.39,4.29-12.62,2.18a27,27,0,0,0-4.62-1.28c-3.05-.36-5.7,1.5-7.47,5.26l-.24.52-.22-.52c-.17-.44-.37-.86-.54-1.28l-.15-.34s0-.05,0-.07l-.17-.23.24-.14a3.16,3.16,0,0,0,1.4-2.09l.08-.25a6.4,6.4,0,0,0,.39-2.21,8.64,8.64,0,0,0-.32-1.79,1.86,1.86,0,0,0-.1-.37c-.22-1-.46-1.94-.71-2.89s-.47-1.9-.69-2.85c-.07-.35-.12-.72-.19-1.11-.2-1.4-.4-2.85-1.75-3.24l-.24-.05v-.22a30.84,30.84,0,0,0-.42-6.46,36.11,36.11,0,0,0-1.2-5.25,5.19,5.19,0,0,0-.86-1.77l-.08-.1,0-.12a41.77,41.77,0,0,0,.88-7.86v-.34a13.64,13.64,0,0,0-.12-2.7l-.05-.23.2-.07a42,42,0,0,1,12.23-2,17.56,17.56,0,0,1,6.45.79,18.6,18.6,0,0,1,3.1,1.62,24.27,24.27,0,0,0,2.5,1.37A20.48,20.48,0,0,0,233.1,189h.05c2.38.37,4.25-.15,5.52-1.55l0-.05.05,0a20.71,20.71,0,0,0,3.07-1.69s0,0,0,0l.08-.07H242c.74-.13,1.45-.27,2.09-.44C244.35,185.28,244.45,185.2,244.47,185.08Z"/><path class="cls-8" d="M172,47.22s-4.66,1.48-6,4.42a14,14,0,0,0-.9,6.59,7.14,7.14,0,0,1,2.4,4.24c.2,2.41.37,3.39.37,3.39s4.67-3.88,5.94-8a24.88,24.88,0,0,0,1.43-8.76C175.05,47.72,172,47.22,172,47.22Z"/><path class="cls-9" d="M151.3,85.83S169.43,72.49,171.81,69s9-12,7.37-17.81c0,0,7,6,8.79,14.74S183.91,86,180.4,90.44s-11.12,13-11.73,15.55a34,34,0,0,1-10.39-7C153.74,94.32,151.3,85.83,151.3,85.83Z"/><path class="cls-10" d="M175,137.25c0,.24-3.83,11.19-4.25,22.59l-.42,11.39L176.38,192h13.67l2-1.8s.49-5.4,3.44-6.21l-2.46-7.66-4.17-14.19Z"/><path class="cls-11" d="M148.19,88.55s-.22,20.87,3.36,32.66,10.73,32.49,10.73,32.49l7.37,16.38.64,1.15L176.35,192s-7.44,5-8.67,8.59c0,0-7.12-1.23-9.75-.81,0,0-9.5-7.44-12.27-6.06s-3.32,3.14-3.32,3.14-3.88-.57-5.08.24a22.1,22.1,0,0,0-3.24,3.64l-1.35.91-4.13-.32-4.71-7.69L118,187s-9.16-23.75-8.6-37.25,5.09-23.33,8.11-30.38S136.55,94.18,148.19,88.55Z"/><path class="cls-12" d="M244,184.37a17.74,17.74,0,0,1-16.67-4.1c-1.08-1-1.91-2.24-2.9-3.37a11,11,0,0,0-3.68-2.65,12.16,12.16,0,0,0-4.72-1.42c.82-1.77-.29-4-2.16-5a10.68,10.68,0,0,0-5.42-.69,22.52,22.52,0,0,0-3.66.49,5,5,0,0,0,0-4.12,5.23,5.23,0,0,0-4.34-2.41,25.69,25.69,0,0,0-6.14.37,10.69,10.69,0,0,0-4.57,1.77c-.42-1-.91-2-1.42-2.95q-6.15-11.75-12.33-23.53a.51.51,0,0,0-.34-.29c3.16-9.26,9.13-17.73,8.52-27.92-.05-1,0-2.58-.79-3.34s-2.06-.32-3,0a16.61,16.61,0,0,1-7.91.84,20.4,20.4,0,0,1-2.84-.57,7.58,7.58,0,0,1,1.52-2.82c1.15-1.62,2.48-3.14,3.78-4.66A90.54,90.54,0,0,0,184,85.88a30.38,30.38,0,0,0,4.47-15.33A27,27,0,0,0,185,56.65a27.13,27.13,0,0,0-6.14-7.07s0,0,0,0a9.62,9.62,0,0,0-4.2-4.74c-.37-.17-1,0-.93.54s.12.78.2,1.18c-7.64-4.23-16.73-2.56-23.92,2-3.56,2.25-6.83,5-10.56,7a.48.48,0,0,0-.29,0,4.84,4.84,0,0,1-5.63-2.92c-.83-1.7-1.08-3.59-1.77-5.36a2.48,2.48,0,0,0-.93-1.35,3.27,3.27,0,0,0-1.28-.19c-.88,0-1.76-.1-2.65-.13-1.72,0-3.39.13-4.93-.81a5.11,5.11,0,0,1-2.36-4.42.51.51,0,0,0-.54-.59.57.57,0,0,0-.69.59c-.83,7.32,3.78,16.7,11.39,18.3,6.14,2.9,13.46,2.18,17,1.59h0a7.68,7.68,0,0,1-2.65,1.13c-2.19.69-4.94,1.55-6.14,4-1.08,2.13-.1,3.29.83,4.39A6.24,6.24,0,0,1,140.57,74c0,1.42-1.35,2.65-3.26,3.63-1.21.13-3.42-1.08-5.36-2.16-2.25-1.25-4.42-2.4-6-2.28a8.11,8.11,0,0,0-2.85.66A21.27,21.27,0,0,1,119,75c-2.36.49-4.64-1.23-7.07-3-2-1.52-4.15-3.12-6.41-3.36-2.78-.3-6.71,1.89-11.69,6.51l-.25.22a1,1,0,0,0-.29.27l-.27.46.42.35c.34.27.59.14.93-.13.69-.36,5.65-2.55,15.27,1.5A57.33,57.33,0,0,0,130.28,82h.18a33.94,33.94,0,0,0,3.83.22c11.88,0,19.62-6.7,22.2-12,2-4.2,8.69-6.53,10.78-7.19a8.89,8.89,0,0,1-.27,3c-1.28,1.23-2.66,2.41-4,3.51a55,55,0,0,1-6.29,4.52c-1.81,1.08-4,1.94-5.33,3.66A.51.51,0,0,0,151,78a9.9,9.9,0,0,0-1.08,2.39,33.91,33.91,0,0,0-1.5,6.5c-3.91,2.7-7.84,5.38-11.49,8.4A77.63,77.63,0,0,0,112.7,128.9a58.87,58.87,0,0,0-3.46,27.84c1.2,10.42,4.52,20.41,7.81,30.31a13.67,13.67,0,0,0-8.69.19c-2.58.94-5.53,2.75-5.92,5.72a4.09,4.09,0,0,0,.56,2.66c-3.48-.42-7.46,1.91-9.52,4.42-1.11,1.35-2.21,3.46-1.92,5.28a1.39,1.39,0,0,0,1.28,1.22,6.24,6.24,0,0,0,1.37.13,16,16,0,0,0-6.16,5.15c-2.26,3.27-2.65,6.93-2,10.78a50.85,50.85,0,0,1,1,6.9,27.26,27.26,0,0,1-.51,6.24,25.89,25.89,0,0,1-2.17,6.31c-.41.84-1.25,2.33.15,2.78a.55.55,0,0,0,.69-.32c14.49-6.54,17.31-24.63,29.52-33.67a53,53,0,0,1,12.4-6.33,13.25,13.25,0,0,0,2.11,4.34c1.57,2,3.83,3.05,5.7,4.72s3,4.15,4,6.5a40.3,40.3,0,0,0,3.39,6.76,39.05,39.05,0,0,0,4.69,5.5,52.58,52.58,0,0,0,4.77,4.91,7.42,7.42,0,0,0,4.44,1.94,18,18,0,0,1,4.86.29,7.33,7.33,0,0,1,3.59,2.61,9.52,9.52,0,0,0-6.56,4.39,24.85,24.85,0,0,0-2.09,4.79c-1.59,4.37-3.78,10.34-7.78,12.15-1.77.82-3.86.74-6.34-.22-6.53-2.53-11.37-7.66-15.61-12.2l-.64-.69c-4.5-4.81-8.4-9-13.73-9.13-4.32-.13-7.56,1.1-9.6,3.66-4,5-2,13.08-1.89,13.43l.29,1.18.76-.94a.83.83,0,0,0,.15-.61c.3-5.72,1.75-9.95,4.08-11.86a5.5,5.5,0,0,1,4.54-1.13c3.49.52,8.15,5.23,12.25,9.6,4.65,4.94,9.9,10.54,17.51,13.48a15.73,15.73,0,0,0,5.58,1.13,11.56,11.56,0,0,0,4.76-1c6-2.7,8.69-10.14,10.49-15.07a26.17,26.17,0,0,1,1.52-3.69,4.79,4.79,0,0,1,5.94-1.86c.2.37.39.73.57,1.1a.76.76,0,0,0,.07.13c1.67,2.65,3.56,4.61,6.85,4.91a19.84,19.84,0,0,0,9.31-1.65,9.8,9.8,0,0,0,3.58-2.65,11.74,11.74,0,0,1,3.78-3.51,13.63,13.63,0,0,1,5.23-1.08c1.55,0,3.2.12,4.65-.49,3.16-1.3,3.8-4.87,3.09-7.89a.56.56,0,0,0,0-.34,5.53,5.53,0,0,0-.2-.66c.45-2,2-7,4.25-6.73a23,23,0,0,1,3.78,1.08c2.83,1,6,2,9.16,1.89,4.08-.17,7-2.36,8.65-6.46,2.35-5.79.46-11.69-1.06-16.43-1-3-2-6.68-.93-7.76a11.48,11.48,0,0,1,8.22-3.38l2.68.17-2.33-1.33c-1-.56-6.17-3.07-11.32,1.87-3.29,3.17-1.82,7.73-.52,11.78,1.38,4.28,2.92,9.11,1.18,13.41-2.09,5.09-6.21,4.1-12.3,2a24.25,24.25,0,0,0-4.67-1.28c-3.17-.36-5.92,1.58-7.73,5.41-.22-.54-.47-1.08-.69-1.62l-.07-.13a3.52,3.52,0,0,0,1.52-2.23,9.29,9.29,0,0,0,.49-2.53,13.68,13.68,0,0,0-.42-2.21c-.44-1.92-1-3.83-1.4-5.75-.34-1.54-.19-4-2.09-4.52h0a32.15,32.15,0,0,0-.42-6.5,34.85,34.85,0,0,0-1.21-5.28,5.25,5.25,0,0,0-.9-1.84,40.61,40.61,0,0,0,.88-7.91,19.56,19.56,0,0,0-.12-3.1A41.47,41.47,0,0,1,210,184a17.32,17.32,0,0,1,6.36.76c2,.76,3.66,2.13,5.6,3a21.09,21.09,0,0,0,11.32,1.57c2.09.32,4.23.05,5.75-1.62a20.12,20.12,0,0,0,3.09-1.69.35.35,0,0,1,.08,0,17.91,17.91,0,0,0,2.13-.44C245.06,185.33,244.72,184.15,244,184.37Zm-47.34,2c0,.05,0,.13,0,.17a14.63,14.63,0,0,1,.1,2.09,39.66,39.66,0,0,1-.78,7.76h-.3c-1.57.25-1.64,3.07-1.91,4.23-.52,2.23-1,4.44-1.4,6.7a45.65,45.65,0,0,0-.94,12l-.12-.27s-1.84-4.84-1.84-6.14h0a.66.66,0,0,0,.66-.59c.42-4.22.76-8.47,1.23-12.7.32-2.72.64-5.45,1.11-8.17a24.18,24.18,0,0,1,1.35-5.58,3.49,3.49,0,0,1,.19-.39,1.22,1.22,0,0,1,1.26-.69c.68,0,.73-.1,1,.44a.08.08,0,0,0,0,.05A.66.66,0,0,0,196.61,186.38ZM178.93,196c-4.76,1.53-8.91,7.25-9.92,8.72a12.85,12.85,0,0,0-1.25-1.86c.41-1.11,2.72-6.56,8.15-9.07,4.13-1.89,9.09-1.69,14.81.59-.17,1.26-.32,2.51-.47,3.76C188.48,197.09,183.37,194.56,178.93,196Zm-37.45.18s-.07.07-.1.12a6.13,6.13,0,0,0-4.07.12c.81-2.31,3.19-7.17,9-8.4,6.34-1.35,13.09,1.94,15.37,3.2a25.14,25.14,0,0,0-9,4.15c-.79-.42-1.58-.81-2.39-1.16a9.47,9.47,0,0,0-5-1,4.06,4.06,0,0,0-1.89.81C142.56,194.61,142.19,195.52,141.48,196.16Zm-23-8.45c-.94-2.85-1.89-5.72-2.8-8.6,3.93-2.38,6.6-.76,7.51,0-1.84,2.09-2.55,5.48-2,9.77-.25.17-.47.35-.71.52A7.31,7.31,0,0,0,118.5,187.71ZM110,150.19a11.18,11.18,0,0,1,4.88,2.38l0,0a15.28,15.28,0,0,0-3.69,6.19,5.33,5.33,0,0,1-.56,0A72.71,72.71,0,0,1,110,150.19Zm9.25-17h0a8.84,8.84,0,0,1,5.57,2.17c-3.39,1.22-6.09,3.9-8,7.95a4.36,4.36,0,0,0-1,.37,3.84,3.84,0,0,0-.32-1c-.69-1.3-2.24-2.35-4.62-3.14.15-.79.3-1.55.47-2.31C114,134.55,116.63,133.19,119.28,133.19Zm-3.7-8.07c1-1.6,3.63-4.77,7.09-4.08a6.34,6.34,0,0,1,5.13,4.54,14.24,14.24,0,0,0-9,6.63c-.42,0-.81.08-1.23.15-.25-1.28-.93-4.59-2.31-6.53A3.36,3.36,0,0,1,115.58,125.12Zm4.12-8a10.49,10.49,0,0,1,1.18,2.9,7.06,7.06,0,0,0-3.73,1.79C117.93,120.2,118.79,118.66,119.7,117.11Zm18.49-16.21a6.61,6.61,0,0,1,4.27,2.68,12.27,12.27,0,0,0-6.43,4.1,11.1,11.1,0,0,0-2.31-.47,4.36,4.36,0,0,0-1.57-3.51C132.94,102.77,135.34,100.29,138.19,100.9Zm11.94,15.28a7.76,7.76,0,0,0-.94-.1,10.65,10.65,0,0,0-5.2-4.37c.73-1,2.55-3.1,4.56-3.22.1.54.18,1.06.27,1.57C149.22,112.13,149.66,114.16,150.13,116.18Zm15.56,47a7.27,7.27,0,0,0-4.37-.59c-.78-.67-3.95-3-9.84-3.32a22.26,22.26,0,0,1,10.78-4.27C163.31,157.8,164.47,160.53,165.69,163.23Zm3.84,7.68a.4.4,0,0,0,.09.15.52.52,0,0,0,.67.17.55.55,0,0,0,.41-.56c0-1.75,0-3.49.1-5.26,1.57.62,5.28,2.24,7,4.72a16.07,16.07,0,0,0-3.61,1.89,11.66,11.66,0,0,0-3.74-.25,11.23,11.23,0,0,0-4.66,1.45,18.09,18.09,0,0,0-11.44-3.76c1.08-1.52,3.73-5,6.48-5.74a6.47,6.47,0,0,1,5.65,1C167.39,166.86,168.42,168.9,169.53,170.91Zm3.7-25.88c1.4.34,4.94,1.5,6.12,4.15a7.58,7.58,0,0,0-1.52.57h0a11.33,11.33,0,0,0-5.11-2.29Zm11.42,11.1a8.08,8.08,0,0,0-1.23-.71c-.49-1-1.42-2.73-1.42-2.73h-3.63a15.47,15.47,0,0,0-1.58-1.13,6.42,6.42,0,0,1,4.62-1.62Q183,153.07,184.65,156.13Zm2.29,4.4c0,.09.12.22.17.31a3.36,3.36,0,0,0-1.72.23,1,1,0,0,0-.39.22,4.64,4.64,0,0,0-2.63-1.89,8.07,8.07,0,0,0-4.18.49,11.39,11.39,0,0,0-2-1.45c1.15-1,4-3.07,6.11-2.38a8.21,8.21,0,0,1,3.79,2.89Zm7.88,22.66c-1.3.32-2.16,2.14-2.58,3.49a13.15,13.15,0,0,0-4.35-1,7.08,7.08,0,0,1,6.68-3.14A6.5,6.5,0,0,1,194.82,183.19Zm-3.24,6.12a4.6,4.6,0,0,0-4-.35,13,13,0,0,0-3.9,1.87,17.92,17.92,0,0,0-4.59.14,13.28,13.28,0,0,1,2.62-2.52c3-2.07,6.39-2.34,10.19-.81C191.85,188.2,191.7,188.76,191.58,189.31Zm-16.43,2.89h0a21.5,21.5,0,0,0-10.36-1.54,14.26,14.26,0,0,1,9.13-7.32,11.33,11.33,0,0,1,10.41,2.82,12.7,12.7,0,0,0-6.6,5.13A14.63,14.63,0,0,0,175.15,192.2Zm-37.84-13.4a11.65,11.65,0,0,0-7.25-2.34,10.27,10.27,0,0,1,5.85-7.59c4.57-2.25,9.92.81,11.79,2.07a16.07,16.07,0,0,0-7,6.77,14.19,14.19,0,0,0-1.74.4A12.67,12.67,0,0,0,137.31,178.8Zm-13.41-.4a6.89,6.89,0,0,0-7-1,9,9,0,0,1,5.3-7c3.95-1.58,8.55-1,10.54-.62a10.74,10.74,0,0,0-3.66,6.71,13.47,13.47,0,0,0-2.78.59A6.81,6.81,0,0,0,123.9,178.4Zm-8.18-26.47-.17-.15a11.8,11.8,0,0,0-4.27-2.3c1-1.45,3.83-5.31,6.53-5.38a15.36,15.36,0,0,1,5,.71,15.1,15.1,0,0,0-5.35,6.14A10,10,0,0,0,115.72,151.93Zm23.82-40.86c-3.85.52-7.68,3.32-8.57,4l-.46-.08-.25,0c-.27-1-1.23-3.86-3.36-4.94C133.87,106,138.09,109.47,139.54,111.07Zm4-7.66Zm4.54,1.84,0,0c.07.78.17,1.54.29,2.33a5,5,0,0,0-2,.66,8.14,8.14,0,0,0-7.73.76,9.61,9.61,0,0,0-1.6-.91C142.76,101.94,147.84,105.1,148.06,105.25Zm8.28,60.26a14.14,14.14,0,0,0-7.61-1,15,15,0,0,0-7,2.82,10.57,10.57,0,0,0-3.93-.07c1.33-2.06,5-6.78,11.18-7,6-.2,9.6,1.71,11.07,2.7A11.24,11.24,0,0,0,156.34,165.51Zm-3-8.59a10.07,10.07,0,0,0-6.75-1.06,11,11,0,0,0-6.27,3.51,22.79,22.79,0,0,0-4.34.2c1.08-1.52,4.56-5.87,10.19-6.85a13,13,0,0,1,10.41,2.67A24.54,24.54,0,0,0,153.32,156.92Zm-2.16-7.57a18.05,18.05,0,0,0-6.41-.78,17.66,17.66,0,0,0-7.27,2.33,16.07,16.07,0,0,0-3.22-.34,17,17,0,0,1,4.84-3.12,15.25,15.25,0,0,1,2.51-.81.08.08,0,0,0,.07,0h0A16.2,16.2,0,0,1,153,148.39C152.34,148.71,151.7,149,151.16,149.35Zm-2.73-6.77a22.28,22.28,0,0,0-4.93-1.87c-2.73-.69-6.31,2.18-7.22,2.95a25.34,25.34,0,0,0-3.61-.72,17.61,17.61,0,0,1,8-4.07c4.35-1,8.5,1.25,10.1,2.28A12.69,12.69,0,0,0,148.43,142.58Zm-1.59-8.11a37.57,37.57,0,0,0-4.72-1.42c-2.53-.64-5.77,1.5-7,2.4a21.77,21.77,0,0,0-2.56-.61,14,14,0,0,1,4.42-3c3.93-1.7,7.93-1.09,11.94,1.81A12.85,12.85,0,0,0,146.84,134.47Zm-.18-7.81a10.12,10.12,0,0,0-4.51-2.53c-2.58-.66-5.87,1.21-7,1.89a10.68,10.68,0,0,0-2.63-.63c1.23-1.53,4.6-5,9-4.77a10.06,10.06,0,0,1,7.86,5A13.46,13.46,0,0,0,146.66,126.66ZM145,116.89a5.68,5.68,0,0,0-4.25-1.94,12.06,12.06,0,0,0-5.82,1.94,10.15,10.15,0,0,0-2.75-1.52c1.84-1.3,6.56-4.23,10.14-3.19a10.36,10.36,0,0,1,5.72,3.92A9.44,9.44,0,0,0,145,116.89ZM130.38,116c3.32.37,5.82,3.37,6.68,4.57a15.67,15.67,0,0,0-5.72,4.76,11.6,11.6,0,0,0-1.18,0,13.7,13.7,0,0,0-1.45.13,7.37,7.37,0,0,0-5.89-5.33c-.1,0-.2,0-.29,0C123.92,118.58,127.24,115.61,130.38,116Zm-.17,10.29c6-.17,7.69,2.85,8.08,4a12,12,0,0,0-1.67.59,15.37,15.37,0,0,0-5.21,3.78A15.19,15.19,0,0,0,126,135a10.08,10.08,0,0,0-6-2.78A12.74,12.74,0,0,1,130.21,126.27ZM126.09,136c5.3-1.49,10.9,1,13.13,2.21a18.06,18.06,0,0,0-7.85,4.62,17,17,0,0,0-4.13.25,12.5,12.5,0,0,0-3.34,1.13,14.83,14.83,0,0,0-5.89-1.06C120,139.33,122.7,136.93,126.09,136Zm1.35,8.06c5.05-1,10.24,1,12.62,2a13.77,13.77,0,0,0-1.38.51,17.28,17.28,0,0,0-5.87,4.08,15.8,15.8,0,0,0-3,.56,14.82,14.82,0,0,0-3.22,1.4c-1-.66-4.25-2.67-7.81-2A13.07,13.07,0,0,1,127.44,144.05Zm2.57,8.08a15.87,15.87,0,0,1,11.42,1.2,18.33,18.33,0,0,0-6.65,6.26l.22.13a20.2,20.2,0,0,0-3.39,1,19.52,19.52,0,0,0-9.77-1.21A12.94,12.94,0,0,1,130,152.13Zm13.39,8.59a17.27,17.27,0,0,0-6.9,6.85,10.11,10.11,0,0,0-1,.42,12.22,12.22,0,0,0-1.72,1,23.16,23.16,0,0,0-9.68-.17c.54-1.38,2.19-4.35,6.78-6.68C135.64,159.72,141.11,160.3,143.4,160.72Zm9.23,9.85a17.55,17.55,0,0,1,12.25,3.26,10.15,10.15,0,0,0-1.91,1.82h0a24.69,24.69,0,0,0-9.33-1.74c-3.91.17-7.52,3-8.6,4a13,13,0,0,0-3.14-.22A14.41,14.41,0,0,1,152.63,170.57Zm28.31,7a18.14,18.14,0,0,0-7.36,4.81,14.21,14.21,0,0,0-2.36.79c-.76-1-3.27-3.83-9-4.57a9.8,9.8,0,0,1,8.28-5.87C176,172.26,179.74,176.12,180.94,177.59Zm-23.08,1.89c8.08-.44,11.49,3,12.45,4.15a15.8,15.8,0,0,0-2.68,1.84h0a14.92,14.92,0,0,0-9-2.11,13.87,13.87,0,0,0-7.84,3.37,17.86,17.86,0,0,0-4.71.29l-.47.12A14.49,14.49,0,0,1,157.86,179.48Zm31.65,3.32h0s-.83-1.45-4.34-2.11a8,8,0,0,0-6,1.64,11.94,11.94,0,0,0-3.93-.22c1.65-1.5,5-4.05,8.94-4.05h.1c2.67,0,5.18,1.3,7.44,3.73A8.23,8.23,0,0,0,189.51,182.8Zm-1.84-7c-.73-.93-4.12-4.64-8.91-1.67a14,14,0,0,0-3.34-1.77c1.4-.86,4.32-2.36,7.1-1.94,3,.44,5.62,3.34,6.6,4.59A6.28,6.28,0,0,0,187.67,175.85ZM186.49,169a8.07,8.07,0,0,0-10.19-1.77,14.56,14.56,0,0,0-1.67-1.1,8.06,8.06,0,0,1,5.65-1.82c3.24.12,6.12,2.9,7.17,4Q186.94,168.69,186.49,169Zm-6.14-20a8.24,8.24,0,0,0-4.73-4.22,7.29,7.29,0,0,1,2-2.09c1.1,2.09,2.19,4.2,3.29,6.28A3.33,3.33,0,0,0,180.35,149Zm-8.17,1.67a13.81,13.81,0,0,1,7.31,4.64,10.8,10.8,0,0,0-2,1,9.13,9.13,0,0,0-5.77-2.19C171.83,153,172,151.83,172.18,150.68Zm-.89,7.07c1.65.27,6.29,1.43,8.25,5.62a8.69,8.69,0,0,0-5.82,2.29,22.33,22.33,0,0,0-2.89-1.28Q171,161.07,171.29,157.75Zm-9.43-3.68a22.2,22.2,0,0,0-4.22.93,13.55,13.55,0,0,0-8-3.44,20.14,20.14,0,0,1,9.85-3.95c.08.2.15.39.22.61C160.39,150.19,161.1,152.13,161.86,154.07Zm-7.71-6.17a19.78,19.78,0,0,0-7.34-2.53,14.7,14.7,0,0,1,10.19-5c.69,2.09,1.38,4.18,2.11,6.24A23.19,23.19,0,0,0,154.15,147.9Zm-2.4-7.26a16.71,16.71,0,0,0-8-3,18.41,18.41,0,0,1,11.1-4.19c.61,2,1.23,4,1.87,6A14.48,14.48,0,0,0,151.75,140.64Zm-1.65-7.45a15.31,15.31,0,0,0-6.65-3.14,13.39,13.39,0,0,1,9.3-3.78l.52,1.84c.42,1.45.83,2.9,1.28,4.35A20.57,20.57,0,0,0,150.1,133.19Zm2.38-7.9a12.18,12.18,0,0,0-2.11.17,11,11,0,0,0-7.78-5.7,8.56,8.56,0,0,1,7.78-2.55C151,119.91,151.75,122.61,152.48,125.29ZM148,90.54l-3.59,2.87a3.72,3.72,0,0,0-1.4-1.2c1.72-1.23,3.44-2.45,5.19-3.66C148.11,89.22,148,89.88,148,90.54Zm-.32,7c0,.88,0,1.76.05,2.65-2.36-1.8-6.95.61-6.95.61h0a10.09,10.09,0,0,0-1.5-.64C143.05,96.58,146.44,97.12,147.67,97.52Zm-14.93,9.67a13.73,13.73,0,0,0-7.1,2.46,3.88,3.88,0,0,0-.9,0,72.86,72.86,0,0,1,5.23-6.19C130.87,103.9,132.91,105.1,132.74,107.19Zm-8.91,3.66a3.24,3.24,0,0,1,2.62.07c1.62.81,2.48,3,2.8,4.08-3.24.34-6.23,3.12-7.51,4.44a10.42,10.42,0,0,0-1.5-3.24C121.37,114.36,122.55,112.59,123.83,110.85Zm-8.94,33.35a18.66,18.66,0,0,0-4.64,5,1.42,1.42,0,0,1-.22,0,55.44,55.44,0,0,1,.71-8.64C114.74,141.89,114.94,143.68,114.89,144.2Zm3.39,7.53c3-.93,6.11.67,7.34,1.45a14.13,14.13,0,0,0-5,6.56c-.34.07-.69.17-1,.27a9.45,9.45,0,0,0-1.79.76c-.62-.54-2.29-1.64-5.6-1.94C113.71,154.9,115.72,152.5,118.28,151.73Zm1.67,9.21a17.71,17.71,0,0,1,10.38.37c-5.67,2.9-7.12,6.73-7.41,7.83l-1.08.37a9.37,9.37,0,0,0-2.38,1.38,13.43,13.43,0,0,0-5.55-2.29C114.13,167.13,115.23,162.39,120,160.94Zm-1.23,10.64a11,11,0,0,0-2.87,6.31,3.28,3.28,0,0,0-.45.24c-.9-2.87-1.74-5.77-2.5-8.67A13,13,0,0,1,118.72,171.58Zm3.46,16.69c-.34-3-.32-8.74,4.42-10.24a11,11,0,0,1,9.75,1.28,17.76,17.76,0,0,0-6.26,7A17.56,17.56,0,0,0,122.18,188.27Zm17.09-9.2c3.29-1.06,7-.45,10.91,1.76a15.64,15.64,0,0,0-5.87,6.71,12.15,12.15,0,0,0-1.62.73,40,40,0,0,0-11.5-2C132.15,184.59,134.8,180.49,139.27,179.07ZM174,192.79a16.36,16.36,0,0,0-3.63,2.83,11.73,11.73,0,0,0-4.76-.57c-3.29.15-7.62,2.38-8.94,3.1a27.53,27.53,0,0,0-3.1-2.29C155.92,194.22,164.25,189.23,174,192.79Zm18.89-11.2a12.73,12.73,0,0,0-5.63-4,4.23,4.23,0,0,1,4.87-1.55c.64,1.87,1.35,3.71,2.06,5.53C193.74,181.55,193.3,181.55,192.88,181.59Zm-2.73-6.8a17,17,0,0,0-4.15-4c.71-.78,2.36-2.38,4-1.94.27,1.13.56,2.29.88,3.42.25.86.54,1.72.81,2.58A4.68,4.68,0,0,0,190.15,174.79Zm-1.74-6.8a15.92,15.92,0,0,0-4.54-3.63,4.27,4.27,0,0,1,1.94-2.39,2.43,2.43,0,0,1,1.89,0,22.68,22.68,0,0,1,1.74,4.49c.12.44.22.89.34,1.33A3.54,3.54,0,0,0,188.41,168Zm-11.27-26.18a8.8,8.8,0,0,0-2.46,2.61c-.49-.17-.91-.27-1.23-.37.47-2.06,1-4.1,1.67-6.12C175.79,139.24,176.47,140.51,177.14,141.81ZM180,106.7c.49-.17,1.52-.79,2-.66.94.24.79,1.84.84,2.57a23.86,23.86,0,0,1-.32,5.6,44.34,44.34,0,0,1-3.27,10.41c-1.52,3.47-3.24,6.81-4.51,10.39-3.76,10.61-5.11,22-5.28,33.23-1.53-2.9-2.93-5.87-4.23-8.87,0-.49.81-15.84,4.28-24.85,3.51-9.16,7-18.15,7-18.15s-6.71,14.39-8.25,19.11c-2.53,7.76-3.74,17.65-4.1,21.41-.49-1.18-1-2.38-1.43-3.58.22-3.39,1.21-16.14,4.23-24,3.51-9.16,7-18.15,7-18.15s-6.7,14.39-8.25,19.11a110.53,110.53,0,0,0-4,20.43c-.42-1.13-.81-2.24-1.21-3.37.17-2.87,1-14,3.69-20.89,3-8,6.09-15.77,6.09-15.77s-5.82,12.5-7.15,16.58a95,95,0,0,0-3.46,17.63c-.42-1.25-.84-2.51-1.25-3.76.14-2.23,1-12.6,3.68-18.93,3-7.12,6.09-14.14,6.09-14.14s-5.82,11.19-7.15,14.88a78.26,78.26,0,0,0-3.44,15.64c-.49-1.57-1-3.15-1.44-4.72a84.65,84.65,0,0,1,2-12.27,125.37,125.37,0,0,1,4-12.63,93.34,93.34,0,0,0-4.79,12.45,91.71,91.71,0,0,0-1.91,10c-.07-.29-.17-.56-.25-.86-.36-1.22-.71-2.48-1-3.73a68.51,68.51,0,0,1,1.45-8.4A98.15,98.15,0,0,1,158.94,108,76.61,76.61,0,0,0,155,118.26c-.61,2.31-1,4.84-1.35,6.64-.29-1.09-.59-2.14-.86-3.22a73.38,73.38,0,0,1,1.5-9,96.71,96.71,0,0,1,3.32-10.39,74.93,74.93,0,0,0-3.93,10.24,65.91,65.91,0,0,0-1.4,7.05c-.37-1.4-.72-2.83-1-4.23a46.66,46.66,0,0,1,1.42-6.82A74.36,74.36,0,0,1,156,99.82a57.33,57.33,0,0,0-3.92,8.65,49.21,49.21,0,0,0-1.23,5s0-.1,0-.15c-.32-1.35-.59-2.72-.83-4.07a42,42,0,0,1,1.15-5.53,64.43,64.43,0,0,1,2.68-7.09,48.2,48.2,0,0,0-3.19,7,38.53,38.53,0,0,0-.94,3.78c-.19-1.28-.34-2.56-.46-3.86,0-.32-.05-.61-.08-.93a34.84,34.84,0,0,1,1-4.45,65,65,0,0,1,2.57-6.87c.32.71.67,1.4,1,2,2.65,4.81,6.43,9.33,11.4,11.81A19.74,19.74,0,0,0,180,106.7ZM168.3,73l.88-.81c1.25.62,4.94,2.7,4.69,5.45a7.29,7.29,0,0,0-2.4-.29,7,7,0,0,0-4.08-3.54C167.68,73.57,168,73.3,168.3,73Zm17.53-11.37a28.61,28.61,0,0,1,.84,3,4.17,4.17,0,0,0-3.12,1,3.16,3.16,0,0,0-2-.79,8.87,8.87,0,0,0-1.33-4c.81-.56,2.92-1.79,4.5-.47A6.92,6.92,0,0,1,185.83,61.66Zm1.23,11.59a3.44,3.44,0,0,0-.59-.46c-.15-.1-.32-.17-.47-.25a9.62,9.62,0,0,0-1.79-6.11c.56-.44,1.72-1.16,2.68-.64a24.17,24.17,0,0,1,.34,4A27.46,27.46,0,0,1,187.06,73.25Zm-9,18.94c-.47.59-.94,1.15-1.4,1.74-.47-.42-1.6-.83-4.35-.25a4.86,4.86,0,0,0-.57-1.49,10.51,10.51,0,0,0,0-5.87c1.13-.37,4.08-1.13,5.55.07,1.82,1.5.59,5.7.57,5.75Zm-2,2.48h0s0,0,0,0S176.06,94.69,176.06,94.67ZM166.21,98a5.13,5.13,0,0,0-.59-1c.37-.94,1.45-4,.61-6.46,1,.15,3.54.66,4.62,2.08.93,1.26.69,3.84.42,5.28A8.23,8.23,0,0,0,166.21,98Zm-5.52,2.58c-.3-.3-.62-.59-.91-.89a11.78,11.78,0,0,0,.09-4.71c6,1.2,5.9,4.66,5.8,6.38A8.51,8.51,0,0,0,160.69,100.54Zm-2.88-7.69c1.16,1.23,1.52,3.19,1.13,5.84a7.51,7.51,0,0,1-.61-.76,34.75,34.75,0,0,1-4.23-6.58A5.35,5.35,0,0,1,157.81,92.85Zm6.46-3.63c2.06,1.79,1.13,5.37.61,6.9a10,10,0,0,0-5.3-2.26,5.05,5.05,0,0,0-1-1.67l-.07-.08a8.48,8.48,0,0,0-.13-4.86A8.76,8.76,0,0,1,164.27,89.22ZM170,85.16c1.57,1.92,1.25,4.77,1,6.14a10.73,10.73,0,0,0-5-1.84l0,.32a4.84,4.84,0,0,0-.88-1.18,16.74,16.74,0,0,0-2-5.47C166.38,82.88,168.74,83.54,170,85.16Zm7.17,0c-2-.88-4.76-.12-5.82.22a4.64,4.64,0,0,0-.59-.85,1.18,1.18,0,0,0-.17-.2,8.58,8.58,0,0,0-1.42-5.7c2.72-.59,4.78-.29,6.13.91C177.09,81.11,177.24,83.84,177.21,85.16ZM176,78.8a5.07,5.07,0,0,0-1.15-.78,4.76,4.76,0,0,0-1.42-4c1.25-.73,4.59-2.48,6.75-1.15S182,78.44,181.78,80A8.59,8.59,0,0,0,177,80,5.4,5.4,0,0,0,176,78.8Zm7.17-12.1A8.65,8.65,0,0,1,185,72.27a9.92,9.92,0,0,0-3.83.2,2.62,2.62,0,0,0-.52-.39,4.45,4.45,0,0,0-2.62-.62,5.82,5.82,0,0,0-1.43-3.53C177.85,67,181.48,64.71,183.15,66.7Zm-1.25,6.63a6.35,6.35,0,0,1,4.08.32,2.17,2.17,0,0,1,.91,1,28.89,28.89,0,0,1-2.58,8,4.22,4.22,0,0,0-1.52-2.16.43.43,0,0,0-.1-.07C182.88,79.37,183.33,75.61,181.9,73.33Zm-.76-14a6.05,6.05,0,0,0-1.92-2,10.94,10.94,0,0,0,.3-1.45c1.15.62,2.82,1.75,3.22,3A5.54,5.54,0,0,0,181.14,59.31ZM177,62.84c.47-.88.91-1.79,1.31-2.75A8.55,8.55,0,0,1,180.55,65a8.38,8.38,0,0,0-1.67.49A6.35,6.35,0,0,0,177,62.87S177,62.84,177,62.84Zm-2.18,3.34Zm-.61.79c.71.54,2.87,2.36,2.84,4.61a11.74,11.74,0,0,0-2,.59,6.18,6.18,0,0,0-2.84-2.92C172.91,68.49,173.58,67.75,174.22,67Zm-9.48,7.56-.76-4.2c.63-.51,1.25-1,1.86-1.55l-.27,5C165.3,74,165,74.29,164.74,74.53Zm-1.08,2.55a6.12,6.12,0,0,1,4.59,2,7.07,7.07,0,0,1,1.42,4.47,7.55,7.55,0,0,0-3-1.2c-.37-3.1-3.42-4.06-4.18-4.25C162.9,77.72,163.26,77.4,163.66,77.08Zm-4.57,3.69c2.9,1.08,4.22,4.91,4.74,6.9A9.46,9.46,0,0,0,161,86.51a11.28,11.28,0,0,0-2.8-5C158.48,81.26,158.79,81,159.09,80.77ZM155,83.86a8.11,8.11,0,0,1,2.6,7.54,5.51,5.51,0,0,0-1.69-.76,9.59,9.59,0,0,0-2.51-5.6C154,84.67,154.5,84.28,155,83.86Zm6.65,17.56c1.43,0,3.93.37,6.88,2.87l.22-.27a5.32,5.32,0,0,0-.44,1.18A21.38,21.38,0,0,1,161.69,101.42Zm8.13,1c-.25.34-.49.71-.71,1.08a17.11,17.11,0,0,0-2.46-1.7,2,2,0,0,1,0-.39,9.43,9.43,0,0,0-.15-2.48c1.13-.34,4.15-1.06,5.45.66C171.22,100.49,170.48,101.42,169.82,102.38Zm3.86-4.84c-.37.42-.72.86-1.09,1.28a3.12,3.12,0,0,0-.44-.45,13.89,13.89,0,0,0,.32-3.7c2.73-.59,3.46-.08,3.59,0Zm5.5-6.73c.22-1.52.24-3.73-1-5a10.64,10.64,0,0,0-.68-5c1-.22,3.31-.52,4.76.51a3.57,3.57,0,0,1,1.35,2.78c-.24.46-.51,1-.81,1.42A62.82,62.82,0,0,1,179.18,90.81ZM185,59.45a3.8,3.8,0,0,0-1.18-.49c-.4-2.11-3.05-3.61-4.13-4.15a12,12,0,0,0-.12-3A26,26,0,0,1,185,59.45Zm-7.62-10.16c.15.24.25.49.37.73a.5.5,0,0,0,.13.3,9,9,0,0,1,.49,1.84l-2.07-2.82,2.14,5.5a5.28,5.28,0,0,1-.1.71L177,53.17l.93,4.2c-.17.63-.39,1.25-.61,1.86L176.25,56l.4,4.71c-.2.42-.4.84-.62,1.23a8.57,8.57,0,0,1-.59,1l-.66-3.66-.27,5.08c-.22.32-.44.64-.69,1l-.66-3.59-.25,4.72-.88,1-.61-3.37-.22,4.28c-.32.34-.64.66-1,1l-.68-3.73-.25,4.64c-.3.29-.61.56-.91.86l-.71-4-.25,4.86-.86.79-.76-4.13A31.89,31.89,0,0,0,174.36,58a14.74,14.74,0,0,0,1.43-6.85,37.75,37.75,0,0,0-.72-4.59A9.49,9.49,0,0,1,177.33,49.29Zm-7.17-.86a6.66,6.66,0,0,0-.54,4.54l-.17.15A5.22,5.22,0,0,0,166.38,52,7.66,7.66,0,0,1,170.16,48.43Zm4.45,3.48a13,13,0,0,1-.91,4.72,8.11,8.11,0,0,0-1.23.22C172.18,54.54,173.8,52.7,174.61,51.91Zm-3.91,7.74A3.4,3.4,0,0,1,173.11,58a25.06,25.06,0,0,1-3.17,4.88A11.44,11.44,0,0,1,170.7,59.65Zm.62-2.31a4.56,4.56,0,0,0-.86.62,4.13,4.13,0,0,0-1.94-.35c.27-1.1.91-3.09,2.21-3.9a2.18,2.18,0,0,1,1.35-.37A6,6,0,0,0,171.32,57.34ZM165.38,57a12.28,12.28,0,0,1,.51-3.68,4.34,4.34,0,0,1,2.8.81,11,11,0,0,0-1.45,3.73,8.52,8.52,0,0,0-1.57.54A3,3,0,0,1,165.38,57Zm1,2.41a5.2,5.2,0,0,1,3.31-.4.42.42,0,0,1-.1.17,13.61,13.61,0,0,0-.93,5.21l-.22.22a5.43,5.43,0,0,0-1.77-4.89A3.72,3.72,0,0,0,166.36,59.36Zm8.17-9a12.9,12.9,0,0,0-1.71,1.8,3.61,3.61,0,0,0-2.07.12,5.66,5.66,0,0,1,1.28-4.5,10.1,10.1,0,0,1,1.28-.19l.88.51C174.34,48.89,174.46,49.66,174.53,50.39Zm-55-6.16a5.73,5.73,0,0,0,2.58,2,9.44,9.44,0,0,0,3.88.56c.74,0,1.48,0,2.19.05a6.81,6.81,0,0,1,2.08.12c.55.35.86,2.53,1.06,3.22A12.31,12.31,0,0,0,133.6,55a5.08,5.08,0,0,0,3.12,1.77c-.27.1-.54.2-.81.27a15.45,15.45,0,0,1-6-4.39s2.53,3.8,5.13,4.64l-.34.07a15.23,15.23,0,0,1-6.12-4.42s2.46,3.71,5,4.62l-.72.07A18,18,0,0,1,125,52s2.75,4.15,5.77,5.52a11.71,11.71,0,0,1-6.41-3.41A16.25,16.25,0,0,1,119.55,44.23ZM133.7,58.79c4.3-.56,8.13-3.07,11.61-5.5,4-2.8,7.91-5.72,12.67-7.1a20.35,20.35,0,0,1,13.44.52,10.08,10.08,0,0,0-2.56,1,21.89,21.89,0,0,0-10.14.34c-2.65.89-5.94,3.12-9.16,5.31-2.72,1.84-5.3,3.58-6.95,4.1,0,0,3.07-.49,7.22-3.71a35,35,0,0,1,9-5.23,20.8,20.8,0,0,1,9.35-.42,9.83,9.83,0,0,0-1.64,1.43,17,17,0,0,0-7.88.73c-2.66.89-5.95,3.12-9.16,5.31a47.35,47.35,0,0,1-6.24,3.83A29.39,29.39,0,0,1,133.7,58.79Zm11,.52c1.5-.81,3.29-2,5.13-3.29,3.17-2.17,6.41-4.6,9-5.23,4.76-1.16,5.84-.79,7.27-.64a7.66,7.66,0,0,0-.86,1.42,17.89,17.89,0,0,0-6,.79c-2.66.88-6,3.12-9.16,5.3-.57.39-1,.71-1.33,1l-.24.07S147,59,144.7,59.31Zm-48.13,15c4.69-4,7.37-4.69,8.84-4.52,1.92.22,3.9,1.7,5.8,3.12,2.52,1.91,5.15,3.88,8.05,3.27a23.9,23.9,0,0,0,4.3-1.23,7.2,7.2,0,0,1,2.5-.59c1.18-.1,3.27,1,5.26,2.13a26.74,26.74,0,0,0,4,1.94l-.59.23-10.44-2.26s6.09,1.84,9.6,2.55c-.61.22-1.25.39-1.84.56l-11-2.38s6.53,2,10,2.63c-.81.2-1.57.37-2.21.49l-11-2.38s6.24,1.89,9.72,2.58l-.54.1a56,56,0,0,1-17-4C104,74.09,99.39,73.92,96.57,74.36Zm58.79-4.57a20.46,20.46,0,0,1-8.67,8.3A26.93,26.93,0,0,1,131.86,81c4-1,10-3.26,9.92-7a7.26,7.26,0,0,0-2.09-5c-.88-1.06-1.38-1.65-.66-3.07.95-1.94,3.31-2.68,5.4-3.32a8.29,8.29,0,0,0,3.14-1.42l3.19-3.1-.76.2a3.56,3.56,0,0,1,.35-.22c3.16-2.16,6.46-4.37,9-5.23a17.46,17.46,0,0,1,5.65-.76,9.44,9.44,0,0,0-.61,2,17.36,17.36,0,0,0-5.7.79c-2.65.88-5.94,3.12-9.16,5.3-2.72,1.85-5.3,3.59-6.95,4.11,0,0,2.46-.37,7.22-3.71,3.14-2.21,6.46-4.37,9-5.23a16.92,16.92,0,0,1,5.45-.76,13.87,13.87,0,0,0-.17,2.11,19,19,0,0,0-7,1.25c-2.58,1.08-5.7,3.56-8.74,6-2.58,2-5,4-6.63,4.61,0,0,1.86-.22,6.92-4.22,3-2.38,6.12-4.86,8.62-5.89a18.48,18.48,0,0,1,6.78-1.23,4.27,4.27,0,0,0,.41,1.72,19.61,19.61,0,0,0-7.36,1.25c-2.58,1.08-5.7,3.56-8.74,6L142,71.24c1.7-.66,4.15-2.63,6.76-4.69,3-2.38,6.11-4.86,8.61-5.89a19.15,19.15,0,0,1,7.47-1.23,7.17,7.17,0,0,0,.56.74,21,21,0,0,0-8.76,2c-2.46,1.31-5.33,4.08-8.13,6.78l-5.94,5.67c1.62-.83,3.88-3,6.28-5.3,2.78-2.65,5.63-5.4,8-6.68a20.88,20.88,0,0,1,9-2,5.75,5.75,0,0,1,1,1.35c-.29.1-.64.2-1,.35a20.64,20.64,0,0,0-9,2.06c-2.45,1.3-5.33,4.07-8.12,6.78l-5.95,5.67c1.62-.84,3.88-3,6.29-5.31,2.77-2.65,5.62-5.4,8-6.67A18.9,18.9,0,0,1,164.37,63a26.49,26.49,0,0,0-5,2.65,16.41,16.41,0,0,0-2.21.93c-2.45,1.31-5.32,4.08-8.12,6.78-2.39,2.29-5.95,5.67-5.95,5.67,1.62-.83,3.88-3,6.29-5.3,2.78-2.65,5.62-5.4,8-6.68l.59-.29A7.93,7.93,0,0,0,155.36,69.79Zm8.62.57-.27,5c-.27.23-.54.47-.84.69l-.79-4.29a2.15,2.15,0,0,0,.27-.23C162.92,71.19,163.44,70.77,164,70.36Zm-7.4,5.23a48.21,48.21,0,0,0,5.53-3.78L161.84,77l-.81.66-.79-4.32L160,78.48l-.81.67-.78-4.3L158.11,80c-.2.15-.37.3-.57.44l-.27.23-.78-4.28-.27,5.09c-.27.22-.57.44-.84.63l-.76-4.19-.25,5-.86.64-.73-4.1-.25,4.84-.83.61a10.55,10.55,0,0,1-.37-3.17C151.4,78.29,154,77.06,156.58,75.59Zm-6.38,8.17a18.16,18.16,0,0,0,.44,2,39.41,39.41,0,0,0,2,5.5,45.77,45.77,0,0,0-3.09,6.8c-.22.69-.42,1.4-.57,2.09,0-1.06,0-2.09,0-3.15.12-.68.3-1.42.49-2.13a53.72,53.72,0,0,1,2-5.72,39.59,39.59,0,0,0-2.39,5.62c0,.07,0,.12,0,.2,0-.86.07-1.7.09-2.56A47.46,47.46,0,0,1,150.2,83.76Zm-8.13,9.11a3.2,3.2,0,0,1,2.09,3.54,11.38,11.38,0,0,0-6,3.49c-.07,0-.12,0-.19,0a4.11,4.11,0,0,0-1.26-2.8Q139.32,94.87,142.07,92.87Zm-6.14,4.84a3,3,0,0,1,1,2.11c-2.72.18-4.83,2.36-5.59,3.29-.25-.14-.47-.29-.72-.41C132.32,101,134.09,99.31,135.93,97.71ZM112.7,132.48c.64-1.89,1.33-3.73,2.09-5.57a20.27,20.27,0,0,1,1.84,5.67,13,13,0,0,0-4.79,2.85C112.09,134.45,112.38,133.47,112.7,132.48Zm-1.86,27.26c3.56,0,5.4,1,6.16,1.6a11.29,11.29,0,0,0-4.08,7.14l-.29,0c-.66-2.68-1.25-5.36-1.7-8.08C110.91,160.16,110.86,160,110.84,159.74ZM116,208.51a34.08,34.08,0,0,0-8.45,7.71c-4.81,6.09-8,13.23-13,19.23a35.56,35.56,0,0,1-4.1,4.22,57.31,57.31,0,0,0,7.1-11.57,71.84,71.84,0,0,1,5.6-9.89,42.78,42.78,0,0,1,8.07-8.28c1.67-1.35,3.42-2.63,5.19-3.83a11.84,11.84,0,0,1,6.18-2.38.62.62,0,0,0,0-1.23c-3.68.1-6.72,2.41-9.57,4.5a55.24,55.24,0,0,0-8.43,7.44c-5.13,5.72-7.68,13-11.59,19.47a29.4,29.4,0,0,1-7.53,8.74c.58-1.28,1.3-3.34,1.42-3.66a24.06,24.06,0,0,0,.76-2.95c1.11-2,5.7-10.33,9-15.07a140.38,140.38,0,0,1,9.23-11.42s-2.21,1.42-6.75,6.38c-3.69,4-9.09,13.36-11,16.78a29,29,0,0,0-.22-6c1.57-2.65,6.63-10.83,11.46-15.18,0,0-7.9,6.41-11.64,14-.09-.63-.22-1.25-.34-1.89A24.39,24.39,0,0,1,87,221a42.92,42.92,0,0,1,13.18-12.58s-8.34,4-13.21,9.58a11,11,0,0,1,1.82-5.23,15.75,15.75,0,0,1,8.37-6,.62.62,0,0,0-.17-1.2.54.54,0,0,0-.42-.15c-.88,0-1.76,0-2.65,0-.34,0-1,.05-1.25-.37a.87.87,0,0,1,0-.47,29.27,29.27,0,0,1,10.53-1.08s-3-1.52-10.22-.22a7.57,7.57,0,0,1,1.82-2.92,28.13,28.13,0,0,1,10.54.81s-3.44-2.09-9.51-1.74c2.16-1.75,5.65-3.51,8.3-2.58a3.88,3.88,0,0,0,3.15.44.61.61,0,0,0-.32-1.18,2.56,2.56,0,0,1-3.17-1.45,2.75,2.75,0,0,1-.12-1.74c1.76.22,5.64,1,7.61,3.9A9.63,9.63,0,0,0,104,192a5,5,0,0,1,1.05-1.42,8.86,8.86,0,0,1,2-1.45h0s3.78,1.15,6.33,6.11a11.71,11.71,0,0,0-5.13-6.68,13.09,13.09,0,0,1,3.78-.86,11.9,11.9,0,0,1,5.65.89.1.1,0,0,0,.07,0,6.5,6.5,0,0,1,1.38.89c1.67,1.42,2.48,3.56,4.17,5,.61.49,1.47-.37.86-.86a21.41,21.41,0,0,1-3-3.49c6-4.89,17.07-2.16,20.41-1.18a15.06,15.06,0,0,0-5.52,8.08,5.47,5.47,0,0,0-1.5,1.57c-.64,1.06-.49,2.68-2.11,2.31a5.89,5.89,0,0,0-5.68,1.28.5.5,0,0,0-.14.59h0c.05.19.09.39.14.56A63.24,63.24,0,0,0,116,208.51Zm48.18,31.36a8.4,8.4,0,0,0-5-1.87c-1.45-.1-3,.27-4.35-.22-2.09-.74-3.68-2.6-5.11-4.2s-3.29-3.29-4.76-5.08a29.09,29.09,0,0,1-4-6.73,43.4,43.4,0,0,0-3.19-6.71c-1.57-2.35-3.86-3.51-6-5.25a12.6,12.6,0,0,1-3.88-6.95,4.33,4.33,0,0,1,3.1-1c.86.07,1.67.54,2.55.37,1.65-.32,1.47-2.26,2.33-3.37,1.4-1.77,3.83-1.91,5.82-1.23,2.21.79,7,3.79,6.44,3.22a21.24,21.24,0,0,0-5.5-4.12c1.05-1.08,1.52-2.36,3.34-2.41a11.06,11.06,0,0,1,4.86,1.42,23.29,23.29,0,0,1,7.68,6,1,1,0,0,0,.18.15c.49,1.79,3.65,4,3.41,3.29A6.08,6.08,0,0,0,161,203.4c-.55-.64-1.6-1.52-.86-2.41,1.35-1.67,5.28,1.18,6.33,2.21,1.57,1.55,2.41,3.91,3.37,5.85s2.08,4.15,3.11,6.24,2.09,4.15,3.12,6.23,2.09,4,2.09,6.41a7.9,7.9,0,0,1-6.7,8,4.64,4.64,0,0,0,1.84-3.12,9.16,9.16,0,0,0-1.3-6.9c-.67-.86-1.5-1.57-2.19-2.43-1.1-1.4-1-3-1.1-4.61a8.36,8.36,0,0,0-1.48-3.88,13.84,13.84,0,0,0-2.8-3.42,22.89,22.89,0,0,0-4.27-2.18c-1.69-.81-6.43-1.7-5.72-1.35,2.55,1.2,5.11,2.4,7.64,3.63a10.63,10.63,0,0,1,5.13,6c.71,2.19,0,4.4,1.47,6.39.57.76,1.28,1.4,1.89,2.11a6,6,0,0,1,1.55,3.76c.2,2.35-.12,5.74-3.29,5.47a4.49,4.49,0,0,1-1.57-.44s0,0,0-.05a.51.51,0,0,0-.37-.17,12.27,12.27,0,0,1-3.46-4.25,35.14,35.14,0,0,0-9.13-10.19,31.55,31.55,0,0,0-3.29-2.16,11.79,11.79,0,0,1-3.59-2.55,38.9,38.9,0,0,1-2.68-4.13c-.85-1.4-1.74-2.8-2.6-4.2-.42-.66-1.47,0-1,.61,1.67,2.71,3.19,5.6,5.1,8.13a10.81,10.81,0,0,0,2.95,2.53v.08a17.82,17.82,0,0,0,4,12.64c2.75,3.15,7.17,4.81,11.22,3.29a.8.8,0,0,0,.24-.14,7.71,7.71,0,0,0,1.9,1.52c2,2.11,2.89,4.91,4.51,7.24a13.12,13.12,0,0,0-3.41-.93,8.71,8.71,0,0,0-1.42-.1A10.34,10.34,0,0,0,164.2,239.87Zm-13.93-20.78c.81.47,1.62.93,2.39,1.45a33.6,33.6,0,0,1,6.31,5.72c1.86,2.19,3.11,4.74,4.81,7.05-3.73,1.28-7.61-.37-10-3.34A16.7,16.7,0,0,1,150.27,219.09ZM203.41,242c-1.45,1.74-3.68,1.45-5.69,1.52-3.2.12-6.46.88-8.65,3.39-1.23,1.42-2.18,2.8-3.9,3.68a16.57,16.57,0,0,1-5.11,1.52,12.36,12.36,0,0,1-5.77,0c-2.09-.66-3.27-2.38-4.37-4.15l-.44-.86c-.59-.34-4.89-3.34-8.16,1.57a25.27,25.27,0,0,0-1.67,3.95c-1.72,4.74-4.34,11.89-9.84,14.39-2.75,1.26-5.92,1.21-9.38-.14-7.37-2.85-12.53-8.33-17.07-13.19s-9.09-9.4-13-10a6.74,6.74,0,0,0-5.5,1.4c-2.11,1.72-3.24,4.67-3.85,7.51a11.75,11.75,0,0,1,2.18-7c1.8-2.23,4.69-3.31,8.62-3.19,4.82.15,8.55,4.12,12.87,8.74l.64.69c4.35,4.64,9.28,9.89,16.06,12.5,2.82,1.08,5.2,1.15,7.29.19,4.47-2,6.75-8.27,8.42-12.84a25.39,25.39,0,0,1,1.94-4.52,8.33,8.33,0,0,1,8.3-3.88,21,21,0,0,1,4.94,1.35c.17.18.34.32.54.5,2.73,2.25,6.83,2.4,10.14,1.62a9.27,9.27,0,0,0,4.4-2.36c1.18-1.18,2-2.68,3.14-3.88,1.55-1.62,3.36-1.72,5.48-1.35,1.64.29,3.48.76,5.1.1,1.85-.76,2.48-3,2.41-4.82a1.1,1.1,0,0,0,0-.24c.17.39.32.76.46,1.18a.59.59,0,0,0,0,.34C204.71,237.83,204.91,240.26,203.41,242Zm6.46-16.51a22.81,22.81,0,0,1,4.42,1.23c6.34,2.14,11.37,3.32,13.83-2.72,1.91-4.72.29-9.78-1.13-14.25-1.5-4.64-2.36-8.1.19-10.53a8.23,8.23,0,0,1,7.37-2.53,12.41,12.41,0,0,0-6.34,3.49c-1.4,1.45-.78,4.52.64,9s3.29,10.21,1.08,15.59c-1.47,3.61-4,5.52-7.56,5.7-2.92.12-6-.91-8.72-1.85a24,24,0,0,0-4-1.13c-2.75-.32-4.39,3.61-5.13,6a16.37,16.37,0,0,0-1.45-2.48C203.9,229,206,225.06,209.87,225.52Zm-9.33,3.17c1.23,2.9,3.83,10-1.79,9.7-3-.17-5.9-1.5-8.5.74-2.36,2-3.34,5-6.48,6.16s-7.69,1.11-10.32-1.23c-2.3-2.06-3.26-5.05-4.91-7.56a4.12,4.12,0,0,0,.79,0c.15,0,.27,0,.39,0a.59.59,0,0,0,.59.66,8.82,8.82,0,0,0,5-1.47h0s3.7,4.2,8.1,2.73,3.78-4.67,5.5-5.82,4.17,1.05,6.8.78,2.29-5.5,2.29-5.5h0c.44.1.88.17,1.32.25a4,4,0,0,0,1.23.07A.6.6,0,0,0,200.54,228.69Zm-6-2.31Zm3.17-23.4a25.9,25.9,0,0,1,.14,11,.61.61,0,0,0,1.18.32,18.34,18.34,0,0,0,.42-2.33c.88.54.91,2.92,1.13,3.9.34,1.5.74,3,1.1,4.47a12.94,12.94,0,0,1,.62,3.14,8.81,8.81,0,0,1-.69,2.63,1.45,1.45,0,0,1-1.77,1,17.75,17.75,0,0,1-1.89-8.82c0-.73-1.52,3,.54,8.57a6.41,6.41,0,0,1-4.35-2.65,11.44,11.44,0,0,1-1.57-6.14,60.4,60.4,0,0,1,1.57-13.58c.25-1.15.5-2.31.77-3.46.09-.47.22-.91.32-1.38s.19-2.18,1.12-1.44c.47.36.67,1.81.79,2.35C197.37,201.31,197.57,202.15,197.72,203Zm11.14-20.13a42.44,42.44,0,0,0-11.37,2,2.72,2.72,0,0,0-1.08-1.3.75.75,0,0,0-.17-.1c-1.5-3.78-3-7.56-4.12-11.47-.62-2.06-1-4.15-1.6-6.23a10.65,10.65,0,0,0-.42-1.28c2.26-1.79,5.31-2,8.08-2.09.59,0,1.21,0,1.82,0l-1.16,6c0-.27,2-4.61,2.53-5.79a4.51,4.51,0,0,1,1.35.59,2.59,2.59,0,0,1,1,1.2l-4,5.11,4.2-3.73a7,7,0,0,1-.66,2.38l-.37.15c-.73.29-.42,1.47.32,1.17a17.84,17.84,0,0,1,3.32-.88l-4.35,3.27,5.62-3.39a20.62,20.62,0,0,1,2.83,0,9.63,9.63,0,0,1,1.18.12l-7.27,3.71,8.27-3.44a4.07,4.07,0,0,1,1.48.91,2.73,2.73,0,0,1,.32.42L205,173.93l10-2.62a1.86,1.86,0,0,1-.83,1.76.58.58,0,0,0-.27.54c-1.5.45-7.32,2.09-9.09,2.58,1.84-.42,8-1.64,9.23-1.89a.67.67,0,0,0,1.11,0c.66-1,3.51.39,4.3.71a12,12,0,0,1,2.11,1.08c-5.55-.78-12.94,1.23-12.94,1.23,3.24-.78,11.81-.37,14.24-.22.22.2.42.42.64.64.61.69,1.18,1.37,1.77,2-4.89-1.77-14.34-1.16-14.34-1.16,9.3.81,14,2,15.51,2.41a17,17,0,0,0,2.51,2.09l-10.31-1.77,11.49,2.48a18.73,18.73,0,0,0,9.18,2.33,7.49,7.49,0,0,1-.86.39,1.38,1.38,0,0,0-.22.1,20.2,20.2,0,0,1-5.13,1.43,37.08,37.08,0,0,1-4.84-1.62c-3.46-1.28-7-2.39-10.56-3.34A51.32,51.32,0,0,0,207.39,181c-3.61-.2-7.34.76-10.88,1.3-.78.12-.44,1.3.32,1.18,3.95-.62,8.13-1.72,12.13-1.09.69.1,1.4.25,2.09.37Zm11.23,2.58c-.37-.23-.74-.45-1.08-.64l1.12.32c3.2.93,6.29,2.08,9.41,3.19A20.29,20.29,0,0,1,220.09,185.43Z"/><path class="cls-12" d="M204.86,176.19l-.51.13Z"/><path class="cls-12" d="M158.11,230a1.11,1.11,0,1,1,0-2.21,1.14,1.14,0,0,1,1.08.86,2.55,2.55,0,0,0,0-.39,2.8,2.8,0,1,0-.46,1.54A1.08,1.08,0,0,1,158.11,230Z"/><path class="cls-7" d="M57.87,228.64s8.55-17.41,8.89-24.09-.54-14.16-5.89-12.86,4.49-18.74,6.26-21.17,4.34-3.59,6.31-5.38,5.79-10.07,9.6-11.76,5.38,2.77,4.44,4.54-2.75-.22-2.75-.22-4,5-5.15,9.21-1.57,6.9-.57,9.63a10.72,10.72,0,0,1,4.4-1.31s4.61-6.6,9.13-7.78c0,0,6.41-7.29,9.09-8.64s2.8-.08,5.62-1.57,5.45-6.76,11.62-6.14,6.87,5.3,5.42,5.69a2.94,2.94,0,0,1-3.48-1.72c-.4-1.27-3.49-2.43-6.63,1.26s-3.34,7.19-5.63,9.38-6.21.73-10,6.09-3.44,6.87-3.44,6.87a7.56,7.56,0,0,1,3.73,1.18s3.34-3.14,6-1.72c0,0,8.13-3.66,12.55-2.48s6.38,5.4,2.55,7.3c0,0-.61-6.17-5.5-5.21s-7.88,4-8.72,5.84-9.18,16.68-9.08,16.9,5.3-1,6.51,2.43,0,4.1-1.31,4.57a2.16,2.16,0,0,1-2.23-.76s2-1.18.56-1.82-4.88,0-7.66,4.91-6.06,21.73-6.06,21.73Z"/><path class="cls-12" d="M87,231.64l-.93,2c.15-.69,3.09-19.16,5.87-24.14,2.92-5.23,6.73-5.94,8.44-5.18a1.26,1.26,0,0,1,.86,1.08,1.81,1.81,0,0,1-.68,1.33,1.17,1.17,0,0,0,1.05.14c1-.39,2-.76.94-3.78-.81-2.31-3.93-2.11-5.26-2-.64.05-1,.07-1.25-.42s-.15-.39,4.59-9c2-3.71,4.13-7.52,4.52-8.35.88-1.94,4-5.21,9.16-6.19a4.6,4.6,0,0,1,3.71.74,7.16,7.16,0,0,1,2.35,4.07,2.11,2.11,0,0,0,1-2c-.15-1.57-1.87-3.09-4.12-3.71-4.18-1.1-12.06,2.43-12.16,2.46l-.27.12-.27-.15c-2.23-1.18-5.28,1.6-5.3,1.65l-.37.34-.42-.27a6.78,6.78,0,0,0-3.39-1.05h-.46l-.13-.45c-.07-.29-.27-2.08,3.54-7.39a11.6,11.6,0,0,1,7.19-4.83,6.77,6.77,0,0,0,2.93-1.33,11.43,11.43,0,0,0,2.25-3.78,21.52,21.52,0,0,1,3.32-5.58c2.5-2.89,4.79-2.8,5.65-2.6a2.55,2.55,0,0,1,2,1.57,2.33,2.33,0,0,0,2.75,1.3c.1,0,.2-.27.17-.66-.07-1.13-1.35-3.39-5.5-3.81s-6.46,1.87-8.57,3.88a13,13,0,0,1-2.7,2.19,6.39,6.39,0,0,1-3.17.91,5,5,0,0,0-2.45.66c-2.56,1.3-8.84,8.42-8.92,8.5l-.12.15-.17,0c-4.25,1.11-8.74,7.47-8.79,7.54l-.17.25h-.32a10.12,10.12,0,0,0-4.1,1.2l-.64.37-.25-.69c-1-2.85-.66-5.6.54-10s5.11-9.23,5.26-9.43l.44-.57.49.54c.25.27.89.81,1.3.74,0,0,.25,0,.44-.39a3.35,3.35,0,0,0-.71-3.32,2.42,2.42,0,0,0-2.94-.39c-2.29,1-4.69,4.76-6.61,7.76a22.58,22.58,0,0,1-2.82,3.9,23.28,23.28,0,0,1-2.41,1.87,15.34,15.34,0,0,0-3.81,3.41,74.79,74.79,0,0,0-5,10c-2.65,6.28-3,9.3-2.55,10.06,0,.08.14.23.63.1a4.3,4.3,0,0,1,3.91.74c2.16,1.79,3.09,6.07,2.75,12.74s-10.63,27-11,27.7c0,0,9.43-21.26,9.75-27.74.3-6.09-.52-10.27-2.31-11.74a3,3,0,0,0-2.82-.49,1.66,1.66,0,0,1-1.94-.62c-.35-.51-1.4-2.08,2.43-11.22a80.12,80.12,0,0,1,5.13-10.29,16.58,16.58,0,0,1,4.1-3.71c.81-.59,1.6-1.13,2.31-1.76A25.82,25.82,0,0,0,75.65,161c2-3.15,4.52-7.05,7.14-8.23a3.58,3.58,0,0,1,4.35.66,4.51,4.51,0,0,1,.91,4.72,1.76,1.76,0,0,1-1.38,1.05,2.64,2.64,0,0,1-1.84-.63c-1,1.35-3.73,5.18-4.64,8.47-1,3.88-1.45,6.26-.78,8.59a11.1,11.1,0,0,1,3.7-1c.91-1.23,5-6.53,9.14-7.73.93-1.06,6.58-7.35,9.16-8.65a6.71,6.71,0,0,1,2.94-.81,5.29,5.29,0,0,0,2.66-.76,13.76,13.76,0,0,0,2.43-2c2.18-2.09,4.93-4.66,9.55-4.22,4.32.42,6.46,2.85,6.6,4.93a1.67,1.67,0,0,1-1.1,1.94,3.55,3.55,0,0,1-4.22-2.13,1.39,1.39,0,0,0-1.11-.74c-.66-.15-2.41-.2-4.47,2.21a20.8,20.8,0,0,0-3.12,5.28A12.32,12.32,0,0,1,109,166.1a7.28,7.28,0,0,1-3.43,1.62,10.39,10.39,0,0,0-6.54,4.37c-2.45,3.44-3.11,5.21-3.29,6a8,8,0,0,1,3,1c1-.79,3.66-2.68,6.07-1.64,1.47-.64,8.52-3.52,12.69-2.41,2.75.74,4.84,2.7,5,4.76a3.67,3.67,0,0,1-2.35,3.66l-.79.39-.1-.88s-.32-2.9-2-4.15a3.4,3.4,0,0,0-2.75-.52c-4.61.89-7.53,3.86-8.27,5.51-.39.88-2.41,4.54-4.57,8.44-1.52,2.78-3.34,6.07-4.12,7.59,1.67-.1,5.08-.07,6.11,2.87,1.28,3.66,0,4.74-1.67,5.36a2.74,2.74,0,0,1-2.92-1l-.44-.54.61-.37a2.61,2.61,0,0,0,.74-.66.74.74,0,0,0-.13-.08c-1-.49-4.27,0-6.85,4.67C90.36,214.89,87.07,231.47,87,231.64Zm8.65-53.11Z"/><path class="cls-12" d="M78.72,176.22s-1.57,1-2.38,4.15A47.89,47.89,0,0,0,75.21,187s2.08-7.79,3.83-9.7,1.4-1.79,1.4-1.79Z"/><path class="cls-12" d="M85.1,174a75.9,75.9,0,0,0-4.64,14.05,55.38,55.38,0,0,1,3-13.43Z"/><path class="cls-12" d="M93,167.84a89.07,89.07,0,0,0-4.44,10.66s0-3,3.63-11.61Z"/><path class="cls-12" d="M96.74,200.11a7.71,7.71,0,0,0-4.61,2.16,21.67,21.67,0,0,0-4,5.94s4.86-6.5,8.76-7.12Z"/><path class="cls-12" d="M81.27,213.12a21.06,21.06,0,0,1,2.9-7.07c2-2.77,6.24-1.74,6.24-1.74l-.22,1.08s-3-.54-4.5.81S81.27,213.12,81.27,213.12Z"/><path class="cls-12" d="M99.57,179.48a56.91,56.91,0,0,0-2.9,5.82c-1.43,3.32-1.84,4.3-1.84,4.3s1.3-9.7,3.68-10.12A7.32,7.32,0,0,1,99.57,179.48Z"/><path class="cls-12" d="M94.8,178.38s-1.37.42-3.39,3.73-4.17,12-4.17,12S91,184.2,93,181.74s2.48-2.53,2.48-2.53Z"/><path class="cls-7" d="M255.59,171.06s-7.66-15.57-8-21.56.46-12.7,5.28-11.52-4-16.77-5.6-18.93-3.88-3.19-5.65-4.81-5.18-9-8.59-10.54-4.82,2.48-4,4.06,2.45-.2,2.45-.2,3.59,4.44,4.62,8.25,1.42,6.16.49,8.59a9.39,9.39,0,0,0-3.93-1.15s-4.12-5.92-8.18-7c0,0-5.72-6.54-8.12-7.74s-2.51-.07-5-1.4-4.88-6.06-10.41-5.52-6.16,4.76-4.84,5.08a2.64,2.64,0,0,0,3.12-1.52c.35-1.13,3.12-2.16,5.94,1.1s3,6.44,5,8.4,5.55.66,9,5.45,3.09,6.16,3.09,6.16a6.81,6.81,0,0,0-3.34,1.06s-3-2.8-5.38-1.55c0,0-7.27-3.29-11.24-2.23s-5.73,4.84-2.29,6.53c0,0,.57-5.5,4.94-4.66s7.07,3.6,7.81,5.23S221,145.6,221,145.79s-4.74-.91-5.82,2.19,0,3.68,1.15,4.1a2,2,0,0,0,2-.69s-1.74-1.06-.51-1.62,4.37,0,6.85,4.4,5.43,19.44,5.43,19.44Z"/><path class="cls-12" d="M224.14,154.44c-2.31-4.15-5.18-4.6-6.14-4.18l-.1.05a2.19,2.19,0,0,0,.66.59l.54.32-.39.49a2.46,2.46,0,0,1-2.63.83c-1.45-.54-2.62-1.49-1.49-4.78.9-2.63,4-2.63,5.47-2.56-.71-1.35-2.33-4.29-3.68-6.77-1.92-3.49-3.71-6.78-4.08-7.57-.66-1.47-3.26-4.12-7.41-4.91a2.85,2.85,0,0,0-2.46.47c-1.52,1.13-1.82,3.68-1.82,3.71l-.07.78-.71-.34a3.28,3.28,0,0,1-2.11-3.29c.19-1.87,2-3.61,4.51-4.28,3.76-1,10.05,1.6,11.37,2.17,2.16-.94,4.57.76,5.43,1.47a7.64,7.64,0,0,1,2.7-.89c-.15-.68-.74-2.28-2.95-5.32a9.25,9.25,0,0,0-5.86-3.91,6.67,6.67,0,0,1-3.07-1.45,11.48,11.48,0,0,1-2.29-3.71,17.5,17.5,0,0,0-2.8-4.71c-1.84-2.16-3.41-2.09-4-2a1.24,1.24,0,0,0-1,.66,3.16,3.16,0,0,1-3.78,1.89,1.52,1.52,0,0,1-1-1.74c.15-1.87,2-4.06,5.92-4.42,4.13-.42,6.58,1.91,8.55,3.78a11.63,11.63,0,0,0,2.18,1.79,4.66,4.66,0,0,0,2.39.69,5.64,5.64,0,0,1,2.65.71c2.31,1.18,7.36,6.8,8.17,7.73,3.74,1.09,7.37,5.82,8.18,6.93a9.91,9.91,0,0,1,3.32.91c.59-2.09.22-4.23-.72-7.69-.81-2.94-3.24-6.36-4.15-7.59a2.28,2.28,0,0,1-1.64.59,1.65,1.65,0,0,1-1.23-.93,4.06,4.06,0,0,1,.81-4.22,3.19,3.19,0,0,1,3.91-.59c2.33,1,4.59,4.54,6.38,7.34a22,22,0,0,0,2.33,3.27c.64.56,1.33,1,2.07,1.59a14.67,14.67,0,0,1,3.68,3.32,65.84,65.84,0,0,1,4.59,9.21c3.44,8.17,2.48,9.57,2.19,10a1.52,1.52,0,0,1-1.75.54,2.76,2.76,0,0,0-2.53.44c-1.59,1.33-2.33,5.06-2.06,10.51.3,5.8,8.72,24.83,8.72,24.83-.32-.64-9.53-18.76-9.82-24.78s.54-9.82,2.45-11.42a3.74,3.74,0,0,1,3.49-.66c.44.1.54,0,.56-.1.45-.66.08-3.39-2.28-9a64.64,64.64,0,0,0-4.47-9,13.92,13.92,0,0,0-3.41-3.07,20.11,20.11,0,0,1-2.16-1.67,19.84,19.84,0,0,1-2.53-3.49c-1.72-2.67-3.88-6-5.92-6.94a2.17,2.17,0,0,0-2.65.34,3,3,0,0,0-.64,3c.17.34.34.34.39.36.37,0,1-.41,1.18-.66l.44-.47.4.5c.14.19,3.65,4.56,4.71,8.44s1.45,6.41.49,8.94l-.22.62-.56-.32a9,9,0,0,0-3.66-1.08h-.27l-.15-.23c-.05,0-4.05-5.77-7.88-6.75l-.18-.05-.12-.12c0-.07-5.7-6.46-8-7.61a4.39,4.39,0,0,0-2.21-.59,6,6,0,0,1-2.85-.81,11.9,11.9,0,0,1-2.4-2c-1.89-1.79-4.06-3.83-7.69-3.48s-4.84,2.38-4.94,3.41c0,.37.08.59.15.59A2.08,2.08,0,0,0,198.7,105a2.35,2.35,0,0,1,1.81-1.42c.79-.17,2.83-.27,5.06,2.33a18,18,0,0,1,3,5,10.63,10.63,0,0,0,2,3.39,6,6,0,0,0,2.6,1.18,10.27,10.27,0,0,1,6.46,4.32c3.41,4.76,3.24,6.36,3.17,6.63l-.08.44h-.41a6.25,6.25,0,0,0-3,1l-.37.24-.32-.29s-2.73-2.53-4.74-1.48l-.25.13-.24-.13c-.08,0-7.12-3.19-10.88-2.21-2,.54-3.56,1.9-3.71,3.32a1.92,1.92,0,0,0,.86,1.79,6.34,6.34,0,0,1,2.11-3.66,4.08,4.08,0,0,1,3.32-.66c4.56.88,7.41,3.81,8.2,5.55.34.76,2.21,4.17,4,7.49,4.24,7.71,4.24,7.71,4.12,8.08s-.54.39-1.1.37c-1.21-.08-4-.25-4.72,1.81-1,2.73-.07,3.05.84,3.39a1.07,1.07,0,0,0,.93-.12,1.51,1.51,0,0,1-.61-1.18,1.13,1.13,0,0,1,.76-1c1.52-.68,4.93-.05,7.56,4.64,2.48,4.45,5.13,21,5.26,21.59l-.84-1.77C229.47,173.59,226.52,158.73,224.14,154.44Zm-2.38-28.24Z"/><path class="cls-12" d="M236.93,124.13a6.36,6.36,0,0,1,2.14,3.71,44.79,44.79,0,0,1,1,5.9s-1.86-7-3.41-8.7-1.25-1.59-1.25-1.59Z"/><path class="cls-12" d="M231.21,122.17a66,66,0,0,1,4.15,12.57,49.28,49.28,0,0,0-2.65-12Z"/><path class="cls-12" d="M224.14,116.64a81.16,81.16,0,0,1,4,9.53s0-2.7-3.27-10.39Z"/><path class="cls-12" d="M220.82,145.52a7.08,7.08,0,0,1,4.15,1.94,19.44,19.44,0,0,1,3.56,5.31s-4.34-5.82-7.83-6.39Z"/><path class="cls-12" d="M234.67,157.16a19.21,19.21,0,0,0-2.58-6.33c-1.79-2.48-5.57-1.55-5.57-1.55l.22,1s2.68-.47,4,.73S234.67,157.16,234.67,157.16Z"/><path class="cls-12" d="M218.29,127.06a49.59,49.59,0,0,1,2.61,5.2c1.27,3,1.64,3.86,1.64,3.86s-1.15-8.7-3.29-9A4.57,4.57,0,0,0,218.29,127.06Z"/><path class="cls-12" d="M222.54,126.07s1.23.37,3.05,3.34,3.73,10.73,3.73,10.73-3.34-8.84-5.18-11-2.21-2.26-2.21-2.26Z"/></g></svg>