<?xml version="1.0" encoding="utf-8"?>
<!-- Generator: Adobe Illustrator 23.0.0, SVG Export Plug-In . SVG Version: 6.00 Build 0)  -->
<svg version="1.0" id="Calque_1" xmlns="http://www.w3.org/2000/svg" xmlns:xlink="http://www.w3.org/1999/xlink" x="0px" y="0px"
	 viewBox="0 0 754.1 754.1" style="enable-background:new 0 0 754.1 754.1;" xml:space="preserve">
<style type="text/css">
	.st0{fill:none;stroke:#FFFFFF;stroke-width:6;stroke-miterlimit:10;}
</style>
<line class="st0" x1="11.3" y1="53.8" x2="742.6" y2="53.8"/>
<polyline class="st0" points="717.8,52.6 717.8,695 32.4,695 33.2,52.6 "/>
<path class="st0" d="M291.8,54.2c0,46,37.3,83.2,83.2,83.2s83.2-37.3,83.2-83.2"/>
<path class="st0" d="M86.7,694.3v-73.8c0-159.2,129-288.2,288.2-288.2s288.2,129,288.2,288.2V695"/>
<path class="st0" d="M291.1,428.8c0-46,37.3-83.2,83.2-83.2s83.2,37.3,83.2,83.2H291.1z"/>
<polygon class="st0" points="234.5,695 291.7,428.8 458.2,428.8 510.6,695.5 "/>
<circle class="st0" cx="372.6" cy="274.6" r="30.9"/>
<circle class="st0" cx="141.8" cy="373.8" r="30.9"/>
<ellipse transform="matrix(0.9951 -9.853765e-02 9.853765e-02 0.9951 -56.358 23.7155)" class="st0" cx="211.9" cy="582.4" rx="30.9" ry="30.9"/>
<circle class="st0" cx="527.9" cy="503.4" r="30.9"/>
<circle class="st0" cx="589.7" cy="606.9" r="30.9"/>
</svg>
