<?xml version="1.0" encoding="utf-8"?>
<!-- Generator: Adobe Illustrator 23.0.1, SVG Export Plug-In . SVG Version: 6.00 Build 0)  -->
<svg version="1.1" id="Calque_1" xmlns="http://www.w3.org/2000/svg" xmlns:xlink="http://www.w3.org/1999/xlink" x="0px" y="0px"
	 viewBox="0 0 66 82.5" style="enable-background:new 0 0 66 82.5;" xml:space="preserve">
<g>
	<path d="M44.3,8.4c-1.8-1-4.2-0.4-5.2,1.5l-33.4,60c-1,1.8-0.4,4.2,1.5,5.2c1.8,1,4.1,0.3,5.2-1.5l33.3-60.1
		C46.9,11.7,46.2,9.5,44.3,8.4z"/>
	<path d="M55.5,16c-3.4,1.5-7.4,2.4-10.5,3L35,37.1c1.1,2.6,2.2,6.2,2.8,9.7C48.3,41.5,54.9,30,55.5,16z"/>
	<path d="M60.4,14.6c-0.1-0.3-0.4-0.6-0.7-0.6c-0.3-0.1-0.6,0-0.9,0.1c-0.4,0.3-0.8,0.6-1.3,0.9C57.3,30.6,49.9,43.2,38,48.8
		c0.1,0.9,0.1,1.8,0,2.6c-0.1,0.3,0.1,0.6,0.4,0.9c0.2,0.3,0.6,0.2,0.9,0.2C57.4,47.5,65.7,32.4,60.4,14.6z"/>
	<path d="M27.6,26.5l4.5-8.2l-7.5-1.5c-0.4-0.1-0.9,0.1-1.1,0.5l-1.3,2.3c-0.3,0.4-0.1,0.8,0.1,1.2L27.6,26.5z"/>
</g>
</svg>
