<?xml version="1.0" encoding="utf-8"?>
<!-- Generator: Adobe Illustrator 23.0.1, SVG Export Plug-In . SVG Version: 6.00 Build 0)  -->
<svg version="1.1" id="Calque_1" xmlns="http://www.w3.org/2000/svg" xmlns:xlink="http://www.w3.org/1999/xlink" x="0px" y="0px"
	 viewBox="0 0 100 125" style="enable-background:new 0 0 100 125;" xml:space="preserve">
<g id="XMLID_1_">
	<g>
		<rect x="71.9" y="75" transform="matrix(0.7954 -0.606 0.606 0.7954 -39.6818 63.0856)" width="3.3" height="30.7"/>
		<path d="M28.2,20.2l29.4,44.8l-4.1,3.1L18.1,27.9c-2.4-2.8-2-7,0.9-9.3C22,16.3,26.2,17.2,28.2,20.2z"/>
		<path d="M84.2,101.5L65.6,77.1l-2.7,2l18.6,24.4L84.2,101.5z M85.1,108.8l3.3-2.6c0.7-0.6,0.9-1.6,0.3-2.3
			c-0.5-0.7-1.6-0.9-2.3-0.3l-3.3,2.6c-0.7,0.6-0.9,1.6-0.3,2.3C83.3,109.3,84.3,109.4,85.1,108.8z M53.4,68.1l4.1-3.1L28.2,20.2
			c-2-3-6.2-3.9-9.2-1.6c-2.9,2.2-3.4,6.5-0.9,9.3L53.4,68.1z M62.1,71.9l-3.2,2.4l2.2,2.5l2.8-2.1L62.1,71.9z M30.6,18.5l36.5,55.6
			l19.9,26.2c1.5-0.1,3,0.5,4,1.8c1.6,2,1.2,5-0.9,6.5l-3.4,2.6c-2,1.5-5,1.2-6.5-0.9c-1-1.3-1.2-2.9-0.7-4.4l-20-26.2L15.8,29.8
			c-3.6-4-3-10.3,1.4-13.6C21.5,13,27.7,14,30.6,18.5z M56.9,72l3.5-2.7l-1.3-1.9l-3.8,2.9L56.9,72z"/>
	</g>
	<g>
	</g>
</g>
</svg>
