<?xml version="1.0" encoding="utf-8"?>
<!-- Generator: Adobe Illustrator 23.0.1, SVG Export Plug-In . SVG Version: 6.00 Build 0)  -->
<svg version="1.1" id="Calque_1" xmlns="http://www.w3.org/2000/svg" xmlns:xlink="http://www.w3.org/1999/xlink" x="0px" y="0px"
	 viewBox="0 0 100 125" style="enable-background:new 0 0 100 125;" xml:space="preserve">
<path d="M3.4,3c0.7-0.8,2.8,0.4,6,1c1.5,0.3,3.3,0.3,7,0.3c2.4,0,4.9,0,8.2-0.4c2.2-0.3,2.1-0.4,4.3-0.7c1.2-0.2,5.3-0.8,10.6-0.6
	c4,0.1,7.1,0.6,8.1,0.7c4.5,0.7,5,1.4,7.9,1.5c3.2,0.1,3.7-0.6,8.1-1c1.5-0.2,4.7-0.1,11.1,0c7,0.1,8.4,0.2,10.5,0.9
	C87,5.2,91,4.7,93,6.4c1.5,1.4,3,5.4,2.2,9.4c-1.8,9.8-1.8,19.2-2.1,20.7c-1,4.8,0.9,3.8-0.3,10c-1,5.1-1.1,9-1.2,10.3
	c-0.2,4.2-0.3,8,0.7,12.6c1.1,5,2.3,4.9,3.9,11.4s1,8.8,0.6,9.9c-0.3,0.8-1.6,4.1-5.1,5.8c-2.6,1.3-7,2.1-9.7-0.3
	c-2.2-1.8-2.4-4.7-2.5-7c-0.2-3,0.4-4.6,1.6-9.7c1.5-6.3,2.3-9.4,2.4-12.4c0.2-4.6-0.8-4.7-0.6-9.9c0.1-1.8,0.2-1.8,1.3-9.9
	c0.6-4.2,1-7,0.9-10.8c0-1.5-0.2-4.2-1.8-6.7c-0.6-0.9-1.4-2.2-2.2-2.1c-1.9,0.3-2.4,8-2.4,8.5c-0.2,4.7,0.7,5.7,0,9.6
	c-0.5,2.5-0.9,4.7-2.8,5.8c-1.8,1-4.3,0.9-5.8-0.4c-1.7-1.5-1.6-4-1.5-7c0.2-3.8,1.1-4.4,1.2-8.5c0.1-3.4-0.6-4.8-0.9-5.4
	c-0.7-1.4-2.5-3.7-4.2-3.4c-1,0.2-1.2,1.1-4.2,5.2c-1.5,2.2-2,2.7-2.8,2.8c-1.3,0.2-2.8-0.8-3.6-2.1c-1.2-2,0.3-3.4-0.6-7.3
	c-0.2-0.9-0.5-1.8-1.2-2.7c-0.3-0.4-1.5-1.9-2.8-1.8c-1.2,0.1-1.2,1.3-2.5,1.8c-1.7,0.7-4-0.2-5.2-1.6c-1.1-1.3-0.6-2.1-1.8-3.6
	c-0.2-0.2-2.1-2.5-4-2.1c-1.5,0.3-1.4,1.9-3.4,2.8c-1.4,0.7-3.1,0.8-4.5,0.3c-1.2-0.4-1.6-1.1-4.2-3.9c-2.2-2.3-3.2-3.5-3.9-3.9
	c-1.4-0.8-1.9-0.5-6.7-1.2C8.9,9,7.8,8.5,6.8,8.1C4.1,6.7,3.5,5.2,3.4,4.6C3.2,4.1,3,3.4,3.4,3z"/>
</svg>
