<?xml version="1.0" encoding="utf-8"?>
<!-- Generator: Adobe Illustrator 23.0.1, SVG Export Plug-In . SVG Version: 6.00 Build 0)  -->
<svg version="1.1" id="Calque_1" xmlns="http://www.w3.org/2000/svg" xmlns:xlink="http://www.w3.org/1999/xlink" x="0px" y="0px"
	 viewBox="0 0 6.8 8.5" style="enable-background:new 0 0 6.8 8.5;" xml:space="preserve">
<style type="text/css">
	.st0{fill:none;}
</style>
<g>
	<g id="XMLID_1_">
		<g>
			<path d="M4.4,2.7v1.3c0,0,0,0.1-0.1,0.1c0,0,0,0,0,0H4.2H4.1c0,0,0-0.1,0-0.1l0-0.1h0.2V2.8L3.9,2.5L3.7,2.7L3.6,2.6c0,0,0,0,0,0
				v0l0.3-0.2h0l0,0c0,0,0,0,0,0s0,0,0,0c0,0,0,0,0,0L4.4,2.7C4.4,2.7,4.4,2.7,4.4,2.7C4.4,2.7,4.4,2.7,4.4,2.7L4.4,2.7z"/>
			<path d="M5.7,2.5c0,0-0.1,0.1-0.1,0.1s-0.1,0-0.1-0.1c0,0,0-0.1,0-0.2c0-0.1,0-0.1,0-0.2c0-0.1,0.1-0.1,0.1-0.1s0.1,0,0.1,0.1
				c0,0,0,0.1,0,0.2C5.7,2.4,5.7,2.4,5.7,2.5z"/>
			<path d="M5.4,1.7c0,0.1,0.1,0.1,0.1,0.2c0,0.1,0,0.2-0.1,0.2c0,0.1-0.1,0.1-0.2,0.1s-0.1,0-0.2-0.1C5,2.1,5,2,5,1.9
				c0-0.1,0-0.2,0-0.2c0-0.1,0.1-0.1,0.2-0.1S5.4,1.7,5.4,1.7z"/>
			<path d="M4,1.7c0-0.1-0.1-0.2-0.1-0.3s0-0.2,0.1-0.3C4,1,4.1,1,4.2,1C4.3,1,4.4,1,4.4,1.1c0,0.1,0.1,0.2,0.1,0.3s0,0.2-0.1,0.3
				C4.4,1.8,4.3,1.9,4.2,1.9C4.1,1.9,4,1.8,4,1.7z"/>
			<path d="M4.6,1.8c0-0.1-0.1-0.1-0.1-0.2s0-0.2,0.1-0.2c0-0.1,0.1-0.1,0.2-0.1c0.1,0,0.1,0.1,0.2,0.1c0,0.1,0.1,0.1,0.1,0.2
				S5,1.8,5,1.8c0,0.1-0.1,0.1-0.2,0.1C4.7,1.9,4.7,1.9,4.6,1.8z"/>
			<path d="M1.4,2.2c0,0,0.1,0.1,0.1,0.2c0,0.1,0,0.1-0.1,0.2c0,0-0.1,0.1-0.1,0.1c0,0-0.1,0-0.1-0.1c0,0,0-0.1,0-0.2
				c0-0.1,0-0.1,0-0.2c0-0.1,0.1-0.1,0.1-0.1C1.3,2.1,1.4,2.1,1.4,2.2z"/>
			<path d="M1.8,2.1c0,0.1-0.1,0.1-0.2,0.1c-0.1,0-0.1,0-0.2-0.1c0-0.1,0-0.1,0-0.2c0-0.1,0-0.2,0-0.2c0-0.1,0.1-0.1,0.2-0.1
				c0.1,0,0.1,0,0.2,0.1c0,0.1,0.1,0.1,0.1,0.2C1.8,2,1.8,2.1,1.8,2.1z"/>
			<path d="M2.3,1.4c0-0.1,0-0.2,0.1-0.3C2.5,1,2.5,1,2.6,1C2.7,1,2.8,1,2.9,1.1c0,0.1,0.1,0.2,0.1,0.3s0,0.2-0.1,0.3
				C2.8,1.8,2.7,1.9,2.6,1.9c-0.1,0-0.2-0.1-0.2-0.2C2.3,1.7,2.3,1.6,2.3,1.4z"/>
			<path d="M1.8,1.8c0-0.1-0.1-0.1-0.1-0.2s0-0.2,0.1-0.2c0-0.1,0.1-0.1,0.2-0.1s0.1,0.1,0.2,0.1c0,0.1,0.1,0.1,0.1,0.2
				s0,0.2-0.1,0.2c0,0.1-0.1,0.1-0.2,0.1S1.9,1.9,1.8,1.8z"/>
			<path d="M4.1,5.7C3.6,5.5,3.8,4.9,3.8,4.8C3.9,4.7,4,4.5,4.1,4.4c0.1-0.1,0.1-0.2,0.1-0.3h0.1c0,0,0,0,0,0h0.1V4.1V2.7v0v0h0
				c0,0,0,0,0,0L4,2.3c0,0,0,0,0,0l0,0l0,0l0,0h0C4,2.2,4.1,2.1,4.3,2.1c0.2,0,0.3,0,0.5,0.1C5,2.3,5.2,2.5,5.3,2.7
				c0.3,0.5,0.4,1.1,0,1.7l0,0C5.2,4.5,5.2,4.6,5.1,4.7C4.6,5.9,4.1,5.7,4.1,5.7z"/>
			<path d="M1.5,2.7C1.7,2.5,1.8,2.3,2,2.2c0.2-0.1,0.3-0.2,0.5-0.1c0.2,0,0.4,0.1,0.5,0.5C3.2,2.8,3,3,2.9,3.2C2.6,3.6,2.3,4,3,4.8
				c0,0.1,0.2,0.7-0.3,0.9c0,0-0.5,0.2-1-1C1.7,4.6,1.6,4.5,1.6,4.4l0,0C1.1,3.8,1.2,3.1,1.5,2.7z"/>
			<path d="M5.8,2.6c0.1,0,0.1,0.1,0.1,0.1c0,0.1,0,0.1-0.1,0.1c0,0-0.1-0.1-0.1-0.1C5.7,2.6,5.8,2.6,5.8,2.6z"/>
			<path d="M4.4,4.1L4.4,4.1L4.4,4.1C4.4,4.1,4.4,4.1,4.4,4.1z"/>
			<path d="M4.4,2.7C4.4,2.7,4.4,2.7,4.4,2.7L4.4,2.7L4.4,2.7z"/>
			<path d="M3.9,2.3L3.9,2.3L3.9,2.3C3.9,2.3,3.9,2.3,3.9,2.3C3.9,2.3,3.9,2.3,3.9,2.3z"/>
			<path d="M4.1,5.8C3.3,5.5,3.7,4.7,3.7,4.7l0,0C3.8,4.6,3.9,4.5,4,4.3C4,4.3,4,4.2,4.1,4.1h0.2c0,0.1-0.1,0.2-0.1,0.3
				C4,4.5,3.9,4.7,3.8,4.8c0,0.1-0.2,0.7,0.3,0.9c0,0,0.5,0.2,1-1c0-0.1,0.1-0.1,0.1-0.2l0,0c0.4-0.6,0.3-1.3,0-1.7
				C5.2,2.5,5,2.3,4.8,2.2C4.7,2.1,4.5,2.1,4.3,2.1C4.1,2.1,4,2.2,3.9,2.3L3.6,2.5v0c0,0,0,0,0,0C3.7,2.1,4,1.9,4.3,1.9
				c0.2,0,0.4,0,0.6,0.2c0.2,0.1,0.4,0.3,0.5,0.5c0.3,0.5,0.4,1.2,0,1.9c0,0,0,0,0,0C5.3,4.6,5.3,4.6,5.2,4.7
				C4.7,6.1,4.1,5.8,4.1,5.8z"/>
			<path d="M3.4,2.7l0.2-0.1c0,0,0,0,0,0l0.1,0.1L3.6,2.8V4h0.5l0,0.1c0,0,0,0.1,0,0.1H3.5c0,0-0.1,0-0.1-0.1L3.4,2.7
				C3.4,2.7,3.4,2.7,3.4,2.7z"/>
			<path d="M2,2.2C1.8,2.3,1.7,2.5,1.5,2.7c-0.3,0.5-0.4,1.1,0,1.7l0,0c0.1,0.1,0.1,0.1,0.1,0.2c0.5,1.2,1,1,1,1
				C3.2,5.5,3.1,4.9,3,4.8C2.3,4,2.6,3.6,2.9,3.2C3,3,3.2,2.8,3.1,2.5C3,2.2,2.8,2.1,2.5,2.1C2.4,2.1,2.2,2.1,2,2.2z M2.8,5.8
				c0,0-0.7,0.3-1.2-1.1c0-0.1-0.1-0.1-0.1-0.2c0,0,0,0,0,0C1,3.8,1.1,3.1,1.4,2.6c0.1-0.2,0.3-0.4,0.5-0.5C2.1,2,2.3,1.9,2.5,1.9
				c0.3,0,0.5,0.2,0.7,0.6c0,0.1,0,0.1,0,0.2c0,0.2-0.1,0.4-0.3,0.6C2.8,3.6,2.5,4,3.2,4.7l0,0C3.2,4.7,3.5,5.5,2.8,5.8z"/>
			<path d="M1,2.6c0,0,0.1,0.1,0.1,0.1c0,0.1,0,0.1-0.1,0.1c0,0-0.1-0.1-0.1-0.1C0.9,2.6,1,2.6,1,2.6z"/>
		</g>
		<g>
		</g>
	</g>
</g>
<rect y="0" class="st0" width="6.8" height="6.8"/>
<circle cx="3.9" cy="2.8" r="0.1"/>
</svg>
