<?xml version="1.0" encoding="utf-8"?>
<!-- Generator: Adobe Illustrator 23.0.1, SVG Export Plug-In . SVG Version: 6.00 Build 0)  -->
<svg version="1.1" id="Calque_1" xmlns="http://www.w3.org/2000/svg" xmlns:xlink="http://www.w3.org/1999/xlink" x="0px" y="0px"
	 viewBox="0 0 54 56.8" style="enable-background:new 0 0 54 56.8;" xml:space="preserve">
<g>
	<path d="M16,24.3c1.4-0.6,3-0.9,4.9-0.9c0.9,0,1.7,0.1,2.5,0.2l0.3-3L35.2,8.9l-6.6-2.7L16.7,17.5L16,24.3z"/>
	<path d="M43.1,13.8c-1.1,1.2-0.2,3,2.1,4l-5.6,6.4c-2.4-1.1-5.3-0.8-6.7,0.7l-8.1-3.8l-0.2,0.2l-0.2,1.9l11.3,5.5
		c1.5,0.7,3.4,0.5,4.1-0.4l9.8-11.7c0.6-0.8,0-1.8-1.4-2.4L36.3,9.3l-1.2,1.2L43.1,13.8z"/>
	<path d="M3.9,13.2l11.7,5.6l0.2-1.9l0.1-0.1l-7-3.3c1.4-1.2,1-2.8-0.8-3.6L14.4,5c1.8,0.7,4.3,0.5,5.5-0.5L26.1,7l1.2-1.2L18,2.1
		c-1-0.4-2.5-0.3-3.2,0.3L3.6,11C2.7,11.7,2.8,12.6,3.9,13.2z"/>
	<path d="M19.2,13.6L23,10c-1,0.3-2,0.7-2.7,1.3C19.6,11.9,19.2,12.8,19.2,13.6z"/>
	<path d="M32.4,13.3l-4.3,4.4c1.4-0.3,2.6-0.8,3.4-1.6C32.4,15.3,32.6,14.3,32.4,13.3z"/>
	<path d="M40.1,19.8c1-1.1,0.2-2.5-1.5-3.3c-1.8-0.7-4-0.5-5,0.5s-0.4,2.5,1.4,3.3C36.8,21.1,39.1,20.9,40.1,19.8z"/>
	<path d="M17.8,7.7c-1.5-0.6-3.5-0.4-4.5,0.4c-1.2,0.9-0.9,2.1,0.6,2.8s3.6,0.5,4.7-0.4C19.6,9.6,19.2,8.4,17.8,7.7z"/>
	<path d="M29.5,29.4l6.6,3.2c1.5,0.7,3.4,0.5,4.2-0.4L50,20.4c0.5-0.6,0.2-1.4-0.6-1.9l-8.6,10.4c-0.9,1.1-2.7,1.5-4.4,1
		c-0.3-0.1-7.8-3.7-7.8-3.7c0.6,0.7,1,1.6,1,2.5L29.5,29.4L29.5,29.4z"/>
	<path d="M15.4,19.9l-11-5.3L3.8,15c-0.9,0.7-0.8,1.6,0.3,2.2l11,5.3L15.4,19.9z"/>
	<path d="M14.9,24.9l0.1-1.3l-10.4-5L4,19c-0.9,0.7-0.8,1.7,0.3,2.2l9.4,4.5C14.1,25.4,14.5,25.1,14.9,24.9z"/>
	<path d="M49.7,22.5L41,32.9c-0.9,1.1-2.7,1.5-4.5,1c-0.3-0.1-7.1-3.3-7.1-3.3v2.8l6.8,3.3c1.5,0.7,3.4,0.5,4.1-0.4l9.8-11.7
		C50.8,23.9,50.5,23.1,49.7,22.5z"/>
	<path d="M49.9,26.5l-8.7,10.4c-0.9,1.1-2.7,1.5-4.5,1c-0.3-0.1-7.3-3.4-7.3-3.4v2.8l7.1,3.4c1.5,0.7,3.3,0.5,4.1-0.4l9.8-11.7
		C51,27.9,50.7,27.1,49.9,26.5z"/>
	<path d="M12.3,28.6c0-0.8,0.3-1.5,0.7-2.1l-8.1-3.9L4.3,23c-0.9,0.7-0.8,1.7,0.3,2.2l7.7,3.7V28.6z"/>
	<path d="M4.8,29.2l5.6,2.7c0.4,0,0.7-0.1,1.1-0.1c0.3,0,0.5,0,0.8,0V30l-7.2-3.5L4.5,27C3.7,27.8,3.8,28.7,4.8,29.2z"/>
	<path d="M50.2,30.6l-8.7,10.3c-0.9,1.1-2.7,1.5-4.5,1c-0.3-0.1-7.5-3.6-7.5-3.6v2.8l7.3,3.5c1.5,0.7,3.4,0.5,4.1-0.4l9.8-11.7
		C51.2,31.9,51,31.1,50.2,30.6z"/>
	<path d="M10.4,39.7c0,0.2,0.1,0.4,0.2,0.5c0.1,0.1,0.4,0.2,0.7,0.4V39c-0.3,0-0.5,0.1-0.7,0.2C10.5,39.3,10.4,39.5,10.4,39.7z"/>
	<path d="M11.9,41.9v1.7c0.3,0,0.5-0.1,0.7-0.3c0.2-0.1,0.3-0.3,0.3-0.5s-0.1-0.4-0.2-0.5C12.6,42.1,12.3,42,11.9,41.9z"/>
	<path d="M11.5,35.5c-3.2,0-5.9,2.6-5.9,5.9c0,3.2,2.6,5.9,5.9,5.9s5.9-2.6,5.9-5.9C17.4,38.1,14.8,35.5,11.5,35.5z M13.5,44
		c-0.4,0.3-0.9,0.5-1.5,0.6v0.7h-0.7v-0.7c-0.9-0.1-1.6-0.4-2.3-1l0.7-0.8c0.5,0.5,1.1,0.7,1.6,0.8v-1.8c-0.7-0.2-1.2-0.4-1.6-0.7
		c-0.3-0.3-0.5-0.7-0.5-1.2s0.2-1,0.6-1.3s0.9-0.5,1.5-0.6v-0.5h0.6V38c0.7,0.1,1.3,0.3,2,0.7l-0.6,0.9c-0.4-0.3-0.9-0.5-1.3-0.5
		v1.8l0,0c0.7,0.2,1.2,0.4,1.6,0.7c0.3,0.3,0.5,0.7,0.5,1.3C14,43.2,13.9,43.7,13.5,44z"/>
	<path d="M20.9,24.4c-4.2,0-7.6,1.9-7.6,4.2l0,0l0,0v3.3c0,0.4,0.1,0.8,0.3,1.1c-0.7-0.2-1.4-0.3-2.1-0.3c-4.7,0-8.5,3.8-8.5,8.5
		c0,4.9,3.8,8.7,8.5,8.7c1.5,0,3-0.4,4.2-1.1c1.3,0.7,3.1,1.1,5.1,1.1c4.2,0,7.6-1.9,7.6-4.2v-2.2c-1.2,1.8-4.1,3-7.6,3
		c-0.8,0-1.6-0.1-2.4-0.2c0.2-0.3,0.4-0.7,0.6-1c0.6,0.1,1.2,0.1,1.8,0.1c4.2,0,7.6-1.9,7.6-4.2v-2.3c-1.2,1.8-4.1,3-7.6,3
		c-0.3,0-0.6,0-0.9,0c0-0.2,0-0.3,0-0.5s0-0.4,0-0.6c0.3,0,0.6,0,0.9,0c4.2,0,7.6-1.9,7.6-4.2v-2.2c-1.2,1.8-4.1,3-7.6,3
		c-0.7,0-1.3-0.1-1.9-0.1c-0.3-0.5-0.5-0.9-0.9-1.3c0.9,0.2,1.8,0.3,2.8,0.3c4.2,0,7.6-1.9,7.6-4.2v-3.3
		C28.5,26.3,25.1,24.4,20.9,24.4z M18.5,41.4c0,3.8-3.1,6.9-6.9,6.9s-6.9-3.1-6.9-6.9c0-3.8,3.1-6.9,6.9-6.9S18.5,37.5,18.5,41.4z
		 M20.9,31.9c-3.4,0-6.2-1.4-6.2-3.2c0-1.8,2.8-3.2,6.2-3.2s6.2,1.4,6.2,3.2C27.1,30.4,24.3,31.9,20.9,31.9z"/>
	<path d="M20.9,26.1c-2.9,0-5.2,1.1-5.2,2.6c0,1.4,2.3,2.6,5.2,2.6s5.2-1.1,5.2-2.6C26.1,27.2,23.8,26.1,20.9,26.1z M22.6,30
		c-0.3,0.2-0.8,0.3-1.4,0.3v0.3h-0.5v-0.3c-0.8,0-1.4-0.2-2.1-0.5l0.6-0.4c0.5,0.2,0.9,0.4,1.4,0.4v-0.9c-0.6-0.1-1.1-0.2-1.4-0.3
		c-0.3-0.1-0.4-0.3-0.4-0.6c0-0.3,0.2-0.5,0.5-0.7s0.8-0.3,1.3-0.3v-0.2h0.5V27c0.6,0,1.2,0.1,1.7,0.3l-0.5,0.4
		c-0.4-0.1-0.8-0.2-1.2-0.3v0.9l0,0c0.6,0.1,1.1,0.2,1.4,0.3c0.3,0.1,0.5,0.3,0.5,0.6C23.1,29.6,23,29.8,22.6,30z"/>
	<path d="M19.9,27.8c0,0.1,0.1,0.2,0.2,0.2c0.1,0.1,0.3,0.1,0.6,0.2v-0.8c-0.3,0-0.4,0.1-0.6,0.1C20,27.6,19.9,27.7,19.9,27.8z"/>
	<path d="M21.9,29.1c-0.1-0.1-0.4-0.1-0.7-0.2v0.8c0.3,0,0.5-0.1,0.6-0.1c0.2-0.1,0.2-0.2,0.2-0.3C22.1,29.2,22.1,29.1,21.9,29.1z"
		/>
</g>
</svg>
