<?xml version="1.0" encoding="utf-8"?>
<!-- Generator: Adobe Illustrator 23.0.1, SVG Export Plug-In . SVG Version: 6.00 Build 0)  -->
<svg version="1.1" id="Calque_1" xmlns="http://www.w3.org/2000/svg" xmlns:xlink="http://www.w3.org/1999/xlink" x="0px" y="0px"
	 viewBox="0 0 60 75" style="enable-background:new 0 0 60 75;" xml:space="preserve">
<title>Stationary - Solid - 014 - Pad</title>
<g>
	<path d="M7.8,59C7.3,59,7,59.4,7,60s0.3,1,0.8,1h3.1v4c0,0.6,0.3,1,0.8,1h40.6c0.4,0,0.8-0.4,0.8-1V7c0-0.6-0.3-1-0.8-1H11.6
		c-0.4,0-0.8,0.4-0.8,1v4H7.8C7.3,11,7,11.4,7,12c0,0.6,0.3,1,0.8,1h3.1v2H7.8C7.3,15,7,15.4,7,16s0.3,1,0.8,1h3.1v2H7.8
		C7.3,19,7,19.4,7,20c0,0.6,0.3,1,0.8,1h3.1v2H7.8C7.3,23,7,23.4,7,24s0.3,1,0.8,1h3.1v2H7.8C7.3,27,7,27.4,7,28s0.3,1,0.8,1h3.1v2
		H7.8C7.3,31,7,31.4,7,32s0.3,1,0.8,1h3.1v2H7.8C7.3,35,7,35.4,7,36s0.3,1,0.8,1h3.1v2H7.8C7.3,39,7,39.4,7,40s0.3,1,0.8,1h3.1v2
		H7.8C7.3,43,7,43.4,7,44s0.3,1,0.8,1h3.1v2H7.8C7.3,47,7,47.4,7,48s0.3,1,0.8,1h3.1v2H7.8C7.3,51,7,51.4,7,52s0.3,1,0.8,1h3.1v2
		H7.8C7.3,55,7,55.4,7,56s0.3,1,0.8,1h3.1v2H7.8z M18.5,12c0-0.6,0.3-1,0.8-1h29.1c0.4,0,0.8,0.4,0.8,1v8c0,0.6-0.3,1-0.8,1H19.3
		c-0.4,0-0.8-0.4-0.8-1V12z M18.5,24c0-0.6,0.3-1,0.8-1h29.1c0.4,0,0.8,0.4,0.8,1v4c0,0.6-0.3,1-0.8,1H19.3c-0.4,0-0.8-0.4-0.8-1V24
		z M12.4,11h3.1c0.4,0,0.8,0.4,0.8,1c0,0.6-0.3,1-0.8,1h-3.1V11z M12.4,15h3.1c0.4,0,0.8,0.4,0.8,1s-0.3,1-0.8,1h-3.1V15z M12.4,19
		h3.1c0.4,0,0.8,0.4,0.8,1c0,0.6-0.3,1-0.8,1h-3.1V19z M12.4,23h3.1c0.4,0,0.8,0.4,0.8,1s-0.3,1-0.8,1h-3.1V23z M12.4,27h3.1
		c0.4,0,0.8,0.4,0.8,1s-0.3,1-0.8,1h-3.1V27z M12.4,31h3.1c0.4,0,0.8,0.4,0.8,1s-0.3,1-0.8,1h-3.1V31z M12.4,35h3.1
		c0.4,0,0.8,0.4,0.8,1s-0.3,1-0.8,1h-3.1V35z M12.4,39h3.1c0.4,0,0.8,0.4,0.8,1s-0.3,1-0.8,1h-3.1V39z M12.4,43h3.1
		c0.4,0,0.8,0.4,0.8,1s-0.3,1-0.8,1h-3.1V43z M12.4,47h3.1c0.4,0,0.8,0.4,0.8,1s-0.3,1-0.8,1h-3.1V47z M12.4,51h3.1
		c0.4,0,0.8,0.4,0.8,1s-0.3,1-0.8,1h-3.1V51z M12.4,55h3.1c0.4,0,0.8,0.4,0.8,1s-0.3,1-0.8,1h-3.1V55z M12.4,59h3.1
		c0.4,0,0.8,0.4,0.8,1s-0.3,1-0.8,1h-3.1V59z"/>
</g>
</svg>
