<?xml version="1.0" encoding="utf-8"?>
<!-- Generator: Adobe Illustrator 23.0.1, SVG Export Plug-In . SVG Version: 6.00 Build 0)  -->
<svg version="1.1" id="Calque_1" xmlns="http://www.w3.org/2000/svg" xmlns:xlink="http://www.w3.org/1999/xlink" x="0px" y="0px"
	 viewBox="0 0 98 122.5" style="enable-background:new 0 0 98 122.5;" xml:space="preserve">
<g>
	<path d="M53.8,99.6v-8.1h-49v8.1c0,7.3,4.6,13.3,10.3,13.3h44.3C56,110.1,53.8,105.2,53.8,99.6z"/>
	<path d="M85.8,8.5c-4.1,0-7.4,4.3-7.4,9.5v16h14.8V18C93.2,12.8,89.9,8.5,85.8,8.5z"/>
	<path d="M80,8.5H25.5c-3.9,0-7,4-7,8.9l-0.4,71.5h36.7c0.6,0,1,0.5,1,1.3v9.4c0,7.3,4.6,13.3,10.3,13.3s10.3-5.9,10.3-13.3V18
		C76.4,14.2,77.8,10.7,80,8.5z M29.9,27.4h15.5c0.6,0,1,0.5,1,1.3c0,0.8-0.4,1.3-1,1.3H29.9c-0.6,0-1-0.5-1-1.3
		C28.9,28,29.3,27.4,29.9,27.4z M63.4,76.4H29.9c-0.6,0-1-0.5-1-1.3s0.4-1.3,1-1.3h33.5c0.6,0,1,0.5,1,1.3S64,76.4,63.4,76.4z
		 M63.4,61H29.9c-0.6,0-1-0.5-1-1.3s0.4-1.3,1-1.3h33.5c0.6,0,1,0.5,1,1.3S64,61,63.4,61z M63.4,45.5H29.9c-0.6,0-1-0.5-1-1.3
		s0.4-1.3,1-1.3h33.5c0.6,0,1,0.5,1,1.3S64,45.5,63.4,45.5z"/>
</g>
</svg>
