<?xml version="1.0" encoding="utf-8"?>
<!-- Generator: Adobe Illustrator 23.0.1, SVG Export Plug-In . SVG Version: 6.00 Build 0)  -->
<svg version="1.1" id="Calque_1" xmlns="http://www.w3.org/2000/svg" xmlns:xlink="http://www.w3.org/1999/xlink" x="0px" y="0px"
	 viewBox="0 0 283.5 286.6" style="enable-background:new 0 0 283.5 286.6;" xml:space="preserve">
<path d="M144.6,141l-0.3,0l-0.2-0.3l0.3-0.3l0.2,0.1C144.7,140.7,144.7,140.7,144.6,141z M156.4,141c-0.1,0.1-0.1,0.1-0.1,0.1l0.1,0
	C156.4,141.1,156.5,141.1,156.4,141z M145.3,147.7l-0.3,0c0,0.1,0,0.1,0,0.2c0.2,0.1,0.2,0.1,0.3,0.1c0.1-0.1,0.2-0.1,0.2-0.1l0.1,0
	l-0.1-0.1L145.3,147.7z M156.8,143.4c0-0.1,0-0.1,0-0.1C156.7,143.4,156.7,143.4,156.8,143.4L156.8,143.4z M157.9,146.3
	c0.2-0.1,0.2-0.1,0.2-0.1l0.1-0.3c-0.1,0-0.1,0-0.1-0.1c-0.1,0-0.1,0-0.2,0.1l-0.2,0.2l-0.1,0.4
	C157.8,146.4,157.8,146.3,157.9,146.3z M155.6,143.2c0.2,0,0.2,0,0.2-0.1l0-0.1l-0.2-0.2c-0.2,0-0.2,0-0.2,0.1l0,0.2L155.6,143.2z
	 M158.4,141.8c-0.1,0.1-0.2,0.1-0.1,0.2C158.5,141.9,158.5,141.8,158.4,141.8z M142.1,146.1c0,0.1,0,0.1,0,0.1
	C142.2,146.1,142.2,146.1,142.1,146.1L142.1,146.1z M131,144.1l0.2-0.2c0,0,0,0,0-0.1c-0.1,0-0.1,0-0.1,0l-0.2,0l-0.3,0.2
	c0.1,0,0.2,0,0.2,0C130.9,144.1,131,144.1,131,144.1z M142.6,144.7l-0.2,0.1c0,0.1,0,0.1,0.1,0.1c0.1,0,0.1,0,0.2,0
	c0-0.1,0.1-0.1,0.1-0.1l0.1-0.1l-0.1,0L142.6,144.7z M143.7,146.2l-0.3,0.3c0,0.1,0.1,0.2,0.1,0.2c0.2,0,0.2,0,0.4-0.1
	c0-0.2,0.1-0.3,0.2-0.3l0.1-0.2l-0.2,0L143.7,146.2z M143.5,141.4L143.5,141.4l0-0.4c-0.2-0.1-0.2-0.1-0.3-0.1l-0.1,0.2l0.1,0.2
	C143.4,141.4,143.5,141.4,143.5,141.4z M150.4,139.5c0-0.1,0-0.1,0-0.2l-0.1,0C150.3,139.5,150.4,139.5,150.4,139.5z M146.7,141
	c0-0.2-0.1-0.2-0.1-0.2C146.6,141,146.6,141,146.7,141z M145.7,141c0.1,0.2,0.1,0.1,0.1,0.1l0.1-0.2c0.1,0,0.1,0,0.2,0l-0.3,0
	L145.7,141z M147,142.2c-0.2-0.1-0.2,0-0.2,0.1C146.9,142.3,147,142.3,147,142.2z M153.6,144.8l0.1-0.2l-0.3-0.2l-0.2,0.2l0.1,0.2
	C153.5,144.9,153.6,144.8,153.6,144.8z M132.8,143.6l-0.2,0c0-0.1,0-0.1-0.1-0.1l0,0.3l0.1,0C132.8,143.6,132.8,143.6,132.8,143.6z
	 M132.9,149.2c-0.2,0.1-0.2,0.1-0.1,0.2C132.9,149.3,132.9,149.2,132.9,149.2z M132.9,149.5c-0.1,0.1-0.1,0.2-0.1,0.2l0.2,0.4
	c0.1,0,0.1,0,0.2,0.1c0.1,0,0.1-0.1,0.1-0.1l0-0.2l-0.3-0.5C133,149.4,133,149.5,132.9,149.5z M133.3,147.8l-0.1-0.2l-0.2,0
	c-0.1,0.1-0.1,0.2,0,0.2l0.1,0.1L133.3,147.8z M158.8,142.7c0.1-0.1,0.1-0.1,0.1-0.1l-0.2,0c0-0.1-0.1-0.1-0.1-0.2l0.1,0.3
	L158.8,142.7z M132.2,143.2l-0.1,0.1l-0.2,0.2l-0.1,0.4c0.1,0.1,0.1,0.1,0.2,0.1c0.2-0.1,0.2-0.1,0.2-0.2c-0.1-0.2-0.1-0.3,0-0.3
	L132.2,143.2z M131.9,145.2l-0.2-0.2l-0.3,0.3l0.3,0.3l0.3,0C132,145.4,132,145.3,131.9,145.2z M130.7,146.5
	c-0.1,0.1-0.1,0.4,0.3,0.8l0.6-0.1l0.3-0.7l-0.8-0.3L130.7,146.5z M132.4,142.9c-0.1,0-0.2,0.1-0.1,0.2
	C132.4,143,132.4,142.9,132.4,142.9z M133.6,147l-0.4,0c-0.1,0.1-0.1,0.1-0.1,0.1c0,0.1,0,0.1,0,0.1l0.2,0.1l0.6,0
	c0-0.1-0.1-0.2-0.1-0.2C133.6,147,133.6,147,133.6,147z M132,139.8l-0.6,0.5l0.2,0.4c0.1,0.2,0.2,0.2,0.7,0.1l0.2-0.5L132,139.8z
	 M132.4,148.4c-0.1,0.1-0.1,0.1-0.1,0.1l0.2,0c0,0.1,0.1,0.1,0.1,0.2l-0.1-0.3L132.4,148.4z M137.2,145.9l-0.2,0l-0.1,0.2
	c0,0.2,0,0.2,0.1,0.2l0.1,0l0.3-0.2C137.3,145.9,137.3,145.9,137.2,145.9z M135.8,148.4l-0.1-0.1l0,0.1l0,0.2l0.1,0.2
	c0.1,0,0.1,0,0.1-0.1c0-0.2,0-0.2,0-0.2C135.9,148.5,135.8,148.5,135.8,148.4z M138.1,145.9c0,0.1,0,0.1,0,0.1
	C138.2,145.9,138.2,145.9,138.1,145.9L138.1,145.9z M137.7,146.8l0.2,0.2c0.2,0,0.3-0.1,0.3-0.2l0-0.2l-0.4-0.1L137.7,146.8z
	 M135.7,151.9L135.7,151.9c0.1,0,0.1,0,0.1,0C135.7,151.9,135.7,151.9,135.7,151.9z M135.3,140l-0.5,0c0,0.1,0.1,0.2,0.1,0.2
	c0.1,0.1,0.1,0.1,0.1,0.1l0.4,0c0.1-0.1,0.1-0.1,0.1-0.1c0-0.1,0-0.1,0-0.1L135.3,140z M134.7,140.3c0-0.2,0-0.2-0.1-0.2
	C134.6,140.3,134.6,140.3,134.7,140.3z M133.8,140.2c0.1,0.1,0.1,0.1,0.1,0.1l0.1-0.2c0.1,0,0.1,0,0.2,0l-0.3-0.1L133.8,140.2z
	 M135.3,152.4l-0.1,0l-0.1,0.2l0.2,0.1l0.2-0.1C135.4,152.5,135.4,152.5,135.3,152.4z M134.8,147.1l-0.1,0.2c-0.1,0-0.1,0-0.2,0
	l0.3,0.1l0.1-0.1C134.9,147,134.9,147,134.8,147.1z M133.9,147.1c0,0.2,0,0.2,0.1,0.2C134.1,147.1,134,147.1,133.9,147.1z
	 M154.2,138.6l-0.1-0.2c-0.2,0-0.3,0-0.3,0.1l-0.1,0.2l0.2,0.2L154.2,138.6z M157.6,141.5c-0.4-0.3-0.2-0.4-0.4-0.3l-0.4,0.2
	l0.2,0.6l0.7-0.2L157.6,141.5z M157.8,145.8c0-0.1,0-0.1-0.1-0.1l-0.1-0.1l-0.4-0.1c0.1,0.1,0.1,0.2,0.1,0.2
	c0.1,0.1,0.1,0.1,0.1,0.1L157.8,145.8C157.7,145.8,157.7,145.8,157.8,145.8z M156.6,146.9l-0.1,0.4l0.2,0.2c0.3-0.1,0.3-0.2,0.3-0.3
	l0-0.3L156.6,146.9z M157.6,149.8L157.6,149.8c0.2,0.1,0.2,0,0.2,0C157.6,149.8,157.6,149.8,157.6,149.8z M155.6,149.7l0,0.1
	l0.2,0.1l0.1-0.2l-0.1-0.1C155.7,149.6,155.6,149.6,155.6,149.7z M158.5,150.3l-0.5,0l-0.1,0.8l0.9,0.2l0-0.4
	C158.5,150.4,158.7,150.3,158.5,150.3z M156.9,150.6l-0.2-0.1l-0.2,0.3l0.3,0.2l0.2-0.1C157,150.7,157,150.6,156.9,150.6z
	 M155.6,151.1l-0.1,0.2l0.1,0.2c0.2,0.1,0.2,0.1,0.3,0l0-0.1l-0.1-0.3C155.7,151,155.6,151,155.6,151.1z M156.1,142l-0.2,0l-0.1,0.3
	l0.3,0.1l0.2-0.2C156.2,142,156.2,142,156.1,142z M160.1,147c-0.1-0.3-0.3-0.4-0.4-0.4l-0.3,0l-0.1,0.5l0.5,0.1L160.1,147z
	 M166.8,143.2L166.8,143.2c0,0.1,0,0.1,0,0.1C166.9,143.2,166.9,143.2,166.8,143.2z M196.6,164.2c0.9-0.7,1.8-1.4,2.7-2.1
	c-5.1-6.5-12.1-11.6-20.1-14.8l-0.5,2.9c6.8,3.2,12.8,7.9,17.2,13.6c-0.9,0.7-1.8,1.4-2.7,2.1c8.4,4.4,15.4,11.1,19.8,19
	c-1.1,0.7-2.3,1.3-3.6,1.9c3.9,6.4,7.1,13,9.6,19.9c-15.7,4.6-33.6,7.2-52.7,7.4c-3.4,5.7-7,9.7-9.7,12.7c-0.9,1-2.1,2.3-2.8,3.2
	c0.1,0.2,0.3,0.5,0.4,0.8c0.6,1.1,0.7,2.3,0.3,3.5c-0.3,1-0.9,1.8-1.7,2.3c0.3,0.2,0.6,0.5,0.8,0.7c0.9,0.8,1.4,1.9,1.5,3.1
	c0.1,1.2-0.3,2.3-1.1,3.2c0,0-0.1,0.1-0.1,0.1c0.1,1-0.2,1.9-0.8,2.8c-0.7,1-1.7,1.6-2.8,1.9c-0.1,0-0.2,0-0.2,0c-0.1,0-0.1,0-0.2,0
	c-0.5,0.1-1.1,0-1.6-0.1c0.7,5.4,1.1,15.2-1.8,27.6c-0.5,2-2.3,3.5-4.3,3.5c-0.3,0-0.7,0-1-0.1c-1.2-0.3-2.1-1-2.8-2
	c-0.6-1-0.8-2.2-0.6-3.4c0.3-1.5,0.6-3,0.9-4.4c-0.6,0.4-1.3,0.6-2.1,0.6c0,0-0.1,0-0.1,0c-2.4,0-4.4-1.9-4.5-4.3
	c-0.2-6.7,0.1-12.4,0.9-16.9c0,0,0,0,0,0c0,0-0.1,0-0.1,0c-1.5,0-2.9-0.7-3.7-2c-0.9-1.4-0.9-3.2-0.2-4.6c-0.5-0.2-1-0.6-1.4-1
	c-1.7-1.8-1.6-4.6,0.2-6.3c0.2-0.2,0.4-0.4,0.6-0.6c-1.2-0.4-2.2-1.3-2.7-2.6c-0.5-1.1-0.4-2.4,0.1-3.4c-0.4-0.5-0.9-1.1-1.4-1.6
	c-2.7-3-6.3-7.1-9.7-12.7c-19-0.2-36.8-2.8-52.5-7.4c2.5-6.9,5.7-13.6,9.6-19.9c-1.2-0.6-2.4-1.2-3.6-1.9c4.4-7.9,11.4-14.6,19.8-19
	c-0.9-0.7-1.8-1.4-2.7-2.1c4.5-5.7,10.4-10.4,17.2-13.6l-0.5-3c-8,3.2-15,8.3-20.1,14.8c0.9,0.7,1.8,1.4,2.7,2.1
	c-8.4,4.4-15.4,11.1-19.8,19c1.2,0.7,2.3,1.3,3.6,1.9c-4,6.5-7.3,13.4-9.8,20.5c-1.7-0.5-3.3-1.1-4.9-1.7c2.5-7.3,5.9-14.4,10-21.1
	c-1.2-0.6-2.4-1.2-3.6-1.9c4.4-7.9,11.4-14.6,19.8-19c-0.9-0.7-1.8-1.4-2.7-2.1c5-6.4,12-11.6,19.9-14.7l0.1,0l0,0c0,0,0,0,0-0.1
	c1-0.4,1.9-0.7,2.9-1.1c-5.1-1.6-9.8-3.6-14.3-5.9l0,0l0.4-0.3c0-0.4-0.2-0.6-0.3-0.6l-0.4,0l-0.2,0.6c-0.2-0.1-0.4-0.2-0.5-0.3
	l0.1-0.2l0-0.3l-0.3,0l0,0.2c0,0.1,0,0.1,0.1,0.2c-6.1-3.3-11.6-7.1-16.2-11.2l15.7-15.7l0.1,0c0.1,0,0.2-0.1,0.3-0.3l-0.1-0.1
	l0.1-0.1c4.3,6.4,9.8,12.7,16.5,18.6c0.3-2,0.7-4.1,1.1-6.3c0.2-1.3,0.5-2.5,0.8-3.8c-26.3-16.2-25.3-48.4-25.3-48.8
	c0-3.8-2.8-5.2-4.4-5.6c-0.2-0.1-0.4-0.3-0.5-0.5c0-0.2,0-0.5,0.2-0.6c2.4-2,25.8-42.8-8.2-57c-0.3-0.1-0.5-0.4-0.4-0.8
	s0.4-0.5,0.7-0.5c0.6,0.1,1.1,0.1,1.6,0.2c27.8,4.3,35.9,20,36.2,20.7c0.1,0.2,0.1,0.5-0.1,0.7c-14.1,14.3-4.5,27.8-4.4,28
	c0.2,0.2,0.2,0.6,0,0.8c-4.3,5.1-6.5,11-6.5,17.1c0,8.8,5.4,17.9,15.2,24.4c0.1,0,0.2-0.1,0.2-0.1c0.2,0.3,0.5,0.5,0.8,0.7
	c1.8,1.2,3.8,2.2,5.9,3.2h0.1v-1.9c2.6-2.4,5.7-4.3,9.1-5.7c1.1-5.9,8.4-10.5,17.3-10.5c9,0,16.4,4.7,17.3,10.8
	c3.2,1.4,6,3.2,8.5,5.5v1.8h0.3c14.2-6.4,22.1-17.5,22.1-28.2c0-6.1-2.3-12-6.5-17.1c-0.2-0.2-0.2-0.6,0-0.8
	c0.1-0.1,9.7-13.6-4.4-28c-0.2-0.2-0.2-0.5-0.1-0.7C178,25,186.1,9.3,213.9,5c0.4-0.1,1-0.1,1.6-0.2c0.3,0,0.6,0.2,0.7,0.5
	s-0.1,0.6-0.4,0.8c-34.1,14.2-10.6,55.1-8.3,57c0.2,0.2,0.3,0.4,0.2,0.6c0,0.2-0.2,0.4-0.5,0.5c-1.6,0.5-4.4,1.8-4.4,5.6
	c0,0.5,1.1,32.8-25.5,49c0.3,1.2,0.6,2.4,0.8,3.6c0.4,2.2,0.8,4.3,1.1,6.3c6.7-5.9,12.2-12.2,16.5-18.6l4.2,4.2c0,0,0,0.1,0.1,0.2
	l0.1,0l0.5,0.5l-0.2,0.1l-0.1,0.1c0,0,0,0,0,0.1c0,0,0,0,0.1,0l0.2-0.1c0,0,0,0,0.1-0.1c0,0,0-0.1,0-0.1l1.3,1.3l0,0.4l0.5,0.1
	l9.5,9.5c-5.3,4.8-11.8,9.1-19.1,12.7c0,0,0,0,0,0l-0.1,0.1l0,0c-3.8,1.8-7.8,3.5-12.1,4.9c9.4,3,17.6,8.6,23.4,16
	c-0.9,0.7-1.8,1.4-2.7,2.1c8.4,4.4,15.4,11.1,19.8,19c-1.1,0.7-2.3,1.3-3.6,1.9c4.1,6.7,7.5,13.8,10,21.1c-1.6,0.6-3.2,1.1-4.9,1.7
	c-2.5-7.1-5.8-14-9.8-20.5c1.2-0.6,2.4-1.2,3.6-1.9C211.9,175.3,205,168.6,196.6,164.2z M203.7,130.2L203.7,130.2
	c-0.1-0.1-0.1-0.1-0.2-0.2c-0.1,0-0.1,0-0.2,0c0,0-0.1,0-0.1,0.1l0.2,0.1L203.7,130.2L203.7,130.2z M205.3,121l0.1,0.1l0,0
	c0,0,0.1,0,0.1-0.1l0-0.1l-0.1,0C205.3,120.9,205.3,120.9,205.3,121z M204.9,121.4l0.1-0.1l0-0.2l-0.2,0l0,0.1
	C204.7,121.3,204.8,121.4,204.9,121.4z M204.2,121.4C204.2,121.4,204.2,121.4,204.2,121.4L204.2,121.4
	C204.2,121.3,204.2,121.3,204.2,121.4z M203.6,118.6c0,0-0.1,0-0.2,0l0.2,0.4l0.2,0.1c0,0,0.1,0,0.1-0.1c0-0.1,0-0.1,0-0.1l-0.2-0.3
	C203.7,118.6,203.7,118.6,203.6,118.6z M203.4,118.4c0,0,0.1,0.1,0.2,0C203.5,118.4,203.5,118.3,203.4,118.4z M203,117.9l0.2,0.2
	C203.1,118,203.1,118,203,117.9l0.2-0.1c0,0,0,0-0.1,0L203,117.9z M183.8,135.8c0,0,0,0-0.1,0C183.7,135.8,183.7,135.8,183.8,135.8
	L183.8,135.8z M184.6,136.7l0-0.1c0,0,0,0-0.1,0l-0.1,0.2v0C184.4,136.8,184.5,136.8,184.6,136.7L184.6,136.7z M184.8,132.2
	c0,0-0.1,0-0.1,0l-0.1-0.1c0,0,0,0-0.1,0.1l0.1,0.1L184.8,132.2z M186,141.4l-0.2,0.1l-0.1,0.1l0,0.1l0.1,0c0,0,0,0,0.1,0
	C186,141.6,186,141.6,186,141.4C186,141.5,186,141.5,186,141.4z M186.1,134.2c0,0,0,0-0.1-0.1c0,0,0-0.1-0.1-0.1l-0.2,0.3l0,0.2
	c0,0,0,0.1,0.1,0.1c0.1,0,0.1,0,0.1-0.1L186.1,134.2z M186,132.8L186,132.8c0.1-0.1,0.1-0.2,0.1-0.3l-0.1,0l-0.1,0.1L186,132.8z
	 M186.8,138.8l0.1-0.1l0,0c0,0,0-0.1-0.1-0.1l-0.1,0L186.8,138.8C186.7,138.8,186.7,138.8,186.8,138.8z M186.8,129.5
	c0,0.1,0,0.1,0.2,0.2c0,0,0.1,0,0.2,0l-0.1-0.3l-0.1-0.2l-0.1-0.1l0,0.1C186.9,129.3,186.9,129.3,186.8,129.5z M187.2,130.7
	l-0.2,0.1c-0.1,0-0.1,0.1-0.1,0.3l0.2,0l0.2-0.3L187.2,130.7z M187.7,129l0.2-0.4l-0.3-0.2c-0.1-0.1,0,0-0.3,0.2l-0.1,0.2L187.7,129
	z M187,139.7L187,139.7C186.9,139.8,186.9,139.8,187,139.7C187,139.8,187,139.8,187,139.7z M187.1,139.2L187.1,139.2l-0.2-0.1l0,0.2
	l0.1,0C187,139.3,187,139.3,187.1,139.2z M187.9,131.8l-0.2-0.3l-0.7,0.2l0.2,0.5l0.4,0.1C188,132.1,188,131.9,187.9,131.8z
	 M188.1,129.9l-0.2-0.2l-0.2,0c0,0,0,0-0.1,0c0,0,0,0,0,0.1l0.2,0.1c0,0,0,0,0.1,0C188,129.9,188,129.9,188.1,129.9z M188.2,128.5
	l-0.2-0.1l-0.1,0.2l0.1,0.1c0.1,0,0.2,0,0.2-0.1L188.2,128.5z M189.2,133.4c0,0-0.1-0.1-0.2,0C189.1,133.5,189.1,133.5,189.2,133.4z
	 M189.6,133.9l-0.2-0.1C189.4,133.8,189.5,133.8,189.6,133.9l-0.2,0.1c0,0,0,0,0.1,0L189.6,133.9z M192.4,136l-0.4-0.1l-0.1,0.2
	c-0.1,0.1-0.1,0.2,0.1,0.4l0.2-0.1L192.4,136z M192.2,134.5l-0.2,0.1c0,0-0.1,0-0.1,0.1c0,0,0,0,0,0.1l0.3,0.1c0,0,0,0,0.1-0.1
	c0,0,0.1-0.1,0.2-0.1L192.2,134.5z M192.4,130.5l0.1-0.2l0,0c0,0,0-0.1-0.2-0.1l-0.1,0.1l0,0.1C192.2,130.5,192.3,130.5,192.4,130.5
	z M192.2,134.8L192,135l-0.1,0.2l0,0.1l0.1-0.1c0-0.1,0-0.1,0.2-0.1c0.1-0.1,0.1-0.1,0.1-0.2C192.4,134.9,192.3,134.9,192.2,134.8z
	 M193.4,136.7l-0.4-0.2l-0.5,0.6l0.5,0.5l0.5-0.1C193.6,136.9,193.6,136.8,193.4,136.7z M193.4,128.3c0,0,0-0.1,0-0.2l-0.5,0.2
	l-0.1,0.2c0,0,0,0.1,0.1,0.1c0.1,0,0.1,0,0.2,0l0.3-0.2C193.4,128.4,193.4,128.4,193.4,128.3z M193.4,131.7l0.3,0.2
	c0.1,0.1,0,0,0.3-0.3l0.1-0.3l-0.6-0.2L193.4,131.7z M193.1,131.8L193.1,131.8c-0.1,0.1,0,0.1,0.1,0.1
	C193.1,131.9,193.1,131.9,193.1,131.8z M192.6,130.9l0,0.3l0.1,0c0.1,0,0.1,0,0.2-0.2l-0.1-0.1L192.6,130.9z M193.6,134.3l-0.1-0.2
	l-0.3-0.1l-0.1,0.3l0.2,0.1C193.4,134.4,193.5,134.4,193.6,134.3z M194.6,133.5l-0.1-0.4c-0.4-0.1-0.6-0.1-0.6,0.1l-0.2,0.3l0.5,0.5
	L194.6,133.5z M194.6,131.2c0,0,0,0.1,0.1,0.1C194.7,131.3,194.7,131.2,194.6,131.2z M194.8,131.7L194.8,131.7
	C194.8,131.6,194.8,131.6,194.8,131.7C194.8,131.7,194.8,131.7,194.8,131.7z M194.9,130.7l0.1,0c0,0,0,0-0.1-0.1l-0.1,0l0,0.2
	C194.8,130.8,194.9,130.7,194.9,130.7z M194.9,135.8L194.9,135.8c-0.1-0.1-0.1-0.1-0.1,0.1C194.8,135.9,194.9,135.9,194.9,135.8z
	 M195.7,136.4l-0.6-0.2l-0.2,0.4c-0.1,0.1,0,0,0.3,0.4l0.3,0.1L195.7,136.4z M195.4,134.6l0.2,0l0-0.2l-0.1,0c0,0-0.1,0-0.2,0.1
	L195.4,134.6z M196,135.6l-0.1-0.3l-0.3,0.1l0,0.2c0,0.1,0,0.1,0.2,0.2L196,135.6z M195.8,133.8l0.2,0
	C196,133.7,195.9,133.7,195.8,133.8l0-0.2C195.8,133.5,195.8,133.5,195.8,133.8L195.8,133.8z M196.7,135l-0.1-0.2l-0.2,0
	c0,0-0.1,0-0.1,0.2l0.2,0.2l0,0C196.7,135.2,196.7,135.2,196.7,135z M196.6,133.6c0,0-0.1,0-0.1,0.1
	C196.5,133.8,196.6,133.7,196.6,133.6z M197.2,133.7c-0.1,0-0.1,0-0.1-0.1l-0.3,0c0,0,0,0-0.1,0.1c0,0,0,0.1-0.1,0.2l0.4,0.1
	l0.1-0.1C197.2,133.8,197.3,133.8,197.2,133.7z M200.5,132.6L200.5,132.6C200.5,132.5,200.5,132.5,200.5,132.6
	C200.5,132.7,200.5,132.6,200.5,132.6z M200.6,130.6l-0.1-0.1l0,0c0,0,0,0,0,0.1l0.1,0.1h0.1C200.6,130.7,200.6,130.7,200.6,130.6z
	 M201,130.4L201,130.4c0-0.1-0.1-0.2-0.2-0.2l-0.1,0.1l0.1,0.1L201,130.4z M201.4,130C201.4,130,201.4,130,201.4,130L201.4,130
	C201.4,130.1,201.4,130.1,201.4,130z M202.1,118.1l0.1,0.2l0.2-0.1l0-0.1c0,0-0.1-0.1-0.2-0.1L202.1,118.1z M202.1,120.4l-0.1-0.2
	l-0.1-0.1l-0.1,0l0,0.1c0,0,0.1,0,0,0.2C201.9,120.4,201.9,120.4,202.1,120.4C202,120.5,202.1,120.5,202.1,120.4z M201.6,118.1
	c0,0,0,0,0.1,0.1c0,0,0,0.1,0.1,0.1l0.2-0.4l0-0.2c0,0,0,0-0.1-0.1c-0.1,0.1-0.1,0.1-0.1,0.1L201.6,118.1z M201.6,118.5
	c0,0,0-0.1-0.1-0.1C201.5,118.4,201.5,118.5,201.6,118.5z M201.4,118.9c0,0-0.1,0.1-0.1,0.1l-0.1,0c0,0,0,0,0.1,0.1l0.1,0
	L201.4,118.9z M201,116.1l0,0.2c0,0.1,0.1,0.2,0.3,0.2l0.1-0.2l-0.1-0.3L201,116.1z M199.6,116.2l-0.1,0.1c0,0,0,0,0.1,0
	L199.6,116.2l-0.1-0.1C199.6,116.1,199.6,116.2,199.6,116.2z M199.5,120.2c0,0,0,0.1,0.1,0.1l0.2-0.1l0,0c0,0,0-0.1-0.1-0.1l-0.2,0
	L199.5,120.2z M199.7,121.1l0.1,0.1c0.1,0,0.1,0,0.2-0.1l-0.1-0.2l-0.3,0L199.7,121.1z M199.8,115.7l-0.2,0l-0.1,0.1l0.1,0.1
	c0,0,0.1,0,0.2,0.1c0.1,0,0.1,0,0.2-0.1c0.1,0,0.1-0.1,0-0.1L199.8,115.7z M199.4,114.3l-0.2,0.1l0.1,0.1l0.1,0
	C199.6,114.4,199.6,114.4,199.4,114.3L199.4,114.3z M199.3,114.3c0,0,0,0,0.1,0l0-0.1C199.4,114.2,199.3,114.2,199.3,114.3z
	 M199.2,115.2l0.2,0.2l0.3-0.4l-0.3-0.3l-0.3,0.2C199,114.9,199.1,114.8,199.2,115.2z M199.3,115.8c0,0-0.1-0.1-0.1,0
	C199.2,115.8,199.3,115.9,199.3,115.8z M199.2,120.9L199.2,120.9C199.2,120.9,199.2,120.9,199.2,120.9
	C199.3,120.9,199.3,120.9,199.2,120.9z M197.6,112.5C197.6,112.5,197.6,112.5,197.6,112.5l0.2,0.2c0,0,0,0,0.1,0c0,0,0.1,0,0.2,0
	l-0.2-0.2L197.6,112.5C197.7,112.4,197.7,112.4,197.6,112.5z M198,114.4l-0.2-0.3l-0.6,0.3l0.2,0.5l0.4,0.1
	C198.1,114.7,198.1,114.5,198,114.4z M197.3,113.4l-0.2,0.1c-0.1,0-0.1,0.1-0.1,0.3h0.2l0.2-0.2L197.3,113.4z M196.9,112l0,0.1
	c0,0,0.1,0.1,0,0.2c0,0.1,0,0.1,0.2,0.2c0,0,0.1,0,0.1,0l-0.1-0.3L197,112L196.9,112z M196.7,116c0,0,0-0.1,0.1-0.1l0.1,0
	c0,0,0,0,0-0.1l-0.1,0L196.7,116z M196.6,116.5c0,0,0-0.1-0.1-0.1C196.5,116.4,196.5,116.4,196.6,116.5z M196.1,115.3l0.2,0.1
	l0.1-0.1c0,0,0-0.1,0-0.2l-0.1,0L196.1,115.3z M196.1,116.8l0,0.1c0,0,0,0,0.1,0.1c0,0,0,0,0.1-0.1l0.2-0.3c0,0,0,0-0.1-0.1
	c0,0,0-0.1-0.1-0.1L196.1,116.8z M192.1,124.8c0,2.4,2,4.4,4.4,4.4s4.4-2,4.4-4.4c0-2.4-2-4.4-4.4-4.4
	C194.1,120.4,192.1,122.4,192.1,124.8z M192,133.9l-0.1,0.3l0.1,0.2c0,0,0,0,0.1,0.1c0,0,0,0,0.1,0l0-0.2c0,0,0,0-0.1-0.1
	C192.1,134,192,134,192,133.9z M191.6,133.1l0,0.2l0.1,0.1c0.1-0.1,0.1-0.1,0.1-0.2l-0.1-0.1L191.6,133.1z M191.5,138.2l0,0.1
	c0,0,0.1,0.1,0,0.2c0,0.1,0,0.1,0.2,0.1c0,0,0,0,0,0l0,0.1l0.2,0l0-0.1c0-0.1,0-0.1-0.1-0.2l-0.1,0.1l-0.1-0.1L191.5,138.2
	L191.5,138.2z M191.2,134.6l-0.2-0.1l0,0c-0.1-0.1-0.1-0.1-0.1-0.1l-0.1,0l0,0.2l0.2,0l0,0c0.1,0,0.1,0.1,0.1,0.2
	c0.1,0.1,0.1,0.1,0.3,0.1c0.1,0,0.1,0,0.1-0.1L191.2,134.6z M190.8,131.8l0.1,0.2l0,0c0,0,0.1,0,0.1-0.1l0-0.1l-0.1-0.1
	C190.9,131.7,190.8,131.7,190.8,131.8z M190.7,132.8C190.7,132.8,190.7,132.8,190.7,132.8L190.7,132.8
	C190.8,132.8,190.8,132.8,190.7,132.8z M190.3,127L190.3,127C190.2,127,190.3,127,190.3,127C190.4,127,190.3,127,190.3,127z
	 M190.1,126c0.1,0.1,0.1,0.1,0.1,0.1l0.1,0l0-0.2l-0.2,0L190.1,126z M190.1,132.1l0.2-0.1l0.1-0.2l-0.2-0.1l-0.1,0.1
	C190,131.9,190,132,190.1,132.1z M189.7,132.5l-0.3-0.4l-0.3,0.2c-0.1,0.1,0,0,0.1,0.4l0.2,0.2L189.7,132.5z M189.1,126.4
	c0,0,0,0.1,0.1,0.1l0.1-0.3l0-0.1c0,0,0,0-0.1-0.1c0,0,0,0-0.1,0l0,0.2C189,126.3,189,126.3,189.1,126.4z M189.2,131.8
	c0,0,0,0,0.1,0v-0.1C189.3,131.7,189.3,131.7,189.2,131.8z M188.8,125.6c0,0.1,0,0.1,0.1,0.1l0.2-0.2l0.1-0.2l0-0.1l-0.1,0.1
	c0,0,0,0.1-0.2,0.1C188.9,125.4,188.9,125.4,188.8,125.6z M188.6,129.8c0,0,0,0.1,0.2,0.1l0.1-0.1l0-0.1c0,0,0-0.1-0.2-0.1
	L188.6,129.8L188.6,129.8z M188.3,129.2l0.1,0.1l0.2,0l0-0.2l-0.1,0C188.4,129,188.3,129.1,188.3,129.2z M188.2,128.3
	c0,0,0,0,0.1,0.1l0.1,0C188.3,128.4,188.2,128.4,188.2,128.3z M187.7,126.2l0.1,0.2l0.3,0.1l0.1-0.3l-0.2-0.1
	C187.9,126.1,187.8,126.1,187.7,126.2z M186.8,126.9l0.1,0.4c0.4,0.1,0.5,0.1,0.6-0.1l0.2-0.3l-0.5-0.4L186.8,126.9z M186.8,129
	c0,0,0-0.1-0.1-0.1C186.7,128.9,186.7,129,186.8,129z M186.5,129.6l0.1,0l0-0.2c0,0,0,0.1-0.1,0.1l-0.1,0
	C186.4,129.5,186.4,129.5,186.5,129.6z M186.3,133.4c0,0,0.1-0.1,0.1-0.1l0.1,0c0,0,0,0,0-0.1h-0.1L186.3,133.4z M186.1,133.8
	c0,0,0,0.1,0.1,0.1C186.2,133.9,186.2,133.8,186.1,133.8z M185.9,126.1l0.1,0c0,0,0.1,0,0.1-0.1l-0.1-0.1l-0.2,0L185.9,126.1z
	 M185.5,126.7c0,0,0.1,0,0.1,0l0.1,0.1c0,0,0,0,0.1-0.1l-0.1-0.1L185.5,126.7z M185.5,132.4l0.4,0.1l0.1-0.1c0,0,0,0,0-0.1
	c-0.1,0-0.1,0-0.1-0.1l-0.3,0c0,0,0,0-0.1,0.1C185.5,132.2,185.5,132.3,185.5,132.4z M185.3,132.3c0,0,0.1,0,0.1-0.1
	C185.3,132.1,185.3,132.1,185.3,132.3z M185,126.8c0,0,0.1,0,0.1-0.1C185.1,126.7,185,126.7,185,126.8z M184.4,126.7
	C184.5,126.8,184.5,126.8,184.4,126.7l0.4,0.1c0,0,0,0,0.1-0.1c0,0,0-0.1,0.1-0.2l-0.4,0l-0.1,0.1
	C184.4,126.6,184.4,126.7,184.4,126.7z M184,136.4l0.1,0.1l0.2-0.1l-0.1-0.2l-0.1,0C184,136.3,184,136.3,184,136.4z M183.6,133.4
	c0,0,0,0.1,0.1,0.1l0.1-0.2l0-0.2l0-0.1l-0.1,0.1c0,0,0,0.1-0.1,0.1C183.6,133.3,183.6,133.3,183.6,133.4z M182.8,131.2l0.2,0.2l0,0
	c0,0,0.1-0.1,0.1-0.2l-0.1-0.1l-0.1,0C182.8,131,182.8,131.1,182.8,131.2z M182.4,131.5l-0.3,0.1l0,0.2c0,0.1,0,0.1,0.2,0.2l0.1-0.1
	L182.4,131.5z M182.1,131.1C182.1,131.1,182.1,131.1,182.1,131.1l0-0.1C182.1,131,182.1,131,182.1,131.1z M181.3,129.5l0.1,0.1l0,0
	c0,0,0,0,0-0.1l-0.1-0.1h-0.1C181.3,129.4,181.3,129.4,181.3,129.5z M181,129.8L181,129.8c0,0.1,0,0.1,0.1,0.2l0.1-0.1l-0.1-0.1
	L181,129.8z M180.6,130.1C180.6,130.1,180.7,130.1,180.6,130.1L180.6,130.1C180.6,130,180.6,130,180.6,130.1z M95.3,134.9
	c0.1,0,0.1-0.1,0-0.2C95.2,134.7,95.2,134.7,95.3,134.9z M94.2,124l0.2-0.1l0.1-0.1l0.1-0.1l-0.1,0c0,0-0.1,0-0.2,0
	C94.2,123.8,94.2,123.8,94.2,124C94.1,124,94.1,124,94.2,124z M94.3,127.8L94.3,127.8c-0.1,0-0.1,0,0,0.1
	C94.4,127.9,94.4,127.8,94.3,127.8z M93.7,132.5l0.3,0l0,0c0,0,0-0.1-0.1-0.2l-0.2,0l-0.1,0.1C93.6,132.4,93.6,132.5,93.7,132.5z
	 M93.5,133.3l0.1,0.1c0.1,0,0.1,0.1,0.3-0.1l0-0.2l-0.2-0.1L93.5,133.3z M93.4,134.3c0,0,0,0,0-0.1l-0.1,0
	C93.3,134.2,93.3,134.2,93.4,134.3z M93.1,131.1l-0.2,0.2c0,0,0,0,0,0.1c0,0,0,0.1,0.1,0.2l0.3-0.3l0-0.2c0,0,0-0.1-0.1-0.1
	C93.1,131.1,93.1,131.1,93.1,131.1z M92.9,126.5l-0.1,0.1l0,0c0,0,0,0.1,0.1,0.1l0.1,0L92.9,126.5C93,126.6,92.9,126.5,92.9,126.5z
	 M92.7,131.6c0,0-0.1,0.1,0.1,0.2C92.8,131.7,92.8,131.6,92.7,131.6z M92.8,125.6L92.8,125.6C92.9,125.6,92.9,125.6,92.8,125.6
	C92.8,125.5,92.8,125.5,92.8,125.6z M92.6,126.1l0,0.1l0.1,0l0-0.2l-0.1,0C92.8,126,92.7,126,92.6,126.1z M90.3,135.3
	c0,0-0.1,0-0.2,0l0.2,0.2l0.2,0.1c0,0,0,0,0.1,0c0,0,0,0,0-0.1l-0.1-0.2C90.4,135.3,90.4,135.3,90.3,135.3z M90.1,131.8
	C90.1,131.8,90.1,131.8,90.1,131.8l0-0.1C90,131.7,90,131.7,90.1,131.8z M89.3,131l0.1,0.2C89.4,131.1,89.4,131.1,89.3,131l0.2-0.1
	C89.5,130.9,89.5,130.9,89.3,131L89.3,131z M88.2,116.9l0.2,0l0,0c0,0,0-0.1-0.1-0.1l-0.1,0l-0.1,0.1
	C88.1,116.8,88.1,116.9,88.2,116.9z M88,117.4L88,117.4c0.1,0.1,0.1,0.1,0.3,0.1l0-0.1l-0.1-0.1L88,117.4z M87.8,118
	C87.8,118,87.8,118,87.8,118l0-0.1C87.7,117.9,87.7,118,87.8,118z M85.7,119l-0.2,0l-0.2,0.1l-0.1,0.1l0.1,0c0,0,0.1,0,0.2,0.1
	c0.1,0,0.1,0,0.2-0.1C85.8,119.1,85.8,119.1,85.7,119z M85.1,116.9l0.4,0.1l0.1-0.1c0,0,0,0,0-0.1c-0.1,0-0.1,0-0.1-0.1l-0.3,0
	c0,0,0,0-0.1,0.1C85.2,116.8,85.2,116.8,85.1,116.9z M84.9,116.8c0,0,0.1,0,0.1-0.1C85,116.7,84.9,116.7,84.9,116.8z M84.2,116.7
	L84.2,116.7l0.3,0.1c0,0-0.1,0-0.1,0L84.2,116.7C84.3,116.6,84.3,116.6,84.2,116.7z M84.1,118.6c0,0,0,0.1,0.1,0.1l-0.1,0.1
	c0,0,0,0,0.1,0l0.1-0.1L84.1,118.6z M83.8,117.5l0.1,0.1l0.2,0l0-0.2l-0.1,0C84,117.3,83.9,117.3,83.8,117.5z M83.7,117.5
	c0,0,0,0-0.1,0c0,0.1,0,0.1,0,0.1l0.1,0.3c0,0,0,0,0.1,0c0,0,0.1,0,0.2,0l-0.2-0.4L83.7,117.5z M83.8,118.2c0,0,0.1,0.1,0.2,0
	C84,118.2,83.9,118.2,83.8,118.2z M83.6,113.8c0,0,0,0-0.1-0.1l-0.1,0l-0.1,0.2c0,0,0-0.1,0.1-0.1L83.6,113.8z M83.3,112.2
	c-0.1,0.1-0.1,0.1,0,0.2l0.1,0.1l0.2-0.1l-0.1-0.1l0,0c0-0.1,0-0.1,0.2-0.2c0-0.1,0-0.1,0-0.3c0-0.1-0.1-0.1-0.2-0.1l-0.1,0.3
	L83.3,112.2L83.3,112.2z M83.3,114.4c0,0,0-0.1-0.1-0.1C83.1,114.3,83.1,114.3,83.3,114.4z M83,116.1c-0.4-0.1-0.6-0.1-0.6,0.1
	l-0.2,0.3l0.5,0.5l0.4-0.4L83,116.1z M82,114.7l0.3,0.2c0.1,0.1,0,0,0.3-0.2l0.1-0.2l-0.5-0.2L82,114.7z M81.9,113.2
	C82,113.2,82,113.2,81.9,113.2l0-0.1C81.9,113.1,81.9,113.1,81.9,113.2z M81.7,116.9l-0.1,0.3l0.2,0.1c0.1,0,0.2,0,0.3-0.1l-0.1-0.2
	L81.7,116.9z M81.7,114.8L81.7,114.8c-0.1,0.1,0,0.1,0.1,0.1C81.7,114.9,81.7,114.9,81.7,114.8z M81.3,113.9l0,0.3l0.1,0
	c0.1,0,0.1,0,0.2-0.2l-0.1-0.1L81.3,113.9z M81,118.3l-0.2,0.1C80.8,118.4,80.9,118.4,81,118.3l0,0.2C81,118.5,81,118.5,81,118.3
	L81,118.3z M80.5,117.1l0,0.1c0,0,0,0,0.1,0.1c0,0,0,0,0.1,0l0.1-0.2c0,0,0,0-0.1-0.1c0,0,0-0.1-0.1-0.1L80.5,117.1z M80.4,118.3
	l0.1-0.1c0,0,0-0.1,0.2-0.1c0.1-0.1,0.1-0.1,0.1-0.2c0-0.1,0-0.1-0.1-0.1l-0.2,0.2l-0.1,0.2L80.4,118.3z M80.3,118.5
	c0,0,0.1,0,0.1-0.1C80.3,118.3,80.3,118.4,80.3,118.5z M80,116.3l0.2,0l0,0c0,0,0-0.1,0-0.2l-0.1-0.1l-0.1,0
	C79.9,116.2,79.9,116.2,80,116.3z M80,117.5l-0.5,0.1l0,0.3c0,0.1,0,0,0.3,0.1l0.3,0L80,117.5z M79.6,116.8l0.1,0.1
	c0,0.1,0.1,0.1,0.2,0l0-0.2l-0.1-0.2L79.6,116.8z M79.3,117.3l0,0.2l0.2,0l0.1-0.1c-0.1-0.1-0.1-0.1-0.1-0.1L79.3,117.3z
	 M79.2,117.5C79.2,117.5,79.2,117.5,79.2,117.5l0-0.1C79.2,117.4,79.1,117.4,79.2,117.5z M79.1,120.9c0,0,0,0.1,0.2,0
	C79.2,120.9,79.2,120.9,79.1,120.9z M77.6,118.7l-0.1-0.3l-0.3,0l0,0.2c0,0.1,0,0.2,0.2,0.2L77.6,118.7z M78.2,120.5l0-0.1
	c0,0,0-0.1-0.2-0.1l-0.1,0.1l0.1,0.2L78.2,120.5z M78.5,119.3l0.3-0.3c-0.1-0.4-0.2-0.5-0.3-0.5l-0.3,0l-0.2,0.6L78.5,119.3z
	 M78.9,120.3L78.9,120.3l0.1,0.3c0,0,0-0.1,0-0.1l0.1-0.1C79,120.3,79,120.3,78.9,120.3z M79.4,121.5c0-0.1,0-0.1,0-0.1l-0.1-0.3
	c0,0,0,0-0.1,0c0,0-0.1,0-0.2,0l0.1,0.4l0.1,0.1C79.3,121.6,79.4,121.6,79.4,121.5z M82.1,134.7l-0.1-0.3l-0.6,0.1l0.1,0.5l0.4,0.2
	C82.1,135,82.2,134.9,82.1,134.7z M81.5,132.5c0,0.1,0,0.1,0.1,0.2c0,0,0.1,0,0.1,0l0-0.3l-0.1-0.2l-0.1-0.1l0,0.1
	C81.6,132.3,81.6,132.3,81.5,132.5z M81.5,133.7c-0.1,0-0.1,0.1-0.1,0.3l0.2,0l0.3-0.2l-0.2-0.2L81.5,133.7z M82.6,133l-0.2-0.2
	l-0.1,0c0,0,0,0-0.1,0c0,0,0,0,0,0.1l0.1,0.2c0,0,0,0,0.1,0C82.5,133,82.5,133,82.6,133z M82.9,131.8l-0.2-0.1l-0.1,0.1l0.1,0.1
	C82.8,131.9,82.9,131.9,82.9,131.8L82.9,131.8z M83.1,136.4c0,0,0-0.1-0.2,0C82.9,136.4,83,136.5,83.1,136.4z M83.1,135.8l0.1,0.2
	l0.4-0.3l-0.3-0.4l-0.3,0.1C83,135.4,83.1,135.4,83.1,135.8z M83.4,135.1l0.1,0.1l0.1,0c0.1-0.1,0.1-0.1,0-0.2l-0.1-0.1L83.4,135.1z
	 M83.5,134.9L83.5,134.9c0-0.1,0-0.1-0.1,0C83.4,134.9,83.4,134.9,83.5,134.9z M83.6,132.4C83.6,132.4,83.6,132.4,83.6,132.4
	C83.7,132.4,83.7,132.3,83.6,132.4L83.6,132.4z M83.8,136.5l-0.3-0.1l-0.2,0l-0.1,0l0.1,0.1c0,0,0.1,0,0.2,0.2c0.1,0,0.1,0,0.3,0
	C83.8,136.6,83.8,136.6,83.8,136.5z M83.8,129.8l-0.1-0.3c0,0,0,0-0.1,0c0,0-0.1,0-0.2,0l0.1,0.4l0.1,0.1c0,0,0,0,0.1,0
	C83.7,129.8,83.7,129.8,83.8,129.8z M84.5,135.9l-0.3,0.1l-0.1,0.1c0,0,0,0,0,0.1c0,0,0,0,0.1,0l0.2,0c0,0,0,0,0.1-0.1
	C84.5,136,84.5,136,84.5,135.9z M84.1,135.4l0.2,0l0.1-0.2l-0.2-0.1l-0.1,0.1C84,135.2,84,135.2,84.1,135.4z M85,135.2L85,135.2
	c-0.1-0.1-0.1-0.1-0.2,0l0,0.2l0,0c0,0,0.1,0,0.1-0.1L85,135.2z M86.1,129c0,0-0.1-0.1-0.2,0.1C86,129.1,86.1,129.1,86.1,129z
	 M86.7,130.8c0,0,0,0-0.1-0.1c0,0-0.1-0.1-0.2-0.1l-0.1,0.5l0.1,0.2c0,0,0,0,0.1,0c0-0.1,0-0.1,0.1-0.1L86.7,130.8z M86.7,129.5
	c0-0.1,0-0.1,0-0.2l-0.3-0.3c0,0,0,0-0.2,0.1c0,0-0.1,0-0.2,0.1l0.4,0.4l0.2,0C86.6,129.6,86.7,129.6,86.7,129.5z M86.8,136.1
	L86.8,136.1C86.7,136,86.7,136.1,86.8,136.1C86.8,136.2,86.8,136.2,86.8,136.1z M87.7,136.8l-0.1-0.6l-0.5,0l0,0.4
	c0,0.1,0,0,0.3,0.2L87.7,136.8z M87.5,132.9l0.1,0.1c0,0,0.1,0,0.2-0.1l0-0.2l0,0c0,0-0.1,0-0.1,0.1L87.5,132.9z M87.6,129.2
	c0,0,0-0.1-0.1-0.1C87.5,129.1,87.5,129.2,87.6,129.2z M87.3,135.5l0,0.1c0,0.1,0.1,0.1,0.2,0.1l0.1-0.2l-0.1-0.2L87.3,135.5z
	 M87.4,129.3c0,0,0-0.1-0.1-0.1l-0.3,0.3l0,0.1c0,0,0,0,0.1,0.1c0.1,0,0.1,0,0.1,0l0.2-0.2C87.5,129.4,87.5,129.4,87.4,129.3z
	 M88,137.2c0,0-0.1,0-0.1,0.1C87.9,137.4,88,137.3,88,137.2z M88,134.9l-0.1-0.1l-0.1,0c0,0,0,0.1,0,0.2l0.2,0.1l0,0
	C88,135,88,135,88,134.9z M88,128.7l-0.1,0l-0.1,0.2c0,0,0.1-0.1,0.1-0.1l0.1,0C88,128.8,88,128.8,88,128.7z M88.1,126.3l0-0.1
	c0,0-0.1-0.1,0-0.2c0,0,0,0,0,0c0.1-0.4,0.2-0.8,0.2-1.2c0-2.4-2-4.4-4.4-4.4c-2.4,0-4.4,2-4.4,4.4c0,2.3,1.8,4.2,4,4.4l0,0
	c0,0,0,0.1,0.2,0c0,0,0,0,0,0c0.1,0,0.2,0,0.3,0c1.9,0,3.6-1.2,4.2-3L88.1,126.3L88.1,126.3z M88.4,133.1l0.1-0.1c0,0,0-0.1-0.1-0.2
	l-0.2,0l-0.1,0.2L88.4,133.1z M88.4,135.7C88.4,135.7,88.4,135.7,88.4,135.7L88.4,135.7C88.5,135.6,88.5,135.6,88.4,135.7z
	 M88.7,137.3l-0.1-0.1l-0.2,0c0,0,0.1,0,0.1,0L88.7,137.3C88.6,137.4,88.6,137.4,88.7,137.3z M89.2,133.2c0,0,0,0-0.1,0l0,0.1
	C89.1,133.3,89.1,133.3,89.2,133.2z M89.5,134.9l-0.1,0l-0.1,0.2l0.2,0.1l0.2-0.1C89.6,135,89.5,134.9,89.5,134.9z M89.5,132.3
	l-0.1-0.2l-0.5,0.3l0.3,0.4l0.3-0.1C89.7,132.6,89.6,132.6,89.5,132.3z M89.7,131.6c0,0-0.1-0.1-0.2,0
	C89.6,131.6,89.6,131.6,89.7,131.6z M90.5,136.4l-0.3,0l-0.2,0.1l0,0c-0.1,0-0.1,0-0.2,0l0,0.1l0.2,0.1l0.1-0.1l0,0
	c0,0,0.1,0,0.3,0.1c0.1,0,0.1,0,0.3-0.1C90.6,136.5,90.6,136.4,90.5,136.4z M90.9,135.3l-0.3,0.2l-0.1,0.2c0,0,0,0.1,0,0.1
	c0,0,0,0,0.1,0l0.2-0.2c0,0,0,0,0-0.2C90.9,135.5,90.9,135.4,90.9,135.3z M91.3,135.9c0-0.1,0-0.1-0.1-0.2c0,0-0.1,0-0.2,0l0,0.3
	l0.1,0.2l0.1,0.1l0-0.1C91.2,136.1,91.2,136,91.3,135.9z M91.4,134.2l-0.2-0.1l-0.3,0.2l0.2,0.3l0.2-0.1
	C91.4,134.6,91.4,134.5,91.4,134.2z M91.5,133.6l-0.1-0.6l-0.4-0.2c-0.4,0.3-0.4,0.4-0.3,0.6l0.2,0.3L91.5,133.6z M92.2,136.6
	l-0.2-0.3l-0.3,0.2l0.1,0.2c0,0.1,0.1,0.2,0.4,0.2L92.2,136.6z M92.5,132c0,0-0.1,0.1-0.1,0.1l-0.1,0c0,0,0,0,0,0.1l0.1,0L92.5,132z
	 M92.7,133l0.1-0.1l-0.1-0.1l-0.1,0.1c0,0-0.1,0.1,0,0.2L92.7,133z M92.9,136.9l0.7-0.1l0.2-0.5c-0.3-0.4-0.5-0.5-0.6-0.4l-0.4,0.2
	L92.9,136.9z M93.9,138.4l-0.1-0.1c0,0-0.1-0.1-0.2,0l0,0.1l-0.1,0l-0.2,0l-0.1,0.1l0.1,0c0,0,0.1,0,0.2,0.1c0.1,0,0.1,0,0.2-0.1
	c0,0,0,0,0,0l0.1,0.1L93.9,138.4z M94.4,134.7l0.3-0.2l-0.4-0.5l-0.5,0.3l0.2,0.4C94.1,134.8,94,134.7,94.4,134.7z M94.8,138
	c0-0.1-0.1-0.1-0.1-0.1l0-0.2c0,0,0,0-0.1,0l0,0.1L94.8,138z M95.3,138.3c0,0-0.1-0.1-0.2,0.1C95.1,138.4,95.2,138.4,95.3,138.3z
	 M95.9,138.9c0-0.1,0-0.1,0-0.2l-0.3-0.3c0,0,0,0-0.2,0.1c0,0-0.1,0-0.2,0.1l0.4,0.4l0.2,0C95.8,139,95.8,139,95.9,138.9z M96,137.3
	L96,137.3C95.9,137.3,95.9,137.3,96,137.3C96,137.4,96,137.4,96,137.3z M96.1,134.4l-0.1-0.1l-0.2,0.2c0.1,0,0.1,0,0.2-0.1l0.1,0.1
	C96,134.6,96.1,134.6,96.1,134.4z M96.5,136.7l-0.1-0.1l-0.1,0.2l0.1,0.1c0,0,0.1,0.1,0.2,0L96.5,136.7z M96.7,136.1l-0.1,0l-0.1,0
	c0,0,0,0.1,0,0.1l0.2,0l0,0C96.7,136.3,96.7,136.2,96.7,136.1z M101.1,138.5l-0.1-0.2l0,0c0,0-0.1,0-0.1,0.1l0,0.1L101.1,138.5
	C101.1,138.6,101.1,138.6,101.1,138.5z M101.6,138.3l-0.1,0l0,0.2l0.2,0.1l0.1-0.1C101.7,138.4,101.7,138.4,101.6,138.3z
	 M101.8,132.6l-0.3,0.1l-0.2,0.1l-0.1,0.1l0.1,0c0,0,0.1-0.1,0.2,0c0.1,0,0.1,0,0.2-0.2C101.9,132.7,101.9,132.7,101.8,132.6z
	 M102.3,138.5C102.3,138.5,102.3,138.5,102.3,138.5L102.3,138.5C102.2,138.6,102.3,138.5,102.3,138.5z M178.1,127.2L178.1,127.2
	c0,0.1,0.1,0.1,0.2,0l0.1-0.2l-0.1-0.2c0,0-0.1,0-0.2,0.1L178.1,127.2z M177.8,131.1l-0.2-0.1l-0.1,0l0.1,0.1c0.1,0,0.1,0,0.1,0.2
	c0.1,0.1,0.1,0.1,0.3,0.1c0.1,0,0.1,0,0.1-0.1L177.8,131.1z M177.3,126.6c-0.1,0-0.1,0.1,0,0.3l0.2,0l0.2-0.2l-0.2-0.2L177.3,126.6z
	 M195.5,94.1c0-0.1,0.1-0.2,0.1-0.2C195.6,94,195.6,94,195.5,94.1z M126.2,93.8c0,4.6,4.6,8.5,10.8,9.6v2.4c1.1,0.1,2.1,0.1,3.2,0.1
	h0.2c1,0,2-0.1,2.9-0.1v-2.4c6.5-0.9,11.4-4.9,11.4-9.7c0-2.3-1.2-4.4-3.1-6.1c0,0.1,0.1,0.1,0.1,0.3L151,88l-0.2-0.2
	c0,0-0.1-0.1,0-0.2c0.1,0,0.1,0,0.2-0.1l0.5,0c-2.6-2.2-6.6-3.5-10.9-3.5c-0.2,0-0.4,0-0.6,0l0,0.1c0,0.1-0.1,0.1-0.3,0.1l-0.1-0.2
	C132.1,84.3,126.2,88.6,126.2,93.8z M148.7,104.9c-0.3,0.1-0.6,0.2-0.9,0.3v0.3c1.1-0.1,2.2-0.3,3.3-0.4v-0.1H148.7L148.7,104.9z
	 M132.2,104.9h-2.9v0.1c1.1,0.2,2.2,0.3,3.3,0.5V105C132.5,105,132.4,104.9,132.2,104.9z M200.3,74.6c0-0.3,0-0.5,0.1-0.7
	C200.4,74.1,200.4,74.4,200.3,74.6z M175.6,128.7l0.1-0.1l-0.1-0.3c0,0.1,0,0.1,0,0.2l-0.1,0.1C175.5,128.6,175.5,128.7,175.6,128.7
	z M175.6,127.9c0-0.1,0-0.1-0.2-0.1C175.4,127.8,175.4,127.9,175.6,127.9z M169.1,150.5c0.1,0,0.2-0.1,0.3-0.1
	c-2.2,1-4.6,1.8-7.4,2.6c2.1,0,4.1,0.9,5.7,3.1c2.1,3,2.2,3.5-1.3,2.6c-8-1.9-19.5,8.2-22.4,5.5c-1.4-1.3-0.7-3.1,1.3-3.6
	c2.6-0.6,7.3-4.6,12.1-6.6c-5.1,1-10.8,1.5-16.9,1.5c-6.1,0-11.8-0.6-16.9-1.6c4.8,1.9,9.5,6,12.1,6.6c1.9,0.5,2.6,2.3,1.3,3.6
	c-2.9,2.8-14.5-7.4-22.4-5.5c-3.5,0.9-3.4,0.3-1.3-2.6c1.6-2.2,3.6-3.1,5.7-3.1c-2.7-0.7-5.2-1.6-7.4-2.6c0.1,0,0.2,0.1,0.3,0.1
	l-0.1,0.3l0,0.1c-2.3,8-2.9,13.6-2.6,18c0.7,1.6,1.6,3.2,3,5c2.1,2.8,1.8,6.1,1.3,10.1c0.8,2.2,1.6,4.6,2.1,7.4
	c1.8,9.8,5.5,16.7,9.1,21.9c1.5,1.2,3.1,2.1,4.5,2.8c0-0.2,0.1-0.4,0.3-0.6c0.4-0.4,1.1-0.4,1.6,0c3.4,3.6,4,4.2,9.3,4.2
	c0.1,0,0.4,0,0.5,0c5.3,0,5.9-0.6,9.3-4.2c0.4-0.4,1.1-0.5,1.6,0c0.2,0.2,0.3,0.4,0.3,0.6c1.3-0.6,2.6-1.4,4-2.4
	c3.7-5.2,7.5-12.2,9.4-22.2c0.6-3,1.4-5.5,2.3-7.9c-0.4-3.8-0.6-7,1.4-9.7c1.2-1.6,2.1-3,2.7-4.4c0.4-4.5-0.2-10.3-2.6-18.6
	L169.1,150.5L169.1,150.5z M149.4,219.5c-0.1,0-0.2,0-0.3,0.1c-2.1,1.8-3.9,2.3-8.3,2.3c-0.1,0-0.4,0-0.5,0c-4.4,0-6.2-0.5-8.3-2.3
	c-0.1,0-0.2,0-0.3-0.1c-0.8-0.3-2-0.7-3.3-1.4c0.9,1,1.7,2,2.5,2.8c1.1,1.3,2.2,2.5,3.1,3.6c0.1,0,0.3,0,0.4-0.1c0.1,0,0.2,0,0.3,0
	c1.2-0.1,2.3-0.2,3.5-0.2c2.8,0,5.5,0.4,8,1.2c1-1.4,2.3-2.9,3.8-4.5c0.7-0.8,1.5-1.7,2.3-2.6C151.1,218.9,150.1,219.2,149.4,219.5z
	 M173.7,145.3c-1.1-0.9-2.4-1.7-3.9-2.4l0,0c0,0-0.1,0-0.1,0.2c-0.1,0-0.1,0.1-0.2,0c0,0-0.1,0-0.1-0.1l0.2-0.1l0.1,0
	c-0.8-0.4-1.6-0.7-2.4-1.1c-1.8,2.9-3.4,5.2-4.4,6c0,0,0,0.1,0,0.1c0,0,0,0,0,0l0.1,0l-0.1,0.3l-0.2,0c-0.1,0-0.1-0.1-0.1-0.2
	c-0.2,0.1-0.3,0.1-0.4,0.1c-0.7-0.3,0.1-3.6,1.3-7.7c-1.6-0.5-3.4-0.9-5.2-1.3l-0.1,0.5c-0.5,0.2-0.7,0.1-0.8-0.1l-0.2-0.4l0.2-0.2
	c-0.7-0.1-1.5-0.3-2.2-0.4c0,0,0,0.1-0.1,0.1l0-0.1c-3.8-0.6-7.9-1-12.1-1.1c-0.6,6.5-1.5,13-2.6,13c-1.1,0-2-6.5-2.6-13
	c-2.8,0.1-5.6,0.3-8.2,0.6l0.1,0.1c0,0.1,0,0.1,0.2,0.1c0.1,0.1,0.1,0.1,0.1,0.3c0,0.1,0,0.1-0.1,0.1l-0.2-0.2l-0.1-0.2l0-0.1
	c-4.5,0.5-8.6,1.4-12.2,2.5c1.3,4,2,7.2,1.3,7.6c-0.7,0.3-2.8-2.5-5.1-6.2c-2.4,1-4.5,2.2-6.1,3.4c2.9,2.3,7.4,4.2,12.9,5.6
	l-0.2-0.2l0.1-0.3l0.4,0.1l0,0.2c0,0.1-0.1,0.2-0.3,0.2c1.4,0.4,2.9,0.7,4.5,1l-0.1-0.4l0.5-0.1l0.1,0.3c0,0.1,0,0.2,0,0.3
	c3,0.5,6.1,0.9,9.4,1.1l-0.1-0.1l0-0.1c0,0,0.1-0.1,0.2,0l0.1,0.2v0c1.9,0.1,3.7,0.2,5.7,0.2c8.7,0,16.9-1.2,23.3-3.2
	c0,0,0-0.1,0-0.2c0-0.1,0-0.1,0-0.3l0.6,0.2l0,0C168.2,148.7,171.4,147.1,173.7,145.3z M110.9,128v3.3h3.3V128H110.9L110.9,128z
	 M113.5,123.6c-0.9-0.3-1.8-0.6-2.6-1v1H113.5z M110.9,135.7v3.3h3.3v-3.3H110.9z M132.6,131.3V128h-3.3v3.3H132.6z M151.1,131.3
	V128h-3.3v3.3H151.1z M166.3,128v3.3h3.3V128H166.3L166.3,128z M169.6,123.6v-0.9c-0.8,0.3-1.6,0.6-2.4,0.9H169.6z M166.3,135.7v3.3
	h3.3v-3.3H166.3z M104.3,140.1c0-0.1,0-0.1-0.1-0.1c0,0-0.1,0-0.1,0l0.1,0.2l0.1,0.1l0.1,0.1l0-0.1
	C104.2,140.3,104.2,140.2,104.3,140.1z M103.7,129.6c0.1,0,0.1,0,0.2-0.1l-0.1-0.2l-0.2,0l-0.1,0.2L103.7,129.6z M103.7,130.3
	L103.7,130.3c-0.1,0-0.1,0,0,0.1C103.7,130.4,103.7,130.3,103.7,130.3z M103.8,128.8L103.8,128.8c0-0.1,0-0.1-0.1-0.1l-0.1,0
	l-0.1,0.1c0,0,0,0.1,0.1,0.1L103.8,128.8z M127.1,226.8c0.3-0.2,0.7-0.5,1.1-0.6c1.1-0.5,2.3-0.8,3.4-1.1c-0.7-0.8-1.4-1.7-2.3-2.6
	c-5.1-5.7-12.8-14.3-15.9-30.6c-0.8-4-2-7.1-3.2-10.2c-2.8-7.2-5.5-14.1-0.6-31.4l0.1-0.3c-1.5-0.8-2.8-1.6-4-2.4l-0.5,1.5
	c-5.3,18.8-2.2,26.7,0.7,34.3c1.2,3,2.3,5.8,2.9,9.4c3.3,17.6,11.9,27.1,17,32.8C126.3,225.9,126.7,226.4,127.1,226.8z M130.6,232.4
	c0.4-0.1,0.7-0.3,1.1-0.4c4.9-3.1,10.2-4.3,14.7-4.1c-4.8-1.8-11.1-2.2-17.4,0.3c-1.2,0.5-1.7,1.8-1.3,2.9
	C128.2,232.3,129.5,232.9,130.6,232.4z M130.8,240.6c0.6,0,1.1-0.2,1.5-0.6c5.4-5.1,12.8-6.3,17.2-4.8c1.2,0.4,2.5-0.3,2.9-1.4
	c0.4-1.2-0.3-2.5-1.4-2.9c-5.5-1.8-14.7-0.8-21.7,5.8c-0.9,0.9-1,2.3-0.1,3.2C129.6,240.4,130.2,240.6,130.8,240.6z M140.7,246
	C140.7,246,140.7,246,140.7,246L140.7,246c-0.2,0-0.3,0-0.4,0.1c-0.1,0-0.2,0-0.2,0c-0.1,0-0.3,0.1-0.4,0.1c-0.1,0-0.1,0-0.2,0.1
	c-0.1,0-0.3,0.1-0.5,0.1c-0.1,0-0.1,0-0.2,0.1c-0.2,0.1-0.4,0.1-0.5,0.2c0,0-0.1,0-0.1,0c-0.2,0.1-0.4,0.2-0.6,0.3c0,0,0,0-0.1,0
	c-0.7,0.3-1.4,0.8-2.2,1.3l0,0c-0.8,3.7-1.3,9.3-1.1,17.5c0,1.2,1,2.2,2.3,2.2c0,0,0,0,0.1,0c0,0,0,0,0,0h0c1.2,0,2.2-1.1,2.2-2.3
	C138.4,254.2,139.8,248.5,140.7,246z M146,247.2C145.9,247.2,145.9,247.2,146,247.2L146,247.2c-0.1-0.1-0.2-0.1-0.3-0.2
	c-0.1,0-0.2-0.1-0.3-0.1c-0.1-0.1-0.2-0.1-0.3-0.2c-0.1,0-0.2-0.1-0.3-0.1c-0.1-0.1-0.2-0.1-0.4-0.1c-0.1,0-0.1-0.1-0.2-0.1
	c-0.1-0.1-0.3-0.1-0.4-0.1c-0.1,0-0.1,0-0.2-0.1c-0.2,0-0.3-0.1-0.5-0.1c0,0-0.1,0-0.1,0c-0.2,0-0.3-0.1-0.5-0.1c0,0-0.1,0-0.1,0
	c-0.2,0-0.4,0-0.6,0c0,0-0.1,0-0.1,0c-0.2,0-0.4,0-0.6,0c0,0,0,0-0.1,0l0,0c0,0,0,0,0,0c0.5,2.6,2.3,13.4-1.1,28.6
	c-0.3,1.2,0.5,2.4,1.7,2.7c0.2,0,0.3,0.1,0.5,0.1c0.1,0,0.3,0,0.4,0c0.9-0.1,1.6-0.8,1.9-1.7C147.5,262.1,146.7,252,146,247.2z
	 M150.6,242.2c-5.3-3.6-10.5-3.9-16.2-1.1c-0.2,0.1-0.4,0.2-0.6,0.3c-0.3,0.1-0.5,0.3-0.8,0.4c-0.1,0.1-0.2,0.1-0.3,0.2
	c-0.4,0.2-0.7,0.4-1.1,0.7c-1,0.7-1.3,2.1-0.6,3.1c0.4,0.7,1.2,1,1.9,1c0.4,0,0.9-0.1,1.2-0.4c5.3-3.5,9.4-3.6,14-0.5
	c1,0.7,2.4,0.4,3.1-0.6C152,244.3,151.7,242.9,150.6,242.2z M152.2,239.1c-0.6-0.6-1.4-1.1-2.2-1.6c-0.4,0-0.7-0.1-1.1-0.2
	c-1.4-0.4-3.5-0.6-6-0.2c3,0.2,6,1.3,9,3.3c0.4,0.3,0.7,0.6,1,0.9C153,240.5,152.8,239.6,152.2,239.1z M175.7,149l-0.5-2.1
	c-1.1,0.9-2.5,1.8-4,2.7l0.1,0.5l0,0.1c4.9,17.4,2.3,24.2-0.6,31.4c-1.2,3.1-2.4,6.2-3.2,10.2c-3.1,16.3-10.8,24.9-15.9,30.6
	c-1.3,1.5-2.4,2.7-3.3,3.9c1.5,0.6,2.8,1.4,3.9,2.3c0.7-0.9,1.7-2,2.7-3.1c5.1-5.7,13.7-15.2,17-32.8c0.7-3.6,1.8-6.4,2.9-9.4
	C177.9,175.6,181,167.7,175.7,149z M178.8,130l-0.1-0.1l-0.1,0l-0.1,0l0.1,0.1c0,0,0.1,0,0.1,0.1C178.7,130.1,178.7,130.1,178.8,130
	C178.8,130.1,178.8,130,178.8,130z M163.4,149.7c-0.1,0.2-0.1,0.2,0,0.2C163.6,149.7,163.5,149.7,163.4,149.7z M158.5,146.1
	l-0.4,0.1c0,0.1,0,0.2,0.1,0.2c0.2,0.1,0.2,0.1,0.3,0c0.1-0.2,0.2-0.2,0.2-0.2l0.2-0.1l-0.2-0.1L158.5,146.1z M84.8,137.6
	L84.8,137.6c0,0-0.1-0.1-0.1-0.1C84.7,137.5,84.8,137.5,84.8,137.6z M155.7,147.1l-0.5,0c-0.2,0-0.4,0.1-0.5,0.7l0.4,0.4l0.7-0.2
	L155.7,147.1z M158.7,144.6L158.7,144.6l0.1-0.2l-0.2-0.1l-0.1,0.1c0,0-0.1,0.1,0,0.2l0,0l0,0.3l0.2,0.4c0.1,0,0.2,0,0.2-0.1
	c0.1-0.2,0.1-0.2,0-0.4C158.7,144.8,158.6,144.7,158.7,144.6z M162.4,149.3c0,0.2,0,0.2,0,0.2l0.2-0.1c0.1,0,0.1,0.1,0.2,0.1
	l-0.3-0.2L162.4,149.3z M159.5,148.1l0,0.6c0,0.2,0.1,0.4,0.8,0.5l0.5-0.5l-0.2-0.8L159.5,148.1z M146.7,143.6c0,0.2,0,0.2,0,0.2
	l0.2-0.1c0.1,0,0.1,0.1,0.2,0.1l-0.3-0.2L146.7,143.6z M149.1,144.9c-0.1-0.1-0.1-0.1-0.1,0l-0.2,0.1l-0.2,0.5c0.1,0,0.2,0,0.2,0
	c0.1,0,0.2,0,0.2,0l0.1-0.4C149.1,145,149.1,145,149.1,144.9z M148.6,145.7c0.1,0.1,0.2,0,0.2,0
	C148.7,145.6,148.6,145.6,148.6,145.7z M149.2,138.6l-0.1,0.2l0.2,0.1l0.1-0.1c0,0,0.1-0.1,0-0.2L149.2,138.6z M148.4,146.3
	c0-0.1,0.1-0.1,0.1-0.2l-0.2,0.2l0.1,0.1c0.2,0,0.2,0,0.1,0L148.4,146.3z M146.8,143.3l-0.2-0.1c0-0.1,0-0.1,0-0.2l-0.1,0.3l0.1,0.1
	C146.8,143.3,146.8,143.3,146.8,143.3z M150.5,143.2l-0.2,0l-0.5,0.4c0.1,0.1,0.2,0.1,0.2,0.2c0.2,0.1,0.2,0.1,0.2,0.1l0.4-0.3
	c0-0.1,0-0.1,0.1-0.2C150.6,143.2,150.6,143.2,150.5,143.2z M147.5,140.7l-0.2-0.1l-0.5,0.1c0,0.1,0.1,0.2,0.1,0.2
	c0.1,0.1,0.1,0.1,0.1,0.1l0.4-0.1c0-0.1,0-0.1,0.1-0.1C147.6,140.8,147.5,140.7,147.5,140.7z M148.7,144.5c0.1-0.1,0.1-0.1,0-0.2
	l-0.1-0.2l-0.6-0.2c0,0.2,0,0.2,0,0.3c0,0.2,0,0.2,0,0.2l0.5,0.2C148.5,144.5,148.5,144.5,148.7,144.5z M147.7,143.9
	c-0.1,0.2-0.1,0.2,0,0.2C147.8,144,147.7,143.9,147.7,143.9z M154.2,150.4c0.1,0.1,0.2,0,0.2,0C154.3,150.3,154.2,150.4,154.2,150.4
	z M154.3,145.5c0-0.1,0-0.2,0-0.2l-0.1,0C154.2,145.5,154.3,145.5,154.3,145.5z M154.5,149.6l0.1,0.1c0,0.1-0.1,0.1-0.1,0.2l0.2-0.2
	l-0.1-0.1C154.5,149.6,154.5,149.6,154.5,149.6z M154.5,139.2L154.5,139.2l-0.3,0.1c-0.1,0.1-0.1,0.2,0,0.2l0.2,0l0.1-0.1
	C154.6,139.3,154.6,139.2,154.5,139.2z M154,150.7l-0.1,0.4c0,0.1,0,0.1,0,0.2c0.1,0.1,0.1,0.1,0.1,0l0.2-0.1l0.2-0.5
	c-0.1,0-0.2,0-0.2,0C154,150.7,154,150.7,154,150.7z M152.9,147.3L152.9,147.3c0.1,0,0.2,0,0.1-0.1
	C153,147.3,152.9,147.3,152.9,147.3z M153.2,145.6l-0.2,0.7l0.4,0c0.4-0.2,0.5,0,0.5-0.2l0-0.5L153.2,145.6z M152.6,146.8
	c0,0.2,0,0.2,0.1,0.2C152.7,146.8,152.6,146.8,152.6,146.8z M153.2,143.7l-0.2,0l-0.2,0.1c-0.1,0.1-0.1,0.2,0,0.2l0.1,0l0.3-0.1
	C153.2,143.8,153.2,143.7,153.2,143.7z M151.6,146.8c0.1,0.2,0.1,0.2,0.1,0.1l0.1-0.2c0.1,0,0.1,0,0.2,0l-0.3-0.1L151.6,146.8z
	 M156.7,144.9l0-0.2l-0.2-0.1l-0.2,0.3l0.1,0.1C156.5,145,156.6,145,156.7,144.9z M136.2,90l1-0.8l-0.3-0.6
	c-0.1-0.3-0.4-0.4-1.1-0.2l-0.2,0.8L136.2,90z M138.8,85.2l0.3,0l0.1-0.5l-0.4-0.1l-0.2,0.2C138.6,85.1,138.7,85.2,138.8,85.2z
	 M139.4,91.4c0.2,0.1,0.2,0.2,0.2,0.2l0.5-0.1c0-0.1,0-0.1,0.1-0.1c-0.1-0.1-0.1-0.2-0.2-0.2l-0.3-0.1l-0.6,0.1
	C139.3,91.3,139.3,91.4,139.4,91.4z M137.1,90.6c0.3,0.3,0.5,0.3,0.6,0.2l0.4-0.2l-0.2-0.5l-0.6,0.1L137.1,90.6z M143.6,87.1
	c0.2-0.2,0.2-0.3,0.2-0.4l-0.1-0.2l-0.4,0.1l0.1,0.4L143.6,87.1z M137.2,86.3l0.6-0.3l-0.3-0.9l-1,0.2l0.2,0.5
	C137.1,86.3,137,86.4,137.2,86.3z M138.5,86.4l-0.1-0.1c-0.1,0.1-0.1,0.2-0.1,0.2C138.5,86.4,138.5,86.4,138.5,86.4z M142.4,88.3
	L142.4,88.3c0.2,0,0.2,0,0.2,0C142.4,88.3,142.4,88.3,142.4,88.3z M142.2,86.9L142.2,86.9l0.2-0.4c-0.1-0.2-0.2-0.2-0.2-0.2
	l-0.2,0.1l0,0.3C142.1,86.9,142.2,87,142.2,86.9z M141.3,92.1c0.4,0,0.4,0,0.5-0.2c0-0.3,0.1-0.4,0.2-0.4l0,0l0.3,0l0-0.4l-0.2-0.1
	c-0.1,0-0.1,0-0.2,0.2l0,0l-0.4,0.2l-0.4,0.4C141.1,92,141.1,92.1,141.3,92.1z M140.5,89.2l0.3-0.1l0.1-0.3l-0.4,0l-0.1,0.2
	C140.2,88.9,140.3,89,140.5,89.2z M139.9,98.2c-0.2,0.1-0.3,0.2-0.2,0.3l0.1,0.2l0.4,0l0-0.2c0,0,0,0,0,0c0.2-0.1,0.2-0.1,0.3-0.2
	c0-0.2,0-0.3,0.1-0.3l0.1-0.2l-0.2,0.1l-0.3,0.2l-0.1,0.2L139.9,98.2z M139.9,91c0.1-0.1,0.1-0.1,0.1-0.1l0.1-0.3l-0.1-0.5
	c-0.1,0.1-0.2,0.2-0.2,0.3c-0.1,0.2-0.1,0.2-0.1,0.2l0.1,0.4C139.9,90.9,139.9,90.9,139.9,91z M135.7,85c-0.2,0.1-0.2,0.2-0.2,0.2
	C135.7,85.2,135.8,85.1,135.7,85z M132.2,89.5c0-0.2-0.1-0.3-0.1-0.3C132,89.5,132.1,89.5,132.2,89.5z M133.4,92.7l0-0.3l-0.5-0.1
	l-0.1,0.5L133,93C133.4,92.9,133.4,92.8,133.4,92.7z M133,184.6c0.2,0.6,0.8,0.9,1.4,0.7c0.1,0,0.5-0.2,1.3-0.2c0.4,0,0.7,0,0.9,0
	c0.1,1.4,1.7,2.3,3.9,2.3c2.2,0,3.7-1,3.9-2.4c0.2,0,0.4,0,0.7,0c0.9,0.1,1.3,0.2,1.4,0.2c0.6,0.2,1.2-0.1,1.4-0.6
	c0.2-0.6-0.1-1.2-0.6-1.4c-0.5-0.2-1.1-0.3-2-0.4c-2-0.2-2.9,0.6-3.6,1.2c-0.5,0.4-0.7,0.6-1.2,0.5c0,0,0,0-0.1,0
	c-0.6,0-0.9-0.2-1.3-0.6c-0.7-0.5-1.6-1.3-3.5-1.1c-0.8,0.1-1.4,0.2-1.9,0.4C133.1,183.4,132.8,184,133,184.6z M133.4,89.4
	c-0.1-0.2-0.1-0.2-0.1-0.2l-0.1,0.2c-0.1,0-0.2,0-0.3,0l0.4,0.1L133.4,89.4z M130.8,89.5l0.2,0.2l0.8-0.1c-0.1-0.2-0.1-0.2-0.1-0.3
	c-0.1-0.2-0.1-0.2-0.1-0.2l-0.6,0c-0.1,0.1-0.1,0.1-0.2,0.1C130.8,89.5,130.8,89.5,130.8,89.5z M132,97c0.2,0.2,0.2,0.2,0.2,0.1
	l0-0.3c0.1,0,0.2-0.1,0.3-0.1l-0.5,0.1L132,97z M133.9,91l0.1-0.2c-0.1-0.2-0.2-0.2-0.3-0.2l-0.2,0.1l0,0.4L133.9,91z M134.6,100
	l0,0.3l0.2,0.2c0.2-0.1,0.3-0.2,0.2-0.3l-0.1-0.2L134.6,100z M135.4,86c-0.1-0.1-0.1-0.1-0.1-0.1l0,0.1C135.3,86,135.4,86,135.4,86z
	 M135,93.3c-0.1-0.2-0.1-0.2-0.2-0.2l-0.1,0.1C134.9,93.4,134.9,93.4,135,93.3z M133.6,95.4l0.5-0.2c0.5-0.5,0.7-0.3,0.5-0.6
	l-0.3-0.7l-1,0.3L133.6,95.4z M139.5,92.4c0.3,0,0.4,0.1,0.4,0.2l0.2,0.1l0-0.2l-0.1-0.4l-0.4-0.4c-0.2,0-0.2,0.1-0.2,0.2
	C139.4,92.2,139.4,92.2,139.5,92.4z M138.2,100.9c-0.2,0.1-0.2,0.1-0.2,0.2l0.1,0.7c0.1,0.1,0.1,0.1,0.2,0.2c0.2,0,0.2,0,0.2,0
	l0.2-0.3l-0.1-0.9C138.4,100.9,138.3,100.9,138.2,100.9z M145.3,88.3c0.2-0.6,0.4-0.5,0.2-0.7l-0.5-0.4l-0.6,0.6l0.7,0.8L145.3,88.3
	z M136,100.3L136,100.3c0.1,0.2,0.1,0.2,0.1,0.1C136,100.3,136,100.3,136,100.3z M138.3,98.9c-0.3,0.1-0.3,0.1-0.2,0.2l0.3,0.1
	c0,0.1,0,0.2,0,0.3l0.1-0.5L138.3,98.9z M138.1,100.6c0.3,0,0.3-0.1,0.3-0.2C138.2,100.4,138.1,100.5,138.1,100.6z M139.2,93.7
	l0.2,0.7l0.4,0.2c0.3-0.3,0.3-0.5,0.2-0.7 M154.1,95.2c0-0.2,0-0.3-0.1-0.3l-0.2-0.1l-0.2,0.3l0.3,0.2L154.1,95.2z M154.6,94.1
	c-0.1,0-0.2,0-0.2,0.1l0.1,0.1C154.6,94.2,154.6,94.1,154.6,94.1z M132.1,91.4l-0.3,0l-0.2,0.3c0,0.2,0,0.3,0.1,0.3l0.1,0l0.4-0.3
	C132.2,91.5,132.1,91.4,132.1,91.4z M153.2,95.9L153.2,95.9l-0.1-0.3c-0.2-0.1-0.2,0-0.2,0l0,0.2l0.1,0.1
	C153.2,96,153.2,95.9,153.2,95.9z M133.3,96.3c0.1,0.3,0.2,0.3,0.3,0.2C133.4,96.3,133.3,96.2,133.3,96.3z M133.8,99.6l-0.2,0.1
	l-0.1,0.2c0,0.2,0.1,0.2,0.1,0.2l0.1,0l0.2-0.3C134,99.6,133.9,99.6,133.8,99.6z M150.6,90.4c-0.2,0.1-0.2,0.2-0.2,0.2
	C150.6,90.6,150.6,90.5,150.6,90.4z M150.8,91.6c0.1,0,0.1,0,0.2,0.1c0.1,0,0.2-0.1,0.2-0.1l0-0.3l-0.4-0.6
	c-0.1,0.1-0.2,0.2-0.2,0.2c-0.1,0.2-0.1,0.2-0.1,0.2L150.8,91.6z M122.7,166.4c-0.2,1.9,1.3,3.7,3.2,3.8c1.9,0.2,3.5-1.2,3.8-3
	c1.7,0.9,1.9,2.2,1.9,2.3c0,0.6,0.5,1,1.1,1c0,0,0,0,0.1,0c0.6,0,1.1-0.6,1-1.2c0-0.2-0.3-3.7-5.5-5c-6.2-1.5-8.6,0.1-11.3,2
	l-0.2,0.1c-0.5,0.3-0.6,1-0.3,1.5c0.3,0.5,1,0.6,1.5,0.3l0.2-0.1c1.5-1,2.7-1.8,4.6-2.1C122.7,166.2,122.7,166.3,122.7,166.4z
	 M148.7,87.7l0.4-0.9l-1.1-0.5l-0.4,0.5c-0.2,0.2-0.2,0.5,0.4,1.1L148.7,87.7z M145.1,86.6c-0.1-0.1-0.2-0.1-0.2-0.1l0,0.1
	C145.1,86.6,145.1,86.6,145.1,86.6z M150.9,88.6l0.3-0.2l-0.2-0.3l-0.2,0c-0.1,0.2-0.1,0.3-0.1,0.3L150.9,88.6z M149.8,89.6l0.3,0
	c0,0.1,0.1,0.1,0.1,0.2l-0.1-0.4l-0.2,0C149.7,89.6,149.7,89.6,149.8,89.6z M144.4,90.3l0.1,0.2c0.2,0.1,0.2,0,0.2,0l-0.1-0.2
	c0-0.1,0.1-0.1,0.1-0.2L144.4,90.3z M148.8,99c-0.1,0-0.2,0.1-0.2,0.1l0,0l0.2,0.1c0.1,0,0.2-0.1,0.2-0.1L149,99L148.8,99z
	 M145.1,89.5c0.2,0.2,0.3,0.1,0.3,0C145.2,89.4,145.1,89.4,145.1,89.5z M148.4,101c0.1-0.1,0.1-0.1,0.1-0.1l-0.1,0
	C148.4,100.9,148.4,101,148.4,101z M148.4,99.7l-0.1,0.2c0.1,0.2,0.2,0.2,0.2,0.2l0.2,0l0-0.3L148.4,99.7z M121.5,151.1L121.5,151.1
	c0,0.2,0.1,0.2,0.1,0.2C121.5,151.1,121.5,151.1,121.5,151.1z M125.5,148c0,0.1,0,0.1,0.2,0.2l0.2-0.1l0-0.2l-0.3,0L125.5,148z
	 M125.2,149.1c-0.1,0.1-0.1,0.1-0.1,0.2l0,0.3c0.1,0,0.1,0,0.1,0c0.1,0,0.1-0.1,0.1-0.1l0.1-0.2l-0.1-0.4
	C125.2,149,125.2,149,125.2,149.1z M125.2,150.4l-0.3-0.3c-0.1,0-0.2,0.1-0.1,0.1c0,0.2,0,0.2,0.1,0.3c0.2,0,0.3,0.1,0.3,0.1
	l0.2,0.1l0-0.2L125.2,150.4z M125.3,149.7l-0.2-0.1l-0.4,0.1c0.1,0.1,0.2,0.1,0.2,0.2c0.1,0.1,0.2,0.1,0.2,0.1l0.3-0.1
	c0-0.1,0-0.1,0.1-0.1C125.3,149.8,125.3,149.7,125.3,149.7z M127,147.6L127,147.6c0.1,0,0.1,0,0.1,0C127,147.6,127,147.6,127,147.6z
	 M126.6,149.7L126.6,149.7l-0.3,0.1l-0.3,0.3c0,0.1,0.1,0.2,0.2,0.2c0.3,0,0.3,0,0.4-0.1c0-0.2,0.1-0.3,0.2-0.3l0,0l0.2,0l0-0.3
	l-0.1-0.1C126.8,149.6,126.7,149.6,126.6,149.7z M124.7,145l-0.3-0.1l-0.2,0.1c0,0.2,0.1,0.3,0.2,0.3l0.2,0L124.7,145z M123,147.8
	c-0.1-0.2-0.3-0.3-0.8-0.1l-0.2,0.6l0.5,0.6l0.7-0.6L123,147.8z M122.2,145.2c-0.2,0-0.2,0.1-0.1,0.2
	C122.2,145.4,122.2,145.3,122.2,145.2z M121.8,145.8L121.8,145.8c0.1,0.1,0.1,0.1,0.1,0.1C121.9,145.8,121.9,145.8,121.8,145.8z
	 M124,146.3c0.1-0.1,0.2-0.1,0.2-0.1l-0.1,0C124,146.3,124,146.3,124,146.3z M127.9,146.3l-0.3,0.1l0.1,0.3l0.2,0.1
	c0.2-0.1,0.2-0.2,0.1-0.3L127.9,146.3z M123.3,149l-0.1,0.3c0.2,0.2,0.3,0.2,0.4,0.2l0.3-0.1l-0.1-0.4L123.3,149z M130.6,142.1
	c-0.1,0-0.1,0.1-0.1,0.1l0.1,0C130.6,142.1,130.6,142.1,130.6,142.1z M131.1,143l0.7-0.1l-0.1-0.3c-0.3-0.3-0.2-0.4-0.3-0.3
	l-0.4,0.2L131.1,143z M131.2,139.6l0.1-0.2c-0.2-0.2-0.3-0.2-0.4-0.1l-0.2,0.1l0.1,0.4L131.2,139.6z M129.7,143.6
	c-0.2,0-0.2,0-0.2,0.1l0,0.2l0.2,0.1c0.1,0,0.2,0,0.2-0.1l0,0L129.7,143.6z M133.5,139.4l0.1,0l0-0.2l-0.2,0l-0.1,0.1
	C133.4,139.4,133.5,139.4,133.5,139.4z M121.9,144.8l-0.1-0.3l-0.1,0c-0.1,0.1-0.1,0.1-0.1,0.1l0.2,0
	C121.9,144.6,121.9,144.7,121.9,144.8z M130.2,142.9l-0.2,0l-0.1,0.3l0.3,0.1l0.2-0.1C130.4,143,130.3,142.9,130.2,142.9z
	 M127.9,140.2c0.1,0,0.1,0,0.1,0L127.9,140.2C127.9,140.2,127.9,140.2,127.9,140.2z M128,138.8l0,0.2l0.1,0.1c0,0,0.1,0,0.2-0.1
	l-0.1-0.2L128,138.8z M128.4,149.1l0.1,0.1c0.2,0,0.2,0,0.2,0l-0.1-0.2c0-0.1,0.1-0.1,0.1-0.2L128.4,149.1z M129.6,139.4l0-0.3
	c-0.1,0-0.1,0-0.1,0c-0.1,0-0.1,0.1-0.1,0.1l-0.1,0.2l0.1,0.3c0.1-0.1,0.1-0.1,0.1-0.2C129.6,139.4,129.6,139.4,129.6,139.4z
	 M128.9,148.5c0.1,0.1,0.2,0.1,0.2,0C129,148.4,128.9,148.4,128.9,148.5z M129.2,147.1l-0.4-0.3l-0.5,0.5l0.5,0.6l0.2-0.2
	C129.2,147.2,129.4,147.2,129.2,147.1z M114.5,146.6L114.5,146.6c0,0.2,0,0.2,0,0.2C114.6,146.6,114.5,146.6,114.5,146.6z
	 M114.1,143.7l0,0.1l0.2,0.1l0.1-0.2l-0.1-0.1C114.1,143.6,114.1,143.6,114.1,143.7z M119.3,148.3c-0.1-0.1-0.1-0.2-0.1-0.2l-0.4,0
	c-0.1,0.1-0.1,0.1-0.1,0.1c0,0.1,0,0.1,0,0.1l0.2,0.1l0.6,0C119.3,148.4,119.3,148.4,119.3,148.3z M136.9,203.7
	c0.2,1.4,0.6,3,1.1,4.7c1.2,4.3,2.5,3.9,2.5,3.9s1.3,0.4,2.5-3.9c0.5-1.8,0.8-3.4,1.1-4.7c-1.6,0.2-2.9,0.2-3.5,0.2
	C140,203.9,138.6,203.9,136.9,203.7z M114.7,144.1l-0.2,0.1c0,0.1,0,0.1,0,0.1l0.1,0l0.1-0.1C114.7,144.1,114.7,144.1,114.7,144.1
	L114.7,144.1z M119.5,148.3c0,0.2,0,0.2,0.1,0.2C119.6,148.3,119.6,148.2,119.5,148.3z M119.5,149.8l-0.2,0l-0.1,0.2
	c0,0.2,0,0.2,0.1,0.2l0.1,0l0.3-0.2C119.6,149.9,119.6,149.8,119.5,149.8z M130.8,142.4l-0.1-0.2l-0.2,0.1l0,0.1
	c0,0.1,0,0.1,0.2,0.1L130.8,142.4z M129,146.4c-0.1-0.1-0.1-0.1-0.2-0.1l0,0.1C128.9,146.4,129,146.4,129,146.4z M161.2,195.4
	c0,0,0.1,0,0.1,0.1c0.3,0.2,0.7,0,0.9-0.3c0.2-0.3,0-0.7-0.3-0.9c-0.4-0.2-2.6-2-3.3-3c-0.7-1-0.3-1.6-2.2-1.7
	c-5.7-0.4-5.7-0.7-9.3-1.3c-5.5-0.9-6.4,1.1-6.6,1.6c-0.2-0.6-1.1-2.5-6.6-1.6c-3.6,0.6-3.6,0.9-9.3,1.3c-1.9,0.1-1.5,0.7-2.2,1.7
	c-0.7,1.1-2.9,2.9-3.3,3c-0.3,0.2-0.5,0.5-0.3,0.9c0.2,0.3,0.5,0.5,0.9,0.3c0,0,0.1,0,0.1-0.1c-0.3,0.6-0.6,1.3-0.8,1.9
	c-0.5,1.6-0.5,3.2-0.2,4.6c0.1,0.3,0.4,0.6,0.8,0.5c0.1,0,0.1,0,0.2-0.1c0.1,0.3,0.3,0.6,0.4,0.9c1.5,3.1,2.6,3.8,2.2,0.4
	c-0.3-2.1,0.3-4.2,1.2-6.2c0,0,1.8-5.1,7.7-3.8c5.2,1.2,9.2-0.1,9.2-0.1s4,1.3,9.2,0.1c5.9-1.4,7.7,3.8,7.7,3.8
	c0.9,2,1.5,4.1,1.2,6.2c-0.5,3.4,0.7,2.7,2.2-0.4c0.1-0.3,0.3-0.6,0.4-0.9c0.1,0,0.1,0.1,0.2,0.1c0.3,0.1,0.7-0.1,0.8-0.5
	c0.3-1.4,0.2-3-0.2-4.6C161.8,196.7,161.5,196,161.2,195.4z M113.5,143.3c0,0.1,0,0.1,0,0.1L113.5,143.3
	C113.6,143.3,113.6,143.3,113.5,143.3z M164.2,166.5l-0.2-0.1c-2.7-1.9-5.1-3.5-11.4-2c-5.2,1.2-5.5,4.8-5.5,5c0,0.6,0.4,1.1,1,1.2
	c0,0,0,0,0.1,0c0.6,0,1.1-0.4,1.1-1c0,0,0.1-1.3,1.9-2.3c0.3,1.8,1.9,3.2,3.8,3c1.9-0.2,3.4-1.9,3.2-3.8c0-0.1,0-0.2,0-0.3
	c1.8,0.3,3,1.1,4.6,2.1l0.2,0.1c0.5,0.3,1.2,0.2,1.5-0.3C164.8,167.5,164.7,166.8,164.2,166.5z M110.9,143.2c-0.1,0-0.1,0-0.2,0
	c-0.1,0.1-0.1,0.2-0.1,0.1l-0.1,0.1l0.1,0l0.2,0l0.2-0.1C111,143.3,111,143.2,110.9,143.2z M122.6,140.8c0.1,0,0.2,0,0.2,0l0.1-0.2
	l0-0.6c-0.2,0-0.2,0.1-0.3,0.1c-0.2,0.1-0.2,0.1-0.2,0.1l0,0.5C122.5,140.7,122.5,140.7,122.6,140.8z M126.9,146.6L126.9,146.6
	l0.1-0.3c-0.1-0.2-0.1-0.2-0.2-0.2l-0.1,0.1l0,0.2C126.8,146.6,126.8,146.7,126.9,146.6z M120.4,148.2l-0.1,0.2c-0.1,0-0.1,0-0.2,0
	l0.3,0.1l0.1-0.1C120.4,148.2,120.4,148.2,120.4,148.2z M121.9,141.4l0.4,0c0-0.1,0-0.1,0.1-0.1c0-0.1,0-0.1,0-0.1l-0.2-0.1l-0.5,0
	c0,0.1,0.1,0.2,0.1,0.2C121.8,141.4,121.9,141.4,121.9,141.4z M120.7,141.3c0.1,0.1,0.1,0.1,0.1,0.1l0.1-0.2c0.1,0,0.1,0,0.2,0
	l-0.3-0.1L120.7,141.3z M120.8,149.2l-0.1,0l0,0.3l0.2,0l0.1-0.1C120.9,149.2,120.8,149.2,120.8,149.2z M121.6,141.4
	c0-0.2,0-0.2-0.1-0.2C121.5,141.3,121.5,141.4,121.6,141.4z M155.2,197.1c0,0.6-0.5,1.1-1.1,1.1h-1.2c-1.7,2.4-7.4,3.5-12.4,3.5
	c-5,0-10.6-1.1-12.3-3.5h-1.5c-0.6,0-1.1-0.5-1.1-1.1c0-0.6,0.5-1.1,1.1-1.1h27.3C154.7,196,155.2,196.5,155.2,197.1z M149.1,198.2
	h-17c1.8,0.7,4.7,1.3,8.5,1.3C144.4,199.5,147.3,198.9,149.1,198.2z M125,144.6c0.2,0,0.2,0,0.2-0.1l0-0.2l-0.2-0.1
	c-0.2,0-0.2,0-0.2,0.1l0,0.1L125,144.6z M124.3,142.1c0.1,0,0.1,0,0.2,0c0.1-0.1,0.1-0.1,0.1-0.2l-0.1-0.2l-0.6-0.3
	c-0.1,0.2-0.1,0.2-0.1,0.3c0,0.2,0,0.2,0,0.2L124.3,142.1z M122.7,139.6c-0.2,0-0.2,0.1-0.2,0.1
	C122.7,139.8,122.7,139.7,122.7,139.6z M122.9,145.8c0.3,0.3,0.2,0.4,0.4,0.3l0.4-0.2l-0.2-0.6l-0.7,0.2L122.9,145.8z M165.8,108.7
	l0.3-0.2l0-0.1c0,0,0-0.1-0.2-0.2l-0.3,0l-0.1,0.2C165.5,108.6,165.6,108.6,165.8,108.7z M165.8,115.7l-0.1-0.4l-0.5-0.4l-0.3,0.5
	l0.3,0.3C165.3,115.8,165.4,115.9,165.8,115.7z M168,105.8l0.7-0.1c0,0,0,0,0.1-0.3c0-0.1,0-0.2,0-0.4l-0.9,0.2l-0.2,0.3
	c0,0-0.1,0.1,0,0.2C167.9,105.7,167.9,105.7,168,105.8z M167.9,111.4l0.3-0.4l-0.9-0.6l-0.6,0.7l0.4,0.5
	C167.5,111.8,167.3,111.6,167.9,111.4z M168.7,117.2l0.3,0.1l0.1-0.3l-0.2-0.1c-0.1-0.1-0.2-0.1-0.3,0.1L168.7,117.2z M171.5,101.9
	c0,0.1,0,0.1,0.3-0.1l0-0.2l-0.5-0.2c0.1,0.1,0.2,0.1,0.2,0.2L171.5,101.9z M166.9,115.4l0.9-0.5l0.1-0.8c-0.7-0.5-0.9-0.4-1.1-0.2
	l-0.5,0.5L166.9,115.4z M171.3,116.4c-0.1,0.1-0.1,0.1-0.2,0.2l0.7,0.3l0.3-0.1c0,0,0.1,0,0.1-0.2c-0.1-0.1-0.1-0.1-0.1-0.2
	l-0.5-0.3C171.5,116.3,171.5,116.3,171.3,116.4z M168.5,118.9c-0.1,0.1,0,0.2,0.3,0.4l0.3-0.2l0-0.5l-0.5-0.1L168.5,118.9z
	 M165.9,109.9l0.2,0.1c0.1,0,0.2,0,0.4-0.2l-0.1-0.3l-0.4,0L165.9,109.9z M166.1,111.2c0,0,0,0.1,0.2,0.2c0,0,0-0.1,0-0.2
	L166.1,111.2z M166.9,119c0,0.1,0.1,0.1,0.3,0l0-0.1C167,118.8,167,118.8,166.9,119z M171.4,103.7c0.1-0.1,0-0.2-0.2-0.3
	C171.2,103.5,171.2,103.6,171.4,103.7z M161,114.7c0.1,0,0.1,0.2,0,0.5c0.1,0.2,0.1,0.2,0.4,0.3c0.1,0.1,0.2,0,0.3-0.1l-0.2-0.6
	l-0.3-0.3l0,0c0-0.2-0.1-0.2-0.2-0.2l-0.2,0l-0.1,0.4L161,114.7L161,114.7z M162.3,119.8l0.6,1.1l1,0.1c0.5-0.8,0.5-1.1,0.3-1.3
	l-0.5-0.5L162.3,119.8z M162.4,118.5l0.4-0.6l-0.5-0.4l-0.3,0.3c-0.1,0.1-0.2,0.3,0,0.7L162.4,118.5z M159,113l0.1-0.2l-0.2-0.3
	c0,0.1,0,0.2,0.1,0.2l-0.2,0.2C158.8,112.9,158.8,113,159,113z M161.8,111.6c0,0,0,0-0.2-0.1C161.6,111.6,161.6,111.6,161.8,111.6
	L161.8,111.6z M159.9,121.2l0,0.2c0.1,0,0.1,0.1,0,0.3c0,0.1,0,0.1,0.2,0.3c0,0,0,0,0,0l-0.1,0.1l0.4,0.2l0.1-0.2
	c0.1-0.1,0.1-0.2-0.1-0.4l-0.2,0l0-0.3l-0.2-0.3L159.9,121.2z M162.4,110.4c0,0,0.1,0,0.3-0.1l0.1-0.2l-0.1-0.2c0,0-0.1,0-0.3,0.1
	L162.4,110.4L162.4,110.4z M163.5,112.9l0-0.2l-0.4-0.1l-0.1,0.3l0.2,0.2C163.5,113.1,163.5,113,163.5,112.9z M163,115
	c0.1-0.1,0.1-0.1,0.1,0l0.2-0.3c0,0,0,0-0.1-0.2c0-0.1,0-0.1-0.1-0.3l-0.3,0.5l0,0.3C163,114.9,163,114.9,163,115z M169.1,111
	c-0.1,0-0.1,0.1,0.1,0.3C169.3,111.2,169.3,111.1,169.1,111z M162.7,115.5l0.4,0.2c0,0,0,0,0.3-0.1c0.1,0,0.2,0,0.4-0.1l-0.5-0.3
	l-0.3,0c0,0-0.1,0-0.2,0.1C162.8,115.4,162.8,115.4,162.7,115.5z M163,116.5c0.2-0.1,0.2-0.1,0.3-0.3c0.1-0.1,0-0.2-0.1-0.3
	l-0.5,0.2l-0.3,0.3l-0.1,0.2l0.2-0.1C162.6,116.4,162.7,116.4,163,116.5z M138.1,113.5c0.1-0.2,0-0.2,0-0.2l-0.2,0.1
	c-0.1,0-0.1-0.1-0.2-0.1l0.2,0.3L138.1,113.5z M161.4,110.1l0.2-0.3l-0.4-0.3l-0.2,0.2c-0.1,0.1-0.1,0.2,0,0.4L161.4,110.1z
	 M179.5,113.6c0,0,0.1,0,0.1-0.2l-0.2-0.2l0,0c0,0-0.1,0-0.1,0.2l0.1,0.2L179.5,113.6z M180.3,113.2l0-0.2c0-0.1,0-0.1-0.2-0.2
	L180,113l0,0.3L180.3,113.2z M178.6,99.3c0.1,0,0.2,0,0.2-0.3l-0.2-0.2l-0.3,0.1l0.1,0.4L178.6,99.3z M179.7,95.4l0.2-0.1l0,0
	c0,0,0-0.1-0.1-0.1l-0.2,0l-0.1,0.1C179.5,95.3,179.5,95.3,179.7,95.4z M179.7,95.8l-0.1,0.3l0.1,0.1c0.1,0,0.1,0,0.2-0.1l-0.1-0.2
	L179.7,95.8z M179,100.4c0,0,0-0.1-0.1-0.2l-0.1,0C178.8,100.3,178.8,100.3,179,100.4z M196,82.6c0.2,0.2,0.2,0.2,0.2,0.1l0-0.3
	c0.1,0,0.2-0.1,0.3-0.1l-0.5,0.1L196,82.6z M181.2,112.8c0,0-0.1,0-0.1,0.1l0,0.1C181.2,112.9,181.2,112.9,181.2,112.8z M196.3,57.1
	c0.2,0,0.2,0,0.2,0.1l0.1,0.1l0-0.1l-0.1-0.2l-0.3-0.2c-0.1,0-0.1,0.1-0.1,0.1C196.2,57,196.3,57,196.3,57.1z M197.8,85.2l-0.2,0.1
	l-0.1,0.2c0,0.2,0.1,0.2,0.1,0.2l0.1,0l0.2-0.2C197.9,85.2,197.9,85.1,197.8,85.2z M184.4,30.5l0.1,0.2c-0.1,0.1-0.1,0.1-0.2,0.2
	l0.3-0.2l-0.1-0.2C184.4,30.5,184.4,30.5,184.4,30.5z M186.7,34.3L186.7,34.3l-0.2,0.4c0.1,0.2,0.2,0.3,0.2,0.2l0.2-0.1l0-0.3
	C186.8,34.4,186.7,34.3,186.7,34.3z M172.9,106.7c0,0,0,0,0.2-0.1l0-0.2l-0.4,0c0.1,0.1,0.1,0.1,0.2,0.1L172.9,106.7z M170,118.5
	l0.2,0.4l0.1,0.1c0,0,0.2,0,0.2-0.3l-0.1-0.3l-0.2-0.1C170.2,118.2,170.1,118.3,170,118.5z M170.1,110.4c0,0,0.1,0,0-0.2l-0.2,0
	l-0.2,0.4c0.1,0,0.1-0.1,0.2-0.2L170.1,110.4z M170.8,116.4c0.1,0.1,0.2,0,0.2-0.2C171,116.2,170.9,116.2,170.8,116.4z M169.9,116
	l0-0.3c0,0,0-0.1-0.2,0.1l0,0.2l0.4,0.1C170.1,116,170,116,169.9,116z M171.6,102.6c0.1-0.1,0.1-0.2,0.1-0.3l0.3,0
	c0.1,0,0.1,0-0.1-0.2l-0.2,0L171.6,102.6z M170.8,105c0.1-0.1,0.1-0.1,0.2-0.2l0.3-0.6c0,0,0-0.1-0.2-0.2c-0.1-0.1-0.1-0.1-0.3-0.2
	l-0.4,0.8l0.1,0.3C170.6,104.9,170.7,105,170.8,105z M172,106.1c-0.1-0.1-0.1,0-0.2,0.2C171.9,106.3,172,106.3,172,106.1z
	 M177.5,104.6l-0.3,0.3l-0.1,0.3l0,0.2l0.2-0.1c0-0.1,0.1-0.1,0.3-0.1c0.1-0.1,0.1-0.1,0.2-0.3C177.7,104.7,177.6,104.7,177.5,104.6
	z M177.1,99.5c0.1,0,0.1,0,0.2-0.2c0,0,0-0.1,0-0.2l-0.3,0.1l-0.2,0.1l-0.1,0.1l0.1,0C176.9,99.5,176.9,99.5,177.1,99.5z
	 M176.8,102.3l0.3,0c0.1-0.1,0.2-0.1,0.4,0.1c0.2,0,0.2,0,0.5-0.2c0.1-0.1,0.1-0.2,0-0.3l-0.6,0l-0.4,0.2L176.8,102.3z M178,98.3
	l0.2-0.2l0-0.1c0,0-0.1-0.1-0.2-0.1l-0.2,0.1l-0.1,0.2C177.8,98.3,177.8,98.3,178,98.3z M170.9,106l0.5,0.2c0,0,0,0,0.2-0.1
	c0,0,0.1-0.1,0.2-0.2l-0.6-0.3l-0.3,0.1c0,0-0.1,0-0.1,0.2C170.9,105.8,170.9,105.8,170.9,106z M179.6,96.9L179.6,96.9
	c-0.1,0-0.1,0,0,0.1C179.6,97,179.6,97,179.6,96.9z M140.8,118c0,0.2,0,0.3,0.1,0.3l0.2,0.1l0.2-0.3l-0.3-0.2L140.8,118z
	 M141.5,120.2c-0.2,0.2-0.1,0.3,0,0.3C141.6,120.3,141.6,120.2,141.5,120.2z M142.9,116.5c-0.2-0.2-0.2-0.1-0.2-0.1v0.3
	c-0.1,0-0.2,0.1-0.2,0.1l0.4-0.1L142.9,116.5z M140.6,117.7l0.3,0.1l0.7-0.4c-0.1-0.1-0.2-0.2-0.2-0.2c-0.2-0.1-0.2-0.1-0.2-0.1
	l-0.5,0.3c0,0.1,0,0.1-0.1,0.2C140.5,117.7,140.6,117.7,140.6,117.7z M182.7,96.3c0,0,0-0.1-0.1-0.1l-0.1,0.1
	C182.5,96.3,182.5,96.3,182.7,96.3z M184,97l0-0.3l-0.4-0.2l-0.3,0.4l0.2,0.2C183.6,97.2,183.7,97.2,184,97z M146.4,122.9l-0.2,0
	l0,0.3l0.3,0l0.2-0.2C146.6,122.9,146.5,122.9,146.4,122.9z M146.5,121.9L146.5,121.9c0.2-0.1,0.2-0.1,0.1-0.1
	C146.6,121.9,146.5,121.9,146.5,121.9z M183.7,95.6l0.4-0.1l0.1,0c0,0,0-0.2-0.2-0.3l-0.3-0.1l-0.2,0.2
	C183.4,95.3,183.4,95.4,183.7,95.6z M144.8,117.9l0.3,0.2c0.1,0,0.1-0.1,0.1-0.2c-0.1-0.2-0.1-0.2-0.2-0.3c-0.2,0-0.3,0-0.3-0.1
	l-0.2-0.1l0,0.2L144.8,117.9z M141.7,120.8l0.5,0.3c0.1,0,0.1,0,0.2,0c0.1-0.1,0.1-0.1,0.1-0.2l-0.1-0.3l-0.6-0.4
	c-0.1,0.2-0.1,0.2-0.1,0.3C141.7,120.8,141.7,120.8,141.7,120.8z M144.9,114.2L144.9,114.2l0.3-0.4c-0.1-0.3-0.2-0.3-0.2-0.3
	l-0.2,0.1l0,0.3C144.8,114.2,144.9,114.2,144.9,114.2z M141.8,117.1c-0.1-0.2-0.2-0.2-0.2-0.2C141.7,117.2,141.8,117.2,141.8,117.1z
	 M89.1,101.6c0.2,0.4,0.5,0.8,0.8,1.2l0.8,0l0-1.5l-0.7-0.2C89.7,101,89.4,101.1,89.1,101.6z M96.5,24.7c-0.1-0.2-0.1-0.2-0.1-0.2
	l-0.1,0.2c-0.1,0-0.2,0-0.3,0l0.4,0.1L96.5,24.7z M137.3,114c0.2-0.3,0.2-0.3,0.1-0.4c-0.2-0.2-0.2-0.3-0.2-0.4l-0.1-0.2l-0.1,0.2
	l-0.1,0.4l0.1,0.5C137.1,114.2,137.2,114.1,137.3,114z M146.3,110.2L146.3,110.2l0.2-0.2c0-0.1-0.1-0.2-0.1-0.2l-0.1,0.1l-0.1,0.2
	C146.2,110.2,146.2,110.2,146.3,110.2z M137.2,112.8c0.2-0.1,0.1-0.2,0.1-0.3C137.1,112.7,137.1,112.8,137.2,112.8z M137.9,116.5
	l0.4-0.2c-0.1-0.4-0.2-0.5-0.4-0.5l-0.4-0.1l-0.2,0.5L137.9,116.5z M186,88.7l-0.2-0.3c0,0.1,0,0.1,0.1,0.2l-0.2,0.2
	c0,0,0,0,0.2,0.1L186,88.7z M154,108.2c0,0,0.1,0,0.1-0.2c-0.1-0.1-0.1-0.1-0.1-0.2l-0.5-0.2c0,0,0,0-0.2,0.2
	c-0.1,0.1-0.1,0.1-0.2,0.2l0.7,0.3L154,108.2z M153,107.5c-0.1,0-0.2,0-0.2,0.2C152.9,107.7,153,107.7,153,107.5z M152.4,111.7
	c0.1-0.1,0.1-0.1,0.2,0l0.5-0.3c0,0,0,0,0-0.2c0-0.1,0-0.1-0.1-0.3l-0.6,0.4l-0.1,0.3C152.3,111.5,152.3,111.6,152.4,111.7z
	 M159,110.6l0.2,0.4l0.9-0.5l-0.4-0.8l-0.6,0.2C158.9,109.9,159.1,109.9,159,110.6z M154.1,110.1l0.2,0.1c0,0,0.1,0,0-0.2l-0.2-0.1
	l-0.2,0.3C154,110.2,154.1,110.1,154.1,110.1z M153.4,110.2l-0.2,0.5c0.1,0.1,0.1,0.1,0.2,0.1c0,0,0,0.1,0.1,0.1
	c0.1,0,0.1-0.1,0-0.2c0.3-0.1,0.3-0.2,0.4-0.3c-0.1-0.3,0-0.4,0-0.5l0.1-0.3l-0.2,0.1L153.4,110.2z M153.9,108.5l-0.2-0.1l-0.2,0.2
	l0.2,0.3l0.2-0.1C153.9,108.8,154,108.7,153.9,108.5z M160,109.1l0-0.1c0,0-0.1,0-0.2,0C159.8,109.1,159.8,109.1,160,109.1z
	 M146.3,113.1c0-0.2,0-0.2,0-0.2l-0.1,0.1C146.2,113.1,146.2,113.1,146.3,113.1z M158.8,111.8c0-0.1-0.1-0.1-0.3-0.1
	C158.5,111.8,158.6,111.9,158.8,111.8z M157.4,108.4l-0.2-0.6l-1.2,0l0,1l0.7,0.4C157.4,108.9,157.5,108.6,157.4,108.4z M148,110.5
	c-0.1-0.1-0.1-0.1-0.1-0.1l0,0.1C148,110.5,148,110.5,148,110.5z M148.6,123.5l-0.2,0.1l-0.1,0.1l0.2,0c0,0,0.1-0.1,0.3,0
	c0.1,0,0.1,0,0.2-0.2c0,0,0-0.1,0-0.2L148.6,123.5z M149.1,114.9l0.2-0.1l0-0.2c0,0,0-0.1-0.2-0.1l-0.2,0.2l0,0.1
	C148.9,114.9,148.9,114.9,149.1,114.9z M147.2,110.3l0-0.2l-0.3,0l0,0.2l0.1,0.1C147.2,110.4,147.2,110.4,147.2,110.3z M151.8,119.6
	l0.2-0.1l0,0c0,0,0-0.1-0.1-0.2l-0.2,0l-0.1,0.1C151.6,119.4,151.6,119.5,151.8,119.6z M146,124.1c0.2,0,0.2-0.1,0.2-0.1l0-0.1
	l-0.2-0.2c-0.2,0-0.2,0.1-0.2,0.1l0.1,0.2L146,124.1z M146.4,114.6c0.3-0.2,0.3-0.3,0.3-0.4l-0.1-0.3l-0.5,0.1l0.1,0.5L146.4,114.6z
	 M148.4,112.8c0,0,0,0-0.2-0.1C148.2,112.7,148.2,112.7,148.4,112.8L148.4,112.8z M152,120.4l0-0.2l-0.2-0.1l-0.1,0.3l0.1,0.1
	C151.8,120.5,151.9,120.5,152,120.4z M151.6,121.2L151.6,121.2c-0.1,0-0.1,0,0,0.1C151.6,121.3,151.6,121.3,151.6,121.2z
	 M149.6,108.9l0.3-0.2l0.1-0.3l0-0.2l-0.2,0.1c0,0.1-0.1,0.1-0.3,0.1c-0.1,0.1-0.1,0.1-0.1,0.3C149.4,108.8,149.5,108.8,149.6,108.9
	z M151,109.2c0.2-0.1,0.2-0.1,0.2-0.1c0-0.2,0-0.2,0.1-0.2l0.1-0.1l-0.1,0l-0.2,0.1l-0.2,0.3C150.9,109.2,151,109.2,151,109.2z
	 M169.1,112c0,0,0.1,0.1,0.2,0l0-0.1C169.2,111.9,169.2,111.9,169.1,112z M188.7,48.5c0-0.1-0.1-0.2-0.1-0.2l0.1,0.4l0.2,0
	c0.2-0.2,0.1-0.2,0.1-0.2L188.7,48.5z M189.5,23.2l0.2-0.4c-0.1-0.1-0.1-0.2-0.2-0.1c-0.2,0.1-0.2,0.1-0.3,0.2c0,0.2,0,0.3-0.1,0.3
	l-0.1,0.2l0.2,0L189.5,23.2z M188.9,43.7l0.2,0.4c0.4-0.1,0.5-0.2,0.5-0.4l0.1-0.4l-0.5-0.2L188.9,43.7z M188.3,47.7
	c0.2-0.1,0.2-0.2,0.2-0.2C188.2,47.5,188.2,47.6,188.3,47.7z M189.2,31.7l-0.1,0.7c0.1,0.1,0.1,0.1,0.1,0.3c0.2,0.1,0.2,0.1,0.3,0
	l0.3-0.2l0.1-0.9c-0.2,0-0.3,0-0.4,0.1C189.2,31.7,189.2,31.7,189.2,31.7z M188.6,28.4c-0.2,0.1-0.2,0.2-0.2,0.2
	C188.7,28.5,188.7,28.4,188.6,28.4z M191.4,43.1c0.3,0.2,0.3,0.2,0.4,0.1c0.2-0.2,0.3-0.2,0.4-0.2l0.2-0.1l-0.2-0.1l-0.4-0.1
	l-0.5,0.1C191.3,43,191.3,43,191.4,43.1z M191,42.1c0-0.1,0-0.2,0-0.2l-0.1-0.2l-0.5-0.2c0,0.2,0.1,0.2,0.1,0.3
	c0.1,0.2,0.1,0.2,0.1,0.2l0.3,0.2C190.9,42.1,190.9,42.1,191,42.1z M190.1,39.9l-0.2,0.1l0,0.2c0.1,0.2,0.1,0.2,0.2,0.2l0.1,0
	l0.2-0.3C190.2,39.9,190.2,39.9,190.1,39.9z M191.1,73.9c0,0.1,0,0.2,0,0.3L191.1,73.9C191.1,73.9,191.1,73.9,191.1,73.9z
	 M190.7,66.4l-0.1,0.3l0.4,0.1l0.1-0.2c0-0.1,0-0.2-0.1-0.3L190.7,66.4z M189.9,29.7l0.3,0.1l0.8-0.4c-0.1-0.2-0.2-0.2-0.3-0.3
	c-0.2-0.2-0.2-0.2-0.2-0.2l-0.6,0.3c0,0.1,0,0.1-0.1,0.2C189.8,29.6,189.9,29.7,189.9,29.7z M191.2,52.5l0.3-0.1l-0.1-0.5l-0.5,0.1
	l-0.2,0.3C191,52.5,191.1,52.6,191.2,52.5z M189,29.6c0.1,0,0.2-0.1,0.2-0.1l0.1-0.3l-0.3-0.6c-0.1,0.1-0.2,0.2-0.2,0.2
	c-0.1,0.1-0.1,0.2-0.1,0.2l0.3,0.5C188.9,29.5,188.9,29.5,189,29.6z M188.8,89.7l0-0.6l-0.6,0l-0.1,0.4c0,0.2,0,0.3,0.4,0.5
	L188.8,89.7z M187.5,87.5l0.4,0c0,0,0,0,0.2-0.2c0-0.1,0.1-0.1,0.2-0.2l-0.5,0.1l-0.2,0.2C187.5,87.3,187.5,87.3,187.5,87.5
	C187.5,87.4,187.5,87.4,187.5,87.5z M188.1,46.5c-0.1,0-0.1,0-0.2-0.1c-0.1,0-0.2,0.1-0.2,0.1l-0.1,0.3l0.4,0.7
	c0.1-0.1,0.2-0.2,0.2-0.2c0.1-0.2,0.1-0.2,0.1-0.2L188.1,46.5z M188.9,86.2c0,0,0.1,0,0.2-0.1l0.1-0.2l-0.1-0.2c0,0-0.1,0-0.3,0.1
	L188.9,86.2L188.9,86.2z M189.1,93.4l0.4-0.1l0-0.2c0-0.1,0-0.2-0.3-0.2l-0.2,0.2L189.1,93.4z M188,93.6c0.1,0,0.1-0.1-0.1-0.3
	C187.8,93.4,187.8,93.5,188,93.6z M188.9,92.5c-0.1,0.1-0.1,0.1-0.2,0l-0.5,0.4c0,0,0,0,0.1,0.2c0,0.1,0,0.1,0.1,0.3l0.6-0.5l0-0.3
	C189,92.7,189,92.6,188.9,92.5z M188.3,27.8l-0.1-0.4l-0.2,0c-0.1,0.2-0.1,0.2-0.1,0.2l0.2,0C188.2,27.6,188.3,27.7,188.3,27.8z
	 M187.5,50.6l-0.2,0.3c0,0.1,0.1,0.2,0.2,0.1c0.2-0.1,0.2-0.1,0.3-0.2c0-0.2,0-0.3,0.1-0.3l0.1-0.2l-0.2,0L187.5,50.6z M191.2,94.4
	c0-0.1-0.1-0.2-0.3-0.1C190.9,94.4,191,94.5,191.2,94.4z M191,74.2c0,0,0,0.1,0,0.1l0.2,0.1C191.2,74.3,191.1,74.3,191,74.2z
	 M187.9,86l0.2-0.3l-0.4-0.2l-0.2,0.2c-0.1,0.1-0.1,0.2,0.1,0.4L187.9,86z M196.8,82.9l0,0.1c0,0,0.1,0,0.2-0.1
	C197,82.9,196.9,82.9,196.8,82.9z M187,88.6c0.3,0.1,0.3,0,0.4,0c0.1-0.3,0.2-0.3,0.3-0.3l0.2-0.2l-0.2,0l-0.4,0l-0.4,0.3
	C186.9,88.5,186.9,88.6,187,88.6z M190.6,99.8c0,0,0.1,0,0.2,0v-0.1C190.8,99.7,190.8,99.7,190.6,99.8z M192.8,43
	c-0.1-0.2-0.2-0.1-0.3-0.1C192.7,43.1,192.8,43.1,192.8,43z M187.2,94.3l-0.2-0.1c0,0-0.1,0,0,0.2l0.2,0l0.2-0.3
	C187.3,94.1,187.3,94.2,187.2,94.3z M194,90.1c0.1,0,0.2,0,0.2-0.2C194.1,89.8,194.1,89.9,194,90.1z M187.4,96.4l-0.1-0.1l0,0.2
	c0.1,0,0.1,0.1,0,0.3c0,0.1,0,0.1,0.2,0.3c0.1,0.1,0.1,0,0.2-0.1l-0.1-0.4L187.4,96.4z M190.7,93.1l-0.1,0.1l0.2,0.3
	c0-0.1,0-0.2-0.1-0.2l0.2-0.2C191,93.2,191,93.2,190.7,93.1z M140.4,119.8l0.2-0.1c0.1,0,0.1,0.1,0.2,0.1l-0.3-0.3l-0.2,0.1
	C140.4,119.8,140.4,119.8,140.4,119.8z M197.2,86L197,86l-0.3,0.3l0.3,0.2l0.3-0.1C197.3,86.1,197.3,86.1,197.2,86z M197.7,81.4
	l-0.2-0.4l-0.9,0.5l0.4,0.8l0.6-0.2C197.9,82,197.6,82,197.7,81.4z M191,90.7c0-0.8-0.2-1-0.5-1l-0.6-0.1l-0.5,1.1l0.9,0.4L191,90.7
	z M194.2,95.8c0.1,0,0.2,0,0.2-0.1l-0.1-0.1C194.2,95.7,194.2,95.7,194.2,95.8z M194.1,85.6c-0.1,0-0.1,0.1,0,0.3l0.4,0.1h0.1
	c0,0,0.1-0.1,0-0.3l-0.2-0.2L194.1,85.6z M191.8,43.7l0.1,0.2c0.2,0.1,0.2,0,0.2,0l-0.1-0.2c0-0.1,0.1-0.1,0.1-0.2L191.8,43.7z
	 M196,77l-0.3,0l-0.2,0.3c0,0.3,0,0.3,0.1,0.3l0.1,0l0.4-0.3C196.2,77.1,196.1,77,196,77z M192.1,66.8L192.1,66.8
	c0,0.1,0.1,0.1,0.2,0C192.3,66.7,192.2,66.7,192.1,66.8z M192.3,75.3c-0.1,0-0.2,0.1-0.3,0.2l0.6,0.7l0.3,0.1c0,0,0.1,0,0.2-0.1
	c-0.1-0.1-0.1-0.1,0-0.3l-0.4-0.5C192.6,75.3,192.5,75.3,192.3,75.3z M191.8,75.1c0,0.1,0.2,0.1,0.3-0.1
	C192.1,74.9,192,74.9,191.8,75.1z M192.3,52.1c0.2,0,0.2,0,0.2,0l-0.1-0.1C192.3,52,192.3,52.1,192.3,52.1z M192.6,28.3
	c-0.2-0.2-0.2-0.2-0.2-0.1l0,0.3c-0.1,0-0.2,0.1-0.3,0.1l0.5-0.1L192.6,28.3z M191.3,29c-0.1-0.3-0.2-0.3-0.3-0.2
	C191.1,29,191.3,29.1,191.3,29z M191.1,40.6l0.3,0.1c0.2-0.2,0.2-0.3,0.2-0.4l-0.1-0.2l-0.4,0.1L191.1,40.6z M192.3,40.4
	c-0.1,0-0.1,0.1,0,0.3l0.2,0l0.2-0.2l-0.3-0.2L192.3,40.4z M192.8,40.3c-0.1-0.1-0.2-0.1-0.2-0.1l0,0.1
	C192.8,40.4,192.8,40.4,192.8,40.3z M192.9,41.9c0.2-0.6,0.4-0.5,0.2-0.6l-0.5-0.4l-0.6,0.5l0.6,0.7L192.9,41.9z M199.2,71.4
	L199.2,71.4c0.1,0.2,0.1,0.2,0.1,0.1C199.3,71.4,199.3,71.4,199.2,71.4z M196.2,55.6l0-0.2l-0.2-0.2c-0.2-0.1-0.2,0-0.3,0l0,0.1
	l0.1,0.3C196.1,55.7,196.1,55.7,196.2,55.6z M198.9,65.2c0-0.2-0.1-0.3-0.1-0.2C198.7,65.2,198.8,65.3,198.9,65.2z M198.7,80.6
	c0,0,0.1,0,0.1-0.2l-0.1,0C198.6,80.4,198.6,80.4,198.7,80.6z M196.2,75.1c0-0.2-0.1-0.3-0.1-0.3C196,75,196.1,75.1,196.2,75.1z
	 M195.5,69.9l0.1,0.4l0.2,0.2l0.2,0.1l0-0.2c-0.1,0-0.1-0.1,0-0.3c0-0.1,0-0.1-0.2-0.3C195.6,69.7,195.6,69.8,195.5,69.9z
	 M199.2,69.7c0,0.1,0.1,0.2,0.1,0.2l-0.1-0.4l-0.2,0c-0.2,0.2-0.1,0.2-0.1,0.2L199.2,69.7z M191.2,94.7c-0.1,0-0.1,0-0.3,0l0.2,0.7
	l0.2,0.2c0,0,0.1,0,0.2,0c0-0.1,0-0.1,0.1-0.2l-0.1-0.6C191.4,94.8,191.4,94.8,191.2,94.7z M197.4,74.9c-0.1-0.2-0.1-0.2-0.1-0.2
	l-0.1,0.2c-0.1,0-0.2,0-0.3,0l0.4,0.1L197.4,74.9z M197.4,78.3l0-0.3l-0.5-0.1l-0.1,0.5l0.2,0.3C197.3,78.5,197.4,78.4,197.4,78.3z
	 M197.9,76.6l0.1-0.2c-0.1-0.2-0.2-0.2-0.3-0.2l-0.2,0.1l0,0.4L197.9,76.6z M198.9,78.9c-0.1-0.2-0.1-0.2-0.1-0.2l-0.1,0.1
	C198.8,78.9,198.9,79,198.9,78.9z M197.7,65.3l0.1-0.2c0.1,0,0.2,0,0.2,0l-0.4-0.1l-0.1,0.2C197.7,65.3,197.7,65.3,197.7,65.3z
	 M195.1,75.3l0.8-0.1c-0.1-0.2-0.1-0.2-0.1-0.3c-0.1-0.2-0.1-0.2-0.1-0.2l-0.2,0l-0.1,0l0,0l-0.2,0c-0.1,0.1-0.1,0.1-0.2,0.1
	c0,0.1,0,0.2,0,0.2L195.1,75.3z M194.9,90c0.1,0,0.2,0,0.2,0.1l0.1,0.2c0,0,0,0.1,0.2-0.2l-0.1-0.2L194.9,90z M195,21.6l0.4,0l0-0.3
	l-0.2-0.2c-0.2,0.1-0.3,0.2-0.3,0.3L195,21.6z M195.4,37.5c0-0.1,0-0.2,0-0.3l-0.3,0.2C195.2,37.5,195.3,37.5,195.4,37.5
	C195.4,37.5,195.4,37.5,195.4,37.5z M195.3,87.2L195.3,87.2c0-0.1-0.1-0.1-0.2,0C195.2,87.2,195.2,87.2,195.3,87.2z M195.3,82
	l-0.2,0.4l0.4,0.2l0.2-0.2c0.1-0.1,0.1-0.2-0.1-0.4L195.3,82z M194.7,94.6c0,0.2,0.1,0.3,0.1,0.3l0.2,0l0.2-0.3l-0.3-0.1L194.7,94.6
	z M195.1,53l0.1,0l0-0.3l-0.2,0l-0.1,0.1C195,53,195,53,195.1,53z M194.9,53.9c0.1-0.1,0.1-0.1,0.1-0.1l-0.1,0
	C194.9,53.8,194.9,53.8,194.9,53.9z M195,56.3l0.2,0.1l0.2-0.3l-0.3-0.2l-0.2,0.1C194.9,56.2,194.9,56.3,195,56.3z M195.4,52.3
	c0.1,0,0.2-0.1,0.2-0.1l-0.1-0.1l-0.1-0.1c-0.1,0-0.2,0.1-0.2,0.1l0,0L195.4,52.3z M197.6,79.4c0-0.1,0-0.2-0.1-0.2l0.2-0.2
	c0,0,0-0.1-0.2-0.1l-0.1,0.2L197.6,79.4z M193.9,61.8c0,0.3,0,0.3,0,0.4c0.2,0.1,0.3,0.2,0.3,0.2l0.1,0.2l0-0.2l0-0.3l-0.2-0.4
	C194,61.7,193.9,61.7,193.9,61.8z M194.3,82.2l0-0.4l0-0.1c0,0-0.1,0-0.3,0.1l-0.1,0.3l0.1,0.2C194.1,82.4,194.2,82.4,194.3,82.2z
	 M193.7,36L193.7,36c-0.1-0.2-0.1-0.2-0.1-0.2C193.6,36,193.6,36,193.7,36z M197.6,80.9l0.5-0.2c0.5-0.6,0.7-0.3,0.5-0.6l-0.3-0.7
	l-1,0.3L197.6,80.9z M194.5,57.2L194.5,57.2c-0.2,0-0.2,0-0.2,0.1C194.4,57.2,194.5,57.2,194.5,57.2z M194,21.2L194,21.2
	c-0.1-0.2-0.1-0.2-0.1-0.2C193.9,21.2,193.9,21.2,194,21.2z M193.6,87.1l0.1-0.3l-0.2-0.3l-0.4,0.2l0.1,0.2
	C193.3,87,193.3,87.1,193.6,87.1z M191.7,100c0,0.1,0,0.2,0.1,0.3l0.2-0.1l0.1-0.3l-0.3-0.1L191.7,100z M191.9,50.8l-0.1-0.2l-0.3,0
	c-0.2,0.1-0.3,0.2-0.3,0.2l0.1,0.1l0.4,0.2C191.9,51,191.9,50.9,191.9,50.8z M192.1,87.8c0,0,0.1,0,0.2-0.2l-0.1-0.1
	C192.2,87.6,192.2,87.6,192.1,87.8z M192.8,78.4c0,0,0-0.1-0.2-0.2c-0.1-0.1-0.1-0.1-0.3-0.2l-0.2,0.9l0.2,0.3
	c0,0.1,0.1,0.1,0.2,0.1c0.1-0.1,0.1-0.1,0.2-0.2L192.8,78.4z M192.7,88.2l-0.1,0.6c-0.1,0.3,0,0,0.6,0.4l0.5,0l0-1L192.7,88.2z
	 M194.4,76.1c0,0,0,0-0.1-0.2c0-0.1,0-0.1-0.1-0.3l-0.5,0.5l0,0.3c0,0,0,0.1,0.1,0.2c0.1-0.1,0.1-0.1,0.2,0L194.4,76.1z M200.7,61.3
	l0.1-0.3c0.1,0,0.2,0,0.3-0.1l-0.5,0l-0.1,0.2C200.7,61.4,200.7,61.4,200.7,61.3z M200.2,64.4c0.2,0,0.2,0,0.2,0l0.2-0.3l-0.1-0.9
	c-0.2,0.1-0.3,0.1-0.4,0.1c-0.2,0.1-0.2,0.1-0.2,0.2l0.1,0.7C200.2,64.3,200.2,64.3,200.2,64.4z M202.2,60.9c0-0.3-0.1-0.3-0.2-0.3
	C202,61,202.1,61,202.2,60.9z M199.5,70.8c0.2-0.1,0.2-0.2,0.2-0.2C199.5,70.7,199.5,70.8,199.5,70.8z M199.3,65.3l0.5,0
	c0.1-0.1,0.1-0.1,0.2-0.1c0-0.1,0-0.2,0-0.2l-0.2-0.2l-0.7,0c0.1,0.2,0.1,0.2,0.1,0.3C199.2,65.3,199.3,65.3,199.3,65.3z
	 M194.9,59.6c0.3-0.1,0.4,0,0.5,0l0.3,0.1l-0.1-0.2l-0.3-0.3l-0.5-0.2c-0.2,0.1-0.2,0.2-0.1,0.3C194.7,59.6,194.7,59.6,194.9,59.6z
	 M194.5,75.5c-0.1,0-0.1,0.1,0.1,0.3C194.7,75.7,194.7,75.6,194.5,75.5z M200.4,61.7c0,0.1,0,0.2,0,0.3l0.1-0.5l-0.2-0.1
	c-0.3,0.1-0.3,0.1-0.2,0.2L200.4,61.7z M200.1,63c0.3,0,0.3-0.1,0.3-0.2C200.2,62.8,200.1,62.9,200.1,63z M196.1,22.1l0.2-0.1
	l0.1-0.2c0-0.2-0.1-0.2-0.1-0.2l-0.1,0l-0.2,0.2C196,22.1,196.1,22.1,196.1,22.1z M148.5,114.1l0.3-0.1l0-0.3l-0.2,0
	c-0.1,0-0.2,0-0.2,0.2L148.5,114.1z M89.8,29.8L89.8,29.8c-0.1,0.2-0.1,0.2,0,0.2C89.8,29.8,89.8,29.8,89.8,29.8z M87.9,35.9
	l0.7,0.7l0.9-0.9l-0.3-0.6c-0.1-0.2-0.4-0.3-1.1,0L87.9,35.9z M89.7,54l-0.3,0c-0.2,0.1-0.3,0.2-0.2,0.3l0.1,0.1l0.4,0.2
	c0.3-0.1,0.3-0.2,0.2-0.3L89.7,54z M87.7,26.6c0.1,0,0.2-0.1,0.2-0.1l0.2-0.2l0.1-0.6c-0.2,0.1-0.2,0.1-0.3,0.2
	C87.8,26,87.7,26,87.7,26l-0.1,0.4C87.7,26.5,87.7,26.5,87.7,26.6z M89.3,62.9l0.1,0.2c0,0.1,0.1,0.1,0.3,0.1l0.1-0.2l-0.2-0.2
	L89.3,62.9z M89.2,55.5l-0.1,0.4c0.3,0.3,0.4,0.3,0.5,0.2l0.3-0.2l-0.2-0.5L89.2,55.5z M88,64c0.1,0.1,0.1,0.1,0.2,0.1l0-0.1
	C88.1,64,88,64,88,64z M88.6,68.6c0.1,0,0.2,0,0.2,0c-0.2-0.1-0.2-0.1-0.2-0.1L88.6,68.6z M88.4,57.3l0.2,0.2c0,0.1-0.1,0.2-0.1,0.2
	l0.2-0.3l-0.1-0.2C88.3,57.3,88.3,57.3,88.4,57.3z M88,84.8l0.2,0c0.1-0.1,0.1-0.1,0.1-0.2l0,0L88,84.5c-0.1,0.1-0.1,0.1-0.1,0.2
	L88,84.8z M88.2,83.9l0-0.2c-0.1-0.1-0.2-0.1-0.3-0.1l-0.1,0.1L88,84L88.2,83.9z M88.4,69.1l0.2,0l0.1-0.3l-0.3-0.1l-0.1,0.1
	C88.3,68.8,88.3,68.9,88.4,69.1z M91.3,30c-0.2,0-0.3,0.1-0.3,0.1l0,0.1l0.3,0.3c0.2,0,0.3-0.1,0.3-0.1l-0.1-0.2L91.3,30z M93,26.9
	L93,26.9c0.1-0.2,0-0.3,0-0.2C92.9,26.9,93,26.9,93,26.9z M93,35.2c-0.1,0.2-0.1,0.3,0,0.3l0.1,0l0.3-0.1c0.1-0.2,0.1-0.3,0-0.3
	l-0.2,0L93,35.2z M90.9,24.6l0.7,0c0.3,0,0.5-0.2,0.6-1l-0.6-0.5l-1,0.3L90.9,24.6z M92.2,36.7l0.1,0.4c0.1,0,0.1,0,0.1,0.1
	c0.1-0.1,0.1-0.1,0.1-0.2l0.1-0.3l-0.1-0.5c-0.1,0.1-0.1,0.2-0.2,0.3C92.2,36.7,92.2,36.7,92.2,36.7z M90.8,19.1l0.1-0.3l-0.2-0.2
	c-0.2-0.1-0.3-0.1-0.4,0l0,0.1l0.1,0.4C90.7,19.2,90.8,19.1,90.8,19.1z M90.4,21l0.1,0.2c0.2,0,0.3-0.1,0.3-0.2l0-0.2l-0.3-0.1
	L90.4,21z M88.3,58.4c-0.2-0.1-0.3,0-0.3,0.1C88.2,58.6,88.3,58.5,88.3,58.4z M92.9,39c0,0.2,0.1,0.2,0.1,0.2
	C93,39,92.9,38.9,92.9,39z M90.4,31.3c0.1,0.3,0.2,0.3,0.3,0.3l0.3,0l0.1-0.5l-0.4-0.1L90.4,31.3z M92.5,38.3l-0.4-0.3
	C92,38,91.9,38.1,92,38.2c0.1,0.3,0.1,0.3,0.2,0.4c0.3,0,0.4,0.1,0.4,0.2l0.2,0.1l0-0.2L92.5,38.3z M92.5,19.9c0.2,0.1,0.3,0,0.3,0
	C92.6,19.8,92.5,19.8,92.5,19.9z M91.7,39.1c0.1,0.2,0.1,0.2,0.1,0.2l0.1-0.2c0.1,0,0.2,0,0.2,0l-0.4-0.1L91.7,39.1z M94.6,29.2
	l0.2,0.1l0.2-0.2c0.1-0.2,0.1-0.3,0-0.3l-0.1,0l-0.4,0.1C94.6,29,94.6,29.1,94.6,29.2z M88.9,72.1l0.1,0.2c0.2,0,0.2,0,0.2-0.1
	L89.1,72c0-0.1,0.1-0.1,0.1-0.2L88.9,72.1z M94,27.7l-0.1,0.2l0.4,0.3l0.2-0.3l-0.1-0.3C94.1,27.5,94,27.6,94,27.7z M93.6,26.4
	l0.9,0.1l0.2-1l-0.5,0c-0.6,0.3-0.7,0-0.6,0.3L93.6,26.4z M88.7,71.6c0.1-0.3,0.2-0.3,0.3-0.3l0.2-0.2L89,71.1l-0.4,0l-0.5,0.2
	c0,0.2,0,0.2,0.1,0.2C88.6,71.7,88.6,71.7,88.7,71.6z M87.9,59.7l0.2-0.2l0.2-0.7c-0.2,0-0.2,0-0.3,0c-0.2,0-0.2,0.1-0.2,0.1
	l-0.1,0.6c0.1,0.1,0.1,0.1,0.1,0.2C87.9,59.7,87.9,59.7,87.9,59.7z M87.7,82.9L87.7,82.9c0.1-0.1,0.1-0.1,0.1-0.2
	C87.7,82.9,87.7,82.9,87.7,82.9z M90.5,32.8l-0.1,0c-0.1,0.1-0.1,0.2-0.1,0.2C90.5,32.9,90.5,32.9,90.5,32.8z M94.7,24.1L94.7,24.1
	c-0.2,0-0.2,0-0.2,0.1C94.7,24.2,94.7,24.2,94.7,24.1z M88.2,21l-0.1-0.1c-0.2,0.1-0.2,0.1-0.2,0.2C88.1,21,88.1,21,88.2,21z
	 M92.8,19.5c0.2,0,0.2,0,0.2,0l0.2-0.6c-0.1-0.1-0.1-0.1-0.1-0.2c-0.1-0.1-0.2-0.1-0.2,0l-0.2,0.2l-0.2,0.7
	C92.7,19.5,92.7,19.5,92.8,19.5z M92.4,21.1l-0.2-0.2c0-0.1,0.1-0.2,0.1-0.2L92,20.9l0.1,0.2C92.4,21.1,92.4,21.1,92.4,21.1z
	 M95.3,24.9c0-0.2-0.1-0.3-0.1-0.3C95.1,24.8,95.2,24.9,95.3,24.9z M86.6,43.3c-0.2-0.1-0.3-0.1-0.3-0.1l0,0.1l0.1,0.4
	c0.2,0.1,0.3,0.1,0.3,0.1l0.1-0.3L86.6,43.3z M87.1,70.8l0.4,0.1c0-0.1,0-0.1,0.1-0.1c0-0.1-0.1-0.2-0.1-0.2l-0.2-0.2l-0.5-0.1
	c0.1,0.2,0.1,0.2,0.2,0.3C87.1,70.8,87.1,70.8,87.1,70.8z M86.8,31l0.3,0c0,0.1,0.1,0.1,0.1,0.2l-0.1-0.4l-0.2,0
	C86.8,31,86.8,31,86.8,31z M86.8,38.6c0.2,0,0.2,0,0.2,0l0.2-0.6c-0.1-0.1-0.1-0.1-0.1-0.2c-0.1-0.1-0.2-0.1-0.2,0l-0.2,0.2
	l-0.2,0.7C86.7,38.7,86.7,38.7,86.8,38.6z M88.2,47.5l0.1-0.1l-0.1-0.1c-0.1-0.1-0.2-0.1-0.2-0.1l0,0l0,0.2
	C88.1,47.5,88.2,47.5,88.2,47.5z M86.8,39c-0.2-0.1-0.3-0.1-0.3,0C86.7,39.1,86.8,39.1,86.8,39z M86.5,48.1c0.1,0,0.1,0,0.2,0l0-0.1
	C86.5,48.1,86.5,48.1,86.5,48.1z M87.5,69l-0.2-0.2L87,69l0.2,0.3l0.3,0C87.6,69.1,87.6,69,87.5,69z M87.6,31.8
	c-0.2,0.1-0.2,0.2-0.1,0.2C87.7,32,87.7,31.9,87.6,31.8z M87.2,47.7l0.1,0.1l0.2-0.2l-0.2-0.2l-0.2,0C87.2,47.6,87.2,47.6,87.2,47.7
	z M86.2,69.5L86.2,69.5l0.1-0.4c-0.1-0.2-0.2-0.2-0.2-0.1l-0.1,0.2l0.1,0.2C86.1,69.5,86.2,69.5,86.2,69.5z M86.3,58.3
	c0.2-0.2,0.1-0.3,0-0.3C86.2,58.1,86.2,58.2,86.3,58.3z M87,28.2L87,28.2l-0.2,0.3l0.3,0.2l0.1-0.1c0.1,0,0.1-0.1,0-0.3l0,0l0-0.5
	L87,27.2c-0.2,0-0.3,0-0.3,0.1c-0.1,0.3-0.1,0.3,0,0.5C86.9,28,87,28.1,87,28.2z M87.1,26.1l0.5-0.2c0-0.2,0-0.2-0.1-0.3
	c-0.3-0.1-0.3-0.1-0.5,0c-0.1,0.3-0.2,0.3-0.3,0.3L86.5,26l0.2,0.1L87.1,26.1z M88.5,32.1l0.2,0.4c0.5,0.4,0.3,0.5,0.6,0.4l0.5-0.3
	l-0.3-0.8L88.5,32.1z M86.2,75.9c-0.1,0-0.1,0-0.2,0c-0.1,0.1-0.1,0.1-0.1,0.2l0,0.3l0.6,0.5c0.1-0.2,0.1-0.2,0.1-0.3
	c0.1-0.2,0.1-0.2,0.1-0.2L86.2,75.9z M85.6,76.2c-0.2,0-0.3,0.1-0.3,0.2l0,0.2l0.3,0.1l0.1-0.3L85.6,76.2z M85.8,87.1
	c0,0.2,0,0.2,0,0.2c0.1-0.2,0.1-0.2,0.1-0.2L85.8,87.1z M86.8,72.8l-0.1-0.4l-0.6,0L86.1,73l0.3,0.3C86.7,73.1,86.8,73,86.8,72.8z
	 M88.2,95L88,94.9L87.7,95c-0.2,0.2-0.2,0.3-0.2,0.3l0.1,0l0.5,0C88.3,95.2,88.3,95,88.2,95z M86.9,76.6c-0.2,0.1-0.2,0.2-0.1,0.3
	C87,76.8,86.9,76.7,86.9,76.6z M87.7,77.8c0.1-0.2,0.1-0.2,0-0.2l-0.2,0.1c-0.1-0.1-0.1-0.1-0.2-0.2l0.2,0.4L87.7,77.8z M82.4,71.9
	l-0.1-0.6l-0.9,0l-0.1,1h0.5C82.3,71.9,82.4,72.2,82.4,71.9z M83.7,82.9L83.7,82.9c0.1,0.1,0.1,0.1,0.2,0.1
	C83.8,82.9,83.7,82.9,83.7,82.9z M81.3,65c-0.1-0.2-0.2-0.2-0.3-0.2l0,0.1l-0.1,0.4c0.1,0.2,0.2,0.2,0.3,0.2l0.1-0.2L81.3,65z
	 M82.7,82.9L82.4,83l0.1,0.3l0.2,0.1c0.2-0.1,0.2-0.2,0.1-0.3L82.7,82.9z M82.8,70.7L82.8,70.7c0,0.2,0,0.3,0.1,0.2
	C82.9,70.8,82.9,70.8,82.8,70.7z M83.2,62.3l0.2-0.3l-0.2-0.9c-0.2,0.1-0.3,0.1-0.3,0.2c-0.2,0.1-0.2,0.2-0.2,0.2l0.2,0.7
	c0.1,0.1,0.1,0.1,0.2,0.2C83.1,62.4,83.2,62.4,83.2,62.3z M87.9,96.5v0.4c0.3,0.2,0.4,0.1,0.5,0l0.2-0.2l-0.3-0.4L87.9,96.5z
	 M81.6,82.8L81.6,82.8c0,0.2,0,0.3,0,0.5l0,0l0.1-0.3C81.7,82.8,81.7,82.8,81.6,82.8z M99,94.5l0.1-0.2l-0.1-0.3
	c-0.1-0.2-0.2-0.2-0.3-0.1l0,0.1l0,0.4C98.9,94.6,99,94.6,99,94.5z M81,58.5c-0.2,0.1-0.1,0.2-0.1,0.3C81.1,58.6,81.1,58.6,81,58.5z
	 M99.2,97.8l-0.2,0L98.8,98c-0.1,0.2,0,0.3,0,0.3l0.1,0l0.3-0.2C99.3,97.9,99.3,97.8,99.2,97.8z M89.3,69.3l-0.6-0.2l-0.4,0.7
	l0.8,0.5l0.2-0.4C89.3,69.4,89.5,69.4,89.3,69.3z M137.2,118.1c-0.1,0.3,0.1,0.5,0.8,0.8l0.6-0.5l-0.1-1l-1.2,0.1L137.2,118.1z
	 M89.9,95.9l0.2-0.1c0.1-0.2,0-0.3-0.1-0.3l-0.2-0.1l-0.2,0.3L89.9,95.9z M85.9,36.3c-0.1-0.2-0.1-0.2-0.2-0.2l-0.1,0.2
	c-0.1,0-0.2,0-0.2,0l0.4,0.1L85.9,36.3z M81.5,59.5c0.1,0,0.1,0,0.2,0c0.1-0.1,0.1-0.1,0.1-0.1l0-0.3l-0.5-0.5
	c-0.1,0.1-0.1,0.2-0.1,0.3c-0.1,0.2-0.1,0.2-0.1,0.2L81.5,59.5z M86.2,45.1L86.2,45.1C86.1,44.9,86,44.9,86,45
	C86.1,45.1,86.1,45.1,86.2,45.1z M85.9,24.8l-0.7-0.1L84.8,25c0.2,0.4,0.4,0.5,0.6,0.5l0.5,0L85.9,24.8z M86.4,40.2L86.2,40
	c0-0.1,0.1-0.2,0.1-0.2L86,40.1l0.1,0.2C86.4,40.2,86.4,40.2,86.4,40.2z M85.3,51.7l0.1-0.1l0.1-0.2l-0.1-0.3c-0.1,0-0.1,0-0.2,0
	c-0.1,0.2-0.1,0.2-0.1,0.3c0.1,0.1,0.1,0.2,0.1,0.2L85.3,51.7z M84.9,50l0.4-0.1l-0.1-0.3L85,49.5c-0.2,0.2-0.2,0.3-0.2,0.3L84.9,50
	z M86.1,49.7L86.1,49.7L85.9,50c0.1,0.2,0.1,0.2,0.2,0.2l0.2-0.1l0-0.2C86.2,49.7,86.1,49.7,86.1,49.7z M89.1,19.8l0.3,0.1l0.3-0.4
	l-0.4-0.3l-0.3,0.1C88.9,19.7,89,19.8,89.1,19.8z M86.6,37.8l0.1-0.2c-0.1-0.2-0.2-0.2-0.3-0.2l-0.2,0.1l0.1,0.4L86.6,37.8z
	 M89.7,28l0.3,0.2l0.2-0.4L90,27.6c-0.1-0.1-0.2-0.1-0.4,0.1L89.7,28z M89.1,24.5l0,0.4l0.6,0.1l0.1-0.6L89.6,24
	C89.2,24.2,89.1,24.4,89.1,24.5z M88.2,26.5c0,0.1,0,0.2,0.1,0.2l0.2,0.2L89,27c-0.1-0.2-0.1-0.2-0.2-0.3c-0.1-0.2-0.1-0.2-0.1-0.2
	L88.2,26.5C88.2,26.5,88.2,26.5,88.2,26.5z M86.8,20.3l0.8,0l0.1-1.1L86.5,19l0,0.6C86.8,20.3,86.5,20.4,86.8,20.3z M85,57.5
	l0.3-0.2c0.1,0,0.2,0.1,0.3,0.1l-0.3-0.4L85,57.2C85,57.5,85,57.5,85,57.5z M85,44.5l0.3,0.1l0.3-0.4l-0.3-0.3L84.9,44
	C84.8,44.3,84.9,44.5,85,44.5z M83.5,77.6c0.2,0.1,0.3,0,0.3-0.1C83.6,77.5,83.5,77.5,83.5,77.6z M82.6,52.4l0.1,0.2l0.1-0.2l0-0.4
	l-0.2-0.5c-0.2,0-0.3,0-0.3,0.1c-0.1,0.3-0.1,0.3,0,0.5C82.6,52.2,82.6,52.3,82.6,52.4z M82.5,59.2c0.1,0.1,0.1,0.2,0.2,0.2l0.3,0
	l0.6-0.7c-0.2-0.1-0.3-0.1-0.3-0.2C83,58.4,83,58.4,83,58.4l-0.5,0.5C82.5,59.1,82.5,59.1,82.5,59.2z M81.3,69.9l0.1,0.3
	c0.3,0,0.4,0,0.4-0.1l0.1-0.2l-0.4-0.2L81.3,69.9z M83.8,50L83.8,50c-0.1-0.2-0.2-0.1-0.2-0.1C83.7,50,83.8,50.1,83.8,50z
	 M83.7,58.3c-0.2-0.2-0.3-0.2-0.3-0.1C83.6,58.4,83.7,58.3,83.7,58.3z M89.8,36.8l-0.2,0.4c0.3,0.2,0.5,0.2,0.6,0.1l0.3-0.2
	l-0.2-0.5L89.8,36.8z M85.8,18.3c-0.3,0-0.3,0.1-0.3,0.2C85.8,18.5,85.8,18.4,85.8,18.3z M84.7,57.2c-0.3-0.1-0.3-0.1-0.3,0l0.1,0.3
	c-0.1,0.1-0.2,0.1-0.2,0.2l0.4-0.2L84.7,57.2z M85.7,17.4l0.1-0.5l-0.2-0.1C85.3,17,85.3,17,85.4,17l0.3,0.1
	C85.7,17.2,85.7,17.3,85.7,17.4z M89.6,93.6c0.2-0.2,0.1-0.2,0.1-0.3C89.5,93.5,89.5,93.6,89.6,93.6z M123.6,116.2l-0.3-0.1
	l-0.6,0.3c0.1,0.1,0.2,0.2,0.2,0.2c0.1,0.1,0.2,0.1,0.2,0.1l0.5-0.3c0-0.1,0-0.1,0.1-0.2C123.7,116.3,123.7,116.2,123.6,116.2z
	 M123,114.4c0.2-0.1,0.3-0.2,0.2-0.3C122.9,114.2,122.9,114.3,123,114.4z M122.5,116.8c0.1,0.2,0.2,0.2,0.2,0.2
	C122.7,116.7,122.6,116.7,122.5,116.8z M122.6,112.6c0.3,0.1,0.3,0.1,0.3,0.1l-0.1-0.3c0.1-0.1,0.2-0.1,0.2-0.2l-0.4,0.2
	L122.6,112.6z M123.7,109.2c-0.1,0.2,0,0.2,0,0.2l0.2-0.1c0.1,0,0.1,0.1,0.2,0.1l-0.3-0.3L123.7,109.2z M110,108.1l0,0.3
	c0.3,0.2,0.4,0.2,0.5,0.1l0.2-0.2l-0.3-0.4L110,108.1z M123.7,111.5c0.1,0.2,0.3,0.2,0.3,0.1C123.8,111.4,123.7,111.4,123.7,111.5z
	 M126.8,115.9l-0.2-0.3l-0.9-0.1c0,0.2,0,0.3,0.1,0.4c0.1,0.2,0.1,0.3,0.1,0.3l0.7,0.1c0.1-0.1,0.1-0.1,0.3-0.1
	C126.9,116,126.9,115.9,126.8,115.9z M125.7,122.4L125.7,122.4c0.1,0.1,0.2,0.1,0.2,0.1C125.7,122.4,125.7,122.4,125.7,122.4z
	 M122.9,107.9l-0.1-0.3l-0.6,0l0,0.5l0.3,0.2C122.9,108.1,123,108,122.9,107.9z M125.7,121.5c-0.2,0.2-0.1,0.2-0.1,0.3
	C125.8,121.6,125.8,121.5,125.7,121.5z M127.6,122l0.4-0.5l-0.6-0.7l-0.8,0.6l0.3,0.4C127.6,122,127.5,122.2,127.6,122z
	 M122.7,113.3l-0.1-0.5l-0.2,0c-0.2,0.2-0.2,0.2-0.1,0.2l0.3,0C122.7,113.2,122.7,113.3,122.7,113.3z M114,107.2l0,0.2
	c0.1,0.1,0.2,0.1,0.3,0.1l0.1-0.1l-0.1-0.3L114,107.2z M114.4,108.1c0,0.1,0,0.1,0,0.1C114.5,108.2,114.5,108.1,114.4,108.1
	L114.4,108.1z M115.3,110.2c0.1,0.2,0.2,0.3,0.3,0.3l0.2,0l0-0.4l-0.3,0L115.3,110.2z M115.2,111.6c0.1-0.1,0.2-0.1,0.2-0.1l-0.1,0
	C115.2,111.5,115.2,111.6,115.2,111.6z M125.8,110.8c0.1-0.1,0.1-0.1,0.1-0.2l-0.1-0.3l-0.6-0.4c-0.1,0.2-0.1,0.2-0.1,0.3
	c0,0.2,0,0.2,0,0.2l0.5,0.3C125.6,110.7,125.6,110.7,125.8,110.8z M82.4,17.3c-0.2-0.1-0.2,0-0.2,0l0,0.1l0.2,0.3
	c0.2,0.1,0.3,0,0.3,0l0-0.2L82.4,17.3z M111.3,107.7c0.1-0.1,0.2-0.1,0.2-0.1l-0.1,0C111.3,107.7,111.3,107.7,111.3,107.7z
	 M117.3,115.9l-0.4-0.2c-0.1,0.1-0.2,0.1-0.1,0.2c0.1,0.2,0.1,0.2,0.2,0.3c0.2,0,0.3,0,0.3,0.1l0.2,0.1l0-0.2L117.3,115.9z
	 M116,109.1c-0.2,0-0.2,0.1-0.2,0.1l0,0.1l0.2,0.2c0.2,0,0.2-0.1,0.2-0.1l-0.1-0.2L116,109.1z M121.2,106.9l-0.3,0.1l-0.1,0.3
	c0,0.3,0.1,0.3,0.2,0.3l0.1,0l0.3-0.4C121.4,107,121.3,106.9,121.2,106.9z M121.5,117.4c0.2,0.1,0.2,0.1,0.2,0.1l0-0.2
	c0.1,0,0.1-0.1,0.2-0.1l-0.4,0.1L121.5,117.4z M117.1,110.6c0.2-0.1,0.2-0.1,0.2,0l0.1,0l-0.1-0.1l-0.2-0.1l-0.3,0
	c-0.1,0.1-0.1,0.1,0,0.2C117,110.6,117,110.6,117.1,110.6z M123.2,114.6c-0.2,0.2-0.2,0.2-0.2,0.2l0.3,0.6c0.1,0,0.1,0,0.2,0.1
	c0.2,0,0.2-0.1,0.2-0.1l0.1-0.3l-0.4-0.8C123.3,114.5,123.3,114.6,123.2,114.6z M134.7,118.9l0,0.1c0.2,0,0.2,0,0.2-0.1
	C134.8,118.9,134.7,118.9,134.7,118.9z M134.5,112.8c0.1-0.1,0.1-0.2,0-0.2c-0.1,0.1-0.1,0.2-0.1,0.2L134.5,112.8z M135.7,119.7
	l-0.6-0.1l-0.3,0.8l0.9,0.4l0.1-0.5C135.7,119.8,135.9,119.8,135.7,119.7z M132.4,120.5L132.4,120.5l0-0.5c-0.2-0.2-0.3-0.2-0.3-0.1
	l-0.1,0.2l0.1,0.2C132.3,120.6,132.4,120.5,132.4,120.5z M136.1,121.6c0.2,0.1,0.3,0,0.3-0.1C136.2,121.5,136.1,121.5,136.1,121.6z
	 M134.5,112.9l0.1,0.2c0,0.1,0.1,0.1,0.3,0l0-0.2l-0.2-0.2L134.5,112.9z M134.7,114.3l0.1-0.3c-0.2-0.2-0.3-0.2-0.4-0.2l-0.2,0.1
	l0.1,0.4L134.7,114.3z M135.8,110.1l-0.1-0.7l-0.9-0.4l-0.5,1l0.4,0.4C135,110.5,135.3,110.5,135.8,110.1z M134.2,115.5l0.2,0
	c0.2-0.1,0.2-0.1,0.2-0.2l0-0.1l-0.3-0.2c-0.2,0.1-0.2,0.1-0.2,0.2L134.2,115.5z M135.4,112.4l-0.4,0.5l0.5,0.6l0.7-0.6l-0.3-0.3
	C135.5,112.4,135.6,112.2,135.4,112.4z M136.1,114.5l-0.2,0.1l-0.2,0.5c0.2,0,0.2-0.1,0.3-0.1c0.2-0.1,0.2-0.1,0.2-0.1l0.2-0.4
	c-0.1,0-0.1,0,0-0.1C136.1,114.4,136.1,114.4,136.1,114.5z M128.6,118.8l0.4,0.2c0.2-0.1,0.3-0.2,0.2-0.2l-0.1-0.2l-0.3,0
	C128.5,118.6,128.5,118.7,128.6,118.8L128.6,118.8z M128.7,121.5c-0.1,0.1-0.1,0.2,0,0.2c0.1-0.1,0.2-0.2,0.1-0.2L128.7,121.5z
	 M128.6,120.3l0.2-0.1l-0.1-0.5l-0.4,0.1l-0.1,0.3C128.4,120.4,128.5,120.4,128.6,120.3z M130.2,111.8L130.2,111.8
	c-0.2,0.1-0.2,0.1-0.2,0.1C130.1,111.8,130.2,111.8,130.2,111.8z M129.5,110.3c0.1,0,0.1,0,0.2-0.3l-0.2-0.1l-0.3,0.1l0.1,0.3
	L129.5,110.3z M124.7,110.1c0.1-0.2,0.1-0.3,0-0.3C124.6,110,124.7,110.1,124.7,110.1z M133.8,109.1l0-0.4c-0.3-0.1-0.5-0.1-0.6,0.1
	l-0.2,0.3l0.3,0.4L133.8,109.1z M133.1,121.7L133.1,121.7c0.2-0.1,0.2-0.1,0.1-0.1C133.1,121.6,133.1,121.6,133.1,121.7z M131.5,123
	c0,0.1,0.1,0.2,0.3,0.2l0.2-0.2l-0.1-0.3l-0.4,0.1L131.5,123z M133.5,119.5l-0.3,0.3l0.2,0.3l0.3,0c0.1-0.3,0.1-0.4,0-0.4
	L133.5,119.5z M131,108.6l0.4,0.2c0.1-0.1,0.1-0.2,0.1-0.2c-0.1-0.2-0.1-0.2-0.3-0.3c-0.3,0.1-0.3,0.1-0.4,0l-0.2,0l0.1,0.2
	L131,108.6z M131.4,109.5c-0.1,0.1-0.1,0.1-0.1,0.2l0,0.3l0.3,0.4c0-0.2,0.1-0.2,0.1-0.3c0-0.2,0-0.2,0-0.2l-0.2-0.3
	C131.4,109.6,131.4,109.6,131.4,109.5z M114.2,106.6c0.1-0.1,0.1-0.1,0.1-0.2l-0.1-0.1l-0.2,0c-0.1,0.1-0.1,0.1-0.1,0.1l0,0
	L114.2,106.6z M91.7,102.1l0.2,0.4c0.5-0.1,0.6-0.2,0.6-0.4l0.1-0.4l-0.6-0.3L91.7,102.1z M94.2,99.8l-0.5-0.3
	c0,0.2,0.1,0.3,0.1,0.4c0.1,0.2,0.1,0.3,0.1,0.3l0.4,0.2c0.1-0.1,0.1-0.1,0.1,0c0-0.1,0-0.2,0-0.2L94.2,99.8z M93.5,96.7l0.2-0.6
	c0.1-0.3,0-0.5-0.8-0.9l-0.7,0.4l0,1L93.5,96.7z M88.6,93.1l0.6,0.5c0.1-0.2,0.1-0.2,0.1-0.3c0.1-0.2,0-0.2,0-0.2l-0.5-0.3
	c-0.1,0-0.1,0-0.2,0c-0.1,0.1-0.1,0.1-0.1,0.2L88.6,93.1z M94.3,93.1c0-0.2,0-0.2,0-0.2l-0.1,0.1C94.2,93.1,94.2,93.1,94.3,93.1z
	 M90.6,94.4c0.1-0.2,0.1-0.2,0-0.2l-0.2,0.1c-0.1-0.1-0.1-0.1-0.2-0.2l0.2,0.3L90.6,94.4z M93.5,97.9l-0.6-0.3l-0.4,0.2
	c0,0.4,0.2,0.5,0.3,0.6l0.4,0.1L93.5,97.9z M96.1,95.4c0.2,0.1,0.2,0.1,0.2,0l0-0.1C96.2,95.3,96.1,95.3,96.1,95.4z M95.4,94.5
	l0.6,0.2l0.4-0.8l-0.9-0.5l-0.2,0.5C95.4,94.4,95.2,94.4,95.4,94.5z M95.1,92.6c-0.2-0.1-0.3,0-0.3,0.1
	C95.1,92.7,95.1,92.6,95.1,92.6z M95.4,91.6c0,0.1-0.1,0.2-0.1,0.2l0.2-0.4l-0.1-0.2c-0.2,0-0.2,0.1-0.2,0.1L95.4,91.6z M93.4,100.2
	c-0.2,0.3-0.2,0.3-0.2,0.4c0.2,0.2,0.2,0.3,0.2,0.4l0.1,0.2l0.1-0.2l0.1-0.4l-0.1-0.5C93.5,100.1,93.5,100.1,93.4,100.2z M96.1,98.4
	c-0.1,0-0.1,0.1,0,0.4l0.3,0.1l0.3-0.2l-0.3-0.3L96.1,98.4z M84.9,80.2c-0.2,0.1-0.2,0.1-0.3,0l-0.2,0l0.1,0.1l0.2,0.1l0.3,0
	c0.1-0.1,0.1-0.1,0-0.2C85,80.2,85,80.2,84.9,80.2z M80.1,57.8C80,58,80.1,58,80.1,58l0.2-0.1c0.1,0.1,0.1,0.1,0.2,0.2l-0.2-0.3
	L80.1,57.8z M80.7,72.9c0,0.2,0.1,0.3,0.2,0.2C80.9,72.9,80.8,72.9,80.7,72.9z M81.1,68.7l-0.2,0l-0.2,0.2c-0.1,0.2-0.1,0.3,0,0.3
	l0.1,0L81,69C81.1,68.8,81.1,68.7,81.1,68.7z M79.7,65c-0.2,0.2-0.2,0.4-0.1,0.4l0.2,0.2l0.4-0.2L80,65L79.7,65z M77.7,61.9l0.2,0.2
	c0,0.1-0.1,0.2-0.1,0.2L78,62l-0.1-0.2C77.7,61.8,77.7,61.9,77.7,61.9z M77.3,63.1c0.2,0.1,0.3,0.1,0.3,0
	C77.4,62.9,77.3,63,77.3,63.1z M83.9,76.4l0.2,0.2c0,0.1-0.1,0.2-0.1,0.2l0.2-0.3l-0.1-0.2C83.8,76.4,83.8,76.4,83.9,76.4z M85.5,74
	L85,72.8l-0.6,0.1c-0.3,0-0.5,0.2-0.5,1l0.7,0.5L85.5,74z M87,80l-0.1,0.4c0.1,0.1,0.1,0.1,0.2,0.1c0.2-0.1,0.2-0.1,0.2-0.3
	c-0.1-0.2-0.1-0.3,0-0.3l0-0.2l-0.1,0.1L87,80z M89.2,98.4c0.1-0.2,0.1-0.3,0-0.3l-0.1,0C89.1,98.3,89.1,98.4,89.2,98.4z M83.5,77.9
	c-0.2,0-0.2,0.1-0.2,0.1l-0.1,0.6c0.1,0.1,0.1,0.1,0.1,0.2c0.1,0.1,0.2,0.1,0.2,0l0.2-0.2l0.2-0.7C83.7,77.9,83.6,77.9,83.5,77.9z
	 M95.2,99.3c-0.2,0-0.2,0-0.3,0.1c-0.2,0.1-0.2,0.1-0.2,0.1l-0.2,0.3c0.1,0,0.1,0,0,0.1c0.1,0,0.2,0,0.2,0l0.2-0.1L95.2,99.3z
	 M98.2,99.4c-0.1-0.1-0.1-0.1-0.2-0.1l0,0.1C98.2,99.5,98.2,99.5,98.2,99.4z M105.8,105.1c-0.2,0.2-0.1,0.3-0.1,0.3
	C106,105.2,105.9,105.1,105.8,105.1z M103.4,111.7L103.4,111.7c0.1,0.1,0.2,0.1,0.2,0.1C103.4,111.7,103.4,111.7,103.4,111.7z
	 M103,101.6c-0.3,0-0.4,0.3-0.4,1.1l0.7,0.4l0.9-0.5l-0.6-1.1L103,101.6z M102.8,105.2l0.2,0.2c0,0.1,0,0.2,0,0.2l0.2-0.4l-0.1-0.1
	C102.8,105.1,102.8,105.2,102.8,105.2z M102.9,106.3c-0.2-0.1-0.3,0-0.3,0.1C102.8,106.5,102.9,106.4,102.9,106.3z M102.4,106.8
	l-0.1,0.6c0.1,0.1,0.1,0.1,0.1,0.2c0.1,0.1,0.2,0,0.2,0l0.2-0.2l0.1-0.7c-0.2,0-0.2,0-0.3,0C102.5,106.8,102.4,106.8,102.4,106.8z
	 M102.4,111.8l-0.3,0.1l0.1,0.3l0.2,0.1c0.2-0.2,0.2-0.3,0.1-0.3L102.4,111.8z M107.5,100.2c0-0.1,0.1-0.1,0.1-0.2l-0.2,0.3l0.1,0.1
	c0.2,0,0.2-0.1,0.2-0.1L107.5,100.2z M106.7,108.2l0-0.2l-0.1,0.1l-0.2,0.2l-0.1,0.4c0.1,0.1,0.1,0.1,0.2,0c0.2-0.1,0.2-0.2,0.2-0.3
	C106.6,108.3,106.6,108.3,106.7,108.2z M106.8,105.9l-0.2,0.1c-0.1-0.1-0.1-0.1-0.2-0.2l0.2,0.3l0.2-0.1
	C106.9,105.9,106.9,105.9,106.8,105.9z M105.8,99l-0.2-0.2l-0.5,0c0.1,0.1,0.2,0.2,0.2,0.2c0.1,0.2,0.2,0.2,0.2,0.2l0.4,0
	c0-0.1,0-0.1,0.1-0.1C105.9,99.1,105.8,99,105.8,99z M98.2,102.4c0.1,0.2,0.2,0.2,0.2,0.1l0.1-0.2c0.1,0,0.2,0,0.2-0.1l-0.4,0
	L98.2,102.4z M99.3,102c0,0.2,0.1,0.2,0.2,0.2C99.5,102,99.4,102,99.3,102z M100.1,99.1l0-0.3l-0.4-0.2L99.6,99l0.1,0.3
	C100,99.3,100.1,99.2,100.1,99.1z M95.8,101.3L95.8,101.3l-0.4-0.2l-0.6,0.1c-0.1,0.2-0.1,0.3,0,0.3c0.3,0.2,0.3,0.2,0.5,0.2
	c0.2-0.2,0.4-0.2,0.4-0.2l0,0l0.2,0.2l0.3-0.3l-0.1-0.2C96,101.3,96,101.3,95.8,101.3z M110.4,106.8l-0.2-0.1l-0.3,0.1
	c-0.2,0.2-0.2,0.3-0.2,0.3l0.1,0l0.4,0C110.4,106.9,110.4,106.8,110.4,106.8z M100.7,100.3l-0.9,0.1l0,1l0.5-0.1
	c0.5-0.4,0.6-0.2,0.6-0.4L100.7,100.3z M104.4,98.1L104.4,98.1l0-0.4c-0.1-0.2-0.2-0.2-0.3-0.1l-0.1,0.2l0.1,0.2
	C104.3,98.1,104.4,98.1,104.4,98.1z M97.4,94.3c-0.1,0.3-0.1,0.4,0,0.4l0.2,0.2l0.4-0.3l-0.2-0.3L97.4,94.3L97.4,94.3z M105.3,101.3
	l-0.1-0.4l-0.6,0l0,0.6l0.3,0.3C105.3,101.6,105.4,101.4,105.3,101.3z M101.3,99.9c0-0.2,0-0.2-0.1-0.2l-0.1,0.1
	C101.2,99.9,101.2,99.9,101.3,99.9z M104.3,105l0,0.2l0.4,0.1l0.1-0.3l-0.2-0.2C104.3,104.8,104.3,104.9,104.3,105z M105.1,104.4
	c-0.1,0-0.1,0-0.2,0c-0.1,0.1-0.1,0.1-0.1,0.2l0.1,0.3l0.6,0.5c0.1-0.2,0.1-0.2,0.1-0.3c0.1-0.2,0-0.2,0-0.2L105.1,104.4z
	 M101.3,111.8l-0.1,0.1l0,0.2c0.1,0.1,0.2,0.2,0.2,0.2l0,0l0.1-0.3C101.4,111.8,101.3,111.7,101.3,111.8z"/>
</svg>
