<?xml version="1.0" encoding="utf-8"?>
<!-- Generator: Adobe Illustrator 23.0.1, SVG Export Plug-In . SVG Version: 6.00 Build 0)  -->
<svg version="1.1" id="Calque_1" xmlns="http://www.w3.org/2000/svg" xmlns:xlink="http://www.w3.org/1999/xlink" x="0px" y="0px"
	 viewBox="0 0 59.7 75" style="enable-background:new 0 0 59.7 75;" xml:space="preserve">
<style type="text/css">
	.st0{fill:#FFFFFF;}
</style>
<g>
	<path d="M25.2,36.1c-1.5,0-2.8,1.6-2.8,3.4c0,1.9,1.3,3.4,2.8,3.4s2.8-1.6,2.8-3.4S26.7,36.1,25.2,36.1z"/>
	<path d="M36.3,36.1c-1.5,0-2.8,1.6-2.8,3.4c0,1.9,1.3,3.4,2.8,3.4c1.5,0,2.8-1.6,2.8-3.4S37.9,36.1,36.3,36.1z"/>
	<path d="M48.9,20.4l1.3,0.6c0.9,0.4,1.9-0.3,2-1.5c0.2-2.2,0-4.7-0.2-6.3c-0.1-0.6-0.7-0.8-1-0.3c-1.3,2.1-1.6,2.6-2.7,4.7
		C47.7,18.7,48,20,48.9,20.4z"/>
	<path d="M10.4,20.4l1.3-0.6c0.9-0.4,1.2-1.7,0.7-2.7c-1.1-2.1-1.4-2.7-2.7-4.7c-0.3-0.5-1-0.3-1,0.3c-0.2,1.6-0.4,4-0.2,6.3
		C8.5,20.1,9.5,20.8,10.4,20.4z"/>
	<path d="M55.7,48.8c0,0-3,0.8-5.9,0.8c-0.9,0-1.7-0.1-2.3-0.2c-0.4-0.1-0.9-0.4-1.4-0.7l3.1-0.7c1.6-0.3,3-0.9,4.3-1.8
		c0.7-0.4,1.2-0.8,1.6-1.2c3.9-4,2-10.8,1.3-12.8c-0.1-0.4-0.5-0.8-0.9-0.8c-0.3,0-0.5,0.1-0.7,0.4c-0.2,0.2-0.3,0.6-0.3,0.9
		c0,0.8-0.1,2.3-0.9,3.9c-0.2-1.7-0.6-3.4-1.1-5c4.1-6.8,3.3-20.4,2.9-25.3c-0.1-1-0.7-1.7-1.5-1.7c-0.2,0-0.4,0.1-0.6,0.2
		c-1.2,0.6-2.4,1.8-3.8,3.4c-2.2,2.5-4.1,5.5-5.7,9.1l-0.1,0.2c-2-1.7-4.1-3-6.4-3.9c0-0.1,0-0.2,0-0.3c0-4.4-2.9-8-6.5-8
		c-3.5,0-6.3,3.4-6.5,7.6c-2.8,0.8-5.4,2.1-7.7,3.9l0-0.1c-1.6-3.5-3.5-6.6-5.6-9C9.6,6,8.3,4.8,7.2,4.2C7,4.1,6.7,4,6.5,4
		C5.8,4,5.1,4.7,5,5.7c-0.4,4.7-1.1,17.4,2.4,24.5c-0.7,2.1-1.2,4.2-1.5,6.5C5.1,35,5,33.5,5.1,32.7c0-0.3-0.1-0.7-0.3-0.9
		c-0.2-0.2-0.5-0.4-0.7-0.4c-0.4,0-0.8,0.3-0.9,0.8c-0.7,2-2.6,8.9,1.3,12.8c0.3,0.3,0.7,0.6,1.2,0.9c1.5,1,3.2,1.7,5,2.1l3,0.6
		c-0.6,0.4-1.4,0.8-1.9,0.9c-0.5,0.1-1.2,0.1-1.8,0.1C7,49.6,4,48.8,4,48.8c-0.4-0.1-0.8,0.1-1,0.5c-0.2,0.4-0.2,1,0.1,1.3
		c0.1,0.2,3.4,5,8.3,5.7c6.5,10.8,13.1,16.6,19.3,16.6c8.2,0,13.9-9.9,16.9-15.2c0.3-0.5,0.5-0.9,0.8-1.3c4.9-0.7,8.1-5.5,8.3-5.7
		c0.3-0.4,0.3-0.9,0.1-1.3C56.5,48.9,56.1,48.7,55.7,48.8z M52,38.9c-0.2,0.2-0.4,0.3-0.5,0.5c0,0-0.1,0.1-0.1,0.1
		c-0.2,0.2-0.5,0.4-0.7,0.6c-0.2,0.1-0.4,0.3-0.6,0.4c-0.2,0.1-0.3,0.2-0.5,0.3c-0.2,0.1-0.5,0.2-0.7,0.3c-0.2,0.1-0.4,0.2-0.5,0.2
		c-0.2,0.1-0.4,0.1-0.6,0.1c-0.2,0.1-0.5,0.1-0.7,0.2c-0.1,0-0.1,0-0.2,0c-0.4,0.1-0.7,0.1-1.1,0.2c-0.3,0-0.5,0-0.9,0.1
		c-0.1,0-0.1,0-0.2,0c-0.1,0-0.3,0-0.4,0c-0.2,0-0.4,0-0.6,0.1c-0.1,0-0.2,0-0.3,0c-0.2,0-0.3,0-0.5,0.1c-0.1,0-0.1,0-0.2,0
		c0,0,0,0,0,0c0.1-0.3,0.1-0.7,0.2-1.1c0-0.1,0-0.2,0-0.3c0-0.4,0.1-0.7,0.1-1.1c0-0.3,0-0.6,0-0.9c0-0.1,0-0.2,0-0.3
		c0-0.2-0.1-0.4-0.1-0.6c0-0.1,0-0.2-0.1-0.3c0-0.2-0.1-0.4-0.1-0.5c0-0.1-0.1-0.2-0.1-0.3c-0.1-0.2-0.1-0.4-0.2-0.6
		c0-0.1,0-0.1-0.1-0.2c0.6,0.1,1.2,0.2,1.9,0.2c1.5,0,2.9-0.3,3.6-0.5c0.4-0.1,0.7-0.2,0.7-0.2c0,0,0.1,0,0.1,0c1.1-0.4,2-1,2.8-1.8
		C51.6,35.2,51.9,37,52,38.9C52,38.8,52,38.9,52,38.9z M39.6,43.7c-0.2,0.2-0.4,0.4-0.6,0.6c0,0-0.1,0-0.1,0.1
		c-0.2,0.2-0.4,0.3-0.7,0.4c0,0-0.1,0-0.1,0c-0.2,0.1-0.5,0.2-0.8,0.3c-0.1,0-0.1,0-0.2,0c-0.3,0.1-0.5,0.1-0.8,0.1
		c-2.6,0-4.7-2.6-4.7-5.7c0-0.4,0-0.7,0.1-1c0-0.2,0.1-0.4,0.1-0.6c0-0.2,0.1-0.3,0.1-0.5c0-0.1,0.1-0.3,0.2-0.4
		c0.1-0.2,0.1-0.4,0.2-0.5c0.1-0.1,0.1-0.2,0.2-0.3c0.1-0.2,0.2-0.4,0.4-0.5c0.1-0.1,0.1-0.2,0.2-0.3c0.1-0.2,0.3-0.3,0.4-0.4
		c0.1-0.1,0.1-0.1,0.2-0.2c0.2-0.1,0.3-0.2,0.5-0.3c0.1,0,0.2-0.1,0.3-0.1c0.2-0.1,0.4-0.2,0.6-0.2c0.1,0,0.2-0.1,0.3-0.1
		c0.3-0.1,0.6-0.1,0.9-0.1c2.6,0,4.7,2.6,4.7,5.7c0,0.4,0,0.7-0.1,1c0,0.1,0,0.2-0.1,0.3c0,0.3-0.1,0.5-0.2,0.7c0,0.1,0,0.2-0.1,0.2
		c-0.1,0.3-0.2,0.6-0.4,0.9c0,0,0,0,0,0c-0.1,0.3-0.3,0.5-0.5,0.8C39.7,43.6,39.6,43.7,39.6,43.7z M24.3,45.2c0,0-0.1,0-0.1,0
		c-0.3-0.1-0.5-0.2-0.7-0.3c-0.1,0-0.1-0.1-0.2-0.1c-0.2-0.1-0.5-0.3-0.7-0.4c0,0-0.1-0.1-0.1-0.1c-0.2-0.1-0.3-0.3-0.5-0.5
		c0-0.1-0.1-0.1-0.1-0.2c-0.2-0.2-0.3-0.5-0.5-0.7c-0.1-0.1-0.1-0.2-0.2-0.3C21.1,42.3,21,42.2,21,42c0-0.1-0.1-0.2-0.1-0.4
		c-0.1-0.2-0.1-0.4-0.2-0.7c0-0.1,0-0.2-0.1-0.3c0-0.3-0.1-0.7-0.1-1c0-3.2,2.1-5.7,4.7-5.7c0.3,0,0.6,0,0.9,0.1
		c0.1,0,0.2,0.1,0.3,0.1c0.2,0.1,0.4,0.1,0.6,0.2c0.1,0,0.2,0.1,0.3,0.1c0.2,0.1,0.4,0.2,0.5,0.3c0.1,0.1,0.2,0.1,0.2,0.2
		c0.2,0.1,0.3,0.3,0.4,0.4c0.1,0.1,0.1,0.2,0.2,0.3c0.1,0.2,0.2,0.3,0.3,0.5c0.1,0.1,0.1,0.2,0.2,0.3c0.1,0.2,0.2,0.3,0.2,0.5
		c0.1,0.1,0.1,0.3,0.2,0.4c0,0.1,0.1,0.3,0.1,0.5c0,0.2,0.1,0.4,0.1,0.6c0,0.3,0.1,0.7,0.1,1c0,3.2-2.1,5.7-4.7,5.7
		C24.9,45.3,24.6,45.3,24.3,45.2z M45.6,18.4c1.5-3.3,3.3-6.2,5.3-8.5c1-1.2,2-2.1,2.9-2.7c0.3,4.3,1,17.8-2.9,23.5
		c-0.2,0.2-0.3,0.4-0.5,0.6c-0.1,0.1-0.1,0.1-0.2,0.2c-0.2,0.2-0.4,0.4-0.6,0.6c-0.1,0.1-0.2,0.2-0.3,0.2c-0.1,0.1-0.3,0.2-0.4,0.3
		c-0.1,0.1-0.2,0.1-0.3,0.2c-0.2,0.1-0.5,0.2-0.7,0.3c0,0,0,0,0,0c0,0-1.7,0.6-3.8,0.6c-0.4,0-0.7,0-1.1-0.1c-1-0.1-1.9-0.4-2.7-0.8
		c0.2-0.1,0.3-0.2,0.5-0.3l0,0l0,0l0.1-0.1c1-0.6,1.9-1.4,2.6-2.4c0.2-0.2,0.3-0.4,0.5-0.7c0.1-0.1,0.1-0.2,0.2-0.3
		c0.1-0.1,0.2-0.3,0.3-0.4c0.1-0.1,0.1-0.3,0.2-0.4c0.1-0.1,0.1-0.2,0.2-0.3c0.1-0.1,0.2-0.3,0.2-0.5c0-0.1,0.1-0.2,0.1-0.3
		c0.1-0.2,0.2-0.3,0.2-0.5c0-0.1,0.1-0.1,0.1-0.2c0.1-0.2,0.1-0.4,0.2-0.6c0-0.1,0-0.1,0.1-0.2c0.1-0.2,0.1-0.4,0.2-0.6
		c0,0,0-0.1,0-0.1c0.1-0.2,0.1-0.4,0.1-0.6c0,0,0-0.1,0-0.1c0-0.1,0.1-0.3,0.1-0.4c0.3-2.1,0-3.9-0.8-5.3L45.6,18.4z M24.6,15.1
		C24.6,15.1,24.6,15.1,24.6,15.1c0.5,2.6,2.1,4.8,4.1,5.7c0,0,0.1,0,0.1,0c0.3,0.1,0.6,0.2,1,0.3c0,0,0.1,0,0.1,0
		c0.3,0.1,0.7,0.1,1,0.1l0,0l0,0l0,0c0.3,0,0.6,0,0.9-0.1c0.1,0,0.1,0,0.2,0c0.3-0.1,0.6-0.1,0.8-0.3c0.1,0,0.1-0.1,0.2-0.1
		c0.2-0.1,0.4-0.2,0.6-0.3c0.1-0.1,0.2-0.1,0.3-0.2c0.2-0.1,0.4-0.3,0.6-0.5c0.1-0.1,0.2-0.2,0.3-0.3c0.1-0.1,0.3-0.3,0.4-0.4
		c0.1-0.1,0.2-0.2,0.3-0.3c0.2-0.2,0.3-0.4,0.4-0.6c0.1-0.1,0.1-0.2,0.2-0.3c0.2-0.3,0.3-0.6,0.4-0.9c0,0,0-0.1,0-0.1
		c0.1-0.3,0.3-0.7,0.4-1c0,0,0,0,0-0.1c2.6,1.1,4.9,2.7,7,4.8c0.1,0.2,0.1,0.4,0.2,0.6c0,0.1,0,0.1,0.1,0.2c0,0.1,0,0.3,0,0.4
		c0,0.2,0,0.4,0,0.6c0,0.1,0,0.2,0,0.3c0,0.2,0,0.5-0.1,0.8c0,0.1,0,0.2-0.1,0.3c-0.1,0.3-0.1,0.6-0.2,0.9c0,0.1-0.1,0.3-0.1,0.4
		c-0.1,0.2-0.2,0.5-0.3,0.7c-0.1,0.1-0.1,0.3-0.2,0.4c0.1-1.8-0.4-3.3-1.3-4.4c-0.9-1.1-2.2-1.7-3.7-1.6c-3.1,0.3-5.7,3.5-5.9,7.3
		c-0.1,1.8,0.4,3.5,1.3,4.6c0,0,0,0,0,0c0,0-0.1,0-0.1,0.1c-0.2,0.1-0.4,0.2-0.6,0.3c-0.1,0.1-0.2,0.2-0.3,0.2
		c-0.1,0.1-0.2,0.2-0.3,0.2c-0.1,0.1-0.2,0.2-0.3,0.3c-0.1,0.1-0.2,0.2-0.3,0.3c-0.1,0.1-0.3,0.3-0.4,0.5c-0.1,0.1-0.2,0.3-0.3,0.4
		c-0.1,0.1-0.1,0.2-0.2,0.3c-0.1,0.1-0.2,0.3-0.3,0.4c0,0.1-0.1,0.1-0.1,0.2c0-0.1-0.1-0.1-0.1-0.2c-0.1-0.1-0.2-0.3-0.3-0.4
		c-0.1-0.1-0.1-0.2-0.2-0.3c-0.1-0.1-0.2-0.3-0.3-0.4c-0.1-0.2-0.3-0.3-0.4-0.5c-0.1-0.1-0.2-0.2-0.2-0.3c-0.1-0.1-0.2-0.2-0.3-0.3
		c-0.1-0.1-0.2-0.2-0.3-0.2c-0.1-0.1-0.2-0.2-0.3-0.2c-0.2-0.1-0.4-0.2-0.5-0.3c-0.1,0-0.2-0.1-0.3-0.1c-0.1-0.1-0.2-0.1-0.4-0.2
		c0.1-0.1,0.3-0.3,0.4-0.4c0.9-1.1,1.3-2.7,1.3-4.6c-0.2-3.9-2.8-7.1-5.9-7.3c-1.5-0.1-2.8,0.4-3.7,1.6c-0.9,1.1-1.3,2.7-1.2,4.4
		c0,0,0,0,0-0.1c-0.1-0.1-0.1-0.3-0.2-0.4c-0.1-0.2-0.1-0.4-0.2-0.5c0-0.1-0.1-0.3-0.1-0.4c-0.1-0.2-0.1-0.4-0.1-0.6
		c0-0.1-0.1-0.3-0.1-0.4c0-0.2-0.1-0.4-0.1-0.6c0-0.1,0-0.2,0-0.4c0-0.2,0-0.4,0-0.6c0-0.1,0-0.2,0-0.3c0-0.3,0.1-0.6,0.1-0.8
		c0.1-0.3,0.1-0.5,0.1-0.8c0-0.1,0-0.3,0-0.4c0-0.1,0-0.2,0-0.3C19.5,17.1,22,15.8,24.6,15.1z M6.8,6.5C7.7,7.1,8.7,8,9.7,9.2
		c2,2.3,3.8,5.2,5.3,8.5l0.1,0.3c0.1,0.2,0.2,0.5,0.2,0.7c0,0,0,0,0,0c0.1,0.4,0,0.7,0,1c-0.7,2.9,0.3,6.7,2.7,9.6
		c1,1.2,2.1,2.2,3.3,2.8c-0.3,0.2-0.6,0.4-0.9,0.5c0,0-0.1,0-0.1,0.1c-0.3,0.1-0.6,0.2-0.9,0.3c-0.2,0-0.4,0.1-0.6,0.1
		c-0.1,0-0.3,0.1-0.4,0.1c-0.3,0-0.7,0.1-1.1,0.1c0,0,0,0,0,0c-0.2,0-0.4,0-0.6,0c-0.1,0-0.2,0-0.3,0c-0.2,0-0.4,0-0.6-0.1
		c0,0-0.1,0-0.1,0c-1.2-0.2-2.2-0.5-2.6-0.7c0,0-0.1,0-0.1,0s0,0-0.1,0l0,0c-0.2-0.1-0.4-0.1-0.6-0.2L12,32.1
		c-0.1-0.1-0.2-0.1-0.3-0.2c-0.1,0-0.2-0.1-0.2-0.2c-0.1-0.1-0.2-0.1-0.3-0.2c-0.1-0.1-0.2-0.1-0.3-0.2l-0.2-0.2
		c-0.5-0.5-1-1.1-1.4-1.9c0,0-0.1-0.1-0.1-0.1C5.9,23.1,6.5,10.6,6.8,6.5z M11.7,34.4c0.2,0.1,0.4,0.2,0.6,0.2c0,0,0.1,0,0.1,0.1
		c0,0,0,0,0,0c0.1,0,0.1,0.1,0.3,0.1c0,0,0.1,0,0.1,0c0.1,0,0.2,0.1,0.3,0.1c0.1,0,0.1,0,0.2,0.1c0.1,0,0.3,0.1,0.4,0.1
		c0.1,0,0.2,0,0.3,0.1c0.1,0,0.3,0.1,0.4,0.1c0.1,0,0.2,0,0.3,0.1c0.2,0,0.3,0.1,0.5,0.1c0.1,0,0.3,0,0.4,0c0.2,0,0.3,0,0.5,0.1
		c0.1,0,0.3,0,0.4,0c0.1,0,0.3,0,0.4,0h0.3l0,0c0.4,0,0.7,0,1.1-0.1c0.1,0,0.2,0,0.3,0c0.3,0,0.6-0.1,0.8-0.1c0,0,0.1,0,0.1,0
		c0,0,0,0.1-0.1,0.1c-0.1,0.2-0.2,0.4-0.3,0.7c0,0.1-0.1,0.1-0.1,0.2c-0.1,0.3-0.2,0.6-0.3,0.9c0,0.1,0,0.1,0,0.2
		c-0.1,0.3-0.1,0.5-0.1,0.8c0,0.1,0,0.2,0,0.3c0,0.3-0.1,0.7-0.1,1c0,0.4,0,0.8,0.1,1.3c0,0.1,0,0.1,0,0.2c0.1,0.4,0.1,0.8,0.3,1.2
		c0,0,0,0.1,0,0.1c0,0-0.1,0-0.1,0c-0.4-0.1-0.8-0.1-1.2-0.2c-0.1,0-0.3,0-0.4,0c-0.3,0-0.6-0.1-0.8-0.1c-0.1,0-0.2,0-0.3,0
		c-0.4,0-0.7-0.1-1-0.1c-0.1,0-0.1,0-0.1,0c-0.3,0-0.6-0.1-0.9-0.1c0,0,0,0-0.1,0c-1.4-0.1-2.7-0.4-3.8-1c-0.1,0-0.1-0.1-0.2-0.1
		c-0.3-0.2-0.6-0.3-0.9-0.5C9.1,40.1,9.1,40,9,40c-0.2-0.1-0.3-0.3-0.5-0.4c-0.1-0.1-0.1-0.1-0.2-0.2C8,39.2,7.8,39,7.6,38.8
		c0.2-2.3,0.6-4.5,1.2-6.6C9.6,33.2,10.6,34,11.7,34.4z M38.1,53.8c4,0.6,5,1.5,5,1.5c0,0.1,0.1,0.1,0.1,0.1
		c-0.7,0.5-1.4,0.9-2.1,1.3c-0.9,0.6-1.7,1-2.4,1.5c0.1-0.5,0.2-1,0.2-1.5C39,55.8,38.7,54.7,38.1,53.8z M21.5,58.4
		c-1.5-0.8-3.2-1.8-5.1-2.9c0.4-0.2,2.1-1,5.7-1.5c-0.5,0.9-0.8,1.9-0.8,2.9C21.3,57.3,21.4,57.9,21.5,58.4z M30.6,70.6
		c-5.2,0-11-4.8-16.8-14c0.1,0,0.1,0,0.2,0c4.4,2.7,7.9,4.6,10.8,5.8c1.5,0.8,3.3,1.3,5.2,1.3c0.1,0,0.2,0,0.3,0c0,0,0.1,0,0.2,0
		h0.1c3.6,0,6.5-1.8,11.3-4.9c1.1-0.7,2.3-1.4,3.6-2.3c0.1,0,0.2,0,0.3,0C43,61.7,37.7,70.6,30.6,70.6z"/>
	<ellipse class="st0" cx="31.5" cy="55.7" rx="0.9" ry="1.1"/>
	<ellipse cx="23.2" cy="24.7" rx="0.9" ry="1.1"/>
	<ellipse cx="23.2" cy="29.3" rx="0.9" ry="1.1"/>
	<ellipse cx="37.1" cy="29.3" rx="0.9" ry="1.1"/>
	<ellipse cx="39" cy="27" rx="0.9" ry="1.1"/>
	<ellipse cx="37.1" cy="24.7" rx="0.9" ry="1.1"/>
	<ellipse cx="25" cy="27" rx="0.9" ry="1.1"/>
	<ellipse cx="21.3" cy="27" rx="0.9" ry="1.1"/>
	<ellipse class="st0" cx="27.8" cy="55.7" rx="0.9" ry="1.1"/>
	<ellipse class="st0" cx="29.7" cy="58" rx="0.9" ry="1.1"/>
	<ellipse class="st0" cx="33.4" cy="58" rx="0.9" ry="1.1"/>
	<ellipse class="st0" cx="35.3" cy="55.7" rx="0.9" ry="1.1"/>
	<ellipse class="st0" cx="26" cy="58" rx="0.9" ry="1.1"/>
</g>
</svg>
