<?xml version="1.0" encoding="utf-8"?>
<!-- Generator: Adobe Illustrator 22.0.0, SVG Export Plug-In . SVG Version: 6.00 Build 0)  -->
<svg version="1.1" id="Calque_1" xmlns="http://www.w3.org/2000/svg" xmlns:xlink="http://www.w3.org/1999/xlink" x="0px" y="0px"
	 viewBox="0 0 236 30.6" style="enable-background:new 0 0 236 30.6;" xml:space="preserve">
<style type="text/css">
	.st0{fill:none;}
	.st1{enable-background:new    ;}
	.st2{fill:#fff;}
	.st3{fill:none;stroke:#fff;stroke-width:1.5;stroke-miterlimit:10;}
	.st4{fill:none;stroke:#fff;stroke-width:1.5;stroke-miterlimit:10;stroke-dasharray:9.7848,1.957;}
	.st5{fill:none;stroke:#fff;stroke-width:1.5;stroke-miterlimit:10;stroke-dasharray:9.1188,1.8238;}
</style>
<g id="Calque_2_1_">
</g>
<g id="Calque_1_1_">
	<rect x="82.5" y="8.5" class="st0" width="62.9" height="27.5"/>
	<g class="st1">
		<path class="st2" d="M94.1,21.1v-1.6c0,0,1.9-1.7,3.2-2.9c1.4-1.2,1.9-2.1,1.9-3.1c0-1-0.6-1.7-1.7-1.7c-1.2,0-1.7,0.9-1.8,2h-1.8
			c0,0,0-0.1,0-0.1c0-2,1.2-3.5,3.6-3.5c2.2,0,3.6,1.4,3.6,3.3c0,2.7-3,4.5-4.6,6h4.6v1.6H94.1z"/>
		<path class="st2" d="M103.7,10.3h5.7V12h-4.2c-0.1,0.5-0.1,1.1-0.2,1.6l-0.1,0.9c0.5-0.3,1.1-0.6,1.9-0.6c2,0,3.4,1.5,3.4,3.6
			c0,2.2-1.5,3.8-3.8,3.8c-2.1,0-3.5-1.3-3.7-3.2h1.8c0.2,0.9,0.8,1.6,1.8,1.6c1.2,0,2-0.9,2-2.1c0-1.2-0.7-2.1-1.9-2.1
			c-0.8,0-1.3,0.4-1.6,0.9c-0.6-0.1-1.1-0.2-1.7-0.3C103.3,14.1,103.5,12.3,103.7,10.3z"/>
		<path class="st2" d="M119,15.7c0,3.2-0.8,5.6-3.8,5.6s-3.8-2.4-3.8-5.6c0-2.9,0.7-5.6,3.8-5.6C118.3,10.1,119,12.9,119,15.7z
			 M113.4,15.7c0,2.3,0.3,4,1.8,4c1.5,0,1.8-1.7,1.8-4c0-2.1-0.3-3.9-1.8-3.9S113.4,13.6,113.4,15.7z"/>
		<path class="st2" d="M122.4,13.7c0,0.2,0,0.3,0,0.5c0.4-0.7,1.2-1.2,2.4-1.2c1.1,0,1.9,0.5,2.4,1.3c0.5-0.7,1.3-1.3,2.7-1.3
			c1.8,0,2.8,1.2,2.8,3.2v4.9h-1.8v-4.2c0-1.6-0.4-2.4-1.5-2.4c-1.1,0-1.7,0.9-1.7,2v4.6h-1.8v-4.2c0-1.6-0.4-2.4-1.5-2.4
			c-1.2,0-1.7,0.9-1.7,2.2v4.4h-1.8v-6.7c0-0.4,0-0.8,0-1.2h1.8V13.7z"/>
	</g>
	<circle class="st3" cx="12.6" cy="15.8" r="9.5"/>
	<circle class="st3" cx="220.7" cy="15.8" r="9.5"/>
	<circle class="st3" cx="220.7" cy="15.8" r="11.9"/>
	<g>
		<g>
			<line class="st3" x1="138.1" y1="16.8" x2="147.1" y2="16.8"/>
			<line class="st4" x1="149" y1="16.8" x2="195" y2="16.8"/>
			<line class="st3" x1="196" y1="16.8" x2="201" y2="16.8"/>
			<g>
				<path class="st2" d="M186.5,26.9c-0.3-0.5-0.2-1.1,0.3-1.5l13.6-8.7L186.8,8c-0.5-0.3-0.6-1-0.3-1.5s1-0.6,1.5-0.3l15,9.6
					c0.3,0.2,0.5,0.5,0.5,0.9s-0.2,0.7-0.5,0.9l-15,9.6c-0.2,0.1-0.4,0.2-0.6,0.2C187.1,27.4,186.8,27.2,186.5,26.9z"/>
			</g>
		</g>
	</g>
	<g>
		<g>
			<line class="st3" x1="25.7" y1="16.8" x2="30.7" y2="16.8"/>
			<line class="st5" x1="32.5" y1="16.8" x2="75.4" y2="16.8"/>
			<line class="st3" x1="76.3" y1="16.8" x2="86.3" y2="16.8"/>
		</g>
	</g>
</g>
</svg>
