<?xml version="1.0" encoding="utf-8"?>
<!-- Generator: Adobe Illustrator 22.0.0, SVG Export Plug-In . SVG Version: 6.00 Build 0)  -->
<svg version="1.1" id="Calque_1" xmlns="http://www.w3.org/2000/svg" xmlns:xlink="http://www.w3.org/1999/xlink" x="0px" y="0px"
	 viewBox="0 0 215.1 30.6" style="enable-background:new 0 0 215.1 30.6;" xml:space="preserve">
<style type="text/css">
	.st0{fill:none;}
	.st1{enable-background:new    ;}
	.st2{fill:#fff;}
	.st3{fill:none;stroke:#fff;stroke-width:1.5;stroke-miterlimit:10;}
	.st4{fill:none;stroke:#fff;stroke-width:1.5;stroke-miterlimit:10;stroke-dasharray:9.5848,1.917;}
	.st5{fill:none;stroke:#fff;stroke-width:1.5;stroke-miterlimit:10;stroke-dasharray:10.6847,2.1369;}
</style>
<g id="Calque_2_1_">
</g>
<g id="Calque_1_1_">
	<rect x="88" y="8.8" class="st0" width="62.9" height="27.5"/>
	<g class="st1">
		<path class="st2" d="M101.7,12.6h-2.6v-1.4c1.8,0,2.6-0.4,2.8-1.6h1.7v10.7h-1.9V12.6z"/>
		<path class="st2" d="M107.2,20.3v-1.6c0,0,1.9-1.7,3.2-2.9c1.4-1.2,1.9-2.1,1.9-3.1c0-1-0.6-1.7-1.7-1.7c-1.2,0-1.7,0.9-1.8,2
			h-1.8c0,0,0-0.1,0-0.1c0-2,1.2-3.5,3.6-3.5c2.2,0,3.6,1.4,3.6,3.3c0,2.7-3,4.5-4.6,6h4.6v1.6H107.2z"/>
		<path class="st2" d="M123.3,14.9c0,3.2-0.8,5.6-3.8,5.6s-3.8-2.4-3.8-5.6c0-2.9,0.7-5.6,3.8-5.6S123.3,12.1,123.3,14.9z
			 M117.7,14.9c0,2.3,0.3,4,1.8,4c1.5,0,1.8-1.7,1.8-4c0-2.1-0.3-3.9-1.8-3.9S117.7,12.8,117.7,14.9z"/>
		<path class="st2" d="M130.4,12.9c0,0.2,0,0.3,0,0.5c0.4-0.7,1.2-1.2,2.4-1.2c1.1,0,1.9,0.5,2.4,1.3c0.5-0.7,1.3-1.3,2.7-1.3
			c1.8,0,2.8,1.2,2.8,3.2v4.9h-1.8v-4.2c0-1.6-0.4-2.4-1.5-2.4c-1.1,0-1.7,0.9-1.7,2v4.6h-1.8V16c0-1.6-0.4-2.4-1.5-2.4
			c-1.2,0-1.7,0.9-1.7,2.2v4.4h-1.8v-6.7c0-0.4,0-0.8,0-1.2h1.8V12.9z"/>
	</g>
	<circle class="st3" cx="13.1" cy="14.9" r="9.5"/>
	<g>
		<g>
			<line class="st3" x1="146.7" y1="15.2" x2="155.7" y2="15.2"/>
			<line class="st4" x1="157.6" y1="15.2" x2="202.7" y2="15.2"/>
			<line class="st3" x1="203.6" y1="15.2" x2="208.6" y2="15.2"/>
			<g>
				<path class="st2" d="M194.2,25.3c-0.3-0.5-0.2-1.1,0.3-1.5l13.6-8.7l-13.6-8.7c-0.5-0.3-0.6-1-0.3-1.5s1-0.6,1.5-0.3l15,9.6
					c0.3,0.2,0.5,0.5,0.5,0.9s-0.2,0.7-0.5,0.9l-15,9.6c-0.2,0.1-0.4,0.2-0.6,0.2C194.7,25.8,194.4,25.6,194.2,25.3z"/>
			</g>
		</g>
	</g>
	<g>
		<g>
			<line class="st3" x1="26.1" y1="15.2" x2="31.1" y2="15.2"/>
			<line class="st5" x1="33.3" y1="15.2" x2="83.5" y2="15.2"/>
			<line class="st3" x1="84.6" y1="15.2" x2="94.6" y2="15.2"/>
		</g>
	</g>
</g>
</svg>
