<svg id="Calque_1" data-name="Calque 1" xmlns="http://www.w3.org/2000/svg" viewBox="0 0 300 300"><defs><style>.cls-1,.cls-11,.cls-6{fill:none;}.cls-1,.cls-11,.cls-2,.cls-3,.cls-5,.cls-7,.cls-8{stroke:#4285a2;}.cls-1,.cls-10,.cls-11,.cls-2,.cls-3,.cls-4,.cls-5,.cls-6,.cls-7,.cls-8{stroke-linejoin:round;}.cls-1,.cls-11,.cls-2,.cls-3,.cls-4,.cls-5,.cls-6,.cls-7,.cls-8{stroke-width:0.51px;}.cls-2{fill:#fff;}.cls-3,.cls-9{fill:#151413;}.cls-4{fill:#9cce7e;}.cls-4,.cls-6{stroke:#333;}.cls-5{fill:#f9ac6d;}.cls-7{fill:#385c77;}.cls-8{fill:#f3e8de;}.cls-10{fill:#ec7d93;stroke:#ad575c;stroke-width:0.25px;}.cls-11{stroke-linecap:round;}</style></defs><title>y_Plan de travail 14</title><path class="cls-1" d="M130.35,223.94s-27.87-.16-45.35-28.66-3.38-59.2-3.38-59.2"/><path class="cls-2" d="M103.49,214.65s-5,9.43-15.09,1.2C88.4,215.85,93.94,206,103.49,214.65Z"/><path class="cls-1" d="M88.4,215.85s7.62-3.08,15.09-1.2"/><path class="cls-2" d="M95,207.36s-5,9.42-15.09,1.2C80,208.56,85.49,198.68,95,207.36Z"/><path class="cls-1" d="M80,208.56s7.62-3.08,15.09-1.2"/><path class="cls-2" d="M87.21,199.72s-4.44,8.4-13.44,1.07C73.77,200.79,78.71,192,87.21,199.72Z"/><path class="cls-1" d="M73.77,200.79s6.78-2.75,13.44-1.07"/><path class="cls-2" d="M82.9,192.07s-6.36,7.06-13.3-2.24C69.6,189.83,76.52,182.5,82.9,192.07Z"/><path class="cls-1" d="M69.6,189.83s7.25-1,13.3,2.24"/><path class="cls-2" d="M79.45,184.4s-7.76,5.49-12.48-5.11C67,179.29,75.34,173.66,79.45,184.4Z"/><path class="cls-1" d="M67,179.29s7.29.61,12.48,5.11"/><path class="cls-2" d="M77.12,174.52s-6,4.22-9.59-3.93C67.53,170.59,74,166.27,77.12,174.52Z"/><path class="cls-1" d="M67.53,170.59a18.83,18.83,0,0,1,9.59,3.93"/><path class="cls-2" d="M76.33,167.07s-6.22,2.1-7.24-5.86C69.09,161.21,75.74,159.15,76.33,167.07Z"/><path class="cls-1" d="M69.09,161.21a16.91,16.91,0,0,1,7.24,5.86"/><path class="cls-2" d="M76.28,160.57s-5.89.5-5.09-6.67C71.19,153.9,77.46,153.52,76.28,160.57Z"/><path class="cls-1" d="M71.19,153.9a15.24,15.24,0,0,1,5.09,6.67"/><path class="cls-2" d="M76.28,152.65s-5.89.5-5.09-6.67C71.19,146,77.46,145.6,76.28,152.65Z"/><path class="cls-1" d="M71.19,146a15.31,15.31,0,0,1,5.09,6.67"/><path class="cls-2" d="M113.9,221.28s-6.41,12.1-19.36,1.54C94.54,222.82,101.64,210.15,113.9,221.28Z"/><path class="cls-1" d="M94.54,222.82s9.77-3.95,19.36-1.54"/><path class="cls-3" d="M85.94,191.89s6.09,1.22,9.81-.86,4.67-6.53-.61-10.26-10.35-1.19-11.38,2.7S85.3,191.78,85.94,191.89Z"/><path class="cls-3" d="M85.7,191.8a15.21,15.21,0,0,0,.33,5.66c.76,3.53,3.17,7.84,7.12,7.52a7.7,7.7,0,0,0,6.89-6.77c.35-3.13-2.28-6.35-7.19-6.2A44.26,44.26,0,0,1,85.7,191.8Z"/><path class="cls-3" d="M86.07,192.32a14.13,14.13,0,0,1-10.16,2.82c-5.72-.85-6.88-4.73-5.66-8.89s4.64-7.18,10-3.77S86.07,192.32,86.07,192.32Z"/><path class="cls-3" d="M85.84,192.87s2.54,6.91-.54,9.68-7.87.33-10.36-3,2.12-5.55,6-6.82S86.2,192,86.2,192A3.85,3.85,0,0,0,85.84,192.87Z"/><path class="cls-3" d="M85.73,192a3.8,3.8,0,0,0-2.36-.8c-1.61-.08-2.3-.4-2.13-1.06s.83-.29,1.53.09a11.25,11.25,0,0,0,1.71.73C85.16,191.19,86,191.76,85.73,192Z"/><path class="cls-3" d="M86.16,191a4.89,4.89,0,0,0,.6-2.55c-.14-1.26-.3-1.59.22-1.85s1,0,.82,1.16-.76,1.53-1,2.28A1.42,1.42,0,0,1,86.16,191Z"/><path class="cls-3" d="M86.55,192.63a6.15,6.15,0,0,0-1,2.42c-.14,1.2-.39,2.51-1,2.24a1.2,1.2,0,0,1-.3-2,5.13,5.13,0,0,0,1.47-1.75,10.06,10.06,0,0,1,.76-1.46Z"/><path class="cls-3" d="M87.31,192.66s.44,0,1.94,1.15,2.22,1.2,2,.5-.68-.95-1.44-1.18a18,18,0,0,1-2.07-.81C87.25,192.1,87.31,192.66,87.31,192.66Z"/><path class="cls-3" d="M86.63,193.3s.92.57,1-.19.08-.79.45-1,.25-.87-.25-1-.8-.08-.83-.62-.25-.82-.82-.34a1.47,1.47,0,0,1-1,.45c-.33.08-.74.25-.37.89s.51.48.62,1.28S86.27,193.78,86.63,193.3Z"/><path class="cls-4" d="M85.59,219.27s9.67-18.54,22.87-22.85l2.76.51s-11.79,3.61-24.39,22.34C86.83,219.27,85.64,220.36,85.59,219.27Z"/><path class="cls-4" d="M77.16,198.93s17.69-2.36,33.36-1.79,17.54,1.34,17.54,1.34.8-3.67-1.86-4.21-33.36-.63-47.86,2.85Z"/><path class="cls-2" d="M105.78,181.25s-1.22.78-4-1.52S97.12,176,95,176.09s-3.41-.65-3-3,5.63-5.73,10.2-1.05S105.78,181.25,105.78,181.25Z"/><path class="cls-2" d="M105.68,179.62c-1.4.38-2.41-2.59-6-4.61a4.13,4.13,0,0,0-5.62.9l0,.18a6.46,6.46,0,0,0,.88,0c2.12-.14,3.9,1.34,6.73,3.64s4,1.52,4,1.52a6.14,6.14,0,0,0,.08-1.67Z"/><path class="cls-2" d="M106.65,180.94s.73-1.13.55-6.21,1.89-5.72,4.15-6.47,3.31-2.58,3-3.62-5-1.76-8-.41-4.75,6.65-3.14,10.89S105,182.27,106.65,180.94Z"/><path class="cls-2" d="M104.58,171.32a6.89,6.89,0,0,0-.9,5.29c1.15,3.4,1.5,5.5,3,4.33,0,0,.73-1.13.55-6.21-.17-4.44,1.4-5.49,3.3-6.18C110.5,168.55,106.27,168.44,104.58,171.32Z"/><path class="cls-5" d="M105.06,177.87s-3.42-5.23-2.27-10.06.07-4.53-.28-4.29-1.72,5.17-.31,9.18S105.06,177.87,105.06,177.87Z"/><path class="cls-5" d="M104.66,178.8s-3.13-5.57-3.8-9.69-1.75-4.68-2.21-4.81-.14,1.5,1,4.1S103.05,178.25,104.66,178.8Z"/><path class="cls-2" d="M106.65,180.94s-2.77.88-5.57-3.14-4.74-6.3-6-6.93.94-3.71,4.35-2.82,4.11,2.64,5.14,6.53,1.86,5.49,2.32,5.58S107.13,180.87,106.65,180.94Z"/><path class="cls-4" d="M118.69,195.23s-4.75-.52-10.7-9.59c0,0-.82.25-2.39-1.9a20.59,20.59,0,0,0-3.16-3.47,5.5,5.5,0,0,1,2.07,0l.36-1.75a2.13,2.13,0,0,0,1.34,1c.81.08,1.13-1.59,1.13-1.59s.58.1,1.08,2.1-.47,2.94.82,5.06,5.89,8.57,9.88,9.34C119.12,194.38,119.25,195.36,118.69,195.23Z"/><path class="cls-5" d="M73.06,177.71s-5.44,3.88-3.88,8.91,6.39,8.61,11,6.43,4.56-7.11,2-11.84-6.17-3.67-7.22-3.64S73.27,177,73.06,177.71Z"/><path class="cls-5" d="M73.91,178s-.41,3.5-5.07,4.34-5.33-.11-8.11,0-4.49-.66-4.86-2.3,1.08-5.63,6.1-7.19,10.21,3,11.31,3.78S73.91,178,73.91,178Z"/><path class="cls-2" d="M63,180.71a10.2,10.2,0,0,1-6.18.81,6.07,6.07,0,0,0,3.94.85c2.78-.12,3.46.83,8.11,0a6.64,6.64,0,0,0,3.8-1.89,4.47,4.47,0,0,1-3,.18C67.81,180.17,66.54,179.18,63,180.71Z"/><path class="cls-5" d="M73.05,178s-5.25-2.12-6.39-7.42,2.48-8,5.57-8.67,7.62,3.81,8,8.21-5.29,7-5.29,7S73.91,178.41,73.05,178Z"/><path class="cls-5" d="M72.7,177.38a3.78,3.78,0,0,0-1.21-2.18c-1.14-1.14-1.44-1.83-.87-2.21s.8.34,1.07,1.09a11.49,11.49,0,0,0,.78,1.69C72.81,176.41,73.05,177.4,72.7,177.38Z"/><path class="cls-5" d="M73.67,176.94a4.84,4.84,0,0,0,2.16-1.49c.73-1,.83-1.37,1.4-1.22s.74.68-.18,1.41-1.57.63-2.23,1.05A1.41,1.41,0,0,1,73.67,176.94Z"/><path class="cls-5" d="M72.87,178.4a6.18,6.18,0,0,0-2.38,1.12c-.91.79-2,1.6-2.27,1a1.22,1.22,0,0,1,1.12-1.69,5.17,5.17,0,0,0,2.26-.3,9.77,9.77,0,0,1,1.54-.58Z"/><path class="cls-5" d="M73.41,178.94a5.24,5.24,0,0,1,.68,2.15c.37,1.85.84,2.39,1.17,1.74A1.74,1.74,0,0,0,75,181a18.49,18.49,0,0,1-1-2C73.75,178.48,73.41,178.94,73.41,178.94Z"/><path class="cls-5" d="M72.48,179s.3,1,.85.51.59-.54,1-.42.76-.47.48-.91-.54-.6-.21-1,.37-.78-.37-.81a1.47,1.47,0,0,1-1-.32c-.3-.16-.71-.31-.87.41s.06.7-.41,1.37S71.9,179.08,72.48,179Z"/><path class="cls-2" d="M67.63,210.57s.51,1.31-2.22,3.55-4.47,3.64-4.75,5.67-1.27,3.11-3.39,2.24-4.34-6.44,1-9.86S67.63,210.57,67.63,210.57Z"/><path class="cls-2" d="M66.07,210.35c.09,1.4-2.92,1.78-5.52,4.77a4,4,0,0,0-.24,5.5h.18a6.07,6.07,0,0,0,.17-.83c.28-2,2-3.43,4.75-5.67s2.22-3.55,2.22-3.55a6.19,6.19,0,0,0-1.56-.4A1.08,1.08,0,0,0,66.07,210.35Z"/><path class="cls-2" d="M67.51,209.69s-.93-.92-5.79-1.72-5-2.91-5.33-5.19-1.8-3.63-2.85-3.53-2.63,4.4-1.94,7.55,5.39,5.79,9.72,5.08S68.44,211.53,67.51,209.69Z"/><path class="cls-2" d="M58,209.79a6.63,6.63,0,0,0,4.84,1.87c3.44-.43,5.5-.36,4.68-2,0,0-.93-.92-5.79-1.72-4.23-.7-4.92-2.39-5.21-4.33C56.5,203.65,55.59,207.63,58,209.79Z"/><path class="cls-5" d="M64.3,210.6s-5.63,2.23-10,.21-4.28-.94-4.13-.56,4.58,2.62,8.65,2.07S64.3,210.6,64.3,210.6Z"/><path class="cls-5" d="M65.09,211.15s-5.88,1.9-9.91,1.74-4.78.76-5,1.17,1.39.42,4.07-.16S64.26,212.58,65.09,211.15Z"/><path class="cls-2" d="M67.51,209.69s.3,2.79-4.06,4.67-6.88,3.27-7.71,4.33-3.34-1.61-1.83-4.67,3.28-3.39,7.17-3.61,5.56-.7,5.74-1.12S67.53,209.21,67.51,209.69Z"/><path class="cls-2" d="M65.94,193.8s-.32,1.37-3.83,1.69-5.75.5-7.12,2-2.8,1.86-4.07,0,0-7.77,6.36-7.61S65.94,193.8,65.94,193.8Z"/><path class="cls-2" d="M64.77,192.75c-.71,1.2-3.42-.17-7.25.83A4,4,0,0,0,54.24,198l.14.1a5.57,5.57,0,0,0,.61-.59c1.37-1.52,3.6-1.7,7.12-2s3.83-1.69,3.83-1.69a6.39,6.39,0,0,0-1.07-1.2A1,1,0,0,0,64.77,192.75Z"/><path class="cls-2" d="M66.34,193s-.26-1.28-3.83-4.68S60,183.09,61,181s.55-4-.37-4.52-4.65,2.16-5.86,5.15S56,189.49,60,191.34,66.07,195.05,66.34,193Z"/><path class="cls-2" d="M58.4,187.74a6.66,6.66,0,0,0,3,4.27c3.09,1.57,4.75,2.79,5,1,0,0-.26-1.28-3.83-4.68-3.1-3-2.73-4.74-1.88-6.51C60.63,181.82,57.63,184.61,58.4,187.74Z"/><path class="cls-5" d="M63.16,192s-5.9-1.32-8.37-5.43-3-3.19-3.09-2.78,2.3,4.73,6,6.57S63.16,192,63.16,192Z"/><path class="cls-5" d="M63.51,192.86s-5.93-1.74-9.18-4.14-4.37-2.06-4.77-1.83S50.47,188,53,189,62,193.57,63.51,192.86Z"/><path class="cls-2" d="M66.34,193s-1.33,2.47-6,1.58-7.53-1.16-8.81-.76-1.86-3.2,1.11-4.89,4.62-.95,8,1.05,5,2.54,5.38,2.3S66.62,192.63,66.34,193Z"/><path class="cls-3" d="M78.44,196.94s0,.3-.47.17-1.36-3.37-3.63-4.83a4.4,4.4,0,0,1-4-.47c-2.07-1.33-2.42-4.9-2.42-4.9l.57-.12-.16-.7s.46-.72,3.25.32,3.57,2.9,3.27,5.08a11.87,11.87,0,0,1,3.15,4.6Z"/><path class="cls-6" d="M74.77,191.49a6,6,0,0,0-6.26-4.57"/><path class="cls-3" d="M78.13,196.52s.15,8.1-10.4,7.68A3.3,3.3,0,0,1,65.26,207c-2.23.47-6.2-1.15-6.2-1.15l.58-.57-1-.42a12.31,12.31,0,0,1,5.23-3.33c3.16-.95,3.95,1.66,3.95,1.66a8.22,8.22,0,0,0,6.6-1.39,8.52,8.52,0,0,0,3.33-5.29S78.23,196.07,78.13,196.52Z"/><path class="cls-6" d="M59.14,205.11s4.5-4.23,8.69-1.88"/><path class="cls-3" d="M70.46,202.74a2,2,0,0,0-2.54-.73c-1.81.59-4,4.45-4,4.45l.45.19.08.68s3.63.25,5.69-1,.53-3.37.53-3.37,5.6-2,7.46-5.36l-.29-.12S76.27,200.23,70.46,202.74Z"/><path class="cls-6" d="M64.33,206.65a6.65,6.65,0,0,1,6.3-3.65"/><path class="cls-3" d="M78,197s-5.14,3.36-13,1.76c0,0-.58,3.35-4.73,2.13s-5.42-2.28-5.42-2.28l.28-.66-.56-.09s2.72-3.2,6.44-2.94,3.82,2.85,3.82,2.85,1.69.47,6.7.21,6.19-1.56,6.19-1.56S78.5,196.69,78,197Z"/><path class="cls-6" d="M55.21,197.91s5-4.19,9.7-.18"/><path class="cls-3" d="M78.25,196.52s.32,6.13-5,12.09c0,0,2.6,2.18-.53,5.16s-4.69,3.54-4.69,3.54l-.43-.57-.36.44s-1.4-4,.69-7.05,4.38-1.88,4.38-1.88,1.25-1.22,3.54-5.69,1.76-6.13,1.76-6.13S78.25,196,78.25,196.52Z"/><path class="cls-6" d="M67.62,216.74s-1.12-6.43,4.71-8.49"/><path class="cls-3" d="M78,197a13,13,0,0,1-9-1.34,4.26,4.26,0,0,1-4.37.45,4.47,4.47,0,0,1-3-3.15l.64-.41-.13-.8a11.28,11.28,0,0,1,3.44,0c2.55.26,3.72,2,3.6,3.37,0,0,5.28,2.36,8.73,1.06C77.94,196.15,78.77,196.82,78,197Z"/><path class="cls-6" d="M62.27,192.31s4.56-.73,6.94,2.78"/><path class="cls-3" d="M78,197.37a13.1,13.1,0,0,0,3.88-8.29,4.27,4.27,0,0,0,2.78-3.4,4.48,4.48,0,0,0-1-4.2l-.7.31-.59-.55a11.08,11.08,0,0,0-1.89,2.88c-1.2,2.27-.41,4.19.82,4.86,0,0-.94,5.7-3.94,7.87C77.41,196.85,77.51,197.9,78,197.37Z"/><path class="cls-6" d="M82.87,181.66s-3.13,3.4-1.52,7.32"/><path class="cls-3" d="M77.66,197s3.47,8.1-3.19,17c0,0-1.79-.6-3.68,1.94s-.9,9.15-.9,9.15l.71-.21.11.55s3.13-.64,5.36-4.55a5,5,0,0,0-.87-6.44,22.61,22.61,0,0,0,4-10.29c.51-5.7-.76-7.59-.76-7.59S77.6,196.14,77.66,197Z"/><path class="cls-6" d="M70.34,225a22.42,22.42,0,0,1,.56-6.76,6,6,0,0,1,3.57-4.2"/><path class="cls-3" d="M77,197.9s.79,1.11-.71,3.11-5.12,1.18-5.12,1.18v-.44l-.53-.44s-.14-.82,1.54-3S76.6,196.91,77,197.9Z"/><path class="cls-6" d="M77,197.9a5.94,5.94,0,0,0-6.07,3.75"/><path class="cls-3" d="M78.14,196.42s-1.17-.19-1.49-2.34,2.41-3.89,2.41-3.89l.28.27.6-.06s.59.42.89,2.78S79,196.79,78.14,196.42Z"/><path class="cls-6" d="M78.14,196.42a5.18,5.18,0,0,0,1.41-6"/><path class="cls-2" d="M90.67,175.59s6.1,1.22,9.82-.86,4.66-6.53-.61-10.26-10.35-1.19-11.38,2.71S90,175.48,90.67,175.59Z"/><path class="cls-2" d="M90.44,175.5a15.21,15.21,0,0,0,.33,5.66c.76,3.53,3.17,7.85,7.12,7.52a7.7,7.7,0,0,0,6.89-6.77c.35-3.13-2.28-6.35-7.19-6.2A42.76,42.76,0,0,1,90.44,175.5Z"/><path class="cls-2" d="M90.81,176a14.15,14.15,0,0,1-10.16,2.82C74.93,178,73.77,174.11,75,170s4.64-7.18,9.94-3.77S90.81,176,90.81,176Z"/><path class="cls-2" d="M90.58,176.57s2.54,6.91-.55,9.68-7.86.33-10.35-2.95,2.11-5.55,6-6.82,5.27-.77,5.27-.77A3.85,3.85,0,0,0,90.58,176.57Z"/><path class="cls-5" d="M90.46,175.68a3.75,3.75,0,0,0-2.35-.8c-1.61-.08-2.3-.4-2.13-1.06s.83-.28,1.53.09a10.33,10.33,0,0,0,1.71.73C89.9,174.89,90.74,175.47,90.46,175.68Z"/><path class="cls-5" d="M90.9,174.71a4.85,4.85,0,0,0,.6-2.55c-.14-1.26-.3-1.58.22-1.85s1,0,.82,1.17-.76,1.52-1,2.27A1.45,1.45,0,0,1,90.9,174.71Z"/><path class="cls-5" d="M91.28,176.33a6.15,6.15,0,0,0-1,2.42c-.14,1.2-.39,2.51-1,2.25a1.21,1.21,0,0,1-.3-2,5.21,5.21,0,0,0,1.47-1.74,9.79,9.79,0,0,1,.76-1.47Z"/><path class="cls-5" d="M92.05,176.36s.43,0,1.94,1.15,2.22,1.2,2,.5-.68-.95-1.44-1.18A18.21,18.21,0,0,1,92.5,176C92,175.8,92.05,176.36,92.05,176.36Z"/><path class="cls-5" d="M91.37,177s.91.57,1-.19.08-.79.45-1,.25-.86-.25-1-.81-.08-.83-.61-.25-.83-.82-.35a1.42,1.42,0,0,1-1,.45c-.33.08-.74.25-.37.89s.51.48.61,1.29S91,177.48,91.37,177Z"/><path class="cls-2" d="M96.11,200.07a12.49,12.49,0,0,0,8.75-2.74c4.27-3.32,2.68-8.57-2.82-11.35s-9.64,1.37-10.48,5.2S95.63,200,96.11,200.07Z"/><path class="cls-2" d="M95,201.16s.08,6.24,4.28,9.33,10,.09,11-3.5-2-8.22-8.09-8.76S95,201.16,95,201.16Z"/><path class="cls-2" d="M95.61,201.4s-6.15,5.65-12.85,2.32-3.17-8.59-.6-10.46,7.65-1.42,10.75,2.25S96.15,201,95.61,201.4Z"/><path class="cls-2" d="M96.11,200.07s3.49,7.6,2.59,10.71-3.65,4.68-8.42,2.31-4.24-5.87-.51-9.57S96.11,200.07,96.11,200.07Z"/><path class="cls-5" d="M95.5,200.34a3.75,3.75,0,0,0-2.35-.8c-1.61-.08-2.3-.4-2.13-1.06s.83-.28,1.53.09a10.33,10.33,0,0,0,1.71.73C94.94,199.55,95.78,200.12,95.5,200.34Z"/><path class="cls-5" d="M95.93,199.37a4.85,4.85,0,0,0,.61-2.55c-.15-1.26-.31-1.59.22-1.85s1,0,.81,1.16-.75,1.53-.95,2.28A1.44,1.44,0,0,1,95.93,199.37Z"/><path class="cls-5" d="M96.32,201a6.15,6.15,0,0,0-1,2.42c-.14,1.2-.39,2.51-1,2.25a1.22,1.22,0,0,1-.3-2,4.9,4.9,0,0,0,1.47-1.75,10.06,10.06,0,0,1,.76-1.46Z"/><path class="cls-5" d="M97.08,201s.44,0,2,1.15,2.22,1.2,2,.5-.68-.95-1.45-1.18a18.74,18.74,0,0,1-2.07-.81C97,200.46,97.08,201,97.08,201Z"/><path class="cls-5" d="M96.4,201.66s.92.57,1-.19.07-.79.45-1,.25-.87-.25-1-.81-.08-.84-.61-.24-.83-.82-.35a1.41,1.41,0,0,1-1,.45c-.33.08-.74.25-.37.89s.5.48.61,1.29S96.05,202.14,96.4,201.66Z"/><path class="cls-5" d="M84.81,218.4s-5,.87-7.11,7.28,2.4,10.7,7.74,10.72,8.43-6.56,6.89-11.21a11.24,11.24,0,0,0-5.88-6.87A3,3,0,0,0,84.81,218.4Z"/><path class="cls-5" d="M86.1,219.14a12.38,12.38,0,0,1-11-2.16c-5-4.11-1.85-9.13-.54-10.82s8.25-1.26,11.36,3.62,1,8.26,1,8.26S86.57,219.49,86.1,219.14Z"/><path class="cls-5" d="M87.36,218.85s2.06.09,5.39-4.48,1.67-10.61-4.09-12.18S80,206.91,81,211.06a15.4,15.4,0,0,0,4.53,7.13s.75,1,1.48.83A.84.84,0,0,0,87.36,218.85Z"/><path class="cls-5" d="M87.18,219.45a20.34,20.34,0,0,0,6.51,8.86c4.68,3.44,10.56,1.59,11.66-3.57s-4-7.87-8.81-8.25a16.76,16.76,0,0,0-9.13,2.41S86.85,218.84,87.18,219.45Z"/><path class="cls-5" d="M86,220.42s.65,1-.58,1.93-1.7,3.1-.85,3.26,1.6-.67,1.2-1.37a1.32,1.32,0,0,1,.09-1.68A2.07,2.07,0,0,0,86,220.42Z"/><path class="cls-5" d="M85.38,219.27a8,8,0,0,0-2.31-.77c-1.33-.23-2.37-.72-2.14-1.57s1.31-.63,1.78.13a2.42,2.42,0,0,0,1.56,1.24C84.81,218.4,85.38,219.27,85.38,219.27Z"/><path class="cls-5" d="M86,219.05a22.85,22.85,0,0,1-.58-2.23c-.28-1.36.44-2.67,1.12-2.65s1,.33.42,1.28a5.25,5.25,0,0,0-.55,2.62A1.31,1.31,0,0,1,86,219.05Z"/><path class="cls-5" d="M87.24,220.16a2,2,0,0,1,2.19.68c1.12,1.17,2.54,1.09,2.41.37s-.5-.9-1.29-1a8,8,0,0,1-2.23-.49C87.65,219.44,87,219.94,87.24,220.16Z"/><path class="cls-5" d="M87.76,220.83s-.16.7-.74.35-.76-.47-1.24-.3-.88.1-.9-.53-.61-1-.26-1.39-.43-1.12.47-1.19.69.82,1.36.55,1.13-.39,1.15.17-.13.3.24.59A1.35,1.35,0,0,1,87.76,220.83Z"/><path class="cls-4" d="M120.19,196.47a11,11,0,0,0-1.12,12.07l.94.1s-3.6-6.29,1.31-11.89C121.32,196.75,121.1,195.11,120.19,196.47Z"/><path class="cls-2" d="M118.19,208.35s3.06,2,6.14,1.17,3.07-3.94,2.91-5.33-3.94-3.08-6.43-.85S118,208,118.19,208.35Z"/><path class="cls-2" d="M118.38,208.86s-1.44,3.56-.46,5.5,3.81,1.5,6,.13,3.1-4.28.37-5a51.42,51.42,0,0,0-6-1.24C118.19,208.35,118.26,208.19,118.38,208.86Z"/><path class="cls-2" d="M118.42,209.17a9.3,9.3,0,0,1-3.49,5.26c-2.76,1.84-5-.6-5.67-3.12s.64-5,4-4.87a6.69,6.69,0,0,1,4.6,1.66A.86.86,0,0,1,118.42,209.17Z"/><path class="cls-2" d="M118.32,208.45a31.23,31.23,0,0,1-5.33-2c-2.36-1.27-2.11-4.62-.66-6.21s5.79-2,7,1S118.78,208.81,118.32,208.45Z"/><path class="cls-5" d="M118,208.34a2.52,2.52,0,0,0,.15.95c.17.34,1,.51,1,.51a.36.36,0,0,1,.26-.44,2.86,2.86,0,0,1,.7-.08s-.39-.42-.1-.64l.3-.22s-.74-.19-.64-.68c0,0-.74.24-.81-.21,0,0-.41.43-.59.09A1.46,1.46,0,0,0,118,208.34Z"/><path class="cls-2" d="M111.74,178.86s-9.17-8.78-5.64-17.2,8.93-13,4.7-15.81-5.26-4.59-5.51-7.65S103,132.09,99.75,133s-4.23,6-1.29,7.52,2.58-2.11,2.58-2.11-2.23.59-2.11-1.41,2.58-2,3.41.58.47,6.94-4.82,7.06c0,0,.94,6.87-8.34,10.07s-13.87-7.56-10.82-13.11c0,0-7.67,2.35-10.12-2.3s.09-10.75,4.54-12c0,0-4.26-1.94-.76-7.27,0,0-5.07,2.51-8.63-1.93s0-9.93,0-9.93-5.08-.37-5.17-5.38,4.63-7.57,4.63-7.57-3.55-4.25-1-8.13a7.48,7.48,0,0,1,6.36-3.59A3.43,3.43,0,0,1,69.09,79c2.46-2.08,6.24,0,6.24,0a4.25,4.25,0,0,1,1.79-5.48c3.41-2,5.11.57,5.11.57s-1.23-2.74.38-3.69,3.31.66,3.31.66,4.16-8,12.66-5.57,7,11.43,5.58,15.22c0,0,4.25-.48,6.15,3.21s-1.14,7.47-3.22,6.81-.57-4.07,1.61-2.75c0,0-.29-1.32-2.18-1.32s-3.3,3.4-.18,6.33,7.75,6.46,5.48,13.25-2.84,13.36,2.08,15.7S124,127.3,123,132.69s2.46,8.13,4.73,12,2.93,7.28.94,11.16-.09,6.14.76,4.91.42-.37.42-.37-1.84-.57-.8-1.71,2.93.38,2.84,1.9-3.4,4.72-5.39,1.6,2.46-8.88,1-11.81-6.71-5.49-7.47-11.92-2.17-7.94-5-8-4.35-3-4.35-3a6.83,6.83,0,0,0,1,7.09c2.84,3.5,8.32,7.57,6.62,12.86s-6.81,9.36-3.21,14,1.6,7.56.47,10.4,2.84,4.35,3.69,2.17c0,0-1.89.1-1.52-1.32s2.46-1.13,2.84.95a2.93,2.93,0,0,1-3.49,3.59,5.32,5.32,0,0,1-4.07-6.9c1-3.88,1.13-6.05-.38-7.85s-2.55-2.55-1.8-4.06-4.63,3.68-3.12,10,4.26,10.1,6,10.53c0,0-1.13-1.17-.47-1.74s2.17.36,2.27,1.74S113.55,180.89,111.74,178.86Z"/><path class="cls-7" d="M117,112.78s-7.76,1.65-10.65-4.87,1-10.4,1-10.4-7.09-2.31-6.35-8.75,7.18-8.33,9.74-5.78a5,5,0,0,1,2.8-5.11c3.39-1.82,6,2.06,6,2.06s2.06-5.53,5.78-5.53S131,79.35,131,79.35s5.88-3.3,8.42,3.3c4.29,11.15-6.27,14.12-6.27,14.12a8.84,8.84,0,0,1,2.23,7.51c-.83,4.54-7.76,7.18-7.76,7.18s.49,3.71-4.29,4.46A5.68,5.68,0,0,1,117,112.78Z"/><path class="cls-1" d="M105.65,100.56s1.59-5.61,7-4.78,2.14,8.58-1.33,5.94,1.11-4.48,2.4-2.74"/><path class="cls-1" d="M131,79.35s-6.6,2.4-5.2,6.94,5.53,3.63,5.7.82-4-3.22-4.21-.58"/><path class="cls-1" d="M142.07,189.38a25.1,25.1,0,0,1-.41-12.55c1.65-7-1.73-11.31-4.62-14.53s-.75-8.17-2.64-12.46-4-5.61-6.61-6.77-2.72-2.56-2.64-7.34-5-8-8.09-9.41-5.4-8.84-3-13.38"/><path class="cls-1" d="M120.36,115.75s-.74,4.13,4.63,7.35,7,5.28,7.92,9.08,3.22,5.28,6.6,7.67,5,7.1,4.54,12.71.58,12.05,3.3,14.28,3.31,4.13,1.9,5.7"/><path class="cls-1" d="M124.14,115.75s.1,2.15,4,4.29,4.29,3.8,4.87,6.69,1.57,2.89,4.79,4.7,7.2,4.45,6.35,9.08"/><path class="cls-1" d="M126.72,114.27s-.58,1.56,3.3,3.22,4.25,3.46,5.14,6.19,2.28,5.11,5.3,5.94"/><path class="cls-1" d="M129.63,110.52s-.35,2.34,2.78,4.65,6,2.81,6.28,6.36"/><path class="cls-1" d="M132.36,108.71s-.36,1.84,2.2,3,3.38,1.81,3.8,4a3.93,3.93,0,0,0,2.56,2.89"/><path class="cls-1" d="M65.32,84.15s9.71-2.57,11.92,6-8.06,8.72-7.91,2.56,6.41-4.85,5.6,0c0,0-1.19,2.57-3.49,0s1.23-3,1.37-1.63"/><path class="cls-1" d="M72,120.06a8.06,8.06,0,0,0,5.42-9.38c-1.24-7.42-8.67-3.48-7.33,0s4.13,2.09,3.66.12"/><path class="cls-1" d="M90.36,77.43s-5.59-1.76-7.15,4.5S88.5,90.4,88.5,90.4s-2.63,1.27-2,3.47S90.11,97,90.11,97s-5.79,3.23-3.88,9S97.69,113.58,99,107.9s-5.76-2.6-4-.49,1.88.67,2.12,0"/><path class="cls-1" d="M97.41,139.67s-4.54-.79-6.21-6.73,1.62-9.08,1.62-9.08-3.21.68-4.39-2a4.28,4.28,0,0,1,.79-4.64s-6-.43-6.53-4.9S86.23,106,86.23,106"/><path class="cls-3" d="M194.19,155.36a1.24,1.24,0,0,1-.06,2.26c-1.73,1.16-3.32-1.63-2.21-3.64s5-4.57,9.82-2.22,7.66,10.39.44,16.89c0,0,.6,5.17-5.72,7.69,0,0-1.52,4.24-7.61,6.41s-16.29-.93-19.77-13.2,4.45-18.87,7.72-25.84-1-13.58-5.53-12.9-6.76,7.43-4.85,10,2.41,6.5-.78,6.34c0,0,.43,3.62-2.72,3.54,0,0,.08,2.5-2.14,2.3,0,0-.46,3.6-2.54,3.65,0,0-1.59,3.74-5.15,3.36s-3.86-3.63-1.84-4.3,2.52.68,1.39,1.36c0,0,1.76,1.81,2.49-1.18s-2.24-4.95-.78-7.27c0,0-1.64,5.31-4.22,4.89,0,0-.38,3.55-2.45,3.6,0,0-3.81,12.28-10.69,10.27,0,0-5,6.27-7.78,4.29,0,0-8.58,3.9-11.43.32,0,0-5-.77-5.65-3.31s1.27-4.12,2.76-3.79a1.8,1.8,0,0,1-.19,3.43s.85,2,4,1.63a13.2,13.2,0,0,0,6.36-3.31c0-.14-2.35-2.39-.64-4.52a2.3,2.3,0,0,1,4.18.86c.08,1.41-2.71,1.91-2.78.31,0,0,.26,3.33,4.09,1.77s5.85-5.15,4.94-8.9c0,0,3.93-.11,6-2.61s-.19-8.44-3.39-6.41c0,0,.34,4.57-2.51,6.18s-5.06-.32-4.6-2.19,3-1.27,2.62,0c0,0,2.11,0,2.21-2s-4.34-2-4.5-4.49c0,0-2.7,8.49-6.47,8.72,0,0-3.77,4.19-6.36,4.95s-3.48-.63-3.48-.63-1.86,2.16-4.06,1.95a3.52,3.52,0,0,1-2.9-1.67s-4.8-1-6.35-4.22.06-4.2.06-4.2-.64-2.11,2-3.85a3.27,3.27,0,0,1,5,3c-.42,2.07-2.7,2.13-2.54.91s1.08-.83,1.08-.83a1.89,1.89,0,0,0-2.43,0c-1.27,1,.14,5.11,3.29,3.71,0,0,1.08,2.14,5.49.19a9.44,9.44,0,0,0,5.13-6.74s-1.52.45-2.3-1.95S119,139,119,139s-2.94.88-3.59-.74c0,0-6.44,1-10-2.89s-2.93-7.85-.46-9.22,4.73,1.68,3.38,3.36-2.46-.31-2-.87c0,0-1.17,1.53.56,3.61s8.88,2.93,12.27,1c0,0-4-1.28-2.13-3.91a2.36,2.36,0,0,1,.63-2.57c1.23-1.09,2.91.12,2.55,1.16s-1.63.64-1.57.09c0,0-.86,2.12,3.17,1.9a15.34,15.34,0,0,0,7.5-2.51c0-.11-5-.66-7.86-4.58s-2-6.87.86-8.4,6.08,1.29,5.3,3.4-2.44,1.36-2.59.2.89-.93.89-.93-.74-.88-1.87.24-.15,3.92,2.27,4.72a17.86,17.86,0,0,0,5.89.5s-1-1.32,1.31-2.52a1.92,1.92,0,0,1-1.1-2,9.35,9.35,0,0,1-2.47-3.49,3,3,0,0,1,2.25-3.64c1.41-.3,2.83,1.46,2.07,2.61s-2.39.46-1.79-.46a1.44,1.44,0,0,0-.76,2c.56,1.55,4.57,3.19,7.36,2,0,0-1.25-1.13-1-2a5.72,5.72,0,0,1-2.09-2.59c-.63-1.68.49-3.35,1.58-3.12s1.34,1.77.42,2-.81-.49-.81-.49-.67,1.52,1.65,3.07,5.82.8,5.82.8,1-3.92,3.28-4.92,4.56,1.27,3.65,2.6-2.74.37-2.28-.77c0,0-.9,1,.24,2.78s7.22,1.84,9.09.61.46-2.21.46-2.21-2.87.58-3.49-1.36,2-3.65,5.52-4.56,7,1.17,7,1.17.09-1.6,3.52-3,13.42,2,19.79,9.5,7.42,20,1.69,28.3-11.7,10.78-10.37,18,9.51,9,15,4.82,4.24-10.77.79-12.16S192.81,154.27,194.19,155.36Z"/><path class="cls-1" d="M158.24,156.67s2.1-3-.39-7.8"/><path class="cls-1" d="M160.78,153s1-2.15-.62-5.56"/><path class="cls-1" d="M162.92,150.72s.82-2.38-.71-6"/><path class="cls-1" d="M165.64,147.18a11.37,11.37,0,0,0-1.44-4.82"/><path class="cls-1" d="M147.61,157.32a17.2,17.2,0,0,0,1-5.47,12.7,12.7,0,0,1,5-9.39"/><path class="cls-1" d="M160.39,140.92a15.56,15.56,0,0,0-6.13,7.88"/><path class="cls-1" d="M136.61,167.85s3.31-5,3.92-9.92"/><path class="cls-1" d="M129.21,171.69a13.58,13.58,0,0,0,7-7.9"/><path class="cls-1" d="M117.29,171.92a15.53,15.53,0,0,0,9.59-3"/><path class="cls-1" d="M125,166.66s2.18,2.55,7.2-1.11"/><path class="cls-1" d="M137.4,147.16s.1-5.75,7.21-10"/><path class="cls-1" d="M137.75,136.28c-.12.07-2.14-.25-4.4,2.68s-2.15,4.47-3,6.54"/><path class="cls-1" d="M171.28,123c-.17,0-9.67-2.25-18.37.83s-16.61,10.62-16.61,10.62"/><path class="cls-1" d="M168.88,126.78a36.32,36.32,0,0,0-13.34,1.37A23.18,23.18,0,0,0,145,135"/><path class="cls-1" d="M166.33,130.88a23.91,23.91,0,0,0-13.63,3.05c-7.48,4-8.59,7.44-8.59,7.44"/><path class="cls-1" d="M164.67,134.33a21.15,21.15,0,0,0-9.61,3c-4.12,2.78-4.51,4.68-4.51,4.68"/><path class="cls-1" d="M119.36,139.07s5.94-.42,8.57-4.83"/><path class="cls-1" d="M115.38,138.26s6.76-.44,11-4.27"/><path class="cls-1" d="M119.09,133.25a14.74,14.74,0,0,0,6.29-2.28"/><path class="cls-1" d="M128,127.08a15.73,15.73,0,0,0,14-1"/><path class="cls-1" d="M132.13,122.56s-.19.1,3.93.58,4.76.09,6.95-.75"/><path class="cls-1" d="M133.44,120s4.31,2.26,8.63.8"/><path class="cls-1" d="M139.24,117.11a6.65,6.65,0,0,0,3.12-.24"/><path class="cls-1" d="M181.92,145.5s6.32-9.24-2.83-21.37-24.52-5.36-24.52-5.36"/><path class="cls-1" d="M168.1,108.18s.43,3.49,3.35,3.11,1.71-3.18.63-2.78"/><path class="cls-1" d="M159,112.93a1.3,1.3,0,0,0,1-1.88c-.6-1.6-1.81-.68-2.21-.6"/><path class="cls-1" d="M179.47,110.83s7.32,2.93,9.66,15-8,21.55-8,21.55"/><path class="cls-1" d="M203,167.92a25.58,25.58,0,0,1-7.59,4.62"/><path class="cls-1" d="M196.46,176.34s-4.37,1.91-8.27.56"/><path class="cls-1" d="M190,171s-5.78,2.15-8.51-3.45S181,158,181,158"/><path class="cls-1" d="M182.06,171.7s-3.66-2.56-3.68-6"/><path class="cls-3" d="M164.59,112s-2.75-8-1.7-13,1.79-6.33.62-8.94-1.77-3.52-1.42-5.58-.38-6.09-3.07-7.62-5.26-3.55-6.39-6.09a5.51,5.51,0,0,0-6-3.44c-2.41.51-6.06,2.19-7.6,1.44s-6.13,1.59-5.09,2.71a8.35,8.35,0,0,1,1.93,6.86c-.62,2.94-1.16,5.83.93,7.42s3.2,2.81,3.52,3.79,1.15,3.37,7.37,4.34,5.12,5.16,8.06,6.73S161.94,111.09,164.59,112Z"/><path class="cls-8" d="M163.25,111.17s.38-2.65-2-6.64S153.63,98,150.46,94.29s-9-3.41-11.71-1.31-6.46,2.23-9.35,3.62-8.58,3.35-8.58,6.59-1.33,7.19-1.47,8.59,2.4,2.39,4.35,2.8,1.75-.88,3.9-3.57,1.86.43.75,1.95.17,4,2.16,2.68,2.73-1.8,4.56-.77,2.69.57,4.94-1,3.44,1.55,5-.49,1.7-3.39,4-2.6,3,.25,5.48-1.15S161.73,108.35,163.25,111.17Z"/><path class="cls-5" d="M151.7,105.41c-1.5,1.92-2.2,2.46-3.63,2-1.13-.33-3.33,3.6-6.64,6,1.4.07,2.37,1.54,3.54,0,1.52-2,1.7-3.39,4-2.6s3,.25,5.48-1.15,7.28-1.28,8.8,1.54a5.07,5.07,0,0,0,0-1.12,11.11,11.11,0,0,0-3.27-3.91C155.57,102.78,153.19,103.49,151.7,105.41Z"/><path class="cls-5" d="M137.48,115.31a4.84,4.84,0,0,0,1-.42A3,3,0,0,0,137.48,115.31Z"/><path class="cls-3" d="M162.92,110.66s.2-2.45-1-8.32-2.25-7.82-.55-11,3.52-5.45,3-7.62-1.49-3.26.3-4.57,4.43-3.39,4.12-5.81-.41-3.55,1.89-4.71,2.43-2.42,2.21-3.91,6.5-6.85,7.4-5.63,1.11,3.33,3.27,5a7.1,7.1,0,0,1,3.1,6.37c-.18,2.63-4.18,5.56-2.55,6.6s3.24,1.9,2.77,3.79-1.2,2.68,0,4.85-.42,4.86-3.3,6.92-4.42,1.8-7.34,6.55-7.87,9.45-9.37,12.32S163,113.37,162.92,110.66Z"/><path class="cls-8" d="M163.71,109.07s-.22-2.09,1.15-2,1.83.43,2-.51-.58-.92.25-1.45,1.07-.46,1.27-1.44-.15-1.35.33-2,.35-1.1,1.15-1.69-.81-1.25,1.41-2,2.77-.84,3.44-2.81.25-2.4,1.45-3.18S178.81,88,177,87s-2.77-.89-2.5-1.94-1.34-3-3-2.93-2.31-.14-2.32-.81-1.4-2.72-.44-3.92.76-1.39-.11-2.49a6.93,6.93,0,0,1-1.08-3c-.16-.51-1.75,0-2,2.27s-.21,3.88-1.67,4.3-2.84-.7-3.44.72-.36,1.86-1.39,3-3.22,2.43-3.34,4.36,0,1.44-1.21,2.21S153,90.49,154,91.7a2.7,2.7,0,0,1,.45,3.2c-.4,1.14-.71,2,.41,3s.94,1.64,1.15,3.07a5,5,0,0,0,2.38,3.89c1.55.81,1.47,1.68,2.12,3.31S162,109.87,163.71,109.07Z"/><path class="cls-9" d="M161.8,107.39s.51-1.41-.27-1.65-1.28.41-.81,1A1.83,1.83,0,0,0,161.8,107.39Z"/><path class="cls-9" d="M162.83,107c0-.11.31-6,.64-6.2s.6.27.4.86a3,3,0,0,0-.06,2.1c.3.67.43.58.08,1.25s-.51.67-.58,1.27S162.79,107.67,162.83,107Z"/><path class="cls-9" d="M162.57,106.83c0-.06.53-5.7.41-5.93s-.91.43-.79,1a1.65,1.65,0,0,1-.07,1.43c-.33.78-1,1-.61,1.35a2.19,2.19,0,0,1,.83,1.71C162.33,107.18,162.28,107.3,162.57,106.83Z"/><path class="cls-9" d="M163.77,106.27a3,3,0,0,1,.88-1.51c.36-.2.23.11.15.68S163.87,106.42,163.77,106.27Z"/><path class="cls-9" d="M165.26,105.86c0-.14.55-1.25.86-1.18s.13.52.12.86,0,.58-.32.58S165.3,106,165.26,105.86Z"/><path class="cls-9" d="M165,104.07s-.55-.95-.1-1.08.24.18.62.24.28-.21.38.06S165.39,104.4,165,104.07Z"/><path class="cls-9" d="M166.55,104.15s-.07-1.45.46-1.58.69.09.42.69S166.87,104.42,166.55,104.15Z"/><path class="cls-9" d="M165.71,102.14c0-.11.87-1.23,1.36-1.3s.18.4-.11.87S165.79,102.63,165.71,102.14Z"/><path class="cls-9" d="M165.35,100.64s.37-.64.79-.63.64-.15.51.3-.24.7-.72.77S165.14,100.93,165.35,100.64Z"/><path class="cls-9" d="M161.17,102.27c.07,0,.28,0,.45.33a.53.53,0,0,1-.29.75c-.23,0-.43-.39-.53-.52S160.86,102.4,161.17,102.27Z"/><path class="cls-9" d="M159.35,101a.87.87,0,0,1,1.12.44c.36.68-.08,1.69-.34,1.4S159,101.27,159.35,101Z"/><path class="cls-9" d="M160.28,103.93c.05-.09.4-.56.68-.18s.31,1-.14,1S160.07,104.31,160.28,103.93Z"/><path class="cls-9" d="M159.61,104.9c0-.08-.07-.38.34-.11s.61.43.57.66-.25.64-.46.36S159.53,105.12,159.61,104.9Z"/><path class="cls-9" d="M159.07,102.76c0-.07.34-.32.56.22a.91.91,0,0,1-.08,1c-.11.23-.33.65-.57.31A1.84,1.84,0,0,1,159.07,102.76Z"/><path class="cls-9" d="M157.78,101.89c.06-.21.53-.6.76-.29s.28.84.08.82S157.56,102.56,157.78,101.89Z"/><path class="cls-9" d="M159.44,99.27c.15-.08.42.53.5.77s-.09.63-.42.44S158.83,99.59,159.44,99.27Z"/><path class="cls-9" d="M160.47,99c.1-.08.7,0,1.12.71s.5,1.78,0,1.6-.43-.66-.71-1.21A4.66,4.66,0,0,1,160.47,99Z"/><path class="cls-9" d="M162.84,100.15s1.37-2.38.7-3-.86.15-.74.63a2.16,2.16,0,0,1-.09,1.32C162.56,99.67,162.37,100.43,162.84,100.15Z"/><path class="cls-9" d="M164.08,99.83a3.56,3.56,0,0,0,.65-1.68c0-.8.53-1.45.37-1.57s-.81.08-1,.63S163.68,99.77,164.08,99.83Z"/><path class="cls-9" d="M164.29,100.14s1.3-1.41,1.66-1.1-.12.46-.56.78S164.14,100.51,164.29,100.14Z"/><path class="cls-9" d="M166,98.07s-.07-1.61.69-1.76.74.19.33.82S166.2,98.33,166,98.07Z"/><path class="cls-9" d="M167.14,98a1.48,1.48,0,0,1,1.2-1c.85,0,1.12.59.79.67s-.37-.34-.88.05S166.84,98.52,167.14,98Z"/><path class="cls-9" d="M167.14,99.1s.5-.86.81-.52a1.16,1.16,0,0,1,.32.53c.06.1-.2.19-.67.26S166.94,99.39,167.14,99.1Z"/><path class="cls-9" d="M167.3,100.26c-.08-.07,1.26-.84,1.46-.45s.07.51-.26.69A1,1,0,0,1,167.3,100.26Z"/><path class="cls-9" d="M161.51,98.06a4,4,0,0,0-.07-1.46c-.19-.45-.94-.67-1-.39a1.15,1.15,0,0,0,.3.91c.23.24.24.07.26.59S161.24,98.37,161.51,98.06Z"/><path class="cls-9" d="M162,99.55a4.7,4.7,0,0,0,.44-1.29c.05-.56-.36-.9-.39-.42S161.68,99.62,162,99.55Z"/><path class="cls-9" d="M160,98.4s-.12-.1-.34-.85-.28-.93-.52-.56-.49.82,0,1.35S159.88,98.72,160,98.4Z"/><path class="cls-9" d="M162.36,95.07s.22-1.52-.61-2-1.63-.18-1.67.66.52,2,.91,1.62-.06-1.28.27-1.16.14.38.39.78S162.11,95.48,162.36,95.07Z"/><path class="cls-9" d="M163.51,96a2.24,2.24,0,0,0,.91-1.4c0-.76-.79-2-.83-1.39s.18.72,0,1.45S163.17,96,163.51,96Z"/><path class="cls-9" d="M165.31,95.16s1.1-1.78,2.14-1.73,1.44.45.82,1.1-1.13,1.55-1.41,1.23,0-.85,0-1.05.14-.34-.46.18S165.28,95.58,165.31,95.16Z"/><path class="cls-9" d="M168.62,95.62s1.48-1.32,2.73-.83.75,1.18.32,1.19-.31-.46-1.16-.07-1.15.49-1.55.31S168.38,95.81,168.62,95.62Z"/><path class="cls-9" d="M169.58,97.25s.8-1,1.18-.8.64.36.15.53-.4.27-.67.38S169.52,97.5,169.58,97.25Z"/><path class="cls-9" d="M169.38,93.53c.09,0,.56-.45,1,0s.33.64-.13.66a3.6,3.6,0,0,1-1-.12C169,94,168.91,93.57,169.38,93.53Z"/><path class="cls-9" d="M172.55,93.89c.07,0,1.46-.1,1,.39s-.58.65-1,.32S172.28,93.91,172.55,93.89Z"/><path class="cls-9" d="M173.48,92.78c.07,0,.94-.84,1.19-.52s.33.77-.19.91-.65.24-1,.17S173.1,93.09,173.48,92.78Z"/><path class="cls-9" d="M169.9,92.2a1.81,1.81,0,0,1,2-.44c1.23.34,1.24.37,1,.77s-.56.74-.89.46-.23-.45-.74-.38S169.65,92.59,169.9,92.2Z"/><path class="cls-9" d="M165.28,93.63A4.7,4.7,0,0,0,167,91.14c.16-1.31-.42-1.72-.77-1.27a2.29,2.29,0,0,0-.41,1.65,1.31,1.31,0,0,1-.26,1.12C165.29,93.08,164.9,93.76,165.28,93.63Z"/><path class="cls-9" d="M162.81,93.37a6.52,6.52,0,0,1,.14-2.13c.38-1.39.51-2.11.28-2.22a.87.87,0,0,0-1,.45,5.33,5.33,0,0,0,.21,2.21C162.61,92.45,162.45,93.56,162.81,93.37Z"/><path class="cls-9" d="M161.37,92.1s.2-.34-.24-.8-.88-1.06-.67-1.51.13-1-.31-.81a1,1,0,0,0-.64,1.31c.27.57.07,1,.79,1.4A2.2,2.2,0,0,0,161.37,92.1Z"/><path class="cls-9" d="M158.5,90.25a.85.85,0,0,0-.28-.71,1.84,1.84,0,0,1-.68-.86c-.16-.37-.8-.11-.9.26s.1.44.63.84S158.51,90.48,158.5,90.25Z"/><path class="cls-9" d="M158.91,91.55s0-.36-.65-.65-1.11-.33-1.45.15-.31,1.14,0,1,.43-.36.72-.43-.07-.17.44-.07S159,91.72,158.91,91.55Z"/><path class="cls-9" d="M156,91.55s-.41-.89-.84-.54a.87.87,0,0,0,.18,1.32c.4.24.78.17.84,0A1.37,1.37,0,0,0,156,91.55Z"/><path class="cls-9" d="M159.07,93s-.71-.68-.95-.36-.55.8-.16,1,.49.34.83.1S159.16,93.06,159.07,93Z"/><path class="cls-9" d="M159.32,95a1.92,1.92,0,0,0-1.56-.89c-1,0-1.8.69-1.06.82s.89,0,1.34.09.05.21.76.29S159.47,95.19,159.32,95Z"/><path class="cls-9" d="M156,95c0-.11-.62-.44-.79-.1s-.32.7,0,.83.14.39.6.23S156,95.11,156,95Z"/><path class="cls-9" d="M158.2,96s-1.68-.07-1.56.4a3.2,3.2,0,0,1,.21.92c0,.45-.09,1.42.52.82s.14-.93.37-1.35A5.29,5.29,0,0,0,158.2,96Z"/><path class="cls-9" d="M156.94,98.88s.8-.54,1.33-.2.47.79.14.77-.09-.43-.57-.22S156.71,99,156.94,98.88Z"/><path class="cls-9" d="M158.66,100.48s-1.68-.6-1.5,0,.55.6.87.44A3,3,0,0,0,158.66,100.48Z"/><path class="cls-9" d="M167.37,92.65a3,3,0,0,0,2.13-1c.68-.94-.05-1.84-.59-1.64s-.67.6-.43.78.37.12.11.56A2.51,2.51,0,0,1,167.37,92.65Z"/><path class="cls-9" d="M171,90.81c.11,0,1.41.29,1.82-.13s.3-1-.11-.73-.41.48-.89.5S170.66,90.75,171,90.81Z"/><path class="cls-9" d="M172.4,89.33a.84.84,0,0,0,1.16-.31c.52-.7-.05-1.31-.09-1.12a3,3,0,0,1-.59.82C172.74,88.84,172.09,89.24,172.4,89.33Z"/><path class="cls-9" d="M174.53,89.05c.09,0,1.24-.26,1-.69s-.48-.7-.73-.28S174.07,89.16,174.53,89.05Z"/><path class="cls-9" d="M171.58,89.34s.31.38.46-.3-.19-.83.3-1.2.46-.89.11-.76-.92,0-1.16.88S171.2,89.06,171.58,89.34Z"/><path class="cls-9" d="M169.47,89.07s.43-.93.95-.66.61.77.08.9S169.26,89.42,169.47,89.07Z"/><path class="cls-9" d="M173,86.29c.05.07.92.79,1.32.38s.07-1.11-.31-1S172.7,86,173,86.29Z"/><path class="cls-9" d="M170.6,85.16c.06-.08,1.24-1.57,2.19-1.51s1.25.66.49,1a9.39,9.39,0,0,0-1.75.66C170.93,85.71,170.16,85.7,170.6,85.16Z"/><path class="cls-9" d="M167.72,87.1a3.91,3.91,0,0,0,.92-.54c.69-.53.71-.92,1.16-.58s.36,1-.17,1.57-1.34,2-1.59,1.61,0-.76.22-1.07.41-.63.12-.58S167.36,87.43,167.72,87.1Z"/><path class="cls-9" d="M166.85,86.54a1.59,1.59,0,0,0,1.55-.65c.48-.82.39-1.36-.13-1.12s-.77.82-1.05,1.07S166.52,86.55,166.85,86.54Z"/><path class="cls-9" d="M166.14,85.46s.36.3.94-.69.48-1.25.93-1.63.43-1,0-.7a2.75,2.75,0,0,0-1.36,1.27C166.3,84.48,165.67,85.37,166.14,85.46Z"/><path class="cls-9" d="M165.29,84.8a6.2,6.2,0,0,0,1-1.78c.35-1,.24-1,.74-1.36s.22-.94-.23-.78-1.18.19-1.25,1a6.76,6.76,0,0,1-.16,1.5C165.24,84.05,164.84,85,165.29,84.8Z"/><path class="cls-9" d="M166.09,79.56c0-.1.1-1.25.91-1.25s1.13.19.52.72a6.23,6.23,0,0,0-1,1C166.31,80.31,166,79.92,166.09,79.56Z"/><path class="cls-9" d="M162,79.14a1.1,1.1,0,0,1,.39,1.11c-.11.53-.33.81-.51.51s.24-.62-.33-.93S161.24,79,162,79.14Z"/><path class="cls-9" d="M163.07,81a2.34,2.34,0,0,1,1.15,2c.17,1.47-.21,2.57-.38,1.9s-.94-1.37-1.1-2.33S162.67,80.84,163.07,81Z"/><path class="cls-9" d="M166,87.64s-.7-.75-1,.24a24.89,24.89,0,0,0-.72,3.55,12.67,12.67,0,0,0,.69-1.76,3.71,3.71,0,0,1,.58-1.11C165.83,88.11,166.07,87.89,166,87.64Z"/><path class="cls-9" d="M163.14,86.44c.08,0,.89-.41,1,.38A12.64,12.64,0,0,1,164,90a8.28,8.28,0,0,0-.26-1.63C163.47,87.82,162.91,86.54,163.14,86.44Z"/><path class="cls-9" d="M163.17,85.13c0-.11.18-.92-.38-1.42s-1-.6-1,0a2.24,2.24,0,0,0,.56,1.49C162.75,85.49,163.29,85.47,163.17,85.13Z"/><path class="cls-9" d="M160.46,84.84c.16-.09,1.08.51,1.45,1s-.18.31-.2.64a3.59,3.59,0,0,0,0,.93c.06.45-.25,1.42-.56.52S159.89,85.16,160.46,84.84Z"/><path class="cls-9" d="M159.21,87.21c.15-.06.56.19.66.6s-.25.74-.58.4S158.82,87.35,159.21,87.21Z"/><path class="cls-9" d="M160.31,81.89a6.71,6.71,0,0,1,.81,1.93c0,.33-.14-.2-.66-.45S159.7,81.74,160.31,81.89Z"/><path class="cls-9" d="M158.7,83.61a1,1,0,0,1,.25,1.12c-.26.72-.1,2.08-.48,1.62a4.46,4.46,0,0,1-.72-1.59C157.77,84.65,158.1,83.27,158.7,83.61Z"/><path class="cls-1" d="M167.65,110.26s6.36-11.76,2.4-25.18S155.66,72,148.61,73.1"/><path class="cls-1" d="M166.71,109.65s6.55-6.77,3.59-18.15S162.81,78.75,159,79.57"/><path class="cls-1" d="M165.46,108.61A30.91,30.91,0,0,0,163.25,87c-5.57-11-10.84-11.54-16.11-10.84"/><path class="cls-1" d="M164.43,107a31,31,0,0,0-8.12-19.77c-8.39-8.86-11.74-8.57-11.74-8.57"/><path class="cls-1" d="M164.62,110.34s-.34-11.74-6.76-17.56S147.72,88,147.72,88"/><path class="cls-1" d="M166.78,112S161,93.26,149.73,91.13"/><path class="cls-1" d="M165.87,113.41s4.57-17.89-3.24-25S147,83.51,147,83.51"/><path class="cls-1" d="M162.77,110.31s-1.24-14.07-10.92-15.83"/><path class="cls-10" d="M151,94.85c1.08-.43,1.74-1.29,1.49-1.92s-1.33-.78-2.41-.35-1.74,1.3-1.48,1.92S149.94,95.29,151,94.85Z"/><path class="cls-10" d="M151.76,95.87c1.08-.43,1.74-1.29,1.49-1.92s-1.33-.79-2.41-.35-1.74,1.29-1.48,1.92S150.69,96.31,151.76,95.87Z"/><path class="cls-10" d="M149.6,91.75c1.15,0,2.07-.63,2.05-1.3s-1-1.19-2.15-1.15-2.08.64-2.05,1.31S148.44,91.8,149.6,91.75Z"/><path class="cls-10" d="M150,93c1.16,0,2.08-.64,2-1.31s-1-1.19-2.15-1.14-2.07.63-2.05,1.3S148.8,93,150,93Z"/><path class="cls-10" d="M147.42,88.47c1-.65,1.43-1.63,1.05-2.19s-1.46-.49-2.42.16-1.44,1.62-1.06,2.19S146.46,89.12,147.42,88.47Z"/><path class="cls-10" d="M148.36,89.31c1-.65,1.44-1.63,1.06-2.19s-1.46-.49-2.43.16-1.43,1.62-1.05,2.19S147.4,90,148.36,89.31Z"/><path class="cls-10" d="M147,83.54c1-.65,1.43-1.63,1.05-2.19s-1.46-.49-2.42.16-1.43,1.62-1.06,2.18S146,84.19,147,83.54Z"/><path class="cls-10" d="M147.89,84.38c1-.65,1.44-1.63,1.06-2.19s-1.46-.49-2.43.16-1.43,1.62-1.05,2.19S146.93,85,147.89,84.38Z"/><path class="cls-10" d="M144.24,78.62c1.06-.72,1.58-1.8,1.17-2.42s-1.62-.54-2.68.17-1.58,1.8-1.17,2.42S143.18,79.33,144.24,78.62Z"/><path class="cls-10" d="M145.29,79.54c1.06-.71,1.58-1.79,1.16-2.41s-1.62-.55-2.68.17-1.58,1.8-1.16,2.42S144.22,80.26,145.29,79.54Z"/><path class="cls-10" d="M148.21,77c1.06-.71,1.58-1.8,1.17-2.42s-1.62-.54-2.68.18-1.58,1.79-1.17,2.41S147.15,77.73,148.21,77Z"/><path class="cls-10" d="M149.26,77.94c1.06-.72,1.58-1.8,1.16-2.42s-1.62-.54-2.68.17-1.58,1.8-1.16,2.42S148.19,78.65,149.26,77.94Z"/><path class="cls-10" d="M149.19,73.34c1.06-.72,1.58-1.8,1.16-2.42s-1.61-.54-2.67.17-1.59,1.8-1.17,2.42S148.13,74.05,149.19,73.34Z"/><path class="cls-10" d="M150.23,74.26c1.07-.71,1.59-1.79,1.17-2.41s-1.62-.55-2.68.17-1.58,1.8-1.16,2.41S149.17,75,150.23,74.26Z"/><path class="cls-10" d="M159.38,79.76c1.06-.71,1.58-1.79,1.17-2.41s-1.62-.55-2.68.17-1.59,1.8-1.17,2.42S158.32,80.48,159.38,79.76Z"/><path class="cls-10" d="M160.43,80.69c1.06-.71,1.58-1.79,1.16-2.41s-1.62-.55-2.68.17-1.58,1.79-1.16,2.41S159.36,81.41,160.43,80.69Z"/><path class="cls-8" d="M162.7,112.37c-.07-.25,3,.28,6.16-4.47s6.68-11.85,10-11.65a5.81,5.81,0,0,0,5.56-2.3c1.17-1.28,4.4-3.46,6.82-2s5.54,4.54,9,3,2.78-2.21,4.16-2.67,1.18-1.6,2.2-2.47S210.26,87,212,88.4s-1,3.17-.13,3.55,3.51.9,3.38,3-5.14,3.93-7.93,3.19-9.13.16-11.63,1.68-4.6.69-5.75.52-1.71,1.76-2.91,3.16-3.26,1.15-3.82,2.24-.41,6.56-2.7,7.72-2.56-2.09-3.42-2.53a3.11,3.11,0,0,0-3.67,0C171.61,112,163.16,114.07,162.7,112.37Z"/><path class="cls-5" d="M149,110.78s1.14.94,4.48-1.87,3.6-1.92,5-1,1.78.64,3.14,0,2.66.69,5.05,2.09,2.81,1.23,4.56-.12,2.3-1.81,3.78-.35,2.17,1.54,2.17,1.54-2.6,2.33-5.32,2.2-2.12,3.07-4.2,4.73-5.7,3.72-7.13.22-2.37-7.69-4.44-7.63S150.74,112.68,149,110.78Z"/><path class="cls-5" d="M215.25,94.93c.13-2.08-2.5-2.6-3.38-3a.26.26,0,0,1-.18-.23c-.41-.42,1.23-1.69.72-2.87a1.67,1.67,0,0,0-.41-.45c-1.74-1.4-4.47.56-5.49,1.42s-.82,2-2.2,2.47-.83,1-3.54,2.37c-.24.54-1.36,2.52-5.24,3.4-4.49,1-4.85,2.38-4.85,2.39a6.4,6.4,0,0,0,5-.7c2.48-1.53,8.83-2.47,11.62-1.75.33.08.86.18,1.51.29C211.59,98.26,215.14,96.67,215.25,94.93Z"/><path class="cls-8" d="M165.89,122.09a15.09,15.09,0,0,1,4.91-5c2.63-1.59,1.82-3.44,1.82-3.44a12.8,12.8,0,0,1-4.7,2c-1.85.4-2.28,1.24-2.36,1.79,0-.26,0-.62-.05-1.18-.09-1.69-2-3.6-2-3.6a4.42,4.42,0,0,0-1.84,4.14c-2.68-4.52-8.31-2.47-8.31-2.47a11.15,11.15,0,0,0,2.44,1.05c1.82.62,2,1.89,3.16,5.12a2.54,2.54,0,0,0,3,1.93,21,21,0,0,0,8.64,13c10.7,7.77,17.9,13.49,19.12,17,0,0,1.69-.67,2.19-3.59s-4.39-6.68-11.28-10.65c-6.18-3.56-13.66-8.32-15.36-15.95C165.54,122.44,165.72,122.44,165.89,122.09Z"/><path class="cls-7" d="M159.3,190.63a2.8,2.8,0,0,1,3.67-1.17c2.6,1,1.9,5-2,5.68-3,.56-6.79-2.81-8.71-6.14a10.81,10.81,0,0,1-1.13-2.67,4.8,4.8,0,0,1-4.81-2.15,11.88,11.88,0,0,1-1.82-6,4.33,4.33,0,0,1-3.6-3.31c-.84-3.06,1.33-7,1.33-7s-3.15-2.05-1.12-8,11.16-7.06,11.16-7.06-1.94-7.15,13.2-5.16,38.69,11.53,46.39,35.12c0,0,4,2.74,9.28,12.31s2,17.45-2.84,19.23-6.72-1.58-6.72-1.58-5.18,4.23-1.19,7.89,7.1,2.41,7.28.68c0,0-2,.28-2.3-1.1s3.24-5.15,6.22-1.86-2.35,10.87-8.83,7.76c0,0-3.18,4.86.48,7.26s5.19.15,4.31-.91c0,0-1.8.5-2.2-1.17s1.84-4.09,5-1.19-.42,6.46-3.6,6.64c0,0,3.7,3.61,7.29,2s2.64-2.85,2.64-2.85a2.55,2.55,0,0,1-3.06-1.63c-.81-2.21,3.72-4.52,6.3-1.43s0,12.28-11.55,8.83c0,0-1.54,3-6.85,1.84s-10.07-6.18-10.07-6.18-1.94,1.34-3.65.54a15.35,15.35,0,0,1-3.32-2.29s-1.56,3.64-.07,5,2.66.58,2.66.58,1-2.73,3.12-.75.23,6.34-3.25,4.17a5.77,5.77,0,0,0,3.62,4.15c3.18,1.29,3.28-1.36,3.28-1.36s-1.87.3-2.34-.82,3.09-4.05,5.79-.31-3.46,8.63-7.41,6.32c0,0,.66,3.81,3.68,3.74s4.73-1.72,6.64.66-.87,5.2-.87,5.2,3.24,1.37,5.58.22,3-5.46.41-6c0,0-.07,2-1.56,1.68s-3.09-3.45.75-4.39,6.65,3.11,6.11,7.45-9.64,9.23-18.1,3.56c0,0-6,1.19-12.21-5.43s-6-13.32-6-13.32a7.28,7.28,0,0,1-5.53-5s-.58,3.63-3.55,2.31-3.78-5-3.78-5-2.45,2-4.24-1.23c0,0-2.72,4.38.08,8.42s5.35,2.86,5.35,2.86a2.65,2.65,0,0,1-2.44-2.1c-.42-2,2.3-4.44,5.06-.62s-1.64,11.69-11.43,6c0,0,.83,4-3,5.54s-6.08-2.18-6.08-2.18a4.32,4.32,0,0,1-5.76-2.42s-1.16,5.3.69,7.1,3.26,1.72,3.26,1.72-3.88,4.65-.57,7.57,7-.36,5.81-2.91c0,0-1.78,2.7-3.58,1s.84-5.43,4.16-3.63a5.82,5.82,0,0,1,.38,9.8c-3.79,3-8,.49-8,.49a8,8,0,0,0,2.53,6c2.88,3,5,2.25,5,2.25s-2.28-.74-1.72-2.27,4.31-2.76,6.09.57-5,9.67-13.86,2.82-8.1-21.68-8.1-21.68-2.94-.48-4.57-4.91,4.21-14.49,4.21-14.49-2.79.38-3.77-2.07a8.31,8.31,0,0,1-.39-4.75s-3.25,3.19-2.85,5.84-2.46,4.56-4,6.59-.8,4.65.78,4.94c0,0-1.44-1.25,1.54-2.51s4.28,6-.45,6.24-8.11-5.2-5.35-11.34c0,0-4.77-5-2.62-11.79,0,0-8.82,8.36-10.12,15.12s2.06,8.29,4.77,7c0,0-3-.7-2.46-2.94s2.72-3.89,4.83-1.42,2.14,9.69-3.71,10.41-14.28-8.66-10.89-19.82c0,0-3.06-.15-2.78-4.18s4.19-7.82,4.19-7.82-2.81-.47-.55-5.13,10.63-9.23,13.54-4.05c0,0-2.94-.49-3.37,2.05s3.92,4.54,6,1.83.15-3.56-1.94-6.65-.47-9.11,4.25-7.75a6.05,6.05,0,0,1-.92-5c.8-2.69,5.35-2.68,5.35-2.68s-4.71-2.84-8.19-1.57-3,3-3,3,1.54-1.53,2.71.17-2,4.62-4.63,3-5.14-5.84,0-9.33a12.08,12.08,0,0,1,10.5-1.4s-2.85-2.64,3.05-5.25,16.34,0,22.06,3.66,1.84,10.9-2.35,9.76-3.86-5.45-1.51-6.73c0,0-3.1-.36-4,3.64s5.2,12.44,15.89,10.65,15.23-10.62,12.25-17.84S160.52,184.42,159.3,190.63Z"/><path class="cls-11" d="M152.47,189.33S149,184,151.94,180s6-2.84,6-2.84"/><path class="cls-11" d="M144.7,180c0-.21-1.71-7.71,7.33-9.64"/><path class="cls-11" d="M141.78,168.81s4-9.34,21.32-4"/><path class="cls-11" d="M151.47,152.9s20.51-7.21,44.68,14.82"/><path class="cls-11" d="M202.44,238.21s-9.31-7.33-11-16.68,5.63-16.81,9.67-13.88-.56,4-.56,4,2.5.56,5.82-2.8,6.58-17.65-6.88-28.72"/><path class="cls-11" d="M189.56,179.53s8.72,13.67,3.92,25.59-7.89,8.63-8.13,8.32,2.32-1.14,1.67-3.46-7.1-2.45-7.59,3,7.1,11.73,7.1,11.73"/><path class="cls-11" d="M179.24,241.82s-3.13-5.2-2.47-8.86,5.25-3.71,5.41-1.88a1.49,1.49,0,0,1-1.63,1.72s2.68,1.63,4.92.31-.49-4.63-3.67-6.26-6.33-7.43-1.7-10.19"/><path class="cls-11" d="M194.5,235.53s-4.15-2.19-4.67-8.39"/><path class="cls-11" d="M197,244.5s-6-.15-8.85-7.89"/><path class="cls-11" d="M199.9,252.48a15.46,15.46,0,0,1-11.34-10.35"/><path class="cls-11" d="M213.33,226.3s-11.72-2-16-11.19"/><path class="cls-11" d="M217.11,237s-7.73,4.1-15.72-6.66"/><path class="cls-11" d="M180.5,198.43s2.21-16.18-16-25.62"/><path class="cls-11" d="M183.21,190.53s1.58-13.71-18.82-20.49"/><path class="cls-11" d="M184.08,178.9s-3.17-9.39-17.32-13.27"/><path class="cls-11" d="M142.4,225.07a13.15,13.15,0,0,1,11.29-3.14c7.21,1.15,12.64-3.55,15.63-6.41"/><path class="cls-11" d="M144.27,218.17s3.35-3,9.52-2.42,9.48.06,14.1-2.69"/><path class="cls-11" d="M154.84,254.85s-5-7-.89-14.45"/><path class="cls-11" d="M142.94,255.41s-4.52-15.87,12-23.08"/><path class="cls-11" d="M136.26,235.42c-.09.1,4.8-7.75,17.17-9.15"/><path class="cls-11" d="M123.28,233.37s2.28-9.27,14.28-12.94"/><path class="cls-11" d="M151.23,274.17s-4.69-3.3-5.69-13"/><path class="cls-11" d="M163.87,251.49s-1-2.72-4.51-1.38-2.49,4.19.08,4.21"/><path class="cls-11" d="M162.2,234.18s-7.64,7.35-5.22,16.87"/><path class="cls-3" d="M213.23,151.08s-6.77,57.45-55.78,68S91.25,167,91.25,167s-.8-5.15-1.45-9a7.1,7.1,0,0,1,5.15-8.2c3.53-1,14.94,4.34,14.94,4.34s3.22.16,6.43,0a6.89,6.89,0,0,1,5.14,1.93s8,4.82,19.13,12.85,34.23,9.33,45.8-.48a42,42,0,0,0,13.66-23.3s2.09-3,5-1.29a3.8,3.8,0,0,1,4.5,2.9S213.86,147.93,213.23,151.08Z"/><path class="cls-3" d="M210.5,155.49s1.68-4.86-2.83-6.8S201,150.3,201,150.3s.89,3.53,1.16,4,4.17,2.66,4.17,2.66Z"/><path class="cls-3" d="M205.62,163.25c.25.34,2.76.83,4.63,1.19,1-3.43,1.71-6.41,2.17-8.68l-.25-.27c-3.78-3.72-8,0-8,0S205.26,162.75,205.62,163.25Z"/><path class="cls-3" d="M205.58,158.66s.83-6.19-4.57-8-3.79,4.92-3.71,4.87,1.5,3.31,2.17,3.4S205.58,158.66,205.58,158.66Z"/><path class="cls-3" d="M199.47,158.66a6.11,6.11,0,0,1,6.87-1.69c4.14,1.52,4.16,6.59,4.16,6.59s-4.88,4.3-5,4-5.19-2.09-5.16-2.49S199.47,158.66,199.47,158.66Z"/><path class="cls-3" d="M204.37,167.57s1.75-8.19-4.51-11.33-5.87,4.5-6.1,5.31,1.75,5,2.34,5.3S204.37,167.57,204.37,167.57Z"/><path class="cls-3" d="M202.17,166.61s1.48,10,2.36,10.45a2.24,2.24,0,0,0,1.08,0,104.88,104.88,0,0,0,4.89-13.53C205.39,162,202.17,166.61,202.17,166.61Z"/><path class="cls-3" d="M195.37,165.08c.24-.16,5.87-2.89,8.84.48a8,8,0,0,1,1.55,7.47s-6,3.14-6.45,3.14-4.85-3.32-4.75-3.63S195.37,165.08,195.37,165.08Z"/><path class="cls-3" d="M206.78,173.51c-5.3-3-9.16,1.86-9.48,1.78l3.71,9.88.81-.45a96.61,96.61,0,0,0,5.23-11.05Z"/><path class="cls-3" d="M198.42,175.75s3.54-4.72-.48-9.06-6.25-1.93-7.22-1.69-3.14,2.94-3.06,5.09,3.16,6.87,3.35,6.6S198.42,175.75,198.42,175.75Z"/><path class="cls-3" d="M201,185.89s4.52-5.94,0-10.6-9.33-.68-9.33-.68-5.93,8.42-5.7,9.25,6.6,3.66,6.6,3.73S198.78,188.29,201,185.89Z"/><path class="cls-3" d="M201,186.15a7.75,7.75,0,0,0-8.85-1.52c-5.87,2.63-3.7,8.58-3.54,8.82s3.64,3.75,4.87,3.56A79.81,79.81,0,0,0,201,186.15Z"/><path class="cls-3" d="M193.6,173.51c-1.93-3.52-5.75-4.39-7.82-4.59a26.34,26.34,0,0,1-5.84,3.42h0c-.16,1.18-2.38,7.09-2.38,8.09s5.85,6.82,6.56,6.83,6.6-3.29,6.6-3.29C191.27,183.8,196.34,178.49,193.6,173.51Z"/><path class="cls-3" d="M191.35,192.87s3.16-6.66-.63-10.63-9.06-1.42-9.06-1.42-1.88,4.39-2,4.89,2.79,6,2.93,6.39,4.95,1.35,5.43,1.67S191.35,192.87,191.35,192.87Z"/><path class="cls-3" d="M195.73,194.16c-.11-.13-.24-.26-.36-.39a9.79,9.79,0,0,0-9.16-2.17c-5.78,1.36-1.77,7.41-1.77,7.41a22.63,22.63,0,0,0,2.84,3.36,5.61,5.61,0,0,0,.93.37A70.75,70.75,0,0,0,195.73,194.16Z"/><path class="cls-3" d="M179.27,210a64.7,64.7,0,0,0,11.45-9.78c-.82-1.21-2.7-3-6.68-3-5.94,0-5,6.35-5.06,6.95S178.59,208.35,179.27,210Z"/><path class="cls-3" d="M182.11,201.22s6-3.48,5.07-9.12-5.07-6.39-5.07-6.39-6.4,4.22-6.07,4.49S174.4,199.12,182.11,201.22Z"/><path class="cls-3" d="M180.67,207.22a6.59,6.59,0,0,0,2.33-7.36c-1.45-4.81-5.47-5.19-5.47-5.19s-5.46,7-5.7,7.17.54,5.34,1,5.38S180.67,207.22,180.67,207.22Z"/><path class="cls-3" d="M168,209.41s1.36,3.52,2.32,5.5a61.69,61.69,0,0,0,12.2-7.3c-2.61-2.76-7.24-1.52-7.24-1.52Z"/><path class="cls-3" d="M179.62,181.47h.32l-.08-.07A.54.54,0,0,1,179.62,181.47Z"/><path class="cls-3" d="M185.55,174.24a5.42,5.42,0,0,0-1.38-4.15,32.08,32.08,0,0,1-11.32,4.42c-.31.38-.48.67-.44.78.21.45,6.63,5.48,7.45,6.12C181,181,185.39,178.41,185.55,174.24Z"/><path class="cls-3" d="M176.65,193.45c.24,0,6.51-3,6.35-8.36s-6-7.11-6-7.11-5.25,4.73-5.6,5.76-.37,6.49,0,6.81S176.65,193.45,176.65,193.45Z"/><path class="cls-3" d="M179,176.17a6.89,6.89,0,0,0-1.16-3,40.64,40.64,0,0,1-10.34,2.08c.15,1.89.77,5.13.77,5.13l5,4.28S179.91,181.88,179,176.17Z"/><path class="cls-3" d="M173.84,203.57s5.86-2.65,5.14-8.19a8.07,8.07,0,0,0-6-6.71s-5.2,3.71-5.25,4.2a52.93,52.93,0,0,0,0,5.78C167.86,199.56,173.84,203.57,173.84,203.57Z"/><path class="cls-3" d="M170.94,213.39s6.67-2.93,5.59-8.83-5.16-6.13-5.16-6.13-5.49,4.55-5.81,5.49,0,8,0,8Z"/><path class="cls-3" d="M166.61,209.41c-5.79-1.5-5.35,4.29-5.21,4.61s.51,2.86.67,3.94a63.15,63.15,0,0,0,10.34-4A8.62,8.62,0,0,0,166.61,209.41Z"/><path class="cls-3" d="M169.5,193.77s5.22-2.37,5.06-7.94a7.21,7.21,0,0,0-4.74-6.92s-4.87,2.07-5,2.92-.18,6.12-.36,6.84S169.5,193.77,169.5,193.77Z"/><path class="cls-3" d="M171.06,174.83h0a48,48,0,0,1-10.18.45,19.25,19.25,0,0,0-.46,3.79c.16.41,6.51,3.94,6.51,3.94C166.85,182.76,172.78,181.2,171.06,174.83Z"/><path class="cls-3" d="M166.44,204.1s5.87-1.8,5.87-6.95-5.34-7-5.34-7-3.73,4.53-3.58,4.77-.32,5.25-.3,5.58,1.19,3,1.67,3A6.92,6.92,0,0,1,166.44,204.1Z"/><path class="cls-3" d="M162.67,214.82a8,8,0,0,0,5.64-7.6c0-5.82-3.55-8.21-3.55-8.21s-5,1.47-5.17,2.21-2.86,5.38-2.62,6.64,1,5.53,1,5.53Z"/><path class="cls-3" d="M157.45,219.13a67.05,67.05,0,0,0,7-1.93,8.23,8.23,0,0,0-3.75-5.35c-4.34-3.06-6.82.75-7,1.54s-2.42,5-2.26,5.53A10.76,10.76,0,0,0,152,220,51.1,51.1,0,0,0,157.45,219.13Z"/><path class="cls-3" d="M164.76,192.1a6.7,6.7,0,0,0,3.45-7,6.39,6.39,0,0,0-4.82-5.55s-4.48,2.32-4.93,3a13.7,13.7,0,0,0-.45,5.6,22.63,22.63,0,0,0,2.73,3.14Z"/><path class="cls-3" d="M161.85,201.22s5.24-2.18,5.08-6.95-4.75-6-5.55-6.15-3.86,2.39-4,3.09.57,6.82.57,6.82Z"/><path class="cls-3" d="M157.85,205.15c.32.11,5.38-1.26,5.54-5.84s-4.26-6.44-4.26-6.44-3,2.4-3.38,2.73-1.63,6.61-1.33,6.85S157.85,205.15,157.85,205.15Z"/><path class="cls-3" d="M164.76,179a5.81,5.81,0,0,0-1.14-3.63,49.46,49.46,0,0,1-8.38-.75,15.93,15.93,0,0,0-.82,2.84,63.09,63.09,0,0,0,1.33,6.58,25.37,25.37,0,0,0,3.31.6S164.76,183.47,164.76,179Z"/><path class="cls-3" d="M156.08,196.14s6.19-2.27,5.75-7.75a7.07,7.07,0,0,0-4.92-6.57,43.92,43.92,0,0,0-4.21,2.81,49.19,49.19,0,0,0-.62,5Z"/><path class="cls-3" d="M154.42,216.93c.22,0,6.21-.23,6.92-5.37s-4.66-8.68-4.66-8.68a30.27,30.27,0,0,0-3.87,1.88c-.11.28-1.43,6.41-1.63,6.69S154.42,216.93,154.42,216.93Z"/><path class="cls-3" d="M152.54,206.09s6.08-1.66,5.91-7.47-4.14-7.41-4.14-7.41-4.42,3.21-4.76,3.65a31,31,0,0,0-1.14,5C148.28,200.67,152.54,206.09,152.54,206.09Z"/><path class="cls-3" d="M148.67,214.27c.05-.16,5.2-2.43,5-7a10.48,10.48,0,0,0-3-7.08s-6,3.41-6.1,3.75-1.74,4.94-1.36,5.49S148.67,214.27,148.67,214.27Z"/><path class="cls-3" d="M158.68,178.88a7,7,0,0,0-1.53-4,45.41,45.41,0,0,1-7.49-1.65h0a45.07,45.07,0,0,0-1,4.73,51,51,0,0,0,1.71,5.22l2.66,2.69S159,183.64,158.68,178.88Z"/><path class="cls-3" d="M149.17,196.14s6.63-1.5,6.58-6.72a8.09,8.09,0,0,0-4.48-7.18s-5.26,2.54-5.48,2.88a28.15,28.15,0,0,0-.88,5.08C145,190.77,149.17,196.14,149.17,196.14Z"/><path class="cls-3" d="M145.11,205.15s6.43-1.33,6.93-5.81-3.46-7.24-3.46-7.24-4.42.28-4.82.77a43.8,43.8,0,0,0-2.34,4.28c-.27.64-1,2.86-.53,3.58S145.11,205.15,145.11,205.15Z"/><path class="cls-3" d="M145.79,209.41a9.76,9.76,0,0,0-2.34-8.85c-3.63-4-6.89-1.17-7.11-.7s-.62,5.4-.62,5.4l1.23,2.87Z"/><path class="cls-3" d="M146.68,186.24s6.41-1.22,7-6-4.15-7-4.15-7-5.3.32-5.79,1-1.62,6.13-1.67,6.58a26.58,26.58,0,0,0,1.36,3.81Z"/><path class="cls-3" d="M143.45,196.14s6.05-1.33,6.1-6.72-5.64-7.28-5.64-7.28-4.91,3-5.19,3.75a29.49,29.49,0,0,0-.72,5.93,28.62,28.62,0,0,0,2.43,3.1C140.59,195,143.45,196.14,143.45,196.14Z"/><path class="cls-3" d="M137.11,204.1c.17.05,7.41-1.11,8-6.25s-4.86-7.65-4.86-7.65a35.2,35.2,0,0,0-4.1,3.12,19.06,19.06,0,0,0-1.27,4.42,21.83,21.83,0,0,0,.56,3.48A28.51,28.51,0,0,0,137.11,204.1Z"/><path class="cls-3" d="M150,173.35a32.68,32.68,0,0,1-8.5-3.85,5.12,5.12,0,0,1-1.08.87c-.55.18-1.09,3.41-1.21,3.64s2.82,3.44,2.82,3.44S149,177.2,150,173.35Z"/><path class="cls-3" d="M139.6,188.12s6.19-1.77,6.19-7.08a8.67,8.67,0,0,0-4.37-7.53s-4.15.78-4.53,1.39-1,6.45-1.17,6.93a16.25,16.25,0,0,0,1.06,5A23.21,23.21,0,0,0,139.6,188.12Z"/><path class="cls-3" d="M135,209.41s3.93-3.27,3.77-8.19-2.61-6.95-2.61-6.95H129l-2,5.85a33,33,0,0,0,1.72,5.58C129,205.92,135,209.41,135,209.41Z"/><path class="cls-3" d="M133.29,196.14s6.21.38,7.76-4.49a7.47,7.47,0,0,0-2.27-7.91s-3.6.22-5.25,1.79-4.28,2.49-3.3,4.6S133.29,196.14,133.29,196.14Z"/><path class="cls-3" d="M143.45,170.7h0a25.18,25.18,0,0,1-2.86-1.78c-1.57-1.13-3.08-2.21-4.51-3.21a12.65,12.65,0,0,1-2,2.46c-.51.11-.84,5.75-.78,6.08a35.23,35.23,0,0,0,2.1,3.21S143.37,176.89,143.45,170.7Z"/><path class="cls-3" d="M133.63,189.42s5.75-2.07,5.53-7.88-4.7-7.3-4.7-7.3-4,1.55-4.2,1.94a60,60,0,0,0-1.22,6.35c-.11.89,0,4,0,4.1S130.86,189.39,133.63,189.42Z"/><path class="cls-3" d="M127.59,199.85c.08.06,6.75,0,7.69-5.84a7.54,7.54,0,0,0-4-8.12s-4.51.2-4.71,1.4-.76,6.3-.82,7.06S127.59,199.85,127.59,199.85Z"/><path class="cls-3" d="M122.51,207.86s6.38-.29,7.09-5.15-3.07-8.12-3.07-8.12-4.55,1-4.78,1.6-3.71,5-3.9,6.08a15.14,15.14,0,0,0,.47,4.54Z"/><path class="cls-3" d="M130.31,178s6-1.47,5.8-6.36-5-6.17-5-6.17-2.35,3.11-2.67,3.52-.87,5.71-.87,5.88S130.31,178,130.31,178Z"/><path class="cls-3" d="M128,188.67s5.75-1.1,6-5.86-4.7-6.6-4.7-6.6-2.76-1.68-3.7,1.77.46,8.85.46,8.85Z"/><path class="cls-3" d="M123,197.38c.16.05,5.65.05,6.48-5.06a6.8,6.8,0,0,0-3.33-7.2s-4.64,1.41-5.06,2.34a25,25,0,0,0-1.27,5.89c.18.43,1.27,2.72,1.27,2.72Z"/><path class="cls-3" d="M117.28,204.35s5.46.36,6.78-4a8,8,0,0,0-1.55-7.47s-5.86.21-7.07,2.71S117.28,204.35,117.28,204.35Z"/><path class="cls-3" d="M117.85,207.36c0-.22,2.07-5.53-2.3-9.68s-4.56-.93-4.74-.71-1.07,4.25-.82,4.5,4,4.4,4,4.4Z"/><path class="cls-3" d="M121.14,188.67c0-.22,5.41,0,7-5a7.74,7.74,0,0,0-2.27-8.09s-3.6.23-5.25,1.84-4.28,2.53-3.3,4.69A71,71,0,0,0,121.14,188.67Z"/><path class="cls-3" d="M123.49,178s4.61,1,6.38-2.83a5.92,5.92,0,0,0-.44-6.33l-3.93.38-3,3.25Z"/><path class="cls-3" d="M116.38,195.64c.16,0,5.8.83,7-3.65s-3-7-3-7-3.38-1.26-5,1.59a14.14,14.14,0,0,0-1.71,6.88A24.88,24.88,0,0,1,116.38,195.64Z"/><path class="cls-3" d="M110.81,199.82s5.27.89,6.15-4.25-2.86-6.9-2.86-6.9-4.85,1.64-4.82,1.7-1.79,3.85-1.94,4.3a11.84,11.84,0,0,0,.5,3.8A20.81,20.81,0,0,0,110.81,199.82Z"/><path class="cls-3" d="M113.73,189.42s5,.06,6.55-4-3.4-7.45-3.4-7.45a31.91,31.91,0,0,0-3.15.55c-.25.15-2.8,4.13-2.75,5.44S113.73,189.42,113.73,189.42Z"/><path class="cls-3" d="M117.28,179.71s6.39.43,7.49-3.72-2.2-5.29-2.2-5.29l-4.72.82Z"/><path class="cls-3" d="M112.48,202.71s.67-3.2-3.24-6.27-3.15.93-3.15.93l2.33,4.54,3.81.8"/><path class="cls-3" d="M108.42,192.47s5.46.75,7-3.24-2.3-8.09-2.3-8.09a7,7,0,0,0-4.49,2.94c-1.8,2.6-1.84,6.6-1.84,6.6Z"/><path class="cls-3" d="M106.35,198.77a5.31,5.31,0,0,0,3.59-4.39,8.58,8.58,0,0,0-2-6.24s-3.3-.13-3.35.36-1.66,4.42-1.66,4.42l.37,4.3Z"/><path class="cls-3" d="M110.29,183.33s4.74,1.25,6.69-1.89,0-6.5,0-6.5a32.73,32.73,0,0,0-4.17-2.43c-.48,0-3,2.82-3.32,3.08a23.24,23.24,0,0,0-1.07,4.69A29.36,29.36,0,0,0,110.29,183.33Z"/><path class="cls-3" d="M103.25,188.5s4.94,1.13,6.79-2.32-.2-7.09-.2-7.09a21.82,21.82,0,0,0-3.6-1.1c-.25.15-2.15,3.8-2.55,4.1A10.09,10.09,0,0,0,101.9,185,32.92,32.92,0,0,0,103.25,188.5Z"/><path class="cls-3" d="M101.25,194.37a4.34,4.34,0,0,0,4.24-3.89c.4-3.7-3.74-6.25-3.74-6.25s-1.75-.35-1.9,0a18.35,18.35,0,0,0,1,5.76A10.7,10.7,0,0,1,101.25,194.37Z"/><path class="cls-3" d="M105.34,178.79a6.39,6.39,0,0,0,5.9.3c3.54-1.85,2.59-6.69,2.59-6.69a10.18,10.18,0,0,0-5.89-.7c-3.1.65-5,2.3-5.06,3.14s2.51,3.93,2.49,3.94"/><path class="cls-3" d="M100.47,184.63s3.62,1.47,5.66-1.59-1.16-7.45-1.16-7.45S98.78,176.27,100.47,184.63Z"/><path class="cls-3" d="M101.36,190l.06-.09a20.09,20.09,0,0,1,.42-10.75c1.88-5.53,11.17-5.53,11.17-5.53s.83,2.09,5.42,2.51,5.32-2.51,5.32-2.51,3.66.94,4.28-2.61-1.36-4.9-1.36-4.9,2.54-.63,1.48-4.28-3.56-3.17-3.56-3.17a3.62,3.62,0,0,0-2.07-2.31l-1.06-.29a6.89,6.89,0,0,0-5.14-1.93c-3.21.16-6.43,0-6.43,0s-11.41-5.3-14.94-4.34A7.1,7.1,0,0,0,89.8,158c.65,3.85,1.45,9,1.45,9A105.08,105.08,0,0,0,101.36,190Z"/><path class="cls-3" d="M152.63,220c1.65-1.37,3.65-3.77,3.12-7.09-.89-5.45-7.35-6.38-7.35-6.38s-1.5,6.52-1.72,6.91a21.18,21.18,0,0,0,0,5c.08.17.78,1.08,1.47,1.95C149.61,220.26,151.1,220.14,152.63,220Z"/><path class="cls-3" d="M146.06,213.83c-4.36-2.49-5.58.5-5.58,1.44a48.14,48.14,0,0,0,.82,4.76,46,46,0,0,0,9.35.13A9.58,9.58,0,0,0,146.06,213.83Z"/><path class="cls-5" d="M100.49,188.5a36.3,36.3,0,0,0,2,23.48c5.46,12.54,5.46,20.58,4.82,22.18s4,2.41,5.63-1.6,2.25-5,4-4.83,2.58-1,1.61-5.46-1.4-3.9,1.45-5,1.77-7.12-.32-11.6C119.7,205.69,104,197.63,100.49,188.5Z"/><path class="cls-3" d="M250.15,99.33l.36.16A1.08,1.08,0,0,0,250.15,99.33Z"/><path class="cls-5" d="M183.5,89.2s6.91,6,7.71,29.25,7.71,24.84,7.71,24.84-1.27,1.75.5,4.56a26.45,26.45,0,0,0,.63-2.72s2.09-3,5-1.29a3.8,3.8,0,0,1,4.5,2.9s3.3.9,3.72,3.23l0,0c20.15-5,29.19-30.37,31.6-41.62,1.92-9,4.35-9.26,5.26-9-4.21-1.84-10.93-2.84-12.49,4.66-1.61,7.71-4.67,8.68-9.33,9.32s-4.82,5-5.46,11.57S216,131,216,131s-3.56-6.59-.82-10-1.93-5.62-5.31-7.23-5.3-4-3.21-9.16-3.7-6.91-7.72-8.19-6.74-3.22-9.64-7.24S183.5,89.2,183.5,89.2Z"/><path class="cls-1" d="M101.36,190l.06-.09a20.09,20.09,0,0,1,.42-10.75c1.88-5.53,11.17-5.53,11.17-5.53s.83,2.09,5.42,2.51,5.32-2.51,5.32-2.51,3.66.94,4.28-2.61-1.36-4.9-1.36-4.9,2.54-.63,1.48-4.28-3.56-3.17-3.56-3.17a3.62,3.62,0,0,0-2.07-2.31l-1.06-.29a6.89,6.89,0,0,0-5.14-1.93c-3.21.16-6.43,0-6.43,0s-11.41-5.3-14.94-4.34A7.1,7.1,0,0,0,89.8,158c.65,3.85,1.45,9,1.45,9A105.08,105.08,0,0,0,101.36,190Z"/><path class="cls-8" d="M101.84,179.15c1.88-5.53,11.17-5.53,11.17-5.53-.42-3.55-2.51-6-6.47-7.82s-5.12-1.46-6.26-5-2.93-5.64-5.22-3.86-2.19,5.74-2.19,5.74c-2.26.92-.78,7-.73,7.15l0,.07v0c.31.92.7,2,1.18,3.29h0c.67,1.77,1.5,3.85,2.52,6.12h0c.72,1.6,1.53,3.31,2.43,5.08l0,.09.5,1,.08.15.53,1,0,.06c.59,1.08,1.2,2.17,1.85,3.27l0,0,.06-.09A20.09,20.09,0,0,1,101.84,179.15Z"/><path class="cls-3" d="M105,158.49a2.09,2.09,0,1,1-2.09,2.09A2.1,2.1,0,0,1,105,158.49Z"/><path class="cls-5" d="M121.46,156.06a26.6,26.6,0,0,1,21.86-9.81c14.3.65,18-.64,18-.64s.46,2.25-1.79,7.39-6.75,5.31-6.75,5.31,1,4.66-3.53,8.68-8.68,1.92-8.68,1.92-.48,3.7-5.15,2.58-5.62,1.12-9.16-4.18S125.16,161.2,121.46,156.06Z"/><path class="cls-8" d="M119.37,196.56s-2.25,17.83,11.09,29.89c0,0,.65-.16,1.13-1.61s1.93-4,6.1-2.41,5.95,1,7.24-3.05,2.66-3.38,6.56-1.61,7.1-.32,7.9-4.5,2.89-4.34,6.59-3.37,6.91,1.92,8.52-2.25,5.62-4.34,7.87-13.66,4.66-38.9,9.81-46.13,11.26-4.56,11.26-4.56,0,27.22-29.26,51.65S119.37,196.56,119.37,196.56Z"/><path class="cls-1" d="M122.77,158.13s1.17-5.13,12.07-4.29,11.8,4.11,18,4.47"/><path class="cls-1" d="M123.75,159.7s.33-.95,5.24,1.17,5.8,5.51,11.6,8"/><path class="cls-1" d="M123.88,161.36s3.07.5,6.14,4.34,4.25,5.55,7,6"/><path class="cls-1" d="M114.63,228.94c.11-.16-.74-6.76-6.21-15.05s-8.28-17.94-6.52-23"/><path class="cls-1" d="M117.85,219.63a43.19,43.19,0,0,0-7.27-11.2c-4.82-5.28-7.89-12.4-7.54-15.9"/><path class="cls-1" d="M121.75,215.35s-1.89-3.43-7.61-8.43-8.48-8.62-8.65-11.34"/><path class="cls-1" d="M92.49,162.89a28.08,28.08,0,0,0,9.35,16.26"/><path class="cls-1" d="M92.87,162.67a26,26,0,0,0,11.75,13.13"/><path class="cls-1" d="M135.4,221.92s-12.55-9.69-14.26-24"/><path class="cls-1" d="M146.61,216.6s-11.44-4.74-16.17-13.49"/><path class="cls-1" d="M160,211.36s-4.39.37-12.58-5.15"/><path class="cls-1" d="M155.84,204.9s11.36,2.81,20.17.25"/><path class="cls-1" d="M164.49,201.49s10.09.25,16.85-4.1"/><path class="cls-1" d="M171.37,197.39a24,24,0,0,0,11.18-5.54"/><path class="cls-1" d="M186.68,182.24s1.14-3.54-.7-9"/><path class="cls-1" d="M190.1,178a24.67,24.67,0,0,0-2.71-14.73"/><path class="cls-1" d="M193.39,173.14s1.68-8.34-4-18.53"/><path class="cls-1" d="M197,166.42s-.23-11-6.3-16.45"/><path class="cls-1" d="M199.17,162.07c-.19-.06,2.36-11-3.44-17.74"/><path class="cls-1" d="M193.22,93.49s1.71.85,2,10.84-1.43,31.39,5.1,38.49"/><path class="cls-1" d="M202.17,97.56s2.38,5.11.29,21.14-1.75,20.37,1,24.6"/><path class="cls-1" d="M208.89,113.28s.5,4.68-2.18,15.11-2.83,12.28-1.68,15.45"/><path class="cls-1" d="M237.08,106.26s1.73,11.1-9.66,22.8-15.18,15.41-15.56,18.84"/><path class="cls-1" d="M223,124s.58,5.17-5.82,10.6a22.88,22.88,0,0,0-7.61,12.17"/><path class="cls-1" d="M214.6,121.93s-3.73.72-5.07,8.69-1.69,13.71-1.69,13.71"/><path class="cls-3" d="M200.74,181c-.1-.18-6.37-2-9-3.3s-5.18.45-5.34,1.73.7,2.11-.2,2.5-.31,1.89-.72,2.86-2.82,3.21-2.37,4.93a3,3,0,0,1-.28,2.74c-.12.14.9.54,1.33,1.75s1.72,4.05,3.86,4.67,2.33,1.06,2.25,1.5-.77,2.36.3,3.07a7.6,7.6,0,0,1,2.4,3.85c.33,1.27,1.21.84,2.19,1.4s2.86-.78,3.6-1.46,2.35,1.1,3.38-5.31S203.34,185.85,200.74,181Z"/><path class="cls-2" d="M209.73,179.8c0-.25,5.61-8,12.21-7.68s11.43,1.28,12.19,3.1a10.83,10.83,0,0,0,1.71,3c.54.75.6,1.44-.27,2s-2.49,3.61-3.22,5.75-5.9,2.71-6.92,2.31-5.46-1.89-7-2.33S210.57,184.25,209.73,179.8Z"/><path class="cls-8" d="M210.68,188.3a13.63,13.63,0,0,0,5.62,7c4.31,2.63,9.73,5.16,9.82,6.83s-.93,2.64-1.58,3.94-1,1.32-2.34,1.34-3-1-3.83,0-1.43,2.34-2.1,2.46-1.26-.14-1.79.56a7.76,7.76,0,0,1-3.09,2.49c-1.46.57-2.12,1.15-2.95.5s-5.06-3.88-6.44-6.68-1.95-8.31.61-13.8A7.8,7.8,0,0,1,210.68,188.3Z"/><path class="cls-8" d="M210.68,178.56s8.86-3.29,15.2-.46,5.65,5.22,5.93,6.05,3.06,3.74,2.72,5a7.22,7.22,0,0,1-2.79,3.45c-.88.43-1,2-.77,2.82s-.76,4.34-1.71,4.88-5.45.41-6.37.54a13.18,13.18,0,0,1-10.77-3.71C207.3,192.68,208.1,183.2,210.68,178.56Z"/><path class="cls-8" d="M206.1,180.28a28.68,28.68,0,0,1,7.51-7.22c4.82-3.16,6.55-7.36,5.7-8.51a22.22,22.22,0,0,1-2.27-4c-.34-.87-2.24-5.61-3.17-5.54a3.92,3.92,0,0,1-3.15-.58c-1-.87-4.17-.92-5.77,0s-3.66,1.77-3.83,5.31S199.16,174.28,206.1,180.28Z"/><path class="cls-2" d="M207.18,180.31s7.12-2.35,13-1.76,8.11,2.84,8.05,4.13a4.6,4.6,0,0,0,.65,2.87c.45.67.74,1.76-.08,2.3s-3,1.45-3.81,3-2.33,3.45-4.42,2.23-3.1-5.54-6.59-7.25S208.59,180.23,207.18,180.31Z"/><path class="cls-8" d="M206,181s9.52,1.43,12.29,3.29,4,4,4.17,5.35-.29,2.55.79,3.32-5.63,7.28-12,3.37a18,18,0,0,1-8-10.23C203.11,185.81,206,181,206,181Z"/><path class="cls-2" d="M205,180.15s-.26-3.36,1.23-5.14,1.45-10-.06-11.81-3.52-5.07-4.86-5.69-2.55-1.58-3.39-1.3a20.4,20.4,0,0,0-2.89,1.65c-.85.49-1,1.5-1.05,2.56a3.64,3.64,0,0,1-.58,2.34,3.62,3.62,0,0,0-.41,2.42c.09.61-1.82,1.7-2.36,1.95s-3.31,1.69-3.43,2.69a2.08,2.08,0,0,1-1,1.84c-.74.55-1.49,5-.26,6.83s1.19,2.57,2.16,3.79,2.7,3,5,2,4.34-2,6.35-2.66S202.67,179.71,205,180.15Z"/><path class="cls-8" d="M198.24,180.53s-6.32,1.56-8,7.47,2.73,7.79,2.92,9.16.75,3.16,2,3.5,2.38,1,3.72,1.52,2.94.76,4-.26-1.31-4.11-1.39-4.59-2.85-10.77-2.58-12S199.41,180.14,198.24,180.53Z"/><path class="cls-8" d="M229.79,167.63s-1.62-.81-1.73-2.06-1.81-3.51-5.69-2.88-8.74,1-13.78,7.48-2.21,6.31-2.1,6S222.88,163.5,229.79,167.63Z"/><path class="cls-3" d="M200.31,180s-4.15.6-6.61,3.36-3.43,8.34-1.52,10.76,2.27,3.33,2.44,4.36,1.2,1.43,2.07,1.79,2.69,2,4.57,2.09,3-1.51,3.47-3.31-.57-3.85,1-5.5,1.72-10.84,1.72-10.84S203.75,178.93,200.31,180Z"/><path class="cls-2" d="M208.53,194.37h0Z"/><path class="cls-2" d="M221,194.92c-1.59.12-2-.5-2.63-.08s-6.05,2.92-9.78-.45a18.39,18.39,0,0,0,2.64,1.94c6.16,3.76,12.6-2.1,12.13-3.25l-.09-.12S222.55,194.81,221,194.92Z"/><path class="cls-2" d="M205.21,175.88s5-8.14,12.28-10.73,9.43-1.1,9.75-.09a3.45,3.45,0,0,0,1.63,2.05,6.34,6.34,0,0,1,3.74,5.14c.35,3.5,0,6-4.65,7.15s-9.09-.13-11.82-.86S208.53,173.52,205.21,175.88Z"/><path class="cls-3" d="M204.52,186.3s3,2.42,2,4.62-1.94,3.43-1.59,4.15c0,0-2.72-.81-3.31-2.76s.57-5.14.67-5.32A11.4,11.4,0,0,1,204.52,186.3Z"/><path class="cls-8" d="M216,168.4l.93-1.73a1.92,1.92,0,0,0-2.36-.77c-1.8.44-4.43.6-5.3,0s-2.48-.23-2.8.48a5.54,5.54,0,0,1-.66,1.5c-.48.68-9.42,6.92-7.85,13s5.31.77,5.26.6S208.33,166.48,216,168.4Z"/><path class="cls-3" d="M210,176.76a9,9,0,0,1,3.77-5.67c3.32-2.3,3.63-3.6,3.1-4.42s-5.86.77-7.2.08-2.75.45-2.63.78a3.25,3.25,0,0,1-1.16,2.72c-1,.72-9.86,7.4-7.18,12.09s5.4-.16,5.54-.37S210,176.76,210,176.76Z"/><path class="cls-8" d="M202.15,180.39s-2.22,5.65,1,10.2,9.48,6.75,11.09,6.1.52-1.42.54-2,.07-1.37.07-1.37-1.31-.11-1.62-1.92-.6-3.71-2.79-4.53S203.65,184.69,202.15,180.39Z"/><path class="cls-3" d="M221.35,174.44s5.84.71,7.23,5.34c0,0-1.81,2.62-6.81,2.11s-11.63-5-18.09-2.71c0,0,6.23-3.81,11-4.31A55.15,55.15,0,0,1,221.35,174.44Z"/><path class="cls-2" d="M202.51,179.67s7-3.27,10.91-1.87,5,1.16,6.27.45,1.58.22,1.58.22a18.53,18.53,0,0,1,1.94-1.71c.89-.64,4.73.41,5.37,3,0,0-.65-3.68-6.28-5.88S206.91,173.71,202.51,179.67Z"/><path class="cls-8" d="M202,179.29s4.11-4.4,8.44-2.84,5,7.4,4.76,7.75-4.19,3.51-6.48,3.36C205,187.3,202.24,183.14,202,179.29Z"/><path class="cls-2" d="M198.5,182.48s.19-5.32,4.7-8,6-1.69,5.92-.28-1.82,4.27-.88,5.76.67,2.31.22,2.56-3.05,2.88-3.22,4.43a4.69,4.69,0,0,1-.35,1.36,6.08,6.08,0,0,1-1.07,1.5,3.29,3.29,0,0,0-.81,3.44c.56,1.67,1.69,1.68,1.69,1.68s-2.11.81-4.86-3.17S198.06,183.19,198.5,182.48Z"/><path class="cls-3" d="M90.65,78.59c.07.2,6,2.86,8.45,4.49s5.2.25,5.53-1-.41-2.19.54-2.45.56-1.83,1.09-2.73,3.23-2.81,3-4.58a3,3,0,0,1,.65-2.67c.14-.12-.82-.66-1.09-1.91s-1.15-4.25-3.19-5.15-2.16-1.36-2-1.79,1.08-2.23.12-3.08a7.61,7.61,0,0,1-1.86-4.14c-.15-1.3-1.08-1-2-1.68s-2.94.38-3.76,1S94,51.45,92.07,57.67,88.72,73.45,90.65,78.59Z"/><path class="cls-2" d="M81.57,78.59c0,.25-6.64,7.18-13.14,6s-11.15-2.81-11.65-4.71a11.06,11.06,0,0,0-1.29-3.2c-.44-.82-.41-1.51.53-2s3-3.24,4-5.26,6.21-1.89,7.17-1.35,5.15,2.61,6.58,3.25S81.34,74.06,81.57,78.59Z"/><path class="cls-8" d="M81.77,70a13.61,13.61,0,0,0-4.62-7.67c-3.92-3.19-9-6.42-8.81-8.09s1.27-2.5,2.09-3.7,1.2-1.16,2.51-1,2.85,1.39,3.8.51,1.73-2.13,2.41-2.15,1.22.31,1.85-.32a7.66,7.66,0,0,1,3.39-2c1.52-.37,2.26-.85,3-.1S91.87,50,92.86,53s.82,8.49-2.46,13.59A7.82,7.82,0,0,1,81.77,70Z"/><path class="cls-8" d="M80.47,79.68s-9.23,2.07-15.13-1.59-4.89-5.93-5.06-6.8-2.53-4.12-2-5.31a7.16,7.16,0,0,1,3.23-3c.93-.32,1.23-1.86,1.14-2.7S64,56.05,65,55.64s5.46.33,6.39.33a13.13,13.13,0,0,1,10.17,5.12C85.71,66.15,83.64,75.43,80.47,79.68Z"/><path class="cls-8" d="M85.23,78.6a28.55,28.55,0,0,1-8.42,6.14c-5.19,2.48-7.47,6.41-6.79,7.66a22.92,22.92,0,0,1,1.72,4.25c.22.9,1.46,5.85,2.39,5.91a3.94,3.94,0,0,1,3,1c.9,1,4,1.48,5.71.79s3.87-1.26,4.52-4.74S91.3,85.48,85.23,78.6Z"/><path class="cls-2" d="M84.17,78.42s-7.38,1.38-13.14,0-7.65-3.91-7.42-5.18a4.58,4.58,0,0,0-.26-2.93c-.35-.72-.5-1.84.39-2.26s3.17-1,4.19-2.5,2.77-3.11,4.68-1.62,2.32,5.91,5.55,8.07S82.76,78.31,84.17,78.42Z"/><path class="cls-8" d="M85.45,77.91S76.21,75.2,73.72,73s-3.42-4.51-3.42-5.87.64-2.49-.33-3.4S76.53,57.27,82.35,62a18,18,0,0,1,6.53,11.21C88.94,73.52,85.45,77.91,85.45,77.91Z"/><path class="cls-2" d="M86.27,78.87s-.19,3.37-1.91,4.93-2.78,9.74-1.54,11.71,2.81,5.49,4.05,6.3,2.32,1.91,3.19,1.74a20.53,20.53,0,0,0,3.08-1.25c.91-.36,1.19-1.35,1.39-2.39a3.66,3.66,0,0,1,.89-2.24,3.6,3.6,0,0,0,.73-2.34c0-.62,2-1.45,2.61-1.62s3.5-1.23,3.75-2.2a2.1,2.1,0,0,1,1.27-1.68c.8-.45,2.15-4.78,1.18-6.74s-.83-2.7-1.63-4-2.27-3.29-4.67-2.63S94.09,77.82,92,78.2,88.56,79.62,86.27,78.87Z"/><path class="cls-8" d="M93.06,79.41s6.47-.69,8.9-6.32S100.3,65,100.3,63.62s-.32-3.24-1.51-3.75-2.21-1.33-3.48-2-2.81-1.15-4-.28.75,4.25.76,4.74,1.37,11,.93,12.27S91.84,79.64,93.06,79.41Z"/><path class="cls-8" d="M60.05,87.94s1.49,1,1.44,2.27,1.32,3.73,5.25,3.63,8.79.16,14.66-5.56,3-6,2.9-5.7S66.34,93,60.05,87.94Z"/><path class="cls-3" d="M90.93,79.66s4.2,0,7-2.44,4.52-7.8,3-10.45-1.8-3.61-1.83-4.65-1-1.58-1.81-2.06S94.87,57.68,93,57.38s-3.15,1.09-3.88,2.81,0,3.88-1.78,5.3S84.18,76,84.18,76,87.38,80.26,90.93,79.66Z"/><path class="cls-2" d="M84.72,64.31h0Z"/><path class="cls-2" d="M72.48,62.08c1.59.1,1.93.78,2.6.44s6.39-2.07,9.63,1.77A18.36,18.36,0,0,0,82.35,62c-5.59-4.55-12.76.38-12.46,1.58l.08.13S70.89,62,72.48,62.08Z"/><path class="cls-2" d="M85.52,83.08s-6,7.39-13.62,9-9.49-.19-9.67-1.23a3.42,3.42,0,0,0-1.34-2.25,6.35,6.35,0,0,1-3-5.6c.13-3.52.76-5.94,5.57-6.46S72.44,77.87,75,79,81.91,85,85.52,83.08Z"/><path class="cls-3" d="M87.61,72.84s-2.69-2.79-1.4-4.85,2.39-3.13,2.14-3.9c0,0,2.58,1.17,2.9,3.19s-1.26,5-1.37,5.18A11.94,11.94,0,0,1,87.61,72.84Z"/><path class="cls-8" d="M73.84,89l-1.15,1.59s.39,1.26,2.23,1.08,4.47,0,5.26.66,2.42.57,2.84-.1.28-.78.85-1.39,10.27-5.58,9.54-11.83-5.16-1.47-5.13-1.29S81.16,92,73.84,89Z"/><path class="cls-3" d="M80.85,81.56a9,9,0,0,1-4.5,5.11c-3.6,1.82-4.08,3.08-3.66,4s5.9,0,7.14.89,2.79-.08,2.71-.42a3.25,3.25,0,0,1,1.52-2.53c1.13-.58,10.77-6,8.74-11s-5.37-.57-5.54-.37S80.85,81.56,80.85,81.56Z"/><path class="cls-8" d="M89.16,79s3-5.3.34-10.25-8.49-8-10.17-7.53-.7,1.33-.8,1.87-.26,1.34-.26,1.34,1.29.28,1.35,2.12.1,3.76,2.16,4.87S88.26,74.57,89.16,79Z"/><path class="cls-3" d="M69.33,82.33s-5.68-1.49-6.44-6.27c0,0,2.15-2.35,7-1.17S80.78,81.39,87.48,80C87.48,80,80.8,83,76,82.8A57,57,0,0,1,69.33,82.33Z"/><path class="cls-2" d="M88.71,79.69s-7.37,2.3-11.06.38-4.83-1.83-6.16-1.29S70,78.35,70,78.35a19.19,19.19,0,0,1-2.15,1.43c-1,.51-4.63-1-4.91-3.72,0,0,.15,3.74,5.43,6.68S83.54,85,88.71,79.69Z"/><path class="cls-8" d="M89.14,80.13s-4.66,3.81-8.74,1.68-3.92-8-3.68-8.33S81.35,70.57,83.6,71C87.25,71.79,89.44,76.29,89.14,80.13Z"/><path class="cls-2" d="M93.06,77.44s-.91,5.25-5.73,7.27-6.15.87-5.91-.53,2.38-4,1.66-5.58-.36-2.38.12-2.57,3.41-2.43,3.79-4a4.74,4.74,0,0,1,.52-1.3,6.25,6.25,0,0,1,1.27-1.34A3.28,3.28,0,0,0,90,66.14c-.32-1.73-1.44-1.9-1.44-1.9S90.8,63.72,93,68,93.6,76.81,93.06,77.44Z"/><path class="cls-11" d="M240.08,275.28s-10.53-13.51,0-26c0,0-10.53-9.34,0-19.67a6.73,6.73,0,0,1-2.34-5.17c.15-3.17,2.34-3.75,2.34-3.75s-11-4.17-9-14.91,14.54-9.47,14.74-2-11,7.15-9.6.68c1.2-5.42,6.42-2.46,5.83-.49"/><path class="cls-11" d="M244.19,208.19a6.36,6.36,0,0,0-3.8,6.32,7.84,7.84,0,0,0,4.14,6.84s-3.82,1.28-3.51,4.38,3.51,4,3.51,4a8.29,8.29,0,0,0-5.81,9,13.75,13.75,0,0,0,5.81,10.5s-6.28,2.55-5.85,10.91a25,25,0,0,0,5.85,14.25"/><path class="cls-11" d="M117.27,65a3.48,3.48,0,0,1-.2,3.68c-1.32,1.79-5.76-.36-4.06-3.68s8.41-3.06,9,2.17-9.34,8.33-11.45,0a10.32,10.32,0,0,1,4.82-11.9s-5.72-2.38-5.51-8,5.59-8.64,5.59-8.64-1.95-1.27-1.95-2.91a2.86,2.86,0,0,1,1.19-2.38s-6.26-1.94-7-10.51,8.19-12.44,8.19-12.44"/><path class="cls-11" d="M118,62.89a4.44,4.44,0,0,1-2.43-3.14c-.37-2.23,2-4.69,2-4.69a8.77,8.77,0,0,1-4.24-8c.3-5.51,5.66-7.38,5.66-7.38s-2.61-1.56-2.46-3.8a3.51,3.51,0,0,1,1.71-3S113.14,29,113.59,22.5s7.09-12.44,7.09-12.44"/><path class="cls-11" d="M134.2,63.66s-5.79-1.6-6.68-7.33,6.68-9.61,6.68-9.61-3.43-2.33-3.38-5.37a5,5,0,0,1,2.93-4.47c.32-.07-2.09-.82-1.89-3.28a2.88,2.88,0,0,1,2.34-2.75"/><path class="cls-11" d="M235.39,106.25s-5.78-1.6-6.67-7.33,6.67-9.61,6.67-9.61S232,87,232,83.94A5,5,0,0,1,235,79.47c.32-.07-2.09-.82-1.89-3.28a2.87,2.87,0,0,1,2.33-2.75"/><path class="cls-11" d="M222.72,267.77a3.76,3.76,0,1,1-3.76,3.76A3.75,3.75,0,0,1,222.72,267.77Z"/><path class="cls-11" d="M217.12,60.47a3.76,3.76,0,1,1-3.76,3.75A3.75,3.75,0,0,1,217.12,60.47Z"/><path class="cls-11" d="M175.49,260.78a1.48,1.48,0,1,1-1.48,1.48A1.47,1.47,0,0,1,175.49,260.78Z"/><path class="cls-11" d="M82.76,56.38a3.26,3.26,0,1,1-3.26,3.26A3.26,3.26,0,0,1,82.76,56.38Z"/><path class="cls-11" d="M95,49.57a1.15,1.15,0,1,1-1.14,1.15A1.15,1.15,0,0,1,95,49.57Z"/><path class="cls-11" d="M54.34,123.25a2,2,0,1,1-2,2A2,2,0,0,1,54.34,123.25Z"/><path class="cls-2" d="M86.22,247.62a3.65,3.65,0,0,0,0,6.53c2.63.56,6-3.27,6-3.27S88.85,247.05,86.22,247.62Zm5.63,3.26s-2.44,1.12-2.36,0S91.85,250.88,91.85,250.88Z"/><path class="cls-2" d="M99.24,254.15a3.66,3.66,0,0,0,0-6.53c-2.64-.57-6.06,3.26-6.06,3.26S96.6,254.71,99.24,254.15Zm-5.63-3.27s2.43-1.11,2.35,0S93.61,250.88,93.61,250.88Z"/><path class="cls-2" d="M96,244.38a2.65,2.65,0,0,0-3.27-2,2.65,2.65,0,0,0-3.27,2c-.56,2.63,3.27,6.05,3.27,6.05S96.56,247,96,244.38ZM92.73,250s-1.12-2.43,0-2.35S92.73,250,92.73,250Z"/><path class="cls-2" d="M89.46,257.39a2.65,2.65,0,0,0,3.27,2,2.65,2.65,0,0,0,3.27-2c.56-2.63-3.27-6-3.27-6S88.9,254.76,89.46,257.39Zm3.27-5.63s1.11,2.44,0,2.36S92.73,251.76,92.73,251.76Z"/><path class="cls-2" d="M97.87,263.43a2.49,2.49,0,0,0,0,4.46c1.8.39,4.13-2.23,4.13-2.23S99.67,263.05,97.87,263.43Zm3.84,2.23s-1.66.76-1.61,0S101.71,265.66,101.71,265.66Z"/><path class="cls-2" d="M106.75,267.89a2.49,2.49,0,0,0,0-4.46c-1.79-.38-4.13,2.23-4.13,2.23S105,268.28,106.75,267.89Zm-3.84-2.23s1.66-.76,1.61,0S102.91,265.66,102.91,265.66Z"/><path class="cls-2" d="M104.54,261.22a2.49,2.49,0,0,0-4.46,0c-.38,1.8,2.23,4.13,2.23,4.13S104.93,263,104.54,261.22Zm-2.23,3.84s-.76-1.66,0-1.61S102.31,265.06,102.31,265.06Z"/><path class="cls-2" d="M100.08,270.11a2.5,2.5,0,0,0,4.46,0c.39-1.8-2.23-4.14-2.23-4.14S99.7,268.31,100.08,270.11Zm2.23-3.85s.76,1.67,0,1.61S102.31,266.26,102.31,266.26Z"/><path class="cls-2" d="M66.53,239.25a3.23,3.23,0,0,0,0,5.78c2.33.5,5.35-2.89,5.35-2.89S68.86,238.76,66.53,239.25Zm5,2.89s-2.15,1-2.08,0S71.5,242.14,71.5,242.14Z"/><path class="cls-2" d="M78,245a3.23,3.23,0,0,0,0-5.78c-2.33-.49-5.35,2.89-5.35,2.89S75.7,245.53,78,245Zm-5-2.89s2.15-1,2.08,0S73.06,242.14,73.06,242.14Z"/><path class="cls-2" d="M75.17,236.39a2.34,2.34,0,0,0-2.89-1.78,2.34,2.34,0,0,0-2.89,1.78c-.49,2.33,2.89,5.35,2.89,5.35S75.67,238.72,75.17,236.39Zm-2.89,5s-1-2.15,0-2.08S72.28,241.36,72.28,241.36Z"/><path class="cls-2" d="M69.39,247.89a2.35,2.35,0,0,0,2.89,1.79,2.35,2.35,0,0,0,2.89-1.79c.5-2.33-2.89-5.34-2.89-5.34S68.9,245.56,69.39,247.89Zm2.89-5s1,2.15,0,2.08S72.28,242.92,72.28,242.92Z"/><path class="cls-2" d="M192.4,70.45c-3.25.7-2.49,4-2.49,4s-.76,3.34,2.49,4,7.47-4,7.47-4S195.66,69.76,192.4,70.45Zm6.95,4s-3,1.38-2.91,0S199.35,74.48,199.35,74.48Z"/><path class="cls-2" d="M208.47,78.52c3.25-.7,2.49-4,2.49-4s.76-3.33-2.49-4-7.47,4-7.47,4S205.22,79.21,208.47,78.52Zm-6.95-4s3-1.37,2.91,0S201.52,74.48,201.52,74.48Z"/><path class="cls-2" d="M204.47,66.45c-.69-3.25-4-2.49-4-2.49s-3.34-.76-4,2.49,4,7.47,4,7.47S205.16,69.71,204.47,66.45Zm-4,7s-1.38-3,0-2.91S200.44,73.4,200.44,73.4Z"/><path class="cls-2" d="M196.4,82.52c.7,3.25,4,2.49,4,2.49s3.34.76,4-2.49-4-7.47-4-7.47S195.71,79.26,196.4,82.52Zm4-7s1.37,3,0,2.91S200.44,75.57,200.44,75.57Z"/><path class="cls-2" d="M214.83,104.09a2.31,2.31,0,0,0,0,4.14c1.67.36,3.84-2.07,3.84-2.07S216.5,103.73,214.83,104.09Zm3.57,2.07s-1.54.71-1.49,0S218.4,106.16,218.4,106.16Z"/><path class="cls-2" d="M223.09,108.23a2.31,2.31,0,0,0,0-4.14c-1.67-.36-3.84,2.07-3.84,2.07S221.42,108.59,223.09,108.23Zm-3.57-2.07s1.55-.71,1.5,0S219.52,106.16,219.52,106.16Z"/><path class="cls-2" d="M221,102a2.32,2.32,0,0,0-4.15,0c-.36,1.67,2.07,3.84,2.07,3.84S221.39,103.7,221,102ZM219,105.6s-.71-1.54,0-1.49S219,105.6,219,105.6Z"/><path class="cls-2" d="M216.89,110.29a2.32,2.32,0,0,0,4.15,0c.35-1.67-2.08-3.84-2.08-3.84S216.53,108.62,216.89,110.29Zm2.07-3.57s.71,1.54,0,1.49S219,106.72,219,106.72Z"/><path class="cls-2" d="M155.6,56.8a1.67,1.67,0,0,0-1.28,2.07A1.68,1.68,0,0,0,155.6,61c1.67.36,3.84-2.08,3.84-2.08S157.27,56.44,155.6,56.8Zm3.57,2.07s-1.55.71-1.5,0S159.17,58.87,159.17,58.87Z"/><path class="cls-2" d="M163.86,61a1.69,1.69,0,0,0,1.28-2.08,1.68,1.68,0,0,0-1.28-2.07c-1.67-.36-3.84,2.07-3.84,2.07S162.19,61.31,163.86,61Zm-3.57-2.08s1.54-.7,1.49,0S160.29,58.87,160.29,58.87Z"/><path class="cls-2" d="M161.8,54.74a2.32,2.32,0,0,0-4.15,0c-.35,1.68,2.08,3.84,2.08,3.84S162.16,56.42,161.8,54.74Zm-2.07,3.58s-.71-1.55,0-1.5S159.73,58.32,159.73,58.32Z"/><path class="cls-2" d="M157.65,63a2.31,2.31,0,0,0,4.15,0c.36-1.67-2.07-3.84-2.07-3.84S157.3,61.33,157.65,63Zm2.08-3.57s.71,1.55,0,1.5S159.73,59.43,159.73,59.43Z"/><path class="cls-2" d="M213.27,81.18a2.6,2.6,0,0,0-2,3.21,2.6,2.6,0,0,0,2,3.21c2.59.55,5.94-3.21,5.94-3.21S215.86,80.63,213.27,81.18Zm5.52,3.21s-2.39,1.09-2.31,0S218.79,84.39,218.79,84.39Z"/><path class="cls-2" d="M226.05,87.6a2.61,2.61,0,0,0,2-3.21,2.61,2.61,0,0,0-2-3.21c-2.59-.55-5.94,3.21-5.94,3.21S223.46,88.15,226.05,87.6Zm-5.53-3.21s2.39-1.1,2.31,0S220.52,84.39,220.52,84.39Z"/><path class="cls-2" d="M222.87,78a3.59,3.59,0,0,0-6.42,0c-.55,2.59,3.21,5.94,3.21,5.94S223.42,80.59,222.87,78Zm-3.21,5.53s-1.1-2.39,0-2.32S219.66,83.53,219.66,83.53Z"/><path class="cls-2" d="M216.45,90.78a3.59,3.59,0,0,0,6.42,0c.55-2.59-3.21-5.94-3.21-5.94S215.9,88.19,216.45,90.78Zm3.21-5.53s1.09,2.39,0,2.31S219.66,85.25,219.66,85.25Z"/><path class="cls-2" d="M227.89,149.7a2.32,2.32,0,0,0,0,4.15c1.67.35,3.84-2.08,3.84-2.08S229.56,149.34,227.89,149.7Zm3.57,2.07s-1.54.71-1.49,0S231.46,151.77,231.46,151.77Z"/><path class="cls-2" d="M236.15,153.85a2.32,2.32,0,0,0,0-4.15c-1.67-.36-3.84,2.07-3.84,2.07S234.48,154.2,236.15,153.85Zm-3.57-2.08s1.55-.71,1.5,0S232.58,151.77,232.58,151.77Z"/><path class="cls-2" d="M234.1,147.64a2.32,2.32,0,0,0-4.15,0c-.36,1.67,2.07,3.84,2.07,3.84S234.45,149.31,234.1,147.64ZM232,151.21s-.71-1.54,0-1.49S232,151.21,232,151.21Z"/><path class="cls-2" d="M230,155.9a2.32,2.32,0,0,0,4.15,0c.35-1.67-2.08-3.84-2.08-3.84S229.59,154.23,230,155.9Zm2.07-3.57s.71,1.54,0,1.49S232,152.33,232,152.33Z"/><path class="cls-11" d="M184,46.28a4.86,4.86,0,1,1-4.86,4.86A4.86,4.86,0,0,1,184,46.28Z"/><path class="cls-11" d="M147.36,49.57a3,3,0,1,1-3,3A3,3,0,0,1,147.36,49.57Z"/><path class="cls-11" d="M203.11,45.07a.6.6,0,0,1,.61.6.61.61,0,1,1-1.21,0A.6.6,0,0,1,203.11,45.07Z"/></svg>