<svg id="Calque_1" data-name="Calque 1" xmlns="http://www.w3.org/2000/svg" xmlns:xlink="http://www.w3.org/1999/xlink" viewBox="0 0 300 300"><defs><style>.cls-1{fill:url(#Dégradé_sans_nom_18);}.cls-2{fill:url(#Dégradé_sans_nom_18-2);}.cls-3{fill:#fdd453;}.cls-4{fill:url(#Dégradé_sans_nom_18-3);}.cls-5{fill:url(#Dégradé_sans_nom_19);}.cls-6{fill:url(#Dégradé_sans_nom_18-4);}.cls-7{fill:url(#Dégradé_sans_nom_18-5);}.cls-8{fill:url(#Dégradé_sans_nom_18-6);}.cls-9{fill:url(#Dégradé_sans_nom_18-7);}.cls-10{fill:url(#Dégradé_sans_nom_18-8);}.cls-11{fill:url(#Dégradé_sans_nom_18-9);}.cls-12{fill:url(#Dégradé_sans_nom_58);}.cls-13{fill:url(#Dégradé_sans_nom_58-2);}.cls-14{fill:url(#Dégradé_sans_nom_18-10);}.cls-15{fill:url(#Dégradé_sans_nom_18-11);}.cls-16{fill:url(#Dégradé_sans_nom_18-12);}.cls-17{fill:url(#Dégradé_sans_nom_53);}.cls-18{fill:url(#Dégradé_sans_nom_18-13);}.cls-19{fill:url(#Dégradé_sans_nom_18-14);}.cls-20{fill:url(#Dégradé_sans_nom_19-2);}.cls-21{fill:url(#Dégradé_sans_nom_58-3);}.cls-22{fill:url(#Dégradé_sans_nom_55);}.cls-23{fill:url(#Dégradé_sans_nom_49);}.cls-24{fill:url(#Dégradé_sans_nom_47);}.cls-25{fill:url(#Dégradé_sans_nom_49-2);}.cls-26{fill:url(#Dégradé_sans_nom_58-4);}.cls-27{fill:url(#Dégradé_sans_nom_47-2);}.cls-28{fill:url(#Dégradé_sans_nom_47-3);}.cls-29{fill:url(#Dégradé_sans_nom_47-4);}.cls-30{fill:url(#Dégradé_sans_nom_47-5);}.cls-31{fill:url(#Dégradé_sans_nom_47-6);}.cls-32{fill:url(#Dégradé_sans_nom_49-3);}.cls-33{fill:url(#Dégradé_sans_nom_47-7);}.cls-34{fill:url(#Dégradé_sans_nom_47-8);}.cls-35{fill:url(#Dégradé_sans_nom_47-9);}.cls-36{fill:url(#Dégradé_sans_nom_49-4);}.cls-37{fill:url(#Dégradé_sans_nom_49-5);}.cls-38{fill:url(#Dégradé_sans_nom_47-10);}.cls-39{fill:url(#Dégradé_sans_nom_47-11);}.cls-40{fill:url(#Dégradé_sans_nom_47-12);}.cls-41{fill:url(#Dégradé_sans_nom_47-13);}.cls-42{fill:url(#Dégradé_sans_nom_47-14);}.cls-43{fill:url(#Dégradé_sans_nom_47-15);}.cls-44{fill:url(#Dégradé_sans_nom_47-16);}.cls-45{fill:url(#Dégradé_sans_nom_47-17);}.cls-46{fill:url(#Dégradé_sans_nom_47-18);}.cls-47{fill:url(#Dégradé_sans_nom_47-19);}.cls-48{fill:url(#Dégradé_sans_nom_49-6);}.cls-49{fill:url(#Dégradé_sans_nom_49-7);}.cls-50{fill:url(#Dégradé_sans_nom_55-2);}.cls-51{fill:url(#Dégradé_sans_nom_55-3);}.cls-52{fill:url(#Dégradé_sans_nom_58-5);}.cls-53{fill:url(#Dégradé_sans_nom_53-2);}.cls-54{fill:url(#Dégradé_sans_nom_55-4);}.cls-55{fill:url(#Dégradé_sans_nom_55-5);}.cls-56{fill:url(#Dégradé_sans_nom_58-6);}.cls-57{fill:url(#Dégradé_sans_nom_58-7);}</style><linearGradient id="Dégradé_sans_nom_18" x1="119.33" y1="518.66" x2="188.28" y2="518.66" gradientTransform="matrix(1, 0, 0, -1, 0, 622)" gradientUnits="userSpaceOnUse"><stop offset="0.01" stop-color="#546f79"/><stop offset="1" stop-color="#364750"/></linearGradient><linearGradient id="Dégradé_sans_nom_18-2" x1="120.28" y1="550.61" x2="132.93" y2="550.61" xlink:href="#Dégradé_sans_nom_18"/><linearGradient id="Dégradé_sans_nom_18-3" x1="136.54" y1="540.11" x2="161.71" y2="540.11" xlink:href="#Dégradé_sans_nom_18"/><linearGradient id="Dégradé_sans_nom_19" x1="155.31" y1="533.96" x2="209.24" y2="557.98" gradientTransform="matrix(1, 0, 0, -1, 0, 622)" gradientUnits="userSpaceOnUse"><stop offset="0" stop-color="#ceb776"/><stop offset="0.99" stop-color="#ffecb2"/></linearGradient><linearGradient id="Dégradé_sans_nom_18-4" x1="160.89" y1="507.65" x2="191.7" y2="507.65" xlink:href="#Dégradé_sans_nom_18"/><linearGradient id="Dégradé_sans_nom_18-5" x1="172.14" y1="508.05" x2="193.98" y2="508.05" xlink:href="#Dégradé_sans_nom_18"/><linearGradient id="Dégradé_sans_nom_18-6" x1="183.3" y1="511.11" x2="196.77" y2="511.11" xlink:href="#Dégradé_sans_nom_18"/><linearGradient id="Dégradé_sans_nom_18-7" x1="191.85" y1="514.34" x2="199.35" y2="514.34" xlink:href="#Dégradé_sans_nom_18"/><linearGradient id="Dégradé_sans_nom_18-8" x1="197.25" y1="518.38" x2="204.91" y2="518.38" xlink:href="#Dégradé_sans_nom_18"/><linearGradient id="Dégradé_sans_nom_18-9" x1="202.65" y1="521.62" x2="211.05" y2="521.62" xlink:href="#Dégradé_sans_nom_18"/><linearGradient id="Dégradé_sans_nom_58" x1="220.54" y1="599.05" x2="220.54" y2="520.71" gradientTransform="matrix(1, 0, 0, -1, 0, 622)" gradientUnits="userSpaceOnUse"><stop offset="0" stop-color="#673ab8"/><stop offset="1" stop-color="#d0c4e9"/></linearGradient><linearGradient id="Dégradé_sans_nom_58-2" x1="187" y1="565.6" x2="187" y2="547.11" xlink:href="#Dégradé_sans_nom_58"/><linearGradient id="Dégradé_sans_nom_18-10" x1="171.69" y1="546.61" x2="181.39" y2="546.61" xlink:href="#Dégradé_sans_nom_18"/><linearGradient id="Dégradé_sans_nom_18-11" x1="160.08" y1="545.82" x2="176.43" y2="545.82" xlink:href="#Dégradé_sans_nom_18"/><linearGradient id="Dégradé_sans_nom_18-12" x1="147.87" y1="544.23" x2="169.18" y2="544.23" xlink:href="#Dégradé_sans_nom_18"/><linearGradient id="Dégradé_sans_nom_53" x1="124.93" y1="579.12" x2="179.34" y2="579.12" gradientTransform="matrix(1, 0, 0, -1, 0, 622)" gradientUnits="userSpaceOnUse"><stop offset="0" stop-color="#d0c4e9"/><stop offset="1" stop-color="#673ab8"/></linearGradient><linearGradient id="Dégradé_sans_nom_18-13" x1="108.51" y1="548.56" x2="127.97" y2="548.56" xlink:href="#Dégradé_sans_nom_18"/><linearGradient id="Dégradé_sans_nom_18-14" x1="79.38" y1="525.2" x2="121.8" y2="525.2" xlink:href="#Dégradé_sans_nom_18"/><linearGradient id="Dégradé_sans_nom_19-2" x1="71.89" y1="544.36" x2="99.54" y2="559.69" xlink:href="#Dégradé_sans_nom_19"/><linearGradient id="Dégradé_sans_nom_58-3" x1="71.78" y1="523.4" x2="71.78" y2="436.29" xlink:href="#Dégradé_sans_nom_58"/><linearGradient id="Dégradé_sans_nom_55" x1="83.5" y1="433.81" x2="102.41" y2="433.81" gradientTransform="matrix(1, 0, 0, -1, 0, 622)" gradientUnits="userSpaceOnUse"><stop offset="0" stop-color="#e44f43"/><stop offset="1" stop-color="#a8251e"/></linearGradient><linearGradient id="Dégradé_sans_nom_49" x1="139.12" y1="406.77" x2="165.12" y2="406.77" gradientTransform="matrix(1, 0, 0, -1, 0, 622)" gradientUnits="userSpaceOnUse"><stop offset="0" stop-color="#ad3c33"/><stop offset="1" stop-color="#711914"/></linearGradient><linearGradient id="Dégradé_sans_nom_47" x1="69.24" y1="399.58" x2="86.52" y2="399.58" gradientTransform="matrix(1, 0, 0, -1, 0, 622)" gradientUnits="userSpaceOnUse"><stop offset="0.01" stop-color="#ffecb2"/><stop offset="1" stop-color="#ceb776"/></linearGradient><linearGradient id="Dégradé_sans_nom_49-2" x1="83.69" y1="428.12" x2="86.08" y2="428.12" xlink:href="#Dégradé_sans_nom_49"/><linearGradient id="Dégradé_sans_nom_58-4" x1="74.26" y1="461.28" x2="74.26" y2="451.72" xlink:href="#Dégradé_sans_nom_58"/><linearGradient id="Dégradé_sans_nom_47-2" x1="82.13" y1="414.4" x2="88.91" y2="414.4" xlink:href="#Dégradé_sans_nom_47"/><linearGradient id="Dégradé_sans_nom_47-3" x1="91.93" y1="415.26" x2="102.45" y2="415.26" xlink:href="#Dégradé_sans_nom_47"/><linearGradient id="Dégradé_sans_nom_47-4" x1="102.55" y1="413.28" x2="113.74" y2="413.28" xlink:href="#Dégradé_sans_nom_47"/><linearGradient id="Dégradé_sans_nom_47-5" x1="115.08" y1="412.88" x2="123.03" y2="412.88" xlink:href="#Dégradé_sans_nom_47"/><linearGradient id="Dégradé_sans_nom_47-6" x1="123.3" y1="407.58" x2="133.18" y2="407.58" xlink:href="#Dégradé_sans_nom_47"/><linearGradient id="Dégradé_sans_nom_49-3" x1="88.79" y1="399.19" x2="136.83" y2="399.19" xlink:href="#Dégradé_sans_nom_49"/><linearGradient id="Dégradé_sans_nom_47-7" x1="95.03" y1="404.42" x2="104.82" y2="404.42" xlink:href="#Dégradé_sans_nom_47"/><linearGradient id="Dégradé_sans_nom_47-8" x1="86.83" y1="401.66" x2="96" y2="401.66" xlink:href="#Dégradé_sans_nom_47"/><linearGradient id="Dégradé_sans_nom_47-9" x1="85.57" y1="418.17" x2="94.67" y2="418.17" xlink:href="#Dégradé_sans_nom_47"/><linearGradient id="Dégradé_sans_nom_49-4" x1="93.61" y1="422.37" x2="97.75" y2="422.37" xlink:href="#Dégradé_sans_nom_49"/><linearGradient id="Dégradé_sans_nom_49-5" x1="84.31" y1="404.27" x2="95.24" y2="404.27" xlink:href="#Dégradé_sans_nom_49"/><linearGradient id="Dégradé_sans_nom_47-10" x1="82.8" y1="395.64" x2="87.9" y2="395.64" xlink:href="#Dégradé_sans_nom_47"/><linearGradient id="Dégradé_sans_nom_47-11" x1="87.11" y1="388.71" x2="93.18" y2="388.71" xlink:href="#Dégradé_sans_nom_47"/><linearGradient id="Dégradé_sans_nom_47-12" x1="92.28" y1="391" x2="99.98" y2="391" xlink:href="#Dégradé_sans_nom_47"/><linearGradient id="Dégradé_sans_nom_47-13" x1="100.28" y1="392.47" x2="106.93" y2="392.47" xlink:href="#Dégradé_sans_nom_47"/><linearGradient id="Dégradé_sans_nom_47-14" x1="107.85" y1="391.48" x2="115.69" y2="391.48" xlink:href="#Dégradé_sans_nom_47"/><linearGradient id="Dégradé_sans_nom_47-15" x1="115.89" y1="387.3" x2="123.54" y2="387.3" xlink:href="#Dégradé_sans_nom_47"/><linearGradient id="Dégradé_sans_nom_47-16" x1="123.14" y1="395.15" x2="142.36" y2="395.15" xlink:href="#Dégradé_sans_nom_47"/><linearGradient id="Dégradé_sans_nom_47-17" x1="152.12" y1="425.92" x2="156.19" y2="425.92" xlink:href="#Dégradé_sans_nom_47"/><linearGradient id="Dégradé_sans_nom_47-18" x1="142.91" y1="420.72" x2="151.51" y2="420.72" xlink:href="#Dégradé_sans_nom_47"/><linearGradient id="Dégradé_sans_nom_47-19" x1="133.13" y1="415.97" x2="142.76" y2="415.97" xlink:href="#Dégradé_sans_nom_47"/><linearGradient id="Dégradé_sans_nom_49-6" x1="112.4" y1="417.11" x2="117.26" y2="417.11" xlink:href="#Dégradé_sans_nom_49"/><linearGradient id="Dégradé_sans_nom_49-7" x1="102.65" y1="419.54" x2="106.79" y2="419.54" xlink:href="#Dégradé_sans_nom_49"/><linearGradient id="Dégradé_sans_nom_55-2" x1="86.02" y1="445.76" x2="94.23" y2="445.76" xlink:href="#Dégradé_sans_nom_55"/><linearGradient id="Dégradé_sans_nom_55-3" x1="72.73" y1="458.34" x2="97.73" y2="458.34" xlink:href="#Dégradé_sans_nom_55"/><linearGradient id="Dégradé_sans_nom_58-5" x1="62.32" y1="460.33" x2="62.32" y2="379.41" xlink:href="#Dégradé_sans_nom_58"/><linearGradient id="Dégradé_sans_nom_53-2" x1="153.07" y1="411.16" x2="243.22" y2="411.16" xlink:href="#Dégradé_sans_nom_53"/><linearGradient id="Dégradé_sans_nom_55-4" x1="70.76" y1="440.46" x2="228.16" y2="440.46" xlink:href="#Dégradé_sans_nom_55"/><linearGradient id="Dégradé_sans_nom_55-5" x1="153.71" y1="476.85" x2="161.29" y2="476.85" xlink:href="#Dégradé_sans_nom_55"/><linearGradient id="Dégradé_sans_nom_58-6" x1="209.55" y1="467.43" x2="217.9" y2="467.43" xlink:href="#Dégradé_sans_nom_58"/><linearGradient id="Dégradé_sans_nom_58-7" x1="208.71" y1="509.46" x2="259" y2="509.46" xlink:href="#Dégradé_sans_nom_58"/></defs><title>y_Plan de travail 6</title><path class="cls-1" d="M119.33,77.65c.13.06.27.15.4.22,3.61.55,7.14-.69,10.84-.8a16.2,16.2,0,0,1,10.23,3.22c4.8,3.62,7.8,8.75,9.91,14.28,2.4,6.35,4,13.11,7.65,18.89A42.57,42.57,0,0,0,171,126a80.59,80.59,0,0,0,15.28,7.52,16.22,16.22,0,0,1,1.25-6.13c.24-.55.51-1.06.79-1.56a19.78,19.78,0,0,1-5.9-.73,32.2,32.2,0,0,1-6.92-2.45,32.87,32.87,0,0,1-11.46-9.1,37.46,37.46,0,0,1-7.1-15.44c-1.32-5.91-2-12.43-5.61-17.52a17.66,17.66,0,0,0-15.5-7.32C130.13,73.72,125.06,77.45,119.33,77.65Z"/><path class="cls-2" d="M127.79,72.47a13.25,13.25,0,0,1,2.45.46,19.93,19.93,0,0,1,2.69-1.25c-.82-.34-1.63-.73-2.45-1a18.36,18.36,0,0,0-4.65-.81,22.69,22.69,0,0,0-3.68.13,1.51,1.51,0,0,1-1.05.49.69.69,0,0,1-.29-.07c-.18.22-.35.46-.53.7,1.1.18,2.18.38,3.28.6C125,72,126.38,72.27,127.79,72.47Z"/><path class="cls-3" d="M146.92,70.73l-.42,0,.55.13-.06-.06A.71.71,0,0,1,146.92,70.73Z"/><path class="cls-4" d="M136.54,71.74A18.67,18.67,0,0,1,148.09,75c5,3.48,7.43,8.86,8.84,14.61.24,1,.44,1.94.66,2.91a9.36,9.36,0,0,1,.55-1.7,14.66,14.66,0,0,1,3.57-4.91A37.47,37.47,0,0,0,159.79,82a24.33,24.33,0,0,0-3-3.9,21.27,21.27,0,0,0-20.21-6.37Z"/><path class="cls-5" d="M181.85,77.89a69.46,69.46,0,0,1-9.34,3.94,44.21,44.21,0,0,0-4.12,1.75c-3.53,2.13-6.77,4.87-8,8.9a11,11,0,0,0-.3,6.21h.22a41.21,41.21,0,0,0,28.34-10.13,40.29,40.29,0,0,0,9.23-11.71,42,42,0,0,0,2.91-7c.37-1.19.68-2.38,1-3.59s.73-2.38.92-3.57c0,0,.09,0,.09,0a32.2,32.2,0,0,1-.06,3.81,36,36,0,0,1-.75,4,41.66,41.66,0,0,1-2.56,7.2,42.41,42.41,0,0,1-9.14,12.94A42.48,42.48,0,0,1,161.86,102a11.12,11.12,0,0,0,3.15,2.8,7.47,7.47,0,0,0,.73.39,19.7,19.7,0,0,0,3,.34h.5a37.53,37.53,0,0,0,17.32-6.84,37,37,0,0,0,7.17-6.81c1-1.3,1.91-2.71,2.95-4s1.56-2.77,2.67-3.77a.08.08,0,0,1,.13.07c-.07,1.54-1.13,3.17-1.74,4.54a23.64,23.64,0,0,1-2.91,4.47,42,42,0,0,1-7.21,7.45,36.91,36.91,0,0,1-11.48,6.17,29.08,29.08,0,0,0,4.94-1,33,33,0,0,0,11.85-6.59,40.34,40.34,0,0,0,14-30.13,50.21,50.21,0,0,0-9.59-29.17,33,33,0,0,1-8.51,32.72A32.17,32.17,0,0,1,181.85,77.89Z"/><path class="cls-6" d="M191.7,121.43a33.08,33.08,0,0,1-5.22-1.38,37,37,0,0,1-6.48-2.91,35.1,35.1,0,0,1-9.26-7.72,15.67,15.67,0,0,1-7.09-2.33,14.39,14.39,0,0,1-2.76-2.27,23.44,23.44,0,0,0,1.11,2.25A32.37,32.37,0,0,0,173.72,119a32.79,32.79,0,0,0,7.69,3.39,31,31,0,0,0,4.25,1,38.52,38.52,0,0,1,3.9.55A26.06,26.06,0,0,1,191.7,121.43Z"/><path class="cls-7" d="M194,119.41a18.05,18.05,0,0,1-3.26-2.1,25.75,25.75,0,0,1-3.7-3.13,26.3,26.3,0,0,1-3.09-3.72,16.36,16.36,0,0,1-1.63-2.71s0,0-.09,0a29.39,29.39,0,0,1-10.11,1.72,36.84,36.84,0,0,0,8.5,6.52,37.44,37.44,0,0,0,6.53,2.85,51.88,51.88,0,0,0,5.88,1.3C193.35,119.91,193.66,119.67,194,119.41Z"/><path class="cls-8" d="M196.77,117.34a17.91,17.91,0,0,1-1.63-2.45,31.89,31.89,0,0,1-2.16-4.14,24.12,24.12,0,0,1-1.87-7.41,37.91,37.91,0,0,1-7.81,4.08c.56.81,1,1.76,1.57,2.51a25.87,25.87,0,0,0,3.24,3.7,24.27,24.27,0,0,0,3.85,3,32,32,0,0,1,3.31,1.79C195.73,118.06,196.26,117.69,196.77,117.34Z"/><path class="cls-9" d="M198,116.52l1.35-.88a71.59,71.59,0,0,0-.84-9.68,69.91,69.91,0,0,0-1.92-7.16l-.44.44a37.88,37.88,0,0,1-4.3,3.57,34,34,0,0,0,2.41,7.65,27,27,0,0,0,2.05,3.77c.46.7.94,1.41,1.47,2.07A.92.92,0,0,1,198,116.52Z"/><path class="cls-10" d="M204.81,112.05a46,46,0,0,0-.64-11.18,48.8,48.8,0,0,0-1.39-5.73c-.28-.92-.57-1.87-.9-2.77a40.79,40.79,0,0,1-4.65,5.77,34.86,34.86,0,0,1,2.43,8,39,39,0,0,1,.9,8.77C202,114,203.45,113,204.81,112.05Z"/><path class="cls-11" d="M211.05,107.09a.67.67,0,0,1-.31-.46c-.18-.75-.37-1.48-.59-2.21a21.87,21.87,0,0,1-2.25-6.32c-.13-.31-.27-.6-.4-.88-.68-1.48-1.39-3-2.18-4.39-.57-1-1.24-2-1.81-3-.26.48-.55,1-.84,1.43.18.35.31.73.47,1.08.35.82.68,1.65,1,2.51a41.78,41.78,0,0,1,1.58,6.13,47.47,47.47,0,0,1,.69,10C208,109.71,209.53,108.45,211.05,107.09Z"/><path class="cls-12" d="M204.08,88.69a24.13,24.13,0,0,1,2.41,3.44c.42.68.83,1.38,1.23,2.09a15.89,15.89,0,0,1,2.05-4.52,5.54,5.54,0,0,0,.88-3.72c-.15-1.19-.5-2.34-.64-3.53a5.63,5.63,0,0,1,2.25-5.53c.79-.57,2-1.1,2.49-2,.73-1.27-.07-2.73-.59-3.94a10.33,10.33,0,0,1-.73-6.81,16.18,16.18,0,0,1,3.24-6.3A26.52,26.52,0,0,1,219.33,55a23.19,23.19,0,0,1,2.85-2.19c.11-.06.2.09.13.18-3.39,3.79-8,7.58-7.8,13.2a8.94,8.94,0,0,0,1.1,3.92,12.14,12.14,0,0,1,1.3,3.09c.46,2-.82,3.61-2.34,4.8-.68.55-1.76,1.24-2,2.12a5.84,5.84,0,0,0,.06,3c.49,2.2.88,4.36-.09,6.5-.48,1.08-1.19,2-1.74,3.1a9.17,9.17,0,0,0-.81,6.17c.33.78.64,1.57.92,2.36a27.29,27.29,0,0,1,1-3.59A14.4,14.4,0,0,1,213.71,94c.93-1.23,2.34-2,3.44-3a3.92,3.92,0,0,0,1.39-2.18,6,6,0,0,0-.66-3,5.41,5.41,0,0,1,0-4.76c1.87-3.11,5.82-3.44,8.13-6,.95-1,1.55-2.62.36-3.76a9.06,9.06,0,0,0-2.8-1.63c-2.14-.93-4.3-2.23-4.41-4.83-.11-3,1.83-5.31,4-7.07s5.8-4.1,5-7.34c-.62-2.58-2.8-4.65-2.95-7.36-.16-2.89,1.91-4.78,4-6.41a20.48,20.48,0,0,0,5.78-6.84A19.1,19.1,0,0,0,237,23a17.35,17.35,0,0,1-6.57,8,35.3,35.3,0,0,1-5.71,2.75c-1.76.78-3.83,1.7-4.74,3.51-1.74,3.52.38,8.2-2.55,11.32-1.5,1.59-3.57,2.08-5.67,2.34s-4,.33-5.06,2.29a1.2,1.2,0,0,1-.29.36A48.71,48.71,0,0,1,209,68.7,42.26,42.26,0,0,1,204.08,88.69Z"/><path class="cls-13" d="M182.93,74.89A30.65,30.65,0,0,0,195.67,56.4a7.48,7.48,0,0,1-2.47,1.17c-2.27.53-7.23-.31-7.87,2.82-.53,2.62.13,5.25-2.18,7.19-.93.77-2,1.36-3,2.07a4.79,4.79,0,0,0-1.59,1.67,2.28,2.28,0,0,0-.24,1.3A17.18,17.18,0,0,1,182.93,74.89Z"/><path class="cls-14" d="M181.39,75.88a21.31,21.31,0,0,0-4-1.8.88.88,0,0,1-.73-.22,10.52,10.52,0,0,0-1.17-.27,22,22,0,0,0-3.81-.33,31.76,31.76,0,0,1,6.52,4.25A25.73,25.73,0,0,0,181.39,75.88Z"/><path class="cls-15" d="M168.67,78.22a20.68,20.68,0,0,1,1.9,2.4c.48-.2.94-.39,1.43-.57,1.48-.57,2.95-1.12,4.41-1.74A29.79,29.79,0,0,0,166.47,73a32.64,32.64,0,0,0-5.78-1.21l-.63-.07a26,26,0,0,1,5.77,3.7A23.29,23.29,0,0,1,168.67,78.22Z"/><path class="cls-16" d="M149.21,71.59a23,23,0,0,1,8.8,5.77,23.7,23.7,0,0,1,3.19,4.23,20.17,20.17,0,0,1,1.63,3.33,30.14,30.14,0,0,1,6.35-3.7c-.49-.69-1-1.39-1.5-2a22.92,22.92,0,0,0-2.56-2.56,24.76,24.76,0,0,0-6.23-4,24,24,0,0,0-8.42-2c-.71,0-1.39,0-2.07,0a.75.75,0,0,1-.53.46C148.33,71.28,148.77,71.43,149.21,71.59Z"/><path class="cls-17" d="M133.59,64.76a6.85,6.85,0,0,0,3.39-2,12,12,0,0,1,2.56-2.56c1.21-.68,2.6-1,3.61-2a4.29,4.29,0,0,0,1.15-3.77s.07-.06.09,0a4.34,4.34,0,0,1,.26,3.24,4.41,4.41,0,0,1-2,2.62A9.93,9.93,0,0,0,138.94,63a10.73,10.73,0,0,1-2.73,2.73c-2.42,1.55-5.2,1.79-8,2.21a27.17,27.17,0,0,0-2.91.57,3.85,3.85,0,0,1,.48,0,24.42,24.42,0,0,1,5,.73,15.08,15.08,0,0,1,3.22,1.12c.94-2.33,3.83-4,5.77-5.22,1.37-.84,2.76-1.61,4.12-2.4l1.92-1.13A5.78,5.78,0,0,0,148.16,60c.61-1,.11-2,.15-3.11a4,4,0,0,1,.93-2.55c1.54-1.72,3.7-1.76,5.75-2.43a12.23,12.23,0,0,0,8.2-9.43c0-.17.35-.13.33,0a12.69,12.69,0,0,1-6,9.27A14.17,14.17,0,0,1,154.88,53a9.43,9.43,0,0,0-3.55,1.56c-1.08,1-1,1.81-.82,3.15a5,5,0,0,1-.19,2.89c-.8,1.72-2.56,2.53-4.1,3.48-1.22.77-2.47,1.46-3.73,2.16a33,33,0,0,0-4.36,2.8,9.13,9.13,0,0,0-1.68,1.61,23.23,23.23,0,0,1,6.81-.38,9.22,9.22,0,0,1,3.07-.83,4.83,4.83,0,0,1,1.34-4c1.92-2,4.67-2.18,7.27-2.66,2.45-.47,5.69-1.81,5-4.87A5.85,5.85,0,0,1,161.38,52c1.74-1.74,3.92-2.58,6-3.74s4.47-3,3.72-5.67c-1.39-5-8-6.5-9-11.85a.87.87,0,0,1,.62-1.08,22.22,22.22,0,0,0,15.38-11.55,19,19,0,0,0,1.17-2.91,25.61,25.61,0,0,1-9.81,7.69,29.82,29.82,0,0,1-7.91,2.25c-2.67.4-6.21.86-7.49,3.66s1.39,4.63,3,6.34,3,4.08,2.24,6.66a9.67,9.67,0,0,1-5.53,6c-3,1.37-6.43,1.52-9.54,2.67-2.58,1-5.35,2.84-5.55,5.84-.09,1.49-.13,3.06-1.13,4.29a6.44,6.44,0,0,1-3,1.88c-1.37.44-2.8.68-4.14,1.16a22.45,22.45,0,0,0-3.9,1.85c-.6.36-1.15.71-1.7,1.11.33-.11.66-.2,1-.29C128.46,65.59,131.08,65.48,133.59,64.76Z"/><path class="cls-3" d="M118.43,70.82l-.13,0a.23.23,0,0,1,.11,0A.07.07,0,0,0,118.43,70.82Z"/><path class="cls-18" d="M127.62,74.12A2.63,2.63,0,0,0,128,74c-1.34-.16-2.73-.55-3.94-.8a45.4,45.4,0,0,0-7.21-1.12,17.13,17.13,0,0,0-6.17.75,11.7,11.7,0,0,0-2.14.92C114.88,73.48,121.36,76.08,127.62,74.12Z"/><path class="cls-19" d="M94.83,93.71a71.11,71.11,0,0,1,11-12.16C108,79.78,110.3,78,113,77.21a10.15,10.15,0,0,1,4-.36,4.78,4.78,0,0,1,.77.16,17.28,17.28,0,0,0,4-.71c-5.35-.09-10.73-1.89-16-.61h0c-6.26,1.52-11.57,6.28-16,10.73s-8.44,9.72-9.79,16c-1.19,5.47-.57,11.51,2.93,16A70.84,70.84,0,0,1,94.83,93.71Z"/><path class="cls-20" d="M83.21,91.62a.91.91,0,0,1-.19-.29,31.33,31.33,0,0,1-2.34-6.83,45.41,45.41,0,0,1-1.23-7,42.38,42.38,0,0,1-.09-7.3c.15-2,.24-4.78,1.41-6.5,0-.06.2-.08.2,0a13,13,0,0,1,0,3.24c-.06,1.08-.13,2.15-.15,3.23a42.17,42.17,0,0,0,2,13.8A56,56,0,0,0,85,89.3a52.74,52.74,0,0,1,4.65-5c-4.3-5.18-5.93-12.47-5.45-19.11.51-6.91,3-13.55,5.95-19.83-.75.82-1.54,1.63-2.24,2.47a43.94,43.94,0,0,0-4,5.71,45.48,45.48,0,0,0-2.6,41.1A33.54,33.54,0,0,1,83.21,91.62Z"/><path class="cls-21" d="M68.67,164.49c-.09,2.56-1.63,4.56-2.64,6.81-.49,1.08-1,2.54-.38,3.68a5.21,5.21,0,0,0,3.11,2.4c2.91,1,6.26.64,8.84,2.49a5.39,5.39,0,0,1,2.31,5.23c.77.2,1.54.42,2.31.61,0-2.86.71-5.81-.35-8.55a.2.2,0,0,1,0-.11c-1.1-.75-2.14-1.69-3.2-2.49-1.21-.92-2.44-1.65-3.7-2.49a22.69,22.69,0,0,1-3.55-2.86,5.28,5.28,0,0,1-1.63-2.91,14,14,0,0,1,.22-3.59,2.89,2.89,0,0,0-.92-2.82,4.17,4.17,0,0,1-1.66-3A9.34,9.34,0,0,0,67,153a13.94,13.94,0,0,1-1.25-3.79,7.45,7.45,0,0,1,.59-3.51c1-2.53,3.11-4.43,4.23-6.92a5.42,5.42,0,0,0,.16-4.65,6.31,6.31,0,0,1-.86-3,4,4,0,0,1,1.43-2.76c1-1,2.33-1.94,2.14-3.48,0-.07.11-.11.13,0,1.1,2.27-1.5,3.5-2.29,5.24-.69,1.5.61,2.6,1.16,3.88a5.52,5.52,0,0,1,.47,3.28c-.44,2.8-2.29,4.87-3.75,7.19a8.14,8.14,0,0,0-1.52,3.68,8,8,0,0,0,1,3.79,8.3,8.3,0,0,1,1,3.76c0,.67-.18,1.5.35,2,.38.38.79.69,1.15,1.08l.13.16a6.71,6.71,0,0,1-.4-1.57A8.2,8.2,0,0,1,72.33,151a7,7,0,0,1,4.16-2.71c-.28-1.25-.42-2.58-.64-3.83-.26-1.46-.5-2.91-.77-4.39-.46-2.6-.77-5.18.44-7.6.55-1.1,1.37-2.25,1.33-3.53s-.44-2.6-.42-3.92a8.93,8.93,0,0,1,2.93-6.12.09.09,0,0,1,.15.08c-1,2.45-2.38,4.7-1.36,7.41.88,2.4.48,4.21-.62,6.41-1.35,2.69-.88,5.25-.42,8.09.15,1,.35,1.92.53,2.88a9.22,9.22,0,0,1,5-6.47,10.16,10.16,0,0,1-2.12-2.36,8.13,8.13,0,0,1,.71-10.12c.18-.17.35-.37.55-.55a.65.65,0,0,1,0-.48c.19-1.13.44-2.25.68-3.37a1.14,1.14,0,0,1-.16-.14,17.6,17.6,0,0,1-3.76-6.87,22.66,22.66,0,0,1,.94-14.77c-3,3.66-6.23,7.19-9.36,10.71a29.39,29.39,0,0,0-3,3.44,2.3,2.3,0,0,0,.29,3.2c1.28,1.36,2.4,2.88,1.85,4.87a9.46,9.46,0,0,1-3.81,4.93c-1.5,1.1-3.75,2.49-4.12,4.48-.4,2.16,1.56,3.83,2.66,5.44a7.32,7.32,0,0,1,1.41,4.85A19.56,19.56,0,0,1,63,147.15c-1,2-2.32,4.25-2,6.55C61.53,158.46,68.85,159.18,68.67,164.49Z"/><path d="M103.25,150.61a16.09,16.09,0,0,0,2.49-4.47,8.72,8.72,0,0,0-.07-5l-.53-1.83a29.21,29.21,0,0,1-7,1.54,31.31,31.31,0,0,1-7.23-.31,18.75,18.75,0,0,1-7.49-2.75,11,11,0,0,0-4,4.8,10.16,10.16,0,0,0-.42,6.46c1.32,4.34,5.29,7.07,9.46,8.31,3.37-1.1,7.16-1.83,10.24.15C100.07,155.19,101.64,152.88,103.25,150.61Zm-14.42,2.12a5.34,5.34,0,1,1,5.34-5.34A5.32,5.32,0,0,1,88.83,152.73Z"/><path class="cls-22" d="M101.46,188.73a10.45,10.45,0,0,1-6.37-3.92c-2.51.33-5.53-1.39-7.29-3.06a11.47,11.47,0,0,1-2.1-2.69c-.68-.35-1.47-.64-2.13-1l-.07,0a14.7,14.7,0,0,1,.51,4.84,2.36,2.36,0,0,1,0,.38c1.89,1.56,3.59,3.33,5.42,5A41.93,41.93,0,0,1,94.52,193a.34.34,0,0,1-.4.53c-2.11-1-3.88-2.85-5.7-4.28a56.83,56.83,0,0,1-4.5-3.83,10.21,10.21,0,0,0,.57,4c1.48,3.66,5.56,5.43,9.06,6.55,2.89.92,5.86,1.74,8.86,2.4-.18-1.85-.38-3.7-.57-5.57C101.7,191.47,101.48,190.08,101.46,188.73Z"/><path class="cls-23" d="M143.68,239.55c3.09-5.2,2.89-11.19,3.53-17a28.74,28.74,0,0,1,2.2-9.19,18.23,18.23,0,0,1,1.85-3c0-.06.05-.15.09-.22a7.72,7.72,0,0,1,1.83-2,19.87,19.87,0,0,1,2.25-2c.73-.55,1.47-1.08,2.25-1.61a.35.35,0,0,1,.15-.11,23.39,23.39,0,0,0,5.66-6.08A10.23,10.23,0,0,0,164.9,191a7.6,7.6,0,0,0-1.54-3.39c-.22-.24-.55-.51-.84-.8a62.61,62.61,0,0,1-4.78,4.13A8.71,8.71,0,0,1,157,198a7.25,7.25,0,0,1-3.85,3.24,8.73,8.73,0,0,1-1.39,3.31,9.89,9.89,0,0,1-4.1,3.28,6.85,6.85,0,0,1-3.17.66,11.85,11.85,0,0,1-.14,1.23,4.85,4.85,0,0,1-.83,2.21c.88,6.45,1.36,12.89.37,19.41a28.2,28.2,0,0,1-4.76,12.32A10,10,0,0,0,143.68,239.55Z"/><path class="cls-3" d="M72.57,236.13c0,.05,0,.09,0,.14a4.93,4.93,0,0,1-.13.79,3.48,3.48,0,0,0,1.91,1.65c0-.06-.11-.13-.15-.2A21.14,21.14,0,0,1,72.57,236.13Z"/><path class="cls-24" d="M71.84,217.05c2,3.88,3.9,7.82,6.7,11.26A34.87,34.87,0,0,0,83,232.89a37.68,37.68,0,0,0,3.55,2.47,20.79,20.79,0,0,1-.88-2.36,4.89,4.89,0,0,1-.16-2.93,32.33,32.33,0,0,1-10.15-11.52,32.85,32.85,0,0,1-2.91-7.49,31.79,31.79,0,0,1-.75-4.08c0-.13-.18-2-.6-1.54a3.59,3.59,0,0,0-.66,1.54,43.48,43.48,0,0,0-.53,17.45,37.5,37.5,0,0,0,2.49,8.11c.2.44.4.88.6,1.3a.75.75,0,0,1,.24.51c.35.68.71,1.39,1.1,2.05.55.95,1.19,1.85,1.7,2.84l.15,0a17.61,17.61,0,0,0,6.06-.08,31.22,31.22,0,0,0,3.9-1.17,27.27,27.27,0,0,1-4.69-3.55,33.5,33.5,0,0,1-4.74-5.14c-2.6-3.45-4.78-7.77-5-12.18C71.69,217,71.8,217,71.84,217.05Z"/><path class="cls-25" d="M86.08,194.2l-.46-.4a11.17,11.17,0,0,1-1.55-1.69,19.37,19.37,0,0,0-.39,3.54A5.08,5.08,0,0,1,86.08,194.2Z"/><path class="cls-26" d="M73.39,167.73a28.78,28.78,0,0,1,3,2.56A17.91,17.91,0,0,1,75.37,164a11.49,11.49,0,0,1-.93-.71,11.71,11.71,0,0,1-2.29-2.6,14.23,14.23,0,0,1,0,4A3.2,3.2,0,0,0,73.39,167.73Z"/><path class="cls-27" d="M83.79,220.2c.31-1.17.57-2.38.88-3.52.4-1.48.81-2.94,1.21-4.41A2.34,2.34,0,0,1,84,210.73a6.15,6.15,0,0,1,.11-2.56c.11-.77.17-1.54.33-2.31a27.87,27.87,0,0,1,1.47-5.31c.62-1.57,1.52-3.75,3-4.57a14.72,14.72,0,0,1-1.72-1,.38.38,0,0,1-.22.13c-4,1.15-4.54,7.39-4.76,10.78A45.23,45.23,0,0,0,83.79,220.2Z"/><path class="cls-28" d="M102,202.68c-.33-.86-1-2.33-2-2.58s-1.91.6-2.57,1.3a23.25,23.25,0,0,0-5.49,9.37.94.94,0,0,1,.2.29A19.23,19.23,0,0,0,96,212.73a43,43,0,0,0,4.78.68,15.54,15.54,0,0,1,.84-2.77c.27-.75.55-1.5.86-2.27C102.3,206.41,102.74,204.62,102,202.68Z"/><path class="cls-29" d="M103.47,214.69c.44.11.86.2,1.3.29a30.38,30.38,0,0,0,6.32.46c.46,0,2.71.13,2.65-.64-.12-1.06-.4-2.13-.62-3.17a12,12,0,0,1-.2-1.32c-.2-.69-.37-1.37-.57-2.07-.44-1.66-.66-3.84-1.61-5.31-2.58-4-6.41,5.75-7,7.38-.4,1.06-.79,2.13-1.1,3.24C102.39,214.47,102.76,214.54,103.47,214.69Z"/><path class="cls-30" d="M120.76,204.56c-.17-.51-.39-1.66-.94-1.9-1.08-.46-2.36,2-2.74,2.73a16.9,16.9,0,0,0-1.49,3.73,12.92,12.92,0,0,1-.49,2.16,16.51,16.51,0,0,1,.57,3.13,2.58,2.58,0,0,1,0,.68,14.55,14.55,0,0,0,3.51.53c1,0,3.61.24,3.83-1.15a12.4,12.4,0,0,0-.59-4.16c-.29-1.26-.6-2.49-1-3.73C121.21,205.92,121,205.24,120.76,204.56Z"/><path class="cls-31" d="M131,208.43a10.58,10.58,0,0,0-.48-3.39c-.31-.92-1-1.65-1.32-2.51l-1.06.13c-1.54.22-4.19.13-4.63,2a10.36,10.36,0,0,0-.22,2.44c.42,1.48.79,2.95,1.08,4.45a7.81,7.81,0,0,1,.22,3.55h0c0,2.91-.42,5.82-.66,8.71-.07.77-.18,1.52-.22,2.29,0,.42,0,.37.09-.13.2-.2.37-.4.57-.6.86-.9,1.72-1.83,2.53-2.78,3.2-3.76,6.18-8.5,6.29-13.61a14.74,14.74,0,0,0-.73-5.45,1.82,1.82,0,0,0-.86-1.1,10.87,10.87,0,0,1,.77,2.12,12.1,12.1,0,0,1,.4,3.87,13.75,13.75,0,0,1-2.85,7.43c0,.07-.13,0-.13-.07.18-1.23.64-2.33.86-3.54A24.66,24.66,0,0,0,131,208.43Z"/><path class="cls-32" d="M114.59,221c-3.06.64-6.28.55-9,2.23a.27.27,0,0,1-.27-.46c2.41-1.72,5.07-2.27,7.83-3.13a29.61,29.61,0,0,0,4.29-1.44c.38-.19.75-.44,1.13-.68a15.51,15.51,0,0,1-4-.66,8.86,8.86,0,0,1-3.81.66,32.59,32.59,0,0,1-3.26-.09,9.13,9.13,0,0,1-3.64,2.6A28.62,28.62,0,0,1,98,221.79a26.84,26.84,0,0,0-6.43,1.87,5.17,5.17,0,0,0-2.29,1.83,4.63,4.63,0,0,0-.51,2.34,6.37,6.37,0,0,1,1.15-.16,1.65,1.65,0,0,1,.72.11c.33-1.28,1.81-1.63,3.13-1.8,1.7-.23,3.77-.34,5.07,1,.07.06.11.13.18.2a3.21,3.21,0,0,1,3.13-2.12c1.08.07,2.16,0,3.24,0a2.89,2.89,0,0,1,2.27.95l.24.35a4.64,4.64,0,0,1,4.32-.15c1.74.68,4.14,1.52,5.09,3.23a1.73,1.73,0,0,1,.2.62,4.78,4.78,0,0,1,2.46-.84c1.41-.06,4,.75,4.7,2.3.94-1.15,2-2.23,2.84-3.33a101.29,101.29,0,0,0,6.06-8.57q1.72-2.72,3.24-5.49a11,11,0,0,0-1.43.13,7.47,7.47,0,0,1-1.57,0,33.06,33.06,0,0,1-7.2,11c-.71.78-1.81,2.49-3,2.54s-1.48-1.08-1.34-2.12c.35-3,.63-6,1.14-8.94a5.85,5.85,0,0,1-2.27.7C120.39,219.63,116.53,220.55,114.59,221Z"/><path class="cls-33" d="M101,215.33l-.07,0a9.2,9.2,0,0,1-3.65-.08.82.82,0,0,1-.31.39,10.52,10.52,0,0,0-1.74.88l-.22.2a4.82,4.82,0,0,1,.7.38,3.54,3.54,0,0,1,1.65,2.77c1.19-.26,2.41-.55,3.57-.92a14.15,14.15,0,0,0,3.11-1.37,7.3,7.3,0,0,0,.77-.57,19.2,19.2,0,0,1-2.42-.68A2.27,2.27,0,0,1,101,215.33Z"/><path class="cls-34" d="M90.75,218.39a7.72,7.72,0,0,0-3,1.72,3.68,3.68,0,0,0-.9,2.27,5,5,0,0,1,2.51.33,14.64,14.64,0,0,1,4.47-2c.73-.2,1.46-.37,2.19-.53C95.49,217.73,92.87,217.6,90.75,218.39Z"/><path class="cls-35" d="M91.1,197.35c-2.44-1.26-3.68,3.2-4.18,4.78a24.57,24.57,0,0,0-1.33,7.3c0,1.41,2.3,1.08,3.31,1,.46,0,.95-.06,1.41-.08a46.3,46.3,0,0,1,3.7-6.68c.22-.33.47-.68.71-1.06C93.59,200.88,93.09,198.36,91.1,197.35Z"/><path class="cls-36" d="M97.74,199.07c-1.39-.38-2.78-.79-4.15-1.24.22.31.42.62.62.93a12.46,12.46,0,0,1,1.3,2.67A8.72,8.72,0,0,1,97.74,199.07Z"/><path class="cls-37" d="M95,214.69a13.57,13.57,0,0,1-4.3-2.11,11.15,11.15,0,0,1-3.42-.07c-.48,1.65-.94,3.33-1.45,5a43.41,43.41,0,0,0-1.5,5.27l-.07.2c.31-.11.6-.22.84-.29s.22-.07.35-.09a3.63,3.63,0,0,1,.75-3.15,8.74,8.74,0,0,1,4.5-2.69,7.91,7.91,0,0,1,2.67-.37,4.41,4.41,0,0,1,1-1.1,5,5,0,0,1,.77-.53A.67.67,0,0,1,95,214.69Z"/><path class="cls-38" d="M87.4,228.31c-.9-1.17-.37-3.11.49-4.25a5,5,0,0,0-.66-.11,5.89,5.89,0,0,0-3.93,1.23l-.5.4a32.77,32.77,0,0,0,3.74,3.19A8.69,8.69,0,0,1,87.4,228.31Z"/><path class="cls-39" d="M88.3,236.64a.84.84,0,0,1,.23.4c1.12-.47,2.24-.95,3.37-1.41l1.27-.53c-.5-1.1-.94-2.23-1.41-3.35-.19-.49-.48-1-.72-1.54a1.21,1.21,0,0,1-.16-.16c-.66-.92-2-.39-2.88,0s-1,1.08-.84,2.07A18.7,18.7,0,0,0,88.3,236.64Z"/><path class="cls-40" d="M94.72,234.46a48.94,48.94,0,0,1,5.26-1.72,7.83,7.83,0,0,1-.92-1.89,6,6,0,0,1-.4-2.12,3.42,3.42,0,0,0-1.72-1,8.61,8.61,0,0,0-3.81.14c-.46.11-1.08.15-.77,1,.11.26.2.52.33.79.24.57.48,1.12.71,1.7C93.84,232.34,94.3,233.4,94.72,234.46Z"/><path class="cls-41" d="M105.71,226.7c-.59,0-1.16.11-1.74.11s-1.21-.11-1.83-.09c-1.52.05-2.11,1.68-1.72,3,.27.9,1,1.74,1.24,2.65a23.41,23.41,0,0,1,4.78-.53,9.11,9.11,0,0,1,.51-4.34A1.19,1.19,0,0,0,105.71,226.7Z"/><path class="cls-42" d="M111.47,227.74c-1.15-.4-2.85-.73-3.2.88-.24,1.06-.22,2.18-.42,3.24a17.2,17.2,0,0,1,6.63,1.76c.73-1.3,1.81-3.26.8-3.92A17.4,17.4,0,0,0,111.47,227.74Z"/><path class="cls-43" d="M123.54,233c-.53-.39-.86-1-1.45-1.36A4.09,4.09,0,0,0,120,231a5.58,5.58,0,0,0-3.19,1.52c-.29.6-.58,1.19-.89,1.81a57.66,57.66,0,0,1,6,4,5.12,5.12,0,0,1,.16-2.53A10,10,0,0,1,123.54,233Z"/><path class="cls-44" d="M135.66,244.44l.51,0c1.87-1.63,3.72-3.75,4.32-6.19a62.8,62.8,0,0,0,1.5-7.87c.83-6.92.11-13.73-.75-20.6-.11-.89,0-.4-.14,0l-.52,1.13c-.36.75-.73,1.47-1.11,2.22-.7,1.35-1.43,2.67-2.18,4-1.58,2.73-3.3,5.4-5.15,8a88.21,88.21,0,0,1-5.82,7.27c-1.06,1.17-2.43,2.38-2.93,3.92a4.92,4.92,0,0,0-.07,2.89l0,0a54.59,54.59,0,0,0,8.13-9.06c1.15-1.67,2.19-3.39,3.22-5.13.51-.86,1-1.75,1.46-2.65s1-1.45,1.41-2.2c.06-.13.24-.05.22.09a18.18,18.18,0,0,1-.64,3.35c-.33.94-.66,1.89-1,2.82a30.81,30.81,0,0,1-2.84,5.2,38.45,38.45,0,0,1-8.18,9.12,35.71,35.71,0,0,0,3.16,1.85,20.38,20.38,0,0,0,4.89,1.79c.92-1.11,2.27-1.94,3.17-3.07a20.49,20.49,0,0,0,2.69-4.65.16.16,0,0,1,.29.09,14.42,14.42,0,0,1-1.94,5.36A16.72,16.72,0,0,1,135.66,244.44Z"/><path class="cls-45" d="M154.08,199.22a7.84,7.84,0,0,0,1.44-2.07,6.91,6.91,0,0,0,.39-4.93q-1.84,1.28-3.79,2.4a9.06,9.06,0,0,1,1.17,5.33A6.9,6.9,0,0,0,154.08,199.22Z"/><path class="cls-46" d="M144.45,206.94l.55-.09a10.37,10.37,0,0,0,2.12-.64,7.85,7.85,0,0,0,3.13-2.54,7.29,7.29,0,0,0,1.28-4.29,7.69,7.69,0,0,0-1.19-3.75,55.78,55.78,0,0,1-6.66,2.93l-.75.27c.27.83.4,1.78.58,2.6.26,1.36.57,2.73.79,4.1C144.34,206,144.41,206.45,144.45,206.94Z"/><path class="cls-47" d="M140.88,199.47a62.89,62.89,0,0,1-7.75,1.87,2,2,0,0,1,.5.62c1.15,1.82,1.37,4.49,1.28,6.61a18.59,18.59,0,0,1-.61,4c.35,0,.7,0,1,0a4.73,4.73,0,0,0,1.59-.2,2.48,2.48,0,0,1,.88-.16l.79-1.58c.6-1.21,1.06-2.91,2.52-3.33a1.34,1.34,0,0,1,1.63.86c0-1-.11-2-.18-3A21.42,21.42,0,0,0,140.88,199.47Z"/><path class="cls-3" d="M123.06,202.33c-.49,0-1,0-1.44,0a5.07,5.07,0,0,1,.53,1.13A2.92,2.92,0,0,1,123.06,202.33Z"/><path class="cls-48" d="M113.69,205.61c.18.77.38,1.52.55,2.3.13-.4.29-.75.38-1a15.62,15.62,0,0,1,2.44-4.39c.07-.06.13-.15.2-.22-1.63-.08-3.24-.22-4.87-.39A12.18,12.18,0,0,1,113.69,205.61Z"/><path class="cls-49" d="M105,203.12a8.1,8.1,0,0,1,1.76-2.05c-1.27-.22-2.53-.46-3.79-.75a2.21,2.21,0,0,1-.35-.08,9.49,9.49,0,0,1,1.48,4.45C104.41,204.16,104.72,203.63,105,203.12Z"/><path class="cls-50" d="M93.17,169.14a7,7,0,0,0-2.42-.2A5.63,5.63,0,0,0,88,170.22a6.42,6.42,0,0,0-1.85,5.93,8.87,8.87,0,0,0,3.68,5.44,12.53,12.53,0,0,0,2.88,1.5c.53.18,1,.33,1.52.51a14.38,14.38,0,0,1-1.94-5.2A20.75,20.75,0,0,1,93.17,169.14Z"/><path class="cls-51" d="M97.76,159.14c-3.86-2.73-8.93.44-13,1.08-3.11.48-8.11.37-9.14-3.42a.11.11,0,0,1,.17-.11,7.54,7.54,0,0,0,5.51,2.47,14.46,14.46,0,0,0,4.63-.93A12.45,12.45,0,0,1,77.62,150,6.29,6.29,0,0,0,73,157.88a12.29,12.29,0,0,0,7.8,8.07c.15,0,.08.31-.07.24a23.66,23.66,0,0,1-4.41-1.63,26.57,26.57,0,0,0,.88,4.05,12.08,12.08,0,0,0,2.45,4.08,22.67,22.67,0,0,0,3.57,3.2c.55.39,1.06.83,1.59,1.23a1.29,1.29,0,0,1,.17.15,7.28,7.28,0,0,1-.35-2.35,7.54,7.54,0,0,1,3.35-6.48c1.43-.82,4-1.48,5.6-.49a56.13,56.13,0,0,1,4-8.61A1,1,0,0,0,97.76,159.14Z"/><path class="cls-52" d="M64.75,234.06c-.93-.9-1.39-2.18-2.34-3-1.1-1-2.69-.55-4-.48-2.29.08-5.09-1.06-4.72-3.82A6,6,0,0,1,56,223.26c1.15-1,2-1.74,1.43-3.28-1-2.75.49-4.41,2.43-6.21,2.11-2,2.84-4.63,1.3-7.23-1.3-2.2-2.25-4.5-.31-6.68,1.58-1.78,5.79-3.52,4.63-6.52,0-.13.15-.24.24-.13,1.45,1.61.33,3.92-1,5.26a15.12,15.12,0,0,0-2.65,2.78c-.75,1.32-.22,2.45.53,3.64,1.34,2.11,2.14,4.56,1.26,7.05a7.69,7.69,0,0,1-1.9,3,13,13,0,0,0-2.29,2.27c-.71,1.21.18,2.2.26,3.44a4.14,4.14,0,0,1-1.3,3.21c-.75.78-2.79,2-2.75,3.18s1.94,1.23,2.86,1.14a7.32,7.32,0,0,1,4,.29,6.2,6.2,0,0,1,2.47,2.4C66.55,233,68.45,234,71,233.29l.07,0a37.37,37.37,0,0,1-3-11.17,44.11,44.11,0,0,1-.18-9.19c.14-1.54.31-3.09.58-4.61a10,10,0,0,1,1-3.74,2,2,0,0,1,2.78-.8c1,.51,1,1.9,1.15,2.85a31.17,31.17,0,0,0,2.35,8.79,34,34,0,0,0,6.11,9.3,4.65,4.65,0,0,1,1.78-1.44.78.78,0,0,1-.61-.46,37.33,37.33,0,0,1-1.94-9,52.68,52.68,0,0,1-.4-6.28,1.12,1.12,0,0,1-.13-.16,13.85,13.85,0,0,0-1.41-1.67,17.56,17.56,0,0,0-1.24-1.34c-.88-.86-1.72-1.79-2.51-2.72-1.52-1.78-2.89-3.83-3-6.25,0-1.52.39-3,.31-4.54a3.34,3.34,0,0,0-2.16-3c-1.66-.79-3.71-1.32-4.21-3.3a.07.07,0,0,1,.13-.07c1.12,2.14,4.32,1.72,6.1,3.07,2.25,1.69,1.81,4.25,1.85,6.74.07,2.69,1.74,4.63,3.46,6.52a24.5,24.5,0,0,1,2.3,2.89c.22.35.39.68.55,1a.68.68,0,0,1,0-.2A18.27,18.27,0,0,1,82.66,197a.76.76,0,0,1-.06-.44c.24-1.88,0-3.82.7-5.56a9.58,9.58,0,0,1-1.06-3.32l-3.85-1a1,1,0,0,1-.57-1.39c1.12-2.21-1.44-4.23-3.29-4.76-2.31-.64-4.74-.62-7-1.48a6.23,6.23,0,0,1-4-3.9,7.45,7.45,0,0,1,.82-5.16c.79-1.6,2.14-3.39,2.2-5.24a4.15,4.15,0,0,0-1.3-3.11c1.1,2.74-.66,6.28-2.64,8.24-2.93,2.89-8.27,5.38-8.24,10.16,0,2.36,1.52,3.37,3.46,4.34,1.52.75,3.3,1.79,3.63,3.64.82,4.36-3.35,6.63-6,9.19a5.39,5.39,0,0,0-2,3.9,13.55,13.55,0,0,0,1.1,4.17c1,2.75,1.28,5.57-.51,8.08s-4.18,4-6.74,5.42c-2.38,1.37-5.31,3-6,5.87-.68,2.71.46,5.17,3.53,5.15,2.82,0,5.84-.62,8,1.63,2,2.1,2.51,4.89,3.9,7.38a4.55,4.55,0,0,0,3,2.63c.88.15,2.14,0,2.54-1a1.06,1.06,0,0,1,1.76-.47,7.59,7.59,0,0,0,4.72,2.56,20.1,20.1,0,0,1,1.8-6.81A6.8,6.8,0,0,1,64.75,234.06Z"/><path class="cls-53" d="M176.08,232.23a31,31,0,0,1-6.7,8.2,21.17,21.17,0,0,1-4.28,2.8,11.16,11.16,0,0,1-3.88,1.28,14.29,14.29,0,0,1-3.5,6.41c-.62.68-1.26,1.39-1.81,2.12a16.46,16.46,0,0,1,5.36-3.27c1.36-.44,3-.48,4.27-1.19a7.1,7.1,0,0,0,2.34-2.38c1.14-1.78,2.18-3.94,4.1-5,2.14-1.24,5.35-1.39,6.7-3.7,2.18-3.73.75-9.26,5.09-11.73a16.27,16.27,0,0,1,6.87-1.76,39.1,39.1,0,0,0,4.34-.4c1.17-.2,2.38-.9,3.55-.86.05,0,.09,0,.07.09-.84,2-4.63,2.12-6.46,2.21-2.64.11-5.66-.18-7.95,1.43-4.06,2.86-1.92,8.68-4.79,12.25a6.2,6.2,0,0,1-2.6,1.9,17.85,17.85,0,0,0-3.81,1.56c-1.94,1.41-2.6,3.86-3.86,5.82-1.49,2.31-3.45,3.19-6.06,3.9-2.84.77-5,2.64-7.11,4.58a1.29,1.29,0,0,1-1.72.05,14.88,14.88,0,0,0-.33,3c0,3.2.2,6.33-.47,9.5-.11.51-.24,1-.37,1.52,2-.24,3.83-2,5.16-3.33a34.78,34.78,0,0,0,5.09-6.25c2.93-4.85,5.4-11,11-13.27a15.85,15.85,0,0,1,5.07-.88,8.56,8.56,0,0,0,4.6-1.15c3.06-2.14.57-6.06.86-9a9.34,9.34,0,0,1,4.36-6.66,16.89,16.89,0,0,1,9.08-2.16c1.7,0,4,0,5.25-1.34s.95-2.84,1-4.43a5.07,5.07,0,0,1,1.35-3.62,8.64,8.64,0,0,1,3.08-1.71c1.3-.47,3.13-1,3.82-2.34.81-1.61-.75-2.78-1.59-4a8.56,8.56,0,0,1-1-7.78c0-.11.24-.11.22,0a8.53,8.53,0,0,0,.72,5.32c.82,1.3,2.07,2.33,2.82,3.68,1.41,2.55-.35,4.84-2.75,5.86-1.37.57-3.2.83-4.25,2-1.24,1.32-.82,3.09-1,4.72-.35,2.95-2.6,4.58-5.48,4.89-3.49.37-7.06,0-10.21,1.89a7.49,7.49,0,0,0-3.7,8.38c.64,2.71,1.12,5.64-1.48,7.51-2.75,2-6.17,1.35-9.23,2.43-6.46,2.29-8,10-11.64,15.05a37.84,37.84,0,0,1-5.22,6,14.36,14.36,0,0,1-3.88,2.65,14.17,14.17,0,0,0,11.51-5.45c1.78-2.44,2.62-5.35,4-8a12,12,0,0,1,6.1-6,18.26,18.26,0,0,1,8.79-1c2.89.3,7.14,1.76,9.63-.42,2-1.77,1.13-3.84-.41-5.56s-3.31-3.21-4.26-5.31a6.66,6.66,0,0,1,1.21-7.23c2.12-2.4,5.09-3.32,8.2-3.68,1.65-.19,3.4-.13,5.05-.46a5.09,5.09,0,0,0,3.06-1.43c.95-1.21-.4-2.87-.31-4.21A4.62,4.62,0,0,1,209,221.3c1.85-1.85,4.27-2.2,6.63-3,2-.62,5.2-2.27,3.42-4.78-1.41-2-3.88-2.93-5.45-4.78a7.33,7.33,0,0,1-1.39-6.15,8.08,8.08,0,0,1,3.51-5.25,9,9,0,0,1,3.85-1c.95-.09,4.43-.77,3.2-2.51-.71-1-2-1.5-2.58-2.6a4.2,4.2,0,0,1-.28-3.53c.9-2.2,2.71-3.26,4.8-3.92a5.79,5.79,0,0,1-1.19-4.37c.31-2.66,2.42-4.54,4.78-5.57,3-1.32,6.28-1.19,9.39-2.05,2.53-.71,6.24-2.8,5.44-6-.77-3.06-3.7-4.82-5.18-7.51-1.08-2-1.76-4.59-.15-6.48a32.53,32.53,0,0,1,2.93-3.06,30.3,30.3,0,0,1-5.62,1.45c-1.65.29-3.55.59-4.76,1.89a2.85,2.85,0,0,0-.55,3.66c1.3,1.88,3.77,2.78,4.74,4.92a5.79,5.79,0,0,1-1.77,6.76c-2.44,2.14-5.53,2.47-8.63,2.89-2.67.35-6.79,1.17-7.72,4.25-.79,2.67,1.39,5.22.77,7.89s-3.15,2.8-5.42,3.24c-1.38.26-2.18,1-1.56,2.45a28.75,28.75,0,0,1,1.67,3.5c.69,2.53-.68,4.65-2.71,6.1-2.22,1.59-5.13,2.16-7.11,4.08-1,1-1.77,2.25-1.24,3.68a13.5,13.5,0,0,0,2.12,3.15c1.58,2.14,2.16,4.74.66,7.1a9.86,9.86,0,0,1-7.16,4.38c-3.42.51-6.92-.33-10.34.22a9.74,9.74,0,0,0-5.33,2.38A87.53,87.53,0,0,1,176.08,232.23Z"/><path class="cls-54" d="M215.59,148.45a8.87,8.87,0,0,0,2.11-8c-.66-2.91-2.07-5.92-1.43-9s2.8-4.91,4.43-7.27c3.81-5.48.33-12.1,1.17-18.16.44-3.19,2.16-5.84,3.79-8.55,1.39-2.31,2.73-5,2.47-7.64a162,162,0,0,1-11,13.68,70.29,70.29,0,0,1-14.74,12.23,69.14,69.14,0,0,0-8.15,5.56.57.57,0,0,1-.29.24,17.07,17.07,0,0,0-5.31,7.4c-1.12,3.37-.55,6.81-.84,10.27a15.66,15.66,0,0,1-.88,4.17,5.59,5.59,0,0,1-2.25,2.79c-.24.16-.5-.15-.37-.37a17,17,0,0,0,1.9-9.1c0-.31,0-.6,0-.9a60.32,60.32,0,0,1-10.82-4.72,53.68,53.68,0,0,1-9.67-6.54,45.8,45.8,0,0,1-8.73-10c-7,.38-12.29-5.06-16.72-9.74-2.45-2.57-5.12-5.31-8.42-6.8a12.7,12.7,0,0,0-5.33-1.24,10.75,10.75,0,0,0-2.65.33,8,8,0,0,0-2.27.77c-.09,0-.15-.06-.06-.13a9.79,9.79,0,0,1,2.13-1.37,9.38,9.38,0,0,1,2.16-.48,13.43,13.43,0,0,1,4.76.46,20.11,20.11,0,0,1,8.53,5.23c4.85,4.64,9.76,11.65,17.1,11.7-.48-.86-1-1.72-1.39-2.63a69.7,69.7,0,0,1-3-7.73c-3,.31-6-1.48-8.2-3.28-2.82-2.32-5.62-4.9-8.95-6.46-7.4-3.48-15.2-2.14-22.89-.6-.16,0-.2-.17-.07-.24,6.74-2.84,15-3.59,22-.84,3.3,1.33,5.75,3.44,8.46,5.69a21.13,21.13,0,0,0,4.83,3.15,14,14,0,0,0,4.36,1,82.06,82.06,0,0,0-3.81-10c-2.43-5-6.44-10.53-12-12.34-3.17-1-6.3-.64-9.54-.2-2.74.38-5.71.73-8.2-.62a10.7,10.7,0,0,0-6.21,1.63,53.15,53.15,0,0,0-6.53,5A58.15,58.15,0,0,0,94.81,96.29c-1,1.37-1.83,2.78-2.69,4.23a35.26,35.26,0,0,0,5.55-2.73c1.85-1.13,3.66-2.45,5.55-3.48a.09.09,0,0,1,.11.13,21.39,21.39,0,0,1-5.15,4.21c-2,1.23-4,2.38-6.11,3.41a.71.71,0,0,1-.81-.08,74.61,74.61,0,0,0-3.4,6.89,12.89,12.89,0,0,0,5.07-2.47c1.74-1.25,3.33-2.68,5-4a26.64,26.64,0,0,1,5-3.37,9.53,9.53,0,0,1,5.39-1,.18.18,0,0,1,0,.35c-4.54.4-8.19,3.35-11.52,6.19a36.54,36.54,0,0,1-4.65,3.57,25,25,0,0,1-4.85,2.14,69.57,69.57,0,0,0-3.75,12.43c1.77-1.43,3.55-2.84,4.46-5a.09.09,0,0,1,.17,0c-.22,3-2.69,4.63-4.56,6.65a9.61,9.61,0,0,0-2.49,3.75,6.6,6.6,0,0,0,.82,5.14c2.07,3.48,6.21,4.8,10,5.26a34.09,34.09,0,0,0,12.68-.81,14.16,14.16,0,0,1-.36-5.64,13,13,0,0,1,3.79-7.59.14.14,0,0,1,.22.18,15.77,15.77,0,0,0-1.89,12.89c.66,2.14,1.74,4.37,1.61,6.68a12,12,0,0,1-2,5.8c-1.83,2.88-3.9,5.59-5.62,8.57a61.8,61.8,0,0,0-4.69,9.56c-2.14,5.77-2.89,14.24,3.48,17.76,5.8,3.22,10.6-2.11,15.65-4.25,1.1-.46,2.64-1.15,3.85-.73a2,2,0,0,1,1.5,2.23,2.88,2.88,0,0,1-2.51,2.36c-1.56.11-2.89-.8-4.41-.78a1.14,1.14,0,0,1-.39-.06c-2.8,1.76-5.54,3.92-8.95,4.23-.42,0-.82,0-1.21,0,.24,1.44.26,3,.39,4.35.16,1.78.31,3.56.49,5.37,10.71,2.23,21.88,2.6,32.5.07a60.78,60.78,0,0,0,17-6.88,51.94,51.94,0,0,0,7.47-5.4,59.5,59.5,0,0,0,4.94-5.22,37.36,37.36,0,0,1-4.17,1,50.15,50.15,0,0,1-6.48.7c-3.72,5.29-9.63,8.51-15.75,10.25a79.65,79.65,0,0,1-11.37,2c-4.21.57-8.42,1.08-12.61,1.69a.32.32,0,0,1-.17-.61,75.25,75.25,0,0,1,11.72-2.23,78.78,78.78,0,0,0,11.28-2.27c5.51-1.61,10.95-4.3,14.55-8.84-.45,0-.89,0-1.33,0-3.1-.13-6.5-.55-9.1-2.42s-4.1-4.65-6.54-6.57c-1.79-1.41-4.89-2.16-6.5-.13l0,0a10.19,10.19,0,0,1,.64,3.68c0,3.06-1.52,6.59-4.3,8.18a11.76,11.76,0,0,1-8.55,1.45c-.08,0,0-.15,0-.13,6.39,1.28,12.29-4.92,10.86-11.24-.68-3-2.84-6.48-6.28-6.7a7.76,7.76,0,0,0-2.82.35,6.4,6.4,0,0,1-1.94.36,2.29,2.29,0,0,1-2.25-1.33c-.11-.33.27-.52.53-.39a3.7,3.7,0,0,0,2.93.28,11,11,0,0,1,2.8-.75,8.06,8.06,0,0,1,4.85,1.64A9.18,9.18,0,0,1,128,172c1.9-1.91,4.94-1.85,7.34-.66,2.71,1.32,4.3,4,6.39,6,2.47,2.42,5.62,3.22,9,3.35a41.83,41.83,0,0,0,16-2.16s.08,0,.11,0a27.33,27.33,0,0,0,3.81-1.76c5.13-2.89,9.52-7.51,11.06-13.33a17.92,17.92,0,0,0,.22-8.64,19.74,19.74,0,0,0-4.05-7.76.12.12,0,0,1,.15-.19c3.79,2.44,5.84,7.38,6.06,11.79a19.16,19.16,0,0,1-2.62,10.66,1.21,1.21,0,0,1,.33.75c.26,3.46,5,3.48,7.09,1.74,2.65-2.22,3.51-5.49,4.48-8.66a19.51,19.51,0,0,1,4.43-8.24c1-1.12,2.4-2.31,2.86-3.86a7.21,7.21,0,0,0-.15-4.45c-1-3-2.67-5.75-3-8.9-.73-6.52,2.86-12.43,7.29-16.88,1.24-1.24,2.51-2.4,3.84-3.55a23.79,23.79,0,0,1,3.52-2.84,3.1,3.1,0,0,1,3.59-.13,2.11,2.11,0,0,1,.56,2.35.15.15,0,0,1-.29-.08c.35-1.17-1.5-1.66-2.29-1.35a9.42,9.42,0,0,0-2.56,1.76c-1.32,1.13-2.67,2.25-3.92,3.44-4.72,4.43-9.57,10.89-8,17.81.73,3.1,2.69,5.79,3.33,8.92l.07.4a8.47,8.47,0,0,0,2.27-.9,7.15,7.15,0,0,0,2.09-2.67c1.19-2.54,1-5.47,1-8.2a20.85,20.85,0,0,1,.84-7.16,7.68,7.68,0,0,1,3.48-4.45c.13-.09.29.11.18.22-2,1.59-2.93,4.54-3,7-.11,2.91.5,5.81.39,8.74a11.41,11.41,0,0,1-2.27,6.86c-.92,1.17-3.12,3.11-4.89,2.77a8.75,8.75,0,0,1-2.42,5.14,32.08,32.08,0,0,0-2.67,3c1.48.51,2.8,2.56,3.48,3.72a12.44,12.44,0,0,1,1.79,5.62,12.86,12.86,0,0,1-1,5.87c-.69,1.58-1.66,3.43-3.24,4.27a.33.33,0,0,1-.44-.44c.77-1.63,2-3,2.4-4.78a11.85,11.85,0,0,0,.26-5,12.34,12.34,0,0,0-1.94-4.67,12,12,0,0,0-1.72-1.92c-.26-.24-.53-.41-.72-.63a23.32,23.32,0,0,0-1.19,3.28c-.91,3-1.7,6.28-3.75,8.75-1.74,2.11-4.39,3.83-7.23,3.33a6,6,0,0,1-4.54-3.55c-.22.26-.42.53-.64.79.07.07.16.13.22.2a23.69,23.69,0,0,1,1.77,31.64A24.21,24.21,0,0,1,175,210a36.08,36.08,0,0,1-8.17,3.46c-3,1-6.11,2.05-8.31,4.39a16.39,16.39,0,0,0-3.86,7.91c-1.39,6.41-.35,13.16-2.07,19.5a17.81,17.81,0,0,1-10.18,11.86,18.1,18.1,0,0,1-15.36-.2c-3-1.5-5.6-3.59-8.48-5.29a19.29,19.29,0,0,0-5-2.2,18.59,18.59,0,0,0-5-.4.08.08,0,0,1,0-.15c2.6-1.19,5.78-.51,8.33.48a60.54,60.54,0,0,1,8,4.21,20.8,20.8,0,0,0,7.93,3.13,16.67,16.67,0,0,0,7.12-.7,16.31,16.31,0,0,0,10.6-10.47c1.83-5.93.92-12.14,1.89-18.18a21.14,21.14,0,0,1,2.82-8.13,15.22,15.22,0,0,1,6.48-5.49c2.78-1.26,5.75-2,8.6-3.13a22.4,22.4,0,0,0,14.28-20.67A23.8,23.8,0,0,0,178,173.77c-.4.4-.79.77-1.21,1.15a22.71,22.71,0,0,1,.59,24.83c-4.8,8-14.3,10-21.33,15.32-.2.15-.46-.18-.29-.36,6.17-5.57,14.77-7.84,19.84-14.72a20.14,20.14,0,0,0-.36-23.8,30.29,30.29,0,0,1-4.71,3c4.38,2.16,6.17,8.15,4.43,12.8-2.36,6.33-8.09,9.79-13.55,13.16a32,32,0,0,0-7.61,5.92,17.53,17.53,0,0,0-3.85,8.78c-1,6-.25,12.16-2.47,17.91-2,5.2-6.24,9.5-12.19,9.26-6.7-.29-11.74-4.59-17-8.22-2.66-1.85-5.53-3.64-8.77-4.26a21.63,21.63,0,0,0-10.25.84c-3.39,1-6.65,2.42-9.93,3.75a28,28,0,0,1-9,2.42A18,18,0,0,1,75,241a5.15,5.15,0,0,1-3.32-2.6,14.1,14.1,0,0,0-.91,4.7,1,1,0,0,1,.07.94l.07.47c.48,2.55,2.13,5.31,4.91,5.7,5.75.86,10.64-7,16.37-3.26a.14.14,0,1,1-.13.24c-3.48-1.78-7.36,1.08-10.25,2.76-2,1.17-4.45,2.31-6.76,2-.16,4.5,1.63,9.26,5.64,11.64a10,10,0,0,0,9.1.64c3.09-1.24,5.69-3.33,8.62-4.85,2.73-1.41,5.77-2.51,8.88-2.09a8.85,8.85,0,0,1,6.5,4.49,20.92,20.92,0,0,1,2.31,8.05c.38,3.17.55,6.74,2.34,9.52,3.35,5.22,11,6.28,16.64,5.06a21.49,21.49,0,0,0,14.43-10.71A19.52,19.52,0,0,0,152,264.8c.07-3.21-.55-6.72.6-9.8,1.08-2.89,3.39-4.7,5.11-7.16,2.05-3,1.87-6.33,1.76-9.77-.13-4.45,1.28-11,6.64-11.61a.4.4,0,0,1,.11.79c-2.85.62-4.26,3.46-4.76,6.13a22.27,22.27,0,0,0,0,4.69c.05,1.37.11,2.76.05,4.12a7.2,7.2,0,0,0,1.12-.33,13.24,13.24,0,0,0,2.23-1,19.1,19.1,0,0,0,3.9-3,35.41,35.41,0,0,0,6-8c1.1-1.91,2.07-3.9,3.07-5.88a.11.11,0,0,1,0-.07,6.76,6.76,0,0,1,1-2c.36-.71.73-1.39,1.1-2.07a41.67,41.67,0,0,1,2.21-3.68c-1.9,1-3.81,2-5.71,3a33.71,33.71,0,0,0-4,2.51c-1.23.9-2.31,2-3.48,2.93-.42.35-1.15-.11-.79-.62a18.1,18.1,0,0,1,5.7-4.87c2.29-1.41,4.72-2.62,7.08-3.94,1.27-.71,2.53-1.48,3.74-2.29a5.46,5.46,0,0,1,1.55-1.13h0a29.24,29.24,0,0,0,6.72-7,24.2,24.2,0,0,0,4.36-16,20.36,20.36,0,0,0-2.64-8.24c-.64-1.08-1.61-2.51-2.95-2.73-.93-.16-2.69.22-2.82,1.39,0,.37-.62.41-.62,0s0-.47.06-.78c.16-2.35,3.29-2.93,5.05-2,2.27,1.17,3.59,3.7,4.41,6.1,5-1.17,7.2-6.06,8.11-10.73a1.11,1.11,0,0,1,0-.35l.07-.2c0-.31.11-.62.15-.91.16-1.12.29-2.26.42-3.43v0c.49-4.3,1-8.73,3.57-12.3C211.82,152.35,213.87,150.54,215.59,148.45Zm-93.86-45.09c4.54-4.45,11.66-2.46,16.07,1.08a52.34,52.34,0,0,1,6.81,7.23,55,55,0,0,0,6.9,7.08c.26.22-.07.59-.36.46a18.32,18.32,0,0,1-5.09-3.68,21.31,21.31,0,0,1-10,5,20.45,20.45,0,0,1-5.73.42,15.86,15.86,0,0,1-2.91-.44,16.13,16.13,0,0,1-2.27-1.06s0-.08,0-.06c.93.2,1.87.15,2.82.28a21.36,21.36,0,0,0,2.67.23,20.49,20.49,0,0,0,5.42-.53,20.15,20.15,0,0,0,9.06-4.85c-.45-.46-.86-1-1.31-1.43a15,15,0,0,1-7.6,3.3,17.3,17.3,0,0,1-8.5-.88c-2.56-1-5.27-2.53-6.75-4.94A5.73,5.73,0,0,1,121.73,103.36ZM105.18,115A10.18,10.18,0,0,1,94,113a1,1,0,0,1-.25-.35c-.37.2-.72.4-1.12.57.79,1.32,1.32,2.62,2.8,3.42a8.5,8.5,0,0,0,4.69,1c.05,0,.05,0,0,.06a6.11,6.11,0,0,1-5-.53c-1.37-.74-3.09-1.87-3.57-3.48a10.33,10.33,0,0,1-2.09.53c-.14,0-.25-.15-.09-.22,4.12-1.92,7.38-4.93,10.91-7.73,1.65-1.33,3.39-2.76,5.53-3.09a4.25,4.25,0,0,1,4.52,2.09C112.19,109.25,108.8,113.39,105.18,115Zm4.76,1.26a.1.1,0,0,1-.11-.16c.42-.46.8-.92,1.26-1.39s.71-.7,1-1.06l1.25-1.38a6.73,6.73,0,0,0,.69-1.3,12.76,12.76,0,0,1,.22-4.12c-.6-1.64-.6-3.51-1.24-5.14,0-.09.11-.13.16-.06a15.48,15.48,0,0,1,1.56,3.34,18.74,18.74,0,0,1,2-4.23.08.08,0,0,1,.13.07c-.6,3.19-2.07,6.17-1.74,9.5a12.13,12.13,0,0,0,1.3,4.1,10.36,10.36,0,0,0,2.4,2.79.1.1,0,0,1-.07.16c-2.29-.27-3.74-2.56-4.4-4.74a8,8,0,0,1-1.33,1.48,18.36,18.36,0,0,1-1.52,1.25A9.39,9.39,0,0,1,109.94,116.26Zm58.82,29.3a22.92,22.92,0,0,1-6.52,7.52A31.13,31.13,0,0,1,152.17,158c-.75.22-1.5.42-2.27.62,4.16.11,8.86-.11,12.56-2.2.22-.14.37.17.2.33a19.37,19.37,0,0,1-5.34,3,19.86,19.86,0,0,1-6.21,1,65.68,65.68,0,0,1-13.51-1.85c-4.6-1-9.25-1.9-14-1.55a20.38,20.38,0,0,0-6,1.3c-1.83.75-3.26,2-5,2.89a.18.18,0,0,1-.24-.24,9.21,9.21,0,0,1,4.16-3.37,20.55,20.55,0,0,1,2.87-1.17,12.59,12.59,0,0,1-3-10.42,13.3,13.3,0,0,1,4.3-7.65,12.61,12.61,0,0,1-2.23-1.35,6.21,6.21,0,0,1-2.35-6.74c.66-2.51,2.53-6.19-.29-8.17,0,0,0-.09,0-.07,1.85.53,2.49,2.49,2.47,4.25,0,2.58-1.43,5.89.68,8,1.74,1.74,4.26,2.36,6.59,2.93a44,44,0,0,0,8.07,1.26,52,52,0,0,0,31.18-8.24c.33-.22.75.31.44.57a37.44,37.44,0,0,1-6.74,4.8l-1.19.6a16.33,16.33,0,0,1,1.85,1.41,11.41,11.41,0,0,1,3.26,5,10.72,10.72,0,0,1-.09,6.22,14.71,14.71,0,0,1-.62,1.61,25.69,25.69,0,0,0,5.73-5.95,20.54,20.54,0,0,0,2.27-4.17,40,40,0,0,0,1.19-4.36.11.11,0,0,1,.22,0C171.49,139.39,170.21,142.88,168.76,145.56Z"/><path class="cls-55" d="M158.38,138.75a11.47,11.47,0,0,0-2.18-1.69c-.82.37-1.65.72-2.47,1.06a10.07,10.07,0,0,1,2.32,2,11.63,11.63,0,0,1,2.73,5.16,12.05,12.05,0,0,1-.24,6.36c-.18.51-.38,1.06-.62,1.61l.55-.31a12.93,12.93,0,0,0,2.42-4.18,10.06,10.06,0,0,0-2.51-10Z"/><path d="M154.41,140.74a15.36,15.36,0,0,0-1.89-1.72c-.13-.11-.29-.2-.42-.31-.44.15-.88.31-1.3.44A46.57,46.57,0,0,1,134,141.44a47,47,0,0,1-8.42-1.19,33.75,33.75,0,0,1-3.55-1,13.76,13.76,0,0,0-2.66,3,10.62,10.62,0,0,0-1.59,4.65,12,12,0,0,0,3.15,9.19.73.73,0,0,1,.14.2l.9-.2a35.69,35.69,0,0,1,13.07.27c2.49.44,5,1,7.49,1.43h0c.4-.07.79-.11,1.19-.2.9-.2,1.83-.39,2.73-.55a39.38,39.38,0,0,0,5.07-1.21,36.61,36.61,0,0,0,3.46-1.24,11.56,11.56,0,0,0,.95-1.34,10.66,10.66,0,0,0,1-2.4,10.46,10.46,0,0,0,.07-5.44A11.65,11.65,0,0,0,154.41,140.74Zm-22.25,12.87a5.34,5.34,0,1,1,5.33-5.34A5.33,5.33,0,0,1,132.16,153.61Z"/><path class="cls-56" d="M209.55,160.68c2-2.62,4.5-4.87,6.32-7.62a13.32,13.32,0,0,0,1.75-3.42c.11-.4.19-.79.28-1.19a64.19,64.19,0,0,1-4.36,5A17.15,17.15,0,0,0,209.55,160.68Z"/><path class="cls-57" d="M255.32,61.69a19.37,19.37,0,0,0-2.49,7.47,56.64,56.64,0,0,0-.33,8.44,19.55,19.55,0,0,1-1,7.74,9.18,9.18,0,0,1-5.26,4.91c-2.41,1-5.53,1.79-6.35,4.63s-.13,5.53-.24,8.29a10.82,10.82,0,0,1-3.07,7.49c-4.12,4.12-10.68,5.88-12.42,12a.7.7,0,0,1-.44.4c-1.13,2.64-3.35,4.47-4.7,7-1.61,3-.24,6.08.51,9.17a15,15,0,0,1,.37,2.18c.82-.95,2.18-1.52,2.76-2.62.77-1.5.26-3.31,0-4.89a9.64,9.64,0,0,1,.16-4,11.79,11.79,0,0,1,4.73-6.17c2.41-1.61,5-2.86,7.45-4.34s5.18-3.3,6.55-5.93h0a9.66,9.66,0,0,1-.86,1.81c-3.22,4.74-9.15,6.24-13.16,10.14-2.2,2.14-3.74,4.76-3.21,7.93.46,2.82,1.16,5.82-1.37,7.91a5.93,5.93,0,0,0-2.53,3.64c-.29,1.36-.31,2.8-.6,4.16a15.85,15.85,0,0,1-3.26,6.5c-2.93,3.75-6.74,6.9-7.87,11.68a22.14,22.14,0,0,1,3.95-2.82c3.5-2,8.37-4.1,8.61-8.77.14-2.73-.66-5.64.11-8.31a6.34,6.34,0,0,1,2.19-3.3c1-.79,2.18-1.26,3.23-2,3-2,1.33-5.4,1.57-8.31a10.32,10.32,0,0,1,3.83-7,54,54,0,0,1,7.17-4.61c2.38-1.48,4.84-3.44,5.53-6.3,1.25-5.36-2.32-11.13.24-16.31,1.3-2.64,3.81-3.92,6-5.71a12.52,12.52,0,0,0,4.35-7.58c1.3-6.92-1.24-13.86,0-20.78a16.16,16.16,0,0,1,3.48-7.6A12.39,12.39,0,0,0,255.32,61.69Z"/></svg>