<svg id="Calque_1" data-name="Calque 1" xmlns="http://www.w3.org/2000/svg" xmlns:xlink="http://www.w3.org/1999/xlink" viewBox="0 0 300 300"><defs><style>.cls-1{fill:url(#Dégradé_sans_nom_42);}.cls-2{fill:url(#Dégradé_sans_nom_32);}.cls-3{fill:url(#Dégradé_sans_nom_18);}.cls-4{fill:url(#Dégradé_sans_nom_32-2);}.cls-5{fill:url(#Dégradé_sans_nom_18-2);}.cls-6{fill:url(#Dégradé_sans_nom_18-3);}.cls-7{fill:url(#Dégradé_sans_nom_18-4);}.cls-8{fill:#02818d;}.cls-9{fill:url(#Dégradé_sans_nom_5);}.cls-10{fill:#231f20;}.cls-11{fill:url(#Dégradé_sans_nom_5-2);}.cls-12{fill:url(#Dégradé_sans_nom_5-3);}.cls-13{fill:url(#Dégradé_sans_nom_5-4);}.cls-14{fill:url(#Dégradé_sans_nom_5-5);}.cls-15{fill:url(#Dégradé_sans_nom_18-5);}.cls-16{fill:url(#Dégradé_sans_nom_5-6);}.cls-17{fill:url(#Dégradé_sans_nom_18-6);}.cls-18{fill:url(#Dégradé_sans_nom_5-7);}.cls-19{fill:url(#Dégradé_sans_nom_20);}.cls-20{fill:url(#Dégradé_sans_nom_20-2);}.cls-21{fill:url(#Dégradé_sans_nom_32-3);}.cls-22{fill:url(#Dégradé_sans_nom_18-7);}.cls-23{fill:url(#Dégradé_sans_nom_32-4);}.cls-24{fill:url(#Dégradé_sans_nom_55);}.cls-25{fill:url(#Dégradé_sans_nom_18-8);}.cls-26{fill:url(#Dégradé_sans_nom_55-2);}.cls-27{fill:url(#Dégradé_sans_nom_32-5);}.cls-28{fill:url(#Dégradé_sans_nom_32-6);}.cls-29{fill:url(#Dégradé_sans_nom_18-9);}.cls-30{fill:url(#Dégradé_sans_nom_55-3);}.cls-31{fill:url(#Dégradé_sans_nom_55-4);}.cls-32{fill:url(#Dégradé_sans_nom_32-7);}.cls-33{fill:url(#Dégradé_sans_nom_55-5);}.cls-34{fill:url(#Dégradé_sans_nom_18-10);}.cls-35{fill:url(#Dégradé_sans_nom_18-11);}.cls-36{fill:url(#Dégradé_sans_nom_42-2);}.cls-37{fill:url(#Dégradé_sans_nom_18-12);}.cls-38{fill:url(#Dégradé_sans_nom_42-3);}.cls-39{fill:url(#Dégradé_sans_nom_42-4);}.cls-40{fill:url(#Dégradé_sans_nom_55-6);}.cls-41{fill:url(#Dégradé_sans_nom_42-5);}.cls-42{fill:url(#Dégradé_sans_nom_42-6);}</style><linearGradient id="Dégradé_sans_nom_42" x1="225.11" y1="1106.47" x2="257.07" y2="1106.47" gradientTransform="matrix(1, 0, 0, -1, 0, 1262)" gradientUnits="userSpaceOnUse"><stop offset="0" stop-color="#ffca28"/><stop offset="1" stop-color="#ff8c00"/></linearGradient><linearGradient id="Dégradé_sans_nom_32" x1="183.67" y1="1134.44" x2="221.81" y2="1134.44" gradientTransform="matrix(1, 0, 0, -1, 0, 1262)" gradientUnits="userSpaceOnUse"><stop offset="0" stop-color="#943a33"/><stop offset="1" stop-color="#581814"/></linearGradient><linearGradient id="Dégradé_sans_nom_18" x1="192.87" y1="1083.39" x2="207.08" y2="1083.39" gradientTransform="matrix(1, 0, 0, -1, 0, 1262)" gradientUnits="userSpaceOnUse"><stop offset="0.01" stop-color="#546f79"/><stop offset="1" stop-color="#364750"/></linearGradient><linearGradient id="Dégradé_sans_nom_32-2" x1="178.25" y1="1069.4" x2="194.74" y2="1069.4" xlink:href="#Dégradé_sans_nom_32"/><linearGradient id="Dégradé_sans_nom_18-2" x1="136.19" y1="1065.02" x2="175.8" y2="1065.02" xlink:href="#Dégradé_sans_nom_18"/><linearGradient id="Dégradé_sans_nom_18-3" x1="129.25" y1="1066.91" x2="160.28" y2="1066.91" xlink:href="#Dégradé_sans_nom_18"/><linearGradient id="Dégradé_sans_nom_18-4" x1="102.82" y1="1075" x2="149.95" y2="1075" xlink:href="#Dégradé_sans_nom_18"/><linearGradient id="Dégradé_sans_nom_5" x1="93.92" y1="1094.86" x2="113.11" y2="1094.86" gradientTransform="matrix(1, 0, 0, -1, 0, 1262)" gradientUnits="userSpaceOnUse"><stop offset="0" stop-color="#25c6d8"/><stop offset="0.99" stop-color="#02818d"/></linearGradient><linearGradient id="Dégradé_sans_nom_5-2" x1="91.31" y1="1145.88" x2="203.51" y2="1145.88" xlink:href="#Dégradé_sans_nom_5"/><linearGradient id="Dégradé_sans_nom_5-3" x1="103.59" y1="1112.99" x2="134.68" y2="1112.99" xlink:href="#Dégradé_sans_nom_5"/><linearGradient id="Dégradé_sans_nom_5-4" x1="100.29" y1="1126.8" x2="113.42" y2="1126.8" xlink:href="#Dégradé_sans_nom_5"/><linearGradient id="Dégradé_sans_nom_5-5" x1="135.67" y1="1128.89" x2="145.82" y2="1128.89" xlink:href="#Dégradé_sans_nom_5"/><linearGradient id="Dégradé_sans_nom_18-5" x1="129.33" y1="1113.48" x2="186.29" y2="1113.48" xlink:href="#Dégradé_sans_nom_18"/><linearGradient id="Dégradé_sans_nom_5-6" x1="92.35" y1="1161.82" x2="115.78" y2="1161.82" xlink:href="#Dégradé_sans_nom_5"/><linearGradient id="Dégradé_sans_nom_18-6" x1="136.17" y1="1179.68" x2="197.1" y2="1179.68" xlink:href="#Dégradé_sans_nom_18"/><linearGradient id="Dégradé_sans_nom_5-7" x1="123.11" y1="1096.3" x2="146.03" y2="1096.3" xlink:href="#Dégradé_sans_nom_5"/><linearGradient id="Dégradé_sans_nom_20" x1="120.43" y1="1097.61" x2="130.8" y2="1097.61" gradientTransform="matrix(1, 0, 0, -1, 0, 1262)" gradientUnits="userSpaceOnUse"><stop offset="0" stop-color="#fff"/><stop offset="1" stop-color="#bcbec0"/></linearGradient><linearGradient id="Dégradé_sans_nom_20-2" x1="110.74" y1="1099" x2="115.42" y2="1099" xlink:href="#Dégradé_sans_nom_20"/><linearGradient id="Dégradé_sans_nom_32-3" x1="113.65" y1="1098.7" x2="124.46" y2="1098.7" xlink:href="#Dégradé_sans_nom_32"/><linearGradient id="Dégradé_sans_nom_18-7" x1="129.17" y1="1067.82" x2="152.55" y2="1067.82" xlink:href="#Dégradé_sans_nom_18"/><linearGradient id="Dégradé_sans_nom_32-4" x1="156.94" y1="1055.81" x2="161.61" y2="1055.81" xlink:href="#Dégradé_sans_nom_32"/><linearGradient id="Dégradé_sans_nom_55" x1="158.22" y1="1064.16" x2="164.25" y2="1064.16" gradientTransform="matrix(1, 0, 0, -1, 0, 1262)" gradientUnits="userSpaceOnUse"><stop offset="0" stop-color="#e44f43"/><stop offset="1" stop-color="#a8251e"/></linearGradient><linearGradient id="Dégradé_sans_nom_18-8" x1="162.04" y1="1062.88" x2="182.99" y2="1062.88" xlink:href="#Dégradé_sans_nom_18"/><linearGradient id="Dégradé_sans_nom_55-2" x1="167.92" y1="1055.66" x2="173.69" y2="1055.66" xlink:href="#Dégradé_sans_nom_55"/><linearGradient id="Dégradé_sans_nom_32-5" x1="170.16" y1="1066.89" x2="177.89" y2="1066.89" xlink:href="#Dégradé_sans_nom_32"/><linearGradient id="Dégradé_sans_nom_32-6" x1="166.92" y1="1046.53" x2="186.09" y2="1046.53" xlink:href="#Dégradé_sans_nom_32"/><linearGradient id="Dégradé_sans_nom_18-9" x1="174.33" y1="1074.25" x2="193.63" y2="1074.25" xlink:href="#Dégradé_sans_nom_18"/><linearGradient id="Dégradé_sans_nom_55-3" x1="205.25" y1="1120.08" x2="219.54" y2="1120.08" xlink:href="#Dégradé_sans_nom_55"/><linearGradient id="Dégradé_sans_nom_55-4" x1="125.38" y1="1174.19" x2="222.02" y2="1174.19" xlink:href="#Dégradé_sans_nom_55"/><linearGradient id="Dégradé_sans_nom_32-7" x1="95.59" y1="1205.77" x2="129.77" y2="1205.77" xlink:href="#Dégradé_sans_nom_32"/><linearGradient id="Dégradé_sans_nom_55-5" x1="87.27" y1="1193.49" x2="95.18" y2="1193.49" xlink:href="#Dégradé_sans_nom_55"/><linearGradient id="Dégradé_sans_nom_18-10" x1="67.83" y1="1172.84" x2="108.8" y2="1172.84" xlink:href="#Dégradé_sans_nom_18"/><linearGradient id="Dégradé_sans_nom_18-11" x1="65.08" y1="1109.58" x2="104.68" y2="1109.58" xlink:href="#Dégradé_sans_nom_18"/><linearGradient id="Dégradé_sans_nom_42-2" x1="48.12" y1="1118.4" x2="81.23" y2="1118.4" xlink:href="#Dégradé_sans_nom_42"/><linearGradient id="Dégradé_sans_nom_18-12" x1="71.07" y1="1081" x2="98.55" y2="1081" xlink:href="#Dégradé_sans_nom_18"/><linearGradient id="Dégradé_sans_nom_42-3" x1="80.8" y1="1027.4" x2="108.55" y2="1027.4" xlink:href="#Dégradé_sans_nom_42"/><linearGradient id="Dégradé_sans_nom_42-4" x1="51.9" y1="1039.27" x2="117.27" y2="1039.27" xlink:href="#Dégradé_sans_nom_42"/><linearGradient id="Dégradé_sans_nom_55-6" x1="85.27" y1="1050.1" x2="225.03" y2="1050.1" xlink:href="#Dégradé_sans_nom_55"/><linearGradient id="Dégradé_sans_nom_42-5" x1="170.67" y1="1046.24" x2="242.21" y2="1046.24" xlink:href="#Dégradé_sans_nom_42"/><linearGradient id="Dégradé_sans_nom_42-6" x1="219.7" y1="1037.62" x2="271.84" y2="1037.62" xlink:href="#Dégradé_sans_nom_42"/></defs><title>y_Plan de travail 3</title><path class="cls-1" d="M226.7,177.58a.46.46,0,0,1,0,.46c.06.54.1,1.09.15,1.63.1,1.32.18,2.64.18,4a27.17,27.17,0,0,1,7.27-7.5c1.74-1.28,3.89-2.89,4-5.27a8.31,8.31,0,0,0-.7-3.72c-.29-.7-.64-1.38-1-2a2.13,2.13,0,0,1-.4-1.16.32.32,0,0,1,.21-.31.75.75,0,0,1,1.2-.64,20.17,20.17,0,0,1,3.22,3c2.92,3.69,4.11,9.19.48,12.87-2.79,2.81-8.25,4.42-8.39,9.09-.08,2.54,1,5,1.82,7.37a12.28,12.28,0,0,1,.54,7.29c-1.35,5.13-5.46,8.64-8.66,12.65-.5.62-1,1.28-1.45,2a13.45,13.45,0,0,1,6-1.49c2.67-.06,5.5.42,8.18,0a.85.85,0,0,1,1-.2c2-.48,4.09-1.53,5-3.41a2.12,2.12,0,0,0,.14-.31v0a.2.2,0,0,1,.08-.19c.75-2.27-.72-4.56-.91-6.84a6.74,6.74,0,0,1,2.59-5.76c2.6-2.23,10.95-6.53,6.26-10.7-1.49-1.34-3.58-2.21-4.59-4-1.2-2.19-.64-4.67.54-6.76,1.34-2.37,3.1-4.46,4.44-6.83a25.64,25.64,0,0,0,3-7.71c.89-4.71,0-10-3.51-13.49a13.48,13.48,0,0,0-6.53-3.31c-2.39-.64-4.83-1.67-5.86-4.09s.41-4,1.65-5.82c.54-.77,1.24-1.86.74-2.83a5.32,5.32,0,0,0-1.92-1.88c-1.76-1.14-3.7-2.17-4.73-4.1a10.8,10.8,0,0,1-1-6.57,24.57,24.57,0,0,1,2.54-7.19,42.84,42.84,0,0,0,1.8-4,8.1,8.1,0,0,0,.68-2.65,11.59,11.59,0,0,0-.79-3.41c-.51-1.57-1-3.16-1.38-4.77a23.63,23.63,0,0,1-.48-5.08,44.17,44.17,0,0,0-1.42,6.55,29.59,29.59,0,0,1-1.36,6.67,14.87,14.87,0,0,1-3.39,5.06,17.61,17.61,0,0,0-3.51,4.32c-1.88,3.93,2.12,7.81.55,11.8-.49,1.24-1.67,2.14-2.1,3.4a3.92,3.92,0,0,0-.07,2.42,22,22,0,0,0,2.75,5.06,10.07,10.07,0,0,1,1.92,5.27,8.17,8.17,0,0,1-.91,3.35,8.51,8.51,0,0,0-1.22,3.45c0,2.37,1.82,4.11,2.75,6.14A7.52,7.52,0,0,1,232,164c-1.61,3.33-5.35,6.49-5.81,10.22.17,1,.31,2.11.44,3.17C226.6,177.36,226.66,177.48,226.7,177.58Z"/><path class="cls-2" d="M215.24,145.42a14,14,0,0,1-2.28,2.46c-1.59,1.32-3.92,3-6.11,2.68-2-.27-2.89-2.06-3-3.9a20.19,20.19,0,0,1,1.34-7.36,64.8,64.8,0,0,1,2.55-6.24s0,0,0,0a.44.44,0,0,1,.24-.45c.07-.19.17-.36.25-.56,2.32-5.06,4.59-10.15,4.69-15.81a26.93,26.93,0,0,0-4.73-15.64,28.15,28.15,0,0,0-5.08-5.64,36.91,36.91,0,0,0-5.41-3.65.79.79,0,0,1-.56.16c-1.39-.22-2.79-.43-4.16-.72-.86-.17-1.71-.46-2.58-.68q2,1.2,3.93,2.42l2.95,1.81a9.51,9.51,0,0,1,2.3,1.61.43.43,0,0,1-.29.75.21.21,0,0,1-.15.23,3.44,3.44,0,0,1-2.19-.13l-2.62-.6c-.6-.14-1.2-.27-1.8-.43a38.25,38.25,0,0,1,4,3.39c.43.41,0,1.26-.6,1a61.57,61.57,0,0,0-8.7-2.48c-1.2-.25-2.39-.43-3.59-.56.27.52.51,1.08.72,1.59a25.11,25.11,0,0,1,1.07,3,29.06,29.06,0,0,1,.69,3.06,46.86,46.86,0,0,1,2.1-4.88c.19-.39.77-.12.68.29-.64,2.79-1.61,5.52-2.52,8.24s-2,5.31-2.33,8c-.23,2.23.14,5,2.19,6.34s4.21.5,5.72-1.17c3.14-3.45,2.81-8.89,6.47-12a10.19,10.19,0,0,1,5-2.37c1.71-.27,3.92-.33,5.37.74a.54.54,0,0,1-.41,1,21.58,21.58,0,0,0-3.2-.53A9.37,9.37,0,0,0,202,109a8.51,8.51,0,0,0-3.76,2.63,9.91,9.91,0,0,1,2.34,1,12,12,0,0,1,2.21,1.73c1.63,1.7,2.73,4.3,1.8,6.63s-3.08,3.87-3.87,6.24c-1.59,4.78.89,9.63.85,14.49,1,2.56,1.14,5.24,1.57,7.93a55.72,55.72,0,0,0,2.38,8.2,72.62,72.62,0,0,1,2,7.34,28.62,28.62,0,0,1,1.59-3.85,35.9,35.9,0,0,1,3.7-6.2,33.66,33.66,0,0,1,4.86-5.26c1.52-1.29,3.9-2.9,4.06-5.11a3,3,0,0,0-.84-2.62,2.61,2.61,0,0,0-3.16.33A14,14,0,0,0,215.24,145.42Z"/><path class="cls-3" d="M206.93,175.58c.66-6.22-.91-12.37-2.85-18.24a44.26,44.26,0,0,1-2.19-8c-.23-1.73-.33-3.47-.54-5.22a7.94,7.94,0,0,1-2.66,4.71,7.27,7.27,0,0,1-1.61,1,11.59,11.59,0,0,0-1.74,2c-3.35,5-2.71,11.1-1.47,16.67.06.27.11.54.17.79a15.32,15.32,0,0,1,1.05,4.5c.27,1.22.52,2.46.7,3.7a33,33,0,0,1,0,8.93c-.75,5.78-2.55,11.44-2.82,17.27a25.91,25.91,0,0,0,.63,7.6,18.42,18.42,0,0,0,.57,1.78,23.45,23.45,0,0,1,.13-5.74C195.84,195.85,205.69,187.23,206.93,175.58Z"/><path class="cls-4" d="M185.65,205.23a23.46,23.46,0,0,0,4-.23,4.55,4.55,0,0,1,1.94-.15,54.7,54.7,0,0,1,1.26-9.52c1.07-5.14,2.15-10.2,1.82-15.37l-.06.31a12.76,12.76,0,0,1-2.46,5.25,70.9,70.9,0,0,1-5.29,5.8,43.59,43.59,0,0,0-5.08,6.18,38.81,38.81,0,0,0-3.54,6.4.06.06,0,0,1,.05,0A26.86,26.86,0,0,0,185.65,205.23Z"/><path class="cls-5" d="M136.19,214.94c.39,0,.77,0,1.14-.09a23.5,23.5,0,0,0,3.24-.64,27.77,27.77,0,0,0,6-2.33,27.21,27.21,0,0,0,9.36-8.49c2.31-3.27,4.2-6.82,6.32-10.23,1.92-3.1,4-6.53,7.27-8.43a.3.3,0,0,1,.34,0,38.92,38.92,0,0,1,4.42-3.32c.53-.33,1-.67,1.53-1a13.68,13.68,0,0,1-5.83-.7c-2.75-.78-5.45-1.13-8.1.15-5.2,2.5-7.62,7.83-9.28,13.07s-3,10.44-6.54,14.74C143.59,210.68,140.07,213.68,136.19,214.94Z"/><path class="cls-6" d="M151.48,191.55a.87.87,0,0,1,.12-.14c.35-1,.71-2,1.12-3,1.55-3.74,4-7.48,7.56-9.5-.33,0-.66,0-1,0a25.28,25.28,0,0,0-3.37.07,13.6,13.6,0,0,0-6.67,2.29c-4,2.93-5.46,8.37-7.46,12.7-3,6.57-6.92,13-12.52,17.46a58.59,58.59,0,0,0,9.65-6.22A64.68,64.68,0,0,0,151.48,191.55Z"/><path class="cls-7" d="M114.66,197.81a58.33,58.33,0,0,0,12.25-9.19c6.26-5.77,14-12.52,23-11.78-4.26-2.67-9-4.75-14.15-4.59-5.6.15-10.35,2.83-14.17,6.8-6.76,7-10.54,17.11-18.81,22.54a.86.86,0,0,0,0,.17A36.51,36.51,0,0,0,114.66,197.81Z"/><path class="cls-8" d="M103.38,185.23a19.78,19.78,0,0,1-.49,2.48,5.62,5.62,0,0,1-.19.58,69.57,69.57,0,0,0-.25,10.31c0,.59.11,1.17.19,1.75,4-3,7.13-7.11,10-11.26,3.14-4.58,6.18-9.4,10.47-13a23.65,23.65,0,0,1,3.8-2.63c-4.67-.47-8.84,2.77-12.35,5.54S107.8,184.81,103.38,185.23Z"/><path class="cls-9" d="M110.57,164.34c-.08-1.44-1.44-.37-1.65,0-.31.52-.45,1.14-.76,1.65-.67,1.1-1.59,1.88-2,3.17a20.51,20.51,0,0,1-1.3,3.09,19,19,0,0,1,4-1.81A27,27,0,0,0,112,163.7a28.71,28.71,0,0,0,.76-3.8c.13-.93.13-2,.35-3-.12.08-.26.14-.37.22a20.19,20.19,0,0,0-5.89,6.14c-.78,1.2-1.24,2.6-2,3.82a30.11,30.11,0,0,1-2.19,3.16c-1.55,1.88-3.72,3.91-6.22,4.32a6.67,6.67,0,0,1-2.52,0,7.41,7.41,0,0,0,1.88,1.55,9,9,0,0,0,2.4,1c.43.1.91.12,1.34.21a10,10,0,0,1,.68-.93,16.46,16.46,0,0,1,3.25-3.21c.24-.29.45-.58.66-.88a11.81,11.81,0,0,0,1.44-2.94,6.19,6.19,0,0,1,1.06-2.19,5.63,5.63,0,0,0,1.17-1.69c.11-.33.23-.66.36-1,.41-.89,1.54-2.11,2.58-1.28s.14,2.06-.66,2.54c-.15.1-.33-.13-.19-.25A1.42,1.42,0,0,0,110.57,164.34Z"/><path class="cls-10" d="M136,110a10.24,10.24,0,0,0,.49,2.95c.27.78.76,1.47,1,2.23a40.26,40.26,0,0,1,4.32,2.13,15,15,0,0,1,4.3,3.7l.06.06h.1a11,11,0,0,0,8.37-2.42,10,10,0,0,0,3.31-8.1,10.12,10.12,0,0,0-4.47-7.93,10.88,10.88,0,0,0-4-1.65c-1.14-.21-2.32-.11-3.47-.23a40,40,0,0,1-4.18,2.48,27.26,27.26,0,0,1-4.69,1.9c-.22.74-.64,1.43-.82,2.19A11.15,11.15,0,0,0,136,110Z"/><path class="cls-11" d="M91.57,166.7c-.46,1.84-.44,4.27,1.19,5.57,1.84,1.45,4.38.64,6.08-.59a20.31,20.31,0,0,0,4.6-5c.65-.95,1.33-1.88,2-2.77s1.3-2,2-2.94a16.16,16.16,0,0,1,4.14-4.54c3.28-2.33,7.43-3,10.9-.68,2,1.32,4,3.32,6.49,3.35a40.18,40.18,0,0,1,4.53-.15,8,8,0,0,1,3.36,1.16c2.32,1.51,3.8,3.76,5.33,6a31.26,31.26,0,0,0,5.48,6.28c2,1.74,4.61,3.74,7.43,3.86,2.4.09,4.67-1.28,4.63-3.92a4,4,0,0,0-1.32-3,10.92,10.92,0,0,1-2.35-2.68,2.73,2.73,0,0,1,.18-3,2,2,0,0,1,2.3-.66c.37.16.37.8-.09.76a1.15,1.15,0,0,0-1.16,1.47,3.13,3.13,0,0,0,1,1.53,14.07,14.07,0,0,1,2.46,2.29,6,6,0,0,1,.59,5.48,5.56,5.56,0,0,1-2.74,3,13.31,13.31,0,0,1,3.7.46l.72-.23c2.7-.74,5.16-.25,7.79.48s5.18,1.26,7.76-.06a.4.4,0,0,1,.34,0,25.13,25.13,0,0,0,4.31-3.93,8.66,8.66,0,0,1-5.31.25,9.33,9.33,0,0,1-3-1.36,23,23,0,0,0-2.71-2.17c-2.19-1.08-4.88.8-7-.64-1.86-1.26-2.67-5-5.33-4.72-.27,0-.35-.45-.06-.49,2.29-.39,3.4,1.8,4.56,3.31a3.6,3.6,0,0,0,3.51,1.56,14.05,14.05,0,0,1,3.49-.24c2.28.29,3.6,2.7,5.71,3.49a9.3,9.3,0,0,0,6.71,0c.17-.87.35-1.76.54-2.63a12.78,12.78,0,0,0-3.51-.68,9.79,9.79,0,0,1-3.5-1.09,12.7,12.7,0,0,1-5.12-6,.15.15,0,0,1,.25-.15c1.75,2.36,3.41,4.92,6.36,5.87,1.82.58,4,.31,5.72,1.1a26.87,26.87,0,0,1,1.08-3.54c-2.62.19-5.08-1.24-7.19-2.72a29.92,29.92,0,0,0-3.78-2.42,11,11,0,0,0-5.12-1c-3.15.06-6.22.2-9.28-.69a21.75,21.75,0,0,1-7.64-4s0-.11.06-.07a24.75,24.75,0,0,0,8.41,3.52,23.35,23.35,0,0,0,4.48.55c1.57,0,3.14-.16,4.71-.12,3,.08,5.37,1.3,7.81,3s5,3.43,8,3.06c1.16-2.52,2.92-4.73,5.6-5.51,0-.31,0-.64.08-1a16.25,16.25,0,0,1,3.14-8.35,6.59,6.59,0,0,1-2.08-.08c-4.09-.73-7.3-5.54-5.6-9.59a.42.42,0,0,1,.81.23,6.69,6.69,0,0,0,1.73,6.32,6,6,0,0,0,5.93,1.24c5-1.57,4.9-7.29,4.09-11.51a29.36,29.36,0,0,1-.89-7.39,11,11,0,0,1,2.4-6.24c1.49-1.93,3.08-4,1.77-6.55a8.72,8.72,0,0,0-2.7-3.06c-.81-.58-1.53-1.22-2.29-1.84a9.57,9.57,0,0,0-.89,1.53c-1.06,2.33-1.45,5-2.73,7.21-1,1.74-2.54,3.53-4.57,4a5.43,5.43,0,0,1-5.53-2,8.35,8.35,0,0,1-1.57-6.59,46,46,0,0,1,2.52-8.59c0-.1.06-.19.1-.29a38,38,0,0,0-.78-5.39,28.54,28.54,0,0,0-1.06-3.2c-.25-.6-.58-1.18-.84-1.78-1.35-.14-2.73-.25-4.09-.39l-.09,0a1.21,1.21,0,0,1-.18,0,.76.76,0,0,1-.35-.84,13.64,13.64,0,0,0-7-8.91c-4-2.21-8.69-2.81-13.22-3s-9,.39-12.95,3.12c-1.68,1.18-3.25,2.52-4.9,3.76a16.56,16.56,0,0,1-4.73,3c-.37.12-.5-.36-.23-.58l.39-.27a36.24,36.24,0,0,0,1.78-7.5c-2.6,2-5.7,3.9-9,4.11a8.6,8.6,0,0,1-4.65-.87,45.17,45.17,0,0,0-3.86-2.35,3.55,3.55,0,0,0-2.6-.19c-.79.29-1.53.75-2.32,1a6,6,0,0,1-4.4-.49,29.92,29.92,0,0,1-4.79-3.14c-1.57-1.16-3.18-2.25-4.63-3.56-.06,0,0-.12.08-.1,1.72.87,3.33,1.94,5,3a43.39,43.39,0,0,0,4.55,2.87,5.69,5.69,0,0,0,2.87.74,6.83,6.83,0,0,0,2.48-.81,4.6,4.6,0,0,1,3.66-.37,19.77,19.77,0,0,1,3.51,2,8,8,0,0,0,4.83,1.32c3.58-.25,6.35-2.33,9.32-4.11a.28.28,0,0,1,.21,0c.14-.73.31-1.49.51-2.21a12.42,12.42,0,0,1-11.07,2.46c-1.69-.48-3.26-1.27-5-1.64-2.11-.45-3.94.29-6,.68a7.7,7.7,0,0,1-4.57-.43c-3.36-1.36-5.47-4.52-8.61-6.2a.09.09,0,0,1,.08-.16c3.14,1.42,5.35,4.25,8.49,5.62a7.79,7.79,0,0,0,5.4.29,13.22,13.22,0,0,1,4.66-.69A23.42,23.42,0,0,1,126,83.52a12,12,0,0,0,4.52.64,12.72,12.72,0,0,0,7.64-3.22,5.39,5.39,0,0,1,.21-.6,25.25,25.25,0,0,1,2.58-5,.8.8,0,0,1-.18-.25s0,0,0,0c-1.86,1.57-4.49,1.94-6.86,1.94a53.11,53.11,0,0,0-5.5,0,23.74,23.74,0,0,0-4.87,1.2c-3.08,1-5.91,1.51-9,.29A40.82,40.82,0,0,1,110,76.12c-1.59-.86-3.16-1.73-4.73-2.62a.12.12,0,0,1,.11-.21c1.63.79,3.26,1.59,4.87,2.42a41.38,41.38,0,0,0,4.49,2.19,9,9,0,0,0,4.79.56,31.61,31.61,0,0,0,4.19-1.14,21.32,21.32,0,0,1,4.38-1.11,36.16,36.16,0,0,1,4.77,0c2.73,0,5.5-.12,7.67-1.9-.56-1.48-1.18-3-1.92-4.52-4.82-3.24-10.85-.06-15.87,1a13.9,13.9,0,0,1-8.08-.27c-2.44-1-4.67-2.35-7.12-3.3-.13-.06-.07-.25.06-.21,2.77.58,5.12,2.32,7.83,3.12,3.08.89,6.19.27,9.17-.64,4.17-1.28,9.19-3,13.3-1a16.69,16.69,0,0,0-3.57-4.49c-4,0-7.81,1.49-11.82,1.53a11.62,11.62,0,0,1-5.64-1.34c-1.75-.93-3.43-2-5.49-1.88-.11,0-.15-.19,0-.21,1.67-.43,3.24.27,4.71,1a13,13,0,0,0,6.46,1.54c3.56-.16,7-1.4,10.58-1.55l-.23-.14a12,12,0,0,0-3.2-1.34,10.58,10.58,0,0,1-3.06-1.16,6,6,0,0,1-2.6-4.77,8.44,8.44,0,0,1,.25-2.42A27.38,27.38,0,0,0,106.71,63.6,71.42,71.42,0,0,0,101.19,73a51.9,51.9,0,0,1-2.83,4.82A14.9,14.9,0,0,1,95.76,81c.81.45,1.67.87,2.52,1.26a31.82,31.82,0,0,1,4.24,2c2.7,1.7,4,4.34,5.39,7.09,1.18,2.38,2.7,5,5.35,5.83-.1-2.38.16-4.86-.62-7.11,0-.06.08-.1.12,0A10,10,0,0,1,114.11,94a37.21,37.21,0,0,0,.74,5.17,6.06,6.06,0,0,0,2.33,3.64,4.94,4.94,0,0,0,3.17.49,7.41,7.41,0,0,1-1.24-5.37c0-.25.41-.27.41,0a7,7,0,0,0,2.23,5.17,4.43,4.43,0,0,0,2.6,1.09,6.75,6.75,0,0,0,2.48-.52.62.62,0,0,1,.6,1c-1.63,1.5-4.54.88-6.11-.38l-.21-.2a3.25,3.25,0,0,1-3.47.62,3.34,3.34,0,0,1-.85.31c0,.31.08.62.15.93a4.23,4.23,0,0,0,.35.84.71.71,0,0,1,.18-.08,5.54,5.54,0,0,1,5.44,1c.1.07,0,.25-.09.25-1.36,0-2.64-.76-4-.39-1.1.29-2.28,1.16-2,2.33a8.43,8.43,0,0,1,6.86,1.14c.19.13.15.52-.14.5-2-.15-4.63-1.3-6.63-.38a.81.81,0,0,1-.34.19,3.74,3.74,0,0,0-.8.66c-.91,1-1.16,2.38-1.7,3.58a20.72,20.72,0,0,1-2,3.45c-.52.76-1.12,1.55-1.7,2.37a6.54,6.54,0,0,0-.74,2.48,6,6,0,0,0,.81,3.31,21.45,21.45,0,0,0,2,2.74,6.34,6.34,0,0,0,2.21,1.91c2.36,1,5.29-.31,7.6-1,2-.6,6-1.9,4.36-4.81-.87-1.53-2.44-2.75-2.33-4.67a2.09,2.09,0,0,1,1-1.53c1.14-.82,1.16-1.67.85-3a5.18,5.18,0,0,1,.76-4.59,4.63,4.63,0,0,1,3.62-1.94c.26,0,.24.35,0,.39a4.49,4.49,0,0,0-4,5.13,7.74,7.74,0,0,1,.39,2.68c-.18,1-.81,1.24-1.47,1.9-2,1.94,1.72,4.28,2.05,6.16s-1.05,3.28-2.69,4a28.88,28.88,0,0,1-3.41,1.11,27.73,27.73,0,0,1-3.8,1,5.53,5.53,0,0,1-5.39-2.15c-1.34-1.61-2.79-3.37-3.1-5.5a5.44,5.44,0,0,1,0-1.51,8,8,0,0,0-.89,3,6.42,6.42,0,0,0,.5,3.67,4.63,4.63,0,0,0,2.52,2c.21.1.1.41-.12.43-2.38,0-4.22-2.89-4.49-5-.45-3.35,1.94-6.45,3.82-9a20.4,20.4,0,0,0,2.81-4.61,15.14,15.14,0,0,1,.89-2c-3.08-.19-5.39,2.13-7.27,4.44a32,32,0,0,1-3.18,3.61,6.27,6.27,0,0,1-3.14,1.68c-.1,0-.15-.13-.08-.19.64-.51,1.34-.91,1.94-1.46a16.94,16.94,0,0,0,1.67-1.9c1.08-1.37,2-2.9,3.12-4.22l.06-.06a8.91,8.91,0,0,1-4.63.27A6,6,0,0,1,98.14,110a2.35,2.35,0,0,1-.25-.19,3.79,3.79,0,0,0-.66,4.69,4,4,0,0,0,2.37,1.63c.71.13,1.45.08,2.17.21v0c-1.38,1.76-4.67.31-5.66-1.2a4.84,4.84,0,0,1-.74-2,1.76,1.76,0,0,0-.09.2,11.82,11.82,0,0,0-.8,2.13,16.69,16.69,0,0,0-.31,3.64A15.6,15.6,0,0,1,96.28,118a.17.17,0,0,1,.18.29,8.8,8.8,0,0,0-3.72,3.93.43.43,0,0,1-.14.51,4.17,4.17,0,0,0,.19,2.34c.51,1.32,1.23,2.54,1.79,3.84a24.58,24.58,0,0,1,1.08,2.31,13.64,13.64,0,0,1,2.41-4c.29-.31.91,0,.73.42-.5,1.24-1.2,2.41-1.68,3.65A26.14,26.14,0,0,0,96,134.78a30.2,30.2,0,0,0-.67,3.8c-.1.91,0,2-.14,2.91.81-.18,1.61-.31,2.42-.43.53-.08,1-.13,1.59-.21a5.73,5.73,0,0,0,1-3.41c0-1.46-.33-2.89-.23-4.34a12.25,12.25,0,0,1,1.62-5.9,15.7,15.7,0,0,1,3.18-5.09c.06-.08.18,0,.14.09a19.29,19.29,0,0,0-2.25,5.59,8.89,8.89,0,0,0,.25,5.23,5.77,5.77,0,0,0,3.76,3.57,4.84,4.84,0,0,0,3.34-.31,9.48,9.48,0,0,1-1.36-.86,4.32,4.32,0,0,0-1.07-.11,3.65,3.65,0,0,1-3-1,1.67,1.67,0,0,1,0-2.25,2.15,2.15,0,0,1,2.67-.1c.89.66,1.48,1.65,2.41,2.29,3.25,2.23,7.17,1.86,10.85.87A.79.79,0,0,1,121,135c1.15-.33,2.27-.7,3.34-1.07a44,44,0,0,1,4.36-1.36,12.45,12.45,0,0,1,4-.54,3.49,3.49,0,0,1,2.85,1.71,2.36,2.36,0,0,1-.41,2.69c-1.7,1.69-4.73,1.11-6.9,1.07a30,30,0,0,1-7.44-.82l-1.11.29a20.56,20.56,0,0,1,8.88,3.63c1.13-.31,2.27-.54,3.43-.74a10.77,10.77,0,0,0,3.65-2.05c2-1.71,3.52-4.19,1.29-6.42-.79-.79-1.8-1.92-2.94-2.15s-2,.68-3,1.32a6.61,6.61,0,0,1-5.52,1c-.16,0-.14-.31,0-.29a7.13,7.13,0,0,0,4.69-.88c1-.62,1.76-1.55,2.94-1.8a3.68,3.68,0,0,1,2.93,1.13,8.68,8.68,0,0,1,2.37,2.67c1.1,2.27-.92,4.71-2.6,6a14.35,14.35,0,0,1-1.75,1.16l.39,0c4-1.55,7.66-5,7.46-9.61a6.53,6.53,0,0,0-3.08-5.47,5.87,5.87,0,0,0-5.68-.35.31.31,0,0,1-.31-.54,6.52,6.52,0,0,1,8.24,1.11,11.84,11.84,0,0,1,4.55,5.67,13.18,13.18,0,0,1,1,4.58c0,1.63-.56,3.31.41,4.71,1.76.17,3.55.42,5.29.73.52.1.54,1,0,1.07-1.26.21-2.52.43-3.78.62,1.44,0,2.89,0,4.32.12a70.61,70.61,0,0,1,8.8,1.14.62.62,0,0,1,0,1.2c-1.57.25-3.16.29-4.75.49-.81.09-1.64.19-2.46.31,5.39.73,10.89,1.43,16.3.68a.66.66,0,0,1,.35,1.27c-1.39.53-2.79,1.15-4.21,1.55-.36.12-.73.22-1.12.31a14.92,14.92,0,0,0,3.7-.62,13.63,13.63,0,0,0,4.5-2.38,8.63,8.63,0,0,0,3.08-4.36c.45-1.84-.43-3.12-.89-4.83-.93-3.39,1.86-5.21,3.89-7.38a6.18,6.18,0,0,0-.07-8.57c-.12-.11,0-.33.17-.23a6.21,6.21,0,0,1,1.75,7.6c-.84,1.63-2.29,2.65-3.47,4a5,5,0,0,0-1.52,2.95,7.25,7.25,0,0,0,.76,2.87,5.81,5.81,0,0,1,0,4.86,10.59,10.59,0,0,1-3.43,3.91,13.72,13.72,0,0,1-2.07,1.3,41,41,0,0,0,4.53-1.43.61.61,0,0,1,.47,1.1L172,150.68c3.56-.31,7.15-.7,10.71-1,.76-.06.74,1,.16,1.2l-6.3,2.63A33.46,33.46,0,0,0,190,150.75c.58-.25,1.3.47.74.95a23.76,23.76,0,0,1-9.77,5.18,13.46,13.46,0,0,1-2.79.79,31.42,31.42,0,0,1-6.78.41,44.62,44.62,0,0,1-13.94-2.66A133.56,133.56,0,0,1,142.89,149c-2.38-1.2-4.74-2.44-7.15-3.61-1-.5-2.05-1-3.08-1.45.91.91,1.8,1.82,2.75,2.69a21.55,21.55,0,0,0,5.2,3.76c.21.1.06.41-.16.37a9.05,9.05,0,0,1-2.88-1,22.36,22.36,0,0,1-2.29-1.67c-1.65-1.38-3.14-2.89-4.77-4.27-3.39-2.86-7.6-5.21-12.15-5.36a13.23,13.23,0,0,0-6.49,1.14,12.76,12.76,0,0,0-3,2.07.59.59,0,0,1-.29.27,19,19,0,0,0-1.43,1.55c-2.29,2.78-4.35,6.52-7.74,8.05-.19.1-.44-.18-.25-.33a23.08,23.08,0,0,0,4.19-4.59c.75-1.07,1.45-2.19,2.21-3.26-1.94.83-3.86,1.69-5.72,2.71a51,51,0,0,0-5.27,3.34c-.18,1.18-.58,2.36-.68,3.58-.14,1.49-.16,3-.21,4.48a26.06,26.06,0,0,1-.29,3.2A26.36,26.36,0,0,1,96.81,157c2.38-2.24,4.9-4.47,6.3-7.52a.1.1,0,0,1,.19.08c-1,2.95-3.18,5.12-5.35,7.27a29.15,29.15,0,0,0-3.29,3.64,12.14,12.14,0,0,0-1,1.69,7.09,7.09,0,0,1,1.65-.89c.17-.06.23.17.11.27A8.61,8.61,0,0,0,91.57,166.7Zm100.26-29.51c.49-1.85,1.44-3.73,1.4-5.66,0-1.69-1-3.63.15-5.18,1-1.32,2.56-2,3.57-3.25a8,8,0,0,0,1.68-5.64c0-.08.12-.12.14,0a7.08,7.08,0,0,1,.19,3.87,7.67,7.67,0,0,1-1.82,3.24c-.87.87-2.67,1.73-3,3a2.43,2.43,0,0,0-.08.53,9.8,9.8,0,0,1,1.32-.62c.73-.31,1.49-.56,2.21-.91a.17.17,0,0,1,.17.29c-.66.44-1.26,1-1.9,1.45a5.37,5.37,0,0,1-1.74,1.05,11.59,11.59,0,0,1,.31,2.81,21.71,21.71,0,0,1-1.11,4.24c-.4,1.3-.93,3-.4,4.29a2,2,0,0,0,.89,1.14c.64.27,1.1-.23,1.39-.72a11,11,0,0,0,1.05-2.19,5.31,5.31,0,0,0,.31-2.27,2.26,2.26,0,0,0-1.24-1.93c-.35-.22-.12-.84.29-.68a3.71,3.71,0,0,1,2.07,3.39,7.48,7.48,0,0,1-.67,2.5,9.11,9.11,0,0,1-1.22,2.31,2.17,2.17,0,0,1-3.57-.37A5.7,5.7,0,0,1,191.83,137.19Zm-17-39.39c-2-4-5.89-5.38-9.9-6.72-2-.68-4.42-1.84-6.47-.62-1.32.77-2.56,2-4.21,2a2.9,2.9,0,0,1-1.69-.51c-.58-.42-.87-1.94-1.76-1.59s-1.28,1.59-1.68,2.42a6.76,6.76,0,0,1-1.5,2.12c-.87.79-2.59,1.28-3.56.35a2.24,2.24,0,0,1-.74-1.67c-2.29,1.84-3.06,4.92-4.55,7.4a9,9,0,0,1-3.51,3.51,19,19,0,0,0,2.5-.46,23,23,0,0,0,6.32-3c.38-.25.77-.48,1.14-.74a.33.33,0,0,1,.12-.15,2.28,2.28,0,0,1,.64-.33l3.6-2.35c.16-.09.29-.19.45-.29a.43.43,0,0,1,.31-.19h0a24.6,24.6,0,0,1,4.78-2.54,17.65,17.65,0,0,1,11.26-.25,20.74,20.74,0,0,1,5,2.38,10.22,10.22,0,0,1,3.67,3.72c.06.14-.08.33-.24.24-.77-.51-1.39-1.21-2.13-1.77a26.82,26.82,0,0,0-2.34-1.53,18.89,18.89,0,0,0-5.39-2c-.25-.06-.52-.12-.78-.16a9,9,0,0,1,.92,1,8.76,8.76,0,0,1,1.78,3.86c0,.19-.23.34-.33.13a12.42,12.42,0,0,0-2.46-3.39,11,11,0,0,0-1.71-1.32,3.74,3.74,0,0,1-.85-.58,20,20,0,0,0-8.14,1.67,4.3,4.3,0,0,0-.62.27,21.48,21.48,0,0,1,2.4.15A15,15,0,0,1,159.76,98a23,23,0,0,1,4,2.61,9.57,9.57,0,0,1,2.93,3.3.18.18,0,0,1-.28.21c-1.14-1-2.13-2.15-3.37-3.06a14.28,14.28,0,0,0-4-1.94A20.7,20.7,0,0,0,154.62,98a25.15,25.15,0,0,0-4.07.06.6.6,0,0,1-.27-.06l-1.63,1a5.7,5.7,0,0,1,1.07-.31,16.14,16.14,0,0,1,4.11-.07A14.88,14.88,0,0,1,161,101a15.15,15.15,0,0,1,5.07,5.87,32,32,0,0,1,1.34,3.78A7.6,7.6,0,0,1,168,114c0,.17-.35.23-.42,0a6.37,6.37,0,0,1-.28-1.53,16.89,16.89,0,0,0-.4-1.74,12.29,12.29,0,0,0-1.75-3.37,17.1,17.1,0,0,0-5.17-5.2,14.86,14.86,0,0,0-6.77-1.88,10.84,10.84,0,0,0-1.14,0,10.81,10.81,0,0,1,2.66,1.42,11.73,11.73,0,0,1,.79,18.14A12.47,12.47,0,0,1,148,123a7.64,7.64,0,0,0,2.76,1.74c.38.14.79.27,1.2.39,3.47-1.2,6.72-3.26,8.47-6.61a14.07,14.07,0,0,0,1.62-6.3,13.9,13.9,0,0,0-.23-3.16c-.17-.87-.44-1.74-.56-2.63,0-.23.27-.23.39-.1,1.3,1.73,1.57,4.48,1.45,6.57a14.69,14.69,0,0,1-1.7,6.2,15.89,15.89,0,0,1-6.69,6.65c.56.1,1.12.18,1.7.25.41-.23.86-.38,1.26-.62a14.77,14.77,0,0,0,1.85-1.22,12.94,12.94,0,0,0,2.73-2.94,17.62,17.62,0,0,0,1.82-4.09,27.12,27.12,0,0,0,.66-4.21c0-.12.17-.1.21,0a9.55,9.55,0,0,1,.08,4.81,11.17,11.17,0,0,1-1.84,4.36,15.43,15.43,0,0,1-3.1,3.45c-.29.23-.62.48-1,.73a29.63,29.63,0,0,0,4.42.1,20.58,20.58,0,0,0,11.12-3.72c.39-.27.8.31.49.64a16.38,16.38,0,0,1-10.51,4.48,39,39,0,0,1-12.52-1.15.82.82,0,0,1-.42-.11l-.1,0a13.7,13.7,0,0,1-2.4-.87,31.93,31.93,0,0,0,2.11,2.79,50.64,50.64,0,0,0,5,5.13,44.17,44.17,0,0,0,5.95,4.4c1,.62,2.05,1.22,3.14,1.75s2.23.93,3.25,1.51a.16.16,0,0,1-.11.29,15.71,15.71,0,0,1-3.39-1.36c-1.17-.56-2.33-1.16-3.45-1.82a37.29,37.29,0,0,1-5.92-4.23,40.32,40.32,0,0,1-5.36-5.64,33.52,33.52,0,0,1-2.5-3.54,7.25,7.25,0,0,1-1.28-1.13c-1.42-1.57-2.52-3.31-4.33-4.51a43.14,43.14,0,0,0-5.62-3,21.36,21.36,0,0,0-6.39-2.21.36.36,0,0,1,0-.71,15.66,15.66,0,0,1,5.31,1,12,12,0,0,1-.45-1.31,9.42,9.42,0,0,1-.33-3.34,9,9,0,0,1,1.38-4.34,9.24,9.24,0,0,1-5.8-.58c-.25-.12-.05-.46.18-.43a16.51,16.51,0,0,0,2,.18.17.17,0,0,1,.15-.08c2.83,0,4.54-2,5.78-4.3a15.9,15.9,0,0,1-4.46,2.52,7.89,7.89,0,0,1-4.89.29c-1.84,1-4.59-.72-5.56-2.25-1.55-2.42-1.35-5.29-.89-8a.09.09,0,0,1,.18,0c-.18,2.38-.24,5,1,7.09a5.1,5.1,0,0,0,2.64,2.31,4.27,4.27,0,0,0,1,.17,5,5,0,0,1-2.5-3.41c-.39-2.31.42-4.46,1.25-6.59.08-.19.39-.12.31.08-.69,2-1.45,4.18-.81,6.28a4.89,4.89,0,0,0,3.61,3.39,8,8,0,0,0,5.19-.47,20.28,20.28,0,0,0,2.54-1.41c.68-.45,1.3-1,2-1.42a1.57,1.57,0,0,0,.09-.23c1.11-2.4,2.29-4.9,4.67-6.26a.36.36,0,0,1,.43.56c-1,1.11.54,2.42,1.69,2.08a3.71,3.71,0,0,0,2.2-2c.57-1,1.05-3,2.43-3.31a1.54,1.54,0,0,1,1.45.25c.52.52.56,1.47,1.36,1.7,1.88.55,3.16-1,4.67-1.74a5.8,5.8,0,0,1,4.79-.2c1.84.61,3.72,1.19,5.54,1.9,2.81,1.13,6,2.93,6.84,6.09C175.36,97.86,175,98,174.87,97.8ZM96.52,164.15c.15-.3.31-.59.48-.86,1.14-1.72,2.27-3.47,3.51-5.11l1.1-1.46c.49-.95.91-1.94,1.4-2.89.64-1.24,1.28-2.46,1.94-3.68,1-2,1.86-4.34,3.43-6A4.23,4.23,0,0,1,113.2,143c1.55.58,3.12,2.25,4.87,2.13,1.18-.07,2-1,2.92-1.63a5.59,5.59,0,0,1,2.62-1.16,7.13,7.13,0,0,1,5.51,2.06c1.88,1.76,2.69,4.22,4.28,6.2a9.16,9.16,0,0,0,3.8,3,21.19,21.19,0,0,1,2.21.28h0a.4.4,0,0,1,.27.05,9.8,9.8,0,0,1,3.8,1.61,17.48,17.48,0,0,1,4.57,5.43c1.28,2.21,2.25,4.59,3.6,6.76a16.4,16.4,0,0,0,1.11,1.61c1.47-.27,3.27-.29,4,1.3a2,2,0,0,1-1.32,2.95c-1.6.33-3.06-1.55-3.91-2.66A22.57,22.57,0,0,1,149,166.7c-1.45-2.94-2.66-6.22-5-8.62a8.79,8.79,0,0,0-4.13-2.56,31.38,31.38,0,0,0-5.56-.56c-2.29-.16-4.77-.52-6.57-2-1-.81-1.46-2-2.35-2.86a3.11,3.11,0,0,0-3.54-.45c-2.45.93-4.64,2.71-7.37,1.65-1.24-.49-2.56-1.3-3.93-.88a8.11,8.11,0,0,0-3.26,2.19,56,56,0,0,0-5.64,6.65A38.44,38.44,0,0,0,99.23,163a27.34,27.34,0,0,1-1.9,3.32c-.56.75-1.67,1.61-2.67,1.2a2.27,2.27,0,0,1-1.55-2A2,2,0,0,1,96.52,164.15Z"/><path class="cls-12" d="M108.84,149.47a5.18,5.18,0,0,1,3.51-.58c1.18.27,2.23,1,3.41,1.22,2.73.45,4.92-2.28,7.66-2.34a3.94,3.94,0,0,1,3.1,1.22,21.33,21.33,0,0,0,2.13,2.69c1.69,1.4,3.9,1.65,6,1.75a6.41,6.41,0,0,1-.55-.49c-1.72-1.66-2.75-3.83-4.28-5.66s-3.18-3.74-5.66-3.6C122,143.8,121,146,119,146.39c-1.8.39-3.28-.5-4.77-1.41-1.71-1-3.49-1.69-5,0a14.63,14.63,0,0,0-1.78,2.65c-.7,1.2-1.42,2.39-2.1,3.61l-1.74,3.08c.33-.37.64-.74,1-1.11A15.51,15.51,0,0,1,108.84,149.47Z"/><path class="cls-8" d="M154.87,171.43a.68.68,0,0,0-.29-.21,1,1,0,0,0,.29.21C154.7,171.34,155.2,171.92,154.87,171.43Z"/><path class="cls-13" d="M107.93,140.38a14.4,14.4,0,0,1,5.51-3.1,10.83,10.83,0,0,1-1.94-.42,5.63,5.63,0,0,1-5.1,1.16,6.66,6.66,0,0,1-4.53-3.74,10.06,10.06,0,0,1-.88-4.54c-.07.24-.13.49-.19.74a14.21,14.21,0,0,0-.1,4.69c.2,1.63.47,3.9-.39,5.49A45.11,45.11,0,0,1,107.93,140.38Z"/><path class="cls-14" d="M135.67,139.32c1.45-.1,2.88-.14,4.32-.14,2,0,3.89.08,5.83.23a6,6,0,0,1-.19-2.82,12.77,12.77,0,0,0-.37-4.77,13.56,13.56,0,0,0-2.75-5,7.25,7.25,0,0,1,.56,2.42,8.94,8.94,0,0,1-2.6,7.09A13.15,13.15,0,0,1,135.67,139.32Z"/><path class="cls-15" d="M130.1,141.72c4.36,1.44,8.51,3.82,12.54,5.91,4.6,2.39,9.27,5,14.19,6.59a45.75,45.75,0,0,0,14,2.56,40.25,40.25,0,0,0,4.52-.23.53.53,0,0,1,.25-.08c.58,0,1.18-.1,1.76-.19l.22,0a.53.53,0,0,1,.19,0,24.69,24.69,0,0,0,8.49-3,37.21,37.21,0,0,1-12.6,1.31c-.52,0-.87-.83-.29-1.08,1.78-.78,3.59-1.53,5.37-2.29-3.2.23-6.42.45-9.61.76-.55.06-.72-.76-.27-1,.81-.45,1.62-.87,2.44-1.32-.64.14-1.3.23-2,.33a23.07,23.07,0,0,1-7.37.1c-.36-.08-.23-.58.08-.6l.37,0c1.36-.6,2.66-1.34,4.05-1.86a65.91,65.91,0,0,1-14.67-1.94c-.43-.1-.27-.64.1-.7,1.74-.23,3.49-.56,5.23-.85.37-.06.74-.14,1.08-.21-1.91-.35-3.85-.64-5.79-.86a37.46,37.46,0,0,0-8.72-.38.39.39,0,0,1-.1-.76c1.67-.39,3.34-.72,5-1a63.16,63.16,0,0,0-9-.52c-3.45,0-6.86.48-10.29.81C129.58,141.28,129.85,141.49,130.1,141.72Z"/><path class="cls-16" d="M96.21,94.82c.27-.56.56-1.28,1.28-1.34a2,2,0,0,1,1.49.74c.33.29.93,1,1.39.48a3.14,3.14,0,0,1,1-.91c.74-.33,1.61.18,2.21.54A16.16,16.16,0,0,0,107.12,96l.27.08c-.8-.48-1.59-1-2.37-1.51a26.55,26.55,0,0,0-3.72-2.17,6.14,6.14,0,0,0-4-.41,19.94,19.94,0,0,0-4.92,1.78c-.5,3.1,2.44,4.54,3.88,7a9,9,0,0,1,.89,2c.35-.76.75-1.5,1.16-2.25a8.79,8.79,0,0,1,2.21-3c.08,0,.19,0,.15.12a21,21,0,0,1-1.49,2.6,15.59,15.59,0,0,0-1.41,3.25c-.51,1.65-.87,3.69,0,5.14a6.91,6.91,0,0,1,0-.91,8.84,8.84,0,0,1,4.53-7.19,8.42,8.42,0,0,1,6.4-.52l-.27-.35A11.56,11.56,0,0,0,106.94,98a17.67,17.67,0,0,0-1.53-1.34s0-.08,0-.06a3.25,3.25,0,0,1,1.51.43,8.88,8.88,0,0,1,1.28,1c.91.89,1.63,1.91,2.5,2.82,1.3,1.36,3.08,2.91,5,2.91a7,7,0,0,1-1.8-2.4,8.73,8.73,0,0,1-.77-2.89,13.42,13.42,0,0,1-3.57-1.26,12.42,12.42,0,0,1-4.34-1.16c-.89-.39-1.69-.95-2.56-1.38-1.22-.58-1.4.39-2.25.84-1.05.54-1.78-.84-2.54-1.23s-1.12,1.17-1.57,1.54-2,1.29-1.12,1.91a.33.33,0,0,1-.33.57,1.23,1.23,0,0,1-.49-1.63C94.71,95.87,95.82,95.63,96.21,94.82Z"/><path class="cls-10" d="M111.25,103.21c-.61-.68-1.13-1.39-1.67-2.11a8.55,8.55,0,0,0-6.76.83,7.5,7.5,0,0,0-3.49,6.36,4.58,4.58,0,0,0,5,4.77,26.78,26.78,0,0,0,5.55-1.36,5.8,5.8,0,0,1,4.94-.68c.08-.08.16-.13.25-.21s.23-.18.35-.25a3,3,0,0,1,.83-3.09,4.14,4.14,0,0,1-.42-2.26A5.9,5.9,0,0,1,111.25,103.21Z"/><path class="cls-17" d="M143.32,73.87a20.91,20.91,0,0,0-4.61,7.89,36,36,0,0,0-1.14,6.3,9.53,9.53,0,0,1-1.4,4.12,42.58,42.58,0,0,0,4.3-3.18,35.8,35.8,0,0,1,5-3.83c4.09-2.48,8.86-2.91,13.55-2.56,8,.6,18.22,3.68,20.08,12.65a53.78,53.78,0,0,1,8.49,1.23c2,.4,3.91.91,5.83,1.49a39.78,39.78,0,0,0-4.84-3.26.67.67,0,0,1,.5-1.22q2.79.68,5.58,1.38c.82.19,1.63.4,2.44.6l-.71-.51c-.86-.56-1.71-1.12-2.56-1.7-1.82-1.2-3.65-2.4-5.45-3.63a.37.37,0,0,1,.29-.67,28.91,28.91,0,0,0,4.85.52c.52.06,1,.14,1.57.23a35,35,0,0,0-8.88-5.11c-.54-.22-.72-1.15,0-1.28l1.61-.29c-.52-.08-1.07-.18-1.59-.28a22.18,22.18,0,0,1-5.85-1.82l-.49.08c-.69.1-.79-.91-.23-1.18a.49.49,0,0,1,.47-.14l.11,0a27,27,0,0,0,6.55-1.38l-1.8-.31c-1.51-.21-3-.44-4.57-.56a28.19,28.19,0,0,0-8.55.45.51.51,0,0,1-.27-1,23,23,0,0,0,6.32-3.78c-3.43.76-6.88,1.45-10.31,2.23-.41.1-.86-.37-.59-.76a18.61,18.61,0,0,1,5.26-5,21.28,21.28,0,0,0-12,5.12.55.55,0,0,1-.78-.77,19.51,19.51,0,0,0,3.94-7.31c-3.64,3.86-8.32,6.59-12.87,9.24a.58.58,0,0,1-.85-.66,13.73,13.73,0,0,1,2.4-4.69,28.48,28.48,0,0,0-9.32,8.92.49.49,0,0,1-.89-.37A25.08,25.08,0,0,1,143.32,73.87Z"/><path class="cls-18" d="M131.89,166.41c.25,1.32,1.7.49,2.19,0,.27-.29.52-.58.81-.85a2.3,2.3,0,0,1,1.55-.58c1.24,0,1.67,1.8,2.15,2.62a13.59,13.59,0,0,0,3.12,3.64c.33.27.7.52,1,.76a26.87,26.87,0,0,1,3.27,1.25c-.67-.6-1.31-1.24-1.93-1.89a61.5,61.5,0,0,1-4.56-6.09c-1.41-2-3.39-4.4-6-4.61-2.43-.2-4.77.52-7.12-.45a16.12,16.12,0,0,1-3.27-2c.42,1,.73,2,1.16,3a27.31,27.31,0,0,0,2,3.78,36.29,36.29,0,0,0,2.86,3.8,23.79,23.79,0,0,0,2.91,2.69,17.73,17.73,0,0,1,5.56-.44,23.06,23.06,0,0,1,3.36.52,12.91,12.91,0,0,1-2.81-3.31c-.39-.66-.68-1.81-1.26-2.31-1.11-.93-2.15.79-2.95,1.26s-2.15.48-2.32-.66A.14.14,0,1,1,131.89,166.41Z"/><path class="cls-19" d="M125.86,170.37c.21.33.44.66.62,1a22.44,22.44,0,0,1,2.64,1c.54-.23,1.1-.44,1.66-.62a3.52,3.52,0,0,1-.73-.71,17.2,17.2,0,0,0-1.85-1.87,21.77,21.77,0,0,1-2.83-3.76,26.52,26.52,0,0,1-2.13-4.18,11.19,11.19,0,0,1-.95-3.65,14.7,14.7,0,0,0-1.86-1.14,0,0,0,0,1,0,0c.31,1.11.55,2.25.86,3.36.4,1.39.85,2.79,1.39,4.14a40,40,0,0,0,2,4.42C125.06,169,125.45,169.69,125.86,170.37Z"/><path class="cls-20" d="M112.14,169.73a23.68,23.68,0,0,0,2.75-7.29,22.19,22.19,0,0,0,.48-3.8c0-.83-.05-1.76,0-2.62a10.23,10.23,0,0,0-1.41.49,15.43,15.43,0,0,1-.27,3.84c-.18,1.31-.39,2.65-.7,4a19.52,19.52,0,0,1-2.31,5.68,12.39,12.39,0,0,1,1.38-.21Z"/><path class="cls-21" d="M121.56,170.27c1,.17,1.92.35,2.9.58,0,0,0,0,0,0-.4-.68-.79-1.35-1.14-2.05a40.61,40.61,0,0,1-1.88-4.15,32.25,32.25,0,0,1-1.49-4.81,19.29,19.29,0,0,1-.58-3.79,7.17,7.17,0,0,0-3.16-.14,10.55,10.55,0,0,1,.25,3.1,21.09,21.09,0,0,1-.37,3.8,23.87,23.87,0,0,1-2.42,6.86A32.9,32.9,0,0,1,121.56,170.27Z"/><path class="cls-22" d="M133.59,190c-2.28,6.2-1.22,14.28-4.42,20.2,5.9-5,9.73-12.45,12.78-19.42,1.84-4.23,3.66-9,8-11.38a13.3,13.3,0,0,1,2.64-1.11h-.18a.3.3,0,0,1-.21,0H152a18.75,18.75,0,0,0-3.88.17,19.44,19.44,0,0,0-6.44,2.07A18.48,18.48,0,0,0,133.59,190Z"/><path class="cls-23" d="M157.74,204.57c.47.7.93,1.42,1.42,2.1a23,23,0,0,1,1.43,2.07c.31.6.66,1.13,1,1.69a34,34,0,0,1-.37-4.05c0-.58,0-1.19,0-1.77a8.23,8.23,0,0,1-1.55-1.2L157.9,202c-.31.48-.64,1-1,1.45A5,5,0,0,1,157.74,204.57Z"/><path class="cls-24" d="M162.26,194.86c-1.38,2.19-2.66,4.42-4,6.61.64.47,1.26.93,1.89,1.42.37.29.8.54,1.19.85a30.62,30.62,0,0,1,3-11.8C163.56,192.89,162.9,193.86,162.26,194.86Z"/><path class="cls-25" d="M168.44,202.44A47.58,47.58,0,0,1,173.21,192a25.33,25.33,0,0,1,6.28-7.28,58.7,58.7,0,0,0,2.81-6.15,22.25,22.25,0,0,0,.69-2.24,33.72,33.72,0,0,1-7.15,5.52,44.59,44.59,0,0,0-5.73,4.2,25.85,25.85,0,0,0-4.81,6.11c-5.31,9.32-3.55,20.5,1.16,29.69-.11-.87-.19-1.76-.25-2.65a42.51,42.51,0,0,1,.06-5.53A49.61,49.61,0,0,1,168.44,202.44Z"/><path class="cls-26" d="M169.64,202.21c-.1.25-.17.52-.27.77-.56,1.71-1.05,3.47-1.45,5.26a15.09,15.09,0,0,0,3.27,1.41,19.86,19.86,0,0,1,2.31.82,55.64,55.64,0,0,1,.19-7A7.35,7.35,0,0,1,169.64,202.21Z"/><path class="cls-27" d="M177.88,188a46,46,0,0,0-3.9,5.14,43.36,43.36,0,0,0-3.84,7.64.37.37,0,0,1,.16.07,7.53,7.53,0,0,0,2,1c.5.16,1,.23,1.53.35A47.26,47.26,0,0,1,177.88,188Z"/><path class="cls-28" d="M173.92,220.51a26.43,26.43,0,0,0,8.34,1.14c1.34,0,3.84-.49,3.84-2.33,0-1.59-1.19-2.87-2.31-3.85A12.83,12.83,0,0,0,176,212a37.46,37.46,0,0,0-.54,6.95c0,.49-.76.61-.86.12a51.28,51.28,0,0,1-1-7.71,8.38,8.38,0,0,1-3-.7c-1-.37-1.9-.95-2.87-1.38a39.2,39.2,0,0,0-.66,4.69c-.07.93-.11,1.85-.11,2.78,1.14.65,2.13,1.58,3.31,2.2A16.27,16.27,0,0,0,173.92,220.51Z"/><path class="cls-29" d="M189.6,186.32a13.82,13.82,0,0,0,3.36-5.49,22.45,22.45,0,0,0,.6-7.67c-.95-4-2.08-8.14-2.08-12.29-4.09,2.38-5.29,7.15-6.14,11.63a37.3,37.3,0,0,1-2.15,7.75c-1,2.4-2.23,4.71-3.37,7a53.67,53.67,0,0,0-5,15.44,43.14,43.14,0,0,0-.17,11.9,39.76,39.76,0,0,1,9.56-22.58C186,190.1,187.88,188.29,189.6,186.32Z"/><path class="cls-30" d="M210.46,136.51a11.34,11.34,0,0,1-1.86-1.77,42.38,42.38,0,0,0-2.7,7,17.15,17.15,0,0,0-.68,4.07c0,1,.06,2.48,1,3,1.36.72,3.06-.35,4.19-1.1a14.87,14.87,0,0,0,2.92-2.56c1.55-1.82,2.81-4.57,5.43-5.06.23,0,.49-.06.72-.08a19.17,19.17,0,0,0-4.28-1.47A13.18,13.18,0,0,1,210.46,136.51Z"/><path class="cls-31" d="M126.54,51.43c-1.05,2-1.94,5.15-.1,7a7.55,7.55,0,0,0,3.74,1.73,12.52,12.52,0,0,1,3.3,1.29,14.1,14.1,0,0,1,2.19,1.65.16.16,0,0,1,.09,0,.38.38,0,0,1,.31.37c2.83,2.83,4.31,6.7,5.64,10.54a21.37,21.37,0,0,1,3.38-3.54c.52-.43,1.37.11,1,.75a25.13,25.13,0,0,0-2.63,5.58,30.18,30.18,0,0,1,12-9.36h0l.16-.06c.66-.27,1,.76.46,1.13a12.33,12.33,0,0,0-4.71,5.52c4.69-2.73,9.33-5.68,12.76-10,.4-.5,1,.06,1,.56a20.83,20.83,0,0,1-2.72,7.17A23.42,23.42,0,0,1,175,68.31c.58,0,.91.89.31,1.16a18.35,18.35,0,0,0-6.53,4.61c3.66-.81,7.31-1.68,11-2.48a.57.57,0,0,1,.56,1,26.19,26.19,0,0,1-5.14,3.82,34.23,34.23,0,0,1,5.26-.12c1.53.08,3.06.23,4.57.45a31.69,31.69,0,0,1,4.34.72.66.66,0,0,1,0,1.27c-1.59.47-3.12,1.09-4.75,1.48l-1.7.37a30.55,30.55,0,0,0,3.7,1,32.3,32.3,0,0,0,6.51.57c.72,0,.91,1.14.18,1.27l-4.64.88a37,37,0,0,1,8.69,5.64c4.42,1.55,8.27,4.94,11.1,8.58A27.83,27.83,0,0,1,214,112.17a30.69,30.69,0,0,1-2.08,15.42c-.83,2-1.8,4-2.75,6a8.9,8.9,0,0,0,1.14,1.38,8.41,8.41,0,0,0,2.64,1.66,41.54,41.54,0,0,0,4,1.11,34.72,34.72,0,0,1,1.28-11.3c1-3.92,2.25-7.77,3-11.75a31.45,31.45,0,0,0,.7-8.1,28.27,28.27,0,0,0-2-8.49c-2.11-5.46-5.11-10.6-7.9-15.73-5.41-10-11.32-20-19.52-28-7.38-7.17-16.69-13-27-14.54a36,36,0,0,0-7.69-.29,87.53,87.53,0,0,0-9.09,1.4c-3.88.7-8.08,1.22-11.9.21a21,21,0,0,0,3.56,2.91,17.83,17.83,0,0,0,7.16,2.29.22.22,0,0,1,0,.42c-2.29.57-4.75-.37-6.79-1.41a32.69,32.69,0,0,1-6.2-4.3c-1.26-1.09-2.5-2.18-3.82-3.18a8.34,8.34,0,0,1,0,6.45C129.77,46.91,127.82,49,126.54,51.43Z"/><path class="cls-32" d="M95.84,78.6c.54-.76,1-1.51,1.55-2.31,1-1.59,1.86-3.24,2.71-4.9a54.8,54.8,0,0,1,5.68-9.52A28.82,28.82,0,0,1,124,51.56a.72.72,0,0,1,.58.14,17.2,17.2,0,0,1,1.18-2.25c1.32-2.08,3.06-4.11,3.74-6.51,1.22-4.36-2.17-8.4-6.41-9.23-5.39-1.05-11,1.84-15.08,5.14a33.12,33.12,0,0,0-9,11.33A31.82,31.82,0,0,0,95.7,64.39c.06,4.65,1.44,10-.11,14.58A1.15,1.15,0,0,1,95.84,78.6Z"/><path class="cls-33" d="M89.48,76.78a.61.61,0,0,1,.16.13,38.2,38.2,0,0,0,4.12,3l.29.18A28.88,28.88,0,0,0,94.77,72c-.13-2.76-.42-5.51-.41-8.26a33,33,0,0,1,.8-6.86,55.6,55.6,0,0,1-3,4.86c-.82,1.15-1.67,2.27-2.6,3.34-.76.85-2,1.86-2.23,3-.25,1.47.76,3.28,1.2,4.67A12.52,12.52,0,0,1,89,75.05C89.15,75.67,89.33,76.21,89.48,76.78Z"/><path class="cls-34" d="M83.86,98.46h0a42.49,42.49,0,0,1,8-5.71l0,0a19.2,19.2,0,0,1,5.49-1.9,7,7,0,0,1,3.84.23,21.39,21.39,0,0,1,3.81,2c1.24.79,2.49,1.62,3.78,2.36a16.39,16.39,0,0,1-1.53-2.33c-1.57-2.94-2.77-6.14-5.79-7.9s-6-2.76-8.84-4.64a32.39,32.39,0,0,1-3.76-2.9,28.41,28.41,0,0,1-2.15-2.11,26.78,26.78,0,0,0,3.43,4.74.56.56,0,0,1-.68.88c-1.47-.84-3-1.65-4.42-2.49.25.31.51.64.74,1s.13.88-.35.86c-1.67-.08-3.33-.08-5-.08l3.2,1.38c.48.21.19.93-.25,1a25.13,25.13,0,0,0-6.73,1.16c1.94.44,3.88.91,5.83,1.37a.49.49,0,0,1,0,.93A62.56,62.56,0,0,0,71.32,89.8c1.75,0,3.51.08,5.25.12.45,0,.68.67.24.89a36.76,36.76,0,0,1-9,3.1,57.72,57.72,0,0,0,7.33.48.58.58,0,0,1,.29,1.07Q73,97,70.51,98.64c2.44-.35,4.88-.66,7.32-1a.52.52,0,0,1,.37.89,11.33,11.33,0,0,0-2.65,2.83,14.87,14.87,0,0,0-.76,1.41,18.87,18.87,0,0,1,5.27-3.15c.43-.18.8.38.56.73-.38.6-.77,1.22-1.16,1.82,1-.83,2-1.7,3-2.57A2.17,2.17,0,0,1,83.86,98.46Z"/><path class="cls-8" d="M93.53,141.76a8.24,8.24,0,0,1,0-3,12.21,12.21,0,0,0-1-3.89A12,12,0,0,0,90,130.77c-2.67-2.6-6.29-4.84-7.36-8.66a6.49,6.49,0,0,1,.31-4.93c1-1.64,2.79-2.61,3.18-4.59.64-3.35-1.38-7.31,1.2-10.17.1-.1.25,0,.19.13-2.07,3.36.6,7.33-.62,10.86a6,6,0,0,1-1.18,2,10,10,0,0,0-1.86,2.25,6.33,6.33,0,0,0,.48,5.66c1.87,3.29,5.49,4.92,7.58,8a17.12,17.12,0,0,1,2.17,4.34c.14-.56.27-1.1.45-1.64.06-.22.13-.43.21-.64C93,129.61,89.44,127,88,123a9.18,9.18,0,0,1-.27-5.72,16.31,16.31,0,0,1,1.14-2.93c.49-.91,1.15-1.72,1.63-2.61,0,0,0,0,0,0a30.58,30.58,0,0,0-1.3,3.12,14.82,14.82,0,0,0-.89,2.91,9,9,0,0,0,1,6,40.25,40.25,0,0,0,3.5,5c0-.13-.11-.25-.15-.38-.56-1.42-1.42-3-1.36-4.6a6.28,6.28,0,0,1,.23-1.43c-1.82-1.78-1.26-4.79-.52-7a86.66,86.66,0,0,1,3.45-9.24.1.1,0,0,1,.19.07,76,76,0,0,1-2.48,8.34c-.71,2.23-1.51,4.73-.21,6.78a4.27,4.27,0,0,1,.66-1c.15-.17.29-.33.45-.48a7.59,7.59,0,0,1,.19-5,6.62,6.62,0,0,1,2-3.35,4.7,4.7,0,0,1,1.21-2.31,3.4,3.4,0,0,1-.7-3.06,6.65,6.65,0,0,0,.29-2.93,7.57,7.57,0,0,0-1.42-2.46c-1.33-1.67-3.62-4-3.47-6.36a55.69,55.69,0,0,0-7.81,5.89,4.69,4.69,0,0,0-.21,1.48,23,23,0,0,0,.64,3.37,8.67,8.67,0,0,1-.5,5.46c-1.57,3.43-5,6.26-4.75,10.33.31,4.87,4.38,8.09,7.69,11.13,3,2.71,5.8,5.81,6.42,9.92A4,4,0,0,1,93.53,141.76Z"/><path class="cls-35" d="M81.65,153.83c.56-.23,1,.64.6,1a31.28,31.28,0,0,0-2.79,2.73c.74-.5,1.45-1,2.17-1.51.54-.38,1.11.35.85.86s-.58,1.12-.89,1.68a99,99,0,0,1,10.58-9.15c3.88-2.75,8-5.66,12.51-7.42-2.47.06-5,.16-7.41.43-3,.33-6,.64-9,1.26,1.47-.08,2.93-.14,4.4-.2a.42.42,0,0,1,.12.82,110.91,110.91,0,0,0-12,3.49c1.18-.06,2.38-.12,3.57-.16.5,0,.54.68.11.85A72.85,72.85,0,0,0,72.87,154c.78-.19,1.57-.39,2.37-.56.52-.12.89.64.36.89a27.16,27.16,0,0,0-4.69,2.89.52.52,0,0,1-.29.39l-.56.29a36.33,36.33,0,0,0-5,4.94A98.23,98.23,0,0,1,81.65,153.83Z"/><path class="cls-36" d="M77.76,173c1.1-4,1.53-8.87,3.46-12.73-.46.46-.91.93-1.35,1.4s-1-.12-.8-.63c.41-.85.82-1.68,1.22-2.53-1.24.85-2.48,1.68-3.7,2.55-.5.35-1.24-.34-.85-.85a38.94,38.94,0,0,1,3.22-3.8,96.39,96.39,0,0,0-15.93,9c-.43.32-1-.29-.72-.71a31.56,31.56,0,0,1,4.42-5.18,28.39,28.39,0,0,0-8.22,5.82c-.56.64-1.43-.18-1.1-.86,1.08-2.3,2.19-4.61,3.27-6.91a3.3,3.3,0,0,1-3-1.92,3.35,3.35,0,0,1,1.14-3.94,3,3,0,0,1,.56-1.51A6.66,6.66,0,0,1,62,148.31c.95-.46,2.36-1.12,2.62-2.29.44-2-3.41-1.6-4-3.27-.42-1.2.1-2.58.35-3.78.29-1.45.62-2.91.93-4.34.45-2,1-5.12-.52-6.86s-4.26-1.15-5.35-3.41.56-4.56,1-6.63A7.85,7.85,0,0,0,53,109.59a9.12,9.12,0,0,1,2.13,5.48A8.62,8.62,0,0,1,53.94,120c-1,1.57-3.26,3.51-3,5.55s2.56,2.85,3.94,3.91a5.75,5.75,0,0,1,2.32,4.07,7.05,7.05,0,0,1-3.31,6.73,8.11,8.11,0,0,1,2.4,4.94c.06.47-.41.78-.79.79-2.37.18-5.33,1-6.61,3.2-1.17,2-1,4.36,1,5.68,1.46,1,3.53,1.67,4.4,3.28a3.81,3.81,0,0,1-.85,4.59c-.64.64-1.37,1.18-2.07,1.76a4.55,4.55,0,0,0-1.51,1.75c-.7,2.05,1.84,3.14,3.5,3.29,2.25.22,4.64-.31,6.79.66a5.28,5.28,0,0,1,2.48,2.37,20,20,0,0,0,1.53,3.12c1.36,1.82,4,2.24,6.1,1.68,2.7-.73,4.77-2.56,6.92-4.22A.47.47,0,0,1,77.76,173Z"/><path class="cls-37" d="M94,185.85a42.94,42.94,0,0,1,3.21-3.7A20.86,20.86,0,0,1,98.55,179a8.91,8.91,0,0,1-3.6-1.8,10,10,0,0,1-2-2.13,10.64,10.64,0,0,1-.7-1.15,4.24,4.24,0,0,1-1.64-1.76,8,8,0,0,1,.77-7.91c1.09-2.52,1-5.44,1.13-8.16a39.07,39.07,0,0,1,.27-4.45c.06-.41.11-.86.21-1.28l-.45.33c-2.83,2.11-5.65,4.34-8.31,6.7-3.8,5.1-4,11.57-5.87,17.48A46.32,46.32,0,0,1,71.07,189c4.09-2.73,7.05-7.11,9.83-11,.36-.53,1.24,0,.89.52-1.9,2.92-1.38,6.55-.24,9.65s2.66,6.28,3,9.71a14.21,14.21,0,0,1-1.86,9.26,22.54,22.54,0,0,1-4,4.58,26.79,26.79,0,0,0,5.37-3.86c0-.08,0-.15,0-.23a40.3,40.3,0,0,1,5.23-15.08A63.93,63.93,0,0,1,94,185.85Z"/><path class="cls-38" d="M81.63,232.15l.16,0c2.11-.34,3.89,1.5,4.63,3.28.5,1.28.7,2.67,1.3,3.91a9.83,9.83,0,0,0,2.07,2.91,32.66,32.66,0,0,0,5.7,4.21c3.89,2.46,8.6,4.78,13.06,2.83A28.59,28.59,0,0,1,99.89,240a38.47,38.47,0,0,1-3.45-7.83.74.74,0,0,1-.47,0c-4.51-.87-7.9-4.86-9.69-8.9a28.77,28.77,0,0,1-1.41-4.1A3.73,3.73,0,0,0,83,222.58c.11,1.26,1.53,2.65.56,3.93-.76,1-2.31,1.4-2.66,2.7a2.87,2.87,0,0,0,.08,1.92A3.67,3.67,0,0,0,81.63,232.15Z"/><path class="cls-39" d="M114.71,252.25a22.81,22.81,0,0,1-5.17-2.32c-3.64,3.08-9.17,1.43-12.91-.76A54.86,54.86,0,0,1,90.35,245a13.1,13.1,0,0,1-4.28-5.31c-.5-1.28-.7-2.71-1.32-3.95-.46-.91-1.59-2.33-2.81-2-1.06.31-2,1.28-3.18.86a3.62,3.62,0,0,1-2.13-2,8.84,8.84,0,0,1-.33-3.9,5.81,5.81,0,0,0-.89-3.35,6.35,6.35,0,0,0-5.7-2.95c-.91.06-.89-1.33,0-1.41a1.13,1.13,0,0,0,.93-.91c.62-2.37-1.64-4.19-1.39-6.51A3.74,3.74,0,0,1,70.62,211a13.71,13.71,0,0,0,2-1.69c1.3-1.59-2.7-1.8-3.49-2.17A2.68,2.68,0,0,1,67.58,205c-.14-1.08.31-2.31-.08-3.35-.66-1.8-3.37-2.17-4.9-2.85a6.8,6.8,0,0,1-3.88-4.38,10.32,10.32,0,0,1,.53-6.53,13.69,13.69,0,0,1,1.64-3c-2,2.19-3.76,4.56-4.38,7.46a9.31,9.31,0,0,0,.43,5.74,9.76,9.76,0,0,0,3.47,3.66c1.55,1.17,3,2.7,2.81,4.81-.21,1.84-1.65,3.18-2.83,4.5a5.61,5.61,0,0,0-1.53,2.23,3.38,3.38,0,0,0,.75,2.77c1.3,1.92,2.45,3.74,1.4,6.1s-3.22,3.7-5.29,5.14-3.86,3.45-3.82,6.26c.1,5.56,5.29,8.72,10.39,8.78a.8.8,0,0,1,.76,1,4.68,4.68,0,0,0,6.43,5.93.78.78,0,0,1,1.16.66c0,4.12,4.4,7.88,8.51,6.72,2.19-.62,4.28-1.84,6.63-1.24a14,14,0,0,1,4.79,2.81c1.53,1.18,3.25,2.5,5.29,2.37,2.38-.16,4.45-1.61,6.64-2.47,4.93-1.93,10-.48,14.77,1.34a14.44,14.44,0,0,1-1.16-2.07A16.14,16.14,0,0,1,114.71,252.25Z"/><path class="cls-40" d="M168,247.79a.69.69,0,0,1-.17-.17c-.62-.19-1.22-.41-1.82-.64a26.07,26.07,0,0,1-4.29-2.23.18.18,0,0,1,.14-.33c.85.23,1.74.35,2.62.56s1.7.51,2.57.72c1.63.39,3.24.85,4.89,1.2A51.83,51.83,0,0,0,182,248a55.09,55.09,0,0,0,19.61-3.4,9.92,9.92,0,0,1,1.45-3c1.5-2,3.57-2.44,5.89-2.67,1.21-.14,2.68-.33,3.3-1.54a5.08,5.08,0,0,0,.25-3.62c-.72-2.71-1.8-5.17-1.51-8.06.58-5.66,3.95-10.27,7-14.89a35.25,35.25,0,0,0,4.05-7.71,17.44,17.44,0,0,0,.87-5.29,55.74,55.74,0,0,1-6.47,6.84c-4.65,4.44-9.31,8.9-14,13.3l-7,6.62c-.93.89-2.11,1.92-2.41,3.24s.18,2.77,1.67,2.75a6.91,6.91,0,0,0,3.76-1.51c1.05-.7,2.07-1.41,3.06-2.15a43.46,43.46,0,0,0,6-5.27,67.1,67.1,0,0,0,9.09-12.91c.08-.14.33,0,.27.12a40.36,40.36,0,0,1-7.46,12,49.89,49.89,0,0,1-10.79,9.67c-1.65,1-4.23,2.19-6,.64a4.11,4.11,0,0,1-.39-5.27c1.47-2.27,3.78-4.05,5.7-5.91,2.13-2.06,4.22-4.15,6.33-6.2,4.5-4.4,9.13-8.69,13.59-13.14a25.29,25.29,0,0,0,5.1-6.52,20.77,20.77,0,0,0,2-8.39c.53-11.26-2.83-22.73-8.25-32.54-.35.37-.7.74-1,1.13a37.47,37.47,0,0,0-4.52,6.51,65.37,65.37,0,0,0-3.12,7.3,30.41,30.41,0,0,1-1.9,15.43c-2.73,6.75-7.38,13.3-9.78,20.33a43.28,43.28,0,0,0,5.15-2.23,38.93,38.93,0,0,0,5.14-3.19,49.27,49.27,0,0,0,8.88-9.25c.09-.12.29,0,.21.12a31.85,31.85,0,0,1-8.57,9.77c-3.31,2.57-7.17,5.11-11.28,6.26a23.49,23.49,0,0,0-.89,9.69,30.55,30.55,0,0,0,1.65,2.88c.25.41-.31.78-.64.49a13.24,13.24,0,0,1-4-7.7,26.6,26.6,0,0,1-.49-4.94,6.17,6.17,0,0,1-2.25.54,23.83,23.83,0,0,1-3.68.3,24.62,24.62,0,0,1-7.81-1.17.84.84,0,0,1-.19-.09,37.14,37.14,0,0,0-1.49,5.44c3.39.72,6.58,1.88,9.07,4.42,1.14,1.18,2.24,2.56,2.17,4.28a3.7,3.7,0,0,1-2.6,3.09,12.47,12.47,0,0,1-5.37,0,34.35,34.35,0,0,1-4.92-.91,20.83,20.83,0,0,1-4.52-1.84,13.54,13.54,0,0,1-3-2.13c0,.45,0,.89,0,1.36,0,.89.11,1.78.23,2.67s.45,1.63.62,2.44a.58.58,0,0,1-1,.45c-.44-.8-.89-1.59-1.29-2.42a41.28,41.28,0,0,1-3.74-11.15.16.16,0,0,1-.18-.06,41.74,41.74,0,0,1-3.18-4c-.54-.79-1.06-1.61-1.57-2.42-.11-.19-.25-.39-.37-.58l-.81,1.1a29.68,29.68,0,0,1-3.49,3.86s0,0,0,.06c.7,1.68,1.26,3.41,2.09,5a33.94,33.94,0,0,0,2.81,4.51,31.15,31.15,0,0,0,7.68,7.25A29.76,29.76,0,0,0,174.6,230c2.29.49,4.65.93,6.94.19a7.1,7.1,0,0,0,4.19-3.54.37.37,0,0,1,.68.29c-1.42,4.15-6.77,5.27-10.59,4.82a26.71,26.71,0,0,1-11.1-4.28,33.18,33.18,0,0,1-8.51-7.73c-2.17-2.83-4.3-6.36-5-9.92a24.41,24.41,0,0,1-5,3.35,24.88,24.88,0,0,1-6,2.13,29.42,29.42,0,0,1-3.22.48,18.05,18.05,0,0,1-3.12-.09.28.28,0,0,1,0-.55.26.26,0,0,1,.14-.32c.52-.26,1.07-.47,1.59-.72a24.28,24.28,0,0,0,11.14-9.67,45.13,45.13,0,0,0,3.71-9.38,57.12,57.12,0,0,1-11.19,11.26A58.68,58.68,0,0,1,125.92,214a.71.71,0,0,1-.18.08c-1.06.43-2.13.83-3.21,1.22-.62.21-.86-.72-.28-1a22.18,22.18,0,0,0,3.61-1.82c6.28-6.61,3.39-17.19,7.62-24.83a20.73,20.73,0,0,1,8.79-8.51c.49-.23.95-.46,1.44-.67-6.86,2-12.62,7.94-17.77,12.61a45.4,45.4,0,0,1-12.27,8.39A45.36,45.36,0,0,1,103,202.67a18.54,18.54,0,0,0,.8,2.7,33.93,33.93,0,0,0,3,5.93,75.74,75.74,0,0,0,8.16,10.48c2.93,3.26,6,6.4,9.15,9.38.13.14-.06.33-.22.22a59.6,59.6,0,0,1-5.27-4.48c-1.63-1.63-3.21-3.29-4.73-5a93,93,0,0,1-8.18-10.74,29.7,29.7,0,0,1-3.72-8.29c-.64.1-1.28.17-1.92.25s-.65-.7-.25-.93a13.46,13.46,0,0,0,1.63-1s.1-.06.14-.1c-.16-.81-.27-1.64-.35-2.48a40.9,40.9,0,0,1,1-13.49c0-.19,0-.36.09-.56s.31-.38.55-.42a16.07,16.07,0,0,0,7.13-2.6c2.17-1.43,4-3.22,6-4.85,2.68-2.17,5.9-4,9.35-4.24a45.83,45.83,0,0,0-4.56-1c-5.31-.77-11.47-.54-16,2.68S98,182.93,97.5,188.33a57.12,57.12,0,0,0,1.36,17.76,77.52,77.52,0,0,0,5.66,16.74c.19.39-.37.74-.58.35a70.11,70.11,0,0,1-5.85-14A57.54,57.54,0,0,1,95.72,192a39.86,39.86,0,0,1,.39-5.22,47.09,47.09,0,0,0-2.66,11.5,72.35,72.35,0,0,0-.31,7.5,33.26,33.26,0,0,0,.28,3.74,35.27,35.27,0,0,1,.46,3.7c0,.41-.52.41-.66.1-1-2.37-1.06-5.35-1.28-7.87a35.82,35.82,0,0,1,.23-7.68A47.05,47.05,0,0,1,95.24,186c-.14.17-.27.35-.41.54a54.76,54.76,0,0,0-4,6.07,40.44,40.44,0,0,0-5.18,14.18c0,.33-.09.68-.13,1a.55.55,0,0,1-.06.66A28.78,28.78,0,0,0,87.23,222c1.63,3.95,4.44,7.5,8.65,8.74a36.82,36.82,0,0,1-1.32-9.59.38.38,0,0,1,.74-.1c1.45,6.2,2.48,12.4,5.79,18a24.72,24.72,0,0,0,13.49,11.24,16.11,16.11,0,0,1,2.07-7.41.92.92,0,0,1,1.59.93,14.25,14.25,0,0,0-.85,11.77,13.89,13.89,0,0,0,8,8,16.75,16.75,0,0,0,7.19.95c2.26-.13,4.74-.38,6.9.53a6.42,6.42,0,0,1,2.63,2.07,28.41,28.41,0,0,0,1.86,2.5c2.4,2.42,5.16-.17,7.11-1.8a9.8,9.8,0,0,1,3.12-1.94,12.64,12.64,0,0,1,2.93-.49c1.92-.15,4.5.26,6.18-.91,2.08-1.41,1.28-4.3-.38-5.71-2.14-1.81-5.28-1.67-7.89-1.59a.66.66,0,0,1-.47-1.11c1.63-1.43-1.08-3.52-1.8-4.67-1.08-1.7-.68-3.43-.25-5.27.52-2.35,1-4.69,1.55-7a9,9,0,0,0,.27-2.69c-.14-1.18-1-1.41-2-1.45-1.54-.06-3-.51-3.67-2a6.07,6.07,0,0,1-.4-4.09c.48-1.92,1.78-3.84,1.82-5.85a4.12,4.12,0,0,0-1-2.77,4.46,4.46,0,0,1,.11,1.28,7.86,7.86,0,0,1-1.91,4.2c-1.44,1.82-4,4.48-2.41,6.94,1,1.55,2.68,2.5,3.82,3.93a4.26,4.26,0,0,1,.5,4.93c-.87,1.47-3.25,3-3.08,4.94.12,1.32,1,2.46,1,3.78a4.31,4.31,0,0,1-1,2.89c-1.55,1.86-4.05,2.92-6.29,3.62a18.86,18.86,0,0,1-7.64.85c-2.35-.27-5.14-.75-7.07-2.19a.22.22,0,0,1,.17-.4c1.53.36,3,1,4.55,1.18a21.15,21.15,0,0,0,8.12-.37,19.11,19.11,0,0,0,4.58-1.72,33.81,33.81,0,0,1-7.85-2.14,56.08,56.08,0,0,1-9.34-4.4,50.46,50.46,0,0,1-8.28-6,26.31,26.31,0,0,1-3.39-3.61c-.91-1.24-1.63-2.54-2.42-3.85a.12.12,0,1,1,.21-.12,27.13,27.13,0,0,0,3.31,3.47c1.19,1.08,2.31,2.23,3.55,3.27a56.4,56.4,0,0,0,8.08,5.68,70.43,70.43,0,0,0,8.92,4.42c2.63,1.07,5.39,1.8,8,2.79a6.75,6.75,0,0,0,1.47-1.34,2.57,2.57,0,0,0,.61-1.33,6.64,6.64,0,0,1-2.45-.56c-.85-.31-1.7-.64-2.54-1a30.51,30.51,0,0,1-5-2.7c-2.94-1.95-6.1-4.34-8-7.36a.21.21,0,0,1,.33-.25c1.4,1.14,2.64,2.42,4,3.54a36.94,36.94,0,0,0,4.59,3.1,45.22,45.22,0,0,0,4.93,2.45c.87.34,1.76.67,2.67,1a11.5,11.5,0,0,1,1.36.49c-.33-1.38-1.14-2.79-.68-4.28.6-1.94,2.4-3,3.24-4.81s-.8-3.24-2-4.36-2.83-2.58-3-4.5c-.27-2.75,1.68-4.69,3.37-6.57,1.28-1.43,2.69-3.74,1.8-5.58a2.89,2.89,0,0,0-.58-.14c-.25,0-.33-.38-.06-.44a1,1,0,0,1,.22,0c-.1-.12-.22-.23-.33-.35s0-.41.23-.31a2.83,2.83,0,0,1,.85.62,3.28,3.28,0,0,1,2.37,2c.85,1.76.39,3.76-.27,5.5s-1.73,4.13-.64,6,3.17.85,4.78,1.78,1.38,3.16.95,4.58c-.75,2.51-1.18,5.19-1.74,7.77-.27,1.3-.78,2.83,0,4.05.52.83,1.26,1.47,1.8,2.28a3.91,3.91,0,0,1,.66,3c2.52-.08,5.25,0,7.31,1.55a37.86,37.86,0,0,1,5.33-.1,46.82,46.82,0,0,0,5.42-.48C172.78,253.28,171.13,249.81,168,247.79Z"/><path class="cls-41" d="M218.19,252.64c-.66-2.31.7-4.61,2.44-6.07s4.3-2.34,5.62-4.3c3.34-5-3.29-10.12-4.86-14.48-1.9-5.25,1.08-10.31,4.42-14.2s8-7.85,8.16-13.24c.07-2.62-.91-5.1-1.69-7.56-.7-2.17-1.34-4.73-.45-7,1.65-4.07,6.17-5.08,8.82-8.23a7.46,7.46,0,0,0,1-7.37,13.49,13.49,0,0,0-3.82-5.23c.31.6.56,1.24.78,1.72a9.36,9.36,0,0,1,.91,3.51A7.28,7.28,0,0,1,236.7,176a57,57,0,0,0-5.52,4.65A29.21,29.21,0,0,0,227,187a1.11,1.11,0,0,1-.12.16,21.86,21.86,0,0,1-1.62,6.74,18.61,18.61,0,0,1-1.36,2.54c1.26,4.09-1,9.05-2.93,12.5-2.59,4.54-6.16,8.71-7.65,13.8a13.16,13.16,0,0,0,.13,8.3c.76,2.23,1.73,5,.37,7.21s-3.64,2.25-5.91,2.54c-2.64.33-4.17,2.23-4.85,4.71-.71,2.65-.71,5.48-1.86,8a13,13,0,0,1-4.3,5.23c-3.86,2.7-9.82,3.18-13.62.12-.24-.19,0-.62.29-.5,3.8,1.55,8,2.15,11.68-.18a11.79,11.79,0,0,0,3.9-3.89,14.91,14.91,0,0,0,1.71-5.49c.11-.83.23-1.67.4-2.48a52.05,52.05,0,0,1-19.53,3.37,55.25,55.25,0,0,1-10.57-1.22,3.78,3.78,0,0,0-.46-.1c2.61,2.33,4.15,5.68,5.66,8.82a23,23,0,0,0,3.74,6c1.49,1.59,3.49,3.22,5.77,3.34,2.6.13,4.5-1.46,6.77-2.43a10.7,10.7,0,0,1,7.5-.27c2.61.74,5.11,1.63,7.87,1.63a17.43,17.43,0,0,0,7.54-1.67c2.13-1,4.55-2.65,5.27-5.09a3.35,3.35,0,0,0-.72-3.36A7.58,7.58,0,0,1,218.19,252.64Z"/><path class="cls-42" d="M264.67,204.65c-4.15,1-2.47,6.9-5.92,8.65a3.48,3.48,0,0,1-4.55-1.17,6,6,0,0,1-.52-5.54c.95-2.25,3-4.19,3.49-6.57.34-1.59-.1-4.36-2.18-4.38a.71.71,0,0,1-.65-.37c-1.42,1.59-3.28,2.6-5,3.88-1.94,1.47-3.69,3.41-3.11,6,.53,2.33,1.81,4.81.82,7.21a8.2,8.2,0,0,1-.78,1.44c0,1.14-.09,2.32,0,3.47.12,2.11,1.32,3.14,3.26,3.66,1.55.43,3.29.72,4.52,1.86a4.54,4.54,0,0,1,1.33,3.94,4.64,4.64,0,0,1-3.16,4,16.47,16.47,0,0,1-4.38,0c-.93,0-2.55.11-2.83,1.26a22.64,22.64,0,0,1-.71,3.74,6.8,6.8,0,0,1-1.75,2.57,5.33,5.33,0,0,1-6.28.74,8,8,0,0,1-4.16-5.44,5.65,5.65,0,0,1,2.54-5.57c1.91-1.39,4.07-2.4,5-4.78a7.72,7.72,0,0,0-.08-5.86,21.51,21.51,0,0,1-4.38.12c-2.77-.2-5.76-.6-8.39.46a7.9,7.9,0,0,0-3.45,2.58,11.25,11.25,0,0,0-.58,2c-.55,2.83.35,5.29,1.91,7.65,1.46,2.21,3.2,4.35,3.86,7a7,7,0,0,1-1.43,6.73c-1.67,1.72-4,2.52-5.7,4.2-.87.89-1.8,2.13-1.63,3.47a3.35,3.35,0,0,0,1.09,1.88,5.48,5.48,0,0,1,3.31-3.31c2.52-1,4.57,0,6.49,1.63.95.81,2.17,2,3.57,1.62,1.65-.4.77-2,1-3.25.5-2.7,3.66-3.45,6-2.89,1.41.35,2.75,1,4.16,1.3a15.16,15.16,0,0,0,3.92.37,12.8,12.8,0,0,0,7.58-2.7c1.92-1.68,3.19-4,1.84-6.47-.93-1.71-2.7-3.59-2.42-5.68.31-2.48,3-2.75,4.86-3.53a16.16,16.16,0,0,0,5.48-3.76,18.39,18.39,0,0,0,5.26-11.95,13.89,13.89,0,0,0-1.36-6.87C269.34,206,267.22,204,264.67,204.65Z"/></svg>