<svg id="Calque_1" data-name="Calque 1" xmlns="http://www.w3.org/2000/svg" viewBox="0 0 300 300"><defs><style>.cls-1{fill:#65cce8;}.cls-2{fill:#2a3468;}</style></defs><title>y_Plan de travail 8</title><path class="cls-1" d="M140.3,162.37s.49,4.82-5.71,6.13-9.77-5-9.77-5-2.18,4.59,4.19,11,12.55,15.25,9.75,19.14-6-.89-3.77-2.43c0,0-.69,1.54,1.54,2s2.78-3.54-1-4.68-5.58,4.73-1.93,8.21,10.91.27,6.84-10.25-5.13-11.92-2.48-16,9-3,9-3A7,7,0,0,0,140.3,162.37Z"/><path class="cls-1" d="M146.45,169.37s-6.85.15-8.06,4.29c0,0,5.68,6.4,4.83,20.7s-12,22.72-12,22.72,4.93,3,10.64-2.08c0,0-2.24-1.74.29-7.39s10.49-8,10.49-8a35.42,35.42,0,0,1-8.45-17.16C142.55,172.34,146.45,169.37,146.45,169.37Z"/><path class="cls-1" d="M147.29,206.29s-2.73,10.91-10.44,14.14-13.64-4.47-10.37-8.36a2.22,2.22,0,0,0,1.86,2.65c2.36.62,3.28-2.6,1.15-4.14s-4.54.7-6.77,3.33-5.93.69-5.26-2.06,3.64-3.62,5.78-1.22c0,0,.34-7.51-11.91-14.6s-15.94-2-15,1,4.17,3.33,5.78,1-1-4.22-2-3.43c0,0,7.34-2.23,12,9s-2,11.73-4,8.46c0,0,0,6.87,11.19,11.55S146.75,222.86,147.29,206.29Z"/><path class="cls-1" d="M131.62,227.1c.1-.3-6.87,2.31-11.51-1.84,0,0-4.59,3.92-9.77.67s-3.27-9.67-3.27-9.67a26.79,26.79,0,0,1-14.16-13.41c-4.44-10-1-15.23-1-15.23s-.3,2.36,2.83,2.95,4.83-5,1.29-6.89-10.72,1.88-8.48,17.48,16.64,30.58,16.64,30.58,1.68-3.7,7.63-1.54,4.34,7.31.82,6.65a1.67,1.67,0,0,0,1.14-2.66c-1.11-2.25-6,.05-3,3.77S125.86,242.7,131.62,227.1Z"/><path class="cls-1" d="M140.22,153.25s.42-4.81-5.77-6.05-9.7,5.11-9.7,5.11-2.26-4.57,4-11,12.3-15.45,9.47-19.29-6,1-3.72,2.48c0,0-.72-1.52,1.51-2s2.83,3.5-.89,4.69-5.65-4.64-2.06-8.19,10.91-.42,7,10.14-5,12-2.23,16.07,9,2.86,9,2.86S145.6,153.2,140.22,153.25Z"/><path class="cls-1" d="M146.27,146.16s-6.84,0-8.1-4.17c0,0,5.57-6.5,4.53-20.78s-12.35-22.54-12.35-22.54,4.91-3.08,10.69,1.91c0,0-2.21,1.78.4,7.39s10.61,7.88,10.61,7.88a35.27,35.27,0,0,0-8.18,17.29C142.38,143.25,146.27,146.16,146.27,146.16Z"/><path class="cls-1" d="M146.57,109.23s-2.9-10.89-10.66-14-13.57,4.67-10.24,8.51a2.22,2.22,0,0,1,1.81-2.68c2.33-.64,3.3,2.56,1.19,4.14s-4.54-.62-6.82-3.22-5.95-.6-5.21,2.13,3.69,3.57,5.8,1.14c0,0,.45,7.49-11.68,14.78s-15.92,2.23-15-.74,4.12-3.4,5.78-1.14-1,4.21-1.94,3.45c0,0,7.37,2.13,11.81-9.16s-2.21-11.7-4.12-8.4c0,0-.12-6.87,11-11.73S145.8,92.67,146.57,109.23Z"/><path class="cls-1" d="M130.6,88.65c.13.3-6.89-2.21-11.48,2,0,0-4.64-3.85-9.77-.52s-3.13,9.72-3.13,9.72a26.82,26.82,0,0,0-14,13.61c-4.31,10-.74,15.25-.74,15.25s-.32-2.33,2.8-3,4.91,4.89,1.39,6.87S85,130.88,87,115.23s16.19-30.82,16.19-30.82,1.74,3.67,7.66,1.44,4.24-7.37.75-6.65a1.69,1.69,0,0,1,1.19,2.65c-1.07,2.28-6,.05-3.08-3.72S124.62,73.15,130.6,88.65Z"/><path class="cls-1" d="M158,139.39s4.15,1.29,2.78,5.28-8.58,3.27-8.08-4.94,13.24-16.44,13.24-16.44-13.89,3-18.5,14.91c0,0,4.56,3.17,1.41,10.76s-16.12,7.24-15.92,3.72c0,0,3.13,1.31,3.8-1.79s-4.72-4.29-7.22-1-2.36,6.3-4.89,8c2.56,1.69,2.46,4.66,5,7.94s7.94,2,7.2-1.12S133,163,133,163c-.25-3.52,12.69-4.06,16,3.48s-1.24,10.78-1.24,10.78c4.78,11.86,18.7,14.64,18.7,14.64s-12.87-8-13.49-16.25,6.57-9,8-5.06-2.71,5.33-2.71,5.33c5.81,11.83,16.79,9.5,16.79,9.5-10.17-2.35-13.07-14.68-11.13-17s7.19,1.12,8.33,5.11-1.61,3.12-1.61,3.12c7.49,9.65,16.61,7.62,16.61,7.62-9.3-1.49-16.61-15.82-14.26-16.94s5.58,2.73,5.58,2.73-1.29,5.53,5.23,9.07S195.18,181,195.18,181c-7.71-.32-12-6.54-10.12-11.18s8.28-1.24,8.28-1.24c3.25-4.86.87-8.61.87-8.61-1.91,6.43-11.11,9.55-16.37,6.23s-3.94-6.45-2.3-6.15,1.11,1.39,1.11,1.39c1.17-1.27,1.39-4,1.39-4s-.25-2.72-1.44-4c0,0,.55,1.09-1.09,1.41s-3-2.8,2.23-6.2,14.46-.42,16.45,6c0,0,2.3-3.77-1-8.58,0,0-6.37,3.49-8.28-1.12s2.26-10.89,10-11.33c0,0-4.89-1.61-11.34,2s-5.08,9.15-5.08,9.15-3.18,3.9-5.53,2.8,4.73-15.5,14-17.13c0,0-9.15-1.89-16.52,7.86,0,0,2.73-.89,1.66,3.12s-6.27,7.47-8.23,5.21.75-14.6,10.89-17.11C174.67,129.66,163.63,127.48,158,139.39Z"/><path class="cls-1" d="M183.57,151.31s3.6.13,3.08,3-6.43-1.15-5.73-4l-3.57,1.94a6.51,6.51,0,0,1,.07,10.61l3.6,1.89c-.72-2.83,5.11-6.87,5.68-4.07s-3,3-3,3c5.8,3.15,8.18-1.94,8.18-1.94s-1.86,1.12-1.95-1.23,6.07-3.1,7.11-.53-.84,3.38-.84,3.38c12.3,3.27,13.71-4.86,13.71-4.86s-1.14,2.82-5.38,2.23-5.11-3.32-5.11-3.32.85-2.76,5.06-3.4,5.41,2.16,5.41,2.16-1.54-8.11-13.79-4.67c0,0,1.88.77.89,3.35s-7.16,1.94-7.11-.42,1.93-1.27,1.93-1.27S189.32,148.07,183.57,151.31Z"/><path class="cls-1" d="M210.7,158.11a15.84,15.84,0,0,1,10,5.21s4.83-10.82,16.68-9.75c0,0-8.4-11-22.54-6.4,0,0,2.81-1.44,2.48,3.85S210.7,158.11,210.7,158.11Z"/><path class="cls-1" d="M222.23,163.89a23.26,23.26,0,0,1,9.8-8.16c6.3-2.63,10.59,4.74,10.59,4.74s.27,4.09-3,2.72-.72-3.05-.72-3.05-2.72-3-4.31,2.26-2.9,4.24-6.42,2.5S222.23,163.89,222.23,163.89Z"/><path class="cls-1" d="M233,167.83s3.15-3,3.15-5.65c0,0,4,6.52,10.19,5.55,0,0-3.57,3.4-3.65,7s3.13,5.61,3.13,5.61-5.43,5.9-11.31,4.31c0,0,4.19-2.92,4.14-9.94S233,167.83,233,167.83Z"/><path class="cls-1" d="M236.57,173.53s-.52,3.25-6.53,5.11-8.18,4.07-8.85,6.38c0,0,3.27-2.36,7.74,1s4.26,6.84,4.26,6.84a9.88,9.88,0,0,0,7.62-7.31s-6,3.57-8.21.22S238.62,179,236.57,173.53Z"/><path class="cls-1" d="M221.19,186.9s7.09-2.7,9.4,3.92S225,202,219.7,198.16s-15.74-4.71-19.91,1.56-.32,7.57,1.69,6.55a2.51,2.51,0,0,1-1.67-3.5c1-2.83,6.08-1.76,6.5,2.06s-2.38,6.35-6.37,5.6-6.7-6.05-.2-15,18.85-8.58,18.85-8.58-3.5,1-2.48,2.9,7.09-1.39,8.6,2.68c0,0-4.54-1-4.44,1.22s6.1,3.47,6.72-1.54S221.19,186.9,221.19,186.9Z"/><path class="cls-2" d="M125.67,206.81c-.33.72,6.49-3.67,2.67-12.82s-15.22-27.33-6.59-34.52c0,0-12.1,5.31-19.82-4a16,16,0,0,1,2.26,12s7.12.64,11.16-4.39c0,0,3.72,10-2.41,12.92,0,0,1.72-1.37.18-3.92s-6.65-1.36-5.36,5.21,9.45,5.58,10.81,1.44c0,0,1.79,11.58-9.44,12,0,0,7.21,5.26,12.35-.19,0,0,3.44,0,4.88,4.56s-3.92,3.87-3.92,3.87S129,199.35,125.67,206.81Z"/><path class="cls-2" d="M122.57,160.24s-4.89,4.91-.8,16.62,12.5,9.72,12.5,9.72S120.43,182.16,122.57,160.24Z"/><path class="cls-2" d="M109,168.72a15.14,15.14,0,0,1-13.71-5.5s4.78,7.16,4.11,14C99.38,177.2,102.73,170.33,109,168.72Z"/><path class="cls-2" d="M115.42,183.63c.1-.28-5.3,1.88-8.9-2.68s0-8.83.87-9.65c0,0-4.79.35-3.77,4.66,0,0-1.64.13-1.61,2.71a2.46,2.46,0,0,0,2.43,2.58s-1.66.64,0,3.37,4.57.92,4.57.92S113.34,189.63,115.42,183.63Z"/><path class="cls-2" d="M103.1,166s-5.58.29-8.95-6.58-5.81-7-10.27-8l14.31,2.11a5.54,5.54,0,0,0-1.22,5.8C98.21,163,103.1,166,103.1,166Z"/><path class="cls-2" d="M71.61,156A6.58,6.58,0,0,0,76,149.68c.1-5.09-11.6-11.19-13.49-1.44s8.14,16,22,16.07,13.36,17.11,1.29,18.57-10.49,9.63-10.49,9.63,2.48-4.15,6.79-2-6.87,9.44-1.36,23.23c0,0-2.16-8.45,1.78-12,0,0-1.49,3.69.57,11.28s8.31,13.86,15.58,19c0,0-8-4.79-12.87-18s-.1-28.25,7.06-32.26,5.66-13.39,2-17.46-9.22-2.75-9.77-9c0,0-2.33,1.34.55,6.25,0,0-17.34.6-18.8-7.17s4.34-6.42,5.36-4.63.27,1,.27,1-1-1.76-3.42.28S68.51,155.33,71.61,156Z"/><circle class="cls-2" cx="86.31" cy="204.23" r="0.84"/><circle class="cls-2" cx="86.51" cy="209.12" r="1.34"/><circle class="cls-2" cx="88.52" cy="214.4" r="1.59"/><circle class="cls-2" cx="91.32" cy="219.44" r="1.98"/><circle class="cls-2" cx="95.44" cy="225.17" r="2.01"/><circle class="cls-2" cx="98.04" cy="228.41" r="1.14"/><circle class="cls-2" cx="85.72" cy="201.11" r="0.55"/><path class="cls-2" d="M87.38,181.49s6.92-2.33,6.1-8.72-8.43-7.94-15.58-7.32c0,0,9.55.22,12.25,5.83S87.38,181.49,87.38,181.49Z"/><path class="cls-2" d="M75.75,206.44a20.14,20.14,0,0,1-3.4-17c2.58-9.77,12.25-8.23,12.25-8.23s5.18-2.38,3.1-7.66-8.28-6.55-11.46-5.41c0,0,6.75,1,8.26,5.83s-5,5.75-7,.45c0,0,2.36,2.87,5.09,1.51a16.13,16.13,0,0,1-7.84-7.37c-2.51-5.25-9.47-5-9.57-1.58,0,0,1.16-2.26,4.09-.33s-1.34,7,1,12.88a5.26,5.26,0,0,1,1.56-5.19,6.67,6.67,0,0,1-.35,6.85,8.72,8.72,0,0,0-1.16,7s-8-11.44-5.88-24.41C64.51,163.79,58.93,177.9,75.75,206.44Z"/><circle class="cls-2" cx="63.55" cy="160.27" r="1.09"/><circle class="cls-2" cx="66.1" cy="162.37" r="1.51"/><circle class="cls-2" cx="69.25" cy="162.99" r="0.72"/><circle class="cls-2" cx="71.8" cy="163.59" r="0.57"/><circle class="cls-2" cx="74.68" cy="165.05" r="1.26"/><circle class="cls-2" cx="82.12" cy="174.01" r="0.82"/><circle class="cls-2" cx="69.32" cy="180.9" r="1.36"/><path class="cls-2" d="M77.73,209.57c-.12-.2-4.19-5-4.07-10.94s5.66-8.31,8.66-7.19c0,0-5.26-.08-5.73,7.81S77.73,209.57,77.73,209.57Z"/><path class="cls-2" d="M127.87,104.67c-.29-.75,6.3,4,2,12.94s-16.57,26.54-8.29,34.15c0,0-11.82-5.9-20,3a15.87,15.87,0,0,0,2.82-11.9s7.15-.3,10.94,5c0,0,4.22-9.85-1.76-13,0,0,1.66,1.44,0,3.92s-6.72,1-5.11-5.48,9.72-5.11,10.86-.9c0,0,2.36-11.45-8.83-12.42,0,0,7.47-4.91,12.33.82,0,0,3.45.1,5.08-4.32s-3.72-4.06-3.72-4.06S130.87,112.28,127.87,104.67Z"/><path class="cls-2" d="M122.47,151s-4.64-5.16,0-16.64,13-9.08,13-9.08S121.43,129,122.47,151Z"/><path class="cls-2" d="M109.35,141.87a15.25,15.25,0,0,0-14,4.81s5.13-6.92,4.78-13.79C100.17,132.91,103.15,139.93,109.35,141.87Z"/><path class="cls-2" d="M116.52,127.31c.07.27-5.21-2.13-9,2.26s-.47,8.8.37,9.67c0,0-4.79-.57-3.52-4.86,0,0-1.64-.23-1.49-2.78a2.47,2.47,0,0,1,2.56-2.46s-1.64-.74.14-3.37,4.62-.67,4.62-.67S114.71,121.21,116.52,127.31Z"/><path class="cls-2" d="M103.32,144.35s-5.55-.57-9.25,6.12-6.15,6.75-10.64,7.44l14.41-1.39a5.53,5.53,0,0,1-.92-5.88C98.29,147.05,103.32,144.35,103.32,144.35Z"/><path class="cls-2" d="M71.36,152.7a6.63,6.63,0,0,1,4.09,6.55c-.15,5.08-12.15,10.59-13.54.77s8.9-15.57,22.74-15,14.21-16.42,2.21-18.5-10-10.15-10-10.15,2.28,4.24,6.69,2.33-6.39-9.77-.22-23.28c0,0-2.58,8.35,1.19,12,0,0-1.29-3.77,1.14-11.23s9-13.45,16.49-18.16c0,0-8.26,4.39-13.74,17.34s-1.48,28.19,5.46,32.58,5,13.64,1.14,17.54-9.35,2.3-10.19,8.53c0,0-2.28-1.44.87-6.23,0,0-17.29-1.44-19.15,6.23s4,6.62,5.13,4.88.33-.94.33-.94-1.09,1.71-3.4-.45S68.23,153.25,71.36,152.7Z"/><circle class="cls-2" cx="88.44" cy="105.29" r="0.84"/><circle class="cls-2" cx="88.87" cy="100.43" r="1.34"/><circle class="cls-2" cx="91.15" cy="95.24" r="1.59"/><circle class="cls-2" cx="94.2" cy="90.33" r="1.98"/><circle class="cls-2" cx="98.59" cy="84.83" r="2.01"/><circle class="cls-2" cx="101.36" cy="81.73" r="1.14"/><circle class="cls-2" cx="87.7" cy="108.36" r="0.55"/><path class="cls-2" d="M88.37,128.05s6.79,2.66,5.68,9-8.81,7.49-15.92,6.55c0,0,9.54.27,12.52-5.21S88.37,128.05,88.37,128.05Z"/><path class="cls-2" d="M78,102.56a20.15,20.15,0,0,0-4.21,16.81c2.11,9.9,11.83,8.83,11.83,8.83s5.06,2.63,2.72,7.81-8.6,6.15-11.73,4.84c0,0,6.8-.7,8.56-5.41s-4.71-6-6.94-.79c0,0,2.5-2.75,5.15-1.27a16.08,16.08,0,0,0-8.18,7c-2.75,5.11-9.72,4.49-9.65,1.12,0,0,1,2.31,4.07.52s-1-7,1.66-12.82a5.25,5.25,0,0,0,1.32,5.26,6.65,6.65,0,0,0,0-6.85,8.71,8.71,0,0,1-.82-7s-8.58,11-7.07,24.08C64.66,144.59,59.78,130.24,78,102.56Z"/><circle class="cls-2" cx="63.52" cy="148.07" r="1.09"/><circle class="cls-2" cx="66.17" cy="146.11" r="1.51"/><circle class="cls-2" cx="69.37" cy="145.61" r="0.72"/><circle class="cls-2" cx="71.95" cy="145.14" r="0.57"/><circle class="cls-2" cx="74.9" cy="143.85" r="1.26"/><circle class="cls-2" cx="82.76" cy="135.27" r="0.82"/><circle class="cls-2" cx="70.32" cy="127.76" r="1.36"/><path class="cls-2" d="M80.14,99.53c-.15.2-4.42,4.74-4.62,10.72s5.24,8.58,8.29,7.61c0,0-5.26-.17-5.34-8.08S80.14,99.53,80.14,99.53Z"/><path class="cls-2" d="M195.85,148.39c.47-.47,4.44-9.7-.7-19.1a15.58,15.58,0,0,0-15-8.16s6.17.15,9.55,5.39c0,0-14.63-4.79-23,.91a28.83,28.83,0,0,1,16.17-9.87s-24.55-1.73-31.89,10.49c0,0,2.31-6.17,11.09-11.26s18.94-5.23,27.89-2,11.09,0,11.09,0-4.46,4.46-1.39,12.17S208,137.87,208,137.87s-5.55-1.19-7.24,5S195.85,148.39,195.85,148.39Z"/><path class="cls-2" d="M209.24,79.47a94.38,94.38,0,0,0-93.79-6.92c.45,0,12.67,1,17.18,12.8-1.09-4.29-2.23-11.76,1.62-15.4,5.6-5.28,23.56,6.77,21.4,29.44A80.54,80.54,0,0,0,159.89,82c1.46-10.49,8.23-11.86,14.56-9.1s6.17,20.48-17.41,38.06c0,0,11.08-3.69,22.49-16.64S200,75.58,209.24,79.47Z"/><path class="cls-2" d="M132.63,85.35c.5,1.93,1,3.25,1,3.25A19.66,19.66,0,0,0,132.63,85.35Z"/><path class="cls-2" d="M154,101c.15.28-.2-13.56-6.27-20.43s-10.86-3.3-12-.62c0,0,6.68-3.08,10.37,1.86s-8.88,7.09-13-3c0,0-.89,7.49,3.92,11.81S150.71,95.12,154,101Z"/><path class="cls-2" d="M152,113.94s-3.85-.47-4.14-5.38.14-9.25-3.85-11.7c0,0,7.17,3.22,9.55,6.77a10,10,0,0,1,1.17,7.71s-.77-4.86-3.7-5.38C151,105.93,148.38,109.78,152,113.94Z"/><path class="cls-2" d="M156.34,109.63s10.67-8.26,16.1-18,2.06-17.5-2.85-18.17c0,0,3.69,3.62,2.23,10.16s-7.57-.84-4.62-5.15c0,0-4.53-2-6.07,5s3.4,10.79,2.38,13.32-6.4,3-6.4,3S159.79,105.63,156.34,109.63Z"/><circle class="cls-2" cx="146.6" cy="134" r="0.97"/><circle class="cls-2" cx="147.56" cy="129.52" r="1.46"/><circle class="cls-2" cx="149.52" cy="123.76" r="1.96"/><circle class="cls-2" cx="153.54" cy="119.67" r="1.51"/><circle class="cls-2" cx="156.96" cy="115.93" r="1.61"/><circle class="cls-2" cx="161.77" cy="113.64" r="2.28"/><circle class="cls-2" cx="167.73" cy="109.85" r="1.93"/><path class="cls-2" d="M170.75,105.39A90.57,90.57,0,0,0,188,92.91c9.4-8.45,20.58-14.45,31-5.85,0,0-10.66-5.48-17.13,4.49,0,0,16.94-1.74,23.26,14.61,0,0-10.22-8.58-9.2,17.16,0,0-4-27.93-14.53-27.06-7.24.6-2,7.91-2,7.91S178.71,104.54,170.75,105.39Z"/><path class="cls-2" d="M171.47,109.63a18.11,18.11,0,0,1,13.76.22c7.49,3.15,18,4.89,20-2.9,0,0-3.27,5.8-12.52,1.74S172.16,105.86,171.47,109.63Z"/><path class="cls-2" d="M204.23,104.87c0,.29-5.46-1.14-4.61-4.12S204.75,98.42,204.23,104.87Z"/><path class="cls-2" d="M205.27,112.5s-6.5,5.31-1,13.35,5.6,11.92,5.6,11.92-1.34-7.91,6-9.44c0,0-8.2-.62-9.44-6.77s5-3.48,4.31.71a11.63,11.63,0,0,0,1.76-8.72c-1-5-5.75-9.65-5.75-9.65S208.47,105.34,205.27,112.5Z"/><path class="cls-2" d="M208.44,90s10-.3,17.17,7.29S231,112,231,112c6.82-3.3,12.32,9.12,4.78,11.36s-10.16,9.92-10.16,9.92c5.85-5.66,20.33-5,20.75,7.29s-6.67,13.76-6.67,13.76c8.95,1.64,7.29,12,7.29,12a4.08,4.08,0,0,1,2.88,3.15A94.45,94.45,0,0,0,220.25,88.2,15.49,15.49,0,0,0,208.44,90Z"/><path class="cls-2" d="M198.9,148.83c.2-.42,1.71-.81,3.17-4.93s7-8,14.51-4.61a5.44,5.44,0,0,0-5.88,2.77s6.6-3.89,16.86-1.24,12.55,10.89,12.13,10.59-7.71-12-19.42-8-4.83,6.82-4.83,6.82Z"/><path class="cls-2" d="M210.7,136.61s1.86-6.57,7.42-6.57C218.12,130,218.71,135.07,210.7,136.61Z"/><path class="cls-2" d="M213.8,136.61a11.19,11.19,0,0,1,10.79-1.54S221.71,139.61,213.8,136.61Z"/><path class="cls-2" d="M225.8,134.35s6.82-4.16,12.85-2a9.26,9.26,0,0,1,3.07,15.3s4.52-9.87-5.95-13.34a10,10,0,0,1,1.61,8.31s-1-4.22-4.38-6a3.8,3.8,0,0,0-5.24,1A2.61,2.61,0,0,0,225.8,134.35Z"/><path class="cls-2" d="M223,132.81c.34-.32,1.14-6.27,8-8.92s8.25-6.18,4.76-8.93-8.83.1-10.64,7.09c0,0-2.41-7.49.67-12,0,0-5.23,2.36-4.12,11.41,0,0-4.06.47-5.45,3.8,0,0,4.19-2,4.91.19s-2,7.39-2,7.39S221.81,134,223,132.81Z"/><path class="cls-2" d="M182.9,247.93a94,94,0,0,0,31.37-16c-6.92,2.08-20.33-.53-29-12.33-9.4-12.8-28.89-19.57-28.89-19.57,16.93,8,26.11,31.9,21,40.28s-15.2,4.41-15.55-5.63S157,220.92,157,220.92s1.94,14.19-4.31,22.5-15.95,5.08-14.24-2.31a38,38,0,0,0,0-15c-4.11,19.22-22.61,16.27-22.94,16.22A93.5,93.5,0,0,0,182.9,247.93Z"/><path class="cls-2" d="M149,209.12a15.89,15.89,0,0,1-4.32,13.39c-5.88,6.35-4,16.17,0,18.33,0,0-2.63-6,.37-10.17,0,0,6.55,5.56-1.53,13.57,0,0,6.54,1.53,10.49-8.93s-3.3-28.05,1-34.05a6.48,6.48,0,0,0-6.94,2.16s.89-.33,3.92,0C152,203.39,149.08,204.09,149,209.12Z"/><path class="cls-2" d="M156.34,203.54a32.53,32.53,0,0,1,17,17.11c5.36,12.8-1.39,19.64-1.39,19.64a17.46,17.46,0,0,0-4.26-18.37,13.76,13.76,0,0,1-1.84,13.69s-5.85-7-4.12-14.49-3.2-9.69-4.81-6.77C157,214.33,158.77,206.09,156.34,203.54Z"/><path class="cls-2" d="M245.69,187.57c-.22.4-4.44,7.66-11.6,6.75,0,0,4.51,3.07,1.09,9.25s-17,4.46-24.48-4.32c0,0,5,7.79,9.82,12.52s-6,15.68-21.62,6.2a34.11,34.11,0,0,0,11,7.94c7.39,3.55,4.37,6,4.37,6h0A94.66,94.66,0,0,0,245.69,187.57Z"/><path class="cls-2" d="M212.56,230.82c.32,0-19.32,2.68-26.29-18,0,0,3,5.13,7.35,7.49a21.3,21.3,0,0,1-4.47-19.39c3.08-11.53,13.91-16.37,20.11-16.47,0,0-12.82,1.86-14.65,15s6,16.35,11.7,13.47S209,202.67,209,202.67s1.24,7.39,5.3,9.35,5.06.72,5.06.72-.59,5.85-7.88,6.47-16.27-4.93-16.27-4.93S202.2,230.1,212.56,230.82Z"/><path class="cls-2" d="M210.7,184.07a12.52,12.52,0,0,1,10.89-5.45c7.36.34,13.36-2.9,13-7.62,0,0-3,5.76-10.07,3.7a6.73,6.73,0,0,0,5.46-5.28s-4.61,2.5-9.35-2.21-8.33-6.05-10.79-4.61c0,0,.75,7.61,8.24,8.83,0,0-12.13,7.09-20.66,4.73s-8.11-6.72-8.11-6.72-4.84,5.19,2.68,9.4,17.88-.2,17.88-.2S207.78,180.82,210.7,184.07Z"/><path class="cls-2" d="M212.51,171.65S203,177.6,195.85,171C195.85,171,206.66,167.48,212.51,171.65Z"/><path class="cls-2" d="M196.32,165.57s4.29,3.77,8.93,2.43C205.27,168,202.79,161.73,196.32,165.57Z"/><path class="cls-2" d="M146.57,179.09c0-.42,8.14,16.69,27,15.82,0,0-8.48,3.17-15-1.26s-.91,0-.91,0,3.84,3.72,13.09,6.34,11.09,9.73,11.09,9.73a31.27,31.27,0,0,0-11.09-7.42C164.13,199.85,147.22,199.5,146.57,179.09Z"/><path class="cls-2" d="M185.13,209.74s-1.86-7.56,0-12.4-6.17-6.17-6-1.64c0,0,2.58-2.18,4.12.43s-3.4,7.11-7.19,3-.52-12.94,7.71-11.93,11.38-.72,12.15-4.61c0,0,5.73,2.78,9.43-.72a2.88,2.88,0,0,0,2.77,1.37s-7-1.47-14.43,5.82a23.25,23.25,0,0,0-5.23,25.07A13.63,13.63,0,0,1,185.13,209.74Z"/><circle class="cls-2" cx="157.78" cy="179.88" r="0.82"/><circle class="cls-2" cx="160.19" cy="182.88" r="1.59"/><circle class="cls-2" cx="162.99" cy="186.33" r="1.22"/><circle class="cls-2" cx="166.66" cy="188.21" r="1.81"/><circle class="cls-2" cx="172.14" cy="189.38" r="1.39"/><circle class="cls-2" cx="176.18" cy="187.25" r="0.74"/><circle class="cls-2" cx="211.59" cy="197.04" r="0.89"/><circle class="cls-2" cx="214.82" cy="198.98" r="1.02"/><circle class="cls-2" cx="220.74" cy="202" r="1.56"/><circle class="cls-2" cx="226.87" cy="202.28" r="1.71"/><circle class="cls-2" cx="231.46" cy="200.37" r="1.91"/><circle class="cls-2" cx="203.66" cy="156.79" r="1.61"/><circle class="cls-2" cx="183.27" cy="211.4" r="1.44"/><circle class="cls-2" cx="167.77" cy="238.38" r="1.88"/><circle class="cls-2" cx="188.06" cy="142.91" r="1.79"/><circle class="cls-2" cx="191.16" cy="139.81" r="1.31"/><circle class="cls-2" cx="173.28" cy="127.46" r="1.14"/><circle class="cls-2" cx="177.87" cy="127.83" r="1.69"/><circle class="cls-2" cx="183.7" cy="127.66" r="1.86"/><circle class="cls-2" cx="189.77" cy="128.77" r="1.39"/><circle class="cls-2" cx="239.52" cy="143.43" r="1.26"/><circle class="cls-2" cx="218.86" cy="116.27" r="1.88"/><circle class="cls-2" cx="219.16" cy="111.04" r="1.56"/><circle class="cls-2" cx="222.08" cy="108.93" r="0.92"/><circle class="cls-2" cx="204.77" cy="131.28" r="0.5"/><circle class="cls-2" cx="169.61" cy="80.84" r="1.14"/><circle class="cls-2" cx="95.54" cy="113.89" r="1.36"/><circle class="cls-2" cx="101.61" cy="107.79" r="2.43"/><circle class="cls-2" cx="97.89" cy="203.37" r="1.71"/><circle class="cls-2" cx="104.86" cy="207.01" r="2.73"/><circle class="cls-2" cx="108.88" cy="155.48" r="1.31"/><circle class="cls-2" cx="115.2" cy="155.03" r="1.76"/><circle class="cls-2" cx="139.53" cy="268.98" r="3.57"/><circle class="cls-2" cx="156.17" cy="265.34" r="3.52"/><circle class="cls-2" cx="171.79" cy="264.35" r="2.26"/><circle class="cls-2" cx="128.3" cy="53.43" r="4.59"/><circle class="cls-2" cx="143.57" cy="51.57" r="3"/><circle class="cls-2" cx="161.13" cy="54.52" r="1.54"/><circle class="cls-2" cx="210.92" cy="248.13" r="1.61"/><circle class="cls-2" cx="225.95" cy="236" r="2.06"/><circle class="cls-2" cx="223.4" cy="69.68" r="2.98"/><circle class="cls-2" cx="233.07" cy="79.87" r="1.49"/><circle class="cls-2" cx="229.05" cy="256.73" r="3.17"/><circle class="cls-2" cx="239.17" cy="225.79" r="2.13"/><circle class="cls-2" cx="242" cy="213.14" r="0.84"/><circle class="cls-2" cx="240.41" cy="100.55" r="2.85"/><circle class="cls-2" cx="242.74" cy="91.25" r="0.74"/><circle class="cls-2" cx="97.02" cy="239.7" r="2.38"/><circle class="cls-2" cx="81.82" cy="83.32" r="2.98"/><circle class="cls-2" cx="98.78" cy="74.04" r="1.12"/><path class="cls-2" d="M191.28,59.46s-2-3.27.55-6a5.76,5.76,0,0,1,1.46-5,13,13,0,0,1,3.85-3.22s.24-6-5.09-7.39c0,0,2.06-1.37,6.1-4s7.67-5.25,13.2-1.86,8.55,14.83,8.4,15.06-4.34-9.92-6.42-10.1-1.59,1.69-.1,3.45,6,6.74,4.71,13.32c0,0-.39-6.23-4.09-8.78s-10.44-1.54-9.47-8.66a4,4,0,0,0-4.22,1.17,4.85,4.85,0,0,1,4.76-3.25c3.75.07,4.44,2.93,4.1,3.89,0,0-1.22-2.68-2.63-1.48s.77,4.06,2.8,3.19,2-5.25-1.86-7.06S198,35.65,196,38.08c0,0,4.16,2.33,3.57,6.87,0,0,4.71.67,3.92,5.16a4.28,4.28,0,0,0-4.77-2.68C195,47.9,194.31,51.6,196,53a2,2,0,0,0,3.34-1.81s-1.11,1.27-2,.18.37-3.38,2.6-2.09S204.15,54,204.15,54s-2.23-1.78-3.52-.09-.57,4.66,2.24,4.14c0,0-4.52,1.91-6.77,1.36s-2.48-2.55-1.49-3a1,1,0,0,1,1,1.64,1.55,1.55,0,0,0,1.27-1.39c0-1.16-2.31-2.28-3.47-.62s-.23,3.92,2.28,4.32c0,0-3.23,3.57-6.92,2.43,0,0,.92,4.24,7.12,6s7.14-2.85,5.73-4.06-3.28-.45-3.33.82,1.81,1.31,2.11-.25c0,0-.45,3.54-4.34,2.48s-5-3.15-5-3.15,2.35,1.73,4.16.87c0,0-.84-2.73,3.4-3.43s13.84.3,16.84-3.05c0,0-2.11,2.61-7.12,4.39s-5,3.1-3.47,3.33,5.68-2.14,7.12-4.24c0,0-4.86,9.77-14.41,8.06A17.63,17.63,0,0,1,184.69,61,17.71,17.71,0,0,0,191.28,59.46Z"/><path class="cls-2" d="M193.52,46.71l2.33-2s-1.09-4.22-6.62-5.61c0,0,3.52-5.75,13.21-9.39.05,0,.1,0,.13-.05,9.79-3.62-7.59.62-12.33,5s-5.06,4.66-6.45,4.84A1,1,0,0,0,183,41s.84-1.56,4.94-.27S193.52,46.71,193.52,46.71Z"/><path class="cls-2" d="M180.22,37.59a3.43,3.43,0,0,0,2.29-1.91c1-1.74,8.58-9.85,15.69-8.88a24.24,24.24,0,0,0-9.15,4.81c-4.21,3.65-4.64,7.24-4.64,7.24A7.26,7.26,0,0,1,180.22,37.59Z"/><path class="cls-2" d="M177.67,34.07a4,4,0,0,0,3.2-1.47c1.06-1.51,5.83-8.55,11.46-8.63,0,0-5.73,3.57-7.89,6.55a20.67,20.67,0,0,0-2.83,5A5.56,5.56,0,0,1,177.67,34.07Z"/><path class="cls-2" d="M176,31.41a3.56,3.56,0,0,0,1.91-.92c.67-.74,3.28-7.26,8.68-8.92,0,0-4.11,5.45-5.4,7.73a23.91,23.91,0,0,0-1.59,3.15A3.35,3.35,0,0,1,176,31.41Z"/><path class="cls-2" d="M189.42,58.59,188,57.38a10.31,10.31,0,0,1-9.47-3.55s3.22,10.59,8.58,12.77c0,0-3-1.26-5.16-8.21C181.93,58.39,186.87,59.76,189.42,58.59Z"/><path class="cls-2" d="M181.59,63.5a13.48,13.48,0,0,1-3-5.26c-1.09-3.42-.22-4-.22-4l-2.68-2.09S176.48,60.58,181.59,63.5Z"/><path class="cls-2" d="M176.55,59.09c.2.2-1.31-3.6-1.34-6.52l-1.86-1.64S174.27,56.76,176.55,59.09Z"/><path class="cls-2" d="M173.63,56.76c.1.17-1.29-4.44-1-6.55l-1.27-1.07A22.38,22.38,0,0,0,173.63,56.76Z"/><path class="cls-2" d="M186.13,57a3.35,3.35,0,0,1-.65-2.85,3.86,3.86,0,0,1,1.46-2.55,7.15,7.15,0,0,1,1.1-4.51,3.73,3.73,0,0,1,3.32-1.86s-2.78,2.8-3,4.61a2.41,2.41,0,0,0,1.44,2.45l-.5,1.29a1.52,1.52,0,0,0-2.18-.52C185.83,54,186.13,57,186.13,57Z"/><path class="cls-2" d="M183,55.52a3.51,3.51,0,0,1-2.24-3.4c.25-2.43,1.67-3,1.67-3a4.21,4.21,0,0,1,.91-3.94c1.64-2,4.69-1.39,4.69-1.39s-2.7.67-3.74,2.61-.45,2.65-.45,2.65l1.34.15-1,3.12s-.4-1.58-1.54-1.41S182,54.48,183,55.52Z"/><path class="cls-2" d="M178.54,52.49c.07.13-2.76-1.59-2.53-3.62a3.35,3.35,0,0,1,1.61-2.7s-.62-1.22,1-2.76,4.59-.54,4.59-.54-1.34-.79-2.88.84-1.44,2.63-1.44,2.63l1.64,0-.79,2.9-1.94-1.12S176.43,49.56,178.54,52.49Z"/><path class="cls-2" d="M174.57,48.47a4,4,0,0,1-1.34-4.29c.72-2.82,4.66-1.91,4.66-1.91s-1.93.4-2.5,1.42,1.16.49.52,1.54-.57-.15-1.29.54S174.57,48.47,174.57,48.47Z"/><path class="cls-2" d="M172.21,45.42s-1.86,1.76-3.84-.69a1.11,1.11,0,0,0,1.76-.6c.62-1.41-3.15-.57-4.17-4.14a8,8,0,0,0-5.82-6s2.13.64,1.16-3.13-5.4-11.21-10.79-12.77c0,0,4.44-.89,8,3.87S163,31,166,36.05s5.68,6,5.68,6Z"/><path class="cls-2" d="M176.23,40.49a8.7,8.7,0,0,1-4.16.57A23.42,23.42,0,0,1,165.22,32c-2.73-6.15-6.6-13.41-12-15.6s-13-.34-16.44,7.3-.92,12.57,1.83,15,4.56,1.51,5.38-.25-1.66-3.6-2.6-1.71c0,0,.77-.5,1.26.67S141,39.25,139.28,37s-5-9.33,3-17.36c0,0-5.31,6.89-.84,14.23,0,0,4.78-1.56,11.08,2.43s8.76,14,8.76,14-3-8.73-7.62-10.69-5.65-.1-4.71,1.19,8.61,1.27,9.92,6.15c0,0-1.19-2.5-6.72-3.32s-10.36.35-15-1.94-10-9.82-5.38-20.78c0,0-2.23,7.14,2.48,13.24A17,17,0,0,1,135,21.67c3.05-6.85,13.39-6.92,14.73-9.53A16,16,0,0,0,155,15.67a17.67,17.67,0,0,0,6.5,1.63,18.2,18.2,0,0,0,1.58,7.07,4.2,4.2,0,0,0,4.32,2.55s-1.24,5.56.77,7.39,4,1.37,4.61,3.48S175,39.65,175.14,39a.8.8,0,0,0-.2-.87s2.56,1.24,1.19,2.58"/><path class="cls-2" d="M80.21,231.09s1.09,3.7-2.13,5.66a5.71,5.71,0,0,1-2.73,4.44,13.35,13.35,0,0,1-4.56,2.08S69,249,73.71,251.72c0,0-2.35.77-6.94,2.24s-8.8,3-13.22-1.71-4.31-16.57-4.09-16.77S51,246.19,53,246.91s2-1.21,1-3.27-4-8.11-1-14.09c0,0-1.26,6.1,1.61,9.58s9.65,4.26,6.85,10.86a4,4,0,0,0,4.36,0,4.84,4.84,0,0,1-5.45,1.86c-3.6-1.07-3.52-4-2.9-4.84,0,0,.47,2.9,2.13,2.14s.34-4.12-1.86-3.82-3.37,4.53-.08,7.29,9.82-.33,12.35-2.16c0,0-3.39-3.35-1.61-7.56,0,0-4.36-1.91-2.4-6a4.26,4.26,0,0,0,3.89,3.85c3.72.52,5.36-2.83,4.09-4.61a2,2,0,0,0-3.69.84s1.41-.92,2,.37-1.26,3.15-3.07,1.32S66.35,233,66.35,233s1.68,2.31,3.37,1,1.79-4.34-1.07-4.59c0,0,4.86-.64,6.9.5s1.71,3.12.62,3.29a1,1,0,0,1-.5-1.83,1.54,1.54,0,0,0-1.58,1c-.35,1.11,1.61,2.82,3.17,1.51s1.26-3.7-1.07-4.76c0,0,4-2.61,7.32-.5,0,0,.25-4.34-5.28-7.66s-7.64.84-6.6,2.4,3.05,1.29,3.42.08-1.41-1.76-2.11-.32c0,0,1.37-3.3,4.84-1.24s4,4.36,4,4.36S79.94,224,78,224.35c0,0,.1,2.85-4.19,2.38s-13.27-4-17-1.52c0,0,2.73-2,8-2.33s5.65-1.66,4.24-2.28-6,.55-8,2.21c0,0,7.27-8.13,16.05-3.94A17.6,17.6,0,0,1,87,231.41,18.09,18.09,0,0,0,80.21,231.09Z"/><path class="cls-2" d="M74.66,242.77l-2.78,1.29s-.08,4.34,4.91,7.14c0,0-4.94,4.62-15.25,5.56h-.15c-10.42.89,7.46,1.41,13.22-1.54s6.1-3.15,7.49-2.95,1.19-1.19,1.19-1.19-1.22,1.29-4.84-1S74.66,242.77,74.66,242.77Z"/><path class="cls-2" d="M85.05,255.12a3.41,3.41,0,0,0-2.71,1.22c-1.44,1.41-10.88,7.21-17.5,4.39A24.53,24.53,0,0,0,75,258.52c5-2.38,6.4-5.75,6.4-5.75A7.24,7.24,0,0,1,85.05,255.12Z"/><path class="cls-2" d="M86.61,259.19a4,4,0,0,0-3.47.54c-1.44,1.19-7.89,6.73-13.32,5.29,0,0,6.47-1.94,9.35-4.22a20.38,20.38,0,0,0,4-4.07A5.65,5.65,0,0,1,86.61,259.19Z"/><path class="cls-2" d="M87.5,262.19a3.54,3.54,0,0,0-2.08.37c-.85.52-5.09,6.13-10.74,6.3,0,0,5.43-4.17,7.27-6a17.62,17.62,0,0,0,2.35-2.62A3.43,3.43,0,0,1,87.5,262.19Z"/><path class="cls-2" d="M81.77,232.43l1,1.56A10.27,10.27,0,0,1,91,239.92s-.3-11.08-4.86-14.61c0,0,2.53,2,2.8,9.28C88.94,234.59,84.55,232,81.77,232.43Z"/><path class="cls-2" d="M90.63,229.78a13.68,13.68,0,0,1,1.48,5.85c.15,3.57-.86,3.94-.86,3.94l2,2.73S94.77,233.94,90.63,229.78Z"/><path class="cls-2" d="M94.32,235.36c-.12-.23.3,3.82-.42,6.64l1.36,2.06S95.88,238.21,94.32,235.36Z"/><path class="cls-2" d="M96.5,238.38c0-.2.08,4.62-.77,6.57l1,1.37A22.09,22.09,0,0,0,96.5,238.38Z"/><path class="cls-2" d="M84.55,234.84a3.49,3.49,0,0,1-.12,2.92,4,4,0,0,1-2.09,2.09,7.2,7.2,0,0,1-2.25,4.06,3.76,3.76,0,0,1-3.7.92s3.42-2,4.09-3.64a2.44,2.44,0,0,0-.74-2.76l.82-1.11a1.49,1.49,0,0,0,2,1.06C84,237.86,84.55,234.84,84.55,234.84Z"/><path class="cls-2" d="M87.13,237.09A3.54,3.54,0,0,1,88.39,241c-.86,2.28-2.4,2.43-2.4,2.43a4.19,4.19,0,0,1-1.94,3.55c-2.1,1.49-4.88.1-4.88.1s2.8.07,4.29-1.52,1.14-2.43,1.14-2.43l-1.24-.49,1.81-2.73s0,1.64,1.12,1.79S87.85,238.38,87.13,237.09Z"/><path class="cls-2" d="M90.65,241.21c-.05-.15,2.23,2.26,1.49,4.17a3.32,3.32,0,0,1-2.26,2.18s.27,1.34-1.73,2.38-4.57-.7-4.57-.7,1.07,1.12,3,0S88.67,247,88.67,247l-1.59-.42L88.62,244l1.56,1.58S91.92,244.56,90.65,241.21Z"/><path class="cls-2" d="M93.4,246.12a4,4,0,0,1,.15,4.51c-1.44,2.56-5,.6-5,.6s2,.12,2.8-.7-1-.76-.07-1.63.49.27,1.38-.18S93.4,246.12,93.4,246.12Z"/><path class="cls-2" d="M94.87,249.69s2.25-1.21,3.49,1.69a1.11,1.11,0,0,0-1.86.12c-1,1.19,2.88,1.39,2.9,5.11a8.07,8.07,0,0,0,4,7.37s-1.88-1.2-2,2.7,2.26,12.25,7,15.18c0,0-4.51-.3-6.65-5.86s-2-9.94-3.49-15.6-3.87-7.31-3.87-7.31Z"/><path class="cls-2" d="M89.68,253.39a8.72,8.72,0,0,1,4.17.57A23.25,23.25,0,0,1,98,264.52c1,6.65,2.8,14.71,7.44,18.23s12.45,3.77,17.81-2.66,4.21-11.87,2.18-14.9-4-2.68-5.26-1.19.65,3.89,2.06,2.36c0,0-.89.27-1-1s2.06-1.41,3.15,1.27,2.33,10.31-7.52,15.94c0,0,7-5.23,4.59-13.49,0,0-5,.25-10-5.28S106.7,248,106.7,248s.57,9.2,4.48,12.32,5.43,1.59,4.86.1-8-3.5-7.93-8.56c0,0,.47,2.73,5.6,5s10.1,2.4,14,5.85,7,12.15-.35,21.48c0,0,4-6.28,1.11-13.42a16.82,16.82,0,0,1-4,11.85c-4.76,5.78-14.75,3.1-16.71,5.29a15.7,15.7,0,0,0-4.22-4.81,17.55,17.55,0,0,0-5.83-3.3,18,18,0,0,0,.35-7.22,4.19,4.19,0,0,0-3.47-3.62s2.68-5,1.21-7.34-3.52-2.38-3.54-4.56-1.61-2.36-1.94-1.79,0,.89,0,.89-2.13-1.86-.47-2.8"/></svg>