<svg id="Calque_1" data-name="Calque 1" xmlns="http://www.w3.org/2000/svg" viewBox="0 0 300 300"><defs><style>.cls-1{fill:#a9add7;}.cls-2{fill:#e5126b;}.cls-3{fill:#1a1a1b;}.cls-4{fill:#692a7c;}.cls-5{fill:#ef5225;}.cls-6{fill:#69cade;}.cls-7{fill:#f072ab;}.cls-8{fill:#5361ab;}.cls-9{fill:#f7981d;}.cls-10{fill:#fde471;}.cls-11{fill:#134a9b;}.cls-12{fill:#fff;}.cls-13{fill:#9e5ea5;}.cls-14{fill:#991c1f;}.cls-15{fill:#aa815b;}.cls-16{fill:#5b442f;}.cls-17{fill:#8a6848;}.cls-18{fill:#5c276f;}.cls-19{fill:#010101;}.cls-20{fill:#3e6db4;}.cls-21{fill:#979dce;}.cls-22{fill:#069046;}.cls-23{fill:#fdd301;}.cls-24{fill:#81c241;}</style></defs><title>y_Plan de travail 12</title><path class="cls-1" d="M238.71,135.41c-3.51-3.6-8.65-6-9.7-11.34-.75-3.86,1-7.69,2.39-11.28s2.44-8.07.52-11.3c-3.4-5.72-12.19-1.78-16-7.1-3.46-4.81.07-12.93-2.72-18.32a8.06,8.06,0,0,0-7-4.2c-2.72-.08-5.37.9-8,1.87a51.14,51.14,0,0,1-47.68-4.39l-.05-.69L150,69l-.5-.33-.05.69a51.14,51.14,0,0,1-47.68,4.39c-2.59-1-5.24-1.95-8-1.87a8.06,8.06,0,0,0-7,4.2c-2.79,5.39.74,13.51-2.72,18.32-3.83,5.32-12.62,1.38-16,7.1-1.92,3.23-.88,7.71.52,11.3s3.14,7.42,2.39,11.28c-1,5.38-6.19,7.74-9.7,11.34-6.41,6.56-7.24,19.5-1.74,27.15,2.18,3,5.6,5.29,8.8,4.17,3.48-1.23,6.42-6.17,9.78-4.56,1.87.9,2.72,3.54,2.79,5.94s-.43,4.79-.3,7.19,1.16,5,3.09,5.67,4.27-2,3.21-4.05c2-2.63,5.78-1.88,7.86.59s2.89,6.07,3.6,9.48a26.27,26.27,0,0,1,.83,8.68c-.37,2.9-2,5.78-4.37,6.43-1.91.52-3.88-.45-5.85-.5-2.92-.07-5.81,2.1-7,5.3a10.64,10.64,0,0,0,1.33,9.78c2.85,3.67,7.55,3.87,11.72,4.26s9,1.84,10.61,6.47-.83,10,.71,14.47c1.15,3.37,4.11,5.21,6.55,7.39,4.19,3.75,7.2,9.08,11.14,13.2s9.57,7,14.38,4.55c-1.12-1.8.07-4.63,1.86-5.32s3.75.2,5.28,1.5,2.81,3,4.37,4.26l.07-.11.07.11c1.56-1.25,2.84-3,4.37-4.26s3.49-2.2,5.28-1.5,3,3.52,1.86,5.32c4.81,2.47,10.45-.43,14.38-4.55s6.95-9.45,11.14-13.2c2.44-2.18,5.4-4,6.55-7.39,1.54-4.52-.85-9.95.71-14.47s6.43-6.08,10.61-6.47,8.87-.59,11.72-4.26A10.62,10.62,0,0,0,218,206.9c-1.2-3.2-4.09-5.37-7-5.3-2,.05-3.94,1-5.85.5-2.39-.65-4-3.53-4.37-6.43a26.27,26.27,0,0,1,.83-8.68c.71-3.41,1.51-7,3.6-9.48s5.91-3.22,7.86-.59c-1.06,2,1.28,4.72,3.21,4.05s3-3.27,3.09-5.67-.37-4.79-.3-7.19.92-5,2.79-5.94c3.36-1.61,6.3,3.33,9.78,4.56,3.2,1.12,6.62-1.14,8.8-4.17C246,154.91,245.12,142,238.71,135.41Z"/><path class="cls-2" d="M128.75,269.74a4.44,4.44,0,0,0,4.63,1.15,4.74,4.74,0,0,1-.43-1.65,1.53,1.53,0,0,1,.67-1.42c.56-.26,1.16.19,1.68.55a7.12,7.12,0,0,0,4.86,1.25,1.54,1.54,0,0,0,.91-.35,1.84,1.84,0,0,0,.29-1.88,5.9,5.9,0,0,0-1-1.65,15.6,15.6,0,0,1-2.18-4.12,4,4,0,0,1-.31-1.56,1.45,1.45,0,0,1,.7-1.27c.75-.32,1.43.58,1.86,1.37l2,3.57a5.83,5.83,0,0,0,.27-5.39,5.07,5.07,0,0,0-3.88-2.95A5.69,5.69,0,0,0,134.3,257a44,44,0,0,0-3,3.62c-1,1.18-2.32,2.18-3.74,2.07-.78-.06-1.63-.44-2.31,0-.93.63-.82,2.3-.31,3.42s1.29,2.15,1.34,3.42Z"/><path class="cls-3" d="M132,271.49a4.86,4.86,0,0,1-3.44-1.47.42.42,0,0,1,0-.52.27.27,0,0,1,.43,0,4.19,4.19,0,0,0,4,1.18,4.41,4.41,0,0,1-.3-1.39,1.91,1.91,0,0,1,.87-1.77c.67-.31,1.34.15,1.87.52l.07.05a6.8,6.8,0,0,0,4.68,1.2,1.32,1.32,0,0,0,.76-.27,1.5,1.5,0,0,0,.19-1.45,5.06,5.06,0,0,0-.8-1.33l-.16-.22a15.77,15.77,0,0,1-2.24-4.22,4.47,4.47,0,0,1-.33-1.72,1.81,1.81,0,0,1,.91-1.6c.51-.22,1.31-.13,2.22,1.52l1.71,3.1a5.53,5.53,0,0,0,0-4.54,4.73,4.73,0,0,0-3.64-2.76,5.39,5.39,0,0,0-4.25,1.56,15.5,15.5,0,0,0-1.82,2.15c-.36.48-.73,1-1.12,1.44-.91,1.06-2.34,2.3-4,2.18-.24,0-.47-.06-.7-.1a1.93,1.93,0,0,0-1.45.07c-.72.48-.66,1.9-.19,2.93.13.29.29.6.45.89a6.13,6.13,0,0,1,.93,2.68.34.34,0,0,1-.29.38.32.32,0,0,1-.32-.34,5.67,5.67,0,0,0-.84-2.33c-.16-.3-.33-.61-.47-.94-.62-1.36-.63-3.2.42-3.91a2.33,2.33,0,0,1,1.86-.16,5,5,0,0,0,.63.09c1.41.11,2.69-1,3.51-2,.38-.44.74-.92,1.09-1.39a17.13,17.13,0,0,1,1.9-2.25A6,6,0,0,1,138.8,255a5.37,5.37,0,0,1,4.12,3.13,6.31,6.31,0,0,1-.29,5.79.3.3,0,0,1-.26.14.3.3,0,0,1-.25-.16l-2-3.57c-.31-.56-.92-1.48-1.51-1.23a1.13,1.13,0,0,0-.49.95,3.59,3.59,0,0,0,.28,1.39,15.21,15.21,0,0,0,2.13,4l.15.21a5.48,5.48,0,0,1,.92,1.54,2.28,2.28,0,0,1-.39,2.31,1.79,1.79,0,0,1-1.07.42,7.35,7.35,0,0,1-5.05-1.3l-.07-.05c-.46-.32-.94-.65-1.33-.47a1.19,1.19,0,0,0-.48,1.07,4.69,4.69,0,0,0,.39,1.5.47.47,0,0,1,0,.31.36.36,0,0,1-.2.2A4.33,4.33,0,0,1,132,271.49Z"/><path class="cls-4" d="M109.81,185.14c-1,6.39-6,11.58-11.38,11.92l7.1,1.94a10.87,10.87,0,0,1-2.43,9.12c-2,2.39-4.56,3.86-7.09,5.28l9.55-.9a8.22,8.22,0,0,0-1.46,6.36l4.5-2a30.53,30.53,0,0,0,2,12.14,6.73,6.73,0,0,1,2.75-3.6c.89,4.43,3.94,7.71,5.72,11.73a9.24,9.24,0,0,1,.88,3.37,7.35,7.35,0,0,1-2.24,5.26,16.3,16.3,0,0,1-4.48,2.9,13.3,13.3,0,0,0,7.71-3.19,21.72,21.72,0,0,1-3,8.91,19.86,19.86,0,0,0,7.88-9.78,16.29,16.29,0,0,0,7,8,26.52,26.52,0,0,1-1.7-7.53l3,3.11v-2.83a17.7,17.7,0,0,0,11,1.41,28.29,28.29,0,0,1-13.28-10.34,8.49,8.49,0,0,0,5.54-.21c-5.63-.58-10.54-6.51-11-13.25a10.58,10.58,0,0,0,4.93,1c-4.88-9.23-4.5-22,.92-30.81-2.63-.06-5-2.1-6.48-4.71a25.9,25.9,0,0,1-2.56-8.82c-.4-2.81-1-6.17-3.19-7.2-1.57-.72-3.36.11-4.7,1.32a13.54,13.54,0,0,0-4.16,8.66Z"/><path class="cls-3" d="M118,254.79a.28.28,0,0,1-.23-.12.43.43,0,0,1,0-.46,21.18,21.18,0,0,0,2.81-7.92,13.55,13.55,0,0,1-7.3,2.79.31.31,0,0,1-.31-.29.39.39,0,0,1,.18-.42,15.85,15.85,0,0,0,4.4-2.84,7,7,0,0,0,2.13-5,9.1,9.1,0,0,0-.84-3.21,39.53,39.53,0,0,0-2.35-4.29,25.32,25.32,0,0,1-3.3-7.05,6.58,6.58,0,0,0-2.27,3.17.29.29,0,0,1-.27.23.32.32,0,0,1-.29-.21,31.11,31.11,0,0,1-2-11.76l-4.07,1.77a.25.25,0,0,1-.25,0,.36.36,0,0,1-.15-.25,8.83,8.83,0,0,1,1.06-6l-8.83.83a.31.31,0,0,1-.32-.27.37.37,0,0,1,.17-.42c2.48-1.4,5.05-2.84,7-5.2a10.61,10.61,0,0,0,2.4-8.56l-6.92-1.89a.38.38,0,0,1-.24-.39.34.34,0,0,1,.29-.34c5.26-.33,10.14-5.44,11.1-11.62a.31.31,0,0,1,.36-.29.36.36,0,0,1,.24.42c-.9,5.83-5.11,10.74-10,12l5.44,1.49a.34.34,0,0,1,.23.26,11.27,11.27,0,0,1-2.51,9.48,20.47,20.47,0,0,1-5.68,4.5l7.89-.75a.32.32,0,0,1,.31.21.43.43,0,0,1-.06.41,7.79,7.79,0,0,0-1.45,5.62l4.16-1.81a.28.28,0,0,1,.29.05.4.4,0,0,1,.12.32,30.45,30.45,0,0,0,1.71,11.24,6.9,6.9,0,0,1,2.6-3,.26.26,0,0,1,.27,0,.35.35,0,0,1,.17.25,22.78,22.78,0,0,0,3.3,7.26,40,40,0,0,1,2.39,4.38,9.7,9.7,0,0,1,.91,3.53,7.78,7.78,0,0,1-2.34,5.55A12.28,12.28,0,0,1,115.3,248a13.49,13.49,0,0,0,5.47-2.81.26.26,0,0,1,.33,0,.38.38,0,0,1,.15.36,22.6,22.6,0,0,1-2.3,7.8,19.79,19.79,0,0,0,6.63-8.86.33.33,0,0,1,.28-.22.35.35,0,0,1,.28.21,16.08,16.08,0,0,0,6.07,7.4,26.51,26.51,0,0,1-1.38-6.71.39.39,0,0,1,.16-.37.29.29,0,0,1,.34.05l2.52,2.59v-2a.37.37,0,0,1,.14-.3.26.26,0,0,1,.28,0,17.48,17.48,0,0,0,9.48,1.6,29.1,29.1,0,0,1-12.12-10,.41.41,0,0,1,0-.43.28.28,0,0,1,.34-.16,8.22,8.22,0,0,0,3.88.21c-5.09-1.42-9.3-7-9.69-13.29a.4.4,0,0,1,.12-.32.25.25,0,0,1,.29-.05,10.31,10.31,0,0,0,4.27.94,33,33,0,0,1,.89-30.12c-2.34-.3-4.6-2.06-6.15-4.83a26,26,0,0,1-2.61-9c-.43-3-1-6-3-6.91-1.79-.83-3.68.61-4.41,1.26a13.24,13.24,0,0,0-4,8.41.31.31,0,0,1-.34.32.36.36,0,0,1-.27-.4,14.06,14.06,0,0,1,4.28-8.92c.81-.72,2.92-2.32,5-1.36,2.48,1.14,3,4.95,3.39,7.47a25.34,25.34,0,0,0,2.51,8.69c1.54,2.75,3.92,4.49,6.22,4.55a.3.3,0,0,1,.27.2.42.42,0,0,1,0,.38c-5.38,8.73-5.75,21.23-.9,30.39a.43.43,0,0,1,0,.37.31.31,0,0,1-.26.2,11,11,0,0,1-4.58-.78c.65,6.31,5.32,11.79,10.64,12.34a.33.33,0,0,1,.28.32.36.36,0,0,1-.21.39,8.84,8.84,0,0,1-4.8.44,27.91,27.91,0,0,0,12.53,9.41.37.37,0,0,1,.22.38.36.36,0,0,1-.26.34A17.93,17.93,0,0,1,134.46,246v2.29a.35.35,0,0,1-.17.33.27.27,0,0,1-.33-.05l-2.44-2.5a25.72,25.72,0,0,0,1.59,6.48.45.45,0,0,1-.06.42.27.27,0,0,1-.35.07,16.36,16.36,0,0,1-6.83-7.54,19.91,19.91,0,0,1-7.75,9.29A.23.23,0,0,1,118,254.79Z"/><path class="cls-3" d="M130.39,237.11a3.13,3.13,0,0,1-4.67.3,2.64,2.64,0,0,1-.23,2,5.56,5.56,0,0,1-1.26,1.46,28.84,28.84,0,0,1-5.27,3.76,13.57,13.57,0,0,0,4.58-1.2,21.71,21.71,0,0,0-2.85,8.53c2.13-2.2,3.59-5.48,6.21-6.69,2-.93,4.28-.41,6.39.17s4.33,1.17,6.39.39A37.37,37.37,0,0,1,130.39,237.11Z"/><path class="cls-3" d="M119.71,207.65a103.27,103.27,0,0,1,2.88,17.3l1.13-4.54a20.72,20.72,0,0,0,2.32,9.31,22.28,22.28,0,0,1,.36-9.75l4.06,2a55.37,55.37,0,0,1,3.29-33,3,3,0,0,1-3.32,0,9.07,9.07,0,0,1-2.61-2.69,40.63,40.63,0,0,1-6.56-15.8,21.21,21.21,0,0,0-9.59,11,26.93,26.93,0,0,0-1.23,15.8,8.33,8.33,0,0,1,1.33-4.92,23.93,23.93,0,0,0,2.47,13.5l.07-3.91a25,25,0,0,0,5.74,11.54Z"/><path class="cls-5" d="M131,265.67a6.35,6.35,0,0,0,6.71,2.78,2.6,2.6,0,0,0,1.89-1.48,4.37,4.37,0,0,0-.31-3c-1.25-3.45-2.61-6.85-4.07-10.17.62,1.21,1.1,2.52,1.78,3.68a5.17,5.17,0,0,0,2.76,2.54,2.51,2.51,0,0,0,3-1.57c.54-1.55-.33-3.24-1.15-4.6l-4.48-7.35a27.42,27.42,0,0,0-3.51-4.91,7.3,7.3,0,0,0-4.88-2.47c-2.77,0-5.24,2.3-6.66,5.14-2.25,4.53-2.31,10.09-2.3,15.36a5.52,5.52,0,0,0,.72,3.37c.69.88,1.8,1,2.67,1.6,1.92,1.33,2.42,4.73,4.47,5.73,1.71.83,3.9-.89,3.94-3.1Z"/><path class="cls-3" d="M128.61,270.92h0a2.38,2.38,0,0,1-1.05-.24A6.72,6.72,0,0,1,125,267.6a7.43,7.43,0,0,0-2-2.67,6.4,6.4,0,0,0-1-.52,4.05,4.05,0,0,1-1.73-1.15,5.84,5.84,0,0,1-.8-3.62c0-4.81,0-10.8,2.35-15.55,1.28-2.57,3.75-5.32,6.84-5.32h.08a7.66,7.66,0,0,1,5.08,2.56,27.56,27.56,0,0,1,3.56,5l4.48,7.35c.91,1.51,1.77,3.28,1.18,5a2.81,2.81,0,0,1-2.64,1.88,2.46,2.46,0,0,1-.72-.1,4.23,4.23,0,0,1-1.91-1.25q.93,2.34,1.79,4.7a4.72,4.72,0,0,1,.31,3.28,3,3,0,0,1-2.1,1.69,6,6,0,0,1-1.46.18,6.6,6.6,0,0,1-4.43-1.78v0A3.65,3.65,0,0,1,128.61,270.92Zm.09-31.41c-2.83,0-5.12,2.56-6.31,5-2.27,4.57-2.27,10.45-2.27,15.17a5.12,5.12,0,0,0,.64,3.12,3.59,3.59,0,0,0,1.49,1,5.89,5.89,0,0,1,1.11.58,8,8,0,0,1,2.19,2.9,6.14,6.14,0,0,0,2.24,2.8,1.92,1.92,0,0,0,.82.18,3,3,0,0,0,2.7-2.87l-.56-1.49a.41.41,0,0,1,.12-.46.28.28,0,0,1,.4.08,6.25,6.25,0,0,0,5.08,2.82,5.25,5.25,0,0,0,1.32-.17,2.31,2.31,0,0,0,1.68-1.28,4.05,4.05,0,0,0-.32-2.68c-1.24-3.42-2.6-6.84-4.05-10.14a.4.4,0,0,1,.12-.49.28.28,0,0,1,.41.12c.26.51.5,1,.73,1.56a21.74,21.74,0,0,0,1,2.11,5,5,0,0,0,2.58,2.39,2.25,2.25,0,0,0,.58.08,2.18,2.18,0,0,0,2.07-1.43c.48-1.35-.29-2.9-1.11-4.24l-4.48-7.36a27,27,0,0,0-3.46-4.84,7,7,0,0,0-4.69-2.38Z"/><path class="cls-3" d="M124.74,267a.3.3,0,0,1-.26-.17,21.27,21.27,0,0,1-2.5-11.36.33.33,0,0,1,.33-.34.34.34,0,0,1,.28.39,20.6,20.6,0,0,0,2.4,10.91.4.4,0,0,1-.09.51A.27.27,0,0,1,124.74,267Z"/><path class="cls-6" d="M103,211.31a27,27,0,0,0,6.57-11.6,17.72,17.72,0,0,1-1.36,7.52C107.11,209.49,105.15,211.27,103,211.31Z"/><path class="cls-6" d="M111.59,208.76c-.58,3.12-2.85,5.68-5.49,6.2A12.43,12.43,0,0,1,111.59,208.76Z"/><path class="cls-7" d="M116.93,212.73a10.36,10.36,0,0,1-.7,7.15,7.5,7.5,0,0,1-5,4.07,10.62,10.62,0,0,1,1.61-6.4A25.56,25.56,0,0,1,116.93,212.73Z"/><path class="cls-8" d="M117.07,225.87a4.69,4.69,0,0,0,2,5.1A6.15,6.15,0,0,0,117.07,225.87Z"/><path class="cls-8" d="M123.71,235a11.33,11.33,0,0,0-3.1-7.34,15.69,15.69,0,0,0,.5,4.4A4.11,4.11,0,0,0,123.71,235Z"/><path class="cls-8" d="M122.6,238.24a6,6,0,0,0-2.4-3.52,7.53,7.53,0,0,0,1.18,4.47c.21.32.52.64.85.55S122.74,238.8,122.6,238.24Z"/><path class="cls-8" d="M132,234.22a7.4,7.4,0,0,1-3.89.27,3.44,3.44,0,0,1-2.44-3.24A21.26,21.26,0,0,0,132,234.22Z"/><path class="cls-7" d="M118.82,217a4,4,0,0,0,.16,4,4.82,4.82,0,0,0,.68-3.72c-.06-.28-.21-.6-.45-.59S118.91,216.79,118.82,217Z"/><path class="cls-7" d="M118,220.81a9.11,9.11,0,0,0-.07,3.29c.25,1.06,1,2,2,2A9.26,9.26,0,0,0,118,220.81Z"/><path class="cls-9" d="M127.74,267.34l-4-8.26c-.1,3.19,1.25,6.18,2.68,8.89a2.38,2.38,0,0,0,.6.81.58.58,0,0,0,.83-.08C128.14,268.34,127.94,267.77,127.74,267.34Z"/><path class="cls-9" d="M136.78,266.18a1.36,1.36,0,0,0-.48-.9,38.45,38.45,0,0,1-8.61-15,28.38,28.38,0,0,0,2.73,12.84,9.42,9.42,0,0,0,2.3,3.25,3.25,3.25,0,0,0,3.4.65A1,1,0,0,0,136.78,266.18Z"/><path class="cls-9" d="M141.39,258.66c.31-.58-.09-1.33-.48-1.86l-6.44-8.67a44.25,44.25,0,0,0,1.87,5.74,12.55,12.55,0,0,0,3.26,4.7,2.07,2.07,0,0,0,.9.5A.83.83,0,0,0,141.39,258.66Z"/><path class="cls-9" d="M121.39,252.13a19.75,19.75,0,0,1,6.75-10.82c-2.09-.25-4.08,1.43-5.15,3.59A20,20,0,0,0,121.39,252.13Z"/><path class="cls-9" d="M121.6,262.22a22,22,0,0,1-.86-4.2,8.27,8.27,0,0,0-.18,2.32A2.44,2.44,0,0,0,121.6,262.22Z"/><path class="cls-10" d="M136,263.08a3.28,3.28,0,0,0-1.57-.24,2,2,0,0,0-1.66,2.59A2.14,2.14,0,0,0,134,266.6a4.38,4.38,0,0,0,2.52.28,1.2,1.2,0,0,0,1-.6,1.63,1.63,0,0,0-.24-1.5C136.74,264,136.73,263.36,136,263.08Z"/><path class="cls-10" d="M131.87,258.19a2.51,2.51,0,0,0-1.44,1.4.92.92,0,0,0,0,.71c.2.35.64.26,1,.1.53-.26,1-.6,1.55-.86a2.59,2.59,0,0,1,1.67-.28,1.54,1.54,0,0,0-1.12-1.31A2.42,2.42,0,0,0,131.87,258.19Z"/><path class="cls-10" d="M126.66,259.87a1.93,1.93,0,0,0-2,.89,1.2,1.2,0,0,0-.22.56.61.61,0,0,0,.2.54.57.57,0,0,0,.54,0,3.4,3.4,0,0,0,1.68-1.57C126.58,260.28,126.92,259.93,126.66,259.87Z"/><path class="cls-10" d="M126.56,264.25a1.63,1.63,0,0,0-.87,1.42,2.28,2.28,0,0,0,.68,1.32l.89,1a1,1,0,0,0,.43.35.86.86,0,0,0,.67-.23l1.48-1a.94.94,0,0,0,.44-.5,1.19,1.19,0,0,0,0-.59,3.05,3.05,0,0,0-1.51-1.87A2.29,2.29,0,0,0,126.56,264.25Z"/><path class="cls-10" d="M141.19,255.56a3.17,3.17,0,0,0-1.39.59,1.55,1.55,0,0,0-.48,1.54,1,1,0,0,0,1.15.66,1.48,1.48,0,0,0,.91-1.17A2.81,2.81,0,0,0,141.19,255.56Z"/><path class="cls-10" d="M132.15,244.08a.68.68,0,0,0,.76-.05.76.76,0,0,0,.14-.66,1.54,1.54,0,0,0-.29-.62,3.61,3.61,0,0,0-2.81-1.59A4,4,0,0,0,132.15,244.08Z"/><path class="cls-10" d="M130,256.75a1.7,1.7,0,0,0-.42.68.87.87,0,0,0,.14.79,4.84,4.84,0,0,1,3.51-1.52.82.82,0,0,0-.3-.83,1.18,1.18,0,0,0-.8-.18A3.21,3.21,0,0,0,130,256.75Z"/><path class="cls-10" d="M125.05,258.45a2.08,2.08,0,0,0-.9,1c-.11.28-.13.71.12.79a2.61,2.61,0,0,1,2-1.27.73.73,0,0,0-.45-.66A1,1,0,0,0,125.05,258.45Z"/><path class="cls-2" d="M169.13,269.74a4.44,4.44,0,0,1-4.63,1.15,4.74,4.74,0,0,0,.43-1.65,1.53,1.53,0,0,0-.67-1.42c-.56-.26-1.16.19-1.68.55a7.12,7.12,0,0,1-4.86,1.25,1.54,1.54,0,0,1-.91-.35,1.84,1.84,0,0,1-.29-1.88,5.9,5.9,0,0,1,1-1.65,15.92,15.92,0,0,0,2.19-4.12,4.16,4.16,0,0,0,.3-1.56,1.45,1.45,0,0,0-.7-1.27c-.74-.32-1.43.58-1.86,1.37l-2,3.57a5.83,5.83,0,0,1-.27-5.39,5.07,5.07,0,0,1,3.88-2.95,5.69,5.69,0,0,1,4.47,1.64,44,44,0,0,1,3,3.62c1,1.18,2.32,2.18,3.74,2.07.78-.06,1.63-.44,2.31,0,.93.63.82,2.3.31,3.42s-1.29,2.15-1.34,3.42Z"/><path class="cls-3" d="M165.89,271.49a4.33,4.33,0,0,1-1.47-.25.36.36,0,0,1-.2-.2.47.47,0,0,1,0-.31,4.44,4.44,0,0,0,.39-1.5,1.19,1.19,0,0,0-.48-1.07c-.39-.18-.87.15-1.33.47l-.07.05a7.35,7.35,0,0,1-5.05,1.3,1.79,1.79,0,0,1-1.07-.42,2.28,2.28,0,0,1-.39-2.31,5.7,5.7,0,0,1,.91-1.54l.16-.21a15.21,15.21,0,0,0,2.13-4,3.59,3.59,0,0,0,.28-1.39,1.1,1.1,0,0,0-.49-.95c-.59-.25-1.2.67-1.51,1.23l-2,3.57a.3.3,0,0,1-.25.16.28.28,0,0,1-.25-.14,6.28,6.28,0,0,1-.3-5.79,5.37,5.37,0,0,1,4.12-3.13,5.93,5.93,0,0,1,4.69,1.71,17.13,17.13,0,0,1,1.9,2.25c.35.47.71.95,1.09,1.39.82,1,2.1,2.08,3.51,2a5,5,0,0,0,.63-.09,2.33,2.33,0,0,1,1.86.16c1.05.71,1,2.55.42,3.91-.14.33-.31.64-.47.94a5.67,5.67,0,0,0-.84,2.33.33.33,0,0,1-.32.34.34.34,0,0,1-.29-.38,6.13,6.13,0,0,1,.93-2.68c.16-.29.32-.6.45-.89.47-1,.53-2.45-.19-2.93A1.93,1.93,0,0,0,171,263c-.23,0-.46.08-.69.1-1.64.12-3.07-1.12-4-2.18-.39-.46-.76-1-1.12-1.44a15.5,15.5,0,0,0-1.82-2.15,5.35,5.35,0,0,0-4.24-1.56,4.73,4.73,0,0,0-3.65,2.76,5.53,5.53,0,0,0,0,4.54l1.71-3.1c.91-1.65,1.71-1.74,2.22-1.52a1.81,1.81,0,0,1,.91,1.6,4.47,4.47,0,0,1-.33,1.72,15.77,15.77,0,0,1-2.24,4.22l-.16.22a5.06,5.06,0,0,0-.8,1.33A1.48,1.48,0,0,0,157,269a1.27,1.27,0,0,0,.75.27,6.78,6.78,0,0,0,4.68-1.2l.07-.05c.53-.37,1.2-.84,1.87-.52a1.91,1.91,0,0,1,.87,1.77,4.41,4.41,0,0,1-.3,1.39,4.19,4.19,0,0,0,4-1.18.27.27,0,0,1,.43,0,.42.42,0,0,1,0,.52A4.86,4.86,0,0,1,165.89,271.49Z"/><path class="cls-4" d="M188.07,185.14c1,6.39,6,11.58,11.38,11.92l-7.1,1.94a10.87,10.87,0,0,0,2.43,9.12c2,2.39,4.56,3.86,7.09,5.28l-9.55-.9a8.22,8.22,0,0,1,1.46,6.36l-4.5-2a30.53,30.53,0,0,1-2,12.14,6.73,6.73,0,0,0-2.75-3.6c-.89,4.43-3.94,7.71-5.72,11.73a9.24,9.24,0,0,0-.88,3.37,7.35,7.35,0,0,0,2.24,5.26,16.3,16.3,0,0,0,4.48,2.9,13.3,13.3,0,0,1-7.71-3.19,21.72,21.72,0,0,0,3,8.91,19.86,19.86,0,0,1-7.88-9.78,16.29,16.29,0,0,1-7,8,26.52,26.52,0,0,0,1.7-7.53l-3,3.11v-2.83a17.7,17.7,0,0,1-11,1.41A28.29,28.29,0,0,0,166,236.49a8.49,8.49,0,0,1-5.54-.21c5.63-.58,10.54-6.51,11-13.25a10.58,10.58,0,0,1-4.93,1c4.88-9.23,4.5-22-.92-30.81,2.63-.06,5-2.1,6.48-4.71a25.9,25.9,0,0,0,2.56-8.82c.4-2.81,1-6.17,3.19-7.2,1.57-.72,3.36.11,4.7,1.32a13.54,13.54,0,0,1,4.16,8.66Z"/><path class="cls-3" d="M179.9,254.79a.25.25,0,0,1-.14,0,19.91,19.91,0,0,1-7.75-9.29,16.36,16.36,0,0,1-6.83,7.54.27.27,0,0,1-.35-.07.45.45,0,0,1-.06-.42,25.72,25.72,0,0,0,1.59-6.48l-2.44,2.5a.27.27,0,0,1-.33.05.39.39,0,0,1-.17-.33V246a17.93,17.93,0,0,1-10.72,1.24.36.36,0,0,1-.26-.34.37.37,0,0,1,.22-.38,27.91,27.91,0,0,0,12.53-9.41,8.84,8.84,0,0,1-4.8-.44.36.36,0,0,1-.21-.39.33.33,0,0,1,.28-.32c5.32-.55,10-6,10.64-12.34a11,11,0,0,1-4.58.78.31.31,0,0,1-.26-.2.47.47,0,0,1,0-.37c4.85-9.16,4.48-21.66-.9-30.39a.42.42,0,0,1,0-.38.3.3,0,0,1,.27-.2c2.3-.06,4.68-1.8,6.22-4.55a25.34,25.34,0,0,0,2.51-8.69c.36-2.52.91-6.33,3.39-7.47,2.08-1,4.19.64,5,1.36a14.06,14.06,0,0,1,4.28,8.92.35.35,0,0,1-.27.4.32.32,0,0,1-.34-.32,13.24,13.24,0,0,0-4-8.41c-.73-.65-2.62-2.09-4.41-1.26-2,.91-2.57,3.91-3,6.91a26,26,0,0,1-2.61,9c-1.54,2.77-3.81,4.53-6.15,4.83a33,33,0,0,1,.89,30.12,10.31,10.31,0,0,0,4.27-.94.25.25,0,0,1,.29.05.4.4,0,0,1,.12.32c-.39,6.27-4.6,11.87-9.69,13.29a8.22,8.22,0,0,0,3.88-.21.28.28,0,0,1,.34.16.41.41,0,0,1,0,.43,29.1,29.1,0,0,1-12.12,10,17.48,17.48,0,0,0,9.48-1.6.26.26,0,0,1,.28,0,.37.37,0,0,1,.14.3v2l2.52-2.59a.29.29,0,0,1,.34-.05.41.41,0,0,1,.17.37,27,27,0,0,1-1.39,6.71,16.08,16.08,0,0,0,6.07-7.4.31.31,0,0,1,.28-.21.33.33,0,0,1,.28.22,19.79,19.79,0,0,0,6.63,8.86,22.6,22.6,0,0,1-2.3-7.8.4.4,0,0,1,.15-.36.26.26,0,0,1,.33,0,13.49,13.49,0,0,0,5.47,2.81,12.28,12.28,0,0,1-2.61-1.94,7.77,7.77,0,0,1-2.34-5.55,9.7,9.7,0,0,1,.91-3.53,40,40,0,0,1,2.39-4.38,22.78,22.78,0,0,0,3.3-7.26.38.38,0,0,1,.17-.25.26.26,0,0,1,.27,0,6.9,6.9,0,0,1,2.6,3A30.45,30.45,0,0,0,189,216.93a.4.4,0,0,1,.12-.32.28.28,0,0,1,.29-.05l4.16,1.81a7.79,7.79,0,0,0-1.45-5.62.4.4,0,0,1,0-.41.3.3,0,0,1,.3-.21l7.89.75a20.47,20.47,0,0,1-5.68-4.5,11.27,11.27,0,0,1-2.51-9.48.36.36,0,0,1,.23-.26l5.44-1.49c-4.84-1.21-9.05-6.12-9.95-12a.36.36,0,0,1,.24-.42.31.31,0,0,1,.36.29c1,6.18,5.84,11.29,11.1,11.62a.34.34,0,0,1,.29.34.38.38,0,0,1-.24.39l-6.92,1.89a10.61,10.61,0,0,0,2.4,8.56c1.95,2.36,4.52,3.8,7,5.2a.37.37,0,0,1,.17.42.31.31,0,0,1-.32.27l-8.83-.83a8.83,8.83,0,0,1,1.06,6,.36.36,0,0,1-.15.25.25.25,0,0,1-.25,0l-4.07-1.77a31.11,31.11,0,0,1-2.05,11.76.28.28,0,0,1-.28.21.3.3,0,0,1-.28-.23,6.52,6.52,0,0,0-2.27-3.17,25.32,25.32,0,0,1-3.3,7.05,37.82,37.82,0,0,0-2.34,4.29,8.68,8.68,0,0,0-.85,3.21,7,7,0,0,0,2.13,5,15.85,15.85,0,0,0,4.4,2.84.38.38,0,0,1,.18.42.31.31,0,0,1-.31.29,13.58,13.58,0,0,1-7.3-2.79,21.18,21.18,0,0,0,2.81,7.92.43.43,0,0,1,0,.46A.28.28,0,0,1,179.9,254.79Z"/><path class="cls-3" d="M167.49,237.11a3.13,3.13,0,0,0,4.67.3,2.64,2.64,0,0,0,.23,2,5.56,5.56,0,0,0,1.26,1.46,28.84,28.84,0,0,0,5.27,3.76,13.57,13.57,0,0,1-4.58-1.2,21.71,21.71,0,0,1,2.85,8.53c-2.13-2.2-3.59-5.48-6.21-6.69-2-.93-4.28-.41-6.39.17s-4.33,1.17-6.39.39A37.37,37.37,0,0,0,167.49,237.11Z"/><path class="cls-3" d="M178.17,207.65a103.27,103.27,0,0,0-2.88,17.3l-1.13-4.54a20.72,20.72,0,0,1-2.32,9.31,22.28,22.28,0,0,0-.36-9.75l-4.06,2a55.37,55.37,0,0,0-3.29-33,3,3,0,0,0,3.32,0,9,9,0,0,0,2.61-2.69,40.63,40.63,0,0,0,6.56-15.8,21.21,21.21,0,0,1,9.59,11,26.93,26.93,0,0,1,1.23,15.8,8.33,8.33,0,0,0-1.33-4.92,23.93,23.93,0,0,1-2.47,13.5l-.07-3.91a25,25,0,0,1-5.74,11.54Z"/><path class="cls-5" d="M166.85,265.67a6.35,6.35,0,0,1-6.71,2.78,2.6,2.6,0,0,1-1.89-1.48,4.37,4.37,0,0,1,.32-3c1.24-3.45,2.6-6.85,4.06-10.17-.62,1.21-1.1,2.52-1.78,3.68a5.17,5.17,0,0,1-2.76,2.54,2.49,2.49,0,0,1-3-1.57c-.55-1.55.32-3.24,1.14-4.6l4.48-7.35a27.42,27.42,0,0,1,3.51-4.91,7.3,7.3,0,0,1,4.88-2.47c2.77,0,5.24,2.3,6.66,5.14,2.25,4.53,2.31,10.09,2.3,15.36a5.52,5.52,0,0,1-.72,3.37c-.69.88-1.8,1-2.67,1.6-1.92,1.33-2.42,4.73-4.47,5.73-1.71.83-3.9-.89-3.94-3.1Z"/><path class="cls-3" d="M169.27,270.92a3.65,3.65,0,0,1-3.31-3.67v0a6.6,6.6,0,0,1-4.43,1.78,6,6,0,0,1-1.46-.18,3,3,0,0,1-2.1-1.69,4.72,4.72,0,0,1,.31-3.28q.85-2.35,1.79-4.7a4.23,4.23,0,0,1-1.91,1.25,2.46,2.46,0,0,1-.72.1,2.81,2.81,0,0,1-2.64-1.88c-.59-1.68.27-3.45,1.18-5l4.48-7.35a28.06,28.06,0,0,1,3.56-5,7.66,7.66,0,0,1,5.08-2.56h.08c3.09,0,5.56,2.75,6.84,5.32,2.36,4.75,2.36,10.74,2.35,15.55a5.84,5.84,0,0,1-.8,3.62,4.05,4.05,0,0,1-1.73,1.15,6.4,6.4,0,0,0-1,.52,7.55,7.55,0,0,0-2,2.67,6.72,6.72,0,0,1-2.53,3.08A2.38,2.38,0,0,1,169.27,270.92Zm-2.7-3.61a3,3,0,0,0,2.7,2.87,1.92,1.92,0,0,0,.82-.18,6.22,6.22,0,0,0,2.25-2.8,7.82,7.82,0,0,1,2.18-2.9,5.89,5.89,0,0,1,1.11-.58,3.59,3.59,0,0,0,1.49-1,5.12,5.12,0,0,0,.64-3.12c0-4.72,0-10.6-2.27-15.17-1.19-2.4-3.48-5-6.31-5h-.07a7,7,0,0,0-4.69,2.38,27,27,0,0,0-3.46,4.84l-4.48,7.36c-.82,1.34-1.59,2.89-1.11,4.24a2.18,2.18,0,0,0,2.07,1.43,2.25,2.25,0,0,0,.58-.08,5,5,0,0,0,2.58-2.39,21.74,21.74,0,0,0,1-2.11c.23-.51.47-1,.73-1.56a.28.28,0,0,1,.41-.12.4.4,0,0,1,.12.49c-1.45,3.3-2.81,6.72-4.05,10.14a4.05,4.05,0,0,0-.32,2.68,2.31,2.31,0,0,0,1.68,1.28,5.25,5.25,0,0,0,1.32.17,6.25,6.25,0,0,0,5.08-2.82.27.27,0,0,1,.4-.08.41.41,0,0,1,.12.46Z"/><path class="cls-3" d="M173.15,267a.27.27,0,0,1-.17-.06.41.41,0,0,1-.09-.51,20.6,20.6,0,0,0,2.4-10.91.34.34,0,0,1,.28-.39.33.33,0,0,1,.33.34,21.27,21.27,0,0,1-2.5,11.36A.29.29,0,0,1,173.15,267Z"/><path class="cls-6" d="M194.91,211.31a27,27,0,0,1-6.57-11.6,17.72,17.72,0,0,0,1.36,7.52C190.77,209.49,192.73,211.27,194.91,211.31Z"/><path class="cls-6" d="M186.29,208.76c.58,3.12,2.85,5.68,5.49,6.2A12.43,12.43,0,0,0,186.29,208.76Z"/><path class="cls-7" d="M181,212.73a10.3,10.3,0,0,0,.69,7.15,7.5,7.5,0,0,0,5,4.07,10.62,10.62,0,0,0-1.61-6.4A25.89,25.89,0,0,0,181,212.73Z"/><path class="cls-8" d="M180.81,225.87a4.69,4.69,0,0,1-2,5.1A6.15,6.15,0,0,1,180.81,225.87Z"/><path class="cls-8" d="M174.17,235a11.33,11.33,0,0,1,3.1-7.34,15.69,15.69,0,0,1-.5,4.4A4.11,4.11,0,0,1,174.17,235Z"/><path class="cls-8" d="M175.28,238.24a6,6,0,0,1,2.4-3.52,7.53,7.53,0,0,1-1.18,4.47c-.21.32-.52.64-.85.55C175.17,239.61,175.14,238.8,175.28,238.24Z"/><path class="cls-8" d="M165.87,234.22a7.4,7.4,0,0,0,3.89.27,3.44,3.44,0,0,0,2.44-3.24A21.26,21.26,0,0,1,165.87,234.22Z"/><path class="cls-7" d="M179.06,217a4,4,0,0,1-.16,4,4.82,4.82,0,0,1-.68-3.72c.06-.28.21-.6.45-.59S179,216.79,179.06,217Z"/><path class="cls-7" d="M179.92,220.81a8.89,8.89,0,0,1,.07,3.29c-.25,1.06-1,2-2,2A9.26,9.26,0,0,1,179.92,220.81Z"/><path class="cls-9" d="M170.14,267.34l4-8.26c.1,3.19-1.25,6.18-2.68,8.89a2.38,2.38,0,0,1-.6.81.58.58,0,0,1-.83-.08C169.74,268.34,169.94,267.77,170.14,267.34Z"/><path class="cls-9" d="M161.1,266.18a1.36,1.36,0,0,1,.48-.9,38.45,38.45,0,0,0,8.61-15,28.38,28.38,0,0,1-2.73,12.84,9.42,9.42,0,0,1-2.3,3.25,3.25,3.25,0,0,1-3.4.65A1,1,0,0,1,161.1,266.18Z"/><path class="cls-9" d="M156.49,258.66c-.31-.58.09-1.33.48-1.86l6.44-8.67a44.25,44.25,0,0,1-1.87,5.74,12.55,12.55,0,0,1-3.26,4.7,2.07,2.07,0,0,1-.9.5A.84.84,0,0,1,156.49,258.66Z"/><path class="cls-9" d="M176.49,252.13a19.75,19.75,0,0,0-6.75-10.82c2.09-.25,4.08,1.43,5.15,3.59A20,20,0,0,1,176.49,252.13Z"/><path class="cls-9" d="M176.28,262.22a22.86,22.86,0,0,0,.87-4.2,8.26,8.26,0,0,1,.17,2.32A2.44,2.44,0,0,1,176.28,262.22Z"/><path class="cls-10" d="M161.91,263.08a3.28,3.28,0,0,1,1.57-.24,2,2,0,0,1,1.66,2.59,2.14,2.14,0,0,1-1.25,1.17,4.37,4.37,0,0,1-2.52.28,1.2,1.2,0,0,1-1-.6,1.63,1.63,0,0,1,.24-1.5C161.14,264,161.15,263.36,161.91,263.08Z"/><path class="cls-10" d="M166,258.19a2.52,2.52,0,0,1,1.43,1.4.92.92,0,0,1,0,.71c-.2.35-.64.26-1,.1-.53-.26-1-.6-1.55-.86a2.59,2.59,0,0,0-1.67-.28,1.54,1.54,0,0,1,1.12-1.31A2.46,2.46,0,0,1,166,258.19Z"/><path class="cls-10" d="M171.22,259.87a1.93,1.93,0,0,1,2,.89,1.2,1.2,0,0,1,.22.56.61.61,0,0,1-.2.54.57.57,0,0,1-.54,0,3.4,3.4,0,0,1-1.68-1.57C171.3,260.28,171,259.93,171.22,259.87Z"/><path class="cls-10" d="M171.32,264.25a1.63,1.63,0,0,1,.87,1.42,2.28,2.28,0,0,1-.68,1.32l-.89,1a1,1,0,0,1-.43.35.86.86,0,0,1-.67-.23l-1.48-1a.94.94,0,0,1-.44-.5,1.19,1.19,0,0,1,0-.59,3.09,3.09,0,0,1,1.51-1.87A2.29,2.29,0,0,1,171.32,264.25Z"/><path class="cls-10" d="M156.69,255.56a3.17,3.17,0,0,1,1.39.59,1.53,1.53,0,0,1,.48,1.54,1,1,0,0,1-1.15.66,1.5,1.5,0,0,1-.91-1.17A2.81,2.81,0,0,1,156.69,255.56Z"/><path class="cls-10" d="M165.73,244.08A.66.66,0,0,1,165,244a.73.73,0,0,1-.15-.66,1.54,1.54,0,0,1,.29-.62,3.61,3.61,0,0,1,2.81-1.59A4,4,0,0,1,165.73,244.08Z"/><path class="cls-10" d="M167.89,256.75a1.8,1.8,0,0,1,.41.68.87.87,0,0,1-.14.79,4.84,4.84,0,0,0-3.51-1.52.82.82,0,0,1,.3-.83,1.19,1.19,0,0,1,.8-.18A3.26,3.26,0,0,1,167.89,256.75Z"/><path class="cls-10" d="M172.83,258.45a2.08,2.08,0,0,1,.9,1c.12.28.13.71-.12.79a2.61,2.61,0,0,0-2-1.27.73.73,0,0,1,.45-.66A1,1,0,0,1,172.83,258.45Z"/><path class="cls-4" d="M168.21,112.07c-6.77-2.91-13.63-5.75-20.78-6.58s-14.72.51-20.63,5.4c-5.7,4.72-9.4,12.45-10.72,20.59A56.56,56.56,0,0,0,118,156a66.06,66.06,0,0,0,10.9,21.84c3.16,4.11,6.92,7.81,11.4,9.37,4.05,1.41,8.38,1,12.52.05,6.12-1.38,12.22-4,16.91-8.84,5.31-5.53,8.35-13.48,11.05-21.25,2.44-7,4.78-14.39,4.3-22a29.84,29.84,0,0,0-6.86-17.26,24.45,24.45,0,0,0-14.48-8.33Z"/><path class="cls-3" d="M146,188.43a17.59,17.59,0,0,1-5.84-.92c-3.93-1.36-7.7-4.46-11.55-9.47a66.83,66.83,0,0,1-11-22,57,57,0,0,1-1.89-24.66c1.4-8.68,5.36-16.27,10.85-20.82s12.79-6.4,20.83-5.47a62,62,0,0,1,15.94,4.54.57.57,0,0,1,0-.13.33.33,0,0,1,.35-.32,24.77,24.77,0,0,1,14.64,8.44,30.26,30.26,0,0,1,7,17.49c.48,7.58-1.77,14.79-4.32,22.12-2.7,7.77-5.79,15.82-11.13,21.39-4.19,4.36-9.77,7.28-17.06,8.92A31.08,31.08,0,0,1,146,188.43Zm-2.47-82.8A25.63,25.63,0,0,0,127,111.2c-5.36,4.43-9.22,11.85-10.6,20.35a56.18,56.18,0,0,0,1.87,24.28,66,66,0,0,0,10.83,21.71c3.77,4.91,7.46,7.94,11.27,9.27,4.42,1.54,9.18.76,12.37,0,7.18-1.62,12.66-4.48,16.77-8.76,5.24-5.46,8.29-13.42,11-21.11,2.52-7.25,4.74-14.36,4.27-21.79a29.5,29.5,0,0,0-6.77-17,24.32,24.32,0,0,0-13.53-8.09c1.28.53,2.57,1.08,3.88,1.64a.4.4,0,0,1,.19.47.3.3,0,0,1-.4.22c-7.26-3.11-13.83-5.76-20.7-6.56A33.77,33.77,0,0,0,143.55,105.63Z"/><path class="cls-3" d="M145,156.81a50.29,50.29,0,0,1-1.76,23.08,4.89,4.89,0,0,1,5.69-2.2c2.07.58,3.85,2.12,5.56,3.63a29.35,29.35,0,0,1,4.25-8.15c1.88-2.29,4.57-3.87,7.24-3.42-.1-4.15,3.17-8,6.65-7.75a16.93,16.93,0,0,1,2.44-13.94c-1.75-1.41-2.53-4.11-2.46-6.64a26.37,26.37,0,0,1,1.57-7.3,17.73,17.73,0,0,1-7.83-9.07,90.77,90.77,0,0,1-8.16,18.4C154.74,149.07,150.31,153.94,145,156.81Z"/><path class="cls-3" d="M130.25,134.9a10.16,10.16,0,0,1-1.09-3.15,3.91,3.91,0,0,1,.83-3.14l-12.12,12.5a19,19,0,0,1,6.79-1.59l-3,9.28a1.06,1.06,0,0,1,1.27.59,4.24,4.24,0,0,1,.44,1.65,46.72,46.72,0,0,1,.21,9.31c1.56.12,2.85,1.64,3.47,3.37a21.3,21.3,0,0,1,.89,5.5,1.88,1.88,0,0,0,.44,1.27c.61.52,1.35-.27,2-.73,1.37-1,3.23-.38,4.4.92a13,13,0,0,1,2.34,5,17.75,17.75,0,0,0,2.1,5.12,103.11,103.11,0,0,1,6.08-30.27C138.69,148.44,133.67,141.94,130.25,134.9Z"/><path class="cls-7" d="M178.83,137.93c.06,13.34-4.06,26.65-11.38,36.73-4.14,5.69-9.65,10.55-15.95,11.05a104.51,104.51,0,0,1,1.17,18,37.39,37.39,0,0,0,17.12-9.88,58.4,58.4,0,0,0,11-16c5.6-11.54,8.72-25.23,6.82-38.38L179,134.56Z"/><path class="cls-10" d="M159.31,186.94A54.06,54.06,0,0,0,176,167.32a66.36,66.36,0,0,0,7-26.69l-2.19.08a66,66,0,0,1-6.31,26A62.55,62.55,0,0,1,159.31,186.94Z"/><path class="cls-11" d="M161.12,197.38c.76,6.54,1.51,13.27.23,19.69s-5.07,12.58-10.47,14a308,308,0,0,0,2.31-35.17c4.71-.7,8.86-4,12.64-7.43a79.29,79.29,0,0,0,16-19.1c4.27-7.47,6.31-17,6.12-26.06,4.64,3,8.48,9.78,8.56,16.08,0,.48-.07,1.07-.45,1.23s-.55,0-.8-.21c-2.69-1.78-4.53-2.79-7.22-4.56a31.73,31.73,0,0,1,5.7,8.41c1.64,3.52,2.33,7.89,1,11.62a32.56,32.56,0,0,0-10-11.71c6,6.29,7.46,17.81,3.36,25.95a44.16,44.16,0,0,0-7.73-14.87c1.87,4.71,3.57,9.61,4,14.79s-.59,10.73-3.56,14.53a44.32,44.32,0,0,0-6.34-18.48c1.53,5.43,3.07,11,3.11,16.68s-1.71,11.77-5.6,15.11a58.53,58.53,0,0,0-3.66-23.19c1.11,5.61,2.23,11.32,1.91,17.07s-2.31,11.64-6.27,14.93C163.93,216.83,163.86,206.72,161.12,197.38Z"/><path class="cls-3" d="M150.88,231.47a.29.29,0,0,1-.21-.09.43.43,0,0,1-.09-.33,306.92,306.92,0,0,0,2.3-35.11.35.35,0,0,1,.27-.36c4.62-.69,8.73-4,12.49-7.36,7.17-6.5,12.23-12.55,15.93-19,4.06-7.09,6.27-16.51,6.07-25.84a.38.38,0,0,1,.15-.32.26.26,0,0,1,.3,0c4.9,3.17,8.65,10.22,8.72,16.4,0,1.07-.34,1.45-.64,1.58a.72.72,0,0,1-.29.06,1.49,1.49,0,0,1-.77-.3c-1.34-.89-2.49-1.59-3.6-2.28l-1.72-1.06a29.18,29.18,0,0,1,4.22,6.69,16.29,16.29,0,0,1,1.06,11.94.31.31,0,0,1-.26.23.32.32,0,0,1-.29-.18,32.93,32.93,0,0,0-7.7-9.85,25,25,0,0,1,1.55,24.09.28.28,0,0,1-.29.17.32.32,0,0,1-.26-.24,44.5,44.5,0,0,0-6.32-13A47.67,47.67,0,0,1,184.68,190c.47,5.85-.85,11.25-3.65,14.82a.28.28,0,0,1-.32.1.36.36,0,0,1-.21-.3,44.08,44.08,0,0,0-5.07-16.25,55,55,0,0,1,2.45,14.4c0,6.54-2.1,12.3-5.73,15.4a.24.24,0,0,1-.32,0,.37.37,0,0,1-.16-.34,58.64,58.64,0,0,0-2.15-18.55,54.12,54.12,0,0,1,1,12.47c-.37,6.6-2.71,12.15-6.4,15.21a.27.27,0,0,1-.32,0,.4.4,0,0,1-.17-.33c0-8.24-.06-16.71-1.72-24.79a52.15,52.15,0,0,1-.28,15.22c-1.46,7.33-5.66,13-10.7,14.31Zm2.61-35.2a307.75,307.75,0,0,1-2.24,34.35c4.62-1.5,8.44-6.78,9.8-13.63,1.29-6.45.48-13.42-.24-19.56A.37.37,0,0,1,161,197a.31.31,0,0,1,.37.23c2.72,9.27,2.82,19.16,2.85,28.76,3.23-3,5.33-8.25,5.66-14.24.32-5.74-.8-11.44-1.9-17a.4.4,0,0,1,.2-.44.3.3,0,0,1,.38.2,58.61,58.61,0,0,1,3.71,22.56c3.15-3,5-8.34,5-14.32,0-5.72-1.59-11.24-3.09-16.57a.39.39,0,0,1,.14-.44.27.27,0,0,1,.39.1A44.53,44.53,0,0,1,181,203.77c2.37-3.41,3.48-8.33,3-13.66-.42-5.17-2.15-10.1-4-14.66a.43.43,0,0,1,.1-.46.28.28,0,0,1,.4,0,44.57,44.57,0,0,1,7.57,14.25c3.58-7.89,2-18.85-3.62-24.8h0a41.93,41.93,0,0,1-2.47,5.13c-3.74,6.54-8.84,12.63-16.06,19.19C162.26,192.22,158.14,195.47,153.49,196.27Zm31.31-32.42a.34.34,0,0,1,.11.05,32.55,32.55,0,0,1,9.8,11.2,16,16,0,0,0-1.24-10.63,31.46,31.46,0,0,0-5.64-8.32.4.4,0,0,1,0-.48.28.28,0,0,1,.4-.1c1.34.88,2.49,1.59,3.6,2.27s2.27,1.4,3.62,2.28c.13.09.4.26.55.2s.24-.65.24-.88c-.07-5.74-3.45-12.27-7.93-15.45A55.09,55.09,0,0,1,184.8,163.85Z"/><path class="cls-7" d="M118.91,137.93c-.06,13.34,4.06,26.65,11.38,36.73,4.13,5.69,9.65,10.55,15.94,11.05a103.52,103.52,0,0,0-1.16,18A37.34,37.34,0,0,1,128,193.87a58.4,58.4,0,0,1-11-16c-5.61-11.54-8.72-25.23-6.82-38.38l8.6-4.94Z"/><path class="cls-2" d="M114.38,159.52l-.29-3.26c2.23,6,5.84,11.1,9.4,16.11a56,56,0,0,1-9-31.06l-3.23,2A68.41,68.41,0,0,0,114.38,159.52Z"/><path class="cls-10" d="M138,186.81c-12.17-11.74-20.08-29.58-21.36-48.2a9.12,9.12,0,0,0-1.45,5.23,23.46,23.46,0,0,0,.81,5.53C119.61,164.36,127,178.46,138,186.81Z"/><path class="cls-11" d="M136.62,197.38c-.76,6.54-1.52,13.27-.24,19.69s5.08,12.58,10.48,14a303.48,303.48,0,0,1-2.31-35.17c-4.72-.7-8.86-4-12.64-7.43-6-5.47-11.73-11.63-16-19.1s-6.27-17-6.07-26.09c-4.64,3-8.54,9.81-8.61,16.11,0,.48.07,1.07.44,1.23s.56,0,.81-.21c2.68-1.78,5-3.26,7.72-5A36.26,36.26,0,0,0,104,164.3c-1.63,3.52-2.33,7.89-1,11.62a32.54,32.54,0,0,1,10-11.71c-6,6.29-7.45,17.81-3.35,25.95a44,44,0,0,1,7.73-14.87c-1.87,4.71-3.57,9.61-4,14.79s.58,10.73,3.56,14.53a44.32,44.32,0,0,1,6.34-18.48c-1.53,5.43-3.08,11-3.11,16.68s1.71,11.77,5.6,15.11a58.52,58.52,0,0,1,3.65-23.19c-1.11,5.61-2.23,11.32-1.9,17.07s2.3,11.64,6.27,14.93C133.81,216.83,133.87,206.72,136.62,197.38Z"/><path class="cls-3" d="M146.86,231.47h-.07c-5-1.36-9.25-7-10.71-14.31a52.5,52.5,0,0,1-.27-15.22c-1.67,8.08-1.7,16.55-1.73,24.79a.39.39,0,0,1-.16.33.27.27,0,0,1-.32,0c-3.7-3.06-6-8.61-6.4-15.21a54.11,54.11,0,0,1,1-12.47,58.72,58.72,0,0,0-2.15,18.47.31.31,0,0,1,0,.1.33.33,0,0,1-.31.36.22.22,0,0,1-.18-.07c-3.62-3.1-5.77-8.86-5.73-15.4a55.41,55.41,0,0,1,2.46-14.4,44.28,44.28,0,0,0-5.08,16.25.35.35,0,0,1-.21.3.29.29,0,0,1-.32-.1c-2.79-3.57-4.12-9-3.64-14.82a47.28,47.28,0,0,1,3.17-12.72,44.47,44.47,0,0,0-6.31,13,.35.35,0,0,1-.26.24.29.29,0,0,1-.3-.17,25,25,0,0,1,1.56-24.09,33,33,0,0,0-7.71,9.85.32.32,0,0,1-.29.18.31.31,0,0,1-.25-.23,16.29,16.29,0,0,1,1-11.94,31.62,31.62,0,0,1,4.65-7.09l-1.89,1.23c-1.25.81-2.51,1.62-3.85,2.51a1.56,1.56,0,0,1-.77.3.72.72,0,0,1-.29-.06c-.3-.13-.66-.51-.65-1.58.07-6.19,3.84-13.25,8.77-16.44a.27.27,0,0,1,.31,0,.37.37,0,0,1,.14.32c-.2,9.4,2,18.84,6,25.88,3.7,6.47,8.76,12.52,15.93,19,3.76,3.41,7.88,6.67,12.5,7.36a.34.34,0,0,1,.26.36,308.14,308.14,0,0,0,2.3,35,.51.51,0,0,1,0,.13.34.34,0,0,1-.31.36ZM136.62,197h.07a.35.35,0,0,1,.23.41c-.71,6.14-1.52,13.11-.24,19.56,1.37,6.85,5.19,12.13,9.81,13.63a307.76,307.76,0,0,1-2.25-34.35c-4.65-.8-8.76-4.05-12.52-7.46-7.22-6.56-12.33-12.66-16.06-19.19a40.71,40.71,0,0,1-2.47-5.14h0c-5.65,5.95-7.2,16.91-3.62,24.8A44.18,44.18,0,0,1,117.14,175a.27.27,0,0,1,.39,0,.39.39,0,0,1,.1.46c-1.8,4.56-3.54,9.49-4,14.66-.43,5.33.67,10.25,3,13.66a44.52,44.52,0,0,1,6.3-17.86.28.28,0,0,1,.39-.1.38.38,0,0,1,.15.44c-1.5,5.33-3.06,10.85-3.09,16.57,0,6,1.8,11.27,5,14.32a59,59,0,0,1,3.71-22.56.31.31,0,0,1,.38-.2.39.39,0,0,1,.2.44c-1.09,5.51-2.22,11.21-1.9,17,.34,6,2.44,11.25,5.66,14.24,0-9.6.13-19.49,2.86-28.76A.3.3,0,0,1,136.62,197Zm-26.42-42a.3.3,0,0,1,.25.15.42.42,0,0,1,0,.48,36.3,36.3,0,0,0-6.15,8.79A16.09,16.09,0,0,0,103,175.1a32.68,32.68,0,0,1,9.81-11.2.31.31,0,0,1,.12-.05,55,55,0,0,1-3.43-19.9,20.7,20.7,0,0,0-8,15.49c0,.23,0,.78.24.88s.42-.11.55-.2l3.86-2.51,3.86-2.51A.3.3,0,0,1,110.2,155.05Z"/><path class="cls-3" d="M125,189.23l-.35,12.31a32.49,32.49,0,0,1,3.59-7.45c1.58-2.18,3.81-3.85,6.21-3.87-5.11-6.88-11.15-12.74-16-19.85s-8.67-16-8.08-25.13a41.73,41.73,0,0,0-4.46,7.73c1.57-1.33,4.13-.28,4.68,1.92.49,2-.46,4-1.51,5.63s-2.31,3.22-2.55,5.25a8.1,8.1,0,0,1,3.81-2.13,3,3,0,0,1,3.3,2.41,6,6,0,0,1-.3,2.55l-2.6,9.73c1.27-.73,2.25-2,3.44-2.92s2.85-1.34,3.95-.29,1.13,2.91,1.05,4.55a87.32,87.32,0,0,1-1.4,11.77,26.11,26.11,0,0,1,4.18-5.11,2.27,2.27,0,0,1,1.49-.8c.64,0,1.18.68,1.41,1.4A6.81,6.81,0,0,1,125,189.23Z"/><path class="cls-3" d="M173.39,189.23l.35,12.31a32.49,32.49,0,0,0-3.59-7.45c-1.57-2.18-3.8-3.85-6.21-3.87,5.12-6.88,11.15-12.74,16-19.85s8.68-16,8.08-25.13a41.73,41.73,0,0,1,4.46,7.73c-1.57-1.33-4.13-.28-4.68,1.92-.49,2,.46,4,1.52,5.63s2.3,3.22,2.54,5.25a8.1,8.1,0,0,0-3.81-2.13,3,3,0,0,0-3.3,2.41,6.17,6.17,0,0,0,.3,2.55l2.61,9.73c-1.27-.73-2.25-2-3.44-2.92s-2.86-1.34-4-.29-1.13,2.91-1.05,4.55a87.32,87.32,0,0,0,1.4,11.77,26.11,26.11,0,0,0-4.18-5.11,2.24,2.24,0,0,0-1.48-.8c-.65,0-1.19.68-1.41,1.4A7.08,7.08,0,0,0,173.39,189.23Z"/><path class="cls-6" d="M154.56,199.44c0,5.89-2.63,23.18-4.29,33.49a1.32,1.32,0,1,1-2.64,0c-1.66-10.31-4.29-27.6-4.29-33.49,0-8.59,2.51-15.56,5.61-15.56S154.56,190.85,154.56,199.44Z"/><path class="cls-3" d="M149,234.62a1.72,1.72,0,0,1-1.62-1.62c-1.6-10-4.29-27.6-4.29-33.56,0-8.93,2.59-15.93,5.91-15.93s5.92,7,5.92,15.93c0,6-2.69,23.59-4.29,33.56A1.73,1.73,0,0,1,149,234.62Zm0-50.37c-2.87,0-5.3,6.95-5.3,15.19,0,5.9,2.68,23.47,4.28,33.42a1,1,0,1,0,2,0c1.6-10,4.28-27.52,4.28-33.42C154.25,191.2,151.83,184.25,149,184.25Z"/><path class="cls-12" d="M149,186.9v44.85s-4.7-21-3.71-32.85S148.05,185.28,149,186.9Z"/><path class="cls-11" d="M157.61,183.57a3.11,3.11,0,0,1-3.49-.62,10.2,10.2,0,0,1-2.3-3.41,43.66,43.66,0,0,1-4.08-17.11,6.11,6.11,0,0,1,.17-2,5.31,5.31,0,0,1,2.32-2.58,46.89,46.89,0,0,0,16.24-22.47,24.85,24.85,0,0,1,11.24,10.22,7.45,7.45,0,0,1,1.09,2.72A3.06,3.06,0,0,1,178,151c-1.09.93-2.59.11-3.74-.7l-8-5.69a41.66,41.66,0,0,1,5.27,6.15,16.55,16.55,0,0,1,2.85,8c.08,1.36-.22,3-1.3,3.44s-2-.49-2.73-1.32a94.84,94.84,0,0,1-7.49-9.21,58,58,0,0,1,4.85,8.36,21.8,21.8,0,0,1,2.05,9.75,5.07,5.07,0,0,1-.48,2.21,1.52,1.52,0,0,1-1.65.91,2.46,2.46,0,0,1-1.11-1c-3.26-4.45-5.74-9.62-8.21-14.76a44.47,44.47,0,0,1,1.54,21.92C159.57,180.85,159,182.81,157.61,183.57Z"/><path class="cls-3" d="M156.41,184.25a3.86,3.86,0,0,1-2.47-1,10.55,10.55,0,0,1-2.39-3.53,44.3,44.3,0,0,1-4.12-17.28,6.52,6.52,0,0,1,.19-2.15,5.61,5.61,0,0,1,2.4-2.73l0,0a46.46,46.46,0,0,0,16.12-22.29.29.29,0,0,1,.39-.2A25.19,25.19,0,0,1,178,145.38a8.09,8.09,0,0,1,1.15,2.87,3.42,3.42,0,0,1-.92,3.08,2,2,0,0,1-1.31.48,5.29,5.29,0,0,1-2.76-1.17L169,147a29.69,29.69,0,0,1,2.79,3.55,16.91,16.91,0,0,1,2.91,8.19c.09,1.44-.25,3.31-1.5,3.81a1.73,1.73,0,0,1-.6.11,3.81,3.81,0,0,1-2.44-1.51c-1.21-1.3-2.38-2.66-3.53-4,.49.89.95,1.81,1.37,2.76a22.14,22.14,0,0,1,2.09,9.94,5.54,5.54,0,0,1-.53,2.39,1.83,1.83,0,0,1-2,1.07,2.68,2.68,0,0,1-1.27-1.12,77.06,77.06,0,0,1-6.66-11.53,45.38,45.38,0,0,1,.52,18.53c-.29,1.62-.87,3.88-2.45,4.76A2.8,2.8,0,0,1,156.41,184.25Zm10.23-48.41a47.11,47.11,0,0,1-16.26,22.31l0,0a4.92,4.92,0,0,0-2.13,2.36,5.72,5.72,0,0,0-.15,1.86,43.15,43.15,0,0,0,4,16.94,9.82,9.82,0,0,0,2.21,3.3,2.87,2.87,0,0,0,3.18.59c1.33-.74,1.84-2.78,2.11-4.24a44.33,44.33,0,0,0-1.52-21.71.4.4,0,0,1,.15-.47.29.29,0,0,1,.4.15c2.42,5,4.92,10.26,8.18,14.7a2.27,2.27,0,0,0,.95.89,1.25,1.25,0,0,0,1.31-.76,4.72,4.72,0,0,0,.43-2,21.3,21.3,0,0,0-2-9.56,58.4,58.4,0,0,0-4.82-8.3.42.42,0,0,1,.05-.51.27.27,0,0,1,.43,0,96.83,96.83,0,0,0,7.45,9.18c.52.56,1.3,1.31,2,1.31a1.05,1.05,0,0,0,.4-.07c.92-.37,1.16-1.88,1.09-3.06a16.27,16.27,0,0,0-2.78-7.79,42.22,42.22,0,0,0-5.23-6.09.4.4,0,0,1,0-.49.27.27,0,0,1,.4-.1l8,5.68a4.84,4.84,0,0,0,2.45,1.07,1.4,1.4,0,0,0,1-.34,2.72,2.72,0,0,0,.67-2.37,7.09,7.09,0,0,0-1-2.56A24.59,24.59,0,0,0,166.64,135.84Z"/><path class="cls-11" d="M140.13,183.57a3.09,3.09,0,0,0,3.48-.62,10.06,10.06,0,0,0,2.3-3.41A43.84,43.84,0,0,0,150,162.43a6.11,6.11,0,0,0-.18-2,5.34,5.34,0,0,0-2.31-2.58,46.9,46.9,0,0,1-16.25-22.47A24.83,24.83,0,0,0,120,145.59a7.46,7.46,0,0,0-1.1,2.72,3.09,3.09,0,0,0,.79,2.72c1.1.93,2.59.11,3.74-.7l8-5.69a41.66,41.66,0,0,0-5.27,6.15,16.55,16.55,0,0,0-2.85,8c-.08,1.36.22,3,1.3,3.44s2-.49,2.73-1.32a96.25,96.25,0,0,0,7.48-9.21A59,59,0,0,0,130,160a22.07,22.07,0,0,0-2,9.75,5.22,5.22,0,0,0,.49,2.21,1.51,1.51,0,0,0,1.64.91,2.41,2.41,0,0,0,1.11-1c3.26-4.45,5.75-9.62,8.21-14.76a44.59,44.59,0,0,0-1.54,21.92C138.17,180.85,138.74,182.81,140.13,183.57Z"/><path class="cls-3" d="M141.33,184.25h0a2.74,2.74,0,0,1-1.33-.34c-1.58-.88-2.16-3.14-2.46-4.76a45.38,45.38,0,0,1,.52-18.53,75.37,75.37,0,0,1-6.66,11.53,2.66,2.66,0,0,1-1.26,1.12,1.83,1.83,0,0,1-2-1.07,5.54,5.54,0,0,1-.53-2.39,22.13,22.13,0,0,1,2.08-9.94c.42-1,.89-1.87,1.38-2.76-1.15,1.39-2.33,2.75-3.53,4a3.83,3.83,0,0,1-2.45,1.51,1.71,1.71,0,0,1-.59-.11c-1.26-.5-1.6-2.37-1.51-3.81a17,17,0,0,1,2.91-8.19,29.77,29.77,0,0,1,2.8-3.55l-5.1,3.63a5.33,5.33,0,0,1-2.77,1.17,1.94,1.94,0,0,1-1.3-.48,3.42,3.42,0,0,1-.92-3.08,7.74,7.74,0,0,1,1.15-2.87A25.09,25.09,0,0,1,131.16,135a.29.29,0,0,1,.39.2,46.39,46.39,0,0,0,16.12,22.29l.05,0a5.59,5.59,0,0,1,2.39,2.73,6.26,6.26,0,0,1,.19,2.15,44,44,0,0,1-4.12,17.28,10.41,10.41,0,0,1-2.39,3.53A3.89,3.89,0,0,1,141.33,184.25Zm-2-27.46a.35.35,0,0,1,.14,0,.41.41,0,0,1,.15.47A44.22,44.22,0,0,0,138.14,179c.27,1.46.78,3.5,2.12,4.24a2.85,2.85,0,0,0,3.17-.59,9.84,9.84,0,0,0,2.22-3.3,43.32,43.32,0,0,0,4-16.94,5.65,5.65,0,0,0-.15-1.86,4.94,4.94,0,0,0-2.14-2.36l-.05,0a47.18,47.18,0,0,1-16.26-22.31,24.62,24.62,0,0,0-10.81,10,7.3,7.3,0,0,0-1,2.56,2.75,2.75,0,0,0,.67,2.37,1.42,1.42,0,0,0,.95.34A4.77,4.77,0,0,0,123.3,150l8-5.68a.27.27,0,0,1,.41.1.42.42,0,0,1-.05.49,41.09,41.09,0,0,0-5.23,6.09,16.18,16.18,0,0,0-2.79,7.79c-.07,1.18.17,2.7,1.09,3.06a1.09,1.09,0,0,0,.4.07c.74,0,1.51-.75,2-1.31a96.92,96.92,0,0,0,7.46-9.18.27.27,0,0,1,.43,0,.41.41,0,0,1,0,.51,57.41,57.41,0,0,0-4.81,8.3,21.19,21.19,0,0,0-2,9.56,4.73,4.73,0,0,0,.44,2,1.25,1.25,0,0,0,1.31.76,2.33,2.33,0,0,0,.95-.89c3.25-4.44,5.76-9.66,8.18-14.7A.29.29,0,0,1,139.38,156.79Z"/><path class="cls-6" d="M133.78,138.78a2.8,2.8,0,0,0-3.1-2.14,7.36,7.36,0,0,0-3.5,1.93,31.6,31.6,0,0,0-4.57,4.4,14.81,14.81,0,0,0-3,5.95,17.78,17.78,0,0,1,4.8-3.9l-2.31-.48a10.27,10.27,0,0,0,3.57-.94C128.5,142.28,130.86,139.71,133.78,138.78Z"/><path class="cls-6" d="M135.89,145.49a40.59,40.59,0,0,0-11.19,15.58,12,12,0,0,1,1.37-8.09,4.72,4.72,0,0,0,2.35-.64l-1.94-.06a20.13,20.13,0,0,1,3.77-5.55C131.84,145.28,134.05,144.54,135.89,145.49Z"/><path class="cls-6" d="M131.76,163.85l-1.92-.08a23.25,23.25,0,0,1,7.37-12.83c.61-.51,1.61-.89,2-.11.27.59-.13,1.28-.49,1.79A58.46,58.46,0,0,0,129.75,172a11.36,11.36,0,0,1-.7-3.63,6.36,6.36,0,0,1,.54-3A2.38,2.38,0,0,1,131.76,163.85Z"/><path class="cls-6" d="M138.23,168.33a72.17,72.17,0,0,1,2.94-14.46c1.81-.66,3.71,1.18,4.27,3.33a15.59,15.59,0,0,1-.29,6.68l-3.6,18.82c-1.57-.22-2.51-2.46-2.17-4.31a7.19,7.19,0,0,1,2.92-4.28,9.31,9.31,0,0,0-3.57,2.31c.22-1.53-.95-2.93-.85-4.48a3.73,3.73,0,0,1,2.36-2.94,9.79,9.79,0,0,0,3.25-1.76A17.44,17.44,0,0,0,138.23,168.33Z"/><path class="cls-13" d="M163.84,138.78a2.8,2.8,0,0,1,3.1-2.14,7.36,7.36,0,0,1,3.5,1.93A31.6,31.6,0,0,1,175,143a14.68,14.68,0,0,1,3,5.95,17.78,17.78,0,0,0-4.8-3.9l2.31-.48a10.27,10.27,0,0,1-3.57-.94C169.12,142.28,166.76,139.71,163.84,138.78Z"/><path class="cls-13" d="M161.73,145.49a40.59,40.59,0,0,1,11.19,15.58,12,12,0,0,0-1.37-8.09,4.72,4.72,0,0,1-2.35-.64l1.94-.06a20.13,20.13,0,0,0-3.77-5.55C165.78,145.28,163.57,144.54,161.73,145.49Z"/><path class="cls-13" d="M165.86,163.85l1.92-.08a23.25,23.25,0,0,0-7.37-12.83c-.61-.51-1.61-.89-2-.11-.27.59.13,1.28.49,1.79A58.27,58.27,0,0,1,167.87,172a11.36,11.36,0,0,0,.7-3.63,6.36,6.36,0,0,0-.54-3A2.37,2.37,0,0,0,165.86,163.85Z"/><path class="cls-13" d="M159.39,168.33a72.17,72.17,0,0,0-2.94-14.46c-1.81-.66-3.71,1.18-4.27,3.33a15.59,15.59,0,0,0,.29,6.68l3.6,18.82c1.57-.22,2.51-2.46,2.17-4.31a7.21,7.21,0,0,0-2.91-4.28,9.35,9.35,0,0,1,3.56,2.31c-.22-1.53,1-2.93.85-4.48a3.73,3.73,0,0,0-2.35-2.94,9.74,9.74,0,0,1-3.26-1.76A17.38,17.38,0,0,1,159.39,168.33Z"/><path class="cls-5" d="M149.67,161.83h0a3.91,3.91,0,0,0,2.41-.86,52.33,52.33,0,0,0,16.78-24.38c1.09-3.22,1.9-6.85.89-10.1-6.68-1-12.61.9-18.47,4.88l0,.46-1.66,1.83L148,131.83l0-.46c-5.85-4-11.78-5.88-18.46-4.88-1,3.25-.2,6.88.88,10.1A52.35,52.35,0,0,0,147.27,161,3.88,3.88,0,0,0,149.67,161.83Z"/><path class="cls-3" d="M149.69,162.2h0a4.17,4.17,0,0,1-2.57-.92,52.73,52.73,0,0,1-16.9-24.56c-.93-2.72-2-6.76-.89-10.36a.34.34,0,0,1,.25-.23c6.32-.95,12.33.62,18.65,4.92a.37.37,0,0,1,.16.35l0,.29,1.34,1.47,1.34-1.47,0-.29a.39.39,0,0,1,.15-.35c6.32-4.3,12.33-5.87,18.65-4.92a.32.32,0,0,1,.25.24c1.13,3.59,0,7.63-.88,10.35a52.88,52.88,0,0,1-16.9,24.56A4.18,4.18,0,0,1,149.69,162.2Zm-19.87-35.37c-.94,3.31.08,7.06,1,9.62a51.89,51.89,0,0,0,16.67,24.21,3.55,3.55,0,0,0,2.23.8h0a3.57,3.57,0,0,0,2.24-.8,52,52,0,0,0,16.67-24.21c.86-2.56,1.89-6.31.94-9.62a22.57,22.57,0,0,0-3.27-.23c-4.87,0-9.66,1.62-14.64,5l0,.23a.44.44,0,0,1-.1.3l-1.66,1.83a.27.27,0,0,1-.42,0l-1.65-1.83a.39.39,0,0,1-.1-.3l0-.23c-5-3.35-9.78-5-14.65-5A22.77,22.77,0,0,0,129.82,126.83Z"/><path class="cls-10" d="M149.68,122,148,120.16l0-.47c-5.85-4-11.78-5.88-18.46-4.87-1,3.25-.2,6.88.88,10.09a52.33,52.33,0,0,0,16.79,24.39,3.88,3.88,0,0,0,2.4.86h0a4.21,4.21,0,0,0,.62,0V121.3Z"/><path class="cls-9" d="M169.77,114.82c-6.68-1-12.61.9-18.47,4.87l0,.47-1,1.14v28.81a4,4,0,0,0,1.79-.81,52.31,52.31,0,0,0,16.78-24.39C170,121.7,170.78,118.07,169.77,114.82Z"/><path class="cls-14" d="M149.49,148.79h0a3.11,3.11,0,0,0,2.05-.81c6.38-5.5,11.47-13.56,14.32-22.85.93-3,1.63-6.42.76-9.46-5.7-.94-10.76.84-15.75,4.57l0,.43-1.41,1.72-1.41-1.72,0-.43c-5-3.73-10.06-5.51-15.76-4.57-.86,3-.17,6.45.76,9.46,2.85,9.29,7.94,17.35,14.32,22.85A3.11,3.11,0,0,0,149.49,148.79Z"/><path class="cls-6" d="M115.42,199.43a69.62,69.62,0,0,1,.28-13.77A19.07,19.07,0,0,0,115.42,199.43Z"/><path class="cls-6" d="M109.55,173a18.76,18.76,0,0,0-.54,12.88C109,181.62,109.25,177.32,109.55,173Z"/><path class="cls-6" d="M106.88,162.33a9.92,9.92,0,0,0-3.38,9.27Q105.29,167,106.88,162.33Z"/><path class="cls-6" d="M103.52,157.25l2.15-7.67a9.91,9.91,0,0,0-2.84,7.53c0,.27.1.61.33.61S103.46,157.46,103.52,157.25Z"/><path class="cls-6" d="M123,211.38q-.45-6.91-.57-13.84A20,20,0,0,0,123,211.38Z"/><path class="cls-6" d="M131.63,220.68a133.66,133.66,0,0,1-1.73-14.85A21,21,0,0,0,131.63,220.68Z"/><path class="cls-6" d="M165.57,222.86a41,41,0,0,0-2-22.87C165,207.47,166.1,215.18,165.57,222.86Z"/><path class="cls-6" d="M169.7,194.29a48.34,48.34,0,0,1,4.13,18.87,21.55,21.55,0,0,0-.31-9.94A35.33,35.33,0,0,0,169.7,194.29Z"/><path class="cls-6" d="M182.11,200.62c.67-5.73-1.4-11.81-5.24-15.34C179.14,190.12,181.45,195.12,182.11,200.62Z"/><path class="cls-6" d="M182.24,174a44.57,44.57,0,0,1,6.57,11.08,32.7,32.7,0,0,0-1.78-7C186.06,175.93,184.29,174.08,182.24,174Z"/><path class="cls-6" d="M187.13,163.89a27.21,27.21,0,0,1,6.35,7.55C192.38,167.56,190.25,165.59,187.13,163.89Z"/><path class="cls-6" d="M189.34,153.56c1.79,1.67,3.64,3.26,5.53,4.75A7.88,7.88,0,0,0,189.34,153.56Z"/><path class="cls-2" d="M163.7,190.23a9.73,9.73,0,0,0-8.77-2.32,9.59,9.59,0,0,0-6.3,5.39,9.57,9.57,0,0,0-6.3-5.39,9.71,9.71,0,0,0-8.76,2.32c-2.21,2-3.8,5.45-2.88,8.55a9.65,9.65,0,0,0,3.61,4.65c2.89,2.28,6,4.14,8.78,6.61a23.91,23.91,0,0,1,3,3.14,3.27,3.27,0,0,0,2.58,1.32h0a3.3,3.3,0,0,0,2.58-1.32,22.65,22.65,0,0,1,3-3.14c2.77-2.47,5.89-4.33,8.77-6.61a9.61,9.61,0,0,0,3.62-4.65C167.49,195.68,165.9,192.2,163.7,190.23Z"/><path class="cls-3" d="M148.65,214.87h0a3.61,3.61,0,0,1-2.81-1.44,22.76,22.76,0,0,0-2.91-3.1,60.59,60.59,0,0,0-5.13-3.92c-1.2-.85-2.45-1.74-3.64-2.68a10,10,0,0,1-3.73-4.83c-1-3.42.84-7,3-9a10.19,10.19,0,0,1,6.78-2.66,9.4,9.4,0,0,1,2.24.27,9.81,9.81,0,0,1,6.23,5,9.85,9.85,0,0,1,6.24-5,9.34,9.34,0,0,1,2.24-.27,10.16,10.16,0,0,1,6.77,2.66c2.15,1.92,4,5.54,3,9a9.94,9.94,0,0,1-3.74,4.83c-1.19.94-2.43,1.83-3.64,2.68a58.9,58.9,0,0,0-5.12,3.92,23.49,23.49,0,0,0-2.92,3.1A3.57,3.57,0,0,1,148.65,214.87ZM140.16,188a9.66,9.66,0,0,0-6.41,2.51c-2,1.76-3.68,5.05-2.77,8.13a9.39,9.39,0,0,0,3.49,4.46c1.18.93,2.42,1.81,3.62,2.66a61.17,61.17,0,0,1,5.17,4,24.92,24.92,0,0,1,3,3.19,3,3,0,0,0,2.35,1.2h0a3,3,0,0,0,2.35-1.2,24.14,24.14,0,0,1,3-3.19,61.3,61.3,0,0,1,5.18-4c1.2-.85,2.44-1.73,3.61-2.66a9.35,9.35,0,0,0,3.5-4.46c.91-3.08-.8-6.37-2.77-8.13a9.66,9.66,0,0,0-6.41-2.51,8.76,8.76,0,0,0-2.11.25,9.24,9.24,0,0,0-6.1,5.21.29.29,0,0,1-.54,0,9.2,9.2,0,0,0-6.09-5.21A8.82,8.82,0,0,0,140.16,188Z"/><path class="cls-7" d="M139.28,189.74a9.58,9.58,0,0,0-4.92,1.84,7.23,7.23,0,0,0-2.72,5c-.16,2.06.82,4.27,2.45,5a8.29,8.29,0,0,1,1-6.85,8,8,0,0,1,5.18-3.47,11.29,11.29,0,0,1,6,.69C144.47,189.9,141.75,189.47,139.28,189.74Z"/><path class="cls-14" d="M151.86,210.87a36.52,36.52,0,0,1,6.77-5.9,26.63,26.63,0,0,0,4.14-3,7.71,7.71,0,0,0,2.44-4.84c.15-1.92-.82-4-2.39-4.5a5.35,5.35,0,0,1,.13,4.61,11.39,11.39,0,0,1-2.62,3.65c-2.65,2.73-5.5,5.14-8.35,7.55a10.86,10.86,0,0,1-2.89,2,3.21,3.21,0,0,1-3.21-.33c.51,1.21,1.14,2.54,2.23,2.9C149.51,213.4,150.8,212,151.86,210.87Z"/><path class="cls-9" d="M149.22,151.6v8.57s-8-5.54-12.06-12.24c0,0,4,4.54,3.86,2.3a40.31,40.31,0,0,0-1.63-6.91S145.12,150.45,149.22,151.6Z"/><path class="cls-12" d="M150.42,194.63c.57-2.19,2.46-3.42,4.18-4.42a3.52,3.52,0,0,1,1.21-.53,1.22,1.22,0,0,1,1.18.45,13,13,0,0,0-5.37,5.17c-.2.35-.48.76-.83.68S150.29,195.14,150.42,194.63Z"/><path class="cls-15" d="M112.8,117.89a14.3,14.3,0,0,1-13.07.89,18.47,18.47,0,0,1-9.53-10.71c-.94-2.59-1.41-5.41-2.44-7.95s-2.84-4.89-5.18-5.27c-1.88-.3-3.77.76-5.21,2.24a34.93,34.93,0,0,0-3.71,5.16C63.91,117,46.72,124,31.49,119.44a3.44,3.44,0,0,0-2.61-.11c-1.06.56-1.46,2.11-1.55,3.49a15,15,0,0,0,8,14C40,139.07,45.37,138.32,50,136s8.67-6.14,12.5-10.06c-4.39,7.35-11.2,12.58-18.62,14.3-1.49.34-3.16.65-4.11,2.07a5,5,0,0,0,0,4.91,6.06,6.06,0,0,0,3.6,2.82c5.27,1.61,10.45-2.56,14.77-6.5l11.28-10.29-11,15.47c-1,1.46-2.15,3.23-1.81,5.1a3.52,3.52,0,0,0,4.86,2.53c1.89-.8,3.22-2.78,4.45-4.68l6.81-10.49-3.76,12c-.31,1-.58,2.15,0,2.94a1.5,1.5,0,0,0,2.08.29,5.73,5.73,0,0,0,1.56-1.92l6.6-11.09c1.41,1.69,1,4.44,1,6.81s.8,5.41,2.8,5.45c1.42,0,2.49-1.62,2.93-3.24s.52-3.4,1.2-4.9,2.36-2.59,3.55-1.66,1.08,2.85,1.21,4.47,1.21,3.59,2.47,3a2.85,2.85,0,0,0,1.16-2,19.11,19.11,0,0,0,.43-6.66c3.16,3.43,8.2,3.24,12,.92s6.64-6.33,9.37-10.25c-1.6.85-3.6-.38-4.33-2.28a8,8,0,0,1,.42-6,19.93,19.93,0,0,1,3.39-4.76Z"/><path class="cls-3" d="M70.07,157a1.61,1.61,0,0,1-1.35-.7c-.65-.94-.35-2.26,0-3.31l3-9.68-5.56,8.57c-1.14,1.75-2.56,3.93-4.59,4.8a4,4,0,0,1-3.69-.37,3.66,3.66,0,0,1-1.58-2.43c-.34-1.95.71-3.75,1.89-5.42l9.14-12.87-9,8.22c-4.44,4-9.63,8.22-15,6.56a6.29,6.29,0,0,1-3.78-3,5.44,5.44,0,0,1,0-5.35c1-1.45,2.6-1.82,4-2.14l.25-.06a29.09,29.09,0,0,0,16.52-11.3,42.45,42.45,0,0,1-10.22,7.76c-5.27,2.65-10.58,2.94-15,.82A15.39,15.39,0,0,1,27,122.79c.07-1.11.39-3.08,1.73-3.8a3.65,3.65,0,0,1,2.79.08c15.05,4.47,32.26-2.54,41.88-17,.25-.37.49-.75.73-1.13a26.59,26.59,0,0,1,3-4.08c1.7-1.75,3.69-2.6,5.45-2.32,3.08.49,4.81,4,5.42,5.47a38.09,38.09,0,0,1,1.37,4.37c.32,1.2.65,2.43,1.08,3.59a18.16,18.16,0,0,0,9.35,10.52,14.09,14.09,0,0,0,12.82-.88.29.29,0,0,1,.42.16.41.41,0,0,1-.14.49,14.65,14.65,0,0,1-13.31.92,18.91,18.91,0,0,1-9.71-10.92c-.43-1.19-.77-2.44-1.1-3.65a35.38,35.38,0,0,0-1.34-4.28c-.56-1.37-2.16-4.62-4.94-5.06-1.59-.25-3.4.53-5,2.15a25.46,25.46,0,0,0-2.93,4c-.24.38-.49.76-.74,1.14A42.15,42.15,0,0,1,54.73,118.4a34.88,34.88,0,0,1-23.32,1.39,3.23,3.23,0,0,0-2.41-.12c-1.09.58-1.32,2.41-1.36,3.18a14.59,14.59,0,0,0,7.77,13.61c4.16,2,9.45,1.72,14.49-.81,4.81-2.42,8.93-6.44,12.42-10a.27.27,0,0,1,.41,0,.42.42,0,0,1,0,.48c-4.44,7.45-11.3,12.71-18.81,14.45l-.26.06c-1.4.32-2.84.65-3.67,1.88A4.57,4.57,0,0,0,40,147a5.71,5.71,0,0,0,3.42,2.66c5.14,1.58,10.18-2.49,14.5-6.43l11.28-10.29a.28.28,0,0,1,.41,0,.42.42,0,0,1,0,.49l-11,15.47c-1,1.41-2.06,3.07-1.75,4.79a2.9,2.9,0,0,0,1.27,1.94,3.48,3.48,0,0,0,3.19.32c1.86-.8,3.21-2.88,4.3-4.56l6.81-10.49a.28.28,0,0,1,.4-.1.41.41,0,0,1,.14.45l-3.77,12a3.23,3.23,0,0,0-.08,2.58,1.23,1.23,0,0,0,1.69.2,5.27,5.27,0,0,0,1.46-1.82l6.6-11.08a.3.3,0,0,1,.23-.15.26.26,0,0,1,.24.11c1.31,1.57,1.2,4,1.11,6.11,0,.33,0,.65,0,1a7,7,0,0,0,1.11,4.3,1.78,1.78,0,0,0,1.38.76h0c1.24,0,2.2-1.49,2.61-3,.16-.59.27-1.22.38-1.82a13,13,0,0,1,.84-3.14,3.93,3.93,0,0,1,2.22-2.11,1.89,1.89,0,0,1,1.77.32c1.1.86,1.2,2.54,1.3,4,0,.24,0,.48,0,.72a3.83,3.83,0,0,0,1.16,2.57.83.83,0,0,0,.89.1c.42-.2.73-.75,1-1.73a19,19,0,0,0,.43-6.51.38.38,0,0,1,.16-.38.27.27,0,0,1,.35.06c3.23,3.51,8.31,2.91,11.66.87,3.51-2.15,6.26-5.86,8.68-9.3a4,4,0,0,1-3.78-2.75,8.48,8.48,0,0,1,.43-6.36,20,20,0,0,1,3.45-4.85.27.27,0,0,1,.43,0,.41.41,0,0,1,0,.52,19.64,19.64,0,0,0-3.32,4.67,7.56,7.56,0,0,0-.42,5.7c.63,1.63,2.45,2.88,3.93,2.1a.28.28,0,0,1,.37.11.43.43,0,0,1,0,.46c-2.6,3.73-5.56,7.95-9.47,10.34-3.34,2-8.32,2.69-11.77-.4a19.49,19.49,0,0,1-.52,5.91,3.18,3.18,0,0,1-1.34,2.21,1.32,1.32,0,0,1-1.43-.16,4.54,4.54,0,0,1-1.46-3.12c0-.24,0-.49,0-.74-.08-1.37-.17-2.8-1-3.46a1.36,1.36,0,0,0-1.28-.21,3.23,3.23,0,0,0-1.83,1.74,12.2,12.2,0,0,0-.78,2.94c-.11.62-.23,1.27-.4,1.89C85.72,154.22,84.55,156,83,156h0a2.33,2.33,0,0,1-1.82-1,8,8,0,0,1-1.27-4.84c0-.32,0-.65,0-1,.08-1.91.17-3.87-.69-5.22l-6.38,10.7a5.74,5.74,0,0,1-1.66,2A2.09,2.09,0,0,1,70.07,157Z"/><path class="cls-15" d="M76.31,110.83a32.22,32.22,0,0,0-5.75,6.9,6.67,6.67,0,0,0-1.28,3.76,3.9,3.9,0,0,0,4.14,3.58c1.9-.17,3.56-1.49,5.13-2.77a11.23,11.23,0,0,0-3.11,5.26c-.39,2.13.78,4.79,2.61,4.77a2,2,0,0,1,1.08.08c.63.35.6,1.42.82,2.21a2.63,2.63,0,0,0,3.3,1.78,6.49,6.49,0,0,0,3.11-2.87,22.45,22.45,0,0,1,2.56-3.65Z"/><path class="cls-3" d="M82.49,136.88a2.91,2.91,0,0,1-2.84-2.14c-.06-.24-.11-.5-.15-.74-.11-.67-.2-1.09-.5-1.26a1.16,1.16,0,0,0-.65-.06l-.3,0a2.59,2.59,0,0,1-2.11-1.26,5.6,5.6,0,0,1-.8-4,8.55,8.55,0,0,1,1.41-3.24,6.87,6.87,0,0,1-3.1,1.19,4.22,4.22,0,0,1-3.34-1.31A4,4,0,0,1,69,121.51a7,7,0,0,1,1.35-4,32.34,32.34,0,0,1,5.81-7,.28.28,0,0,1,.43.07.44.44,0,0,1-.06.52A31.5,31.5,0,0,0,70.81,118a6.31,6.31,0,0,0-1.22,3.51,3.25,3.25,0,0,0,.92,2.1,3.68,3.68,0,0,0,2.89,1.14c1.86-.16,3.52-1.51,5-2.7a.28.28,0,0,1,.42.07.42.42,0,0,1,0,.5c-1.17,1.32-2.64,3-3,5.07a4.7,4.7,0,0,0,.68,3.33A2,2,0,0,0,78,132h.27a1.52,1.52,0,0,1,1,.12,2.3,2.3,0,0,1,.84,1.78,5.44,5.44,0,0,0,.14.66A2.34,2.34,0,0,0,83.17,136a6.38,6.38,0,0,0,3-2.73l.6-1a14.77,14.77,0,0,1,2-2.75.28.28,0,0,1,.44.05.41.41,0,0,1,0,.51,14.65,14.65,0,0,0-1.91,2.63c-.2.32-.4.65-.61,1a6.89,6.89,0,0,1-3.27,3A2.63,2.63,0,0,1,82.49,136.88Z"/><path class="cls-10" d="M84.79,102.33c.43,0,.78-.45.88-1a2.7,2.7,0,0,0-.18-1.48,3.91,3.91,0,0,0-4.17-2.59,5.2,5.2,0,0,0-3.7,3.69c-.22.68-.26,1.65.3,2s1-.12,1.48-.44a4.79,4.79,0,0,1,4.68-.42A1.55,1.55,0,0,0,84.79,102.33Z"/><path class="cls-10" d="M74.44,103.58A4.69,4.69,0,0,0,73,107.05a3.09,3.09,0,0,0,2.67-1.76,2.25,2.25,0,0,0,.29-1.14,1,1,0,0,0-.57-.91A1,1,0,0,0,74.44,103.58Z"/><path class="cls-10" d="M33.22,121.94a5.93,5.93,0,0,0-2-.72,1.75,1.75,0,0,0-1.77,1.08,2.34,2.34,0,0,0,.42,2.19,4.48,4.48,0,0,0,1.71,1.2A21.91,21.91,0,0,0,46.46,127a25.15,25.15,0,0,0,13-8.78,64.62,64.62,0,0,1-12.9,4.8A20.76,20.76,0,0,1,33.22,121.94Z"/><path class="cls-10" d="M66.6,113.15c-.37-.26-.83,0-1.19.3A30.57,30.57,0,0,0,61.6,117a1.1,1.1,0,0,0-.37,1c.15.47.71.41,1.1.23a11.27,11.27,0,0,0,4-3,2.49,2.49,0,0,0,.6-1A1.07,1.07,0,0,0,66.6,113.15Z"/><path class="cls-16" d="M81.76,110a2.94,2.94,0,0,0-2.12.77,20,20,0,0,0-6.46,8.43,2.44,2.44,0,0,0-.07,2.3c.53.65,1.43.28,2.1-.12L82.47,117a14.78,14.78,0,0,0-2.81,6.17,4.73,4.73,0,0,0,3-.56,10.09,10.09,0,0,0-1.7,3.5,3.63,3.63,0,0,0,1,3.6c1,.71,2.36.19,3.37-.57A11.49,11.49,0,0,0,89.14,124a37.72,37.72,0,0,1-4.91-10.36C83.76,112.09,83.13,110.22,81.76,110Z"/><path class="cls-17" d="M50.61,145.81c6.87-4,13.81-8.36,19-15.11a5.17,5.17,0,0,0,1.27-2.83c0-1.09-.82-2.26-1.69-1.94a56.67,56.67,0,0,1-22.26,18.49c-1.41.63-3,1.32-3.69,2.89C45.58,148.52,48.28,147.16,50.61,145.81Z"/><path class="cls-17" d="M60.22,155.57a78.94,78.94,0,0,0,15.65-21.23,2.67,2.67,0,0,0,.4-1.93,1.26,1.26,0,0,0-2-.5,5.64,5.64,0,0,0-1.39,2.16c-1.86,3.87-4.8,6.8-7.39,10S60.51,151.12,60.22,155.57Z"/><path class="cls-17" d="M78,136.08a57.56,57.56,0,0,0-6.8,16.68,37.84,37.84,0,0,0,8.54-13.33,8.31,8.31,0,0,0,.67-2.82C80.38,135.62,78.66,136.58,78,136.08Z"/><path class="cls-17" d="M84.2,150.94a26.57,26.57,0,0,0,3-16,23,23,0,0,0-4.69,15.3c0,.61.21,1.38.73,1.45S84,151.34,84.2,150.94Z"/><path class="cls-17" d="M91.12,137.36a20.66,20.66,0,0,0,1.48,9.25c.23.54.59,1.15,1.09,1.09a.91.91,0,0,0,.69-.7,3.06,3.06,0,0,0,.08-1.13C94.23,142.31,93.67,139.21,91.12,137.36Z"/><path class="cls-12" d="M42.27,145.06A5.79,5.79,0,0,0,46,142.28a4.75,4.75,0,0,0-4.7.45,1.66,1.66,0,0,0-.64,1.65C40.88,145.07,41.66,145.18,42.27,145.06Z"/><path class="cls-12" d="M59.35,153.56a5.07,5.07,0,0,0,.93-4.26,7.76,7.76,0,0,0-2.6,2.73,1.94,1.94,0,0,0-.27,1.76.9.9,0,0,0,1,.44A1.86,1.86,0,0,0,59.35,153.56Z"/><path class="cls-12" d="M81.84,150.23l-.07-7.13A18.53,18.53,0,0,0,80.7,150a2,2,0,0,0,.18.91.5.5,0,0,0,.68.28C81.82,151,81.85,150.58,81.84,150.23Z"/><path class="cls-12" d="M90.51,143.29a4,4,0,0,0-.31-2.82c-.38-.87-.9-1.65-1.21-2.56a10,10,0,0,0-.5,4.45,2.93,2.93,0,0,0,.35,1.23.93.93,0,0,0,.94.53A1.19,1.19,0,0,0,90.51,143.29Z"/><path class="cls-15" d="M187.2,117.89a14.3,14.3,0,0,0,13.07.89,18.47,18.47,0,0,0,9.53-10.71c.94-2.59,1.41-5.41,2.44-7.95s2.84-4.89,5.18-5.27c1.88-.3,3.77.76,5.21,2.24a34.93,34.93,0,0,1,3.71,5.16c9.75,14.7,26.94,21.71,42.17,17.19a3.44,3.44,0,0,1,2.61-.11c1.06.56,1.46,2.11,1.55,3.49a15,15,0,0,1-8,14c-4.68,2.27-10.08,1.52-14.73-.82s-8.67-6.14-12.5-10.06c4.39,7.35,11.2,12.58,18.62,14.3,1.49.34,3.16.65,4.11,2.07a5,5,0,0,1,0,4.91,6.06,6.06,0,0,1-3.6,2.82c-5.27,1.61-10.45-2.56-14.77-6.5l-11.28-10.29,11,15.47c1,1.46,2.15,3.23,1.81,5.1a3.52,3.52,0,0,1-4.86,2.53c-1.89-.8-3.22-2.78-4.44-4.68l-6.82-10.49,3.76,12c.31,1,.58,2.15,0,2.94a1.5,1.5,0,0,1-2.08.29,5.73,5.73,0,0,1-1.56-1.92l-6.6-11.09c-1.41,1.69-1.05,4.44-1,6.81s-.8,5.41-2.8,5.45c-1.42,0-2.49-1.62-2.93-3.24s-.52-3.4-1.2-4.9-2.36-2.59-3.55-1.66-1.08,2.85-1.21,4.47-1.21,3.59-2.47,3a2.85,2.85,0,0,1-1.16-2,19.11,19.11,0,0,1-.43-6.66c-3.16,3.43-8.2,3.24-12,.92s-6.64-6.33-9.37-10.25c1.6.85,3.6-.38,4.33-2.28a8,8,0,0,0-.42-6,19.93,19.93,0,0,0-3.39-4.76Z"/><path class="cls-3" d="M229.93,157a2.09,2.09,0,0,1-1.11-.33,5.74,5.74,0,0,1-1.66-2l-6.38-10.7c-.86,1.35-.77,3.32-.69,5.22,0,.33,0,.66,0,1a8,8,0,0,1-1.27,4.84,2.33,2.33,0,0,1-1.82,1h0c-1.55,0-2.72-1.74-3.19-3.49-.17-.62-.29-1.26-.4-1.89a12.2,12.2,0,0,0-.78-2.94,3.23,3.23,0,0,0-1.83-1.74,1.36,1.36,0,0,0-1.28.21c-.85.66-.94,2.09-1,3.46,0,.25,0,.5-.05.74a4.54,4.54,0,0,1-1.46,3.12,1.32,1.32,0,0,1-1.43.16,3.18,3.18,0,0,1-1.34-2.21,19.49,19.49,0,0,1-.52-5.91c-3.45,3.09-8.43,2.43-11.77.4-3.91-2.39-6.87-6.61-9.47-10.34a.43.43,0,0,1,0-.46.28.28,0,0,1,.37-.11c1.48.78,3.3-.47,3.93-2.1a7.56,7.56,0,0,0-.42-5.7,19.64,19.64,0,0,0-3.32-4.67.41.41,0,0,1,0-.52.27.27,0,0,1,.43,0,20,20,0,0,1,3.45,4.85,8.48,8.48,0,0,1,.43,6.36,4,4,0,0,1-3.78,2.75c2.42,3.44,5.17,7.15,8.68,9.3,3.36,2,8.43,2.64,11.66-.87a.27.27,0,0,1,.35-.06.38.38,0,0,1,.16.38,19,19,0,0,0,.43,6.51c.15.61.42,1.46,1,1.73a.83.83,0,0,0,.89-.1,3.85,3.85,0,0,0,1.16-2.57c0-.24,0-.48,0-.72.1-1.48.2-3.16,1.3-4a1.89,1.89,0,0,1,1.77-.32,3.93,3.93,0,0,1,2.22,2.11,13,13,0,0,1,.84,3.14c.11.6.22,1.23.38,1.82.41,1.49,1.37,3,2.61,3h0a1.78,1.78,0,0,0,1.38-.76,7,7,0,0,0,1.11-4.3c0-.32,0-.64,0-1-.09-2.13-.2-4.54,1.11-6.11a.26.26,0,0,1,.24-.11.3.3,0,0,1,.23.15l6.6,11.08a5.27,5.27,0,0,0,1.46,1.82,1.23,1.23,0,0,0,1.69-.2,3.2,3.2,0,0,0-.09-2.58l-3.76-12a.41.41,0,0,1,.14-.45.28.28,0,0,1,.4.1l6.81,10.49c1.09,1.68,2.44,3.76,4.3,4.56a3.48,3.48,0,0,0,3.19-.32,2.9,2.9,0,0,0,1.27-1.94c.31-1.72-.74-3.38-1.75-4.79l-11-15.47a.42.42,0,0,1,0-.49.27.27,0,0,1,.41,0l11.28,10.29c4.32,3.94,9.36,8,14.5,6.43A5.71,5.71,0,0,0,260,147a4.57,4.57,0,0,0,0-4.48c-.83-1.23-2.27-1.56-3.67-1.88l-.26-.06c-7.51-1.74-14.37-7-18.81-14.45a.42.42,0,0,1,0-.48.27.27,0,0,1,.41,0c3.49,3.57,7.61,7.59,12.42,10,5,2.53,10.33,2.83,14.49.81a14.59,14.59,0,0,0,7.77-13.61c0-.77-.27-2.6-1.36-3.18a3.17,3.17,0,0,0-2.39.12,34.93,34.93,0,0,1-23.34-1.39,42.15,42.15,0,0,1-19.17-15.92c-.25-.38-.5-.76-.74-1.14a26.11,26.11,0,0,0-2.93-4c-1.57-1.62-3.38-2.41-5-2.15-2.78.44-4.38,3.69-4.94,5.06a35.38,35.38,0,0,0-1.34,4.28c-.33,1.21-.67,2.46-1.1,3.65a18.91,18.91,0,0,1-9.71,10.92,14.62,14.62,0,0,1-13.31-.92.41.41,0,0,1-.14-.49.29.29,0,0,1,.42-.16,14.09,14.09,0,0,0,12.82.88,18.16,18.16,0,0,0,9.35-10.52c.43-1.16.76-2.39,1.08-3.59A38.09,38.09,0,0,1,212,100c.61-1.48,2.34-5,5.42-5.47,1.76-.28,3.75.57,5.45,2.32a26.59,26.59,0,0,1,3,4.08c.24.38.48.76.73,1.13,9.62,14.51,26.83,21.52,41.86,17.06a3.66,3.66,0,0,1,2.81-.09c1.34.72,1.66,2.69,1.73,3.8a15.39,15.39,0,0,1-8.16,14.35c-4.38,2.13-9.69,1.83-15-.82a42.45,42.45,0,0,1-10.22-7.76,29.09,29.09,0,0,0,16.52,11.3l.25.06c1.44.32,3.07.69,4,2.14a5.44,5.44,0,0,1,0,5.35,6.29,6.29,0,0,1-3.78,3c-5.4,1.66-10.59-2.52-15-6.56l-9-8.22,9.14,12.87c1.18,1.67,2.23,3.47,1.89,5.42a3.66,3.66,0,0,1-1.58,2.43,4,4,0,0,1-3.69.37c-2-.87-3.45-3.05-4.59-4.8l-5.56-8.57,3,9.68c.33,1,.63,2.37,0,3.31A1.61,1.61,0,0,1,229.93,157Z"/><path class="cls-15" d="M223.69,110.83a32.22,32.22,0,0,1,5.75,6.9,6.67,6.67,0,0,1,1.28,3.76,3.9,3.9,0,0,1-4.14,3.58c-1.9-.17-3.56-1.49-5.13-2.77a11.23,11.23,0,0,1,3.11,5.26c.39,2.13-.78,4.79-2.61,4.77a2,2,0,0,0-1.08.08c-.63.35-.6,1.42-.82,2.21a2.63,2.63,0,0,1-3.3,1.78,6.49,6.49,0,0,1-3.11-2.87,22.45,22.45,0,0,0-2.56-3.65Z"/><path class="cls-3" d="M217.51,136.88a2.63,2.63,0,0,1-.84-.13,6.89,6.89,0,0,1-3.27-3c-.21-.32-.41-.65-.61-1a14.65,14.65,0,0,0-1.91-2.63.41.41,0,0,1,0-.51.28.28,0,0,1,.44-.05,14.77,14.77,0,0,1,2,2.75l.6,1a6.38,6.38,0,0,0,3,2.73,2.33,2.33,0,0,0,2.93-1.53,5.44,5.44,0,0,0,.14-.66,2.3,2.3,0,0,1,.84-1.78,1.53,1.53,0,0,1,.95-.12H222a2,2,0,0,0,1.6-1,4.7,4.7,0,0,0,.68-3.33c-.38-2.1-1.85-3.75-3-5.07a.42.42,0,0,1,0-.5.27.27,0,0,1,.41-.07c1.46,1.19,3.12,2.54,5,2.7a3.69,3.69,0,0,0,2.89-1.14,3.25,3.25,0,0,0,.92-2.1,6.31,6.31,0,0,0-1.22-3.51,31.5,31.5,0,0,0-5.69-6.82.44.44,0,0,1-.06-.52.28.28,0,0,1,.43-.07,32.34,32.34,0,0,1,5.81,7,7,7,0,0,1,1.35,4,4,4,0,0,1-1.14,2.61,4.22,4.22,0,0,1-3.34,1.31,6.87,6.87,0,0,1-3.1-1.19,8.55,8.55,0,0,1,1.41,3.24,5.6,5.6,0,0,1-.8,4A2.57,2.57,0,0,1,222,132.7h0l-.3,0a1.16,1.16,0,0,0-.65.06c-.3.17-.39.59-.5,1.26,0,.24-.09.5-.15.74A2.91,2.91,0,0,1,217.51,136.88Z"/><path class="cls-10" d="M215.21,102.33c-.43,0-.78-.45-.88-1a2.7,2.7,0,0,1,.18-1.48,3.91,3.91,0,0,1,4.17-2.59,5.2,5.2,0,0,1,3.7,3.69c.22.68.26,1.65-.3,2s-1-.12-1.48-.44a4.79,4.79,0,0,0-4.68-.42A1.55,1.55,0,0,1,215.21,102.33Z"/><path class="cls-10" d="M225.56,103.58a4.69,4.69,0,0,1,1.47,3.47,3.09,3.09,0,0,1-2.67-1.76,2.25,2.25,0,0,1-.29-1.14,1,1,0,0,1,.57-.91A1,1,0,0,1,225.56,103.58Z"/><path class="cls-10" d="M266.78,121.94a5.93,5.93,0,0,1,2-.72,1.75,1.75,0,0,1,1.77,1.08,2.34,2.34,0,0,1-.42,2.19,4.48,4.48,0,0,1-1.71,1.2A21.91,21.91,0,0,1,253.54,127a25.15,25.15,0,0,1-13-8.78,64.62,64.62,0,0,0,12.9,4.8A20.76,20.76,0,0,0,266.78,121.94Z"/><path class="cls-10" d="M233.4,113.15c.37-.26.83,0,1.19.3A30.57,30.57,0,0,1,238.4,117a1.1,1.1,0,0,1,.37,1c-.15.47-.71.41-1.1.23a11.27,11.27,0,0,1-4-3,2.49,2.49,0,0,1-.6-1A1.07,1.07,0,0,1,233.4,113.15Z"/><path class="cls-16" d="M218.24,110a2.94,2.94,0,0,1,2.12.77,20,20,0,0,1,6.46,8.43,2.44,2.44,0,0,1,.07,2.3c-.53.65-1.43.28-2.1-.12L217.53,117a14.78,14.78,0,0,1,2.81,6.17,4.73,4.73,0,0,1-3-.56,10.09,10.09,0,0,1,1.7,3.5,3.63,3.63,0,0,1-1,3.6c-1,.71-2.36.19-3.37-.57a11.49,11.49,0,0,1-3.76-5.11,37.72,37.72,0,0,0,4.91-10.36C216.24,112.09,216.87,110.22,218.24,110Z"/><path class="cls-17" d="M249.39,145.81c-6.87-4-13.81-8.36-18.95-15.11a5.17,5.17,0,0,1-1.27-2.83c0-1.09.82-2.26,1.69-1.94a56.67,56.67,0,0,0,22.26,18.49c1.41.63,3,1.32,3.69,2.89C254.42,148.52,251.72,147.16,249.39,145.81Z"/><path class="cls-17" d="M239.78,155.57a78.94,78.94,0,0,1-15.65-21.23,2.67,2.67,0,0,1-.4-1.93,1.26,1.26,0,0,1,2-.5,5.64,5.64,0,0,1,1.39,2.16c1.86,3.87,4.8,6.8,7.39,10S239.49,151.12,239.78,155.57Z"/><path class="cls-17" d="M222.05,136.08a57.56,57.56,0,0,1,6.8,16.68,37.84,37.84,0,0,1-8.54-13.33,8.31,8.31,0,0,1-.67-2.82C219.62,135.62,221.34,136.58,222.05,136.08Z"/><path class="cls-17" d="M215.8,150.94a26.57,26.57,0,0,1-3-16,23,23,0,0,1,4.69,15.3c0,.61-.21,1.38-.73,1.45S216,151.34,215.8,150.94Z"/><path class="cls-17" d="M208.88,137.36a20.66,20.66,0,0,1-1.48,9.25c-.23.54-.59,1.15-1.09,1.09a.91.91,0,0,1-.69-.7,3.06,3.06,0,0,1-.08-1.13C205.77,142.31,206.33,139.21,208.88,137.36Z"/><path class="cls-12" d="M257.73,145.06a5.79,5.79,0,0,1-3.74-2.78,4.75,4.75,0,0,1,4.7.45,1.66,1.66,0,0,1,.64,1.65C259.12,145.07,258.34,145.18,257.73,145.06Z"/><path class="cls-12" d="M240.65,153.56a5.07,5.07,0,0,1-.93-4.26,7.76,7.76,0,0,1,2.6,2.73,1.94,1.94,0,0,1,.27,1.76.9.9,0,0,1-1,.44A1.86,1.86,0,0,1,240.65,153.56Z"/><path class="cls-12" d="M218.16,150.23l.07-7.13A18.53,18.53,0,0,1,219.3,150a2,2,0,0,1-.18.91.5.5,0,0,1-.68.28C218.18,151,218.15,150.58,218.16,150.23Z"/><path class="cls-12" d="M209.49,143.29a4,4,0,0,1,.31-2.82c.38-.87.9-1.65,1.21-2.56a10,10,0,0,1,.5,4.45,2.93,2.93,0,0,1-.35,1.23.93.93,0,0,1-.94.53A1.19,1.19,0,0,1,209.49,143.29Z"/><path class="cls-6" d="M91.65,44.74a22.68,22.68,0,0,1,.91,7.62,42.63,42.63,0,0,0,3.72-19.9,75.27,75.27,0,0,1,6.65,25.12c.44,4.24.63,8.55,1.73,12.62s3.28,7.94,6.57,9.6c-5.93,3.52-9.47,11.09-11.22,18.72-.87,3.75-1.24,8.26,1,11.1-3.16-.25-5.35-4-6.11-7.67s-.59-7.58-1.54-11.18A15.91,15.91,0,0,0,84,79.85l6.19-.27c-3.46-4.49-3.85-11.31-2.84-17.29S90.56,50.7,91.65,44.74Z"/><path class="cls-3" d="M101,110h0c-3.33-.25-5.61-4.17-6.39-8a44.88,44.88,0,0,1-.66-5.14,36.58,36.58,0,0,0-.87-6A15.55,15.55,0,0,0,83.89,80.2a.37.37,0,0,1-.21-.4.34.34,0,0,1,.3-.32l5.55-.24c-2.75-4-3.65-10.16-2.49-17a88.59,88.59,0,0,1,2.22-9.12c.77-2.74,1.56-5.58,2.09-8.44a.33.33,0,0,1,.28-.29.31.31,0,0,1,.31.25,23.24,23.24,0,0,1,1,6.18A42.51,42.51,0,0,0,96,32.49a.4.4,0,0,1,.22-.38.29.29,0,0,1,.36.17,75.48,75.48,0,0,1,6.69,25.26c.09.9.17,1.81.25,2.72A57.59,57.59,0,0,0,105,70.08c1.22,4.53,3.56,8,6.4,9.39a.35.35,0,0,1,.19.32.37.37,0,0,1-.17.34c-6.87,4.07-9.88,13.33-11.07,18.48-1.12,4.89-.82,8.49.9,10.71a.43.43,0,0,1,.12.3.33.33,0,0,1-.3.36ZM85.54,80.15a16.55,16.55,0,0,1,8.12,10.51,37.68,37.68,0,0,1,.89,6.15,47.4,47.4,0,0,0,.64,5c.67,3.21,2.47,6.53,5.08,7.26-1.45-2.43-1.64-6-.56-10.7,1.18-5.14,4.14-14.25,10.83-18.6-2.75-1.67-5-5.09-6.18-9.51a58.94,58.94,0,0,1-1.48-10c-.08-.9-.16-1.81-.25-2.71a76.23,76.23,0,0,0-6-23.65,43.21,43.21,0,0,1-3.81,18.55.29.29,0,0,1-.35.18.38.38,0,0,1-.23-.37,22,22,0,0,0-.56-6.22c-.51,2.45-1.19,4.86-1.85,7.21a89.41,89.41,0,0,0-2.2,9c-1.18,7-.17,13.16,2.77,17a.41.41,0,0,1,0,.39.3.3,0,0,1-.27.22Z"/><path class="cls-7" d="M98.14,87a35.47,35.47,0,0,1-7.78-17.52,11.23,11.23,0,0,0,3.51,4.17,26.56,26.56,0,0,1-2-17.63,42.79,42.79,0,0,0,2.26,7.5c-.18-7,2.47-13.54,5.06-19.79a42.45,42.45,0,0,0,2.24,15c1.49,4.8,3.41,9.39,4.93,14.18a12.07,12.07,0,0,1,.73,6.27A10.43,10.43,0,0,1,103.88,84a8.25,8.25,0,0,1-3.8,2.57,3,3,0,0,1-3.57-2.22Z"/><path class="cls-4" d="M112.38,105.48c3.51-.18,6.72-2.59,10.22-2.9,4.82-.43,16.37,0,19.75,4.13,6.36,7.79,3.45,21.24,4.72,32a40.35,40.35,0,0,0-6.77-5.17,11.63,11.63,0,0,0-7.82-1.61c-4.42.87-7.77,5-11.48,8a25.31,25.31,0,0,1-19.36,5.63,11.11,11.11,0,0,0,4.16-2.41,11.23,11.23,0,0,1-9.38-2A15.58,15.58,0,0,1,90.78,132a3.56,3.56,0,0,0,3.68,2c-2.11-3.71-4.3-7.66-4.58-12.14-.25-3.81.91-7.52,1.66-11.24a53.26,53.26,0,0,0-1.32-26.16c4.06,3.21,6.72,8.32,9.88,12.74S107.52,105.73,112.38,105.48Z"/><path class="cls-3" d="M104.91,146.21a24.07,24.07,0,0,1-3.3-.23.35.35,0,0,1-.27-.34.36.36,0,0,1,.22-.38,10.71,10.71,0,0,0,2.93-1.46,11.75,11.75,0,0,1-8.24-2.3,16,16,0,0,1-5.77-9.4.4.4,0,0,1,.18-.43.28.28,0,0,1,.38.14,3.38,3.38,0,0,0,2.87,1.91c-1.87-3.31-4-7.34-4.34-11.8A31.19,31.19,0,0,1,90.7,113c.19-.81.38-1.65.54-2.48a53.1,53.1,0,0,0-1.3-25.94A.42.42,0,0,1,90,84.2a.26.26,0,0,1,.36,0c3,2.4,5.32,5.88,7.53,9.24.78,1.19,1.59,2.42,2.41,3.58,2.72,3.81,7,8.37,12,8.11a16.58,16.58,0,0,0,5.17-1.44,18.3,18.3,0,0,1,5-1.46c1-.08,2.14-.13,3.38-.13,3.06,0,13.29.32,16.61,4.38,4.47,5.47,4.45,13.72,4.43,21.7a90.53,90.53,0,0,0,.37,10.51.39.39,0,0,1-.15.37.26.26,0,0,1-.34,0,39.59,39.59,0,0,0-6.71-5.14,11.32,11.32,0,0,0-7.64-1.58c-3.2.63-5.9,3.1-8.51,5.48-.92.85-1.88,1.72-2.85,2.51A26,26,0,0,1,104.91,146.21Zm-1.76-.8a25.31,25.31,0,0,0,17.67-5.73c1-.77,1.91-1.64,2.83-2.48,2.67-2.44,5.43-5,8.78-5.62a9.29,9.29,0,0,1,1.76-.17,13,13,0,0,1,6.24,1.8,37,37,0,0,1,6.24,4.71c-.3-3.14-.3-6.5-.29-9.76,0-7.83,0-15.93-4.25-21.19-2.5-3.06-10-4.15-16.17-4.15-1.22,0-2.38,0-3.34.12a17.93,17.93,0,0,0-4.88,1.43,17.35,17.35,0,0,1-5.34,1.48H112c-4.06,0-8.13-2.82-12.09-8.39-.84-1.17-1.65-2.4-2.43-3.59a41.87,41.87,0,0,0-6.6-8.42,54,54,0,0,1,1,25.28c-.17.83-.36,1.68-.54,2.49a30.52,30.52,0,0,0-1.12,8.64c.29,4.5,2.55,8.46,4.54,12a.39.39,0,0,1,0,.35.32.32,0,0,1-.23.22,3.64,3.64,0,0,1-3-.94,14.89,14.89,0,0,0,5.09,7.42,11.29,11.29,0,0,0,6.67,2.26,10.79,10.79,0,0,0,2.48-.3.3.3,0,0,1,.35.2.41.41,0,0,1-.1.45A12.08,12.08,0,0,1,103.15,145.41Z"/><path class="cls-7" d="M105.44,119.31Q98.92,105.59,93.61,91.1q2,10,4.86,19.64a20.71,20.71,0,0,0,2.36,5.74C102,118.15,103.65,119.42,105.44,119.31Z"/><path class="cls-3" d="M121.93,123a12.4,12.4,0,0,0,4.22-4.89,19.15,19.15,0,0,1-20.79,3.31,3.47,3.47,0,0,0,2.45-.66,12.87,12.87,0,0,1-5.79-5.44,44.53,44.53,0,0,1-3.48-7.9,184.31,184.31,0,0,1-7.05-23.59,12.32,12.32,0,0,0,10.28,1.36c.65-.2,1.4-.44,1.93,0a2.91,2.91,0,0,1,.61,2c.41,6.61,2.94,13.12,7.23,17.33s10.36,5.9,15.64,3.84c1.26-.49,2.54-1.18,3.83-.91,1.76.36,3,2.54,3,4.66a8,8,0,0,1-2.42,5.47,14.87,14.87,0,0,1-4.72,2.9A26.6,26.6,0,0,0,121.93,123Z"/><path class="cls-5" d="M112.07,77.36c-2.48-1.28-5.3-2.1-7.87-1.11S99.66,80,98.51,83c-2.31,6-2,13-.11,19.21,1.33,4.46,3.45,8.69,6.58,11.58a14.16,14.16,0,0,0,12,3.78,15.87,15.87,0,0,0,10.59-7.71,9.62,9.62,0,0,0,1.26-3,11.71,11.71,0,0,0-.13-4.13C126.89,91.73,120.65,81.78,112.07,77.36Z"/><path class="cls-3" d="M114.75,118.1h0a14.68,14.68,0,0,1-10-4c-2.88-2.66-5.19-6.72-6.68-11.74-2.08-7-2-13.92.12-19.5.79-2,2.6-5.65,5.88-6.91,2.24-.86,5-.49,8.08,1.12,8.48,4.37,14.92,14.18,16.82,25.58a12.34,12.34,0,0,1,.12,4.29,10,10,0,0,1-1.31,3.15A16.28,16.28,0,0,1,117,117.9,13.21,13.21,0,0,1,114.75,118.1Zm-8.12-41.92a6.42,6.42,0,0,0-2.33.42c-3,1.17-4.76,4.59-5.51,6.52-2.09,5.4-2.12,12.13-.1,18.94,1.46,4.89,3.69,8.84,6.47,11.41a14.17,14.17,0,0,0,9.59,3.9h0a13.18,13.18,0,0,0,2.18-.19,15.68,15.68,0,0,0,10.39-7.57,9.09,9.09,0,0,0,1.21-2.89,11.29,11.29,0,0,0-.13-4C126.55,91.57,120.24,82,112,77.7A11.88,11.88,0,0,0,106.63,76.18Z"/><path class="cls-14" d="M102.48,79.57a3.49,3.49,0,0,1,2.09-1.45,1.6,1.6,0,0,1,1.67,1.66C101,84.19,98.06,92.1,98.76,99.67A35.81,35.81,0,0,1,98.58,89,19.63,19.63,0,0,1,102.48,79.57Z"/><ellipse class="cls-9" cx="113.67" cy="97.53" rx="12.03" ry="14.37"/><ellipse class="cls-5" cx="113.67" cy="97.53" rx="9.74" ry="11.64"/><ellipse class="cls-9" cx="112.94" cy="96.09" rx="8.66" ry="10.34"/><ellipse class="cls-18" cx="113.67" cy="97.53" rx="6.08" ry="7.26"/><ellipse class="cls-19" cx="113.67" cy="97.53" rx="3.16" ry="3.78"/><ellipse class="cls-10" cx="111.31" cy="92.77" rx="1.51" ry="1.8"/><ellipse class="cls-10" cx="106.07" cy="87.59" rx="2.32" ry="2.77"/><path class="cls-13" d="M125.29,60a20.11,20.11,0,0,0-12.89.35A3.67,3.67,0,0,0,109.69,63a5.07,5.07,0,0,0,.39,2.4c2.73,8,5.56,16.28,10.55,22.57,3.57,4.5,8.07,7.77,12.16,11.59s7.94,8.51,9.38,14.46a30.1,30.1,0,0,0,1.54,5.85c.85,1.78,2.62,3.18,4.25,2.53a4.15,4.15,0,0,0,2.13-2.91,15.23,15.23,0,0,0,.27-4c-.33-15.35-.75-30.87-4.1-45.7a2.56,2.56,0,0,1-3.31-.13,13,13,0,0,1-2.45-3A22.45,22.45,0,0,0,125.65,57Z"/><path class="cls-3" d="M147.12,122.92c-1.59,0-3-1.44-3.68-2.88a17.64,17.64,0,0,1-1.19-4.19c-.12-.57-.24-1.17-.37-1.73-1.2-5-4.15-9.48-9.28-14.28-1.26-1.17-2.58-2.31-3.85-3.42a62.61,62.61,0,0,1-8.34-8.2c-5.1-6.43-8-15.07-10.61-22.69a5.51,5.51,0,0,1-.41-2.61c.2-1.3,1.18-2.28,2.92-2.91A20.41,20.41,0,0,1,125,59.55l.31-2.59c0-.2.18-.34.34-.31a22.64,22.64,0,0,1,15.06,9.77l.37.53a9.85,9.85,0,0,0,2,2.39,2.86,2.86,0,0,0,1.7.63,1.81,1.81,0,0,0,1.25-.48.28.28,0,0,1,.29-.06.35.35,0,0,1,.19.26c3.46,15.24,3.81,31.47,4.11,45.79a15.32,15.32,0,0,1-.28,4.1,4.39,4.39,0,0,1-2.33,3.16A2.48,2.48,0,0,1,147.12,122.92ZM119.37,59.48a19.77,19.77,0,0,0-6.88,1.23c-1.5.55-2.34,1.34-2.5,2.35a4.79,4.79,0,0,0,.38,2.19c2.56,7.56,5.46,16.13,10.48,22.46a62,62,0,0,0,8.26,8.12c1.28,1.11,2.6,2.25,3.87,3.43,5.24,4.9,8.25,9.55,9.49,14.65.14.59.26,1.19.38,1.77a16.58,16.58,0,0,0,1.13,4c.87,1.83,2.56,2.89,3.88,2.37a3.75,3.75,0,0,0,1.93-2.68,14.34,14.34,0,0,0,.26-3.88c-.3-14.12-.65-30.11-4-45.13a3,3,0,0,1-3.28-.4,10.61,10.61,0,0,1-2.16-2.54l-.36-.53a22.17,22.17,0,0,0-14.36-9.47l-.31,2.64a.39.39,0,0,1-.14.25.25.25,0,0,1-.25,0A19.92,19.92,0,0,0,119.37,59.48Z"/><path class="cls-4" d="M124.48,60.19l8.08,11.09a8.72,8.72,0,0,0-6.85-3.6c8.77,7.88,17.79,16.09,23.22,27.49-.05-6.42-.15-13.1-2.54-18.85A27.67,27.67,0,0,0,139.72,67,69.46,69.46,0,0,0,131,60.25c-1.15-.79-2.6-1.58-3.73-.75Z"/><path class="cls-3" d="M148,93.05l-4-2.21c4.07,6.07,5.26,14.12,6.31,21.79l-.9-27.31a15.24,15.24,0,0,0-.53-4.17,12.41,12.41,0,0,0-1.83-3.31c-3.74-5.29-8-10.16-13-13.64s-10.84-5.51-16.62-4.94c7.38,2.43,14.65,6.17,20.16,12.52,3.33,3.83,5.9,8.48,8.44,13.09C147.39,87.33,148.81,90.27,148,93.05Z"/><path class="cls-3" d="M112.57,87.35c-2.91-1.55-6.08-2.4-8.84-4.3-6-4.1-9.14-12.71-9.1-21S97.46,45.93,101,38.88c0,9.06,3.84,17.52,8.42,24.74s10,13.65,14.21,21.21,7,16.75,5.58,25.64a2.28,2.28,0,0,1-2.53-1.36,11.67,11.67,0,0,1-1-3.32C123.9,97.73,118.94,90.76,112.57,87.35Z"/><path class="cls-20" d="M114.1,48.33a36.19,36.19,0,0,1,3.48,15.36l4.16-7.33c-3.13,9.9.28,22.15,7.76,27.83l.09-6.87c.22,3.5,2.41,6.36,4.7,8.55s4.88,4.12,6.48,7.07c1.74,3.21,2.07,7.28,1.57,11.06a53.68,53.68,0,0,1-3,10.87c-.31.87-.7,1.83-1.44,2.11s-1.71-.82-1.19-1.53c-2.56.9-5.37-.7-7.08-3.13s-2.56-5.56-3.29-8.62-1.42-6.2-2.9-8.84c-2.09-3.75-5.54-6.07-9-7.85s-7.1-3.19-10.2-5.74a14.85,14.85,0,0,1-5.7-11.06,3.22,3.22,0,0,0,3.35,1.64c-3.54-2.77-5-8.26-4.84-13.32s1.44-9.94,2.18-14.92.79-10.42-1.42-14.74c3.86,3.43,7.76,7,10.58,11.62s4.47,10.66,3.25,16.21A17.07,17.07,0,0,0,114.1,48.33Z"/><path class="cls-3" d="M137.63,117.39a1.48,1.48,0,0,1-1.29-1,1.46,1.46,0,0,1-.1-.45,4.48,4.48,0,0,1-1,.12,7.6,7.6,0,0,1-5.82-3.52c-1.76-2.48-2.62-5.68-3.35-8.74l-.15-.65a31.89,31.89,0,0,0-2.7-8.1c-2.19-3.91-5.89-6.17-8.88-7.71-.85-.44-1.72-.86-2.57-1.27A37.55,37.55,0,0,1,104,81.57a15.24,15.24,0,0,1-5.83-11.36.37.37,0,0,1,.22-.35.27.27,0,0,1,.34.14,3.07,3.07,0,0,0,2.2,1.52c-2.79-2.69-4.36-7.46-4.25-13a62.34,62.34,0,0,1,1.33-10.08c.3-1.6.61-3.26.85-4.89.91-6.17.46-10.91-1.37-14.49a.43.43,0,0,1,0-.46.28.28,0,0,1,.4,0c3.61,3.21,7.7,6.85,10.64,11.69a23.7,23.7,0,0,1,3.6,14.65,17,17,0,0,0,1.58-6.6A.35.35,0,0,1,114,48a.29.29,0,0,1,.34.17,36.36,36.36,0,0,1,3.49,14.39l3.62-6.39a.29.29,0,0,1,.4-.12.41.41,0,0,1,.15.46c-3,9.55.12,21.28,7.17,27l.09-6.2a.33.33,0,0,1,.3-.36c.15,0,.3.14.31.34.17,2.79,1.67,5.51,4.58,8.29.5.48,1,1,1.52,1.4a22.42,22.42,0,0,1,5,5.76,18.93,18.93,0,0,1,1.61,11.32,54.41,54.41,0,0,1-3,11c-.33.94-.76,2-1.63,2.31A1,1,0,0,1,137.63,117.39Zm-.93-2.31a.28.28,0,0,1,.25.17.41.41,0,0,1,0,.44.39.39,0,0,0,0,.4c.14.38.59.66.89.54.62-.24,1-1.1,1.26-1.9A53.54,53.54,0,0,0,142,104a18,18,0,0,0-1.52-10.81,21.63,21.63,0,0,0-4.88-5.57c-.51-.46-1-.93-1.53-1.41a16.1,16.1,0,0,1-4.24-6l-.06,4.07a.36.36,0,0,1-.16.32.27.27,0,0,1-.31,0c-7-5.33-10.5-16.31-8.5-25.88l-3,5.28a.28.28,0,0,1-.34.14.36.36,0,0,1-.22-.35,36,36,0,0,0-2.94-14.11,17.47,17.47,0,0,1-2.46,7.34.28.28,0,0,1-.38.11.39.39,0,0,1-.17-.42c1.09-5-.08-10.77-3.2-15.91a47.8,47.8,0,0,0-9.41-10.55c1.35,3.53,1.61,8,.8,13.52-.24,1.66-.56,3.32-.86,4.93a61.05,61.05,0,0,0-1.31,9.94c-.12,5.75,1.63,10.61,4.7,13a.4.4,0,0,1,.13.38.33.33,0,0,1-.25.29,3.18,3.18,0,0,1-.62.07,3.44,3.44,0,0,1-2.42-1.07A14.71,14.71,0,0,0,104.39,81,37,37,0,0,0,112,85.4c.85.41,1.73.83,2.59,1.27,3.06,1.58,6.86,3.91,9.14,8a32.52,32.52,0,0,1,2.78,8.31l.15.64c.72,3,1.55,6.1,3.23,8.48a7,7,0,0,0,5.35,3.25,4.43,4.43,0,0,0,1.41-.23Z"/><path class="cls-8" d="M113.82,138.92A23.67,23.67,0,0,1,102.9,141,14,14,0,0,1,93,135.65a7,7,0,0,0,5.28,0c-3.37-1.56-6-5.33-6.56-9.59l1.71,1.71a28.38,28.38,0,0,1,1.18-20c-1.24,9.62,2.72,19.9,9.64,25l-2.46-4.89a12,12,0,0,0,7.18,4.28,31.67,31.67,0,0,0,8.14.26,2.32,2.32,0,0,1-2.86-1.59,22.64,22.64,0,0,0,16.57-4.12c-.52,2.16-2.19,3.59-3.76,4.85-6.09,4.92-12.35,9.93-19.49,12A16.17,16.17,0,0,0,113.82,138.92Z"/><path class="cls-21" d="M94.33,120.45a27.32,27.32,0,0,0,9.23,14.94c-1.27.39-2.59-.37-3.66-1.29A17.76,17.76,0,0,1,94.33,120.45Z"/><path class="cls-6" d="M102.76,37.76A55,55,0,0,1,109.31,59C110.38,51.18,107.8,42.83,102.76,37.76Z"/><path class="cls-7" d="M119.82,74.32a34.52,34.52,0,0,0,7.47,14.36c2.44,2.73,5.32,5,7.21,8.27,1.76,3.08,2.5,6.81,3,10.49a24.74,24.74,0,0,0,1.28-14.55,4.94,4.94,0,0,1-.85,3.4A22.35,22.35,0,0,0,131.46,85a1.39,1.39,0,0,1-.93,2,2.85,2.85,0,0,1-2.13-1.22c-4.71-5.07-7.7-12.11-9.36-19.42l-1.12,4.85a36,36,0,0,1-3.13-12.41A30.08,30.08,0,0,0,121,80.23Z"/><path class="cls-11" d="M100.62,73.2c1.62,4.45,5.2,7.43,8.84,9.59s7.56,3.74,10.86,6.58a24.52,24.52,0,0,1,7.18,11.19c.91,2.87,1.38,6,2.84,8.54s4.39,4.27,6.64,2.77c-1.9-8.36-6.34-15.57-11.14-22.06s-10.08-12.53-14.22-19.65a73.14,73.14,0,0,1-9.47-32.94c-1.33,5.81-2.67,11.7-2.79,17.72s1.09,12.3,4.36,16.89Z"/><path class="cls-6" d="M118,76.29a89.28,89.28,0,0,1-14.73-29.47c.69,8.56,4.36,16.48,8.88,23.36s9.94,12.93,14.79,19.52,9.23,13.89,11.15,22.2c-.13-7.23-3.93-13.33-7.87-19S122.17,81.74,118,76.29Z"/><path class="cls-13" d="M138.08,118.91a3.48,3.48,0,0,1-3.93-1.9,31.68,31.68,0,0,1-15.48,7.71,37.41,37.41,0,0,1-16.82-.85,20.22,20.22,0,0,0,11.81,3.92A50,50,0,0,0,126,126.25l-6.45,2.13C126.5,129,133.63,125.33,138.08,118.91Z"/><path class="cls-12" d="M88.8,66c0,.47.11,1,.49,1.15s.57-.18.68-.51a2.73,2.73,0,0,0,0-1l-.64-7.42A36.42,36.42,0,0,0,88.8,66Z"/><path class="cls-6" d="M206.77,44.74a22.69,22.69,0,0,0-.92,7.62,42.88,42.88,0,0,1-3.72-19.9c-3.72,7.65-5.74,16.35-6.65,25.12-.43,4.24-.62,8.55-1.72,12.62s-3.29,7.94-6.58,9.6c5.93,3.52,9.47,11.09,11.23,18.72.86,3.75,1.24,8.26-1,11.1,3.16-.25,5.35-4,6.11-7.67s.59-7.58,1.53-11.18a15.94,15.94,0,0,1,9.38-10.92l-6.19-.27c3.46-4.49,3.85-11.31,2.83-17.29S207.86,50.7,206.77,44.74Z"/><path class="cls-3" d="M197.41,110a.31.31,0,0,1-.28-.21.43.43,0,0,1,.05-.4c1.75-2.22,2.06-5.83.93-10.76-1.18-5.15-4.2-14.41-11.06-18.48a.38.38,0,0,1-.18-.34.37.37,0,0,1,.19-.32c2.85-1.44,5.18-4.86,6.41-9.39a57.58,57.58,0,0,0,1.45-9.82c.08-.91.17-1.82.26-2.72a75.24,75.24,0,0,1,6.69-25.26.28.28,0,0,1,.35-.17.37.37,0,0,1,.22.38,42.82,42.82,0,0,0,3.08,18.31,23.25,23.25,0,0,1,1-6.18.3.3,0,0,1,.31-.25.34.34,0,0,1,.28.29c.52,2.86,1.32,5.7,2.09,8.44a88.59,88.59,0,0,1,2.22,9.12c1.16,6.86.25,13-2.49,17l5.55.24a.33.33,0,0,1,.29.32.37.37,0,0,1-.21.4,15.52,15.52,0,0,0-9.17,10.68,36.59,36.59,0,0,0-.88,6,44.85,44.85,0,0,1-.65,5.14c-.78,3.78-3.06,7.7-6.39,8Zm-9.53-30.16c6.68,4.35,9.64,13.46,10.82,18.6,1.08,4.67.89,8.27-.55,10.7,2.61-.73,4.41-4.05,5.07-7.26a44.67,44.67,0,0,0,.64-5,36.64,36.64,0,0,1,.9-6.15,16.57,16.57,0,0,1,8.11-10.51l-4.64-.21a.31.31,0,0,1-.28-.22.44.44,0,0,1,.06-.39c2.94-3.81,4-10,2.76-17a89.38,89.38,0,0,0-2.19-9c-.66-2.35-1.34-4.76-1.86-7.21a22.76,22.76,0,0,0-.56,6.22.36.36,0,0,1-.22.37.3.3,0,0,1-.36-.18A43.36,43.36,0,0,1,201.77,34a76,76,0,0,0-6,23.65c-.09.9-.17,1.8-.26,2.71a57,57,0,0,1-1.48,10C192.86,74.73,190.63,78.15,187.88,79.82Z"/><path class="cls-7" d="M200.28,87a35.46,35.46,0,0,0,7.77-17.52,11.21,11.21,0,0,1-3.5,4.17,26.56,26.56,0,0,0,2-17.63,41.15,41.15,0,0,1-2.26,7.5c.18-7-2.47-13.54-5.05-19.79a42.68,42.68,0,0,1-2.24,15c-1.49,4.8-3.41,9.39-4.94,14.18a12,12,0,0,0-.72,6.27A10.43,10.43,0,0,0,194.54,84a8.25,8.25,0,0,0,3.8,2.57,3,3,0,0,0,3.57-2.22Z"/><path class="cls-4" d="M186,105.48c-3.51-.18-6.71-2.59-10.22-2.9-4.82-.43-16.37,0-19.74,4.13-6.36,7.79-3.45,21.24-4.72,32a40.35,40.35,0,0,1,6.77-5.17,11.62,11.62,0,0,1,7.82-1.61c4.42.87,7.77,5,11.48,8a25.29,25.29,0,0,0,19.35,5.63,11,11,0,0,1-4.15-2.41,11.23,11.23,0,0,0,9.38-2,15.62,15.62,0,0,0,5.63-9.18,3.55,3.55,0,0,1-3.68,2c2.12-3.71,4.3-7.66,4.59-12.14.25-3.81-.92-7.52-1.67-11.24a53.38,53.38,0,0,1,1.32-26.16c-4.06,3.21-6.72,8.32-9.87,12.74S190.89,105.73,186,105.48Z"/><path class="cls-3" d="M193.51,146.21a26,26,0,0,1-16.26-5.92c-1-.79-1.93-1.66-2.86-2.51-2.61-2.38-5.3-4.85-8.5-5.48a11.32,11.32,0,0,0-7.64,1.58,40.06,40.06,0,0,0-6.72,5.14.26.26,0,0,1-.34,0,.41.41,0,0,1-.14-.37,90.53,90.53,0,0,0,.37-10.51c0-8,0-16.22,4.43-21.7,3.31-4.06,13.55-4.38,16.6-4.38,1.24,0,2.41,0,3.39.13a18.24,18.24,0,0,1,5,1.46,16.65,16.65,0,0,0,5.17,1.44c5,.26,9.32-4.3,12-8.11.83-1.16,1.63-2.39,2.41-3.58,2.21-3.36,4.5-6.84,7.53-9.24a.26.26,0,0,1,.36,0,.4.4,0,0,1,.1.42,53.1,53.1,0,0,0-1.31,25.94c.17.83.36,1.67.54,2.48a31.2,31.2,0,0,1,1.14,8.88c-.29,4.46-2.47,8.49-4.34,11.8a3.36,3.36,0,0,0,2.86-1.91.28.28,0,0,1,.38-.14.39.39,0,0,1,.18.43,15.91,15.91,0,0,1-5.77,9.4,11.73,11.73,0,0,1-8.24,2.3,10.85,10.85,0,0,0,2.93,1.46.36.36,0,0,1,.23.38.35.35,0,0,1-.27.34A24.29,24.29,0,0,1,193.51,146.21Zm-29.29-14.8a9.4,9.4,0,0,1,1.77.17c3.35.66,6.11,3.18,8.78,5.62.92.84,1.87,1.71,2.82,2.48a25.32,25.32,0,0,0,17.68,5.73,12.14,12.14,0,0,1-2.84-1.92.43.43,0,0,1-.09-.45.29.29,0,0,1,.34-.2,10.94,10.94,0,0,0,2.49.3,11.34,11.34,0,0,0,6.67-2.26,14.88,14.88,0,0,0,5.08-7.42,3.61,3.61,0,0,1-3,.94.31.31,0,0,1-.24-.22.43.43,0,0,1,0-.35c2-3.5,4.24-7.46,4.53-12a30.51,30.51,0,0,0-1.11-8.64c-.19-.81-.38-1.66-.55-2.49a54.27,54.27,0,0,1,1-25.28A42,42,0,0,0,201,93.87c-.78,1.2-1.6,2.43-2.43,3.6-4,5.57-8,8.39-12.1,8.39H186a17.28,17.28,0,0,1-5.34-1.48,18.1,18.1,0,0,0-4.89-1.43c-1-.08-2.11-.12-3.34-.12-6.17,0-13.66,1.09-16.16,4.15-4.3,5.26-4.28,13.36-4.26,21.19,0,3.26,0,6.62-.28,9.76a36.63,36.63,0,0,1,6.24-4.71A12.92,12.92,0,0,1,164.22,131.41Z"/><path class="cls-7" d="M193,119.31q6.54-13.73,11.83-28.21-2,10-4.85,19.64a21,21,0,0,1-2.36,5.74C196.46,118.15,194.77,119.42,193,119.31Z"/><path class="cls-3" d="M176.49,123a12.4,12.4,0,0,1-4.22-4.89,19.15,19.15,0,0,0,20.79,3.31,3.5,3.5,0,0,1-2.46-.66,12.77,12.77,0,0,0,5.79-5.44,43.12,43.12,0,0,0,3.48-7.9,182.75,182.75,0,0,0,7.06-23.59,12.32,12.32,0,0,1-10.28,1.36c-.65-.2-1.4-.44-1.94,0a3,3,0,0,0-.61,2c-.41,6.61-2.93,13.12-7.22,17.33s-10.37,5.9-15.65,3.84c-1.25-.49-2.53-1.18-3.83-.91-1.75.36-3,2.54-3,4.66a8,8,0,0,0,2.42,5.47,14.81,14.81,0,0,0,4.73,2.9A27.24,27.24,0,0,1,176.49,123Z"/><path class="cls-5" d="M186.35,77.36c2.48-1.28,5.29-2.1,7.86-1.11S198.75,80,199.9,83c2.31,6,1.95,13,.11,19.21-1.32,4.46-3.44,8.69-6.57,11.58a14.17,14.17,0,0,1-12,3.78,15.89,15.89,0,0,1-10.6-7.71,9.37,9.37,0,0,1-1.25-3,11.71,11.71,0,0,1,.12-4.13C171.53,91.73,177.77,81.78,186.35,77.36Z"/><path class="cls-3" d="M183.66,118.1a13.1,13.1,0,0,1-2.26-.2A16.32,16.32,0,0,1,170.59,110a9.82,9.82,0,0,1-1.3-3.15,12.11,12.11,0,0,1,.12-4.29c1.89-11.4,8.34-21.21,16.81-25.58,3.13-1.61,5.84-2,8.09-1.12,3.27,1.26,5.08,4.87,5.87,6.91,2.16,5.58,2.2,12.5.12,19.5-1.49,5-3.8,9.08-6.67,11.74A14.68,14.68,0,0,1,183.66,118.1Zm8.12-41.92a11.81,11.81,0,0,0-5.31,1.52c-8.3,4.27-14.6,13.87-16.46,25a11.29,11.29,0,0,0-.12,4,8.82,8.82,0,0,0,1.2,2.89,15.7,15.7,0,0,0,10.39,7.57,13.28,13.28,0,0,0,2.18.19,14.13,14.13,0,0,0,9.59-3.9c2.78-2.57,5-6.52,6.47-11.41,2-6.81,2-13.54-.09-18.94-.75-1.93-2.46-5.35-5.51-6.52A6.44,6.44,0,0,0,191.78,76.18Z"/><path class="cls-14" d="M195.94,79.57a3.49,3.49,0,0,0-2.09-1.45,1.6,1.6,0,0,0-1.67,1.66c5.2,4.41,8.17,12.32,7.47,19.89A35.49,35.49,0,0,0,199.84,89,19.73,19.73,0,0,0,195.94,79.57Z"/><ellipse class="cls-9" cx="184.75" cy="97.53" rx="12.03" ry="14.37"/><ellipse class="cls-5" cx="184.75" cy="97.53" rx="9.74" ry="11.64"/><ellipse class="cls-9" cx="185.47" cy="96.09" rx="8.66" ry="10.34"/><ellipse class="cls-18" cx="184.75" cy="97.53" rx="6.08" ry="7.26"/><ellipse class="cls-19" cx="184.75" cy="97.53" rx="3.16" ry="3.78"/><ellipse class="cls-10" cx="187.1" cy="92.77" rx="1.51" ry="1.8"/><ellipse class="cls-10" cx="192.35" cy="87.59" rx="2.32" ry="2.77"/><path class="cls-13" d="M173.12,60a20.14,20.14,0,0,1,12.9.35A3.7,3.7,0,0,1,188.73,63a5.08,5.08,0,0,1-.4,2.4c-2.72,8-5.55,16.28-10.54,22.57-3.58,4.5-8.07,7.77-12.16,11.59s-7.94,8.51-9.39,14.46a29.41,29.41,0,0,1-1.54,5.85c-.84,1.78-2.61,3.18-4.24,2.53a4.09,4.09,0,0,1-2.13-2.91,14.82,14.82,0,0,1-.27-4c.33-15.35.74-30.87,4.1-45.7a2.55,2.55,0,0,0,3.3-.13,12.74,12.74,0,0,0,2.45-3A22.47,22.47,0,0,1,172.77,57Z"/><path class="cls-3" d="M151.3,122.92a2.53,2.53,0,0,1-.94-.18,4.44,4.44,0,0,1-2.33-3.16,15.49,15.49,0,0,1-.28-4.1c.31-14.32.66-30.54,4.11-45.79a.36.36,0,0,1,.2-.26.31.31,0,0,1,.29.06,1.78,1.78,0,0,0,1.24.48,2.89,2.89,0,0,0,1.71-.63,10,10,0,0,0,2-2.39c.12-.18.24-.36.37-.53a22.64,22.64,0,0,1,15-9.77.31.31,0,0,1,.34.31l.31,2.59a20.45,20.45,0,0,1,12.73.46c1.73.63,2.72,1.61,2.92,2.91a5.51,5.51,0,0,1-.41,2.61C186,73.15,183.11,81.79,178,88.22a63.22,63.22,0,0,1-8.34,8.2c-1.28,1.11-2.6,2.25-3.85,3.42-5.13,4.8-8.08,9.33-9.28,14.28-.14.57-.26,1.16-.37,1.73A17.66,17.66,0,0,1,155,120C154.29,121.48,152.89,122.92,151.3,122.92Zm1-52.56c-3.34,15-3.68,31-4,45.13a14.75,14.75,0,0,0,.25,3.88,3.76,3.76,0,0,0,1.94,2.68c1.32.53,3-.54,3.88-2.37a17,17,0,0,0,1.13-4c.12-.58.24-1.18.38-1.77,1.23-5.1,4.25-9.75,9.49-14.65,1.26-1.18,2.58-2.32,3.86-3.43a61.43,61.43,0,0,0,8.26-8.12c5-6.33,7.93-14.9,10.49-22.46a4.92,4.92,0,0,0,.38-2.19c-.16-1-1-1.8-2.5-2.35a19.87,19.87,0,0,0-12.73-.35.26.26,0,0,1-.25,0,.38.38,0,0,1-.13-.25l-.31-2.64a22.17,22.17,0,0,0-14.36,9.47l-.37.53A10.58,10.58,0,0,1,155.63,70,3,3,0,0,1,152.35,70.36Z"/><path class="cls-4" d="M173.93,60.19l-8.08,11.09a8.75,8.75,0,0,1,6.86-3.6c-8.78,7.88-17.8,16.09-23.22,27.49,0-6.42.14-13.1,2.54-18.85A27.78,27.78,0,0,1,158.69,67a69.56,69.56,0,0,1,8.72-6.71c1.15-.79,2.6-1.58,3.73-.75Z"/><path class="cls-3" d="M150.44,93.05l4-2.21c-4.08,6.07-5.26,14.12-6.31,21.79l.9-27.31a15.24,15.24,0,0,1,.53-4.17,12.66,12.66,0,0,1,1.82-3.31c3.74-5.29,8-10.16,13-13.64s10.84-5.51,16.62-4.94c-7.38,2.43-14.65,6.17-20.16,12.52-3.33,3.83-5.9,8.48-8.45,13.09C151,87.33,149.61,90.27,150.44,93.05Z"/><path class="cls-3" d="M185.85,87.35c2.91-1.55,6.08-2.4,8.84-4.3,6-4.1,9.14-12.71,9.1-21S201,45.93,197.37,38.88c0,9.06-3.84,17.52-8.42,24.74s-10,13.65-14.2,21.21-7,16.75-5.59,25.64a2.3,2.3,0,0,0,2.54-1.36,12,12,0,0,0,1-3.32C174.51,97.73,179.48,90.76,185.85,87.35Z"/><path class="cls-20" d="M184.31,48.33a36.33,36.33,0,0,0-3.47,15.36l-4.16-7.33c3.13,9.9-.29,22.15-7.76,27.83l-.1-6.87c-.21,3.5-2.4,6.36-4.7,8.55s-4.88,4.12-6.47,7.07c-1.74,3.21-2.07,7.28-1.57,11.06a53.68,53.68,0,0,0,3,10.87c.3.87.69,1.83,1.44,2.11s1.7-.82,1.19-1.53c2.56.9,5.36-.7,7.08-3.13s2.56-5.56,3.29-8.62,1.41-6.2,2.89-8.84c2.1-3.75,5.55-6.07,9-7.85s7.1-3.19,10.21-5.74,5.68-6.56,5.69-11.06a3.21,3.21,0,0,1-3.34,1.64c3.54-2.77,4.94-8.26,4.83-13.32s-1.44-9.94-2.17-14.92-.79-10.42,1.41-14.74c-3.85,3.43-7.75,7-10.58,11.62s-4.46,10.66-3.24,16.21A17,17,0,0,1,184.31,48.33Z"/><path class="cls-3" d="M160.78,117.39a1,1,0,0,1-.34-.06c-.87-.33-1.3-1.37-1.64-2.31a54.41,54.41,0,0,1-3-11,18.85,18.85,0,0,1,1.62-11.32,22.39,22.39,0,0,1,5-5.76c.51-.45,1-.92,1.52-1.4,2.92-2.78,4.42-5.5,4.58-8.29a.31.31,0,1,1,.62,0l.09,6.2c7-5.74,10.19-17.47,7.17-27a.4.4,0,0,1,.15-.46.28.28,0,0,1,.39.12l3.63,6.39a36.36,36.36,0,0,1,3.49-14.39.28.28,0,0,1,.34-.17.37.37,0,0,1,.23.34,17.14,17.14,0,0,0,1.57,6.6,23.77,23.77,0,0,1,3.61-14.65c2.94-4.84,7-8.48,10.64-11.69a.26.26,0,0,1,.39,0,.43.43,0,0,1,.06.46c-1.83,3.58-2.28,8.32-1.38,14.49.24,1.63.55,3.29.86,4.89a62.33,62.33,0,0,1,1.32,10.08c.12,5.54-1.45,10.31-4.24,13A3.05,3.05,0,0,0,199.64,70a.28.28,0,0,1,.35-.14.36.36,0,0,1,.21.35,15.18,15.18,0,0,1-5.83,11.36,37.48,37.48,0,0,1-7.68,4.51c-.85.41-1.73.83-2.58,1.27-3,1.54-6.68,3.8-8.87,7.71a31.51,31.51,0,0,0-2.7,8.1l-.16.65c-.73,3.06-1.59,6.26-3.35,8.74a7.6,7.6,0,0,1-5.82,3.52,4.55,4.55,0,0,1-1-.12,1.44,1.44,0,0,1-.09.45A1.5,1.5,0,0,1,160.78,117.39Zm7.77-37.27a16.07,16.07,0,0,1-4.23,6c-.51.48-1,1-1.53,1.41a21.85,21.85,0,0,0-4.89,5.57A18,18,0,0,0,156.38,104a53.56,53.56,0,0,0,3,10.78c.28.8.63,1.66,1.25,1.9.31.12.75-.16.9-.54a.39.39,0,0,0,0-.4.43.43,0,0,1,0-.44.28.28,0,0,1,.35-.15,4.42,4.42,0,0,0,1.4.23,7,7,0,0,0,5.35-3.25c1.68-2.38,2.52-5.49,3.23-8.48L172,103a31.76,31.76,0,0,1,2.78-8.31c2.27-4.07,6.08-6.4,9.14-8,.86-.44,1.73-.86,2.59-1.27A36.88,36.88,0,0,0,194,81a14.68,14.68,0,0,0,5.52-9.75,3.38,3.38,0,0,1-3,1,.36.36,0,0,1-.25-.29.4.4,0,0,1,.14-.38c3.06-2.39,4.82-7.25,4.7-13a62.18,62.18,0,0,0-1.32-9.94c-.3-1.61-.61-3.27-.85-4.93-.82-5.55-.56-10,.8-13.52a47.84,47.84,0,0,0-9.42,10.55c-3.12,5.14-4.28,10.94-3.2,15.91a.38.38,0,0,1-.16.42.28.28,0,0,1-.38-.11,17.33,17.33,0,0,1-2.46-7.34,35.79,35.79,0,0,0-2.94,14.11.36.36,0,0,1-.22.35.27.27,0,0,1-.34-.14l-3-5.28c2,9.57-1.49,20.55-8.51,25.88a.27.27,0,0,1-.31,0,.36.36,0,0,1-.16-.32Z"/><path class="cls-8" d="M184.6,138.92A23.65,23.65,0,0,0,195.52,141a14,14,0,0,0,9.91-5.32,7,7,0,0,1-5.28,0c3.37-1.56,6-5.33,6.56-9.59l-1.7,1.71a28.44,28.44,0,0,0-1.18-20c1.23,9.62-2.73,19.9-9.64,25l2.46-4.89a12,12,0,0,1-7.18,4.28,31.67,31.67,0,0,1-8.14.26,2.3,2.3,0,0,0,2.85-1.59,22.64,22.64,0,0,1-16.57-4.12c.53,2.16,2.2,3.59,3.76,4.85,6.09,4.92,12.35,9.93,19.5,12A16.1,16.1,0,0,1,184.6,138.92Z"/><path class="cls-21" d="M204.09,120.45a27.33,27.33,0,0,1-9.24,14.94c1.28.39,2.6-.37,3.66-1.29A17.8,17.8,0,0,0,204.09,120.45Z"/><path class="cls-6" d="M195.66,37.76A55,55,0,0,0,189.11,59C188,51.18,190.62,42.83,195.66,37.76Z"/><path class="cls-7" d="M178.6,74.32a34.53,34.53,0,0,1-7.48,14.36c-2.43,2.73-5.32,5-7.2,8.27-1.77,3.08-2.51,6.81-3,10.49a24.9,24.9,0,0,1-1.28-14.55,5,5,0,0,0,.86,3.4A22.41,22.41,0,0,1,167,85a1.4,1.4,0,0,0,.94,2A2.83,2.83,0,0,0,170,85.82c4.71-5.07,7.7-12.11,9.37-19.42l1.12,4.85a36.18,36.18,0,0,0,3.13-12.41,30.13,30.13,0,0,1-6.23,21.39Z"/><path class="cls-11" d="M197.8,73.2c-1.63,4.45-5.2,7.43-8.85,9.59s-7.56,3.74-10.86,6.58a24.58,24.58,0,0,0-7.17,11.19c-.91,2.87-1.39,6-2.84,8.54s-4.4,4.27-6.64,2.77c1.9-8.36,6.33-15.57,11.13-22.06s10.09-12.53,14.22-19.65a73,73,0,0,0,9.48-32.94c1.33,5.81,2.67,11.7,2.79,17.72s-1.1,12.3-4.36,16.89Z"/><path class="cls-6" d="M180.42,76.29a89.47,89.47,0,0,0,14.73-29.47c-.69,8.56-4.36,16.48-8.89,23.36s-9.93,12.93-14.79,19.52-9.22,13.89-11.14,22.2c.13-7.23,3.92-13.33,7.86-19S176.25,81.74,180.42,76.29Z"/><path class="cls-13" d="M160.33,118.91a3.48,3.48,0,0,0,3.94-1.9,31.69,31.69,0,0,0,15.47,7.71,37.45,37.45,0,0,0,16.83-.85,20.25,20.25,0,0,1-11.82,3.92,50.11,50.11,0,0,1-12.32-1.54l6.45,2.13C171.92,129,164.78,125.33,160.33,118.91Z"/><path class="cls-12" d="M209.62,66c0,.47-.12,1-.5,1.15s-.56-.18-.67-.51a2.53,2.53,0,0,1,0-1l.65-7.42A37.07,37.07,0,0,1,209.62,66Z"/><path class="cls-22" d="M160.37,122.85a10.89,10.89,0,0,0-1.49-4.64c-.16-.32-.34-.63-.51-.93a15.88,15.88,0,0,0-3.29-4.73c-1.44-1.58-3.08-3.26-5-3.24h-.2c-1.95,0-3.58,1.66-5,3.24a15.7,15.7,0,0,0-3.29,4.73c-.18.3-.35.61-.52.93a11.17,11.17,0,0,0-1.49,4.64,12.32,12.32,0,0,0,.9,4.57A53.86,53.86,0,0,0,149.59,144c.13-.18.24-.36.36-.54l.36.54a53.67,53.67,0,0,0,9.17-16.55A12.31,12.31,0,0,0,160.37,122.85Z"/><path class="cls-3" d="M150.31,144.34h0a.28.28,0,0,1-.23-.14L150,144l-.12.17a.25.25,0,0,1-.22.14.27.27,0,0,1-.24-.11,54.64,54.64,0,0,1-9.23-16.67,12.77,12.77,0,0,1-.91-4.73,11.51,11.51,0,0,1,1.53-4.82l.51-.91a16,16,0,0,1,3.35-4.82c1.53-1.69,3.2-3.34,5.2-3.34h.27c2,0,3.66,1.65,5.19,3.34a15.83,15.83,0,0,1,3.35,4.82c.18.3.35.6.51.91a11.38,11.38,0,0,1,1.54,4.82,12.77,12.77,0,0,1-.91,4.73,54.67,54.67,0,0,1-9.24,16.67A.28.28,0,0,1,150.31,144.34Zm-.49-34.66c-1.78,0-3.28,1.49-4.78,3.14a15.25,15.25,0,0,0-3.22,4.61l0,.06-.51.91a10.91,10.91,0,0,0-1.44,4.47,12,12,0,0,0,.87,4.41,54.11,54.11,0,0,0,8.86,16.14l0,0,.12-.18a.29.29,0,0,1,.24-.14h0a.3.3,0,0,1,.25.14l.11.18,0,0a54.11,54.11,0,0,0,8.86-16.14,12.41,12.41,0,0,0,.87-4.41,10.77,10.77,0,0,0-1.45-4.47c-.16-.31-.33-.61-.51-.91,0,0,0,0,0-.06a15.37,15.37,0,0,0-3.22-4.61c-1.51-1.65-3-3.14-4.78-3.14h-.27Z"/><path class="cls-3" d="M141.17,130c-1.2-2.84-2.45-6-1.84-9.1a10.9,10.9,0,0,1,2.82-5.11c1.28-1.41,2.72-2.59,4-4a24.55,24.55,0,0,0-5.33,12,9.7,9.7,0,0,1,2.44-5,19,19,0,0,0-.59,10.73,50.58,50.58,0,0,0,3.59,10.06c-1.08-.33-1.71-1.64-2.21-2.83Z"/><path class="cls-3" d="M150.36,140.87a5.27,5.27,0,0,0,2.75-2.22c2.36-3,4.69-6.2,5.94-10s1.27-8.51-.79-11.82c1.5,2.13,3.09,4.57,2.9,7.34a12,12,0,0,1-1.53,4.49l-9.71,19.48-6-12.75a19.87,19.87,0,0,1,2.84,3.53C147.71,140.08,149,141.12,150.36,140.87Z"/><path class="cls-23" d="M148.8,115.26l1.46,8.58-.21-13.67a9.83,9.83,0,0,0-5.6,5.9l1.29-.41A147.75,147.75,0,0,0,147.05,132c.43,3.14,1,6.42,2.78,8.8l-1.66-22.06C148.07,117.49,148,116.08,148.8,115.26Z"/><path class="cls-24" d="M158.65,121.47a12.49,12.49,0,0,0-2.34-5.67c-1.33-2.13-2.88-4.42-5.08-4.82a31.83,31.83,0,0,1,1.9,14.1,93.71,93.71,0,0,1-2.37,14.15,50.06,50.06,0,0,0,4.86-14.78,45,45,0,0,1-3.78,14.26,52.45,52.45,0,0,0,6-12.72A12.21,12.21,0,0,0,158.65,121.47Z"/><path class="cls-6" d="M172.44,56.59a10.24,10.24,0,0,0-2.83-2l.55-.81L164.61,52a5.38,5.38,0,0,0-2.56-.36,24.18,24.18,0,0,0-2.28.86c-2.84.82-5.63-2-8.56-1.68a4.51,4.51,0,0,0-2.52,1.25,4.55,4.55,0,0,0-2.52-1.25c-2.94-.36-5.73,2.5-8.57,1.68a24,24,0,0,0-2.27-.86,5.42,5.42,0,0,0-2.57.36l-5.55,1.73.55.81a10.34,10.34,0,0,0-2.82,2,3.56,3.56,0,0,0-.9,3.25c.37,1.23,1.56,2,2.64,2.66a76.66,76.66,0,0,1,21.93,20.69v.21a.76.76,0,0,1,.08-.11.76.76,0,0,0,.08.11v-.21A76.66,76.66,0,0,1,170.69,62.5a5.34,5.34,0,0,0,2.64-2.66A3.55,3.55,0,0,0,172.44,56.59Z"/><path class="cls-3" d="M148.77,83.77h-.08a.31.31,0,0,1-.19,0,.39.39,0,0,1-.2-.35v-.08a76.54,76.54,0,0,0-21.76-20.49c-1.06-.66-2.37-1.48-2.79-2.86a4,4,0,0,1,1-3.65,9.59,9.59,0,0,1,2.55-1.89L127,54a.37.37,0,0,1,0-.34.32.32,0,0,1,.21-.24l5.55-1.73a7.2,7.2,0,0,1,2.11-.43,2.72,2.72,0,0,1,.58.06,5.41,5.41,0,0,1,1.35.48,6.72,6.72,0,0,0,.95.38,3.38,3.38,0,0,0,1,.14,9.32,9.32,0,0,0,3.33-.9,10,10,0,0,1,3.63-1,3.43,3.43,0,0,1,.56,0,4.63,4.63,0,0,1,2.49,1.15,4.6,4.6,0,0,1,2.48-1.15,3.52,3.52,0,0,1,.56,0,10,10,0,0,1,3.63,1,9.32,9.32,0,0,0,3.34.9,3.31,3.31,0,0,0,1-.14,6.27,6.27,0,0,0,1-.38A5.71,5.71,0,0,1,162,51.3a2.78,2.78,0,0,1,.58-.06,7.25,7.25,0,0,1,2.11.43l5.55,1.73a.36.36,0,0,1,.22.24.4.4,0,0,1-.06.34l-.3.45a9.59,9.59,0,0,1,2.55,1.89,4,4,0,0,1,1,3.65c-.42,1.38-1.73,2.2-2.78,2.86a76.57,76.57,0,0,0-21.77,20.49v.08a.36.36,0,0,1-.2.35ZM127.75,54l.25.37a.44.44,0,0,1,.06.32.35.35,0,0,1-.17.25,9.73,9.73,0,0,0-2.74,2,3.15,3.15,0,0,0-.82,2.86,5.12,5.12,0,0,0,2.49,2.45,77.32,77.32,0,0,1,21.87,20.56,77.28,77.28,0,0,1,21.86-20.56c1-.62,2.16-1.34,2.49-2.45a3.15,3.15,0,0,0-.82-2.86,9.73,9.73,0,0,0-2.74-2,.38.38,0,0,1-.17-.25.44.44,0,0,1,.06-.32l.25-.37-5.08-1.58a6.77,6.77,0,0,0-2-.4,2.63,2.63,0,0,0-.49,0,5.67,5.67,0,0,0-1.22.45,7.75,7.75,0,0,1-1,.41,4.43,4.43,0,0,1-1.15.16,9.76,9.76,0,0,1-3.53-.94,9.69,9.69,0,0,0-3.44-.92,3.91,3.91,0,0,0-.49,0,4.2,4.2,0,0,0-2.36,1.17.26.26,0,0,1-.38,0,4.23,4.23,0,0,0-2.36-1.17,4.07,4.07,0,0,0-.5,0,9.64,9.64,0,0,0-3.43.92,9.86,9.86,0,0,1-3.53.94,4.32,4.32,0,0,1-1.15-.16,8.5,8.5,0,0,1-1-.41,5.3,5.3,0,0,0-1.22-.45,2.56,2.56,0,0,0-.49,0,6.7,6.7,0,0,0-1.95.4Z"/><path class="cls-8" d="M143.16,63.54a12.51,12.51,0,0,0-2.84-4.5c3.05,1,5.18,4.45,6,8.08s.64,7.48.47,11.25c-4.93-8.65-13.09-13.71-20.92-18.42l7.29,2.27a7.29,7.29,0,0,1-3-2.11,4.77,4.77,0,0,1-1-3.86c.31-1.35,1.55-2.4,2.69-2a2.83,2.83,0,0,0,.51,2.51,6.33,6.33,0,0,0,1.89,1.5Z"/><path class="cls-12" d="M149,57.94a9.18,9.18,0,0,1,.21,3.81,110.23,110.23,0,0,0,.06,18.35A61.33,61.33,0,0,1,155.08,60a6.34,6.34,0,0,1-1.56-7.14,6.17,6.17,0,0,0-3.46.22,3.09,3.09,0,0,0-1.69,3.25A11.13,11.13,0,0,0,149,57.94Z"/></svg>