<svg xmlns="http://www.w3.org/2000/svg" xmlns:xlink="http://www.w3.org/1999/xlink" viewBox="0 0 595.28 2834.65"><defs><style>.cls-1,.cls-3{fill:none;}.cls-2{clip-path:url(#clip-path);}.cls-3{stroke:#000;stroke-miterlimit:10;}</style><clipPath id="clip-path"><rect class="cls-1" width="595.28" height="2834.65"/></clipPath></defs><title>Sans titre - 1</title><g id="Calque_2" data-name="Calque 2"><g class="cls-2"><path class="cls-3" d="M602.67-.74c-2.5,5.48-5.35,285.19-3.83,294.77,1.41,9,5.28,230.61,6.13,239,1.21,12-6.3,340.81-6.65,354.24-.3,11.93,5.57,304.85,5.62,317.53.06,12.9-6,329.25-6.38,342.47-.4,13.54,5.9,340.08,5.36,353.47-.52,13-6.54,320.71-6.64,333.35-.09,12,5.29,313.92,4.85,324.9-.37,9.46-4.77,284-8.43,288.86"/><path class="cls-3" d="M596.85-.83c-2.78,6.09-5.94,284.33-4.26,295,1.58,10,5.88,229.78,6.81,239.05,1.35,13.35-7,339.5-7.38,354.42-.34,13.26,6.18,303.63,6.25,317.72.06,14.33-6.67,328-7.1,342.67-.44,15,6.56,338.82,6,353.7-.58,14.45-7.27,319.49-7.38,333.53-.1,13.32,5.88,312.93,5.4,325.12-.42,10.52-5.31,283.5-9.37,288.91"/><path class="cls-3" d="M591-.91c-3,6.7-6.53,283.46-4.68,295.15,1.73,11,6.46,229,7.49,239.15,1.49,14.68-7.7,338.2-8.12,354.62-.37,14.58,6.8,302.4,6.87,317.91.07,15.76-7.33,326.71-7.8,342.86-.49,16.56,7.21,337.57,6.55,353.94-.64,15.89-8,318.26-8.11,333.71-.12,14.65,6.46,311.92,5.93,325.34-.46,11.57-5.84,283-10.31,288.95"/><path class="cls-3" d="M585.21-1c-3.33,7.31-7.12,282.58-5.11,295.34,1.89,12,7,228.12,8.18,239.24,1.62,16-8.4,336.91-8.86,354.81-.41,15.91,7.42,301.19,7.5,318.1.07,17.19-8,325.44-8.52,343.06-.53,18.06,7.87,336.31,7.15,354.17-.7,17.34-8.72,317-8.85,333.89-.13,16,7,310.93,6.47,325.56-.5,12.63-6.37,282.5-11.24,289"/><path class="cls-3" d="M579.39-1.07c-3.61,7.91-7.72,281.71-5.53,295.53,2,13,7.64,227.28,8.85,239.33,1.76,17.36-9.09,335.61-9.59,355-.44,17.23,8,300,8.12,318.28.09,18.63-8.67,324.17-9.22,343.26-.58,19.57,8.52,335.06,7.74,354.4-.76,18.79-9.44,315.82-9.59,334.07-.14,17.32,7.64,309.94,7,325.79-.54,13.67-6.9,282-12.17,289.05"/><path class="cls-3" d="M573.58-1.16c-3.89,8.53-8.32,280.85-6,295.73,2.2,13.95,8.22,226.45,9.53,239.42,1.89,18.7-9.79,334.31-10.33,355.2-.47,18.57,8.65,298.75,8.74,318.47.1,20.07-9.33,322.9-9.93,343.46-.62,21.08,9.18,333.81,8.34,354.64-.81,20.23-10.17,314.59-10.33,334.25-.15,18.65,8.23,308.94,7.55,326-.58,14.72-7.42,281.5-13.11,289.09"/><path class="cls-3" d="M567.76-1.24c-4.17,9.14-8.91,280-6.39,295.92,2.37,14.95,8.81,225.61,10.22,239.52,2,20-10.49,333-11.07,355.39-.51,19.89,9.27,297.52,9.37,318.66.1,21.49-10,321.63-10.65,343.65-.66,22.59,9.85,332.55,8.94,354.87-.87,21.68-10.9,313.37-11.06,334.43-.16,20,8.81,307.94,8.08,326.23-.62,15.78-8,281-14,289.14"/><path class="cls-3" d="M561.94-1.32c-4.44,9.74-9.5,279.1-6.81,296.11,2.52,15.94,9.4,224.78,10.9,239.61,2.16,21.36-11.2,331.71-11.81,355.58-.54,21.22,9.89,296.3,10,318.85.11,22.93-10.67,320.36-11.35,343.85-.71,24.09,10.5,331.3,9.53,355.11-.93,23.12-11.62,312.14-11.8,334.61-.17,21.31,9.4,306.94,8.63,326.45-.67,16.83-8.49,280.51-15,289.18"/><path class="cls-3" d="M556.12-1.4C551.4,9,546,276.82,548.88,294.9c2.68,16.94,10,223.94,11.58,239.7,2.3,22.7-11.89,330.41-12.54,355.78-.58,22.54,10.5,295.08,10.61,319,.12,24.37-11.33,319.09-12.06,344.06-.74,25.59,11.16,330,10.13,355.33-1,24.56-12.35,310.92-12.54,334.79-.18,22.65,10,305.95,9.17,326.67-.72,17.89-9,280-15.92,289.23"/><path class="cls-3" d="M550.3-1.49c-5,11-10.69,277.36-7.66,296.5,2.84,17.93,10.57,223.11,12.26,239.79,2.43,24-12.59,329.11-13.28,356-.61,23.87,11.12,293.86,11.24,319.23.12,25.79-12,317.82-12.77,344.25-.79,27.1,11.81,328.78,10.72,355.56-1,26-13.08,309.7-13.28,335-.19,24,10.58,304.95,9.71,326.9-.76,18.93-9.55,279.52-16.86,289.28"/><path class="cls-3" d="M544.49-1.57C539.21,10,533.2,274.92,536.4,295.12c3,18.93,11.16,222.27,12.94,239.88,2.56,25.37-13.29,327.81-14,356.17-.65,25.19,11.74,292.64,11.86,319.41.13,27.23-12.66,316.55-13.48,344.45-.83,28.6,12.47,327.53,11.32,355.8-1.1,27.45-13.8,308.47-14,335.15-.2,25.31,11.17,303.95,10.25,327.12-.8,20-10.08,279-17.79,289.32"/><path class="cls-3" d="M538.67-1.65c-5.56,12.18-11.88,275.61-8.52,296.88,3.15,19.93,11.75,221.44,13.63,240,2.7,26.7-14,326.51-14.76,356.35-.68,26.52,12.36,291.42,12.49,319.6.13,28.66-13.34,315.28-14.19,344.65-.88,30.11,13.12,326.27,11.92,356-1.17,28.9-14.54,307.25-14.76,335.33-.21,26.65,11.75,303,10.78,327.34-.84,21-10.61,278.53-18.73,289.37"/><path class="cls-3" d="M532.85-1.73C527,11.05,520.38,273,523.91,295.34c3.31,20.92,12.33,220.6,14.3,240.07,2.84,28-14.69,325.21-15.49,356.54-.72,27.85,13,290.2,13.11,319.8.14,30.09-14,314-14.9,344.84-.92,31.62,13.78,325,12.52,356.27-1.23,30.34-15.27,306-15.5,335.51-.22,28,12.34,302,11.32,327.56-.88,22.09-11.14,278-19.66,289.41"/><path class="cls-3" d="M527-1.82c-6.11,13.4-13.06,273.87-9.36,297.27,3.46,21.92,12.92,219.77,15,240.16,3,29.37-15.39,323.91-16.23,356.74-.75,29.17,13.59,289,13.73,320,.15,31.53-14.66,312.74-15.61,345-1,33.12,14.44,323.76,13.12,356.5-1.29,31.79-16,304.8-16.24,335.69-.23,29.31,12.93,301,11.87,327.79-.93,23.14-11.68,277.53-20.61,289.45"/><path class="cls-3" d="M521.21-1.9c-6.38,14-13.66,273-9.79,297.46,3.63,22.91,13.51,218.93,15.67,240.25,3.1,30.71-16.09,322.62-17,356.93-.79,30.5,14.21,287.76,14.36,320.17.15,33-15.34,311.47-16.32,345.24-1,34.63,15.09,322.51,13.71,356.74-1.35,33.23-16.72,303.57-17,335.86-.24,30.65,13.52,300,12.41,328-1,24.19-12.2,277-21.54,289.5"/><path class="cls-3" d="M515.4-2c-6.67,14.61-14.26,272.13-10.22,297.65,3.78,23.91,14.1,218.1,16.35,240.34,3.24,32-16.8,321.32-17.71,357.13-.82,31.82,14.82,286.53,15,320.36.16,34.39-16,310.19-17,345.43-1,36.14,15.75,321.26,14.31,357-1.4,34.68-17.45,302.35-17.71,336-.26,32,14.1,299,12.94,328.23-1,25.24-12.73,276.54-22.48,289.54"/><path class="cls-3" d="M509.58-2.06c-6.94,15.22-14.85,271.25-10.65,297.84,3.94,24.91,14.69,217.26,17,240.44,3.38,33.37-17.49,320-18.44,357.31-.86,33.16,15.44,285.32,15.6,320.55.17,35.82-16.66,308.92-17.73,345.64-1.1,37.63,16.4,320,14.9,357.19-1.46,36.13-18.17,301.13-18.45,336.23-.27,33.31,14.69,298,13.48,328.45-1.05,26.3-13.26,276-23.41,289.6"/><path class="cls-3" d="M503.76-2.15c-7.22,15.84-15.44,270.39-11.07,298,4.1,25.9,15.27,216.43,17.71,240.53,3.51,34.71-18.19,318.71-19.19,357.51-.88,34.48,16.07,284.09,16.24,320.73.17,37.26-17.33,307.66-18.45,345.84-1.14,39.14,17.06,318.74,15.5,357.43-1.52,37.56-18.9,299.9-19.19,336.41-.27,34.63,15.28,297,14,328.67-1.09,27.35-13.79,275.55-24.35,289.64"/><path class="cls-3" d="M497.94-2.23c-7.5,16.44-16,269.52-11.49,298.23,4.25,26.9,15.86,215.59,18.39,240.62,3.64,36-18.89,317.42-19.93,357.7-.91,35.81,16.69,282.88,16.86,320.92.18,38.7-18,306.39-19.15,346-1.19,40.65,17.71,317.48,16.09,357.66-1.58,39-19.62,298.68-19.93,336.59-.28,36,15.87,296,14.56,328.9-1.13,28.4-14.32,275.05-25.28,289.68"/><path class="cls-3" d="M492.12-2.31c-7.77,17.05-16.63,268.64-11.92,298.42,4.41,27.89,16.45,214.76,19.07,240.71,3.79,37.38-19.58,316.12-20.66,357.9-.95,37.13,17.3,281.65,17.49,321.11.18,40.12-18.67,305.11-19.87,346.23-1.23,42.15,18.37,316.23,16.69,357.9-1.64,40.45-20.35,297.44-20.66,336.76-.3,37.31,16.45,295,15.09,329.12-1.17,29.45-14.85,274.56-26.22,289.73"/><path class="cls-3" d="M486.3-2.39C478.25,15.26,469.08,265.38,474,296.22c4.57,28.89,17,213.92,19.75,240.8,3.92,38.72-20.29,314.82-21.4,358.09-1,38.46,17.92,280.43,18.11,321.3.19,41.56-19.33,303.85-20.58,346.43-1.27,43.66,19,315,17.29,358.13-1.69,41.9-21.08,296.22-21.4,337-.31,38.63,17,294,15.64,329.34-1.22,30.5-15.39,274.06-27.16,289.77"/><path class="cls-3" d="M480.49-2.48c-8.33,18.27-17.82,266.9-12.77,298.81,4.72,29.88,17.62,213.09,20.43,240.9,4.05,40-21,313.51-22.14,358.28-1,39.78,18.54,279.21,18.73,321.48.2,43-20,302.58-21.28,346.63-1.32,45.17,19.68,313.72,17.88,358.36-1.75,43.35-21.8,295-22.14,337.13-.32,40,17.63,293,16.18,329.56-1.26,31.56-15.92,273.57-28.1,289.82"/><path class="cls-3" d="M474.67-2.56c-8.61,18.88-18.41,266-13.2,299,4.89,30.88,18.21,212.25,21.12,241,4.18,41.39-21.69,312.22-22.88,358.47-1,41.11,19.16,278,19.36,321.68.2,44.42-20.67,301.3-22,346.82-1.36,46.67,20.34,312.47,18.48,358.6-1.81,44.79-22.53,293.77-22.88,337.31-.32,41.29,18.23,292,16.72,329.78-1.3,32.61-16.44,273.07-29,289.87"/><path class="cls-3" d="M468.85-2.64c-8.89,19.48-19,265.16-13.62,299.19C460.27,328.43,474,508,477,537.63c4.32,42.72-22.38,310.92-23.61,358.67-1.09,42.43,19.77,276.76,20,321.86.21,45.86-21.33,300-22.7,347-1.41,48.18,21,311.21,19.07,358.83-1.87,46.24-23.26,292.55-23.61,337.49-.34,42.63,18.81,291,17.25,330-1.34,33.66-17,272.57-30,289.91"/><path class="cls-3" d="M463-2.72c-9.16,20.09-19.6,264.28-14,299.38,5.2,32.87,19.39,210.58,22.48,241.17,4.46,44.06-23.09,309.62-24.35,358.86-1.12,43.76,20.39,275.55,20.61,322,.21,47.29-22,298.77-23.42,347.23-1.45,49.68,21.65,310,19.67,359.06-1.93,47.68-24,291.32-24.35,337.66-.35,44,19.4,290,17.79,330.23-1.38,34.71-17.5,272.08-30.9,290"/><path class="cls-3" d="M457.21-2.81C447.77,17.9,437,260.61,442.74,296.77c5.36,33.87,20,209.75,23.16,241.26,4.59,45.4-23.79,308.33-25.09,359.06-1.16,45.08,21,274.32,21.23,322.24.22,48.72-22.67,297.49-24.12,347.42-1.5,51.18,22.3,308.7,20.26,359.29-2,49.13-24.71,290.1-25.09,337.85-.36,45.29,20,289,18.33,330.45-1.42,35.76-18,271.58-31.84,290"/><path class="cls-3" d="M451.4-2.89c-9.72,21.31-20.79,262.54-14.9,299.77,5.51,34.86,20.56,208.91,23.84,241.36,4.72,46.72-24.49,307-25.83,359.24-1.19,46.41,21.62,273.11,21.85,322.43.23,50.15-23.33,296.22-24.83,347.62-1.54,52.69,23,307.44,20.86,359.52-2,50.57-25.44,288.88-25.83,338-.37,46.63,20.58,288,18.88,330.67-1.47,36.82-18.57,271.09-32.78,290.05"/><path class="cls-3" d="M445.58-3C435.58,19,424.2,258.7,430.25,297c5.67,35.87,21.15,208.09,24.52,241.46,4.86,48.06-25.18,305.72-26.56,359.44-1.23,47.73,22.24,271.88,22.48,322.61.24,51.59-24,295-25.55,347.82-1.58,54.2,23.62,306.19,21.46,359.76-2.1,52-26.16,287.65-26.56,338.21-.39,48,21.16,287,19.41,330.89-1.51,37.87-19.1,270.59-33.72,290.09"/><path class="cls-3" d="M439.76-3c-10.27,22.53-22,260.8-15.75,300.14,5.83,36.86,21.73,207.25,25.2,241.55,5,49.4-25.88,304.42-27.3,359.63-1.26,49.07,22.86,270.66,23.1,322.81.25,53-24.67,293.68-26.25,348-1.63,55.7,24.27,304.93,22.05,360-2.16,53.46-26.89,286.43-27.3,338.39-.39,49.29,21.75,286,19.95,331.12-1.55,38.92-19.63,270.09-34.65,290.14"/><path class="cls-3" d="M433.94-3.14C423.39,20,411.37,256.79,417.76,297.2c6,37.86,22.33,206.42,25.89,241.64,5.13,50.74-26.59,303.13-28,359.83-1.3,50.39,23.48,269.44,23.72,323,.26,54.45-25.33,292.41-27,348.21-1.67,57.21,24.93,303.68,22.65,360.23-2.22,54.9-27.62,285.2-28,338.56-.4,50.63,22.34,285,20.49,331.34-1.59,40-20.16,269.6-35.59,290.19"/><path class="cls-3" d="M428.12-3.22C417.29,20.53,405,255.84,411.52,297.31c6.15,38.86,22.91,205.58,26.57,241.73,5.26,52.07-27.29,301.83-28.78,360-1.33,51.72,24.09,268.22,24.35,323.18.26,55.89-26,291.14-27.67,348.41-1.72,58.72,25.58,302.43,23.24,360.46-2.28,56.35-28.34,284-28.78,338.75-.41,51.95,22.93,284,21,331.56-1.63,41-20.69,269.1-36.52,290.23"/><path class="cls-3" d="M422.31-3.3c-11.11,24.35-23.76,258.19-17,300.72,6.3,39.85,23.49,204.75,27.24,241.83,5.4,53.4-28,300.52-29.51,360.21-1.36,53,24.71,267,25,323.36.27,57.32-26.66,289.88-28.38,348.61-1.76,60.22,26.25,301.17,23.84,360.69-2.33,57.8-29.07,282.76-29.52,338.93-.42,53.29,23.52,283,21.57,331.79-1.67,42.07-21.21,268.6-37.46,290.27"/><path class="cls-3" d="M416.49-3.39c-11.39,25-24.35,257.32-17.46,300.92,6.46,40.85,24.09,203.91,27.93,241.92,5.54,54.74-28.68,299.22-30.25,360.4-1.4,54.37,25.33,265.78,25.6,323.56.27,58.75-27.34,288.6-29.09,348.81-1.81,61.72,26.9,299.91,24.43,360.92-2.39,59.24-29.79,281.53-30.25,339.11-.44,54.62,24.1,282,22.11,332-1.72,43.13-21.75,268.11-38.4,290.32"/><path class="cls-3" d="M410.67-3.47C399,22.11,385.73,253,392.79,297.64c6.62,41.84,24.67,203.08,28.61,242,5.67,56.07-29.39,297.93-31,360.6C389,955.94,416.36,1164.8,416.63,1224c.28,60.19-28,287.33-29.8,349-1.85,63.23,27.56,298.65,25,361.15-2.45,60.69-30.52,280.31-31,339.29-.45,55.95,24.69,281,22.65,332.23-1.76,44.18-22.28,267.61-39.34,290.36"/><path class="cls-3" d="M404.85-3.55c-11.94,26.18-25.54,255.57-18.3,301.3,6.77,42.84,25.25,202.24,29.29,242.1,5.8,57.41-30.09,296.63-31.73,360.79-1.47,57,26.56,263.34,26.84,323.93.29,61.62-28.66,286.07-30.51,349.21-1.89,64.73,28.22,297.4,25.63,361.39-2.51,62.13-31.25,279.08-31.73,339.46-.45,57.29,25.28,280,23.19,332.45-1.8,45.23-22.81,267.12-40.27,290.42"/><path class="cls-3" d="M399-3.63c-12.21,26.79-26.13,254.7-18.73,301.49,6.93,43.84,25.85,201.41,30,242.19,5.94,58.75-30.78,295.33-32.47,361-1.49,58.34,27.19,262.11,27.48,324.12.29,63-29.34,284.79-31.22,349.4-1.94,66.24,28.87,296.15,26.22,361.62-2.57,63.58-32,277.86-32.47,339.65-.46,58.62,25.87,279,23.73,332.67-1.84,46.28-23.34,266.62-41.21,290.46"/><path class="cls-3" d="M393.22-3.72C380.72,23.69,366.49,250.12,374.06,298c7.09,44.83,26.43,200.57,30.65,242.29,6.08,60.08-31.48,294-33.21,361.17-1.53,59.67,27.81,260.89,28.1,324.31.3,64.49-30,283.52-31.93,349.6-2,67.75,29.53,294.89,26.82,361.85-2.62,65-32.7,276.64-33.2,339.83-.48,59.95,26.45,278,24.26,332.9-1.88,47.33-23.87,266.12-42.14,290.5"/><path class="cls-3" d="M387.4-3.8c-12.78,28-27.32,253-19.59,301.88,7.25,45.83,27,199.74,31.34,242.38,6.21,61.41-32.19,292.73-33.95,361.37-1.56,61,28.43,259.67,28.72,324.49.31,65.92-30.66,282.25-32.63,349.8-2,69.25,30.18,293.64,27.41,362.09-2.68,66.46-33.43,275.41-33.94,340-.49,61.29,27,277,24.8,333.12-1.92,48.39-24.4,265.63-43.08,290.55"/><path class="cls-3" d="M381.58-3.88c-13.05,28.62-27.91,252.09-20,302.07,7.41,46.82,27.61,198.9,32,242.47,6.35,62.75-32.88,291.43-34.68,361.56-1.6,62.32,29,258.45,29.35,324.69.31,67.35-31.33,281-33.35,350-2.06,70.76,30.84,292.38,28,362.32-2.74,67.91-34.15,274.19-34.68,340.19-.5,62.61,27.63,276,25.35,333.34-2,49.43-24.94,265.13-44,290.59"/><path class="cls-3" d="M375.76-4c-13.33,29.23-28.5,251.21-20.43,302.26,7.56,47.82,28.19,198.07,32.69,242.56C394.5,605,354.44,831,352.6,902.61c-1.63,63.66,29.66,257.24,30,324.88.32,68.78-32,279.71-34.05,350.19-2.11,72.27,31.49,291.13,28.6,362.56-2.8,69.35-34.88,273-35.42,340.36-.5,64,28.22,275,25.89,333.56-2,50.49-25.46,264.64-45,290.64"/><path class="cls-3" d="M369.94-4c-13.6,29.84-29.1,250.35-20.86,302.46,7.72,48.81,28.79,197.23,33.38,242.65,6.61,65.42-34.28,288.84-36.16,362-1.67,65,30.28,256,30.6,325.06.32,70.22-32.67,278.44-34.77,350.4-2.15,73.76,32.15,289.86,29.2,362.78-2.86,70.8-35.61,271.74-36.15,340.55-.52,65.28,28.8,274,26.42,333.78-2.05,51.54-26,264.14-45.89,290.69"/><path class="cls-3" d="M364.13-4.13c-13.89,30.45-29.7,249.48-21.29,302.65,7.88,49.81,29.37,196.4,34.06,242.75,6.75,66.75-35,287.53-36.9,362.13-1.7,66.31,30.89,254.79,31.22,325.25.33,71.66-33.33,277.18-35.48,350.6-2.19,75.27,32.81,288.61,29.8,363-2.91,72.25-36.33,270.52-36.89,340.73-.53,66.61,29.39,273,27,334-2.09,52.59-26.52,263.64-46.83,290.73"/><path class="cls-3" d="M358.31-4.21C344.15,26.85,328,244.39,336.6,298.63c8,50.81,29.95,195.56,34.73,242.84,6.89,68.09-35.68,286.23-37.63,362.33-1.73,67.63,31.51,253.57,31.84,325.44.34,73.08-34,275.9-36.18,350.79-2.24,76.78,33.46,287.36,30.39,363.25-3,73.69-37.06,269.29-37.63,340.9-.54,68,30,272,27.5,334.23-2.13,53.65-27.05,263.15-47.76,290.78"/><path class="cls-3" d="M352.49-4.29c-14.44,31.66-30.88,247.73-22.14,303,8.19,51.8,30.55,194.73,35.42,242.93,7,69.43-36.38,284.93-38.37,362.52-1.77,69,32.13,252.35,32.47,325.63.34,74.52-34.67,274.63-36.9,351-2.28,78.28,34.12,286.1,31,363.48-3,75.14-37.79,268.07-38.37,341.09-.55,69.27,30.57,271,28,334.45-2.17,54.69-27.58,262.65-48.7,290.82"/><path class="cls-3" d="M346.67-4.38C332,27.9,315.2,242.49,324.11,298.85c8.35,52.8,31.13,193.89,36.1,243,7.15,70.76-37.08,283.64-39.11,362.72-1.8,70.28,32.75,251.13,33.09,325.81.35,75.95-35.33,273.36-37.6,351.19-2.33,79.79,34.77,284.85,31.58,363.72-3.09,76.58-38.51,266.84-39.1,341.26-.57,70.61,31.15,270,28.58,334.67C335.43,2677,309.53,2883.4,288,2912.11"/><path class="cls-3" d="M340.85-4.46c-15,32.88-32.07,246-23,303.42,8.51,53.79,31.72,193.06,36.79,243.11,7.29,72.1-37.78,282.34-39.85,362.91-1.84,71.61,33.36,249.91,33.72,326,.35,77.38-36,272.09-38.32,351.38-2.37,81.3,35.43,283.59,32.19,364-3.16,78-39.25,265.62-39.85,341.45-.57,71.94,31.74,269,29.12,334.89-2.26,56.8-28.65,261.66-50.58,290.91"/><path class="cls-3" d="M335-4.54C319.76,29,302.37,240.58,311.62,299.07c8.66,54.79,32.31,192.22,37.46,243.21,7.43,73.43-38.48,281-40.58,363.1-1.87,72.93,34,248.68,34.34,326.19.36,78.82-36.67,270.82-39,351.58-2.42,82.8,36.08,282.34,32.78,364.18-3.21,79.47-40,264.4-40.59,341.63-.58,73.27,32.33,268.05,29.66,335.12-2.3,57.85-29.18,261.16-51.51,291"/><path class="cls-3" d="M329.22-4.62c-15.55,34.1-33.26,244.24-23.84,303.8,8.82,55.79,32.89,191.39,38.14,243.3,7.56,74.76-39.18,279.73-41.32,363.29-1.91,74.26,34.6,247.47,35,326.38.37,80.25-37.33,269.55-39.73,351.78-2.46,84.31,36.74,281.09,33.38,364.42-3.27,80.91-40.7,263.17-41.33,341.8-.59,74.61,32.92,267.06,30.2,335.34-2.35,58.91-29.71,260.67-52.45,291"/><path class="cls-3" d="M323.4-4.71c-15.83,34.71-33.85,243.38-24.27,304,9,56.78,33.48,190.55,38.83,243.39,7.69,76.1-39.88,278.44-42.06,363.49-1.94,75.58,35.22,246.24,35.59,326.57.37,81.68-38,268.27-40.45,352-2.5,85.81,37.4,279.82,34,364.64-3.33,82.36-41.43,262-42.06,342-.61,75.94,33.5,266.05,30.73,335.56-2.39,60-30.23,260.17-53.38,291.05"/><path class="cls-3" d="M317.58-4.79c-16.11,35.32-34.44,242.51-24.69,304.19C302,357.18,327,489.12,332.4,542.88c7.83,77.44-40.58,277.14-42.8,363.68-2,76.91,35.83,245,36.21,326.76.38,83.11-38.67,267-41.15,352.18-2.55,87.31,38,278.57,34.57,364.88-3.39,83.8-42.15,260.72-42.8,342.16-.62,77.27,34.09,265.06,31.27,335.79-2.43,61-30.76,259.67-54.32,291.09"/><path class="cls-3" d="M311.76-4.87c-16.38,35.93-35,241.63-25.11,304.38,9.29,58.77,34.65,188.88,40.18,243.57,8,78.77-41.27,275.84-43.53,363.88-2,78.23,36.45,243.8,36.83,326.94.4,84.55-39.33,265.74-41.86,352.38-2.59,88.82,38.71,277.31,35.17,365.11-3.45,85.25-42.88,259.5-43.54,342.35-.62,78.6,34.68,264.06,31.82,336-2.48,62.06-31.3,259.18-55.26,291.14"/><path class="cls-3" d="M305.94-4.95c-16.66,36.53-35.63,240.76-25.54,304.56,9.45,59.78,35.25,188.06,40.87,243.68,8.1,80.1-42,274.54-44.27,364.06-2.05,79.57,37.07,242.58,37.46,327.14.4,86-40,264.46-42.57,352.57-2.64,90.33,39.36,276.06,35.76,365.34-3.5,86.7-43.61,258.28-44.28,342.53-.63,79.93,35.27,263.06,32.36,336.23-2.52,63.11-31.83,258.68-56.2,291.18"/><path class="cls-3" d="M300.13-5c-16.94,37.15-36.23,239.89-26,304.76,9.61,60.77,35.83,187.22,41.55,243.77,8.23,81.44-42.68,273.24-45,364.26-2.08,80.89,37.68,241.36,38.08,327.32.41,87.41-40.66,263.2-43.28,352.77-2.68,91.83,40,274.81,36.36,365.58-3.56,88.14-44.33,257-45,342.7-.65,81.27,35.85,262.07,32.89,336.45-2.56,64.17-32.36,258.19-57.13,291.24"/><path class="cls-3" d="M294.31-5.12c-17.22,37.76-36.82,239-26.4,305,9.77,61.77,36.42,186.39,42.23,243.86,8.38,82.78-43.37,271.94-45.75,364.45-2.11,82.22,38.31,240.14,38.72,327.51.41,88.85-41.34,261.93-44,353-2.73,93.34,40.67,273.55,36.95,365.81-3.62,89.59-45.06,255.83-45.75,342.89-.66,82.6,36.44,261.07,33.43,336.67-2.6,65.21-32.89,257.69-58.07,291.28"/><path class="cls-3" d="M288.49-5.2C271,33.16,251.08,233,261.67,299.94c9.92,62.77,37,185.55,42.91,244,8.51,84.11-44.07,270.64-46.49,364.65C256,992.08,297,1147.45,297.43,1236.23c.42,90.28-42,260.66-44.7,353.17-2.77,94.85,41.33,272.3,37.55,366-3.68,91-45.79,254.6-46.49,343.06-.67,83.93,37,260.07,34,336.9-2.64,66.26-33.42,257.19-59,291.32"/><path class="cls-3" d="M282.67-5.28c-17.77,39-38,237.27-27.24,305.33C265.51,363.81,293,484.77,299,544.1c8.64,85.44-44.78,269.34-47.23,364.83-2.17,84.87,39.55,237.7,40,327.89.43,91.71-42.66,259.38-45.41,353.36-2.81,96.35,42,271,38.15,366.28-3.74,92.47-46.51,253.37-47.23,343.25-.68,85.26,37.62,259.07,34.51,337.11-2.68,67.32-33.95,256.7-59.94,291.37"/><path class="cls-3" d="M276.85-5.37C258.8,34.21,238.25,231,249.18,300.16,259.42,364.92,287.36,484,293.46,544.3c8.77,86.78-45.48,268-48,365-2.21,86.19,40.16,236.47,40.59,328.07.43,93.15-43.34,258.12-46.12,353.57-2.86,97.85,42.64,269.78,38.74,366.51-3.79,93.91-47.24,252.14-48,343.42-.68,86.6,38.21,258.08,35.06,337.34-2.73,68.37-34.48,256.2-60.88,291.41"/><path class="cls-3" d="M271-5.45c-18.33,40.19-39.2,235.54-28.1,305.72,10.4,65.75,38.77,183.05,44.95,244.23,8.91,88.11-46.17,266.74-48.7,365.22C237,997.24,280,1145,280.4,1238c.44,94.58-44,256.85-46.83,353.77-2.9,99.36,43.31,268.53,39.34,366.74-3.85,95.36-48,250.92-48.7,343.6-.7,87.93,38.79,257.08,35.59,337.56-2.77,69.43-35,255.71-61.82,291.46"/><path class="cls-3" d="M265.22-5.53c-18.61,40.8-39.79,234.66-28.53,305.91,10.56,66.75,39.36,182.21,45.64,244.32,9.05,89.45-46.87,265.44-49.44,365.42-2.28,88.84,41.4,234,41.84,328.45.44,96-44.67,255.57-47.54,354-2.95,100.86,44,267.27,39.93,367-3.91,96.81-48.69,249.7-49.44,343.79-.71,89.26,39.38,256.08,36.13,337.78-2.81,70.47-35.54,255.21-62.75,291.51"/><path class="cls-3" d="M259.4-5.61c-18.88,41.4-40.38,233.79-28.95,306.1,10.71,67.75,39.94,181.38,46.32,244.41,9.18,90.79-47.57,264.15-50.18,365.61-2.31,90.17,42,232.81,42.46,328.64.45,97.44-45.33,254.31-48.25,354.16-3,102.37,44.62,266,40.53,367.21-4,98.25-49.42,248.47-50.18,344-.72,90.59,40,255.09,36.67,338C245,2714,211.75,2897.2,184.13,2934"/><path class="cls-3" d="M253.58-5.7c-19.16,42-41,232.92-29.37,306.3,10.87,68.74,40.53,180.54,47,244.51,9.31,92.12-48.28,262.84-50.92,365.8-2.35,91.49,42.63,231.59,43.08,328.82.46,98.88-46,253-49,354.36-3,103.88,45.27,264.76,41.12,367.44-4,99.7-50.15,247.25-50.92,344.15-.73,91.92,40.56,254.08,37.21,338.22-2.89,72.58-36.6,254.22-64.62,291.6"/><path class="cls-3" d="M247.76-5.78C228.33,36.85,206.19,226.27,218,300.71c11,69.74,41.12,179.71,47.68,244.6,9.45,93.45-49,261.54-51.65,366-2.38,92.82,43.25,230.37,43.71,329,.46,100.31-46.67,251.76-49.67,354.55C205,1700.25,254,1858.38,249.75,1962.55c-4.08,101.14-50.87,246-51.65,344.32-.74,93.26,41.14,253.09,37.74,338.45C232.91,2719,198.71,2899,170.28,2937"/><path class="cls-3" d="M242-5.86c-19.72,43.23-42.17,231.18-30.23,306.68,11.18,70.73,41.7,178.87,48.36,244.69,9.59,94.79-49.67,260.24-52.39,366.19-2.42,94.14,43.87,229.14,44.33,329.2.47,101.74-47.33,250.49-50.38,354.75-3.12,106.89,46.59,262.26,42.32,367.91-4.14,102.59-51.6,244.8-52.39,344.5-.75,94.59,41.73,252.1,38.28,338.67-3,74.69-37.66,253.23-66.49,291.69"/><path class="cls-3" d="M236.13-5.94c-20,43.84-42.76,230.3-30.65,306.87,11.34,71.73,42.29,178,49,244.78,9.72,96.13-50.37,258.95-53.13,366.38-2.45,95.48,44.49,227.93,45,329.39.48,103.18-48,249.23-51.08,355-3.17,108.4,47.24,261,42.91,368.14-4.2,104-52.32,243.58-53.13,344.69-.76,95.92,42.32,251.09,38.83,338.89-3,75.73-38.2,252.73-67.44,291.73"/><path class="cls-3" d="M230.31-6C210,38.43,187,223.41,199.23,301c11.5,72.72,42.88,177.2,49.73,244.87,9.85,97.46-51.08,257.65-53.87,366.57-2.49,96.81,45.1,226.71,45.58,329.58.48,104.62-48.67,248-51.8,355.16-3.2,109.89,47.9,259.74,43.51,368.37-4.26,105.47-53,242.35-53.87,344.86-.77,97.26,42.91,250.1,39.37,339.12-3.06,76.78-38.73,252.23-68.37,291.77"/><path class="cls-3" d="M224.49-6.11C203.94,39,180.54,222.45,193,301.15c11.66,73.72,43.47,176.37,50.4,245,10,98.79-51.77,256.34-54.6,366.76-2.52,98.13,45.72,225.49,46.2,329.77.49,106-49.33,246.68-52.5,355.35-3.25,111.4,48.55,258.48,44.1,368.6-4.32,106.92-53.78,241.13-54.6,345.05-.79,98.58,43.49,249.1,39.9,339.33-3.1,77.84-39.25,251.74-69.31,291.83"/><path class="cls-3" d="M218.67-6.19c-20.82,45.67-44.54,227.69-31.93,307.45C198.56,376,230.8,476.79,237.83,546.32c10.13,100.13-52.47,255-55.34,366.95-2.56,99.46,46.34,224.27,46.83,330,.49,107.48-50,245.42-53.22,355.55-3.29,112.91,49.21,257.23,44.7,368.84-4.38,108.36-54.5,239.9-55.34,345.22-.8,99.92,44.08,248.1,40.44,339.56-3.14,78.89-39.78,251.24-70.24,291.87"/><path class="cls-3" d="M212.85-6.27C191.75,40,167.72,220.55,180.5,301.37c12,75.71,44.64,174.7,51.77,245.15C242.53,648,179.1,800.27,176.19,913.67c-2.59,100.78,46.95,223,47.45,330.14.5,108.91-50.67,244.15-53.92,355.75-3.34,114.41,49.86,256,45.29,369.07-4.43,109.81-55.23,238.68-56.08,345.4-.8,101.25,44.67,247.11,41,339.79-3.18,79.94-40.31,250.74-71.18,291.91"/><path class="cls-3" d="M207-6.36c-21.38,46.89-45.73,226-32.78,307.84,12.13,76.71,45.23,173.86,52.44,245.24,10.4,102.8-53.87,252.45-56.81,367.34-2.62,102.11,47.57,221.83,48.07,330.34.51,110.34-51.33,242.87-54.63,355.94-3.38,115.92,50.52,254.72,45.89,369.3-4.49,111.26-56,237.46-56.82,345.59-.81,102.58,45.26,246.11,41.52,340-3.22,81-40.84,250.25-72.11,292"/><path class="cls-3" d="M201.22-6.44c-21.66,47.5-46.32,225.08-33.21,308,12.29,77.7,45.82,173,53.13,245.33,10.53,104.14-54.57,251.15-57.55,367.54-2.66,103.43,48.19,220.6,48.7,330.52.51,111.78-52,241.6-55.35,356.14-3.42,117.43,51.18,253.47,46.49,369.54-4.55,112.7-56.68,236.23-57.55,345.76-.83,103.92,45.84,245.11,42.06,340.23-3.27,82-41.38,249.75-73.06,292"/><path class="cls-3" d="M195.4-6.52c-21.94,48.1-46.92,224.21-33.63,308.22,12.44,78.7,46.4,172.19,53.81,245.43C226.24,652.6,160.31,797,157.28,914.85c-2.68,104.76,48.82,219.39,49.33,330.71.52,113.21-52.67,240.34-56.05,356.34-3.47,118.93,51.83,252.21,47.08,369.77-4.61,114.15-57.41,235-58.29,345.95-.84,105.24,46.43,244.11,42.6,340.44-3.31,83.1-41.91,249.26-74,292.05"/><path class="cls-3" d="M189.58-6.6c-22.21,48.71-47.51,223.33-34.05,308.41,12.6,79.7,47,171.36,54.49,245.52,10.8,106.8-56,248.55-59,367.92-2.72,106.08,49.43,218.16,50,330.9.53,114.64-53.33,239.06-56.76,356.53-3.51,120.44,52.49,251,47.68,370-4.67,115.59-58.14,233.78-59,346.12-.85,106.58,47,243.12,43.14,340.67-3.35,84.15-42.44,248.76-74.93,292.1"/><path class="cls-3" d="M183.76-6.69c-22.49,49.33-48.1,222.47-34.48,308.61,12.76,80.69,47.58,170.52,55.17,245.61,10.94,108.14-56.66,247.25-59.77,368.11-2.75,107.41,50,216.94,50.58,331.09.54,116.07-54,237.79-57.47,356.73-3.56,122,53.14,249.71,48.27,370.24-4.72,117-58.86,232.56-59.77,346.3-.85,107.91,47.61,242.12,43.68,340.9-3.39,85.2-43,248.26-75.86,292.14"/><path class="cls-3" d="M178-6.77C155.18,43.16,129.25,214.82,143,302c12.92,81.69,48.16,169.69,55.85,245.7C210,657.21,141.52,793.68,138.38,916c-2.79,108.73,50.67,215.72,51.2,331.27.55,117.51-54.66,236.53-58.18,356.94-3.6,123.44,53.8,248.44,48.87,370.46-4.78,118.49-59.59,231.34-60.5,346.49C118.9,2430.44,168,2562.32,164,2662.31c-3.43,86.25-43.5,247.77-76.8,292.19"/><path class="cls-3" d="M172.13-6.85c-23,50.54-49.29,220.72-35.34,309,13.08,82.68,48.76,168.85,56.54,245.79,11.2,110.82-58.07,244.66-61.25,368.5-2.82,110.07,51.29,214.5,51.83,331.47.55,118.94-55.34,235.25-58.89,357.13-3.65,125,54.45,247.19,49.46,370.7-4.84,119.92-60.32,230.11-61.24,346.66C112.36,2433,162,2562.52,158,2663.73,154.52,2751,114,2911,80.26,2956"/><path class="cls-3" d="M166.31-6.94C143,44.22,116.42,212.92,130.55,302.24c13.23,83.69,49.34,168,57.22,245.9,11.34,112.14-58.77,243.35-62,368.69-2.86,111.39,51.9,213.27,52.45,331.65.56,120.37-56,234-59.6,357.33-3.69,126.46,55.11,245.93,50.06,370.93-4.9,121.37-61,228.89-62,346.85-.89,111.9,49.37,239.12,45.3,341.55-3.52,88.36-44.56,246.78-78.68,292.28"/><path class="cls-3" d="M160.49-7C136.89,44.74,110,212,124.31,302.35c13.39,84.68,49.93,167.19,57.89,246,11.48,113.48-59.46,242-62.72,368.88-2.89,112.72,52.52,212.06,53.07,331.84.57,121.81-56.66,232.71-60.31,357.53-3.73,128,55.77,244.68,50.66,371.17-5,122.81-61.77,227.66-62.72,347-.9,113.24,50,238.13,45.84,341.78-3.56,89.41-45.09,246.28-79.61,292.32"/><path class="cls-3" d="M154.67-7.1C130.79,45.27,103.6,211,118.06,302.46c13.55,85.68,50.52,166.35,58.58,246.08,11.61,114.82-60.17,240.75-63.46,369.08-2.93,114,53.14,210.83,53.7,332,.57,123.24-57.34,231.45-61,357.73-3.78,129.47,56.42,243.43,51.25,371.4-5,124.26-62.49,226.44-63.46,347.2-.91,114.58,50.56,237.14,46.38,342-3.6,90.45-45.62,245.78-80.55,292.37"/><path class="cls-3" d="M148.86-7.18c-24.16,53-51.67,217.23-37,309.75,13.7,86.68,51.1,165.52,59.26,246.17C182.82,664.89,110.21,788.2,106.88,918c-3,115.37,53.75,209.62,54.32,332.22.58,124.67-58,230.17-61.73,357.92-3.82,131,57.08,242.17,51.85,371.63C146.25,2105.49,88.1,2205,87.13,2327.17c-.92,115.9,51.14,236.13,46.91,342.22-3.64,91.51-46.15,245.29-81.48,292.42"/><path class="cls-3" d="M143-7.27c-24.44,53.59-52.26,216.37-37.47,310,13.87,87.67,51.7,164.68,60,246.26C177.4,666.43,104,787.1,100.58,918.41c-3,116.69,54.37,208.39,55,332.4.58,126.11-58.67,228.9-62.44,358.12-3.87,132.48,57.73,240.92,52.45,371.87-5.14,127.15-64,224-64.94,347.56-.93,117.24,51.73,235.14,47.45,342.45-3.68,92.56-46.68,244.79-82.42,292.46"/><path class="cls-3" d="M137.22-7.35c-24.71,54.2-52.86,215.5-37.89,310.14,14,88.67,52.28,163.85,60.62,246.36C172,668,97.69,786,94.28,918.8c-3,118,55,207.17,55.57,332.59.59,127.54-59.33,227.63-63.15,358.32-3.91,134,58.39,239.66,53.05,372.1-5.2,128.6-64.68,222.77-65.68,347.74-.94,118.57,52.32,234.15,48,342.67-3.72,93.62-47.21,244.3-83.35,292.51"/><path class="cls-3" d="M131.4-7.43C106.41,47.37,78,207.19,93.09,302.9c14.18,89.66,52.86,163,61.3,246.45C166.54,669.5,91.43,784.91,88,919.2c-3.06,119.34,55.61,206,56.19,332.78.6,129-60,226.36-63.85,358.52-4,135.49,59,238.4,53.64,372.33-5.26,130-65.41,221.54-66.42,347.92-1,119.9,52.91,233.15,48.54,342.89-3.77,94.67-47.75,243.8-84.3,292.55"/><path class="cls-3" d="M125.58-7.51C100.31,47.9,71.54,206.24,86.84,303c14.34,90.66,53.46,162.18,62,246.54,12.28,121.49-63.67,234.26-67.15,370-3.1,120.67,56.22,204.73,56.82,333,.6,130.4-60.67,225.09-64.57,358.72-4,137,59.71,237.15,54.24,372.56C122.86,2115.33,62,2204.16,61,2331.94c-1,121.24,53.49,232.15,49.07,343.12-3.81,95.71-48.27,243.3-85.23,292.59"/><path class="cls-3" d="M119.77-7.6c-25.55,56-54.64,212.89-39.17,310.72,14.49,91.66,54,161.34,62.66,246.63C155.69,672.58,78.9,782.71,75.38,920c-3.13,122,56.84,203.51,57.44,333.15C133.43,1385,71.49,1477,67.54,1612.06c-4,138.5,60.37,235.89,54.84,372.79C117,2117.78,55.52,2204,54.49,2333.14c-1,122.56,54.08,231.15,49.61,343.33-3.85,96.77-48.8,242.81-86.17,292.65"/><path class="cls-3" d="M114-7.68C88.12,49,58.72,204.33,74.36,303.23,89,395.88,129,463.74,137.7,550c12.56,124.17-65.06,231.66-68.62,370.43-3.17,123.32,57.46,202.29,58.06,333.35.62,133.27-62,222.55-66,359.11-4.09,140,61,234.64,55.43,373C111.16,2120.24,49,2203.74,48,2334.33c-1,123.9,54.67,230.16,50.15,343.56-3.89,97.82-49.33,242.31-87.1,292.69"/><path class="cls-3" d="M108.13-7.76C82,49.48,52.3,203.38,68.11,303.34,82.92,397,123.33,463,132.14,550.16c12.69,125.49-65.76,230.36-69.36,370.62-3.2,124.64,58.08,201.06,58.69,333.53.62,134.7-62.67,221.28-66.7,359.31-4.13,141.51,61.68,233.38,56,373.26-5.49,135.82-68.32,216.65-69.37,348.64-1,125.24,55.26,229.16,50.69,343.79-3.93,98.87-49.86,241.81-88,292.73"/><path class="cls-3" d="M102.31-7.84C75.93,50,45.89,202.42,61.87,303.45c15,94.64,55.8,158.84,64.71,246.91,12.82,126.83-66.47,229.06-70.1,370.81-3.24,126,58.69,199.85,59.31,333.72.63,136.14-63.33,220-67.4,359.51-4.18,143,62.33,232.13,56.62,373.5-5.55,137.26-69,215.42-70.1,348.82-1,126.56,55.84,228.16,51.22,344-4,99.93-50.39,241.32-89,292.78"/><path class="cls-3" d="M96.49-7.93c-26.65,58.46-57,209.4-40.87,311.49,15.13,95.64,56.39,158,65.39,247,13,128.17-67.16,227.76-70.83,371-3.27,127.3,59.31,198.62,59.94,333.91.63,137.56-64,218.73-68.12,359.7-4.22,144.53,63,230.88,57.22,373.73-5.6,138.71-69.77,214.2-70.84,349-1,127.9,56.43,227.17,51.77,344.23-4,101-50.93,240.82-89.92,292.82"/><path class="cls-3" d="M90.67-8C63.74,51.06,33.07,200.52,49.38,303.67c15.28,96.63,57,157.17,66.07,247.09,13.1,129.5-67.86,226.46-71.58,371.2-3.3,128.63,59.94,197.4,60.57,334.1.64,139-64.67,217.47-68.82,359.9-4.27,146,63.64,229.62,57.81,374-5.66,140.16-70.5,213-71.58,349.19-1,129.22,57,226.16,52.31,344.44-4.07,102-51.46,240.33-90.85,292.87"/><path class="cls-3" d="M84.86-8.09C57.64,51.58,26.66,199.56,43.14,303.78,58.58,401.41,100.7,460.11,109.89,551c13.23,130.84-68.56,225.17-72.32,371.4-3.33,129.95,60.56,196.18,61.19,334.28.65,140.44-65.33,216.2-69.53,360.11-4.31,147.53,64.3,228.36,58.41,374.19-5.72,141.6-71.22,211.75-72.32,349.36-1,130.56,57.61,225.17,52.85,344.67-4.11,103.08-52,239.83-91.78,292.92"/><path class="cls-3" d="M79-8.17C51.55,52.11,20.24,198.61,36.89,303.89c15.6,98.63,58.16,155.5,67.44,247.28C117.69,683.34,35.06,775,31.27,922.75c-3.37,131.28,61.17,195,61.82,334.47.65,141.87-66,214.93-70.25,360.31-4.35,149,65,227.1,59,374.42-5.78,143-71.95,210.52-73,349.54-1.05,131.9,58.19,224.18,53.38,344.9-4.15,104.13-52.52,239.33-92.72,293"/><path class="cls-3" d="M73.22-8.26C45.45,52.64,13.83,197.65,30.65,304,46.4,403.62,89.39,458.66,98.76,551.37c13.5,133.51-70,222.56-73.79,371.77-3.4,132.61,61.79,193.75,62.44,334.67.66,143.3-66.66,213.66-70.95,360.5-4.4,150.54,65.61,225.85,59.6,374.66-5.84,144.49-72.68,209.29-73.79,349.72-1.06,133.22,58.78,223.17,53.92,345.11-4.19,105.19-53,238.84-93.65,293"/><path class="cls-3" d="M67.4-8.34c-28,61.5-60,205-43,312.45C40.32,404.73,83.73,457.94,93.2,551.57c13.64,134.84-70.66,221.27-74.53,372-3.43,133.93,62.41,192.52,63.06,334.85.67,144.74-67.33,212.39-71.66,360.7-4.43,152.05,66.27,224.6,60.2,374.89-5.89,145.93-73.4,208.07-74.53,349.9-1.07,134.56,59.37,222.18,54.46,345.34C46,2795.45-3.37,2927.56-44.39,2982.27"/><path class="cls-3" d="M61.58-8.42C33.26,53.69,1,195.75,18.16,304.22c16.07,101.61,59.92,153,69.48,247.55,13.77,136.18-71.36,220-75.27,372.16-3.47,135.26,63,191.3,63.69,335,.67,146.17-68,211.12-72.37,360.9C-.79,1773.43,70.61,1843.21,64.48,1995c-6,147.38-74.13,206.85-75.27,350.09-1.08,135.88,60,221.18,55,345.55-4.28,107.29-54.11,237.85-95.53,293.1"/><path class="cls-3" d="M55.77-8.5C27.17,54.22-5.4,194.79,11.92,304.33,28.14,406.94,72.42,456.49,82.08,552,96,689.49,10,770.64,6.07,924.33c-3.5,136.58,63.64,190.08,64.31,335.23.68,147.6-68.66,209.84-73.08,361.09C-7.22,1775.71,64.88,1842.74,58.69,1996c-6,148.82-74.85,205.62-76,350.26-1.1,137.22,60.54,220.18,55.54,345.78-4.32,108.34-54.64,237.35-96.47,293.14"/><path class="cls-3" d="M50-8.59c-28.88,63.33-61.76,202.43-44.28,313C22.06,408.05,66.76,455.76,76.51,552.18,90.55,691,3.75,769.54-.23,924.72-3.77,1062.63,64,1113.58,64.71,1260.14c.69,149-69.34,208.58-73.79,361.29C-13.65,1778,59.15,1842.26,52.9,1997c-6.07,150.27-75.58,204.4-76.74,350.44-1.1,138.56,61.13,219.19,56.08,346-4.36,109.39-55.17,236.85-97.4,293.19"/><path class="cls-3" d="M44.13-8.67C15,55.27-18.23,192.89-.57,304.55,16,409.15,61.11,455,71,552.38,85.13,692.56-2.51,768.45-6.53,925.12c-3.57,139.23,64.88,187.63,65.56,335.6.7,150.47-70,207.31-74.5,361.49-4.61,158.08,68.89,219.58,62.58,375.83C41,2149.75-29.2,2201.21-30.37,2348.66c-1.11,139.88,61.72,218.19,56.62,346.22-4.4,110.45-55.7,236.36-98.34,293.24"/><path class="cls-3" d="M38.31-8.75C8.88,55.8-24.64,191.93-6.81,304.66c16.7,105.6,62.26,149.65,72.2,247.92C79.7,694.1-8.77,767.35-12.83,925.51c-3.61,140.56,65.49,186.42,66.18,335.8.71,151.9-70.66,206-75.21,361.69-4.65,159.57,69.55,218.32,63.18,376-6.19,153.16-77,202-78.22,350.8C-38,2491.07,25.41,2567,20.26,2696.3,15.82,2807.79-36,2932.16-79,2989.58"/><path class="cls-3" d="M32.49-8.83C2.78,56.32-31,191-13.06,304.77c16.86,106.59,62.85,148.82,72.88,248C74.27,695.64-15,766.25-19.13,925.91c-3.64,141.89,66.11,185.19,66.81,336,.71,153.33-71.33,204.77-75.92,361.89-4.7,161.08,70.2,217.06,63.77,376.28-6.24,154.61-77.76,200.73-78.95,351-1.14,142.55,62.89,216.19,57.69,346.66C9.79,2810.26-42.49,2933.08-85.94,2991"/><path class="cls-3" d="M26.68-8.92c-30,65.77-64.14,198.94-46,313.79,17,107.6,63.44,148,73.56,248.11C68.84,697.17-21.3,765.15-25.43,926.3c-3.68,143.22,66.73,184,67.43,336.17.72,154.77-72,203.5-76.63,362.09-4.74,162.59,70.86,215.81,64.37,376.52-6.3,156.05-78.49,199.5-79.69,351.16-1.15,143.88,63.48,215.2,58.24,346.89C3.76,2812.73-49,2934-92.86,2992.5"/><path class="cls-3" d="M20.86-9C-9.41,57.37-43.87,189.07-25.54,305c17.17,108.59,64,147.16,74.24,248.21C63.42,698.71-27.56,764.06-31.73,926.7c-3.71,144.54,67.35,182.75,68.06,336.35.72,156.2-72.67,202.23-77.34,362.29-4.79,164.09,71.51,214.55,65,376.75-6.36,157.5-79.21,198.28-80.43,351.34-1.15,145.22,64.07,214.2,58.78,347.12C-2.27,2815.2-55.52,2934.92-99.79,2994"/><path class="cls-3" d="M15-9.08c-30.55,67-65.33,197.2-46.83,314.17,17.33,109.59,64.62,146.32,74.93,248.3C58,700.25-33.82,763-38,927.09c-3.75,145.87,68,181.53,68.68,336.55.73,157.63-73.33,200.95-78,362.48-4.83,165.6,72.17,213.3,65.56,377-6.42,158.94-79.94,197-81.17,351.52C-64.17,2501.17,1.65,2567.83-3.69,2702c-4.61,115.71-58.35,233.88-103,293.47"/><path class="cls-3" d="M9.22-9.16C-21.6,58.43-56.7,187.16-38,305.2c17.48,110.59,65.2,145.49,75.6,248.39,15,148.19-77.65,208.27-81.9,373.9-3.78,147.19,68.58,180.31,69.3,336.73.74,159.07-74,199.69-78.75,362.68C-58.66,1794,19,1839,12.37,2004.12,5.89,2164.5-68.3,2200-69.54,2355.82-70.71,2503.7-4.29,2568-9.68,2703.38c-4.65,116.75-58.88,233.38-104,293.51"/><path class="cls-3" d="M3.4-9.25C-27.7,59-63.11,186.21-44.28,305.31-26.63,416.89,21.51,450,32,553.79c15.12,149.53-78.35,207-82.64,374.09C-54.45,1076.4,18.57,1107,19.3,1264.8c.74,160.5-74.67,198.42-79.47,362.88-4.92,168.61,73.48,210.79,66.75,377.46C.05,2167-74.81,2199.74-76.06,2357c-1.19,149.21,65.83,211.2,60.39,347.78-4.69,117.8-59.41,232.88-104.89,293.55"/><path class="cls-3" d="M-2.41-9.33C-33.79,59.48-69.52,185.25-50.52,305.42-32.72,418,15.86,449.24,26.45,554,41.7,704.86-52.61,759.67-56.93,928.28c-3.85,149.84,69.81,177.87,70.55,337.11.75,161.93-75.33,197.14-80.18,363.07-5,170.12,74.14,209.54,67.35,377.69-6.59,163.27-82.12,193.38-83.38,352.06-1.2,150.54,66.42,210.21,60.93,348-4.73,118.86-59.94,232.39-105.83,293.6"/><path class="cls-3" d="M-8.23-9.41C-39.89,60-75.93,184.3-56.76,305.53c18,113.57,67,143,77.65,248.67C36.28,706.4-58.87,758.57-63.23,928.67-67.11,1079.84,7.2,1105.32,7.94,1266c.76,163.36-76,195.88-80.88,363.28-5,171.62,74.79,208.27,67.94,377.91-6.65,164.72-82.85,192.16-84.12,352.24-1.21,151.88,67,209.22,61.47,348.23-4.77,119.91-60.47,231.89-106.76,293.64"/><path class="cls-3" d="M-14-9.49c-31.93,70-68.3,192.84-49,315.13C-44.89,420.21,4.54,447.79,15.32,554.4,30.85,707.93-65.13,757.47-69.54,929.07c-3.91,152.49,71.06,175.42,71.81,337.48C3,1431.35-74.4,1461.16-79.33,1630c-5,173.12,75.45,207,68.54,378.15-6.71,166.16-83.57,190.93-84.86,352.42-1.21,153.21,67.6,208.21,62,348.44-4.82,121-61,231.4-107.71,293.69"/><path class="cls-3" d="M-19.87-9.58c-32.21,70.64-68.89,192-49.38,315.33C-51,421.31-1.11,447.06,9.76,554.6c15.66,154.87-81.15,201.78-85.6,374.86-3.94,153.82,71.68,174.21,72.43,337.68.77,166.23-77.33,193.33-82.3,363.67-5.1,174.63,76.1,205.77,69.13,378.38-6.77,167.61-84.3,189.71-85.59,352.6C-103.4,2516.33-34,2569-39.62,2710.46c-4.86,122-61.54,230.9-108.64,293.74"/><path class="cls-3" d="M-25.69-9.66C-58.18,61.59-95.17,181.44-75.5,305.86-57.06,422.42-6.77,446.34,4.2,554.8,20,711-77.66,755.28-82.14,929.86c-4,155.14,72.29,173,73.06,337.86.77,167.66-78,192.06-83,363.87-5.14,176.14,76.77,204.51,69.73,378.62-6.82,169.05-85,188.48-86.33,352.78-1.24,155.87,68.77,206.22,63.09,348.89-4.9,123.06-62.06,230.4-109.58,293.78"/><path class="cls-3" d="M-31.5-9.74C-64.27,62.11-101.58,180.49-81.74,306-63.15,423.53-12.43,445.61-1.36,555,14.57,712.54-83.92,754.18-88.44,930.25c-4,156.48,72.91,171.76,73.68,338,.78,169.1-78.67,190.8-83.72,364.07-5.19,177.64,77.42,203.26,70.32,378.85-6.88,170.5-85.75,187.26-87.07,353-1.25,157.2,69.36,205.22,63.63,349.11-4.94,124.12-62.59,229.91-110.51,293.83"/></g></g></svg>