<svg id="Calque_1" data-name="Calque 1" xmlns="http://www.w3.org/2000/svg" xmlns:xlink="http://www.w3.org/1999/xlink" viewBox="0 0 595.28 2834.65"><defs><style>.cls-1,.cls-3{fill:none;}.cls-2{clip-path:url(#clip-path);}.cls-3{stroke:#000;stroke-miterlimit:10;}</style><clipPath id="clip-path"><rect class="cls-1" width="595.28" height="2834.65"/></clipPath></defs><title>2</title><g class="cls-2"><path class="cls-3" d="M-23.36-28C-87.91,88.71-158.45,261-126.8,445.38c25.41,149,93.53,168,119.82,323.16,36.8,217.28-79.12,283.6-87.79,546.69-8.5,255.22,98.67,258.46,98.83,517.35.26,267.57-113.79,335.23-125.15,598.12-8.58,198.81,47.69,372.84,110.78,505.94"/><path class="cls-3" d="M-17.16-28.3C-81.44,88.25-151.69,260.26-120.23,444.53-94.95,593.79-27,612.84-.82,768.11c36.64,217.55-79.11,283.7-87.65,546.74-8.39,254.8,98.38,257.93,98.69,516.51.44,267.54-113.31,335.43-124.7,598.17-8.57,198.39,47.35,372.78,110.87,507"/><path class="cls-3" d="M-10.95-28.56c-64,116.35-134,288.1-102.71,472.24,25.14,149.51,92.95,168.57,119,324,36.47,217.81-79.1,283.78-87.51,546.79-8.27,254.36,98.09,257.4,98.55,515.66.62,267.51-112.83,335.64-124.24,598.23-8.58,198,47,372.7,111,508.16"/><path class="cls-3" d="M-4.75-28.83C-68.49,87.33-138.16,258.82-107.09,442.83c25,149.76,92.66,168.84,118.59,324.43,36.31,218.08-79.09,283.87-87.38,546.85C-84,1568,21.93,1571,22.54,1828.92c.8,267.49-112.36,335.85-123.79,598.28-8.57,197.53,46.64,372.64,111.06,509.28"/><path class="cls-3" d="M1.46-29.09C-62,86.87-131.39,258.1-100.52,442-75.65,592-8.16,611.09,17.66,766.84c36.15,218.34-79.08,284-87.24,546.9-8,253.49,97.51,256.32,98.28,514,1,267.46-111.88,336.06-123.33,598.33-8.57,197.11,46.29,372.58,111.15,510.39"/><path class="cls-3" d="M7.66-29.36C-55.54,86.41-124.63,257.38-93.95,441.13-69.22,591.39-1.88,610.5,23.82,766.41c36,218.61-79.07,284.05-87.1,547-7.93,253.05,97.22,255.79,98.14,513.1C36,2093.92-76.54,2162.75-88,2424.86c-8.58,196.69,45.93,372.51,111.23,511.51"/><path class="cls-3" d="M13.87-29.63C-49.06,86-117.86,256.65-87.38,440.28-62.79,590.79,4.4,609.92,30,766c35.82,218.87-79.06,284.13-87,547C-64.8,1565.61,40,1568.25,41,1825.25,42.35,2092.67-69.9,2161.73-81.4,2423.69-90,2620-35.81,2796.14,29.93,2936.32"/><path class="cls-3" d="M20.07-29.89C-42.59,85.5-111.1,255.93-80.81,439.43-56.35,590.19,10.68,609.34,36.13,765.56c35.67,219.14-79,284.23-86.82,547.06C-58.39,1564.81,46,1567.34,47.18,1824c1.51,267.39-110.44,336.69-122,598.49-8.58,195.85,45.23,372.39,111.42,513.75"/><path class="cls-3" d="M26.28-30.16C-36.11,85-104.33,255.21-74.23,438.58-49.92,589.59,17,608.76,42.29,765.14c35.51,219.4-79,284.31-86.69,547.11C-52,1564,52,1566.44,53.34,1822.81c1.69,267.37-110,336.9-121.51,598.54-8.57,195.43,44.89,372.32,111.51,514.86"/><path class="cls-3" d="M32.48-30.42c-62.12,115-130,284.91-100.14,468.15C-43.49,589,23.23,608.17,48.45,764.71c35.35,219.67-79,284.41-86.55,547.17C-45.57,1563.2,58,1565.53,59.5,1821.59c1.87,267.34-109.49,337.11-121,598.59-8.57,195,44.53,372.26,111.6,516"/><path class="cls-3" d="M38.69-30.69C-23.16,84.12-90.81,253.77-61.09,436.88c24,151.51,90.6,170.71,115.7,327.41,35.18,219.93-79,284.49-86.41,547.22-7.36,250.88,95.79,253.12,97.45,508.85,2,267.32-109,337.33-120.59,598.65-8.57,194.59,44.18,372.2,111.7,517.1"/><path class="cls-3" d="M44.9-30.95C-16.69,83.66-84,253-54.52,436c23.9,151.75,90.31,171,115.29,327.83,35,220.2-79,284.58-86.28,547.28-7.24,250.44,95.51,252.58,97.32,508C74,2086.44-36.71,2156.67-48.32,2417.85-56.89,2612-4.49,2790,63.46,2936.05"/><path class="cls-3" d="M51.1-31.22C-10.21,83.2-77.28,252.32-47.95,435.18c23.76,152,90,171.24,114.88,328.26,34.86,220.46-79,284.67-86.14,547.32-7.13,250,95.22,252,97.18,507.16,2.41,267.27-108,337.74-119.67,598.76C-50.27,2610.42,1.77,2788.74,70.17,2936"/><path class="cls-3" d="M57.31-31.49c-61,114.23-127.45,283-98.69,465.82C-17.44,586.53,48.34,605.84,73.09,763c34.69,220.73-79,284.76-86,547.38-7,249.58,94.93,251.52,97,506.31,2.59,267.25-107.57,338-119.22,598.81-8.57,193.31,43.13,372,112,520.44"/><path class="cls-3" d="M63.51-31.75C2.74,82.28-63.36,250.82-34.81,433.48-11,585.93,54.62,605.26,79.25,762.59c34.53,221-79,284.84-85.87,547.43-6.89,249.14,94.65,251,96.91,505.46C93.06,2082.7-16.8,2153.64-28.47,2414.34-37,2607.23,14.3,2786.27,83.59,2935.89"/><path class="cls-3" d="M69.72-32C9.21,81.82-56.57,250.09-28.24,432.63c23.7,152.7,89.14,172,113.65,329.53,34.37,221.26-79,284.94-85.73,547.49C-7.1,1558.36,94,1560.09,96.45,1814.25c3,267.2-106.61,338.38-118.31,598.92C-30.43,2605.64,20.57,2785,90.29,2935.84"/><path class="cls-3" d="M75.92-32.28C15.69,81.36-49.79,249.37-21.67,431.78,1.9,584.72,67.18,604.09,91.57,761.74c34.21,221.52-79,285-85.59,547.54C-.69,1557.55,100,1559.19,102.61,1813c3.12,267.18-106.13,338.58-117.85,599C-23.81,2604.05,26.83,2783.81,97,2935.79"/><path class="cls-3" d="M82.13-32.55C22.16,80.91-43,248.64-15.1,430.93,8.35,584.12,73.45,603.51,97.73,761.31c34,221.8-78.95,285.11-85.46,547.59-6.55,247.85,93.78,249.38,96.5,502.91,3.3,267.15-105.65,338.79-117.39,599-8.57,191.63,41.72,371.74,112.33,524.9"/><path class="cls-3" d="M88.33-32.81C28.64,80.45-36.23,247.92-8.53,430.08,14.8,583.52,79.73,602.93,103.89,760.89,137.77,983,25,1046.09,18.57,1308.53c-6.44,247.41,93.49,248.84,96.36,502.06,3.48,267.13-105.17,339-116.94,599.07-8.57,191.21,41.37,371.68,112.42,526"/><path class="cls-3" d="M94.54-33.08C35.11,80-29.45,247.2-2,429.23c23.21,153.69,88,173.11,112,331.23,33.72,222.33-78.93,285.29-85.18,547.7-6.33,247,93.2,248.31,96.22,501.2,3.66,267.11-104.7,339.22-116.48,599.13-8.57,190.79,41,371.62,112.51,527.14"/><path class="cls-3" d="M100.74-33.35C41.59,79.53-22.67,246.47,4.61,428.38,27.69,582.31,92.29,601.76,116.21,760c33.56,222.59-78.92,285.38-85,547.75-6.21,246.54,92.92,247.77,96.09,500.35,3.84,267.08-104.22,339.43-116,599.19-8.57,190.36,40.67,371.54,112.61,528.24"/><path class="cls-3" d="M107-33.61C48.06,79.07-15.89,245.75,11.18,427.53c23,154.18,87.38,173.65,111.19,332.08,33.39,222.86-78.91,285.47-84.91,547.81-6.1,246.1,92.63,247.23,95.95,499.5,4,267.06-103.74,339.63-115.57,599.24-8.57,189.94,40.31,371.48,112.7,529.36"/><path class="cls-3" d="M113.15-33.88C54.54,78.61-9.12,245,17.75,426.68c22.83,154.43,87.09,173.91,110.78,332.51,33.23,223.12-78.9,285.55-84.78,547.85-6,245.67,92.35,246.71,95.82,498.66,4.19,267-103.26,339.84-115.12,599.29-8.56,189.52,40,371.42,112.79,530.48"/><path class="cls-3" d="M119.36-34.14C61,78.15-2.34,244.3,24.32,425.83,47,580.51,111.12,600,134.69,758.76c33.07,223.39-78.89,285.65-84.64,547.91-5.87,245.24,92.06,246.17,95.68,497.81,4.37,267-102.78,340.05-114.66,599.34C22.5,2592.91,70.68,2775.17,144,2935.42"/><path class="cls-3" d="M125.56-34.41C67.49,77.69,4.44,243.58,30.89,425c22.59,154.92,86.51,174.45,110,333.36C173.76,982,62,1044.07,56.35,1306.3c-5.76,244.8,91.77,245.64,95.54,497,4.55,267-102.31,340.27-114.2,599.4-8.57,188.67,39.26,371.29,113,532.71"/><path class="cls-3" d="M131.77-34.67C74,77.23,11.22,242.86,37.46,424.13,59.92,579.3,123.68,598.84,147,757.91c32.74,223.92-78.87,285.82-84.37,548C57,1550.29,154.13,1551,158.05,1802c4.73,267-101.83,340.48-113.75,599.45-8.57,188.25,38.91,371.23,113.06,533.83"/><path class="cls-3" d="M138-34.94C80.44,76.77,18,242.13,44,423.28,66.37,578.7,130,598.26,153.17,757.49c32.58,224.18-78.86,285.91-84.23,548.07-5.52,243.93,91.2,244.56,95.27,495.25,4.91,266.94-101.35,340.68-113.29,599.5-8.57,187.83,38.55,371.16,113.15,535"/><path class="cls-3" d="M144.18-35.21C86.91,76.31,24.77,241.41,50.6,422.43,72.81,578.1,136.23,597.68,159.33,757.06c32.42,224.45-78.85,286-84.09,548.12-5.41,243.5,90.91,244,95.13,494.41,5.09,266.91-100.87,340.89-112.84,599.55C49,2586.55,95.74,2770.24,170.78,2935.2"/><path class="cls-3" d="M150.38-35.47C93.39,75.86,31.55,240.69,57.17,421.58,79.25,577.5,142.51,597.1,165.49,756.64c32.25,224.71-78.85,286.09-84,548.17-5.29,243.07,90.63,243.5,95,493.56,5.26,266.88-100.39,341.1-112.38,599.6-8.57,187,37.85,371,113.33,537.18"/><path class="cls-3" d="M156.59-35.74C99.86,75.4,38.32,240,63.74,420.73c22,156.16,85,175.78,107.9,335.48,32.1,225-78.83,286.18-83.81,548.23-5.18,242.63,90.33,243,94.86,492.7C188.13,2064,82.77,2138.46,70.77,2396.8c-8.57,186.57,37.5,371,113.42,538.3"/><path class="cls-3" d="M162.79-36C106.34,74.94,45.1,239.24,70.31,419.88c21.83,156.41,84.75,176,107.49,335.91C209.74,981,99,1042.05,94.13,1304.07c-5.07,242.19,90,242.43,94.72,491.85,5.62,266.84-99.44,341.53-111.47,599.72-8.56,186.14,37.15,370.9,113.52,539.4"/><path class="cls-3" d="M169-36.27C112.81,74.48,51.87,238.52,76.88,419,98.58,575.69,161.34,595.35,184,755.36c31.78,225.51-78.81,286.36-83.54,548.34-5,241.76,89.76,241.89,94.59,491,5.8,266.82-99,341.73-111,599.77-8.57,185.72,36.8,370.84,113.61,540.52"/><path class="cls-3" d="M175.2-36.53C119.29,74,58.64,237.8,83.45,418.18,105,575.09,167.62,594.76,190.12,754.94c31.61,225.77-78.8,286.44-83.4,548.38-4.84,241.33,89.47,241.36,94.44,490.16,6,266.79-98.47,341.94-110.55,599.82-8.56,185.3,36.45,370.77,113.7,541.64"/><path class="cls-3" d="M181.41-36.8C125.76,73.56,65.42,237.07,90,417.33c21.45,157.16,83.88,176.85,106.26,337.18C227.73,980.55,117.49,1041,113,1303c-4.73,240.89,89.18,240.83,94.3,489.31,6.16,266.76-98,342.15-110.09,599.87C88.66,2577,133.33,2762.84,211,2934.88"/><path class="cls-3" d="M187.61-37.06C132.24,73.1,72.19,236.35,96.59,416.48c21.32,157.41,83.58,177.12,105.85,337.61,31.29,226.3-78.78,286.62-83.13,548.49C114.7,1543,208.21,1542.87,213.48,1791,219.82,2057.78,116,2133.4,103.84,2391c-8.56,184.45,35.75,370.65,113.89,543.87"/><path class="cls-3" d="M193.82-37.33c-55.11,110-114.86,273-90.66,453,21.19,157.65,83.29,177.38,105.44,338,31.13,226.57-78.77,286.71-83,548.55-4.5,240,88.61,239.76,94,487.6,6.52,266.72-97,342.58-109.18,600-8.56,184,35.39,370.58,114,545"/><path class="cls-3" d="M200-37.6C145.19,72.18,85.73,234.91,109.73,414.78c21.06,157.9,83,177.65,105,338.46,31,226.83-78.76,286.79-82.86,548.6-4.38,239.59,88.33,239.22,93.9,486.75,6.7,266.7-96.56,342.78-108.72,600-8.57,183.61,35,370.52,114.06,546.1"/><path class="cls-3" d="M206.23-37.86c-54.57,109.58-113.72,272-89.93,451.79C137.24,572.08,199,591.85,220.92,752.81c30.8,227.1-78.75,286.89-82.72,548.66-4.27,239.15,88,238.68,93.76,485.9,6.88,266.67-96.08,343-108.27,600.08-8.56,183.19,34.69,370.46,114.16,547.22"/><path class="cls-3" d="M212.43-38.13C158.14,71.27,99.28,233.46,122.87,413.08c20.81,158.4,82.42,178.19,104.21,339.31,30.64,227.36-78.74,287-82.58,548.7-4.15,238.72,87.75,238.16,93.62,485.06,7.06,266.64-95.6,343.2-107.81,600.13-8.57,182.77,34.34,370.39,114.25,548.34"/><path class="cls-3" d="M218.64-38.39c-54,109.2-112.59,271.13-89.2,450.62C150.12,570.88,211.56,590.68,233.24,752c30.48,227.63-78.73,287.07-82.45,548.76-4,238.29,87.47,237.62,93.49,484.2,7.23,266.63-95.12,343.42-107.36,600.2-8.56,182.34,34,370.32,114.34,549.45"/><path class="cls-3" d="M224.84-38.66c-53.75,109-112,270.68-88.83,450,20.55,158.9,81.83,178.72,103.39,340.16,30.31,227.89-78.72,287.15-82.31,548.81-3.92,237.85,87.18,237.08,93.35,483.35,7.41,266.6-94.65,343.63-106.9,600.25C135,2565.87,177.18,2754.21,258,2934.51"/><path class="cls-3" d="M231.05-38.92C177.56,69.89,119.59,231.3,142.58,410.53c20.42,159.15,81.54,179,103,340.58,30.15,228.16-78.71,287.24-82.17,548.87-3.81,237.41,86.88,236.55,93.21,482.5,7.59,266.58-94.17,343.84-106.45,600.3-8.56,181.5,33.29,370.19,114.53,551.68"/><path class="cls-3" d="M237.26-39.19C184,69.43,126.36,230.57,149.15,409.68c20.28,159.4,81.25,179.25,102.57,341,30,228.42-78.7,287.33-82,548.92-3.69,237,86.6,236,93.08,481.65,7.77,266.55-93.69,344-106,600.35-8.56,181.08,32.94,370.13,114.61,552.8"/><path class="cls-3" d="M243.46-39.46C190.51,69,133.13,229.85,155.72,408.83c20.15,159.64,80.95,179.52,102.16,341.43,29.82,228.69-78.69,287.42-81.9,549-3.58,236.55,86.31,235.48,92.94,480.81,7.95,266.52-93.21,344.25-105.53,600.4-8.57,180.65,32.58,370.07,114.7,553.91"/><path class="cls-3" d="M249.67-39.72C197,68.51,139.9,229.13,162.29,408,182.31,567.87,243,587.77,264,749.84c29.66,228.95-78.68,287.5-81.76,549-3.47,236.12,86,235,92.8,480,8.13,266.51-92.73,344.47-105.08,600.46-8.56,180.23,32.23,370,114.8,555"/><path class="cls-3" d="M255.87-40c-52.41,108-109.2,268.4-87,447.12,19.89,160.14,80.37,180,101.34,342.28,29.5,229.22-78.67,287.6-81.63,549.08-3.35,235.68,85.74,234.41,92.67,479.1,8.3,266.48-92.25,344.68-104.62,600.51C168.06,2557.91,208.5,2748,291.5,2934.25"/><path class="cls-3" d="M262.08-40.25C209.94,67.59,153.43,227.69,175.43,406.28,195.19,566.67,255.51,586.6,276.36,749c29.34,229.48-78.67,287.68-81.49,549.13-3.24,235.24,85.45,233.87,92.53,478.25,8.48,266.45-91.78,344.89-104.17,600.56-8.56,179.39,31.53,369.88,115,557.26"/><path class="cls-3" d="M268.28-40.52C216.41,67.13,160.2,227,182,405.43,201.63,566.07,261.79,586,282.52,748.56c29.17,229.75-78.66,287.77-81.36,549.19-3.12,234.81,85.17,233.34,92.4,477.4,8.66,266.43-91.3,345.09-103.71,600.61-8.56,179,31.18,369.82,115.07,558.38"/><path class="cls-3" d="M274.49-40.78c-51.6,107.45-107.52,267-85.92,445.36,19.49,160.89,79.49,180.86,100.11,343.56,29,230-78.65,287.86-81.22,549.23-3,234.38,84.88,232.81,92.26,476.55,8.84,266.41-90.82,345.31-103.25,600.68-8.57,178.54,30.82,369.74,115.16,559.49"/><path class="cls-3" d="M280.69-41c-51.33,107.27-107,266.57-85.55,444.78,19.36,161.14,79.2,181.12,99.7,344,28.85,230.29-78.64,288-81.08,549.29-2.9,233.94,84.59,232.28,92.12,475.7,9,266.39-90.34,345.52-102.8,600.73-8.56,178.12,30.48,369.68,115.25,560.6"/><path class="cls-3" d="M286.9-41.32C235.84,65.76,180.5,224.8,201.71,402.88,220.94,564.27,280.62,584.27,301,747.29c28.7,230.55-78.62,288-80.94,549.34-2.77,233.51,84.31,231.74,92,474.85,9.2,266.36-89.86,345.73-102.34,600.78C201.14,2550,239.82,2741.88,325,2934"/><path class="cls-3" d="M293.1-41.58C242.31,65.3,187.27,224.08,208.28,402c19.09,161.64,78.62,181.66,98.87,344.83,28.53,230.82-78.61,288.13-80.8,549.4-2.66,233.07,84,231.2,91.85,474,9.37,266.33-89.39,345.94-101.89,600.83-8.56,177.28,29.77,369.55,115.44,562.84"/><path class="cls-3" d="M299.31-41.85C248.79,64.84,194,223.36,214.85,401.18c19,161.89,78.32,181.92,98.46,345.26,28.37,231.08-78.6,288.21-80.66,549.45-2.55,232.64,83.73,230.67,91.71,473.15,9.55,266.31-88.91,346.14-101.43,600.88-8.56,176.86,29.42,369.49,115.52,563.95"/><path class="cls-3" d="M305.51-42.11C255.26,64.38,200.8,222.64,221.42,400.33c18.82,162.14,78,182.19,98.05,345.68,28.21,231.35-78.59,288.31-80.53,549.5-2.43,232.21,83.44,230.14,91.58,472.3,9.73,266.29-88.43,346.36-101,600.94-8.55,176.44,29.07,369.43,115.62,565.07"/><path class="cls-3" d="M311.72-42.38c-50,106.3-104.16,264.3-83.73,441.86,18.69,162.39,77.74,182.46,97.64,346.11,28,231.61-78.58,288.39-80.39,549.55-2.32,231.77,83.15,229.6,91.43,471.45,9.92,266.27-87.94,346.57-100.51,601-8.56,176,28.72,369.36,115.71,566.19"/><path class="cls-3" d="M317.92-42.64C268.21,63.46,214.33,221.2,234.56,398.63,253.11,561.27,312,581.35,331.79,745.16c27.88,231.88-78.57,288.48-80.25,549.61-2.21,231.34,82.86,229.07,91.29,470.6,10.1,266.24-87.46,346.78-100,601-8.56,175.59,28.36,369.3,115.8,567.3"/><path class="cls-3" d="M324.13-42.91c-49.44,105.91-103,263.39-83,440.69,18.42,162.89,77.15,183,96.82,347,27.72,232.14-78.56,288.57-80.12,549.66-2.09,230.9,82.58,228.53,91.16,469.75,10.28,266.21-87,347-99.6,601.09-8.56,175.17,28,369.24,115.89,568.42"/><path class="cls-3" d="M330.33-43.17C281.16,62.54,227.85,219.75,247.7,396.93,266,560.07,324.56,580.19,344.11,744.31c27.56,232.41-78.55,288.66-80,549.72-2,230.46,82.29,228,91,468.9,10.45,266.19-86.51,347.19-99.14,601.14-8.56,174.75,27.66,369.17,116,569.54"/><path class="cls-3" d="M336.54-43.44C287.64,62.08,234.62,219,254.27,396.08c18.14,163.39,76.57,183.52,96,347.81,27.39,232.67-78.54,288.75-79.84,549.76-1.87,230,82,227.47,90.88,468.05,10.63,266.17-86,347.41-98.69,601.21-8.55,174.32,27.32,369.1,116.08,570.65"/><path class="cls-3" d="M342.74-43.71c-48.63,105.33-101.36,262-81.9,438.94,18,163.64,76.28,183.79,95.59,348.23,27.23,232.94-78.53,288.84-79.71,549.82-1.75,229.6,81.72,226.93,90.75,467.2,10.81,266.15-85.55,347.62-98.23,601.26-8.56,173.9,27,369,116.16,571.76"/><path class="cls-3" d="M349-44C300.59,61.17,248.14,217.59,267.41,394.38c17.87,163.88,76,184.06,95.18,348.66C389.66,976.24,284.07,1032,283,1292.91c-1.64,229.16,81.43,226.4,90.61,466.35,11,266.12-85.07,347.83-97.78,601.31-8.55,173.48,26.61,369,116.26,572.88"/><path class="cls-3" d="M355.15-44.24C307.06,60.71,254.9,216.87,274,393.53c17.73,164.13,75.69,184.33,94.77,349.08,26.91,233.47-78.51,289-79.44,549.93-1.52,228.73,81.15,225.86,90.48,465.5,11.17,266.09-84.59,348-97.32,601.36-8.56,173.06,26.26,368.91,116.35,574"/><path class="cls-3" d="M361.36-44.5c-47.82,104.75-99.69,260.65-80.81,437.18,17.59,164.38,75.4,184.59,94.36,349.51,26.74,233.73-78.5,289.1-79.3,550-1.41,228.29,80.86,225.32,90.34,464.65,11.34,266.07-84.12,348.24-96.86,601.41-8.56,172.64,25.9,368.85,116.43,575.11"/><path class="cls-3" d="M367.56-44.77C320,59.79,268.43,215.43,287.12,391.83c17.46,164.63,75.11,184.86,93.95,349.93,26.58,234-78.49,289.19-79.16,550-1.29,227.87,80.57,224.8,90.2,463.8,11.52,266.05-83.64,348.46-96.41,601.47-8.55,172.22,25.56,368.78,116.53,576.23"/><path class="cls-3" d="M373.77-45c-47.28,104.36-98.58,259.74-80.08,436C311,555.86,368.51,576.11,387.23,741.34c26.42,234.26-78.49,289.28-79,550.08-1.17,227.43,80.29,224.26,90.07,462.95,11.7,266-83.16,348.67-95.95,601.52-8.56,171.79,25.2,368.72,116.62,577.35"/><path class="cls-3" d="M380-45.3C333,58.87,282,214,300.26,390.13c17.18,165.13,74.52,185.39,93.13,350.78,26.26,234.53-78.48,289.37-78.89,550.14-1.06,227,80,223.72,89.93,462.1,11.88,266-82.68,348.88-95.5,601.57-8.55,171.37,24.86,368.66,116.72,578.46"/><path class="cls-3" d="M386.18-45.57c-46.74,104-97.47,258.84-79.34,434.85,17,165.38,74.22,185.66,92.71,351.21,26.09,234.79-78.47,289.45-78.75,550.19-.95,226.56,79.7,223.19,89.79,461.25,12.06,266-82.2,349.09-95,601.62-8.56,170.95,24.5,368.59,116.8,579.58"/><path class="cls-3" d="M392.38-45.83c-46.47,103.78-96.91,258.38-79,434.26,16.89,165.63,73.93,185.93,92.3,351.63,25.93,235.06-78.46,289.55-78.62,550.25-.83,226.12,79.42,222.65,89.66,460.4C429,2016.66,335,2100,322.17,2352.39c-8.56,170.52,24.14,368.52,116.89,580.69"/><path class="cls-3" d="M398.59-46.1C352.39,57.49,302.23,211.83,320,387.58c16.75,165.88,73.64,186.19,91.89,352.06,25.77,235.32-78.45,289.63-78.48,550.3-.72,225.68,79.13,222.11,89.52,459.54,12.41,265.93-81.25,349.51-94.13,601.74-8.55,170.1,23.8,368.46,117,581.8"/><path class="cls-3" d="M404.79-46.36C358.86,57,309,211.1,326.55,386.73,343.16,552.86,399.89,573.19,418,739.21c25.6,235.59-78.44,289.73-78.34,550.35-.61,225.26,78.84,221.59,89.38,458.7,12.59,265.9-80.77,349.72-93.67,601.79-8.56,169.68,23.44,368.39,117.07,582.92"/><path class="cls-3" d="M411-46.63c-45.66,103.2-95.26,257-77.88,432.51,16.47,166.38,73.05,186.73,91.07,352.91,25.44,235.85-78.43,289.81-78.21,550.4-.49,224.82,78.56,221,89.25,457.85C448,2012.92,354.94,2097,342,2348.88c-8.55,169.26,23.1,368.33,117.17,584"/><path class="cls-3" d="M417.2-46.89c-45.39,103-94.7,256.55-77.51,431.91C356,551.66,412.45,572,430.35,738.36c25.28,236.12-78.42,289.9-78.07,550.46-.38,224.39,78.27,220.51,89.11,457,12.95,265.85-79.81,350.14-92.76,601.89-8.56,168.84,22.74,368.27,117.26,585.15"/><path class="cls-3" d="M423.41-47.16c-45.12,102.82-94.15,256.1-77.15,431.33,16.18,166.89,72.47,187.27,90.24,353.77,25.13,236.38-78.4,290-77.92,550.51-.27,224,78,220,89,456.15,13.13,265.83-79.33,350.34-92.31,601.94-8.55,168.42,22.4,368.2,117.36,586.27"/><path class="cls-3" d="M429.62-47.43C384.76,55.2,336,208.22,352.83,383.32c16,167.14,72.18,187.54,89.83,354.19,25,236.65-78.39,290.08-77.79,550.57-.15,223.51,77.7,219.44,88.84,455.29,13.31,265.81-78.86,350.56-91.85,602-8.55,168,22,368.14,117.44,587.39"/><path class="cls-3" d="M435.82-47.69C391.24,54.74,342.77,207.5,359.4,382.47c15.9,167.4,71.88,187.81,89.42,354.62,24.8,236.91-78.38,290.16-77.65,550.61,0,223.09,77.41,218.92,88.7,454.45,13.48,265.78-78.38,350.77-91.39,602-8.56,167.57,21.69,368.08,117.53,588.51"/><path class="cls-3" d="M442-48C397.71,54.28,349.53,206.78,366,381.62c15.76,167.65,71.59,188.07,89,355,24.64,237.18-78.37,290.26-77.52,550.67.09,222.65,77.13,218.38,88.56,453.6,13.67,265.76-77.89,351-90.93,602.1-8.55,167.15,21.34,368,117.63,589.62"/><path class="cls-3" d="M448.23-48.22c-44,102-91.94,254.28-75.69,429,15.61,167.9,71.3,188.34,88.6,355.46,24.48,237.45-78.36,290.35-77.38,550.73.2,222.21,76.84,217.84,88.42,452.75,13.85,265.73-77.41,351.19-90.47,602.16-8.55,166.72,21,367.94,117.71,590.73"/><path class="cls-3" d="M454.44-48.49C410.66,53.36,363,205.34,379.11,379.92c15.47,168.15,71,188.61,88.19,355.89,24.31,237.71-78.35,290.44-77.24,550.78.31,221.78,76.55,217.31,88.28,451.9,14,265.71-76.93,351.39-90,602.21C379.77,2507,409,2708.58,506.13,2932.55"/><path class="cls-3" d="M460.64-48.75c-43.5,101.65-90.84,253.37-75,427.82,15.32,168.4,70.71,188.87,87.78,356.31,24.15,238-78.34,290.53-77.11,550.84.43,221.34,76.26,216.77,88.15,451C498.71,2003,408,2088.87,394.94,2339.53c-8.55,165.88,20.28,367.81,117.9,593"/><path class="cls-3" d="M466.85-49c-43.24,101.46-90.3,252.92-74.6,427.24C407.43,546.87,462.67,567.36,479.62,735c24,238.25-78.33,290.61-77,550.88.54,220.92,76,216.24,88,450.2,14.39,265.66-76,351.82-89.1,602.32-8.56,165.46,19.93,367.75,118,594.08"/><path class="cls-3" d="M473.05-49.29c-43,101.27-89.74,252.47-74.23,426.66,15,168.9,70.13,189.41,87,357.16,23.83,238.52-78.32,290.71-76.83,550.94.65,220.48,75.68,215.71,87.87,449.35,14.56,265.64-75.5,352-88.65,602.37-8.55,165,19.58,367.69,118.08,595.2"/><path class="cls-3" d="M479.26-49.55c-42.7,101.08-89.2,252-73.87,426.07,14.89,169.15,69.84,189.68,86.55,357.59,23.66,238.78-78.31,290.79-76.7,551,.77,220,75.4,215.17,87.74,448.5,14.74,265.61-75,352.24-88.19,602.42C406.24,2500.64,434,2703.64,533,2932.33"/><path class="cls-3" d="M485.46-49.82C443,51.07,396.82,201.74,412,375.67c14.74,169.4,69.55,189.94,86.14,358,23.5,239.05-78.31,290.88-76.56,551.05.88,219.61,75.11,214.63,87.6,447.64,14.92,265.59-74.54,352.45-87.74,602.48-8.55,164.2,18.88,367.56,118.27,597.43"/><path class="cls-3" d="M491.67-50.08c-42.16,100.69-88.1,251.1-73.14,424.9,14.6,169.65,69.25,190.21,85.73,358.44,23.34,239.31-78.3,291-76.42,551.1,1,219.17,74.82,214.1,87.46,446.79,15.1,265.57-74.07,352.66-87.28,602.53-8.55,163.78,18.53,367.5,118.35,598.55"/><path class="cls-3" d="M497.87-50.35C456,50.15,410.32,200.3,425.1,374c14.45,169.9,69,190.48,85.32,358.86,23.17,239.58-78.29,291.06-76.29,551.15,1.11,218.74,74.54,213.57,87.33,446,15.28,265.54-73.59,352.87-86.83,602.58-8.55,163.35,18.18,367.43,118.45,599.66"/><path class="cls-3" d="M504.08-50.61c-41.62,100.3-87,250.19-72.41,423.73,14.3,170.15,68.67,190.74,84.91,359.29,23,239.84-78.28,291.14-76.15,551.2,1.22,218.31,74.25,213,87.19,445.1,15.46,265.52-73.11,353.08-86.37,602.63-8.55,162.93,17.82,367.37,118.54,600.78"/><path class="cls-3" d="M510.28-50.88c-41.34,100.11-86.45,249.74-72,423.15,14.16,170.4,68.38,191,84.5,359.71,22.85,240.11-78.27,291.24-76,551.26,1.33,217.87,74,212.5,87,444.25,15.63,265.49-72.63,353.29-85.91,602.69-8.55,162.5,17.47,367.3,118.62,601.89"/><path class="cls-3" d="M516.49-51.14c-41.08,99.91-85.91,249.28-71.68,422.56,14,170.65,68.08,191.28,84.09,360.14,22.69,240.37-78.26,291.32-75.88,551.31,1.46,217.44,73.68,212,86.92,443.39,15.81,265.47-72.15,353.5-85.46,602.75-8.55,162.08,17.12,367.23,118.72,603"/><path class="cls-3" d="M522.69-51.41c-40.8,99.72-85.36,248.83-71.31,422,13.86,170.9,67.79,191.54,83.68,360.56,22.52,240.64-78.25,291.42-75.74,551.37,1.57,217,73.39,211.43,86.78,442.54,16,265.45-71.67,353.71-85,602.8C452.55,2489.5,477.87,2695,579.91,2932"/><path class="cls-3" d="M528.9-51.68C488.36,47.85,444.08,196.7,458,369.72c13.71,171.15,67.5,191.81,83.27,361,22.36,240.9-78.24,291.5-75.61,551.41,1.69,216.57,73.11,210.9,86.65,441.7,16.17,265.42-71.2,353.92-84.55,602.85-8.55,161.24,16.42,367.11,118.91,605.24"/><path class="cls-3" d="M535.1-51.94C494.84,47.39,450.84,196,464.52,368.87c13.56,171.4,67.21,192.08,82.86,361.41,22.2,241.17-78.23,291.59-75.47,551.47,1.8,216.14,72.81,210.36,86.51,440.85,16.35,265.4-70.72,354.13-84.09,602.9-8.55,160.82,16.07,367,119,606.36"/><path class="cls-3" d="M541.31-52.21c-40,99.14-83.72,247.47-70.22,420.23C484.51,539.67,538,560.37,553.54,729.86c22,241.43-78.22,291.68-75.33,551.52,1.91,215.7,72.52,209.83,86.37,440,16.52,265.37-70.24,354.34-83.64,602.95-8.54,160.4,15.72,367,119.09,607.47"/><path class="cls-3" d="M547.51-52.47c-39.72,98.95-83.17,247-69.85,419.64,13.27,171.9,66.62,192.61,82,362.26,21.87,241.7-78.21,291.77-75.2,551.58,2,215.26,72.24,209.29,86.24,439.14,16.7,265.35-69.76,354.56-83.18,603-8.55,160,15.36,366.92,119.18,608.59"/><path class="cls-3" d="M553.72-52.74C514.26,46,471.09,193.82,484.23,366.32,497.35,538.47,550.56,559.2,565.86,729c21.71,242-78.2,291.85-75.06,551.63,2.14,214.83,71.95,208.75,86.1,438.29,16.88,265.33-69.28,354.76-82.72,603.06-8.55,159.56,15,366.85,119.26,609.71"/><path class="cls-3" d="M559.92-53c-39.18,98.56-82.08,246.09-69.12,418.47s66,193.15,81.21,363.11c21.56,242.23-78.18,291.95-74.91,551.69,2.25,214.39,71.66,208.22,86,437.44,17.06,265.3-68.81,355-82.27,603.11-8.54,159.14,14.66,366.79,119.36,610.82"/><path class="cls-3" d="M566.13-53.27c-38.92,98.37-81.54,245.64-68.76,417.89,12.81,172.65,65.75,193.41,80.8,363.54,21.4,242.49-78.17,292-74.78,551.73,2.37,214,71.38,207.69,85.83,436.6,17.24,265.28-68.33,355.18-81.81,603.17-8.55,158.7,14.31,366.72,119.45,611.93"/><path class="cls-3" d="M572.33-53.54c-38.64,98.18-81,245.19-68.39,417.31,12.66,172.9,65.45,193.68,80.39,364,21.23,242.76-78.16,292.12-74.64,551.79,2.48,213.53,71.09,207.15,85.69,435.75,17.42,265.25-67.85,355.39-81.36,603.22-8.54,158.28,14,366.65,119.54,613.05"/><path class="cls-3" d="M578.54-53.8c-38.38,98-80.46,244.73-68,416.72,12.51,173.15,65.16,194,80,364.39,21.07,243-78.15,292.21-74.5,551.84,2.59,213.09,70.8,206.62,85.54,434.89,17.6,265.23-67.36,355.61-80.89,603.28-8.55,157.86,13.61,366.59,119.63,614.16"/><path class="cls-3" d="M584.74-54.07c-38.1,97.79-79.91,244.28-67.66,416.14,12.36,173.4,64.87,194.21,79.57,364.81,20.91,243.29-78.14,292.3-74.37,551.9,2.71,212.66,70.52,206.08,85.41,434,17.78,265.21-66.88,355.81-80.43,603.33-8.55,157.44,13.25,366.53,119.72,615.28"/><path class="cls-3" d="M591-54.33c-37.84,97.59-79.37,243.82-67.3,415.55,12.21,173.65,64.58,194.48,79.16,365.24,20.74,243.55-78.13,292.39-74.23,552,2.83,212.22,70.23,205.55,85.27,433.19,18,265.18-66.4,356-80,603.38-8.54,157,12.91,366.46,119.82,616.4"/><path class="cls-3" d="M597.15-54.6c-37.56,97.4-79.16,243.4-66.93,415C541.94,534.3,594.5,555.12,609,726c20.58,243.82-78.13,292.48-74.1,552,3,211.79,70,205,85.14,432.35,18.14,265.15-65.93,356.23-79.52,603.43-8.55,156.6,12.55,366.4,119.9,617.51"/><path class="cls-3" d="M603.36-54.86c-37.3,97.2-78.6,242.93-66.57,414.38,11.58,174.18,64,195,78.34,366.09,20.42,244.08-78.12,292.56-74,552.05,3.06,211.36,69.66,204.48,85,431.5,18.32,265.13-65.45,356.44-79.07,603.48-8.54,156.18,12.2,366.34,120,618.63"/><path class="cls-3" d="M609.57-55.13c-37,97-78.05,242.48-66.21,413.8C554.8,533.1,607.06,554,621.29,725.18c20.26,244.35-78.11,292.66-73.82,552.11,3.17,210.92,69.36,204,84.86,430.64,18.5,265.11-65,356.66-78.61,603.54-8.55,155.76,11.85,366.27,120.09,619.75"/><path class="cls-3" d="M615.77-55.4c-36.76,96.83-77.48,242-65.84,413.22,11.31,174.68,63.41,195.55,77.52,366.94,20.09,244.61-78.1,292.74-73.69,552.16,3.29,210.48,69.08,203.41,84.73,429.79,18.67,265.09-64.49,356.86-78.16,603.59-8.54,155.34,11.5,366.21,120.18,620.86"/><path class="cls-3" d="M622-55.66C585.49,41,545.05,185.91,556.5,357c11.17,174.92,63.11,195.82,77.11,367.36,19.93,244.88-78.09,292.83-73.55,552.22,3.4,210,68.79,202.87,84.59,428.94,18.85,265.06-64,357.07-77.7,603.65-8.54,154.91,11.15,366.14,120.27,622"/><path class="cls-3" d="M628.18-55.93C592,40.51,551.82,185.19,563.07,356.12c11,175.17,62.82,196.08,76.7,367.79,19.77,245.14-78.08,292.92-73.41,552.26,3.51,209.62,68.5,202.35,84.45,428.1,19,265-63.54,357.28-77.24,603.7C565,2462.45,584.36,2674,693.93,2931.06"/><path class="cls-3" d="M634.39-56.19c-35.95,96.24-75.81,240.66-64.75,411.46,10.89,175.42,62.53,196.35,76.29,368.21,19.61,245.41-78.07,293-73.28,552.32,3.63,209.19,68.22,201.81,84.32,427.25,19.21,265-63.06,357.49-76.79,603.75-8.54,154.06,10.45,366,120.45,624.21"/><path class="cls-3" d="M640.59-56.46c-35.68,96.05-75.24,240.2-64.38,410.88C587,530.09,638.45,551,652.09,723.06,671.53,968.73,574,1016.16,579,1275.43c3.74,208.75,67.93,201.27,84.18,426.39,19.39,265-62.58,357.71-76.33,603.81-8.55,153.64,10.09,365.95,120.54,625.32"/><path class="cls-3" d="M646.8-56.72c-35.41,95.85-74.69,239.74-64,410.29,10.62,175.92,62,196.88,75.47,369.06,19.28,245.94-78,293.19-73,552.43,3.85,208.31,67.64,200.74,84,425.54,19.57,265-62.1,357.91-75.88,603.86-8.54,153.22,9.74,365.88,120.64,626.44"/><path class="cls-3" d="M653-57c-35.14,95.66-74.13,239.29-63.65,409.71C599.83,528.89,651,549.87,664.41,722.21c19.12,246.2-78,293.27-72.87,552.48,4,207.88,67.36,200.2,83.91,424.69,19.74,264.94-61.62,358.12-75.42,603.91-8.54,152.8,9.39,365.82,120.73,627.56"/><path class="cls-3" d="M659.21-57.26c-34.87,95.47-73.57,238.84-63.29,409.13,10.35,176.42,61.36,197.42,74.65,369.91,18.95,246.48-78,293.37-72.73,552.53,4.08,207.45,67.07,199.68,83.77,423.85,19.92,264.91-61.15,358.33-75,604-8.54,152.38,9,365.76,120.82,628.67"/></g></svg>