<svg id="Calque_1" data-name="Calque 1" xmlns="http://www.w3.org/2000/svg" xmlns:xlink="http://www.w3.org/1999/xlink" viewBox="0 0 595.28 5429.18"><defs><style>.cls-1,.cls-3{fill:none;}.cls-2{clip-path:url(#clip-path);}.cls-3{stroke:#000;stroke-miterlimit:10;}</style><clipPath id="clip-path"><rect class="cls-1" width="595.28" height="5429.18"/></clipPath></defs><title>1</title><g class="cls-2"><path class="cls-3" d="M597.68-47.15c-4.07,17.64,49.5,320.67,96.76,867,17.46,203.38,36,423.3,48.26,685C755,1770.07,758,2046.59,760.56,2366.77c1.8,215.21,4,425.12-.78,661.73-5.35,269.34-21.17,534.95-36.77,830.82-14.59,277.27-28.5,552-53,853-19.23,236.36-45.31,476.92-74.8,719.26"/><path class="cls-3" d="M591.66-47.21c-4.75,20.58,48.27,323.52,95.27,867.14,17.52,204.42,36.53,422.85,48.72,685C748,1771.38,750.07,2046,752.7,2367c1.87,216.31,4.68,424.43,0,661.76-5.26,270.51-22,534.2-37.44,830.86-14.47,278.12-27.3,551.27-51.46,853.07-19,237-45.34,477.69-75,719.33"/><path class="cls-3" d="M585.65-47.27c-5.43,23.52,47,326.38,93.77,867.27,17.59,205.48,37,422.41,49.18,685.09,12.32,267.61,13.51,540.38,16.24,862.09,1.95,217.43,5.38,423.75.77,661.8-5.18,271.68-22.77,533.46-38.12,830.9-14.36,279-26.11,550.5-50,853.13-18.73,237.62-45.35,478.46-75.15,719.39"/><path class="cls-3" d="M579.63-47.32c-6.11,26.45,45.8,329.23,92.28,867.39,17.65,206.53,37.49,422,49.64,685.13C733.88,1774,734.16,2044.91,737,2367.38c2,218.54,6.09,423.07,1.55,661.84-5.09,272.85-23.56,532.71-38.79,830.94-14.24,279.81-24.92,549.74-48.45,853.19C632.8,4951.59,605.9,5192.57,576,5432.8"/><path class="cls-3" d="M573.61-47.38C566.82-18,618.18,284.71,664.4,820.14c17.71,207.58,38,421.52,50.11,685.18,12.33,270,11.69,539,14.6,862.27,2.12,219.64,6.79,422.37,2.32,661.87-5,274-24.35,532-39.45,831-14.13,280.66-23.74,549-47,853.25-18.24,238.87-45.41,480-75.5,719.51"/><path class="cls-3" d="M567.59-47.44c-7.46,32.33,43.34,334.94,89.3,867.65,17.78,208.63,38.45,421.08,50.57,685.23,12.33,271.19,10.78,538.35,13.79,862.35,2.2,220.76,7.49,421.69,3.1,661.91-4.92,275.19-25.15,531.21-40.13,831-14,281.51-22.54,548.21-45.44,853.31-18,239.5-45.43,480.76-75.67,719.57"/><path class="cls-3" d="M561.57-47.5c-8.14,35.27,42.1,337.8,87.81,867.79,17.84,209.67,38.93,420.63,51,685.27,12.34,272.39,9.88,537.67,13,862.43,2.28,221.87,8.2,421,3.88,662-4.83,276.36-25.94,530.47-40.8,831.06-13.89,282.36-21.35,547.45-43.93,853.37C614.79,4954.5,587.07,5195.9,556.68,5434"/><path class="cls-3" d="M555.55-47.56c-8.82,38.21,40.87,340.66,86.33,867.92,17.89,210.72,39.4,420.18,51.48,685.31,12.35,273.59,9,537,12.16,862.53,2.36,223,8.9,420.32,4.65,662-4.73,277.53-26.73,529.72-41.46,831.1-13.79,283.2-20.17,546.69-42.43,853.42-17.5,240.77-45.49,482.31-76,719.71"/><path class="cls-3" d="M549.54-47.62C540-6.47,589.17,295.89,634.37,820.43c18,211.77,39.88,419.74,51.94,685.36,12.35,274.78,8.06,536.32,11.34,862.61,2.45,224.09,9.61,419.64,5.44,662-4.65,278.7-27.53,529-42.14,831.14-13.67,284-19,545.92-40.92,853.48-17.25,241.4-45.52,483.07-76.2,719.77"/><path class="cls-3" d="M543.52-47.68c-10.18,44.09,38.4,346.37,83.34,868.18,18,212.82,40.36,419.3,52.41,685.41,12.35,276,7.15,535.64,10.52,862.69,2.53,225.21,10.31,419,6.21,662.06-4.56,279.87-28.32,528.22-42.81,831.18-13.55,284.9-17.78,545.16-39.41,853.54-17,242-45.54,483.84-76.38,719.83"/><path class="cls-3" d="M537.5-47.74c-10.86,47,37.17,349.23,81.85,868.31,18.08,213.88,40.84,418.86,52.87,685.45,12.36,277.18,6.24,535,9.71,862.78,2.61,226.32,11,418.28,7,662.1-4.47,281-29.11,527.47-43.48,831.22-13.43,285.75-16.59,544.39-37.9,853.6C590.77,4958.38,562,5200.33,531,5435.61"/><path class="cls-3" d="M531.48-47.8c-11.54,50,35.94,352.09,80.36,868.44,18.15,214.93,41.32,418.41,53.33,685.5,12.37,278.37,5.33,534.28,8.89,862.87,2.69,227.43,11.72,417.59,7.77,662.13-4.39,282.21-29.91,526.73-44.15,831.26C624.36,4149,622.27,4406,601.27,4716.06c-16.5,243.29-45.59,485.38-76.72,719.95"/><path class="cls-3" d="M525.46-47.86c-12.21,52.91,34.71,354.94,78.87,868.58,18.21,216,41.8,418,53.79,685.54,12.37,279.56,4.42,533.6,8.08,863,2.77,228.54,12.42,416.91,8.54,662.17-4.3,283.38-30.7,526-44.82,831.3-13.21,287.44-14.21,542.87-34.9,853.72-16.25,243.92-45.61,486.15-76.89,720"/><path class="cls-3" d="M519.45-47.92c-12.9,55.85,33.46,357.8,77.37,868.71,18.27,217,42.28,417.52,54.26,685.58,12.37,280.77,3.51,532.93,7.26,863,2.85,229.66,13.12,416.23,9.31,662.21-4.21,284.55-31.49,525.23-45.49,831.34-13.09,288.29-13,542.1-33.39,853.78-16,244.55-45.64,486.91-77.07,720.07"/><path class="cls-3" d="M513.43-48c-13.58,58.79,32.23,360.66,75.89,868.84,18.33,218.07,42.75,417.08,54.71,685.63,12.38,282,2.6,532.25,6.44,863.13,2.94,230.76,13.83,415.54,10.1,662.24-4.13,285.72-32.29,524.48-46.16,831.38-13,289.14-11.84,541.34-31.89,853.83-15.76,245.19-45.67,487.69-77.25,720.15"/><path class="cls-3" d="M507.41-48c-14.26,61.73,31,363.51,74.4,869C600.2,1040.05,625,1237.56,637,1506.61c12.39,283.15,1.69,531.57,5.63,863.21,3,231.88,14.52,414.86,10.87,662.28-4,286.89-33.08,523.74-46.83,831.42-12.86,290-10.64,540.57-30.38,853.89-15.51,245.82-45.7,488.46-77.42,720.21"/><path class="cls-3" d="M501.39-48.1C486.46,16.57,531.16,318.27,574.3,821c18.45,220.17,43.7,416.19,55.63,685.73,12.39,284.34.79,530.89,4.82,863.29,3.09,233,15.22,414.18,11.65,662.32-4,288.06-33.88,523-47.51,831.46-12.74,290.84-9.45,539.81-28.87,853.95C554.75,4964.2,524.3,5207,492.42,5438"/><path class="cls-3" d="M495.37-48.16c-15.61,67.61,28.54,369.23,71.42,869.24,18.51,221.21,44.18,415.74,56.09,685.76,12.4,285.55-.12,530.22,4,863.39,3.18,234.1,15.93,413.49,12.43,662.35-3.86,289.23-34.68,522.24-48.17,831.5-12.63,291.68-8.27,539.05-27.37,854-15,247.08-45.75,490-77.77,720.33"/><path class="cls-3" d="M489.35-48.22c-16.29,70.55,27.31,372.09,69.93,869.37,18.58,222.27,44.66,415.3,56.56,685.81,12.4,286.74-1,529.54,3.18,863.47,3.26,235.21,16.63,412.81,13.2,662.39-3.77,290.4-35.47,521.49-48.84,831.54-12.52,292.53-7.07,538.28-25.86,854.07-14.77,247.71-45.78,490.77-77.95,720.39"/><path class="cls-3" d="M483.34-48.28c-17,73.49,26.07,374.94,68.43,869.5,18.64,223.32,45.14,414.85,57,685.86,12.41,287.93-1.95,528.86,2.37,863.55,3.34,236.32,17.33,412.13,14,662.43-3.69,291.57-36.27,520.74-49.52,831.59-12.4,293.37-5.88,537.51-24.35,854.12-14.53,248.34-45.8,491.53-78.13,720.45"/><path class="cls-3" d="M477.32-48.34c-17.65,76.43,24.83,377.8,66.94,869.63,18.7,224.37,45.62,414.41,57.48,685.9,12.41,289.13-2.85,528.19,1.55,863.64,3.43,237.44,18,411.45,14.76,662.47-3.6,292.74-37.06,520-50.19,831.63-12.28,294.22-4.69,536.74-22.84,854.18-14.28,249-45.83,492.3-78.3,720.52"/><path class="cls-3" d="M471.3-48.4C453,31,494.9,332.26,536.75,821.36c18.77,225.42,46.1,414,57.94,685.95,12.42,290.33-3.76,527.51.74,863.73,3.5,238.54,18.74,410.76,15.53,662.5-3.51,293.91-37.85,519.25-50.85,831.67-12.17,295.06-3.51,536-21.35,854.23-14,249.61-45.85,493.08-78.47,720.59"/><path class="cls-3" d="M465.28-48.46c-19,82.31,22.37,383.51,64,869.9,18.82,226.46,46.57,413.52,58.39,686,12.43,291.52-4.67,526.82-.08,863.81,3.59,239.66,19.45,410.07,16.32,662.54-3.43,295.08-38.65,518.5-51.53,831.71-12.05,295.91-2.31,535.22-19.84,854.29-13.78,250.24-45.88,493.85-78.64,720.65"/><path class="cls-3" d="M459.26-48.52c-19.68,85.25,21.14,386.37,62.48,870,18.88,227.51,47,413.07,58.86,686,12.42,292.72-5.58,526.15-.9,863.9,3.67,240.77,20.15,409.39,17.09,662.58-3.34,296.25-39.44,517.75-52.2,831.75-11.94,296.76-1.12,534.45-18.33,854.35-13.53,250.87-45.9,494.62-78.82,720.71"/><path class="cls-3" d="M453.24-48.58c-20.36,88.19,19.91,389.23,61,870.16,18.95,228.56,47.53,412.63,59.32,686.08,12.43,293.91-6.49,525.47-1.71,864,3.75,241.88,20.85,408.7,17.86,662.61-3.25,297.42-40.23,517-52.86,831.79-11.83,297.61.06,533.69-16.83,854.41-13.28,251.5-45.93,495.38-79,720.77"/><path class="cls-3" d="M447.23-48.64c-21.05,91.13,18.67,392.09,59.49,870.29,19,229.61,48,412.19,59.78,686.13,12.44,295.11-7.4,524.79-2.53,864.07,3.83,243,21.56,408,18.65,662.65-3.17,298.59-41,516.26-53.54,831.83-11.71,298.46,1.26,532.92-15.32,854.47-13,252.12-46,496.15-79.17,720.83"/><path class="cls-3" d="M441.21-48.7c-21.72,94.07,17.44,394.94,58,870.42,19.07,230.67,48.49,411.75,60.24,686.18,12.45,296.3-8.3,524.11-3.34,864.15,3.91,244.11,22.26,407.34,19.42,662.69-3.08,299.76-41.82,515.51-54.21,831.87-11.59,299.3,2.45,532.16-13.81,854.53-12.79,252.75-46,496.92-79.35,720.9"/><path class="cls-3" d="M435.19-48.76c-22.4,97,16.2,397.8,56.51,870.56,19.14,231.71,49,411.29,60.7,686.21,12.45,297.5-9.21,523.44-4.15,864.25,4,245.21,23,406.65,20.19,662.72-3,300.93-42.61,514.76-54.88,831.91-11.47,300.15,3.64,531.4-12.3,854.59-12.54,253.38-46,497.69-79.52,721"/><path class="cls-3" d="M429.17-48.81c-23.08,99.94,15,400.65,55,870.68,19.2,232.76,49.45,410.85,61.17,686.26,12.45,298.7-10.13,522.76-5,864.33,4.08,246.33,23.67,406,21,662.76-2.9,302.1-43.41,514-55.55,832-11.37,301,4.82,530.63-10.8,854.64-12.3,254-46,498.47-79.7,721"/><path class="cls-3" d="M423.15-48.87C399.4,54,436.89,354.63,476.69,821.94c19.25,233.81,49.92,410.41,61.62,686.31,12.46,299.89-11,522.08-5.79,864.41,4.16,247.44,24.37,405.29,21.75,662.8-2.81,303.27-44.2,513.27-56.22,832-11.25,301.85,6,529.87-9.29,854.7-12.05,254.65-46.07,499.23-79.88,721.09"/><path class="cls-3" d="M417.13-48.93C392.7,56.89,429.64,357.43,469.18,822c19.32,234.86,50.4,410,62.08,686.35,12.47,301.09-11.94,521.41-6.6,864.5,4.23,248.56,25.07,404.61,22.53,662.84-2.73,304.44-45,512.52-56.9,832-11.13,302.7,7.21,529.1-7.79,854.76-11.79,255.28-46.08,500-80,721.15"/><path class="cls-3" d="M411.12-49C386,59.77,422.39,360.23,461.67,822.08c19.38,235.91,50.88,409.52,62.54,686.4,12.47,302.28-12.85,520.73-7.42,864.59,4.32,249.66,25.78,403.92,23.31,662.87-2.64,305.61-45.79,511.77-57.56,832.07-11,303.54,8.39,528.34-6.29,854.82C464.7,4978.74,430.14,5223.6,396,5444"/><path class="cls-3" d="M405.1-49c-25.79,111.7,10,412.08,49.06,871.21,19.44,236.95,51.36,409.07,63,686.44,12.48,303.48-13.76,520.05-8.23,864.67,4.4,250.78,26.48,403.24,24.08,662.91-2.55,306.78-46.59,511-58.23,832.11-10.9,304.39,9.59,527.58-4.78,854.88-11.3,256.54-46.14,501.54-80.39,721.28"/><path class="cls-3" d="M399.08-49.11c-26.47,114.64,8.81,414.93,47.57,871.34,19.51,238,51.84,408.63,63.47,686.48,12.48,304.68-14.67,519.38-9.06,864.76,4.49,251.89,27.19,402.56,24.87,662.94-2.47,308-47.39,510.29-58.91,832.16-10.79,305.24,10.78,526.81-3.27,854.94-11.05,257.17-46.16,502.31-80.57,721.34"/><path class="cls-3" d="M393.06-49.17c-27.15,117.58,7.57,417.79,46.08,871.47,19.57,239.06,52.32,408.19,63.93,686.53,12.49,305.87-15.58,518.69-9.87,864.85,4.57,253,27.89,401.87,25.64,663-2.38,309.13-48.18,509.54-59.58,832.2-10.67,306.09,12,526-1.76,855-10.8,257.8-46.19,503.08-80.75,721.4"/><path class="cls-3" d="M387-49.23c-27.83,120.52,6.34,420.65,44.59,871.6C451.26,1062.48,484.42,1230.11,496,1509c12.49,307.06-16.49,518-10.68,864.93,4.64,254.11,28.59,401.19,26.41,663-2.29,310.3-49,508.79-60.24,832.24-10.56,306.94,13.15,525.28-.26,855.06C440.69,4982.62,405,5228,370.33,5445.65"/><path class="cls-3" d="M381-49.29c-28.51,123.46,5.1,423.5,43.09,871.73,19.7,241.16,53.27,407.3,64.85,686.63,12.5,308.26-17.4,517.33-11.5,865,4.73,255.22,29.3,400.51,27.2,663.05-2.21,311.47-49.77,508-60.92,832.28-10.44,307.78,14.35,524.52,1.25,855.11-10.31,259.07-46.25,504.62-81.1,721.53"/><path class="cls-3" d="M375-49.35C345.82,77.05,378.88,377,416.62,822.52c19.75,242.2,53.74,406.85,65.3,686.66,12.51,309.46-18.3,516.66-12.31,865.11,4.81,256.33,30,399.82,28,663.08C495.47,3350,447,3544.66,436,3869.69c-10.32,308.63,15.54,523.76,2.76,855.17-10.06,259.7-46.27,505.39-81.27,721.59"/><path class="cls-3" d="M369-49.41c-29.87,129.34,2.64,429.22,40.12,872,19.81,243.25,54.22,406.41,65.77,686.71,12.5,310.65-19.22,516-13.13,865.19,4.89,257.44,30.7,399.14,28.74,663.12-2,313.81-51.35,506.55-62.25,832.36C418,4179.45,445,4393,432.5,4725.2c-9.82,260.33-46.3,506.16-81.45,721.66"/><path class="cls-3" d="M363-49.47c-30.54,132.28,1.41,432.08,38.63,872.13,19.88,244.3,54.7,406,66.23,686.76,12.51,311.84-20.13,515.3-13.95,865.27,5,258.56,31.41,398.46,29.53,663.16-1.94,315-52.15,505.8-62.93,832.4-10.1,310.33,17.92,522.23,5.77,855.29-9.57,261-46.33,506.93-81.63,721.72"/><path class="cls-3" d="M357-49.53c-31.22,135.22.18,434.93,37.14,872.26,19.94,245.35,55.18,405.52,66.69,686.8,12.52,313-21,514.63-14.76,865.36,5.05,259.67,32.11,397.77,30.3,663.2-1.85,316.15-52.94,505-63.6,832.45-10,311.17,19.11,521.45,7.27,855.34-9.31,261.59-46.34,507.69-81.79,721.78"/><path class="cls-3" d="M350.93-49.59C319,88.57,349.87,388.2,386.58,822.8c20,246.4,55.66,405.08,67.15,686.85,12.53,314.24-21.94,513.95-15.57,865.45,5.13,260.78,32.81,397.08,31.07,663.23-1.76,317.32-53.73,504.3-64.26,832.49-9.87,312,20.29,520.69,8.77,855.4-9.07,262.22-46.37,508.46-82,721.84"/><path class="cls-3" d="M344.92-49.65c-32.58,141.1-2.3,440.65,34.15,872.52,20.07,247.45,56.14,404.64,67.61,686.9,12.53,315.43-22.85,513.27-16.39,865.53,5.22,261.89,33.52,396.4,31.86,663.27-1.68,318.49-54.53,503.56-64.94,832.53C387.46,4184,418.7,4391,407.49,4726.56c-8.82,262.85-46.4,509.23-82.14,721.9"/><path class="cls-3" d="M338.9-49.71c-33.26,144-3.53,443.5,32.66,872.66,20.13,248.5,56.62,404.18,68.08,686.94,12.53,316.63-23.76,512.59-17.21,865.61,5.3,263,34.22,395.72,32.63,663.31-1.59,319.66-55.32,502.81-65.61,832.57-9.64,313.71,22.68,519.16,11.79,855.51-8.57,263.49-46.42,510-82.32,722"/><path class="cls-3" d="M332.88-49.77c-33.94,147-4.76,446.36,31.18,872.79,20.18,249.55,57.09,403.74,68.53,687,12.54,317.83-24.67,511.92-18,865.71,5.38,264.11,34.92,395,33.41,663.34-1.51,320.83-56.12,502.06-66.29,832.61-9.52,314.56,23.87,518.4,13.3,855.57-8.33,264.12-46.45,510.78-82.5,722"/><path class="cls-3" d="M326.86-49.83c-34.62,149.92-6,449.22,29.69,872.92,20.25,250.6,57.57,403.3,69,687,12.55,319-25.58,511.23-18.84,865.79,5.46,265.23,35.63,394.35,34.19,663.38-1.42,322-56.91,501.31-66.95,832.65-9.41,315.41,25.05,517.63,14.8,855.63-8.08,264.75-46.48,511.55-82.67,722.1"/><path class="cls-3" d="M320.84-49.89C285.55,103,313.62,402.19,349,823.16c20.31,251.65,58,402.86,69.45,687.08C431,1830.45,392,2020.79,398.84,2376.11c5.54,266.34,36.33,393.67,35,663.42-1.32,323.17-57.7,500.57-67.62,832.69-9.29,316.25,26.25,516.87,16.31,855.69-7.83,265.37-46.51,512.31-82.85,722.16"/><path class="cls-3" d="M314.82-49.95c-36,155.8-8.45,454.93,26.71,873.18,20.37,252.7,58.53,402.41,69.91,687.12,12.56,321.42-27.39,509.88-20.47,866,5.63,267.45,37,393,35.75,663.45-1.24,324.34-58.5,499.82-68.3,832.73-9.17,317.1,27.44,516.11,17.82,855.75-7.59,266-46.53,513.08-83,722.22"/><path class="cls-3" d="M308.81-50c-36.66,158.73-9.7,457.79,25.21,873.32,20.44,253.74,59,402,70.38,687.16,12.56,322.61-28.31,509.2-21.29,866.05,5.71,268.56,37.74,392.3,36.52,663.49-1.15,325.51-59.3,499.07-69,832.77-9.07,317.95,28.62,515.34,19.32,855.81-7.34,266.63-46.56,513.85-83.2,722.28"/><path class="cls-3" d="M302.79-50.07c-37.33,161.67-10.93,460.65,23.72,873.45C347,1078.17,386,1224.9,397.35,1510.59c12.57,323.8-29.22,508.52-22.1,866.13,5.79,269.67,38.44,391.62,37.29,663.53-1.06,326.68-60.09,498.32-69.63,832.81-9,318.8,29.82,514.58,20.82,855.87-7.08,267.26-46.58,514.62-83.37,722.34"/><path class="cls-3" d="M296.77-50.13c-38,164.61-12.16,463.5,22.23,873.58,20.56,255.84,60,401.08,71.3,687.25,12.57,325-30.12,507.85-22.92,866.22,5.87,270.79,39.15,390.94,38.08,663.57-1,327.85-60.89,497.57-70.31,832.85-8.83,319.65,31,513.81,22.33,855.92-6.84,267.9-46.6,515.4-83.54,722.42"/><path class="cls-3" d="M290.75-50.19c-38.69,167.55-13.39,466.36,20.75,873.71,20.62,256.9,60.44,400.63,71.75,687.3,12.58,326.2-31,507.17-23.73,866.31,6,271.89,39.85,390.25,38.85,663.6-.89,329-61.68,496.83-71,832.89-8.71,320.49,32.2,513.05,23.84,856-6.59,268.53-46.63,516.16-83.72,722.48"/><path class="cls-3" d="M284.73-50.25C245.37,120.24,270.11,419,304,823.59c20.68,257.95,60.92,400.19,72.21,687.35,12.59,327.39-31.94,506.49-24.54,866.39,6,273,40.55,389.57,39.62,663.64-.8,330.19-62.47,496.08-71.64,832.93-8.6,321.34,33.38,512.29,25.34,856-6.34,269.16-46.66,516.93-83.89,722.54"/><path class="cls-3" d="M278.71-50.3c-40,173.42-15.85,472.07,17.77,874,20.74,259,61.4,399.74,72.68,687.39,12.59,328.58-32.85,505.81-25.37,866.47,6.12,274.12,41.26,388.89,40.41,663.68-.72,331.36-63.27,495.33-72.32,833-8.49,322.19,34.58,511.52,26.85,856.1-6.1,269.79-46.69,517.7-84.07,722.6"/><path class="cls-3" d="M272.7-50.36C232,126,255.61,424.56,289,823.74c20.81,260,61.87,399.3,73.14,687.43,12.59,329.78-33.76,505.14-26.18,866.57,6.19,275.23,42,388.2,41.18,663.71-.63,332.53-64.06,494.58-73,833-8.37,323,35.77,510.76,28.36,856.16-5.85,270.42-46.71,518.47-84.25,722.66"/><path class="cls-3" d="M266.68-50.42c-41.41,179.3-18.33,477.78,14.78,874.23,20.87,261.09,62.35,398.85,73.6,687.48,12.6,331-34.67,504.46-27,866.65,6.27,276.34,42.66,387.52,41.95,663.75-.54,333.7-64.85,493.84-73.65,833-8.26,323.89,36.95,510,29.86,856.22-5.6,271.05-46.74,519.24-84.42,722.72"/><path class="cls-3" d="M260.66-50.48C218.58,131.76,241.1,430.16,274,823.88,294.88,1086,336.78,1222.29,348,1511.41c12.61,332.17-35.58,503.77-27.81,866.73,6.36,277.46,43.37,386.84,42.74,663.79C362.49,3376.8,297.29,3535,288.61,3875c-8.14,324.73,38.15,509.23,31.37,856.28-5.36,271.68-46.77,520-84.6,722.79"/><path class="cls-3" d="M254.64-50.54C211.88,134.64,233.85,433,266.44,824c21,263.19,63.31,398,74.52,687.57,12.61,333.37-36.48,503.1-28.62,866.83,6.44,278.56,44.07,386.15,43.51,663.82-.36,336-66.44,492.34-75,833.13-8,325.58,39.34,508.47,32.88,856.33C308.62,5004,266.94,5252.41,229,5454.49"/><path class="cls-3" d="M248.62-50.6c-43.44,188.12-22,486.35,10.31,874.63,21.06,264.23,63.79,397.52,75,687.61,12.61,334.56-37.4,502.42-29.44,866.91,6.52,279.68,44.77,385.46,44.28,663.86-.27,337.21-67.23,491.59-75.67,833.17-7.91,326.43,40.53,507.7,34.39,856.39-4.86,272.95-46.82,521.55-85,722.92"/><path class="cls-3" d="M242.61-50.66c-44.12,191.06-23.26,489.21,8.82,874.76,21.11,265.29,64.26,397.08,75.44,687.66,12.62,335.76-38.31,501.74-30.26,867,6.6,280.79,45.48,384.78,45.07,663.9-.19,338.38-68,490.84-76.34,833.21-7.8,327.28,41.71,506.94,35.88,856.45-4.61,273.58-46.84,522.32-85.11,723"/><path class="cls-3" d="M236.59-50.72c-44.8,194-24.49,492.07,7.33,874.89,21.18,266.34,64.74,396.63,75.9,687.7,12.63,337-39.21,501.07-31.07,867.08,6.68,281.91,46.18,384.1,45.84,663.94-.1,339.55-68.82,490.1-77,833.26-7.68,328.12,42.91,506.16,37.39,856.5-4.36,274.21-46.87,523.09-85.29,723"/><path class="cls-3" d="M230.57-50.78c-45.48,196.94-25.72,494.92,5.84,875,21.24,267.39,65.22,396.19,76.36,687.75,12.63,338.15-40.12,500.39-31.89,867.17,6.77,283,46.89,383.41,46.63,664,0,340.72-69.62,489.35-77.69,833.3-7.56,329,44.1,505.4,38.9,856.56-4.11,274.84-46.89,523.86-85.47,723.1"/><path class="cls-3" d="M224.55-50.84c-46.15,199.88-27,497.78,4.35,875.15,21.3,268.44,65.7,395.75,76.82,687.8,12.64,339.35-41,499.71-32.7,867.25,6.85,284.13,47.59,382.73,47.4,664,.07,341.89-70.41,488.6-78.35,833.34-7.45,329.81,45.28,504.64,40.4,856.62C278.6,5008.8,235.55,5258,196.83,5456.5"/><path class="cls-3" d="M218.53-50.9c-46.83,202.82-28.19,500.64,2.86,875.29,21.37,269.48,66.18,395.3,77.29,687.84,12.64,340.54-41.95,499-33.52,867.33,6.93,285.24,48.29,382.05,48.17,664.05.16,343.06-71.21,487.85-79,833.38-7.33,330.66,46.48,503.87,41.91,856.68-3.62,276.1-47,525.39-85.82,723.23"/><path class="cls-3" d="M212.51-51C165,154.8,183.09,452.53,213.88,824.46c21.43,270.53,66.66,394.85,77.75,687.88,12.65,341.74-42.85,498.36-34.34,867.43,7,286.35,49,381.36,49,664.08.24,344.23-72,487.11-79.7,833.42C219.33,4208.78,274.22,4380.38,270,4734c-3.37,276.74-47,526.17-86,723.3"/><path class="cls-3" d="M206.5-51c-48.2,208.7-30.66,506.35-.13,875.55,21.49,271.58,67.14,394.41,78.21,687.93,12.65,342.93-43.76,497.68-35.15,867.51,7.09,287.46,49.69,380.68,49.73,664.12.33,345.4-72.8,486.36-80.36,833.46-7.11,332.36,48.85,502.34,44.92,856.79-3.13,277.37-47,526.94-86.17,723.36"/><path class="cls-3" d="M200.48-51.08c-48.87,211.64-31.89,509.21-1.61,875.68,21.55,272.63,67.61,394,78.66,688,12.66,344.13-44.67,497-36,867.59,7.17,288.57,50.39,380,50.5,664.16.43,346.57-73.59,485.61-81,833.5-7,333.2,50,501.58,46.43,856.85-2.88,278-47,527.71-86.35,723.42"/><path class="cls-3" d="M194.46-51.14c-49.55,214.58-33.12,512.07-3.1,875.81,21.61,273.69,68.09,393.53,79.13,688C283.15,1858,224.91,2009,233.7,2380.38c7.26,289.68,51.1,379.31,51.29,664.19.51,347.74-74.39,484.86-81.71,833.54-6.87,334,51.24,500.82,47.94,856.91-2.63,278.62-47.06,528.47-86.52,723.48"/><path class="cls-3" d="M188.44-51.2c-50.23,217.52-34.35,514.92-4.59,876,21.67,274.73,68.57,393.07,79.59,688.06,12.67,346.52-46.49,495.64-37.6,867.77,7.34,290.79,51.8,378.63,52.06,664.23.6,348.91-75.18,484.11-82.38,833.58-6.75,334.9,52.43,500,49.44,857-2.38,279.25-47.07,529.24-86.69,723.54"/><path class="cls-3" d="M182.42-51.26c-50.9,220.46-35.59,517.78-6.08,876.08,21.74,275.78,69,392.63,80,688.11,12.67,347.71-47.4,495-38.41,867.85,7.41,291.91,52.5,377.95,52.83,664.27.69,350.08-76,483.37-83,833.62-6.65,335.75,53.61,499.29,50.94,857-2.13,279.88-47.1,530-86.86,723.61"/><path class="cls-3" d="M176.4-51.32c-51.58,223.4-36.82,520.64-7.57,876.21,21.8,276.83,69.53,392.19,80.51,688.15C262,1862,201,2007.33,210.11,2381c7.5,293,53.21,377.27,53.62,664.31C264.5,3396.54,187,3527.91,180,3879c-6.53,336.59,54.81,498.52,52.45,857.09-1.88,280.51-47.13,530.78-87,723.67"/><path class="cls-3" d="M170.39-51.38C118.12,175,132.33,472.11,161.32,825c21.86,277.88,70,391.75,81,688.2,12.69,350.11-49.21,493.61-40,868,7.58,294.13,53.91,376.58,54.39,664.34.86,352.42-77.56,481.87-84.39,833.7-6.41,337.44,56,497.76,54,857.14-1.63,281.15-47.15,531.56-87.22,723.74"/><path class="cls-3" d="M164.37-51.44C111.42,177.84,125.08,474.91,153.81,825c21.93,278.93,70.49,391.3,81.44,688.25,12.68,351.3-50.13,492.93-40.86,868.11,7.66,295.24,54.61,375.9,55.16,664.38.95,353.59-78.35,481.12-85.05,833.74-6.3,338.29,57.18,497,55.46,857.2-1.39,281.78-47.18,532.32-87.39,723.8"/><path class="cls-3" d="M158.35-51.5c-53.62,232.22-40.52,529.21-12,876.61,22,280,71,390.85,81.9,688.29,12.69,352.49-51,492.25-41.68,868.19,7.75,296.36,55.32,375.22,55.95,664.42,1,354.76-79.15,480.38-85.73,833.78-6.18,339.14,58.38,496.23,57,857.26-1.14,282.41-47.21,533.09-87.57,723.86"/><path class="cls-3" d="M152.33-51.56C98,183.6,110.58,480.51,138.8,825.18c22,281,71.43,390.41,82.35,688.33,12.7,353.7-51.94,491.58-42.49,868.29,7.82,297.46,56,374.53,56.72,664.45,1.12,355.93-79.94,479.63-86.4,833.82-6.07,340,59.57,495.47,58.48,857.32-.89,283-47.24,533.86-87.74,723.92"/><path class="cls-3" d="M146.31-51.62c-55,238.1-43,534.92-15,876.87,22.1,282.08,71.91,390,82.81,688.38,12.71,354.89-52.85,490.9-43.31,868.37,7.91,298.58,56.73,373.85,57.51,664.49,1.2,357.1-80.74,478.88-87.08,833.86-5.95,340.83,60.76,494.7,60,857.38-.65,283.67-47.26,534.63-87.92,724"/><path class="cls-3" d="M140.29-51.68c-55.65,241-44.22,537.78-16.51,877,22.17,283.13,72.39,389.52,83.27,688.43,12.71,356.08-53.76,490.22-44.12,868.45,8,299.69,57.43,373.16,58.28,664.53,1.3,358.27-81.53,478.13-87.74,833.9-5.84,341.68,61.94,493.94,61.49,857.44-.4,284.3-47.29,535.4-88.1,724.05"/><path class="cls-3" d="M134.28-51.74c-56.34,244-45.46,540.64-18,877.13,22.23,284.18,72.87,389.08,83.74,688.47,12.71,357.29-54.67,489.55-44.94,868.55,8.07,300.8,58.13,372.47,59.05,664.56,1.39,359.44-82.32,477.39-88.41,833.94-5.72,342.53,63.14,493.18,63,857.5-.15,284.93-47.32,536.17-88.27,724.11"/><path class="cls-3" d="M128.26-51.79c-57,246.91-46.69,543.48-19.5,877.25C131.05,1110.69,182.11,1214.1,193,1514c12.72,358.48-55.58,488.86-45.76,868.63,8.16,301.91,58.84,371.79,59.84,664.6,1.47,360.61-83.12,476.64-89.09,834-5.6,343.38,64.33,492.41,64.5,857.55.1,285.57-47.33,536.94-88.44,724.18"/><path class="cls-3" d="M122.24-51.85C64.55,198,74.32,494.49,101.25,825.54c22.36,286.27,73.83,388.19,84.66,688.56,12.73,359.67-56.49,488.18-46.57,868.71,8.23,303,59.54,371.11,60.61,664.64,1.56,361.78-83.92,475.89-89.75,834-5.5,344.23,65.51,491.65,66,857.61.35,286.2-47.36,537.71-88.61,724.24"/><path class="cls-3" d="M116.22-51.91C57.85,200.88,67.07,497.29,93.74,825.61c22.42,287.32,74.31,387.74,85.12,688.6,12.73,360.87-57.4,487.51-47.38,868.8,8.31,304.14,60.24,370.43,61.38,664.68,1.65,362.95-84.71,475.14-90.42,834.06-5.38,345.07,66.71,490.88,67.51,857.67.6,286.83-47.39,538.48-88.79,724.3"/><path class="cls-3" d="M110.2-52c-59,255.73-50.38,552.06-24,877.65,22.47,288.37,74.78,387.3,85.57,688.65,12.74,362.07-58.3,486.83-48.2,868.89,8.4,305.24,61,369.74,62.17,664.71,1.73,364.12-85.51,474.39-91.1,834.11-5.26,345.91,67.9,490.11,69,857.72.84,287.46-47.41,539.25-89,724.37"/><path class="cls-3" d="M104.18-52C44.45,206.64,52.57,502.88,78.73,825.75c22.54,289.42,75.26,386.86,86,688.7,12.74,363.26-59.22,486.15-49,869,8.48,306.36,61.65,369.06,62.94,664.75,1.82,365.29-86.3,473.65-91.77,834.15-5.14,346.76,69.09,489.35,70.53,857.78,1.09,288.09-47.44,540-89.14,724.43"/><path class="cls-3" d="M98.17-52.09C37.76,209.52,45.31,505.68,71.22,825.82c22.6,290.48,75.74,386.42,86.5,688.75C170.47,1879,97.59,2000,107.89,2383.62c8.56,307.47,62.35,368.38,63.71,664.79,1.91,366.46-87.09,472.9-92.43,834.19-5,347.61,70.27,488.58,72,857.84,1.34,288.72-47.47,540.78-89.32,724.49"/><path class="cls-3" d="M92.15-52.15C31.06,212.4,38.06,508.48,63.71,825.9c22.66,291.52,76.22,386,87,688.78,12.75,365.65-61,484.8-50.65,869.15,8.64,308.58,63.06,367.69,64.5,664.82,2,367.63-87.89,472.15-93.11,834.23-4.92,348.46,71.47,487.82,73.54,857.9,1.58,289.35-47.5,541.55-89.49,724.55"/><path class="cls-3" d="M86.13-52.21C24.36,215.28,30.81,511.27,56.2,826c22.73,292.57,76.7,385.52,87.42,688.83,12.76,366.85-61.94,484.12-51.46,869.23,8.72,309.69,63.76,367,65.27,664.86,2.08,368.8-88.68,471.4-93.78,834.27-4.8,349.3,72.66,487.05,75,858,1.83,290-47.52,542.32-89.67,724.61"/><path class="cls-3" d="M80.11-52.27C17.67,218.16,23.56,514.07,48.69,826c22.79,293.62,77.18,385.08,87.88,688.88,12.77,368-62.85,483.44-52.27,869.31,8.8,310.81,64.46,366.33,66,664.9,2.18,370-89.47,470.66-94.44,834.31-4.69,350.15,73.84,486.29,76.55,858,2.08,290.62-47.55,543.1-89.85,724.68"/><path class="cls-3" d="M74.09-52.33C11,221,16.31,516.87,41.18,826.11,64,1120.78,118.84,1210.75,129.53,1515c12.76,369.24-63.76,482.77-53.1,869.41,8.89,311.91,65.17,365.64,66.83,664.93,2.26,371.14-90.27,469.91-95.12,834.35-4.57,351,75,485.53,78.05,858.07,2.33,291.25-47.57,543.87-90,724.75"/><path class="cls-3" d="M68.08-52.39C4.27,223.92,9.06,519.67,33.67,826.18c22.92,295.72,78.14,384.19,88.81,689,12.77,370.43-64.67,482.09-53.91,869.49,9,313,65.87,365,67.6,665,2.35,372.31-91.06,469.16-95.79,834.39-4.45,351.85,76.23,484.76,79.56,858.13,2.58,291.87-47.59,544.64-90.19,724.81"/><path class="cls-3" d="M62.06-52.45C-2.42,226.8,1.81,522.46,26.17,826.26c23,296.76,78.61,383.74,89.26,689,12.78,371.63-65.58,481.41-54.73,869.57,9,314.14,66.58,364.28,68.39,665,2.43,373.48-91.86,468.41-96.46,834.43-4.35,352.7,77.41,484,81.06,858.19,2.83,292.5-47.62,545.4-90.36,724.87"/><path class="cls-3" d="M56-52.51C-9.12,229.68-5.45,525.26,18.66,826.33c23,297.81,79.09,383.3,89.72,689.05,12.79,372.83-66.49,480.73-55.54,869.66C62,2700.3,120.12,2748.64,122,3050.09c2.52,374.65-92.65,467.66-97.13,834.47-4.23,353.54,78.61,483.23,82.57,858.25,3.07,293.13-47.65,546.17-90.54,724.93"/><path class="cls-3" d="M50-52.57c-65.84,285.13-62.72,580.63-38.87,879,23.1,298.86,79.57,382.86,90.18,689.1,12.79,374-67.39,480.05-56.35,869.75,9.21,316.36,68,362.91,69.93,665.08,2.61,375.82-93.44,466.92-97.8,834.51-4.11,354.39,79.8,482.47,84.08,858.31,3.32,293.76-47.68,546.94-90.72,725"/><path class="cls-3" d="M44-52.63C-22.52,235.44-19.95,530.85,3.64,826.47c23.16,299.92,80,382.41,90.65,689.15C107.08,1890.84,26,1995,37.11,2385.45c9.3,317.48,68.69,362.23,70.72,665.12,2.69,377-94.24,466.17-98.48,834.55-4,355.24,81,481.71,85.59,858.37,3.57,294.39-47.7,547.71-90.89,725.05"/><path class="cls-3" d="M38-52.69c-67.19,291-65.18,586.34-41.85,879.23,23.22,301,80.52,382,91.11,689.2,12.8,376.41-69.22,478.69-58,869.91,9.37,318.59,69.39,361.55,71.49,665.16,2.78,378.16-95,465.42-99.14,834.59-3.88,356.09,82.17,480.94,87.09,858.42C92.5,5038.85,41,5292.31-2.38,5469"/><path class="cls-3" d="M32-52.75c-67.88,294-66.42,589.2-43.35,879.37,23.29,302,81,381.52,91.57,689.23,12.81,377.61-70.12,478-58.8,870,9.45,319.7,70.09,360.85,72.26,665.19,2.87,379.33-95.83,464.67-99.81,834.63-3.77,356.94,83.37,480.18,88.6,858.48,4.06,295.66-47.76,549.25-91.24,725.19"/><path class="cls-3" d="M26-52.81C-42.61,244.08-41.7,539.25-18.89,826.69c23.35,303.06,81.48,381.08,92,689.28,12.81,378.8-71,477.34-59.62,870.09,9.54,320.81,70.8,360.17,73.05,665.23,3,380.5-96.63,463.93-100.49,834.67-3.65,357.78,84.56,479.41,90.11,858.54,4.31,296.29-47.78,550-91.42,725.25"/><path class="cls-3" d="M19.93-52.87C-49.3,247-48.95,542-26.39,826.76c23.4,304.11,82,380.63,92.48,689.33,12.82,380-71.94,476.66-60.43,870.17,9.62,321.92,71.5,359.49,73.82,665.27,3,381.67-97.42,463.18-101.15,834.71-3.54,358.63,85.74,478.65,91.61,858.6,4.55,296.92-47.81,550.79-91.6,725.31"/><path class="cls-3" d="M13.91-52.93C-56,249.84-56.21,544.84-33.9,826.83-10.43,1132,48.53,1207,59.05,1516.2c12.82,381.2-72.86,476-61.25,870.27,9.7,323,72.2,358.8,74.59,665.3,3.14,382.84-98.21,462.43-101.82,834.75-3.42,359.48,86.94,477.89,93.11,858.66,4.81,297.55-47.83,551.56-91.76,725.37"/><path class="cls-3" d="M7.89-53C-62.7,252.72-63.46,547.64-41.41,826.9-17.88,1133.11,41.5,1206.65,52,1516.32c12.83,382.39-73.76,475.31-62.07,870.35C-.29,2710.81,62.84,2744.79,65.31,3052c3.22,384-99,461.68-102.5,834.79-3.3,360.33,88.13,477.12,94.62,858.72C62.49,5043.7,9.57,5297.85-34.51,5471"/><path class="cls-3" d="M1.87-53C-69.39,255.6-70.71,550.43-48.92,827c23.59,307.25,83.39,379.3,93.87,689.46C57.78,1900-29.72,1991.07-17.93,2386.87c9.86,325.26,73.61,357.44,76.15,665.38,3.31,385.18-99.8,460.93-103.17,834.83-3.19,361.18,89.32,476.36,96.13,858.78,5.3,298.81-47.88,553.09-92.11,725.5"/><path class="cls-3" d="M-4.14-53.11C-76.09,258.48-78,553.23-56.43,827.05c23.66,308.31,83.87,378.85,94.33,689.5,12.84,384.79-75.58,474-63.69,870.53,9.94,326.36,74.31,356.75,76.92,665.41,3.4,386.35-100.59,460.19-103.83,834.87-3.08,362,90.5,475.59,97.63,858.83C50.48,5045.64-3,5300.06-47.36,5471.76"/><path class="cls-3" d="M-10.16-53.17c-72.63,314.53-75,609.2-53.78,880.29,23.72,309.36,84.35,378.41,94.79,689.55,12.85,386-76.48,473.27-64.51,870.61,10,327.48,75,356.07,77.71,665.45,3.48,387.52-101.39,459.44-104.51,834.91-3,362.87,91.7,474.83,99.14,858.89,5.8,300.08-47.94,554.64-92.47,725.63"/><path class="cls-3" d="M-16.18-53.23C-89.49,264.24-92.46,558.83-71.45,827.19c23.78,310.41,84.83,378,95.26,689.6,12.84,387.17-77.4,472.59-65.33,870.69C-31.41,2716.07,34.2,2742.87,37,3053c3.57,388.69-102.18,458.69-105.18,835C-71.06,4251.64,24.67,4362,32.43,4746.87c6,300.71-48,555.41-92.64,725.69"/><path class="cls-3" d="M-22.2-53.29C-96.18,267.12-99.71,561.62-79,827.26c23.85,311.46,85.31,377.53,95.72,689.65,12.85,388.36-78.31,471.91-66.15,870.77C-39.2,2717.39,27,2742.39,29.88,3053.21c3.65,389.86-103,457.94-105.85,835-2.73,364.56,94.07,473.29,102.15,859,6.29,301.34-48,556.18-92.82,725.75"/><path class="cls-3" d="M-28.22-53.34C-102.88,270-107,564.42-86.46,827.34-62.56,1139.84-.68,1204.41,9.71,1517c12.86,389.57-79.21,471.24-67,870.87,10.27,330.81,77.13,354,80,665.56,3.74,391-103.77,457.2-106.52,835C-86.35,4253.9,11.54,4361,19.93,4747.55c6.54,302-48,556.95-93,725.81"/><path class="cls-3" d="M-34.24-53.4c-75.34,326.28-80,620.62-59.73,880.81C-70,1141-7.71,1204,2.66,1517.14c12.87,390.76-80.12,470.56-67.77,871,10.35,331.93,77.83,353.34,80.81,665.6,3.84,392.2-104.56,456.45-107.19,835.08C-94,4255,5,4360.53,13.68,4747.89c6.79,302.6-48,557.71-93.17,725.88"/><path class="cls-3" d="M-40.25-53.46c-76,329.22-81.22,623.47-61.23,880.94,24,314.6,86.74,376.19,97.09,689.78,12.87,392-81,469.88-68.59,871,10.44,333,78.54,352.66,81.6,665.64,3.92,393.37-105.36,455.7-107.87,835.12-2.38,367.1,97.65,471,106.67,859.18,7,303.23-48.06,558.48-93.34,725.94"/><path class="cls-3" d="M-46.27-53.52C-123,278.64-128.72,572.81-109,827.55c24.09,315.65,87.22,375.75,97.56,689.82,12.87,393.15-81.95,469.21-69.41,871.13,10.52,334.15,79.24,352,82.37,665.67,4,394.54-106.15,454.95-108.53,835.16-2.27,367.95,98.83,470.24,108.17,859.23,7.29,303.87-48.09,559.26-93.51,726"/></g></svg>