<?xml version="1.0" encoding="utf-8"?>
<!-- Generator: Adobe Illustrator 23.0.1, SVG Export Plug-In . SVG Version: 6.00 Build 0)  -->
<svg version="1.1" id="Calque_1" xmlns="http://www.w3.org/2000/svg" xmlns:xlink="http://www.w3.org/1999/xlink" x="0px" y="0px"
	 viewBox="0 0 595.3 5429.2" style="enable-background:new 0 0 595.3 5429.2;" xml:space="preserve">
<style type="text/css">
	.st0{clip-path:url(#SVGID_2_);}
	.st1{fill:none;stroke:#000000;stroke-miterlimit:10;}
</style>
<title>1</title>
<g>
	<defs>
		<rect id="SVGID_1_" y="0" width="595.3" height="5429.2"/>
	</defs>
	<clipPath id="SVGID_2_">
		<use xlink:href="#SVGID_1_"  style="overflow:visible;"/>
	</clipPath>
	<g class="st0">
		<path class="st1" d="M595.3-14c0,0,462,2307.1,0,5443.2"/>
		<path class="st1" d="M589.8-13.8c0,0,458.1,2333.3,0,5443"/>
		<path class="st1" d="M584.4-13.7c0,0,454.2,2359.5,0,5442.8"/>
		<path class="st1" d="M578.9-13.5c0,0,450.4,2385.7,0,5442.7"/>
		<path class="st1" d="M573.4-13.4c0,0,446.5,2411.9,0,5442.5"/>
		<path class="st1" d="M567.9-13.2c0,0,442.6,2438.1,0,5442.4"/>
		<path class="st1" d="M562.4-13c0,0,438.7,2464.2,0,5442.2"/>
		<path class="st1" d="M557-12.9c0,0,434.8,2490.4,0,5442"/>
		<path class="st1" d="M551.5-12.7c0,0,431,2516.6,0,5441.9"/>
		<path class="st1" d="M546-12.6c0,0,427.1,2542.8,0,5441.7"/>
		<path class="st1" d="M540.5-12.4c0,0,423.2,2569,0,5441.6"/>
		<path class="st1" d="M535-12.2c0,0,419.3,2595.2,0,5441.4"/>
		<path class="st1" d="M529.5-12.1c0,0,415.4,2621.4,0,5441.3"/>
		<path class="st1" d="M524.1-11.9c0,0,411.5,2647.6,0,5441.1"/>
		<path class="st1" d="M518.6-11.8c0,0,407.6,2673.8,0,5441"/>
		<path class="st1" d="M513.1-11.6c0,0,403.8,2700,0,5440.8"/>
		<path class="st1" d="M507.6-11.5c0,0,399.9,2726.2,0,5440.6"/>
		<path class="st1" d="M502.1-11.3c0,0,396,2752.4,0,5440.5"/>
		<path class="st1" d="M496.6-11.1c0,0,392.1,2778.6,0,5440.3"/>
		<path class="st1" d="M491.2-11c0,0,388.3,2804.8,0,5440.2"/>
		<path class="st1" d="M485.7-10.8c0,0,384.4,2831,0,5440"/>
		<path class="st1" d="M480.2-10.7c0,0,380.5,2857.2,0,5439.8"/>
		<path class="st1" d="M474.7-10.5c0,0,376.6,2883.4,0,5439.7"/>
		<path class="st1" d="M469.2-10.4c0,0,372.7,2909.6,0,5439.5"/>
		<path class="st1" d="M463.8-10.2c0,0,368.8,2935.8,0,5439.4"/>
		<path class="st1" d="M458.3-10c0,0,365,2962,0,5439.2"/>
		<path class="st1" d="M452.8-9.9c0,0,361.1,2988.2,0,5439"/>
		<path class="st1" d="M447.3-9.7c0,0,357.2,3014.4,0,5438.9"/>
		<path class="st1" d="M441.8-9.6c0,0,353.3,3040.6,0,5438.7"/>
		<path class="st1" d="M436.3-9.4c0,0,349.4,3066.8,0,5438.6"/>
		<path class="st1" d="M430.9-9.2c0,0,345.5,3093,0,5438.4"/>
		<path class="st1" d="M425.4-9.1c0,0,341.7,3119.1,0,5438.3"/>
		<path class="st1" d="M419.9-8.9c0,0,337.8,3145.3,0,5438.1"/>
		<path class="st1" d="M414.4-8.8c0,0,333.9,3171.5,0,5438"/>
		<path class="st1" d="M408.9-8.6c0,0,330,3197.7,0,5437.8"/>
		<path class="st1" d="M403.5-8.5c0,0,326.1,3223.9,0,5437.6"/>
		<path class="st1" d="M398-8.3c0,0,322.2,3250.1,0,5437.5"/>
		<path class="st1" d="M392.5-8.1c0,0,318.4,3276.3,0,5437.3"/>
		<path class="st1" d="M387-8c0,0,314.5,3302.5,0,5437.2"/>
		<path class="st1" d="M381.5-7.8c0,0,310.6,3328.7,0,5437"/>
		<path class="st1" d="M376-7.7c0,0,306.7,3354.9,0,5436.8"/>
		<path class="st1" d="M370.6-7.5c0,0,302.8,3381.1,0,5436.7"/>
		<path class="st1" d="M365.1-7.4c0,0,298.9,3407.4,0,5436.5"/>
		<path class="st1" d="M359.6-7.2c0,0,295.1,3433.5,0,5436.4"/>
		<path class="st1" d="M354.1-7c0,0,291.2,3459.7,0,5436.2"/>
		<path class="st1" d="M348.6-6.9c0,0,287.3,3485.9,0,5436"/>
		<path class="st1" d="M343.1-6.7c0,0,283.4,3512.1,0,5435.9"/>
		<path class="st1" d="M337.7-6.6c0,0,279.5,3538.3,0,5435.7"/>
		<path class="st1" d="M332.2-6.4c0,0,275.7,3564.5,0,5435.6"/>
		<path class="st1" d="M326.7-6.2c0,0,271.8,3590.7,0,5435.4"/>
		<path class="st1" d="M321.2-6.1c0,0,267.9,3616.9,0,5435.3"/>
		<path class="st1" d="M315.7-5.9c0,0,264,3643.1,0,5435.1"/>
		<path class="st1" d="M310.2-5.8c0,0,260.1,3669.3,0,5435"/>
		<path class="st1" d="M304.8-5.6c0,0,256.2,3695.4,0,5434.8"/>
		<path class="st1" d="M299.3-5.5c0,0,252.4,3721.7,0,5434.6"/>
		<path class="st1" d="M293.8-5.3c0,0,248.5,3747.8,0,5434.5"/>
		<path class="st1" d="M288.3-5.1c0,0,244.6,3774,0,5434.3"/>
		<path class="st1" d="M282.8-5c0,0,240.7,3800.2,0,5434.2"/>
		<path class="st1" d="M277.4-4.8c0,0,236.8,3826.4,0,5434"/>
		<path class="st1" d="M271.9-4.7c0,0,233,3852.6,0,5433.8"/>
		<path class="st1" d="M266.4-4.5c0,0,229.1,3878.8,0,5433.7"/>
		<path class="st1" d="M260.9-4.3c0,0,225.2,3905,0,5433.5"/>
		<path class="st1" d="M255.4-4.2c0,0,221.3,3931.2,0,5433.4"/>
		<path class="st1" d="M250-4c0,0,217.4,3957.4,0,5433.2"/>
		<path class="st1" d="M244.5-3.9c0,0,213.5,3983.6,0,5433"/>
		<path class="st1" d="M239-3.7c0,0,209.6,4009.8,0,5432.9"/>
		<path class="st1" d="M233.5-3.6c0,0,205.8,4036,0,5432.7"/>
		<path class="st1" d="M228-3.4c0,0,201.9,4062.2,0,5432.6"/>
		<path class="st1" d="M222.5-3.2c0,0,198,4088.4,0,5432.4"/>
		<path class="st1" d="M217.1-3.1c0,0,194.1,4114.6,0,5432.3"/>
		<path class="st1" d="M211.6-2.9c0,0,190.2,4140.8,0,5432.1"/>
		<path class="st1" d="M206.1-2.8c0,0,186.4,4167,0,5431.9"/>
		<path class="st1" d="M200.6-2.6c0,0,182.5,4193.2,0,5431.8"/>
		<path class="st1" d="M195.1-2.5c0,0,178.6,4219.4,0,5431.6"/>
		<path class="st1" d="M189.6-2.3c0,0,174.7,4245.6,0,5431.5"/>
		<path class="st1" d="M184.2-2.1c0,0,170.8,4271.8,0,5431.3"/>
		<path class="st1" d="M178.7-2c0,0,167,4298,0,5431.1"/>
		<path class="st1" d="M173.2-1.8c0,0,163.1,4324.2,0,5431"/>
		<path class="st1" d="M167.7-1.7c0,0,159.2,4350.3,0,5430.8"/>
		<path class="st1" d="M162.2-1.5c0,0,155.3,4376.5,0,5430.7"/>
		<path class="st1" d="M156.8-1.3c0,0,151.4,4402.7,0,5430.5"/>
		<path class="st1" d="M151.3-1.2c0,0,147.5,4428.9,0,5430.4"/>
		<path class="st1" d="M145.8-1c0,0,143.7,4455.1,0,5430.2"/>
		<path class="st1" d="M140.3-0.9c0,0,139.8,4481.3,0,5430"/>
		<path class="st1" d="M134.8-0.7c0,0,135.9,4507.5,0,5429.9"/>
		<path class="st1" d="M129.3-0.6c0,0,132,4533.7,0,5429.7"/>
		<path class="st1" d="M123.9-0.4c0,0,128.1,4559.9,0,5429.6"/>
		<path class="st1" d="M118.4-0.2c0,0,124.2,4586.1,0,5429.4"/>
		<path class="st1" d="M112.9-0.1c0,0,120.3,4612.3,0,5429.3"/>
		<path class="st1" d="M107.4,0.1c0,0,116.5,4638.5,0,5429.1"/>
		<path class="st1" d="M101.9,0.2c0,0,112.6,4664.7,0,5428.9"/>
		<path class="st1" d="M96.4,0.4c0,0,108.7,4690.9,0,5428.8"/>
		<path class="st1" d="M91,0.5c0,0,104.8,4717.1,0,5428.6"/>
		<path class="st1" d="M85.5,0.7c0,0,100.9,4743.3,0,5428.5"/>
		<path class="st1" d="M80,0.9c0,0,97.1,4769.5,0,5428.3"/>
		<path class="st1" d="M74.5,1c0,0,93.2,4795.7,0,5428.1"/>
		<path class="st1" d="M69,1.2c0,0,89.3,4821.9,0,5428"/>
		<path class="st1" d="M63.6,1.3c0,0,85.4,4848.1,0,5427.8"/>
		<path class="st1" d="M58.1,1.5c0,0,81.5,4874.3,0,5427.7"/>
		<path class="st1" d="M52.6,1.7c0,0,77.7,4900.5,0,5427.5"/>
		<path class="st1" d="M47.1,1.8c0,0,73.8,4926.6,0,5427.4"/>
		<path class="st1" d="M41.6,2c0,0,69.9,4952.8,0,5427.2"/>
		<path class="st1" d="M36.2,2.1c0,0,66,4979,0,5427"/>
		<path class="st1" d="M30.7,2.3c0,0,62.1,5005.2,0,5426.9"/>
		<path class="st1" d="M25.2,2.4c0,0,58.2,5031.4,0,5426.7"/>
		<path class="st1" d="M19.7,2.6c0,0,54.4,5057.6,0,5426.6"/>
		<path class="st1" d="M14.2,2.8c0,0,50.5,5083.8,0,5426.4"/>
		<path class="st1" d="M8.7,2.9c0,0,46.6,5110,0,5426.3"/>
		<path class="st1" d="M3.2,3.1c0,0,42.7,5136.2,0,5426.1"/>
		<path class="st1" d="M-2.2,3.2c0,0,38.8,5162.4,0,5425.9"/>
		<path class="st1" d="M-7.7,3.4c0,0,34.9,5188.6,0,5425.8"/>
		<path class="st1" d="M-13.2,3.6c0,0,31.1,5214.8,0,5425.6"/>
		<path class="st1" d="M595.3-14c0,0,462,2307.1,0,5443.2"/>
		<path class="st1" d="M589.8-13.8c0,0,458.1,2333.3,0,5443"/>
		<path class="st1" d="M584.4-13.7c0,0,454.2,2359.5,0,5442.8"/>
		<path class="st1" d="M578.9-13.5c0,0,450.4,2385.7,0,5442.7"/>
		<path class="st1" d="M573.4-13.4c0,0,446.5,2411.9,0,5442.5"/>
		<path class="st1" d="M567.9-13.2c0,0,442.6,2438.1,0,5442.4"/>
		<path class="st1" d="M562.4-13c0,0,438.7,2464.2,0,5442.2"/>
		<path class="st1" d="M557-12.9c0,0,434.8,2490.4,0,5442"/>
		<path class="st1" d="M551.5-12.7c0,0,431,2516.6,0,5441.9"/>
		<path class="st1" d="M546-12.6c0,0,427.1,2542.8,0,5441.7"/>
		<path class="st1" d="M540.5-12.4c0,0,423.2,2569,0,5441.6"/>
		<path class="st1" d="M535-12.2c0,0,419.3,2595.2,0,5441.4"/>
		<path class="st1" d="M529.5-12.1c0,0,415.4,2621.4,0,5441.3"/>
		<path class="st1" d="M524.1-11.9c0,0,411.5,2647.6,0,5441.1"/>
		<path class="st1" d="M518.6-11.8c0,0,407.6,2673.8,0,5441"/>
		<path class="st1" d="M513.1-11.6c0,0,403.8,2700,0,5440.8"/>
		<path class="st1" d="M507.6-11.5c0,0,399.9,2726.2,0,5440.6"/>
		<path class="st1" d="M502.1-11.3c0,0,396,2752.4,0,5440.5"/>
		<path class="st1" d="M496.6-11.1c0,0,392.1,2778.6,0,5440.3"/>
		<path class="st1" d="M491.2-11c0,0,388.3,2804.8,0,5440.2"/>
		<path class="st1" d="M485.7-10.8c0,0,384.4,2831,0,5440"/>
		<path class="st1" d="M480.2-10.7c0,0,380.5,2857.2,0,5439.8"/>
		<path class="st1" d="M474.7-10.5c0,0,376.6,2883.4,0,5439.7"/>
		<path class="st1" d="M469.2-10.4c0,0,372.7,2909.6,0,5439.5"/>
		<path class="st1" d="M463.8-10.2c0,0,368.8,2935.8,0,5439.4"/>
		<path class="st1" d="M458.3-10c0,0,365,2962,0,5439.2"/>
		<path class="st1" d="M452.8-9.9c0,0,361.1,2988.2,0,5439"/>
		<path class="st1" d="M447.3-9.7c0,0,357.2,3014.4,0,5438.9"/>
		<path class="st1" d="M441.8-9.6c0,0,353.3,3040.6,0,5438.7"/>
		<path class="st1" d="M436.3-9.4c0,0,349.4,3066.8,0,5438.6"/>
		<path class="st1" d="M430.9-9.2c0,0,345.5,3093,0,5438.4"/>
		<path class="st1" d="M425.4-9.1c0,0,341.7,3119.1,0,5438.3"/>
		<path class="st1" d="M419.9-8.9c0,0,337.8,3145.3,0,5438.1"/>
		<path class="st1" d="M414.4-8.8c0,0,333.9,3171.5,0,5438"/>
		<path class="st1" d="M408.9-8.6c0,0,330,3197.7,0,5437.8"/>
		<path class="st1" d="M403.5-8.5c0,0,326.1,3223.9,0,5437.6"/>
		<path class="st1" d="M398-8.3c0,0,322.2,3250.1,0,5437.5"/>
		<path class="st1" d="M392.5-8.1c0,0,318.4,3276.3,0,5437.3"/>
		<path class="st1" d="M387-8c0,0,314.5,3302.5,0,5437.2"/>
		<path class="st1" d="M381.5-7.8c0,0,310.6,3328.7,0,5437"/>
		<path class="st1" d="M376-7.7c0,0,306.7,3354.9,0,5436.8"/>
		<path class="st1" d="M370.6-7.5c0,0,302.8,3381.1,0,5436.7"/>
		<path class="st1" d="M365.1-7.4c0,0,298.9,3407.4,0,5436.5"/>
		<path class="st1" d="M359.6-7.2c0,0,295.1,3433.5,0,5436.4"/>
		<path class="st1" d="M354.1-7c0,0,291.2,3459.7,0,5436.2"/>
		<path class="st1" d="M348.6-6.9c0,0,287.3,3485.9,0,5436"/>
		<path class="st1" d="M343.1-6.7c0,0,283.4,3512.1,0,5435.9"/>
		<path class="st1" d="M337.7-6.6c0,0,279.5,3538.3,0,5435.7"/>
		<path class="st1" d="M332.2-6.4c0,0,275.7,3564.5,0,5435.6"/>
		<path class="st1" d="M326.7-6.2c0,0,271.8,3590.7,0,5435.4"/>
		<path class="st1" d="M321.2-6.1c0,0,267.9,3616.9,0,5435.3"/>
		<path class="st1" d="M315.7-5.9c0,0,264,3643.1,0,5435.1"/>
		<path class="st1" d="M310.2-5.8c0,0,260.1,3669.3,0,5435"/>
		<path class="st1" d="M304.8-5.6c0,0,256.2,3695.4,0,5434.8"/>
		<path class="st1" d="M299.3-5.5c0,0,252.4,3721.7,0,5434.6"/>
		<path class="st1" d="M293.8-5.3c0,0,248.5,3747.8,0,5434.5"/>
		<path class="st1" d="M288.3-5.1c0,0,244.6,3774,0,5434.3"/>
		<path class="st1" d="M282.8-5c0,0,240.7,3800.2,0,5434.2"/>
		<path class="st1" d="M277.4-4.8c0,0,236.8,3826.4,0,5434"/>
		<path class="st1" d="M271.9-4.7c0,0,233,3852.6,0,5433.8"/>
		<path class="st1" d="M266.4-4.5c0,0,229.1,3878.8,0,5433.7"/>
		<path class="st1" d="M260.9-4.3c0,0,225.2,3905,0,5433.5"/>
		<path class="st1" d="M255.4-4.2c0,0,221.3,3931.2,0,5433.4"/>
		<path class="st1" d="M250-4c0,0,217.4,3957.4,0,5433.2"/>
		<path class="st1" d="M244.5-3.9c0,0,213.5,3983.6,0,5433"/>
		<path class="st1" d="M239-3.7c0,0,209.6,4009.8,0,5432.9"/>
		<path class="st1" d="M233.5-3.6c0,0,205.8,4036,0,5432.7"/>
		<path class="st1" d="M228-3.4c0,0,201.9,4062.2,0,5432.6"/>
		<path class="st1" d="M222.5-3.2c0,0,198,4088.4,0,5432.4"/>
		<path class="st1" d="M217.1-3.1c0,0,194.1,4114.6,0,5432.3"/>
		<path class="st1" d="M211.6-2.9c0,0,190.2,4140.8,0,5432.1"/>
		<path class="st1" d="M206.1-2.8c0,0,186.4,4167,0,5431.9"/>
		<path class="st1" d="M200.6-2.6c0,0,182.5,4193.2,0,5431.8"/>
		<path class="st1" d="M195.1-2.5c0,0,178.6,4219.4,0,5431.6"/>
		<path class="st1" d="M189.6-2.3c0,0,174.7,4245.6,0,5431.5"/>
		<path class="st1" d="M184.2-2.1c0,0,170.8,4271.8,0,5431.3"/>
		<path class="st1" d="M178.7-2c0,0,167,4298,0,5431.1"/>
		<path class="st1" d="M173.2-1.8c0,0,163.1,4324.2,0,5431"/>
		<path class="st1" d="M167.7-1.7c0,0,159.2,4350.3,0,5430.8"/>
		<path class="st1" d="M162.2-1.5c0,0,155.3,4376.5,0,5430.7"/>
		<path class="st1" d="M156.8-1.3c0,0,151.4,4402.7,0,5430.5"/>
		<path class="st1" d="M151.3-1.2c0,0,147.5,4428.9,0,5430.4"/>
		<path class="st1" d="M145.8-1c0,0,143.7,4455.1,0,5430.2"/>
		<path class="st1" d="M140.3-0.9c0,0,139.8,4481.3,0,5430"/>
		<path class="st1" d="M134.8-0.7c0,0,135.9,4507.5,0,5429.9"/>
		<path class="st1" d="M129.3-0.6c0,0,132,4533.7,0,5429.7"/>
		<path class="st1" d="M123.9-0.4c0,0,128.1,4559.9,0,5429.6"/>
		<path class="st1" d="M118.4-0.2c0,0,124.2,4586.1,0,5429.4"/>
		<path class="st1" d="M112.9-0.1c0,0,120.3,4612.3,0,5429.3"/>
		<path class="st1" d="M107.4,0.1c0,0,116.5,4638.5,0,5429.1"/>
		<path class="st1" d="M101.9,0.2c0,0,112.6,4664.7,0,5428.9"/>
		<path class="st1" d="M96.4,0.4c0,0,108.7,4690.9,0,5428.8"/>
		<path class="st1" d="M91,0.5c0,0,104.8,4717.1,0,5428.6"/>
		<path class="st1" d="M85.5,0.7c0,0,100.9,4743.3,0,5428.5"/>
		<path class="st1" d="M80,0.9c0,0,97.1,4769.5,0,5428.3"/>
		<path class="st1" d="M74.5,1c0,0,93.2,4795.7,0,5428.1"/>
		<path class="st1" d="M69,1.2c0,0,89.3,4821.9,0,5428"/>
		<path class="st1" d="M63.6,1.3c0,0,85.4,4848.1,0,5427.8"/>
		<path class="st1" d="M58.1,1.5c0,0,81.5,4874.3,0,5427.7"/>
		<path class="st1" d="M52.6,1.7c0,0,77.7,4900.5,0,5427.5"/>
		<path class="st1" d="M47.1,1.8c0,0,73.8,4926.6,0,5427.4"/>
		<path class="st1" d="M41.6,2c0,0,69.9,4952.8,0,5427.2"/>
		<path class="st1" d="M36.2,2.1c0,0,66,4979,0,5427"/>
		<path class="st1" d="M30.7,2.3c0,0,62.1,5005.2,0,5426.9"/>
		<path class="st1" d="M25.2,2.4c0,0,58.2,5031.4,0,5426.7"/>
		<path class="st1" d="M19.7,2.6c0,0,54.4,5057.6,0,5426.6"/>
		<path class="st1" d="M14.2,2.8c0,0,50.5,5083.8,0,5426.4"/>
		<path class="st1" d="M8.7,2.9c0,0,46.6,5110,0,5426.3"/>
		<path class="st1" d="M3.2,3.1c0,0,42.7,5136.2,0,5426.1"/>
		<path class="st1" d="M-2.2,3.2c0,0,38.8,5162.4,0,5425.9"/>
		<path class="st1" d="M-7.7,3.4c0,0,34.9,5188.6,0,5425.8"/>
		<path class="st1" d="M-13.2,3.6c0,0,31.1,5214.8,0,5425.6"/>
	</g>
</g>
</svg>
