<?xml version="1.0" encoding="utf-8"?>
<!-- Generator: Adobe Illustrator 23.0.1, SVG Export Plug-In . SVG Version: 6.00 Build 0)  -->
<svg version="1.1" id="Calque_1" xmlns="http://www.w3.org/2000/svg" xmlns:xlink="http://www.w3.org/1999/xlink" x="0px" y="0px"
	 viewBox="0 0 595.3 5429.2" style="enable-background:new 0 0 595.3 5429.2;" xml:space="preserve">
<style type="text/css">
	.st0{clip-path:url(#SVGID_2_);}
	.st1{fill:none;stroke:#000000;stroke-miterlimit:10;}
</style>
<title>1</title>
<g>
	<g>
		<defs>
			<rect id="SVGID_1_" x="-5.1" y="-10" width="605.4" height="5444.1"/>
		</defs>
		<clipPath id="SVGID_2_">
			<use xlink:href="#SVGID_1_"  style="overflow:visible;"/>
		</clipPath>
		<g class="st0">
			<path class="st1" d="M607.9-11.4c-2.5,10.5-5.4,552.4-3.9,570.8c1.4,17.2,5.4,437.5,6.2,453.6c1.2,23.1-6.4,654.6-6.8,680.4
				c-0.3,22.9,5.7,587.8,5.7,612.2c0.1,24.8-6.1,634.1-6.5,659.5c-0.4,26,6,659,5.5,684.8c-0.5,25-6.7,615.8-6.8,640
				c-0.1,23.1,5.4,609.5,4.9,630.6c-0.4,18.2-4.9,529.6-8.6,539"/>
			<path class="st1" d="M601.9-11.5c-2.8,11.7-6,550.7-4.3,571.1c1.6,19.1,6,436,6.9,453.8c1.4,25.6-7.1,652.1-7.5,680.8
				c-0.3,25.5,6.3,585.5,6.4,612.5c0.1,27.5-6.8,631.7-7.2,659.9c-0.4,28.9,6.7,656.6,6.1,685.2c-0.6,27.7-7.4,613.4-7.5,640.4
				c-0.1,25.6,6,607.5,5.5,630.9c-0.4,20.2-5.4,528.8-9.5,539.2"/>
			<path class="st1" d="M596-11.7c-3.1,12.9-6.6,549-4.8,571.4c1.8,21.1,6.6,434.4,7.6,454c1.5,28.2-7.8,649.6-8.3,681.1
				c-0.4,28,6.9,583.1,7,612.9c0.1,30.3-7.5,629.2-7.9,660.3c-0.5,31.8,7.3,654.1,6.7,685.5c-0.7,30.5-8.1,611.1-8.2,640.8
				c-0.1,28.1,6.6,605.5,6,631.3c-0.5,22.2-5.9,528-10.5,539.5"/>
			<path class="st1" d="M590.1-11.9c-3.4,14-7.2,547.2-5.2,571.7c1.9,23,7.1,432.9,8.3,454.2c1.6,30.8-8.5,647.1-9,681.5
				c-0.4,30.6,7.5,580.7,7.6,613.2c0.1,33-8.1,626.8-8.7,660.6c-0.5,34.7,8,651.7,7.3,685.9c-0.7,33.3-8.9,608.7-9,641.1
				c-0.1,30.7,7.1,603.6,6.6,631.7c-0.5,24.2-6.5,527.2-11.4,539.7"/>
			<path class="st1" d="M584.2-12c-3.7,15.2-7.9,545.5-5.6,572.1c2,24.9,7.8,431.3,9,454.5c1.8,33.3-9.2,644.6-9.8,681.9
				c-0.4,33.1,8.1,578.4,8.3,613.6c0.1,35.8-8.8,624.3-9.4,661c-0.6,37.6,8.7,649.2,7.9,686.3c-0.8,36.1-9.6,606.4-9.8,641.4
				c-0.1,33.3,7.8,601.6,7.1,632c-0.5,26.3-7,526.4-12.4,539.9"/>
			<path class="st1" d="M578.3-12.2c-4,16.4-8.5,543.8-6.1,572.4c2.2,26.8,8.4,429.8,9.7,454.7c1.9,35.9-10,642.1-10.5,682.2
				c-0.5,35.7,8.8,576,8.9,613.9c0.1,38.5-9.5,621.9-10.1,661.3c-0.6,40.5,9.3,646.8,8.5,686.7c-0.8,38.9-10.3,604-10.5,641.8
				c-0.2,35.8,8.4,599.6,7.7,632.4c-0.6,28.3-7.5,525.6-13.3,540.1"/>
			<path class="st1" d="M572.4-12.3c-4.2,17.5-9.1,542.1-6.5,572.7c2.4,28.7,9,428.2,10.4,454.9c2,38.5-10.7,639.6-11.3,682.6
				c-0.5,38.2,9.4,573.6,9.5,614.2c0.1,41.3-10.2,619.4-10.8,661.7c-0.7,43.4,10,644.3,9.1,687.1c-0.9,41.6-11.1,601.6-11.2,642.1
				c-0.2,38.4,9,597.6,8.2,632.7c-0.6,30.3-8.1,524.8-14.2,540.4"/>
			<path class="st1" d="M566.4-12.5c-4.5,18.7-9.7,540.4-6.9,573.1c2.6,30.6,9.6,426.6,11.1,455.1c2.2,41-11.4,637.1-12,683
				c-0.5,40.7,10.1,571.3,10.2,614.6c0.1,44-10.9,617-11.5,662.1c-0.7,46.3,10.7,641.8,9.7,687.5c-0.9,44.4-11.8,599.3-12,642.5
				c-0.2,40.9,9.6,595.6,8.8,633.1c-0.7,32.3-8.6,523.9-15.3,540.6"/>
			<path class="st1" d="M560.5-12.7c-4.8,19.9-10.3,538.7-7.4,573.4c2.7,32.5,10.2,425.1,11.8,455.4c2.3,43.6-12.1,634.6-12.8,683.4
				c-0.6,43.3,10.7,568.9,10.8,614.9c0.1,46.8-11.5,614.5-12.3,662.4c-0.8,49.1,11.3,639.3,10.3,687.9c-1,47.1-12.6,597-12.8,642.8
				c-0.2,43.5,10.2,593.7,9.3,633.5c-0.7,34.3-9.2,523.1-16.2,540.8"/>
			<path class="st1" d="M554.6-12.8c-5.1,21.1-10.9,537-7.8,573.7c2.9,34.4,10.7,423.5,12.5,455.6c2.5,46.1-12.8,632.2-13.5,683.7
				c-0.6,45.8,11.3,566.6,11.4,615.2c0.1,49.5-12.2,612-13,662.8c-0.8,52,12,636.9,10.9,688.3c-1,49.9-13.3,594.6-13.5,643.2
				c-0.2,46.1,10.8,591.7,9.9,633.9c-0.8,36.4-9.7,522.3-17.1,541.1"/>
			<path class="st1" d="M548.7-13c-5.4,22.2-11.5,535.2-8.2,574c3.1,36.4,11.3,422,13.2,455.8c2.6,48.7-13.5,629.6-14.2,684.1
				c-0.7,48.4,11.9,564.2,12.1,615.6c0.1,52.3-12.9,609.6-13.7,663.2c-0.8,54.9,12.7,634.4,11.5,688.7
				c-1.1,52.7-14,592.3-14.2,643.5c-0.2,48.6,11.4,589.7,10.4,634.2c-0.8,38.4-10.3,521.5-18.1,541.3"/>
			<path class="st1" d="M542.8-13.1c-5.7,23.4-12.1,533.5-8.7,574.4c3.2,38.3,11.9,420.4,13.9,456c2.7,51.3-14.2,627.2-15,684.5
				c-0.7,50.9,12.6,561.8,12.7,615.9c0.1,55-13.6,607.1-14.4,663.5c-0.9,57.8,13.3,631.9,12.1,689.1c-1.2,55.5-14.8,589.9-15,643.8
				c-0.2,51.1,11.9,587.8,11,634.6c-0.9,40.4-10.8,520.7-19,541.5"/>
			<path class="st1" d="M536.8-13.3c-5.9,24.6-12.7,531.8-9.1,574.7c3.4,40.2,12.5,418.9,14.5,456.2c2.9,53.8-14.9,624.7-15.8,684.9
				c-0.7,53.5,13.2,559.4,13.3,616.3c0.1,57.8-14.2,604.7-15.2,663.9c-0.9,60.7,14,629.5,12.7,689.4
				c-1.3,58.3-15.5,587.6-15.8,644.2c-0.2,53.7,12.5,585.8,11.5,635c-0.9,42.4-11.3,519.9-20,541.7"/>
			<path class="st1" d="M530.9-13.4c-6.2,25.7-13.2,530.1-9.5,575.1c3.5,42.1,13.1,417.3,15.3,456.5c3.1,56.4-15.7,622.2-16.5,685.2
				c-0.8,56,13.8,557.1,14,616.6c0.2,60.5-14.9,602.2-15.9,664.3c-1,63.6,14.7,627,13.3,689.9c-1.3,61.1-16.3,585.2-16.5,644.5
				c-0.2,56.3,13.1,583.8,12.1,635.4c-0.9,44.4-11.9,519.1-21,542"/>
			<path class="st1" d="M525-13.6c-6.5,26.9-13.9,528.4-10,575.4c3.7,44,13.7,415.8,15.9,456.7c3.2,59-16.4,619.7-17.3,685.6
				c-0.8,58.6,14.5,554.7,14.6,617c0.2,63.3-15.6,599.8-16.6,664.6c-1,66.5,15.3,624.6,13.9,690.3c-1.4,63.8-17,582.9-17.3,644.9
				c-0.2,58.9,13.7,581.9,12.6,635.7c-1,46.5-12.4,518.3-21.9,542.2"/>
			<path class="st1" d="M519.1-13.8c-6.8,28.1-14.5,526.7-10.4,575.7c3.8,45.9,14.3,414.2,16.6,456.9c3.3,61.5-17.1,617.2-18,685.9
				c-0.8,61.2,15.1,552.3,15.3,617.3c0.2,66.1-16.3,597.3-17.3,665c-1,69.4,16,622.1,14.6,690.7c-1.4,66.6-17.7,580.5-18,645.2
				c-0.3,61.4,14.3,579.9,13.2,636.1c-1,48.5-12.9,517.4-22.9,542.4"/>
			<path class="st1" d="M513.2-13.9c-7.1,29.2-15.1,524.9-10.8,576c4,47.8,14.9,412.7,17.3,457.2c3.4,64.1-17.8,614.7-18.8,686.3
				c-0.9,63.7,15.7,550,15.9,617.6c0.2,68.8-16.9,594.9-18,665.4c-1.1,72.3,16.7,619.6,15.2,691.1c-1.5,69.4-18.5,578.2-18.8,645.6
				c-0.3,64,14.9,577.9,13.7,636.5c-1.1,50.5-13.5,516.6-23.8,542.6"/>
			<path class="st1" d="M507.3-14.1c-7.3,30.4-15.7,523.2-11.3,576.3c4.2,49.7,15.5,411.1,18,457.4c3.6,66.7-18.5,612.2-19.5,686.7
				c-0.9,66.2,16.3,547.6,16.5,618c0.2,71.6-17.6,592.4-18.8,665.7c-1.2,75.2,17.4,617.2,15.8,691.5
				c-1.5,72.1-19.2,575.8-19.5,645.9c-0.3,66.5,15.5,575.9,14.2,636.8c-1.1,52.6-14,515.8-24.7,542.9"/>
			<path class="st1" d="M501.3-14.2c-7.6,31.6-16.3,521.5-11.7,576.7c4.3,51.7,16.1,409.5,18.7,457.6
				c3.7,69.2-19.2,609.7-20.3,687.1c-0.9,68.8,17,545.2,17.1,618.3c0.2,74.3-18.3,589.9-19.5,666.1c-1.2,78.1,18,614.7,16.4,691.9
				c-1.6,74.9-20,573.5-20.3,646.3c-0.3,69.1,16.1,574,14.8,637.2c-1.1,54.5-14.6,515-25.7,543.1"/>
			<path class="st1" d="M495.4-14.4c-7.9,32.7-16.9,519.9-12.1,577c4.5,53.6,16.7,408,19.4,457.8c3.9,71.8-19.9,607.2-21,687.4
				c-1,71.3,17.6,542.9,17.8,618.7c0.2,77.1-19,587.5-20.2,666.4c-1.3,81,18.7,612.2,17,692.3c-1.7,77.7-20.7,571.1-21,646.6
				c-0.3,71.6,16.7,572,15.3,637.6c-1.2,56.6-15.1,514.2-26.7,543.3"/>
			<path class="st1" d="M489.5-14.6C481.3,19.4,472,503.5,477,562.8c4.6,55.5,17.3,406.4,20.1,458.1c4,74.4-20.6,604.7-21.8,687.8
				c-1,73.9,18.2,540.5,18.4,619c0.2,79.8-19.7,585-20.9,666.8c-1.3,83.8,19.3,609.8,17.6,692.6c-1.7,80.5-21.4,568.8-21.8,647
				c-0.3,74.2,17.3,570,15.9,637.9c-1.2,58.6-15.7,513.4-27.6,543.6"/>
			<path class="st1" d="M483.6-14.7c-8.5,35.1-18.1,516.4-13,577.6c4.8,57.4,17.9,404.9,20.8,458.3c4.1,76.9-21.4,602.2-22.5,688.2
				c-1,76.4,18.9,538.1,19,619.3c0.2,82.6-20.3,582.6-21.6,667.2c-1.3,86.7,20,607.3,18.2,693c-1.8,83.2-22.2,566.4-22.5,647.3
				c-0.3,76.8,17.9,568,16.5,638.3c-1.3,60.6-16.2,512.6-28.6,543.8"/>
			<path class="st1" d="M477.7-14.9c-8.8,36.2-18.7,514.6-13.4,578c5,59.3,18.5,403.3,21.5,458.5c4.3,79.5-22.1,599.7-23.3,688.5
				c-1,78.9,19.5,535.8,19.7,619.7c0.2,85.3-21,580.1-22.4,667.5c-1.4,89.6,20.7,604.8,18.8,693.4c-1.8,86-22.9,564.1-23.3,647.7
				c-0.3,79.3,18.5,566.1,17,638.7c-1.3,62.6-16.7,511.8-29.5,544"/>
			<path class="st1" d="M471.8-15c-9,37.4-19.3,512.9-13.9,578.3C463,624.5,477,965,480.1,1022c4.4,82.1-22.8,597.2-24,688.9
				c-1.1,81.5,20.1,533.5,20.3,620c0.2,88.1-21.7,577.7-23.1,667.9c-1.4,92.5,21.4,602.4,19.4,693.8c-1.9,88.8-23.7,561.7-24,648
				c-0.3,81.9,19.1,564.1,17.5,639c-1.4,64.6-17.3,511-30.5,544.3"/>
			<path class="st1" d="M465.8-15.2c-9.3,38.6-19.9,511.2-14.2,578.6c5.3,63.2,19.7,400.2,22.9,459c4.5,84.6-23.5,594.7-24.8,689.3
				c-1.1,84,20.7,531,21,620.4c0.2,90.8-22.4,575.2-23.8,668.3c-1.5,95.5,22,600,20,694.3c-2,91.6-24.4,559.4-24.8,648.4
				c-0.4,84.4,19.7,562.1,18.1,639.4c-1.4,66.7-17.8,510.1-31.4,544.5"/>
			<path class="st1" d="M459.9-15.4c-9.6,39.8-20.6,509.5-14.7,579c5.5,65.1,20.3,398.7,23.6,459.2c4.7,87.2-24.2,592.2-25.5,689.6
				c-1.2,86.6,21.4,528.7,21.6,620.7c0.2,93.6-23.1,572.7-24.5,668.6c-1.5,98.3,22.7,597.4,20.6,694.6c-2,94.3-25.1,557-25.5,648.7
				c-0.4,87,20.3,560.1,18.6,639.8c-1.4,68.7-18.3,509.3-32.4,544.7"/>
			<path class="st1" d="M454-15.5c-9.9,40.9-21.1,507.8-15.2,579.3c5.6,67,20.9,397.1,24.2,459.4c4.8,89.7-24.9,589.7-26.3,690
				c-1.2,89.1,22,526.3,22.2,621c0.2,96.3-23.7,570.3-25.3,669c-1.6,101.2,23.4,595,21.2,695c-2,97.1-25.9,554.7-26.3,649.1
				c-0.4,89.5,20.9,558.2,19.2,640.1c-1.5,70.7-18.9,508.5-33.3,544.9"/>
			<path class="st1" d="M448.1-15.7c-10.2,42.1-21.7,506.1-15.6,579.6c5.8,68.9,21.5,395.6,24.9,459.6c4.9,92.3-25.6,587.2-27,690.4
				c-1.3,91.7,22.6,523.9,22.9,621.4c0.2,99.1-24.4,567.8-26,669.4c-1.6,104.1,24,592.5,21.8,695.4c-2.1,99.9-26.6,552.3-27,649.4
				c-0.4,92.1,21.5,556.2,19.7,640.5c-1.5,72.7-19.4,507.7-34.3,545.2"/>
			<path class="st1" d="M442.2-15.8c-10.4,43.3-22.4,504.4-16,579.9c5.9,70.8,22.1,394,25.6,459.9c5.1,94.9-26.3,584.7-27.8,690.8
				c-1.3,94.3,23.2,521.6,23.5,621.7c0.3,101.8-25.1,565.4-26.7,669.7c-1.7,107,24.7,590.1,22.4,695.8
				c-2.2,102.7-27.3,550-27.8,649.8c-0.4,94.7,22.1,554.2,20.3,640.9c-1.6,74.7-20,506.9-35.2,545.4"/>
			<path class="st1" d="M436.3-16c-10.7,44.4-23,502.7-16.5,580.3c6.1,72.7,22.7,392.4,26.3,460.1c5.2,97.4-27,582.2-28.5,691.1
				c-1.3,96.8,23.9,519.2,24.1,622.1c0.3,104.6-25.8,562.9-27.5,670.1c-1.7,109.9,25.4,587.6,23,696.2
				c-2.3,105.4-28.1,547.6-28.5,650.1c-0.4,97.3,22.7,552.2,20.8,641.2c-1.6,76.8-20.5,506.1-36.2,545.6"/>
			<path class="st1" d="M430.3-16.1c-11,45.6-23.6,500.9-16.9,580.6c6.3,74.6,23.3,390.9,27,460.3c5.3,100-27.8,579.7-29.3,691.5
				c-1.4,99.3,24.5,516.8,24.8,622.4c0.3,107.3-26.4,560.5-28.1,670.5c-1.7,112.8,26,585.1,23.6,696.6
				c-2.3,108.2-28.8,545.3-29.3,650.5c-0.4,99.8,23.3,550.3,21.4,641.6c-1.7,78.8-21,505.3-37.1,545.8"/>
			<path class="st1" d="M424.4-16.3c-11.3,46.8-24.2,499.2-17.3,580.9c6.4,76.5,23.9,389.3,27.7,460.6
				c5.5,102.6-28.5,577.2-30,691.9c-1.4,101.9,25.1,514.5,25.4,622.7c0.3,110.1-27.1,558-28.9,670.8c-1.8,115.6,26.7,582.7,24.2,697
				c-2.4,111-29.6,542.9-30,650.8c-0.4,102.4,23.9,548.3,21.9,642c-1.7,80.8-21.6,504.5-38.1,546.1"/>
			<path class="st1" d="M418.5-16.5c-11.6,47.9-24.8,497.5-17.8,581.2c6.6,78.4,24.5,387.8,28.4,460.8
				c5.6,105.1-29.2,574.7-30.8,692.2c-1.4,104.4,25.8,512.1,26,623.1c0.3,112.8-27.8,555.5-29.6,671.2
				c-1.8,118.5,27.4,580.2,24.8,697.4c-2.4,113.8-30.3,540.6-30.8,651.1c-0.4,104.9,24.5,546.3,22.5,642.3
				c-1.7,82.8-22.1,503.6-39.1,546.3"/>
			<path class="st1" d="M412.6-16.6c-11.9,49.1-25.4,495.8-18.2,581.6c6.7,80.4,25.1,386.2,29.1,461
				c5.8,107.7-29.9,572.2-31.5,692.6c-1.5,107,26.4,509.7,26.7,623.4c0.3,115.6-28.5,553.1-30.3,671.6
				c-1.9,121.4,28,577.7,25.4,697.8c-2.5,116.5-31,538.2-31.5,651.5c-0.5,107.5,25.1,544.3,23,642.7c-1.8,84.8-22.7,502.8-40,546.5"
				/>
			<path class="st1" d="M406.7-16.8c-12.1,50.3-26,494.1-18.6,581.9c6.9,82.2,25.7,384.7,29.8,461.3c5.9,110.3-30.6,569.7-32.3,693
				c-1.5,109.5,27,507.4,27.3,623.8c0.3,118.3-29.1,550.7-31,671.9c-1.9,124.3,28.7,575.3,26.1,698.2
				c-2.6,119.3-31.8,535.9-32.3,651.8c-0.5,110,25.7,542.4,23.6,643.1c-1.8,86.9-23.2,502-41,546.8"/>
			<path class="st1" d="M400.7-17c-12.4,51.5-26.6,492.3-19,582.2c7,84.2,26.3,383.1,30.5,461.4c6,112.8-31.3,567.3-33,693.3
				c-1.5,112.1,27.7,505,27.9,624.1c0.3,121.1-29.8,548.2-31.8,672.3c-2,127.2,29.4,572.8,26.7,698.6
				c-2.6,122.1-32.5,533.5-33,652.2c-0.5,112.6,26.3,540.4,24.1,643.4c-1.9,88.9-23.7,501.2-41.9,547"/>
			<path class="st1" d="M394.8-17.1c-12.7,52.6-27.2,490.7-19.5,582.6c7.2,86.1,26.9,381.6,31.2,461.7
				c6.2,115.4-32,564.7-33.8,693.7c-1.6,114.6,28.3,502.7,28.6,624.5c0.3,123.8-30.5,545.7-32.5,672.6c-2,130.1,30,570.4,27.3,699
				c-2.7,124.9-33.3,531.2-33.8,652.5c-0.5,115.1,26.9,538.4,24.7,643.8c-1.9,90.9-24.3,500.4-42.9,547.2"/>
			<path class="st1" d="M388.9-17.2c-13,53.8-27.8,488.9-19.9,582.9c7.4,88,27.5,380,31.9,461.9c6.3,117.9-32.7,562.3-34.5,694.1
				c-1.6,117.2,28.9,500.3,29.2,624.8c0.3,126.6-31.2,543.3-33.2,673c-2,133,30.7,567.9,27.9,699.4c-2.7,127.6-34,528.8-34.5,652.9
				c-0.5,117.7,27.5,536.5,25.2,644.2c-2,92.9-24.8,499.6-43.8,547.4"/>
			<path class="st1" d="M383-17.4c-13.3,55-28.4,487.2-20.3,583.2c7.5,89.9,28.1,378.4,32.5,462.1c6.5,120.5-33.4,559.8-35.3,694.5
				c-1.6,119.7,29.5,497.9,29.8,625.1c0.3,129.4-31.9,540.8-33.9,673.4c-2.1,135.9,31.4,565.4,28.5,699.8
				c-2.8,130.4-34.7,526.4-35.3,653.2c-0.5,120.3,28.1,534.5,25.8,644.5c-2,95-25.4,498.8-44.7,547.7"/>
			<path class="st1" d="M377.1-17.6c-13.6,56.2-29,485.5-20.8,583.5c7.7,91.8,28.7,376.9,33.2,462.4c6.6,123.1-34.2,557.3-36,694.8
				c-1.7,122.2,30.2,495.6,30.5,625.5c0.3,132.1-32.5,538.4-34.6,673.7c-2.1,138.8,32,563,29.1,700.1
				c-2.8,133.2-35.5,524.1-36,653.6c-0.5,122.8,28.7,532.5,26.3,644.9c-2,97-25.9,498-45.8,547.9"/>
			<path class="st1" d="M371.2-17.7c-13.8,57.3-29.6,483.8-21.2,583.9c7.9,93.7,29.3,375.3,33.9,462.6
				c6.7,125.6-34.9,554.8-36.8,695.2c-1.7,124.8,30.8,493.2,31.1,625.8c0.3,134.9-33.2,535.9-35.4,674.1
				c-2.2,141.7,32.7,560.5,29.7,700.5c-2.9,136-36.2,521.8-36.8,653.9c-0.5,125.3,29.3,530.5,26.9,645.3
				c-2.1,99-26.4,497.2-46.7,548.1"/>
			<path class="st1" d="M365.3-17.9c-14.1,58.5-30.2,482.1-21.7,584.2c8,95.7,29.9,373.8,34.6,462.8
				c6.9,128.2-35.6,552.3-37.5,695.6c-1.7,127.3,31.4,490.8,31.8,626.2c0.3,137.6-33.9,533.5-36.1,674.5
				c-2.2,144.6,33.4,558,30.3,700.9c-3,138.8-36.9,519.4-37.5,654.3c-0.5,127.9,29.9,528.5,27.5,645.6c-2.1,101-27,496.4-47.6,548.4
				"/>
			<path class="st1" d="M359.3-18c-14.4,59.6-30.8,480.4-22.1,584.5c8.1,97.6,30.5,372.2,35.3,463c7,130.8-36.3,549.8-38.3,695.9
				c-1.8,129.9,32,488.5,32.4,626.5c0.3,140.4-34.6,531-36.8,674.8c-2.3,147.5,34,555.6,30.9,701.3
				c-3.1,141.5-37.7,517.1-38.3,654.6c-0.5,130.5,30.5,526.6,28,646c-2.2,103-27.5,495.5-48.6,548.6"/>
			<path class="st1" d="M353.4-18.2c-14.7,60.8-31.4,478.6-22.5,584.8c8.3,99.5,31.1,370.7,36,463.3c7.1,133.4-37,547.3-39,696.3
				c-1.8,132.4,32.7,486.1,33,626.8c0.3,143.1-35.3,528.5-37.5,675.2c-2.3,150.4,34.7,553.1,31.5,701.7
				c-3.1,144.3-38.4,514.7-39,655c-0.6,133,31.1,524.6,28.5,646.4c-2.2,105-28,494.7-49.5,548.8"/>
			<path class="st1" d="M347.5-18.4c-14.9,62-32,476.9-22.9,585.2c8.5,101.4,31.7,369.1,36.7,463.5c7.3,135.9-37.7,544.8-39.8,696.7
				c-1.8,135,33.3,483.7,33.7,627.2c0.4,145.9-35.9,526.1-38.2,675.6c-2.4,153.2,35.4,550.6,32.1,702.1
				c-3.1,147.1-39.2,512.4-39.8,655.3c-0.6,135.6,31.7,522.6,29.1,646.8c-2.3,107.1-28.6,493.9-50.5,549"/>
			<path class="st1" d="M341.6-18.5C326.3,44.7,309,456.7,318.2,567c8.7,103.3,32.3,367.6,37.4,463.7c7.4,138.5-38.4,542.3-40.5,697
				c-1.9,137.5,33.9,481.3,34.3,627.5c0.4,148.6-36.6,523.6-39,675.9c-2.4,156.1,36,548.2,32.7,702.5
				c-3.2,149.9-39.9,510-40.5,655.7c-0.6,138.2,32.3,520.7,29.6,647.1c-2.3,109.1-29.1,493.1-51.4,549.3"/>
			<path class="st1" d="M335.6-18.7c-15.5,64.3-33.2,473.5-23.8,585.8c8.8,105.2,32.9,366,38.1,463.9c7.6,141-39.1,539.8-41.3,697.4
				c-1.9,140.1,34.6,479,34.9,627.9c0.4,151.4-37.3,521.2-39.7,676.3c-2.5,159,36.7,545.7,33.3,702.9
				c-3.3,152.6-40.7,507.7-41.3,656c-0.6,140.7,32.9,518.7,30.2,647.5c-2.3,111.1-29.7,492.3-52.4,549.5"/>
			<path class="st1" d="M329.8-18.8c-15.8,65.5-33.8,471.8-24.2,586.2c9,107.1,33.4,364.4,38.8,464.2c7.7,143.6-39.8,537.3-42,697.8
				c-1.9,142.6,35.2,476.6,35.6,628.2c0.4,154.1-38,518.7-40.4,676.7c-2.5,161.9,37.4,543.3,33.9,703.3
				c-3.3,155.4-41.4,505.3-42,656.3c-0.6,143.3,33.5,516.7,30.7,647.9c-2.4,113.1-30.2,491.5-53.4,549.8"/>
			<path class="st1" d="M323.8-19c-16.1,66.7-34.4,470.1-24.7,586.5c9.2,109.1,34,362.9,39.5,464.4c7.8,146.2-40.6,534.8-42.8,698.1
				c-1.9,145.2,35.8,474.2,36.2,628.5c0.4,156.9-38.6,516.3-41.1,677c-2.5,164.8,38,540.8,34.6,703.7
				c-3.4,158.2-42.1,503-42.8,656.7c-0.6,145.8,34.1,514.7,31.3,648.2c-2.4,115.1-30.7,490.7-54.3,550"/>
			<path class="st1" d="M317.9-19.2c-16.4,67.8-35,468.4-25.1,586.8c9.3,111,34.7,361.4,40.2,464.6c8,148.7-41.3,532.3-43.5,698.5
				c-2,147.7,36.4,471.9,36.8,628.9c0.4,159.6-39.3,513.8-41.8,677.4c-2.6,167.7,38.6,538.3,35.2,704.1
				c-3.4,161-42.9,500.6-43.5,657c-0.6,148.4,34.7,512.8,31.8,648.6c-2.5,117.2-31.3,489.9-55.2,550.2"/>
			<path class="st1" d="M312-19.3c-16.7,69-35.6,466.6-25.5,587.1c9.4,112.9,35.2,359.8,40.9,464.8c8.1,151.3-42,529.8-44.3,698.9
				c-2,150.3,37.1,469.5,37.5,629.2c0.4,162.4-40,511.4-42.6,677.8c-2.6,170.6,39.4,535.9,35.8,704.5
				c-3.5,163.7-43.6,498.2-44.3,657.4c-0.6,151,35.3,510.8,32.4,649c-2.5,119.2-31.8,489-56.2,550.4"/>
			<path class="st1" d="M306.1-19.5c-16.9,70.2-36.2,464.9-26,587.5c9.6,114.8,35.8,358.2,41.6,465.1c8.2,153.8-42.7,527.3-45,699.2
				c-2.1,152.8,37.7,467.2,38.1,629.6c0.4,165.1-40.7,508.9-43.3,678.1c-2.7,173.5,40,533.5,36.4,704.9
				c-3.6,166.5-44.4,495.9-45,657.7c-0.6,153.5,35.9,508.8,32.9,649.3c-2.6,121.2-32.4,488.2-57.2,550.6"/>
			<path class="st1" d="M300.2-19.6c-17.2,71.3-36.8,463.3-26.4,587.8c9.8,116.7,36.4,356.7,42.3,465.3
				c8.4,156.4-43.4,524.8-45.8,699.6c-2.1,155.3,38.3,464.8,38.7,629.9c0.4,167.9-41.4,506.5-44,678.5
				c-2.7,176.4,40.7,530.9,37,705.3c-3.6,169.3-45.1,493.6-45.8,658.1c-0.7,156.1,36.5,506.8,33.4,649.7
				c-2.6,123.2-32.9,487.4-58.1,550.9"/>
			<path class="st1" d="M294.3-19.8c-17.5,72.5-37.4,461.5-26.8,588.1c9.9,118.6,37,355.1,42.9,465.5c8.5,159-44.1,522.3-46.5,700
				c-2.1,157.9,39,462.4,39.4,630.2c0.4,170.6-42,504-44.7,678.9c-2.8,179.3,41.4,528.4,37.6,705.7
				c-3.7,172.1-45.8,491.2-46.5,658.4c-0.7,158.6,37.1,504.9,34,650.1c-2.6,125.2-33.4,486.6-59.1,551.1"/>
			<path class="st1" d="M288.3-20c-17.8,73.7-38,459.8-27.3,588.5c10.1,120.5,37.6,353.6,43.6,465.7
				c8.7,161.5-44.8,519.8-47.3,700.4c-2.2,160.4,39.6,460.1,40,630.6c0.4,173.4-42.7,501.5-45.5,679.2c-2.8,182.1,42,526,38.2,706.1
				c-3.7,174.8-46.6,488.9-47.3,658.8c-0.7,161.2,37.6,502.9,34.6,650.4c-2.7,127.3-34,485.8-60,551.3"/>
			<path class="st1" d="M282.4-20.1c-18.1,74.8-38.6,458.1-27.7,588.8c10.3,122.4,38.2,352,44.3,466c8.8,164.1-45.5,517.3-48,700.7
				c-2.2,163,40.2,457.7,40.7,630.9c0.4,176.1-43.4,499.1-46.2,679.6c-2.9,185,42.7,523.6,38.8,706.5
				c-3.8,177.6-47.3,486.5-48,659.1c-0.7,163.7,38.3,500.9,35.1,650.8c-2.7,129.3-34.5,485-61,551.6"/>
			<path class="st1" d="M276.5-20.3c-18.4,76-39.3,456.4-28.1,589.1c10.4,124.3,38.8,350.5,45,466.2
				c8.9,166.7-46.3,514.8-48.8,701.1c-2.2,165.5,40.8,455.3,41.3,631.3c0.4,178.9-44.1,496.6-46.9,679.9
				c-2.9,187.9,43.4,521.1,39.4,706.8c-3.9,180.4-48,484.2-48.8,659.5c-0.7,166.3,38.9,498.9,35.7,651.2
				c-2.8,131.3-35.1,484.2-61.9,551.8"/>
			<path class="st1" d="M270.5-20.4C251.9,56.8,230.7,434.2,242,569c10.6,126.3,39.4,349,45.7,466.4c9.1,169.2-47,512.3-49.5,701.5
				c-2.2,168.1,41.5,453,42,631.6c0.4,181.6-44.7,494.2-47.6,680.3c-2.9,190.8,44,518.6,40,707.2c-3.9,183.2-48.8,481.8-49.5,659.8
				c-0.7,168.9,39.4,497,36.2,651.5c-2.8,133.4-35.6,483.3-62.9,552"/>
			<path class="st1" d="M264.7-20.6c-18.9,78.4-40.5,452.9-29,589.8c10.7,128.2,40,347.4,46.4,466.6
				c9.2,171.8-47.7,509.8-50.3,701.8c-2.3,170.6,42.1,450.6,42.6,631.9c0.4,184.4-45.4,491.7-48.3,680.7
				c-3,193.7,44.7,516.2,40.6,707.6c-4,185.9-49.5,479.5-50.3,660.2c-0.7,171.5,40,495,36.7,651.9c-2.9,135.4-36.1,482.5-63.8,552.2
				"/>
			<path class="st1" d="M258.8-20.7c-19.2,79.5-41.1,451.2-29.4,590.1c10.9,130.1,40.6,345.8,47.1,466.9
				c9.3,174.4-48.4,507.4-51,702.2c-2.3,173.2,42.7,448.2,43.2,632.3c0.5,187.1-46.1,489.3-49.1,681c-3.1,196.6,45.4,513.7,41.2,708
				c-4.1,188.7-50.3,477.1-51,660.5c-0.7,174,40.7,493,37.3,652.3c-2.9,137.4-36.7,481.7-64.8,552.5"/>
			<path class="st1" d="M252.8-20.9c-19.5,80.7-41.7,449.5-29.9,590.4c11.1,132,41.2,344.2,47.8,467.1
				c9.5,176.9-49.1,504.8-51.8,702.6c-2.4,175.7,43.4,445.9,43.8,632.6c0.5,189.9-46.8,486.8-49.8,681.4
				c-3.1,199.5,46,511.2,41.8,708.4c-4.1,191.5-51,474.8-51.8,660.9c-0.7,176.5,41.2,491,37.8,652.6
				c-2.9,139.4-37.2,480.9-65.7,552.7"/>
			<path class="st1" d="M246.9-21.1c-19.8,81.9-42.3,447.8-30.3,590.7c11.2,133.9,41.8,342.7,48.5,467.3
				c9.6,179.5-49.8,502.4-52.5,702.9c-2.4,178.3,44,443.5,44.5,633c0.5,192.7-47.5,484.3-50.5,681.8
				c-3.1,202.4,46.7,508.8,42.4,708.9c-4.1,194.2-51.7,472.4-52.5,661.2c-0.8,179.1,41.8,489.1,38.4,653
				c-3,141.4-37.8,480.1-66.7,552.9"/>
			<path class="st1" d="M241.1-21.2c-20.1,83-42.9,446.1-30.7,591.1c11.4,135.8,42.4,341.1,49.2,467.5
				c9.8,182-50.5,499.8-53.3,703.3c-2.5,180.8,44.6,441.1,45.1,633.3c0.5,195.4-48.1,481.9-51.2,682.1
				c-3.2,205.3,47.3,506.3,43,709.2c-4.2,197-52.5,470.1-53.3,661.6c-0.8,181.7,42.4,487.1,38.9,653.4
				c-3.1,143.4-38.3,479.3-67.6,553.2"/>
			<path class="st1" d="M235.1-21.4C214.7,62.9,191.6,423,203.9,570c11.5,137.8,43,339.6,49.8,467.8c9.9,184.6-51.2,497.4-54,703.7
				c-2.5,183.4,45.2,438.8,45.8,633.6c0.5,198.2-48.8,479.4-51.9,682.5c-3.2,208.2,48,503.9,43.6,709.6
				c-4.3,199.8-53.2,467.7-54,661.9c-0.8,184.2,43,485.1,39.5,653.7c-3.1,145.4-38.8,478.5-68.6,553.4"/>
			<path class="st1" d="M229.2-21.5c-20.7,85.4-44,442.6-31.6,591.7c11.7,139.7,43.6,338,50.6,468c10,187.2-51.9,494.9-54.8,704.1
				c-2.5,185.9,45.9,436.4,46.4,634c0.5,200.9-49.5,477-52.7,682.9c-3.3,211.1,48.7,501.4,44.2,710
				c-4.3,202.6-53.9,465.4-54.8,662.3c-0.8,186.8,43.6,483.2,40,654.1c-3.1,147.5-39.4,477.7-69.5,553.6"/>
			<path class="st1" d="M223.2-21.7c-20.9,86.5-44.7,440.9-32,592.1c11.9,141.6,44.2,336.5,51.3,468.2
				c10.2,189.7-52.6,492.3-55.5,704.4c-2.6,188.5,46.5,434,47,634.3c0.5,203.7-50.2,474.5-53.4,683.2
				c-3.3,214,49.4,498.9,44.8,710.4c-4.4,205.4-54.7,463-55.5,662.6c-0.8,189.3,44.2,481.2,40.6,654.5
				c-3.2,149.5-39.9,476.9-70.5,553.8"/>
			<path class="st1" d="M217.3-21.9c-21.2,87.7-45.3,439.2-32.5,592.4c12,143.5,44.8,334.9,52,468.4
				c10.3,192.3-53.4,489.9-56.3,704.8c-2.6,191,47.1,431.7,47.6,634.7c0.5,206.4-50.8,472.1-54.1,683.6
				c-3.3,216.8,50,496.5,45.5,710.8c-4.5,208.1-55.4,460.7-56.3,662.9c-0.8,191.9,44.8,479.2,41.1,654.8
				c-3.2,151.5-40.5,476-71.4,554.1"/>
			<path class="st1" d="M211.4-22c-21.5,88.9-45.9,437.5-32.9,592.7c12.2,145.4,45.4,333.4,52.6,468.7
				c10.4,194.9-54.1,487.3-57,705.2c-2.6,193.5,47.7,429.3,48.3,635c0.5,209.2-51.5,469.6-54.8,684c-3.4,219.7,50.7,494,46.1,711.2
				c-4.5,210.9-56.2,458.3-57,663.3c-0.8,194.5,45.4,477.2,41.7,655.2c-3.2,153.5-41,475.2-72.4,554.3"/>
			<path class="st1" d="M205.5-22.2c-21.7,90.1-46.5,435.8-33.3,593c12.3,147.3,46,331.8,53.3,468.9
				c10.6,197.4-54.8,484.9-57.8,705.5c-2.7,196.1,48.4,426.9,48.9,635.3c0.5,211.9-52.2,467.2-55.6,684.3
				c-3.4,222.6,51.4,491.5,46.7,711.6c-4.6,213.7-57,456-57.8,663.6c-0.8,197,46,475.3,42.2,655.6c-3.3,155.5-41.5,474.4-73.3,554.5
				"/>
			<path class="st1" d="M199.6-22.3c-22,91.2-47.1,434.1-33.8,593.4c12.5,149.2,46.6,330.2,54,469.1c10.7,200-55.5,482.4-58.5,705.9
				c-2.7,198.6,49,424.6,49.5,635.7c0.5,214.7-52.9,464.7-56.3,684.7c-3.5,225.5,52,489.1,47.3,712c-4.6,216.4-57.6,453.6-58.5,664
				c-0.8,199.5,46.6,473.3,42.8,656c-3.3,157.6-42.1,473.6-74.3,554.7"/>
			<path class="st1" d="M193.7-22.5c-22.3,92.4-47.7,432.3-34.2,593.7c12.7,151.2,47.2,328.7,54.7,469.3
				c10.8,202.6-56.2,479.9-59.3,706.3c-2.7,201.2,49.6,422.2,50.2,636c0.5,217.4-53.6,462.3-57,685
				c-3.5,228.4,52.7,486.6,47.9,712.4c-4.7,219.2-58.4,451.3-59.3,664.3c-0.9,202.1,47.2,471.3,43.3,656.3
				c-3.4,159.6-42.6,472.8-75.3,555"/>
			<path class="st1" d="M187.7-22.6c-22.6,93.6-48.3,430.6-34.6,594c12.8,153.1,47.8,327.2,55.4,469.5c11,205.1-57,477.4-60,706.6
				c-2.8,203.7,50.3,419.9,50.8,636.4c0.5,220.2-54.2,459.8-57.7,685.4c-3.6,231.3,53.4,484.1,48.5,712.8
				c-4.7,222-59.1,448.9-60,664.7c-0.9,204.7,47.8,469.3,43.9,656.7c-3.4,161.6-43.2,472-76.2,555.2"/>
			<path class="st1" d="M181.8-22.8c-22.9,94.7-48.9,428.9-35.1,594.3c12.9,155,48.4,325.6,56.1,469.8
				c11.1,207.7-57.6,474.9-60.8,707c-2.8,206.3,50.8,417.5,51.4,636.7c0.5,222.9-54.9,457.3-58.4,685.8
				c-3.6,234.2,54,481.7,49.1,713.2c-4.8,224.8-59.9,446.6-60.8,665c-0.9,207.2,48.4,467.3,44.5,657
				c-3.4,163.6-43.7,471.2-77.1,555.4"/>
			<path class="st1" d="M176-23c-23.2,95.9-49.5,427.2-35.5,594.7c13.1,156.9,48.9,324.1,56.7,470c11.3,210.3-58.3,472.4-61.5,707.4
				c-2.8,208.8,51.5,415.1,52.1,637c0.6,225.7-55.6,454.9-59.2,686.1c-3.7,237.1,54.7,479.2,49.7,713.6
				c-4.9,227.6-60.6,444.2-61.5,665.4c-0.9,209.8,49,465.4,45,657.4c-3.5,165.7-44.2,470.4-78.1,555.7"/>
			<path class="st1" d="M170-23.1c-23.4,97.1-50.1,425.5-35.9,595c13.3,158.8,49.6,322.5,57.5,470.3
				c11.4,212.8-59.1,469.9-62.3,707.7c-2.9,211.4,52.2,412.8,52.7,637.4c0.6,228.4-56.3,452.4-59.9,686.5
				c-3.7,240,55.4,476.7,50.3,714c-4.9,230.3-61.3,441.9-62.3,665.7c-0.9,212.4,49.6,463.4,45.5,657.8
				c-3.5,167.7-44.7,469.5-79.1,555.9"/>
			<path class="st1" d="M164.1-23.3c-23.7,98.3-50.7,423.8-36.4,595.3c13.5,160.7,50.2,320.9,58.2,470.5
				c11.5,215.4-59.8,467.4-63.1,708.1c-2.9,213.9,52.8,410.4,53.3,637.7c0.6,231.2-57,450-60.6,686.9
				c-3.8,242.9,56,474.3,50.9,714.3c-5,233.1-62,439.5-63.1,666.1c-0.9,214.9,50.2,461.4,46.1,658.2c-3.6,169.7-45.3,468.7-80,556.1
				"/>
			<path class="st1" d="M158.2-23.4c-24,99.4-51.3,422.1-36.8,595.6c13.6,162.7,50.8,319.4,58.9,470.7
				c11.7,217.9-60.5,464.9-63.8,708.5c-2.9,216.5,53.4,408,54,638.1c0.6,233.9-57.6,447.5-61.3,687.2
				c-3.8,245.8,56.7,471.8,51.5,714.7c-5.1,235.9-62.8,437.2-63.8,666.4c-0.9,217.5,50.8,459.5,46.6,658.5
				c-3.6,171.7-45.9,467.9-81,556.4"/>
			<path class="st1" d="M152.2-23.6C128,77,100.3,396.7,115,572.4c13.8,164.6,51.4,317.8,59.6,470.9
				c11.8,220.5-61.2,462.4-64.5,708.9c-3,219,54,405.7,54.6,638.4c0.6,236.6-58.3,445.1-62,687.6c-3.8,248.7,57.4,469.4,52.1,715.1
				c-5.1,238.7-63.6,434.8-64.5,666.8c-0.9,220,51.4,457.5,47.1,658.9c-3.7,173.7-46.4,467.1-81.9,556.6"/>
			<path class="st1" d="M146.3-23.8C121.8,78,93.8,394.9,108.7,572.6c13.9,166.5,52,316.3,60.3,471.2
				c11.9,223.1-61.9,459.9-65.3,709.2c-3.1,221.6,54.7,403.3,55.2,638.8c0.6,239.4-59,442.6-62.8,688
				c-3.9,251.5,58.1,466.9,52.7,715.5c-5.2,241.4-64.3,432.5-65.3,667.1c-0.9,222.6,52,455.5,47.7,659.3
				c-3.7,175.8-46.9,466.3-82.9,556.8"/>
			<path class="st1" d="M140.4-23.9C115.5,79,87.2,393,102.3,572.7c14.1,168.4,52.6,314.7,61,471.4c12.1,225.6-62.6,457.4-66,709.6
				c-3.1,224.1,55.3,400.9,55.9,639.1c0.6,242.2-59.7,440.1-63.5,688.3c-3.9,254.4,58.7,464.4,53.3,716
				c-5.2,244.2-65.1,430.2-66,667.5c-0.9,225.2,52.6,453.5,48.3,659.6c-3.7,177.8-47.5,465.5-83.8,557"/>
			<path class="st1" d="M134.5-24.1C109.4,80,80.7,391.1,96,572.9c14.2,170.3,53.2,313.1,61.7,471.6
				c12.2,228.2-63.3,454.9-66.8,709.9c-3.1,226.6,55.9,398.6,56.5,639.4c0.6,244.9-60.3,437.7-64.2,688.7
				c-4,257.3,59.4,462,54,716.3c-5.3,247-65.8,427.8-66.8,667.8c-1,227.7,53.2,451.6,48.8,660c-3.8,179.8-48,464.7-84.8,557.3"/>
			<path class="st1" d="M128.6-24.2c-25.4,105.3-54.4,413.5-39,597.3c14.4,172.2,53.8,311.6,62.3,471.9
				c12.4,230.8-64.1,452.4-67.5,710.3c-3.1,229.2,56.6,396.2,57.1,639.8c0.6,247.7-61,435.2-64.9,689.1
				c-4.1,260.2,60,459.5,54.6,716.7c-5.3,249.7-66.5,425.4-67.5,668.2c-1,230.3,53.8,449.6,49.4,660.4
				c-3.8,181.8-48.6,463.9-85.7,557.5"/>
			<path class="st1" d="M122.7-24.4C97,82,67.7,387.4,83.3,573.2c14.6,174.1,54.4,310,63.1,472c12.5,233.3-64.8,449.9-68.3,710.7
				c-3.2,231.8,57.2,393.8,57.8,640.1c0.6,250.5-61.7,432.8-65.7,689.4c-4.1,263.1,60.7,457,55.2,717.1
				c-5.4,252.5-67.3,423.1-68.3,668.5c-1,232.8,54.4,447.6,49.9,660.7c-3.9,183.8-49.1,463-86.7,557.7"/>
			<path class="st1" d="M116.7-24.5c-26,107.6-55.6,410.1-39.8,598c14.7,176,54.9,308.5,63.7,472.3c12.6,235.9-65.5,447.5-69,711.1
				c-3.2,234.3,57.8,391.5,58.4,640.5c0.6,253.2-62.4,430.3-66.4,689.8c-4.1,266,61.4,454.6,55.8,717.5
				c-5.5,255.3-68,420.7-69,668.8c-1,235.4,55,445.7,50.5,661.1c-3.9,185.8-49.6,462.3-87.6,557.9"/>
			<path class="st1" d="M110.9-24.7C84.6,84.1,54.7,383.6,70.6,573.6c14.9,177.9,55.6,306.9,64.4,472.5
				c12.8,238.5-66.2,444.9-69.8,711.4c-3.2,236.8,58.4,389.1,59,640.8c0.6,256-63.1,427.9-67.1,690.1
				c-4.2,268.9,62,452.1,56.4,717.9c-5.5,258.1-68.7,418.4-69.7,669.2c-1,238,55.6,443.7,51,661.5c-4,187.9-50.2,461.4-88.6,558.2"
				/>
			<path class="st1" d="M104.9-24.9C78.4,85.1,48.1,381.8,64.2,573.8c15.1,179.9,56.2,305.4,65.1,472.7
				c12.9,241-66.9,442.4-70.5,711.8c-3.3,239.4,59.1,386.7,59.7,641.1c0.6,258.7-63.7,425.4-67.8,690.5
				c-4.2,271.7,62.7,449.6,57,718.3c-5.6,260.9-69.5,416-70.5,669.5c-1,240.5,56.2,441.7,51.6,661.8c-4,189.9-50.7,460.6-89.5,558.4
				"/>
			<path class="st1" d="M99-25C72.2,86.1,41.6,379.9,57.9,573.9c15.3,181.8,56.7,303.8,65.8,473c13,243.6-67.6,439.9-71.3,712.2
				c-3.3,241.9,59.7,384.4,60.3,641.5c0.6,261.5-64.4,423-68.5,690.9c-4.3,274.7,63.4,447.2,57.6,718.7
				c-5.6,263.6-70.2,413.7-71.3,669.9c-1,243,56.8,439.7,52.1,662.2C78.5,5334.1,31.3,5602-8,5700.8"/>
			<path class="st1" d="M93.1-25.2C66,87.1,35.1,378,51.5,574.1c15.4,183.7,57.3,302.3,66.5,473.2c13.2,246.2-68.3,437.4-72,712.6
				c-3.3,244.5,60.3,382,61,641.8c0.6,264.2-65.1,420.5-69.3,691.2c-4.3,277.6,64.1,444.7,58.2,719.1c-5.7,266.4-71,411.3-72,670.2
				c-1,245.7,57.4,437.7,52.6,662.6c-4.1,193.9-51.8,459-91.4,558.9"/>
			<path class="st1" d="M87.2-25.3c-27.4,113.4-58.6,401.4-42,599.6c15.5,185.6,58,300.7,67.2,473.4c13.3,248.7-69,435-72.8,713
				c-3.4,247,61,379.6,61.6,642.1c0.7,267-65.8,418.1-70,691.6c-4.3,280.4,64.7,442.2,58.8,719.5c-5.8,269.2-71.7,409-72.8,670.6
				c-1,248.2,58,435.8,53.2,662.9c-4.1,196-52.3,458.2-92.4,559.1"/>
			<path class="st1" d="M81.2-25.5C53.6,89.1,22.1,374.3,38.8,574.4c15.7,187.5,58.5,299.1,67.9,473.6
				c13.5,251.3-69.7,432.5-73.5,713.3c-3.4,249.6,61.6,377.3,62.2,642.5c0.7,269.7-66.4,415.6-70.7,692
				c-4.4,283.3,65.4,439.8,59.4,719.9c-5.8,271.9-72.4,406.6-73.5,670.9c-1,250.7,58.6,433.8,53.7,663.3
				c-4.2,198-52.9,457.4-93.3,559.3"/>
			<path class="st1" d="M75.3-25.7c-27.9,115.8-59.8,398-42.8,600.3c15.9,189.4,59.1,297.6,68.6,473.8
				c13.6,253.8-70.4,430-74.3,713.7C23.3,2014.3,89,2137.1,89.6,2405c0.7,272.5-67.1,413.1-71.4,692.3
				c-4.4,286.2,66.1,437.3,60,720.3C72.3,4092.4,5,4221.9,3.9,4488.9c-1.1,253.3,59.1,431.8,54.2,663.6
				c-4.2,200-53.4,456.6-94.3,559.5"/>
			<path class="st1" d="M69.4-25.8C41.2,91.1,9,370.5,26.1,574.8c16,191.3,59.7,296,69.3,474.1c13.7,256.4-71.2,427.5-75,714
				c-3.5,254.7,62.8,372.5,63.5,643.2c0.7,275.2-67.8,410.7-72.2,692.7c-4.5,289.1,66.7,434.9,60.6,720.7
				c-5.9,277.5-73.9,401.9-75,671.6c-1.1,255.9,59.8,429.9,54.8,664c-4.3,202-53.9,455.7-95.2,559.8"/>
			<path class="st1" d="M63.5-26C35,92.1,2.5,368.6,19.8,574.9c16.2,193.3,60.3,294.6,70,474.3c13.9,259-71.9,425-75.8,714.4
				c-3.5,257.2,63.5,370.2,64.1,643.5c0.7,278-68.5,408.2-72.9,693.1c-4.5,292,67.4,432.4,61.2,721c-6,280.3-74.6,399.6-75.8,672
				c-1.1,258.4,60.4,427.9,55.4,664.4c-4.3,204-54.5,454.9-96.2,560"/>
			<path class="st1" d="M57.6-26.1C28.8,93.2-4,366.8,13.4,575.1C29.8,770.3,74.3,868,84.1,1049.6c14,261.5-72.6,422.5-76.5,714.8
				c-3.5,259.7,64.1,367.8,64.8,643.9C73,2689,3.1,2814-1.3,3101.7c-4.6,294.9,68.1,429.9,61.8,721.4
				c-6.1,283.1-75.4,397.2-76.5,672.3c-1.1,261,61,425.9,55.9,664.8c-4.4,206.1-55,454.1-97.2,560.2"/>
			<path class="st1" d="M51.7-26.3C22.6,94.2-10.6,364.9,7.1,575.3C23.6,772.3,68.6,866.6,78.4,1050c14.2,264.1-73.3,420-77.3,715.1
				c-3.6,262.3,64.7,365.4,65.4,644.2c0.7,283.5-69.8,403.3-74.3,693.8c-4.6,297.8,68.7,427.5,62.4,721.8
				c-6.1,285.8-76.1,394.9-77.3,672.7c-1.1,263.5,61.6,423.9,56.5,665.1c-4.4,208.1-55.6,453.3-98.1,560.5"/>
			<path class="st1" d="M45.8-26.5C16.4,95.2-17.1,363.1,0.7,575.4c16.7,199,62.1,289.8,72,475c14.3,266.7-74,417.5-78,715.5
				c-3.6,264.9,65.3,363.1,66,644.6c0.7,286.2-70.5,400.9-75,694.2c-4.6,300.7,69.4,425,63.1,722.2c-6.2,288.6-76.9,392.5-78,673
				c-1.1,266.1,62.2,422,57,665.5c-4.4,210.1-56.1,452.5-99.1,560.7"/>
			<path class="st1" d="M39.8-26.6C10.2,96.2-23.6,361.1-5.6,575.6c16.9,200.9,62.7,288.2,72.8,475.2
				c14.4,269.2-74.7,415-78.8,715.9c-3.7,267.4,65.9,360.7,66.6,644.9c0.7,289-71.2,398.4-75.8,694.5
				c-4.7,303.6,70.1,422.5,63.6,722.6c-6.2,291.4-77.6,390.2-78.8,673.4c-1.1,268.7,62.8,420,57.6,665.9
				c-4.5,212.1-56.6,451.7-100,560.9"/>
			<path class="st1" d="M33.9-26.8C4,97.2-30.1,359.3-12,575.8c17,202.8,63.3,286.7,73.4,475.4C76,1323-14,1463.7-18.1,1767.5
				c-3.7,270,66.6,358.3,67.3,645.2c0.7,291.7-71.9,395.9-76.5,694.9c-4.7,306.5,70.7,420.1,64.3,723
				c-6.3,294.1-78.3,387.8-79.5,673.7c-1.1,271.2,63.4,418,58.1,666.3c-4.5,214.1-57.2,450.9-100.9,561.1"/>
			<path class="st1" d="M28-26.9C-2.2,98.2-36.6,357.4-18.3,575.9c17.1,204.7,63.9,285.2,74.1,475.7c14.7,274.4-76.1,410-80.3,716.6
				c-3.7,272.5,67.2,356,67.9,645.6c0.7,294.5-72.5,393.5-77.2,695.3c-4.8,309.4,71.4,417.6,64.9,723.4
				c-6.3,296.9-79.1,385.5-80.3,674c-1.2,273.8,64,416,58.7,666.6c-4.6,216.2-57.7,450.1-101.9,561.4"/>
			<path class="st1" d="M22.1-27.1C-8.4,99.3-43.2,355.5-24.7,576.1C-7.4,782.8,39.8,859.7,50.1,1052c14.8,276.9-76.8,407.5-81,717
				c-3.7,275.1,67.9,353.6,68.6,645.9c0.7,297.2-73.2,391.1-77.9,695.6c-4.8,312.3,72.1,415.1,65.5,723.8
				c-6.4,299.7-79.8,383.1-81,674.4c-1.2,276.3,64.6,414.1,59.2,667c-4.6,218.1-58.3,449.2-102.9,561.6"/>
			<path class="st1" d="M16.2-27.2C-14.6,100.2-49.7,353.7-31,576.3c17.5,208.6,65.1,282,75.5,476.1c15,279.5-77.6,405-81.8,717.4
				c-3.8,277.6,68.5,351.2,69.2,646.2c0.7,300-73.9,388.6-78.7,696c-4.9,315.2,72.7,412.7,66.1,724.2
				c-6.5,302.5-80.6,380.8-81.8,674.7c-1.2,278.9,65.2,412.1,59.8,667.4c-4.6,220.2-58.8,448.4-103.8,561.8"/>
			<path class="st1" d="M10.2-27.4c-31,128.6-66.4,379.2-47.6,603.8c17.6,210.5,65.7,280.5,76.2,476.3
				c15.1,282.1-78.3,402.5-82.5,717.7c-3.8,280.1,69.2,348.9,69.8,646.6c0.7,302.7-74.6,386.1-79.3,696.3
				c-5,318.1,73.3,410.3,66.6,724.6c-6.5,305.2-81.3,378.4-82.5,675.1c-1.2,281.5,65.8,410.1,60.3,667.7
				c-4.7,222.2-59.3,447.6-104.8,562.1"/>
			<path class="st1" d="M4.3-27.6c-31.3,129.8-67,377.5-48,604.2c17.8,212.4,66.3,278.9,76.9,476.6c15.3,284.6-79,400-83.3,718.1
				c-3.8,282.7,69.7,346.5,70.5,646.9c0.8,305.5-75.3,383.7-80.1,696.7c-5,320.9,74.1,407.8,67.3,725
				c-6.6,308-82.1,376.1-83.3,675.4c-1.2,284,66.4,408.1,60.9,668.1c-4.7,224.2-59.9,446.8-105.8,562.3"/>
			<path class="st1" d="M-1.6-27.7c-31.6,131-67.6,375.7-48.5,604.5c18,214.3,66.9,277.4,77.6,476.8c15.4,287.2-79.7,397.5-84,718.5
				c-3.9,285.2,70.4,344.1,71.1,647.3c0.7,308.2-75.9,381.2-80.8,697.1c-5,323.8,74.7,405.3,67.9,725.4
				c-6.6,310.9-82.8,373.7-84,675.8c-1.2,286.6,66.9,406.2,61.4,668.5c-4.8,226.2-60.4,446-106.7,562.5"/>
			<path class="st1" d="M-7.5-27.9c-31.9,132.2-68.3,374-48.9,604.8c18.1,216.2,67.5,275.8,78.3,477c15.5,289.8-80.4,395-84.8,718.8
				c-3.9,287.8,71,341.8,71.7,647.6c0.8,311-76.6,378.8-81.5,697.4c-5.1,326.7,75.4,402.9,68.5,725.7
				c-6.7,313.6-83.5,371.4-84.8,676.1c-1.2,289.1,67.5,404.2,62,668.8c-4.8,228.3-61,445.2-107.6,562.7"/>
			<path class="st1" d="M-13.4-28c-32.2,133.4-68.9,372.3-49.4,605.2c18.3,218.1,68.1,274.3,79,477.2
				c15.7,292.3-81.1,392.5-85.5,719.2C-73.3,2063.9,2.3,2113,3,2421.5c0.8,313.7-77.3,376.3-82.3,697.8
				c-5.1,329.6,76.1,400.4,69.1,726.2c-6.8,316.3-84.3,369-85.5,676.5c-1.2,291.7,68.1,402.2,62.5,669.2
				c-4.9,230.3-61.5,444.4-108.6,563"/>
			<path class="st1" d="M-19.3-28.2c-32.5,134.5-69.5,370.6-49.8,605.5c18.4,220,68.7,272.7,79.7,477.5
				c15.8,294.9-81.8,390.1-86.3,719.6c-4,292.9,72.3,337,73,648.3c0.8,316.5-78,373.9-83,698.2C-90.8,3453.3-9,3518.7-16,3847.4
				c-6.8,319.1-85,366.7-86.3,676.9c-1.2,294.2,68.7,400.2,63.1,669.6c-4.9,232.3-62,443.6-109.5,563.2"/>
			<path class="st1" d="M-25.3-28.3C-58,107.4-95.3,340.5-75.5,577.5c18.6,221.9,69.3,271.2,80.4,477.7
				c15.9,297.4-82.5,387.5-87.1,720c-4,295.4,72.9,334.6,73.7,648.6c0.8,319.3-78.6,371.4-83.7,698.5
				c-5.2,335.4,77.4,395.5,70.3,727c-6.9,321.9-85.7,364.3-87,677.2c-1.3,296.8,69.3,398.3,63.6,669.9
				c-4.9,234.3-62.6,442.8-110.5,563.4"/>
			<path class="st1" d="M-31.2-28.5c-33,136.9-70.7,367.2-50.7,606.2c18.8,223.9,69.9,269.6,81.1,477.9
				c16.1,300-83.3,385.1-87.8,720.3c-4.1,298,73.5,332.3,74.3,649c0.8,322-79.3,368.9-84.4,698.9c-5.2,338.3,78.1,393,70.9,727.4
				c-6.9,324.7-86.4,362-87.8,677.5C-116.8,4828-45.6,4925-51.4,5199c-5,236.4-63.1,441.9-111.4,563.7"/>
			<path class="st1" d="M-37.1-28.7c-33.3,138-71.3,365.5-51.1,606.5c18.9,225.8,70.5,268,81.7,478.2
				c16.2,302.6-84,382.5-88.6,720.7c-4.1,300.5,74.1,329.9,74.9,649.3c0.8,324.8-80,366.5-85.1,699.3
				c-5.3,341.2,78.7,390.5,71.5,727.8c-7,327.4-87.2,359.6-88.6,677.9c-1.3,301.9,70.5,394.3,64.7,670.7
				c-5,238.4-63.7,441.1-112.4,563.9"/>
		</g>
	</g>
	<rect x="-5.1" y="-10" class="st1" width="605.4" height="5444.1"/>
</g>
</svg>
