<?xml version="1.0" encoding="utf-8"?>
<!-- Generator: Adobe Illustrator 22.1.0, SVG Export Plug-In . SVG Version: 6.00 Build 0)  -->
<svg version="1.1" id="Calque_1" xmlns="http://www.w3.org/2000/svg" xmlns:xlink="http://www.w3.org/1999/xlink" x="0px" y="0px"
	 viewBox="0 0 852 852.8" style="enable-background:new 0 0 852 852.8;" xml:space="preserve">
<style type="text/css">
	.st0{fill:none;stroke:#0000FF;stroke-width:6;stroke-linecap:square;stroke-linejoin:round;}
</style>
<title>sens0</title>
<path class="st0" d="M204.8,351c0,0-71,96.5-58.6,164.7c10.3,56.6,45.4,20.6,71.8,27.4c26.4,6.9,54.9,27.4,65.2-18.9
	c10.3-46.3-33.7-53.2-43.2-36"/>
<path class="st0" d="M164.5,546.8c0,0-25.5,35.4,1.6,49.2s13.1-12.2,42-11.6s42.4,14.8,42,54.4c-0.5,39.6,47.8,30.1,50.1-1.1"/>
<path class="st0" d="M162.7,593.2c0,0-16.3,6.4-9.6,26.5s30.5,9.3,44,0.5c17.4-11.4,52.1,22.8,52.1,22.8s-34.5,35.6-73.4,26.7
	c0,0-24.3-4.4-19.3,34.8s38.9,30.8,68.2,25.8c0,0,42.3,58.8,164.8,48.4c0,0-20.7-53.8,34.4-65.1s19.3-54.3,19.3-54.3
	s-61.8,5.7-22.2-79.2s54.1-182.1,25.1-203.6"/>
<path class="st0" d="M569.5,350.4l-300.7,16.4c-66.6,3.7-123.5-57.1-126.6-135l0,0C139.1,154,191,87.2,257.5,83.6l300.7-16.4
	c66.5-3.6,123.5,57.1,126.6,135l0,0C687.9,280.1,636,346.8,569.5,350.4z"/>
<line class="st0" x1="251.8" y1="188.2" x2="647.3" y2="173.3"/>
<line class="st0" x1="219.9" y1="234.1" x2="654.6" y2="212.8"/>
<path class="st0" d="M206.2,275.7c0,0,110.3-18.1,110.3,30.9s-1.8,56.7-1.8,56.7"/>
<path class="st0" d="M569.5,350.4c0,0-23.4-80,29.5-93.9c52.9-13.9,61.1-8.5,61.1-8.5"/>
<line class="st0" x1="359.1" y1="288.9" x2="357.9" y2="361.7"/>
<line class="st0" x1="442.9" y1="289.6" x2="442.9" y2="356.1"/>
<line class="st0" x1="514.1" y1="276.9" x2="512.3" y2="353.2"/>
<path class="st0" d="M700.1,552.1c0,74.7-77.7,112.7-141.5,112.7s-89.5-38-89.5-112.7s51.7-135.3,115.5-135.3
	S700.1,477.4,700.1,552.1z"/>
<path class="st0" d="M294.3,396.4c0,0-13.7,39.7,24.2,38.7c37.9-0.9,60.5-37.8,60.5-37.8"/>
<path class="st0" d="M665.8,324.3c0,0,36.7-17.6,36.1,42.6c-0.5,56.9-37.7,66.1-37.7,66.1"/>
<path class="st0" d="M389.3,778.6c0,0,80.3,24.5,94.2-16.9c0,0,14,23.1,50.9,15.4c21.2-4.4,34.3-16.4,41.7-34.7
	c5.6-13.6,8-30.8,8.4-50.9"/>
<path class="st0" d="M663.4,627.1c0,0,20.5,100.9-21.3,116.3s-65.8-1-65.8-1"/>
<line class="st0" x1="584.6" y1="416.8" x2="575.7" y2="373.1"/>
<path class="st0" d="M614.5,486.9c38.9,14.4-6.4,118.7-6.4,118.7s71.9-3.4,67.6-77.4"/>
<path class="st0" d="M593.7,539.7c-12.2-7.1-17.2-24.5-11.1-38.8c6.1-14.3,23.2-19.3,35.5-12.2"/>
<path class="st0" d="M515.7,446.7c0,0,89.5,135.5,57.4,218.9"/>
</svg>
