<?xml version="1.0" encoding="utf-8"?>
<!-- Generator: Adobe Illustrator 22.1.0, SVG Export Plug-In . SVG Version: 6.00 Build 0)  -->
<svg version="1.1" id="Calque_1" xmlns="http://www.w3.org/2000/svg" xmlns:xlink="http://www.w3.org/1999/xlink" x="0px" y="0px"
	 viewBox="0 0 852 852.8" style="enable-background:new 0 0 852 852.8;" xml:space="preserve">
<style type="text/css">
	.st0{fill:none;stroke:#0000FF;stroke-width:6;stroke-linecap:square;stroke-linejoin:round;}
</style>
<title>sens0</title>
<ellipse class="st0" cx="480.1" cy="279.4" rx="78.3" ry="43.2"/>
<path class="st0" d="M249.7,471.3c0,0,4.1-22.8,23-21.6c18.9,1.2,42.5,20.1,28.9,49c-13.7,28.9-21.9,31-51.8,28.9
	c-29.9-2.1-19,36.8-64.9,42c-46,5.1-47.4-47.8-32.6-65.3s-1.6-87.7,28.8-116c27.4-25.5,64.8-31.7,91.3-27.5c0,0-53.4,0.1-89.4-24.9
	s-44.3-68-18.4-83.8s49.3-3.4,101.2-4c0,0,57.6-3,82.3-7c24.7-4,31.6,13.4,30.2,22.1"/>
<ellipse class="st0" cx="481" cy="279.4" rx="40.2" ry="17.4"/>
<path class="st0" d="M631.7,210.2c0,0-54.2-96.5-211.8-78c0,0-124.1,8.8-174.3,74.7s-100.5,20.4-74.4-15.6s82.9-68.1,133.2-84.6
	s170.5-32.2,245.4-10.6s125.4,84.1,125.4,84.1"/>
<path class="st0" d="M318.7,512.7c0,0,38.6,11.9,26.8,84.6s-91.7,89.2-128,57.6c-26.4-23-28.2-41.4-27.1-49.7
	c0.3-2.2,2.8-3.4,4.6-2.2c11.8,7.6,53.7,25.7,129-34.4"/>
<path class="st0" d="M312.4,158.6"/>
<path class="st0" d="M191.5,658c0,0-33.8,22.8-8,67.1s283.4,35.3,318.3,9c15-11.3,19.4-19,2.2-39.1c-17.2-20.2-1.1-59.5,29.8-59.5
	c0,0-59.5-82.7-0.2-129.2s48.5-69.2,24.9-80.7c-23.7-11.5-39.6-83.4,5-108.5c36.2-20.3,82-17.8,102,17.3s-9.4,48.1-31.1,40.8
	c-21.7-7.3-36-30.6-46.3-19.3c-13.7,15,25.4,42.5,25.4,60.1c0,16.5-20.3,14.9-20.3,14.9"/>
<path class="st0" d="M556.2,633.7c0,0,7,62.8,40.3,39.9s33-68.1,75.6-56.6c53.3,14.3,46.6,77.4-14.6,101.5
	c-71.4,28.2-120.2,0-120.2,0"/>
<path class="st0" d="M629,555.1c0,18.1-14.7,32.8-32.8,32.8s-32.8-14.7-32.8-32.8c0-18.1,14.7-32.8,32.8-32.8
	c4.5,0,8.8,0.9,12.8,2.6"/>
<path class="st0" d="M312.4,158.6l-22,64.9h51.1l22-81.7c0,0,33.4-7.6,48.4-8.8l-21.5,90l56.1-1.3l21.6-91.7c0,0,28.1,0.5,47.8,5.8
	l-20.6,83.6h39.8l20.6-69.6c0,0,27.2,8.5,46.1,27l-5.6,102.6"/>
<path class="st0" d="M339.6,445.1c-27.2,0-49.2-22-49.2-49.2s22-49.2,49.2-49.2"/>
<path class="st0" d="M375.5,346.7c27.2,0,49.2,22,49.2,49.2s-22,49.2-49.2,49.2"/>
<path class="st0" d="M494.4,460.6c0,0-51.7,46.1-88.4-4.7c0,0,11.3,54.6-24.5,80c0,0,104.4-38.5,101.6,26.4s-107,35.6-107,35.6"/>
</svg>
