<?xml version="1.0" encoding="utf-8"?>
<!-- Generator: Adobe Illustrator 22.1.0, SVG Export Plug-In . SVG Version: 6.00 Build 0)  -->
<svg version="1.1" id="Calque_1" xmlns="http://www.w3.org/2000/svg" xmlns:xlink="http://www.w3.org/1999/xlink" x="0px" y="0px"
	 viewBox="0 0 574.8 746.1" style="enable-background:new 0 0 574.8 746.1;" xml:space="preserve">
<style type="text/css">
	.st0{fill:none;stroke:#FFFFFF;stroke-width:4;stroke-linejoin:round;stroke-miterlimit:10;}
</style>
<title>sens1</title>
<path class="st0" d="M129.6,330.2c0,0,29.1,6.6,16.3,40.3c-9.3,24.3-38.5,18.1-63.3,5.6c-13.5-6.8-27.9-10.6-42.5-10.5
	c-7.3,0-14.2-3.9-14.8-18.7c-0.9-23.9-0.7-134.1,143.5-238c93.3-67.2,201.7-98,310.3-90.3l65.4,4.7c13.3,1,27.4,9.5,27,34.5
	c-0.2,14.4-0.5,41.8-30.1,46.2c-59.2,8.7-73.9-12.7-82.8-24.3"/>
<path class="st0" d="M52.8,180c21.6-30.1,77.9-101.5,141-126.5c7.2-2.8,7.8-14.8,0.9-18.5c-19.5-10.4-51.4-20.8-82.8-1
	c-50,31.5-69.5,76.7-73.1,85c-2.9,6.7-12.7,31.6-4.3,57.3C37.5,185.4,47.5,187.5,52.8,180z"/>
<path class="st0" d="M144.6,270.8c0,0,67.7,89.5,138.3,11.5s-9.1-139.4-59.7-123.9c-44.9,13.7-59.5,51.6-55.9,72.2h101.1"/>
<path class="st0" d="M63.1,387.1c0,0-0.5,35-32,33.9c-31.4-1.1-30.7,43.5-12.7,48c17.9,4.5,73.3,20.1,78,49.7c0,0-65.2-24.5-78,50.6
	c-12.8,75.6,49.4,60.5,69.4,56.9c15.1-2.7,67.6,10.6,80.3,67.9c12.8,57.3,152.3,45.4,158,5.4c5.7-40-30.1-18.3-63.2-71.2
	c-33.1-53-73.3,3.5-68.9-100c0,0,4.4-40.2,42.8-37.6s37.8,49,36.6,107.5l1.8-125.2c0,0-1.3-22.9,14.6-22.9
	c15.9,0,20.4,22.2,16.7,96.4v30.2c0,5.3-0.3,10.6-0.7,15.9c-1,12.1-0.4,38.9,23.6,38.2c30.9-0.8,41.7-37.5,41.7-93c0-54,0-196,0-196
	"/>
<path class="st0" d="M316.5,174.2c0,0,44.8-79.5,72.4-90c17.2-6.6,36,1.1,31.8,19c-5,21.4-32.6,6.7-37,28.5s14.7,37.4,51.9,29.7"/>
<path class="st0" d="M347.5,681.4c0,0,50.5,32.9,115.8-8s52.5-108.6,52.5-108.6"/>
<ellipse class="st0" cx="464" cy="284.3" rx="43.4" ry="64.9"/>
<ellipse class="st0" cx="468.2" cy="425.1" rx="50.6" ry="75.8"/>
</svg>
