<?xml version="1.0" encoding="utf-8"?>
<!-- Generator: Adobe Illustrator 22.1.0, SVG Export Plug-In . SVG Version: 6.00 Build 0)  -->
<svg version="1.1" id="Calque_1" xmlns="http://www.w3.org/2000/svg" xmlns:xlink="http://www.w3.org/1999/xlink" x="0px" y="0px"
	 viewBox="0 0 574.8 746.1" style="enable-background:new 0 0 574.8 746.1;" xml:space="preserve">
<style type="text/css">
	.st0{fill:none;stroke:#FFFFFF;stroke-width:4;stroke-linejoin:round;stroke-miterlimit:10;}
	.st1{fill:none;stroke:#FFFFFF;stroke-width:4;stroke-linecap:square;stroke-linejoin:round;stroke-miterlimit:10;}
</style>
<title>sens1</title>
<path class="st0" d="M86.3,665.6c0,0-65.6-15.1-65.6,32c0,55.2,85.5,37.5,238.9,11.3S416,529.6,416,529.6c-16.2-21.5-8.1-40-8.1-40
	S389.5,546,471,548.3s31.1-55.2,75.4-149.9c44.4-94.7,13.3-163.4-54.7-214.8s-41-87.2-43.7-116.4C445.4,38,436.3,4,356.7,7
	S215.4,81.1,215.4,81.1c5.7-34-63.6-115.9-116.1-35.1s20.6,146.1,20.6,146.1s-106.8,106.6-92,140.6s35.5,18.6,61.2,38.8
	c25.6,20.2,54,10,54,10s-23.8,12-54-10c0,0-22.3-1.7-47.8,33.8s-6.4,31.7,42.3,73.9s87,71.1,87,71.1l-58.1-2.1l-21.3-36.9l-70.5,4.4
	v-62.1"/>
<ellipse class="st0" cx="294.2" cy="337.1" rx="63.3" ry="61.2"/>
<ellipse class="st0" cx="307.5" cy="365.3" rx="29.2" ry="28.2"/>
<path class="st0" d="M165.4,71.8c0,0-47.4,29.3-16,80.4s90.8,16.1,90.8,16.1s-136,65.1-54.6,203.1s206.7,7.9,206.7,7.9
	s52.9,65.9,97.4,45s-4.8-87.1-43.9-87.1c-29.2,0-45.5,16.8-45.5,16.8"/>
<path class="st0" d="M166.6,383.7c0,0,7.2,27-13.8,57.7c0,0,76.4,18.6,69,82.4"/>
<path class="st0" d="M179.2,573.4c0,0,35.3-1.3,59-23.7s31.4-47.9,80.9-48.5c49.5-0.5,76.6,40.8,64.4,55.2
	C358.6,586,323,542,252.6,601c-84.3,70.7-278.1,48.4-236.4-8.2S104.3,585.2,179.2,573.4z"/>
<path class="st0" d="M263.4,283.6c0,0-57.5-11.1-17.6-80.3"/>
<path class="st0" d="M208.5,105.1c-10.1,2.8-56.6,62.1,13.8,70.8"/>
<path class="st1" d="M250.8,134.1c0,0,91,11.1,113.2-73.5l47.7,246.9"/>
<path class="st1" d="M326.8,206.7c0,0,68,27.3,102.6-28.2"/>
</svg>
