<?xml version="1.0" encoding="utf-8"?>
<!-- Generator: Adobe Illustrator 22.1.0, SVG Export Plug-In . SVG Version: 6.00 Build 0)  -->
<svg version="1.1" id="Calque_1" xmlns="http://www.w3.org/2000/svg" xmlns:xlink="http://www.w3.org/1999/xlink" x="0px" y="0px"
	 viewBox="0 0 574.8 746.1" style="enable-background:new 0 0 574.8 746.1;" xml:space="preserve">
<style type="text/css">
	.st0{fill:none;stroke:#FFFFFF;stroke-width:4;stroke-linejoin:round;stroke-miterlimit:10;}
</style>
<title>sens1</title>
<path class="st0" d="M124.5,333.5c0,0,50.8,15.5,26.2,62.8s-48.5-20.3-74.6-6.7c-26.2,13.6-68.5,36.7-70.8-19.3
	c-2.1-50.3,12.6-96,79-138.3c17.9-11.5,34-27,47.3-45.9c20.8-29.6,50.3-72.5,62.3-94.2C224.7,35.8,374.7,11.6,417.1,58"/>
<path class="st0" d="M57.9,250.9c0,0-72.4-60.1-3.8-135.3s105.3-58.5,139.6-23.7"/>
<ellipse class="st0" cx="113.7" cy="162.4" rx="12.9" ry="16.2"/>
<path class="st0" d="M40.3,133c0,0-27.1,1.6-17.6-35.6s53.5-53.8,72.4-21.3"/>
<path class="st0" d="M53.9,399.9c0,0,1.9,23.7-21,39c-9.5,6.4-16,18.3-16.3,31.8c-0.3,13.5,3.9,34.9,21.5,37.2
	c34.9,4.6,24-20.8,46.6-13c22.6,7.8,45.6,37.7,50.9,28.9c5.3-8.7-13.8-40.8-29.2-50.6c-26-16.5-39.6,4.2-51.5-0.9
	c-11.9-5.2-22.3-18.2-22.3-18.2"/>
<ellipse class="st0" cx="253.9" cy="520.9" rx="10.4" ry="13.1"/>
<ellipse class="st0" cx="222.8" cy="623.5" rx="10.4" ry="13.1"/>
<path class="st0" d="M160.5,251.3c0,0-7.2,56.1,39.2,56.9c46.4,0.8,57.1-36.7,57.1-36.7L187.6,408"/>
<path class="st0" d="M158,145.3c0,0-11,84,156.8,95.4"/>
<path class="st0" d="M175.9,119.6c0,0,2.2,67.4,95.1,62.4s112.7-21,112.7-21"/>
<path class="st0" d="M197.5,90.1c0,0,23.9,86.8,183.5,24.9"/>
<path class="st0" d="M534.5,635.9c0,0-120.5,64.3-164.2,20.8c0,0-32.3-22.1-0.5-53.1"/>
<path class="st0" d="M527.9,505.2c0,0-78.5,159.4-171,87.5c-60.5-47-56.5-196.6-8.4-296.3c25.4-52.7,63.2-91.4,110.3-93.7
	c136.2-6.6,101.3,181,101.3,181"/>
<path class="st0" d="M497.5,457.3c0,0-47.2,95.9-102.8,52.6c-36.4-28.3-34-118.2-5-178.1c15.3-31.7,38-55,66.3-56.3
	c81.9-4,60.9,108.8,60.9,108.8"/>
<path class="st0" d="M352.9,289.5c0,0-46.7-32-1.8-96.7s125.6-61.7,187.5-34.3"/>
<path class="st0" d="M396.7,154.5c0,0-59.2-91.2,64.6-109.3"/>
<path class="st0" d="M299.1,285.3c15.2,13.8,18.6,40.3,7.7,59.3c-10.9,19.1-32.1,23.3-47.2,9.7"/>
<path class="st0" d="M261.1,355.5c15.2,13.8,18.6,40.3,7.7,59.3c-10.9,19.1-32.1,23.3-47.2,9.7"/>
<path class="st0" d="M57.9,525.3c0,0-40.5,5.7-26.1,48.7s77.3,49.6,77.3,49.6s-38.4,76.6,113.6,83.9
	c152.1,7.3,63.6-149.1,63.6-149.1"/>
</svg>
