<?xml version="1.0" encoding="utf-8"?>
<!-- Generator: Adobe Illustrator 22.1.0, SVG Export Plug-In . SVG Version: 6.00 Build 0)  -->
<svg version="1.1" id="Calque_1" xmlns="http://www.w3.org/2000/svg" xmlns:xlink="http://www.w3.org/1999/xlink" x="0px" y="0px"
	 viewBox="0 0 923.1 1999.7" style="enable-background:new 0 0 923.1 1999.7;" xml:space="preserve">
<style type="text/css">
	.st0{fill:none;stroke:#FFFFFF;stroke-width:3;stroke-miterlimit:10;}
	.st1{fill:#FFFFFF;}
	.st2{font-family:'HelveticaNeue-Thin';}
	.st3{font-size:73px;}
	.st4{font-size:42.559px;}
	.st5{fill:none;}
</style>
<title>theorie2</title>
<rect x="44.5" y="88.5" class="st0" width="211" height="53.5"/>
<ellipse class="st0" cx="70.9" cy="61.8" rx="26.4" ry="26.8"/>
<rect x="47.8" y="214.2" class="st0" width="211" height="53.5"/>
<ellipse class="st0" cx="74.1" cy="187.5" rx="26.4" ry="26.8"/>
<ellipse class="st0" cx="126.9" cy="187.5" rx="26.4" ry="26.8"/>
<ellipse class="st0" cx="76.2" cy="313.4" rx="26.4" ry="26.8"/>
<ellipse class="st0" cx="129.4" cy="313.4" rx="26.4" ry="26.8"/>
<rect x="49.6" y="340.5" class="st0" width="211" height="53.5"/>
<g>
	<text transform="matrix(1 0 0 1 332.0978 130.0266)" class="st1 st2 st3">6 x 20</text>
	<text transform="matrix(1 0 0 1 526.8598 105.7182)" class="st1 st2 st4">2</text>
	<text transform="matrix(1 0 0 1 550.5236 130.0266)" class="st1 st2 st3"> = 2400</text>
</g>
<g>
	<text transform="matrix(1 0 0 1 333.8378 261.1266)" class="st1 st2 st3">7 x 20</text>
	<text transform="matrix(1 0 0 1 528.6 236.8178)" class="st1 st2 st4">1</text>
	<text transform="matrix(1 0 0 1 552.2636 261.1266)" class="st1 st2 st3"> =   140</text>
</g>
<g>
	<text transform="matrix(1 0 0 1 336.9478 382.5967)" class="st1 st2 st3">9 x 20</text>
	<text transform="matrix(1 0 0 1 531.7104 358.2875)" class="st1 st2 st4">0</text>
	<text transform="matrix(1 0 0 1 555.3735 382.5967)" class="st1 st2 st3"> =   </text>
	<text transform="matrix(1 0 0 1 699.9777 382.5967)" class="st1 st2 st3"> </text>
	<text transform="matrix(1 0 0 1 768.9474 382.5967)" class="st1 st2 st3"> 9</text>
</g>
<g>
	<text transform="matrix(1 0 0 1 611.2878 522.1566)" class="st1 st2 st3">2’549</text>
</g>
<ellipse class="st0" cx="182.7" cy="314" rx="26.4" ry="26.8"/>
<ellipse class="st0" cx="235.8" cy="314" rx="26.4" ry="26.8"/>
<g>
	<text transform="matrix(1 0 0 1 674.7477 189.0966)" class="st1 st2 st3">+</text>
</g>
<g>
	<text transform="matrix(1 0 0 1 674.7477 324.5667)" class="st1 st2 st3">+</text>
</g>
<line class="st0" x1="474.5" y1="429" x2="826" y2="429"/>
<line class="st0" x1="475.9" y1="549.4" x2="827.4" y2="549.4"/>
<line class="st5" x1="475.8" y1="562.6" x2="797.9" y2="562.6"/>
<ellipse class="st0" cx="130.7" cy="696.7" rx="26.4" ry="26.8"/>
<ellipse class="st0" cx="185.5" cy="697.1" rx="26.4" ry="26.8"/>
<ellipse class="st0" cx="75.5" cy="696.3" rx="26.4" ry="26.8"/>
<rect x="47.8" y="795.9" class="st0" width="211" height="53.5"/>
<ellipse class="st0" cx="74.1" cy="769.2" rx="26.4" ry="26.8"/>
<ellipse class="st0" cx="126.9" cy="769.2" rx="26.4" ry="26.8"/>
<ellipse class="st0" cx="180.6" cy="768.1" rx="26.4" ry="26.8"/>
<ellipse class="st0" cx="234.1" cy="768.1" rx="26.4" ry="26.8"/>
<ellipse class="st0" cx="76.2" cy="895.1" rx="26.4" ry="26.8"/>
<ellipse class="st0" cx="129.4" cy="895.1" rx="26.4" ry="26.8"/>
<rect x="49.6" y="922.2" class="st0" width="211" height="53.5"/>
<g>
	<text transform="matrix(1 0 0 1 332.0978 711.7266)" class="st1 st2 st3">3 x 20</text>
	<text transform="matrix(1 0 0 1 526.8598 687.4184)" class="st1 st2 st4">2</text>
	<text transform="matrix(1 0 0 1 550.5236 711.7266)" class="st1 st2 st3"> = 1200</text>
</g>
<g>
	<text transform="matrix(1 0 0 1 333.8378 842.8265)" class="st1 st2 st3">9 x 20</text>
	<text transform="matrix(1 0 0 1 528.6 818.518)" class="st1 st2 st4">1</text>
	<text transform="matrix(1 0 0 1 552.2636 842.8265)" class="st1 st2 st3"> =   180</text>
</g>
<g>
	<text transform="matrix(1 0 0 1 336.9478 964.2965)" class="st1 st2 st3">8 x 20</text>
	<text transform="matrix(1 0 0 1 531.7104 939.9877)" class="st1 st2 st4">0</text>
	<text transform="matrix(1 0 0 1 555.3735 964.2965)" class="st1 st2 st3"> =   </text>
	<text transform="matrix(1 0 0 1 699.9777 964.2965)" class="st1 st2 st3"> </text>
	<text transform="matrix(1 0 0 1 768.9474 964.2965)" class="st1 st2 st3"> 8</text>
</g>
<g>
	<text transform="matrix(1 0 0 1 611.2878 1103.8564)" class="st1 st2 st3">1’388</text>
</g>
<ellipse class="st0" cx="182.7" cy="895.7" rx="26.4" ry="26.8"/>
<g>
	<text transform="matrix(1 0 0 1 674.7477 770.7966)" class="st1 st2 st3">+</text>
</g>
<g>
	<text transform="matrix(1 0 0 1 674.7477 906.2665)" class="st1 st2 st3">+</text>
</g>
<line class="st0" x1="474.5" y1="1010.7" x2="823.5" y2="1010.7"/>
<line class="st0" x1="475.8" y1="1131.1" x2="824.7" y2="1131.1"/>
<line class="st0" x1="475.8" y1="1144.3" x2="824.7" y2="1144.3"/>
<rect x="44.8" y="1530" class="st0" width="211" height="53.5"/>
<rect x="44.8" y="1404.1" class="st0" width="211" height="53.5"/>
<ellipse class="st0" cx="71.2" cy="1503.3" rx="26.4" ry="26.8"/>
<ellipse class="st0" cx="73.3" cy="1633.2" rx="26.4" ry="26.8"/>
<rect x="46.6" y="1660.3" class="st0" width="211" height="53.5"/>
<g>
	<text transform="matrix(1 0 0 1 329.1378 1445.8265)" class="st1 st2 st3">9 x 20</text>
	<text transform="matrix(1 0 0 1 523.9008 1421.5181)" class="st1 st2 st4">2</text>
	<text transform="matrix(1 0 0 1 547.5635 1445.8265)" class="st1 st2 st3"> =   3600</text>
</g>
<g>
	<text transform="matrix(1 0 0 1 330.8777 1576.9265)" class="st1 st2 st3">6 x 20</text>
	<text transform="matrix(1 0 0 1 525.6401 1552.6177)" class="st1 st2 st4">1</text>
	<text transform="matrix(1 0 0 1 549.3035 1576.9265)" class="st1 st2 st3"> =     120</text>
</g>
<g>
	<text transform="matrix(1 0 0 1 333.9978 1702.3965)" class="st1 st2 st3">6 x 20</text>
	<text transform="matrix(1 0 0 1 528.7602 1678.0884)" class="st1 st2 st4">0</text>
	<text transform="matrix(1 0 0 1 552.4236 1702.3965)" class="st1 st2 st3"> =   </text>
	<text transform="matrix(1 0 0 1 697.0278 1702.3965)" class="st1 st2 st3"> </text>
	<text transform="matrix(1 0 0 1 765.9975 1702.3965)" class="st1 st2 st3">   6</text>
</g>
<g>
	<text transform="matrix(1 0 0 1 608.3278 1837.9565)" class="st1 st2 st3">1’388</text>
</g>
<g>
	<text transform="matrix(1 0 0 1 671.7878 1504.8965)" class="st1 st2 st3">+</text>
</g>
<ellipse class="st0" cx="125.7" cy="1297.8" rx="26.4" ry="26.8"/>
<ellipse class="st0" cx="70.5" cy="1297.4" rx="26.4" ry="26.8"/>
<g>
	<text transform="matrix(1 0 0 1 327.0978 1317.7765)" class="st1 st2 st3">2 x 20</text>
	<text transform="matrix(1 0 0 1 521.8598 1293.4673)" class="st1 st2 st4">3</text>
	<text transform="matrix(1 0 0 1 545.5236 1317.7765)" class="st1 st2 st3"> = 16000</text>
</g>
<g>
	<text transform="matrix(1 0 0 1 669.7477 1376.8466)" class="st1 st2 st3">+</text>
</g>
<g>
	<text transform="matrix(1 0 0 1 671.7878 1644.3665)" class="st1 st2 st3">+</text>
</g>
<line class="st0" x1="471.5" y1="1744.8" x2="871" y2="1744.8"/>
<line class="st0" x1="473.2" y1="1865.2" x2="872.6" y2="1865.2"/>
<line class="st0" x1="473.2" y1="1878.4" x2="872.6" y2="1878.4"/>
<ellipse class="st0" cx="68.7" cy="1376.8" rx="26.4" ry="26.8"/>
<ellipse class="st0" cx="121.4" cy="1376.8" rx="26.4" ry="26.8"/>
<ellipse class="st0" cx="175.2" cy="1375.8" rx="26.4" ry="26.8"/>
<ellipse class="st0" cx="228.6" cy="1375.8" rx="26.4" ry="26.8"/>
<polygon class="st5" points="784.7,1818.4 787.3,1818.4 787.3,1818.4 "/>
</svg>
