<?xml version="1.0" encoding="utf-8"?>
<!-- Generator: Adobe Illustrator 23.0.1, SVG Export Plug-In . SVG Version: 6.00 Build 0)  -->
<svg version="1.1" id="Calque_1" xmlns="http://www.w3.org/2000/svg" xmlns:xlink="http://www.w3.org/1999/xlink" x="0px" y="0px"
	 viewBox="0 0 120 50" style="enable-background:new 0 0 120 50;" xml:space="preserve">
<style type="text/css">
	.st0{fill:none;stroke:#000000;stroke-miterlimit:10;}
	.st1{fill:#FFFFFF;}
</style>
<g>
	<line class="st0" x1="5.5" y1="6.5" x2="114.5" y2="6.5"/>
</g>
<g>
	<path class="st1" d="M10.5,1.9C10.1,2.2,9,3.3,9.8,5c0.9,2,2.3,4.7,2.7,5.4l1.9-0.9L10.5,1.9z"/>
	<g>
		<g>
			<path d="M14.6,14c-0.2-0.1-0.3-0.1-0.3-0.2c-0.1-0.2-0.1-0.4,0-0.7c0.1-0.4,0.2-0.8-0.1-1.4l-0.7-1.3l-1.2,0.6l-0.1-0.2
				c0,0-1.7-3.3-2.8-5.6c-1.1-2.4,1.1-3.8,1.1-3.8l0.2-0.1L16.6,13l0,0.1c0,0-0.2,1.2-1.6,1C14.8,14.1,14.7,14,14.6,14z M10.5,1.9
				C10.1,2.2,9,3.3,9.8,5c0.9,2,2.3,4.7,2.7,5.4l1.9-0.9L10.5,1.9z"/>
		</g>
		<g>
			<path d="M13.5,9.9C12.9,9,12.4,8,11.9,7.1c-0.3-0.5-0.6-0.9-0.8-1.4c-0.2-0.5-0.4-1-0.5-1.6l0,0C11,4.5,11.3,5,11.6,5.4
				c0.3,0.5,0.5,1,0.7,1.5C12.7,7.9,13.1,8.9,13.5,9.9L13.5,9.9z"/>
		</g>
	</g>
</g>
<circle cx="11" cy="38" r="3"/>
<circle class="st0" cx="111" cy="16" r="3"/>
<circle class="st0" cx="67.5" cy="36.5" r="3"/>
<circle class="st0" cx="77.5" cy="22.5" r="3"/>
<circle class="st0" cx="46.5" cy="25.5" r="3"/>
<circle class="st0" cx="60.5" cy="17.5" r="3"/>
<circle class="st0" cx="31.5" cy="38.5" r="3"/>
<circle class="st0" cx="100.5" cy="33.5" r="3"/>
<circle class="st0" cx="85.5" cy="38.5" r="3"/>
<circle class="st0" cx="92.5" cy="19.5" r="3"/>
<circle class="st0" cx="6.5" cy="26.5" r="3"/>
</svg>
