<?xml version="1.0" encoding="utf-8"?>
<!-- Generator: Adobe Illustrator 23.0.1, SVG Export Plug-In . SVG Version: 6.00 Build 0)  -->
<svg version="1.1" id="Calque_1" xmlns="http://www.w3.org/2000/svg" xmlns:xlink="http://www.w3.org/1999/xlink" x="0px" y="0px"
	 viewBox="0 0 595.3 5429.2" style="enable-background:new 0 0 595.3 5429.2;" xml:space="preserve">
<style type="text/css">
	.st0{clip-path:url(#SVGID_2_);}
	.st1{fill:none;stroke:#000000;stroke-miterlimit:10;}
</style>
<title>1</title>
<g>
	<defs>
		<rect id="SVGID_1_" y="0" width="595.3" height="5429.2"/>
	</defs>
	<clipPath id="SVGID_2_">
		<use xlink:href="#SVGID_1_"  style="overflow:visible;"/>
	</clipPath>
	<g class="st0">
		<path class="st1" d="M-23.4-53.7C-87.9,169.9-158.4,499.9-126.8,853c25.4,285.4,93.5,321.9,119.8,619
			c36.8,416.2-79.1,543.2-87.8,1047.1c-8.5,488.8,98.7,495,98.8,990.9c0.3,512.5-113.8,642-125.2,1145.6
			c-8.6,380.8,47.7,714.1,110.8,969"/>
		<path class="st1" d="M-17.2-54.2C-81.4,169-151.7,498.5-120.2,851.4c25.3,285.9,93.2,322.3,119.4,619.8
			c36.6,416.7-79.1,543.3-87.7,1047.2c-8.4,488,98.4,494,98.7,989.3c0.4,512.4-113.3,642.5-124.7,1145.7
			c-8.6,380,47.3,714,110.9,971.1"/>
		<path class="st1" d="M-10.9-54.7c-64,222.9-134,551.8-102.7,904.5c25.1,286.3,92.9,322.9,119,620.6
			c36.5,417.2-79.1,543.5-87.5,1047.3c-8.3,487.2,98.1,493,98.6,987.6C17,4017.6-96.4,4148.1-107.9,4651
			c-8.6,379.1,47,713.8,111,973.3"/>
		<path class="st1" d="M-4.8-55.2c-63.7,222.5-133.4,550.9-102.3,903.4c25,286.8,92.7,323.4,118.6,621.4
			c36.3,417.7-79.1,543.7-87.4,1047.4c-8.2,486.3,97.8,492,98.4,986c0.8,512.3-112.4,643.2-123.8,1145.9
			c-8.6,378.3,46.6,713.7,111.1,975.4"/>
		<path class="st1" d="M1.5-55.7c-63.5,222.1-132.9,550-102,902.3c24.9,287.3,92.4,323.9,118.2,622.2
			c36.2,418.2-79.1,543.9-87.2,1047.5c-8,485.5,97.5,490.9,98.3,984.4c1,512.3-111.9,643.6-123.3,1146
			c-8.6,377.5,46.3,713.6,111.2,977.6"/>
		<path class="st1" d="M7.7-56.2C-55.5,165.5-124.6,493-93.9,844.9c24.7,287.8,92.1,324.4,117.8,623c36,418.7-79.1,544-87.1,1047.6
			c-7.9,484.7,97.2,489.9,98.1,982.8C36,4010.5-76.5,4142.3-88,4644.3C-96.6,5021-42.1,5357.8,23.2,5624"/>
		<path class="st1" d="M13.9-56.7c-62.9,221.4-131.7,548.3-101.2,900c24.6,288.3,91.8,324.9,117.4,623.8
			c35.8,419.2-79.1,544.2-87,1047.7c-7.8,483.8,97,488.9,98,981.1c1.3,512.2-110.9,644.5-122.4,1146.2
			C-90,5018-35.8,5355.4,29.9,5623.9"/>
		<path class="st1" d="M20.1-57.3c-62.7,221-131.2,547.4-100.9,898.9c24.5,288.7,91.5,325.4,116.9,624.6
			c35.7,419.7-79,544.4-86.8,1047.8c-7.7,483,96.7,487.9,97.9,979.5c1.5,512.1-110.4,644.9-122,1146.3
			c-8.6,375.1,45.2,713.2,111.4,984"/>
		<path class="st1" d="M26.3-57.8C-36.1,162.9-104.3,488.8-74.2,840c24.3,289.2,91.2,326,116.5,625.5
			c35.5,420.2-79,544.5-86.7,1047.9c-7.6,482.2,96.4,486.8,97.7,977.9c1.7,512.1-110,645.3-121.5,1146.4
			c-8.6,374.3,44.9,713.1,111.5,986.1"/>
		<path class="st1" d="M32.5-58.3C-29.6,162-97.6,487.4-67.7,838.4c24.2,289.7,90.9,326.4,116.1,626.3
			c35.3,420.7-79,544.7-86.6,1048c-7.5,481.4,96.1,485.8,97.6,976.2c1.9,512.1-109.5,645.7-121,1146.5
			c-8.6,373.5,44.5,713,111.6,988.2"/>
		<path class="st1" d="M38.7-58.8C-23.2,161.1-90.8,486-61.1,836.8c24,290.2,90.6,327,115.7,627.1c35.2,421.2-79,544.9-86.4,1048.1
			c-7.4,480.5,95.8,484.8,97.4,974.6c2,512-109,646.1-120.6,1146.6c-8.6,372.7,44.2,712.9,111.7,990.4"/>
		<path class="st1" d="M44.9-59.3C-16.7,160.2-84,484.6-54.5,835.1c23.9,290.6,90.3,327.5,115.3,627.9
			c35,421.7-79,545.1-86.3,1048.2c-7.2,479.7,95.5,483.8,97.3,973c2.2,512-108.5,646.5-120.1,1146.7
			c-8.6,371.9,43.8,712.7,111.8,992.5"/>
		<path class="st1" d="M51.1-59.8C-10.2,159.3-77.3,483.3-48,833.5c23.8,291.1,90,328,114.9,628.7c34.9,422.3-79,545.2-86.1,1048.3
			c-7.1,478.9,95.2,482.8,97.2,971.4c2.4,511.9-108,646.9-119.7,1146.8c-8.6,371.1,43.5,712.6,111.9,994.7"/>
		<path class="st1" d="M57.3-60.3c-61,218.8-127.8,542.2-98.7,892.2c23.6,291.6,89.7,328.5,114.5,629.5
			c34.7,422.8-79,545.4-86,1048.4c-7,478,94.9,481.7,97,969.7c2.6,511.9-107.6,647.3-119.2,1146.9c-8.5,370.3,43.1,712.5,112,996.8"
			/>
		<path class="st1" d="M63.5-60.8C2.7,157.6-63.8,480.5-34.8,830.2c23.5,292.1,89.4,329,114.1,630.3
			c34.5,423.3-79,545.6-85.9,1048.5c-6.9,477.2,94.7,480.7,96.9,968.1c2.8,511.8-107.1,647.7-118.8,1147
			c-8.5,369.5,42.8,712.4,112.1,998.9"/>
		<path class="st1" d="M69.7-61.3C9.2,156.7-57,479.1-28.3,828.6c23.4,292.6,89.1,329.5,113.7,631.1
			c34.4,423.8-79,545.7-85.7,1048.6C-7.1,2984.7,94,2988,96.4,3474.8c3,511.8-106.6,648.1-118.3,1147.1
			c-8.6,368.6,42.4,712.2,112.2,1001.1"/>
		<path class="st1" d="M75.9-61.8C15.7,155.8-50.2,477.7-21.7,827c23.2,293,88.8,330,113.2,632c34.2,424.3-79,545.9-85.6,1048.7
			c-6.7,475.5,94,478.6,96.6,964.8C105.7,3984.2-3.5,4121-15.2,4619.7c-8.6,367.8,42.1,712.1,112.2,1003.2"/>
		<path class="st1" d="M82.1-62.3C22.2,155-43.5,476.4-15.1,825.4C8,1118.9,73.4,1155.9,97.7,1458.1
			c34,424.8-78.9,546.1-85.5,1048.8c-6.6,474.7,93.8,477.6,96.5,963.2C112.1,3981.8,3.1,4119-8.6,4617.5
			c-8.6,367,41.7,712,112.3,1005.3"/>
		<path class="st1" d="M88.3-62.9C28.6,154.1-36.7,475-8.5,823.7c22.9,294,88.3,331,112.4,633.6c33.9,425.3-78.9,546.2-85.3,1048.9
			c-6.4,473.9,93.5,476.6,96.4,961.6C118.4,3979.4,9.8,4117.1-2,4615.2c-8.6,366.2,41.4,711.9,112.4,1007.5"/>
		<path class="st1" d="M94.5-63.4C35.1,153.2-29.9,473.6-2,822.1c22.8,294.5,88,331.5,112,634.4c33.7,425.8-78.9,546.4-85.2,1049
			c-6.3,473,93.2,475.6,96.2,960C124.8,3977.1,16.4,4115.2,4.6,4613c-8.6,365.4,41,711.8,112.5,1009.6"/>
		<path class="st1" d="M100.7-63.9C41.6,152.3-23.2,472.2,4.6,820.5c22.7,294.9,87.7,332.1,111.6,635.2
			c33.6,426.3-78.9,546.6-85,1049.1c-6.2,472.2,92.9,474.6,96,958.3c3.8,511.5-104.2,650.1-116,1147.6
			c-8.6,364.6,40.7,711.6,112.6,1011.8"/>
		<path class="st1" d="M107-64.4C48.1,151.4-16.4,470.8,11.2,818.8c22.5,295.4,87.4,332.6,111.2,636
			c33.4,426.8-78.9,546.8-84.9,1049.2c-6.1,471.4,92.6,473.5,96,956.7c4,511.5-103.7,650.5-115.6,1147.7
			C9.3,4972.3,58.2,5320,130.5,5622.4"/>
		<path class="st1" d="M113.2-64.9C54.5,150.6-9.6,469.4,17.8,817.2c22.4,295.9,87.1,333.1,110.8,636.8
			c33.2,427.3-78.9,546.9-84.8,1049.3c-6,470.5,92.4,472.5,95.8,955.1c4.2,511.4-103.3,650.9-115.1,1147.8
			c-8.6,363,40,711.4,112.8,1016"/>
		<path class="st1" d="M119.4-65.4C61,149.7-2.9,468.1,24.3,815.6c22.3,296.4,86.8,333.6,110.4,637.7
			c33.1,427.8-78.9,547.1-84.6,1049.4c-5.9,469.7,92.1,471.5,95.7,953.4C150.1,3967.5,43,4107.4,31.1,4604
			c-8.6,362.2,39.6,711.3,112.9,1018.2"/>
		<path class="st1" d="M125.6-65.9C67.5,148.8,3.9,466.7,30.9,814c22.1,296.9,86.5,334.1,110,638.5
			C173.8,1880.8,62,1999.7,56.3,2502c-5.8,468.9,91.8,470.5,95.5,951.8c4.6,511.4-102.3,651.7-114.2,1148
			c-8.6,361.4,39.3,711.1,113,1020.3"/>
		<path class="st1" d="M131.8-66.4C74,147.9,10.7,465.3,37.5,812.3c22,297.3,86.2,334.6,109.6,639.3
			c32.7,428.9-78.9,547.4-84.4,1049.6c-5.6,468,91.5,469.4,95.4,950.2c4.7,511.3-101.8,652.1-113.8,1148.1
			c-8.6,360.6,38.9,711,113.1,1022.4"/>
		<path class="st1" d="M138-66.9C80.4,147,17.4,463.9,44,810.7c21.8,297.8,85.9,335.1,109.1,640.1
			c32.6,429.4-78.9,547.6-84.2,1049.7c-5.5,467.2,91.2,468.4,95.3,948.6c4.9,511.3-101.3,652.5-113.3,1148.2
			c-8.6,359.8,38.5,710.9,113.2,1024.6"/>
		<path class="st1" d="M144.2-67.4c-57.3,213.6-120,530-93.6,876.5c21.7,298.3,85.6,335.6,108.7,640.9
			c32.4,429.9-78.8,547.8-84.1,1049.8c-5.4,466.4,90.9,467.4,95.1,946.9c5.1,511.3-100.9,652.9-112.8,1148.3
			C49,4954,95.7,5305.8,170.8,5621.8"/>
		<path class="st1" d="M150.4-67.9C93.4,145.3,31,461.1,57.2,807.4c21.6,298.8,85.3,336.2,108.3,641.7
			c32.2,430.4-78.8,547.9-84,1049.9c-5.3,465.5,90.6,466.4,95,945.3c5.3,511.2-100.4,653.3-112.4,1148.4
			C55.6,4951,102,5303.5,177.5,5621.7"/>
		<path class="st1" d="M156.6-68.5C99.9,144.4,37.7,459.8,63.7,805.8c21.4,299.2,85,336.7,107.9,642.5
			c32.1,430.9-78.8,548.1-83.8,1050c-5.2,464.7,90.3,465.3,94.9,943.7c5.4,511.1-99.9,653.7-111.9,1148.5
			c-8.6,357.3,37.5,710.5,113.4,1031"/>
		<path class="st1" d="M162.8-69C106.3,143.5,44.5,458.4,70.3,804.2c21.3,299.7,84.8,337.2,107.5,643.4
			C209.7,1879,99,1995.8,94.1,2497.7c-5.1,463.9,90,464.3,94.7,942c5.6,511.1-99.4,654.1-111.5,1148.6
			c-8.6,356.5,37.2,710.4,113.5,1033.1"/>
		<path class="st1" d="M169-69.5C112.8,142.6,51.2,457,76.9,802.6c21.1,300.2,84.5,337.7,107.1,644.2
			c31.8,431.9-78.8,548.4-83.5,1050.2c-5,463.1,89.8,463.3,94.6,940.4c5.8,511-99,654.5-111,1148.7
			c-8.6,355.7,36.8,710.3,113.6,1035.3"/>
		<path class="st1" d="M175.2-70C119.3,141.8,58,455.6,83.4,800.9c21,300.7,84.2,338.2,106.7,645c31.6,432.4-78.8,548.6-83.4,1050.3
			c-4.8,462.2,89.5,462.3,94.4,938.8c6,511-98.5,654.9-110.6,1148.8c-8.6,354.9,36.4,710.1,113.7,1037.4"/>
		<path class="st1" d="M181.4-70.5C125.8,140.9,64.8,454.2,90,799.3c20.9,301.1,83.9,338.7,106.3,645.8
			c31.5,432.9-78.8,548.8-83.3,1050.4c-4.7,461.4,89.2,461.2,94.3,937.2c6.2,510.9-98,655.3-110.1,1148.9
			c-8.6,354.1,36.1,710,113.8,1039.5"/>
		<path class="st1" d="M187.6-71c-55.4,211-116.1,523.8-91,868.7c20.8,301.6,83.6,339.2,105.8,646.6
			c31.3,433.4-78.8,549-83.1,1050.5c-4.6,460.5,88.9,460.2,94.2,935.5c6.3,510.9-97.5,655.7-109.6,1149
			c-8.6,353.3,35.8,709.9,113.9,1041.7"/>
		<path class="st1" d="M193.8-71.5c-55.1,210.6-115.5,523-90.7,867.5c20.6,302.1,83.3,339.8,105.4,647.4
			c31.1,433.9-78.8,549.1-83,1050.6c-4.5,459.7,88.6,459.2,94,933.9c6.5,510.9-97,656.1-109.2,1149.1
			c-8.6,352.5,35.4,709.8,114,1043.8"/>
		<path class="st1" d="M200-72c-54.8,210.3-115,522.1-90.3,866.4c20.5,302.6,83,340.2,105,648.2c31,434.5-78.8,549.3-82.9,1050.7
			c-4.4,458.9,88.3,458.2,93.9,932.3c6.7,510.8-96.6,656.5-108.7,1149.2c-8.6,351.7,35,709.6,114.1,1045.9"/>
		<path class="st1" d="M206.2-72.5c-54.6,209.9-114.4,521.2-89.9,865.3c20.3,303,82.7,340.8,104.6,649.1
			c30.8,435-78.8,549.5-82.7,1050.8c-4.3,458,88,457.2,93.8,930.6c6.9,510.8-96.1,656.9-108.3,1149.3
			c-8.6,350.9,34.7,709.5,114.2,1048.1"/>
		<path class="st1" d="M212.4-73c-54.3,209.5-113.8,520.3-89.6,864.2c20.2,303.5,82.4,341.3,104.2,649.9
			c30.6,435.5-78.7,549.7-82.6,1050.9c-4.1,457.2,87.8,456.1,93.6,929c7.1,510.7-95.6,657.3-107.8,1149.4
			c-8.6,350,34.3,709.4,114.2,1050.2"/>
		<path class="st1" d="M218.6-73.5c-54,209.1-112.6,519.4-89.2,863.1c20.7,304,82.1,341.8,103.8,650.7
			c30.5,436-78.7,549.8-82.4,1051c-4,456.4,87.5,455.1,93.5,927.4c7.2,510.7-95.1,657.7-107.4,1149.5
			c-8.6,349.2,34,709.3,114.3,1052.4"/>
		<path class="st1" d="M224.8-74c-53.8,208.8-112,518.5-88.8,862c20.6,304.4,81.8,342.3,103.4,651.5
			c30.3,436.5-78.7,550-82.3,1051.1c-3.9,455.6,87.2,454.1,93.4,925.8c7.4,510.6-94.6,658.1-106.9,1149.6
			c-8.5,348.3,33.6,709.1,114.5,1054.4"/>
		<path class="st1" d="M231.1-74.6c-53.5,208.4-111.5,517.7-88.5,860.8c20.4,304.9,81.5,342.8,103,652.3
			c30.2,437-78.7,550.2-82.2,1051.2c-3.8,454.7,86.9,453.1,93.2,924.1c7.6,510.6-94.2,658.6-106.4,1149.8
			c-8.6,347.6,33.3,709,114.5,1056.6"/>
		<path class="st1" d="M237.3-75.1C184,133,126.4,441.7,149.1,784.7c20.3,305.4,81.2,343.3,102.6,653.1
			c30,437.5-78.7,550.3-82,1051.3c-3.7,453.9,86.6,452,93.1,922.5c7.8,510.5-93.7,658.9-106,1149.9
			c-8.6,346.8,32.9,708.9,114.6,1058.8"/>
		<path class="st1" d="M243.5-75.6c-53,207.7-110.3,515.9-87.7,858.6c20.2,305.9,80.9,343.8,102.2,653.9
			c29.8,438-78.7,550.5-81.9,1051.5c-3.6,453.1,86.3,451,92.9,920.9c8,510.5-93.2,659.4-105.5,1150
			c-8.6,346,32.6,708.8,114.7,1060.9"/>
		<path class="st1" d="M249.7-76.1C197,131.2,139.9,439,162.3,781.4c20,306.4,80.7,344.3,101.7,654.8
			c29.7,438.5-78.7,550.7-81.8,1051.5c-3.5,452.2,86,450,92.8,919.2c8.1,510.4-92.7,659.8-105.1,1150
			c-8.6,345.2,32.2,708.7,114.8,1063"/>
		<path class="st1" d="M255.9-76.6c-52.4,206.9-109.2,514.2-87,856.4c19.9,306.8,80.4,344.9,101.3,655.6
			c29.5,439-78.7,550.8-81.6,1051.6c-3.4,451.4,85.7,449,92.7,917.6c8.3,510.4-92.2,660.2-104.6,1150.2
			c-8.6,344.4,31.9,708.5,114.9,1065.2"/>
		<path class="st1" d="M262.1-77.1c-52.1,206.6-108.6,513.3-86.6,855.2c19.8,307.3,80.1,345.4,100.9,656.4
			c29.3,439.5-78.7,551-81.5,1051.8c-3.2,450.6,85.5,447.9,92.5,916c8.5,510.3-91.8,660.6-104.2,1150.3
			c-8.6,343.6,31.5,708.4,115,1067.3"/>
		<path class="st1" d="M268.3-77.6C216.4,128.6,160.2,434.8,182,776.5c19.6,307.8,79.8,345.9,100.5,657.2
			c29.2,440-78.7,551.2-81.4,1051.8c-3.1,449.7,85.2,446.9,92.4,914.4c8.7,510.3-91.3,661-103.7,1150.4
			c-8.6,342.8,31.2,708.3,115.1,1069.4"/>
		<path class="st1" d="M274.5-78.1c-51.6,205.8-107.5,511.6-85.9,853c19.5,308.3,79.5,346.4,100.1,658
			c29,440.6-78.6,551.3-81.2,1051.9c-3,448.9,84.9,445.9,92.3,912.7c8.8,510.2-90.8,661.4-103.2,1150.5
			c-8.6,342,30.8,708.2,115.2,1071.6"/>
		<path class="st1" d="M280.7-78.6c-51.3,205.4-106.9,510.7-85.6,851.9c19.4,308.7,79.2,346.9,99.7,658.8
			c28.9,441.1-78.6,551.5-81.1,1052.1c-2.9,448.1,84.6,444.9,92.1,911.1c9,510.2-90.3,661.8-102.8,1150.6
			c-8.6,341.2,30.5,708,115.3,1073.7"/>
		<path class="st1" d="M286.9-79.1c-51.1,205.1-106.4,509.8-85.2,850.8c19.2,309.2,78.9,347.4,99.3,659.6
			c28.7,441.6-78.6,551.7-80.9,1052.2c-2.8,447.2,84.3,443.9,92,909.5c9.2,510.2-89.9,662.2-102.3,1150.7
			c-8.6,340.3,30.1,707.9,115.3,1075.9"/>
		<path class="st1" d="M293.1-79.6C242.3,125.1,187.3,429.3,208.3,770c19.1,309.7,78.6,347.9,98.9,660.5
			c28.5,442.1-78.6,551.8-80.8,1052.3c-2.7,446.4,84,442.8,91.8,907.8c9.4,510.1-89.4,662.6-101.9,1150.8
			c-8.6,339.5,29.8,707.8,115.4,1078"/>
		<path class="st1" d="M299.3-80.2C248.8,124.2,194,427.9,214.9,768.4c19,310.2,78.3,348.4,98.5,661.3
			c28.4,442.6-78.6,552-80.7,1052.4c-2.6,445.6,83.7,441.8,91.7,906.2c9.5,510.1-88.9,663-101.4,1150.9
			c-8.6,338.7,29.4,707.7,115.5,1080.1"/>
		<path class="st1" d="M305.5-80.7c-50.2,204-104.7,507.2-84.1,847.4c18.8,310.7,78,349,98.1,662.1
			c28.2,443.1-78.6,552.2-80.5,1052.5c-2.4,444.7,83.4,440.8,91.6,904.6c9.7,510-88.4,663.4-101,1151
			c-8.6,337.9,29.1,707.5,115.6,1082.3"/>
		<path class="st1" d="M311.7-81.2c-50,203.6-104.1,506.3-83.7,846.3c18.7,311.1,77.7,349.5,97.6,662.9
			c28,443.6-78.6,552.4-80.4,1052.6c-2.3,443.9,83.2,439.8,91.4,903c9.9,510-87.9,663.8-100.5,1151.1
			c-8.6,337.1,28.7,707.4,115.7,1084.4"/>
		<path class="st1" d="M317.9-81.7c-49.7,203.2-103.6,505.5-83.4,845.2c18.6,311.6,77.4,350,97.2,663.7
			c27.9,444.1-78.6,552.5-80.2,1052.7c-2.2,443.1,82.9,438.7,91.3,901.3c10.1,509.9-87.5,664.2-100,1151.2
			c-8.6,336.3,28.4,707.3,115.8,1086.6"/>
		<path class="st1" d="M324.1-82.2c-49.4,202.9-103,504.6-83,844c18.4,312.1,77.1,350.5,96.8,664.5
			c27.7,444.6-78.6,552.7-80.1,1052.8c-2.1,442.2,82.6,437.7,91.2,899.7c10.3,509.9-87,664.6-99.6,1151.3
			c-8.6,335.5,28,707.2,115.9,1088.7"/>
		<path class="st1" d="M330.3-82.7C281.2,119.8,227.9,421,247.7,760.2c18.3,312.6,76.9,351,96.4,665.3
			c27.6,445.1-78.5,552.9-80,1052.9c-2,441.4,82.3,436.7,91,898.1c10.5,509.8-86.5,665-99.1,1151.4
			c-8.6,334.7,27.7,707.1,116,1090.8"/>
		<path class="st1" d="M336.5-83.2c-48.9,202.1-101.9,502.8-82.3,841.8c18.1,313,76.6,351.5,96,666.2c27.4,445.6-78.5,553-79.8,1053
			c-1.9,440.6,82,435.7,90.9,896.4c10.6,509.8-86,665.4-98.7,1151.5c-8.6,333.9,27.3,706.9,116.1,1093"/>
		<path class="st1" d="M342.7-83.7C294.1,118,241.4,418.2,260.8,757c18,313.5,76.3,352,95.6,667c27.2,446.1-78.5,553.2-79.7,1053.1
			c-1.8,439.8,81.7,434.6,90.8,894.8c10.8,509.8-85.6,665.8-98.2,1151.6c-8.6,333.1,27,706.8,116.2,1095.1"/>
		<path class="st1" d="M349-84.2c-48.4,201.4-100.8,501.1-81.5,839.6c17.9,314,76,352.5,95.2,667.8
			c27.1,446.7-78.5,553.4-79.6,1053.2c-1.6,438.9,81.4,433.6,90.6,893.2c11,509.7-85.1,666.2-97.8,1151.7
			c-8.5,332.3,26.6,706.7,116.3,1097.2"/>
		<path class="st1" d="M355.1-84.7c-48.1,201-100.2,500.2-81.2,838.5c17.7,314.5,75.7,353,94.8,668.6
			c26.9,447.2-78.5,553.6-79.4,1053.3c-1.5,438.1,81.1,432.6,90.5,891.6c11.2,509.6-84.6,666.6-97.3,1151.8
			c-8.6,331.5,26.3,706.6,116.4,1099.4"/>
		<path class="st1" d="M361.4-85.2c-47.8,200.6-99.7,499.3-80.8,837.3c17.6,314.9,75.4,353.6,94.4,669.4
			c26.7,447.7-78.5,553.7-79.3,1053.4c-1.4,437.2,80.9,431.6,90.3,889.9c11.3,509.6-84.1,667-96.9,1151.9
			c-8.6,330.6,25.9,706.5,116.4,1101.5"/>
		<path class="st1" d="M367.6-85.8c-47.6,200.3-99.1,498.5-80.4,836.2c17.5,315.4,75.1,354.1,94,670.2
			c26.6,448.2-78.5,553.9-79.2,1053.5c-1.3,436.4,80.6,430.5,90.2,888.3c11.5,509.6-83.6,667.4-96.4,1152
			c-8.5,329.8,25.6,706.3,116.5,1103.6"/>
		<path class="st1" d="M373.8-86.3c-47.3,199.9-98.6,497.6-80.1,835.1c17.3,315.9,74.8,354.6,93.5,671
			c26.4,448.7-78.5,554.1-79,1053.6c-1.2,435.6,80.3,429.5,90,886.7c11.7,509.5-83.2,667.8-95.9,1152.1
			c-8.6,329,25.2,706.2,116.6,1105.8"/>
		<path class="st1" d="M380-86.8c-47,199.5-98,496.7-79.7,834c17.2,316.4,74.5,355.1,93.1,671.8c26.3,449.2-78.5,554.2-78.9,1053.7
			c-1.1,434.8,80,428.5,89.9,885.1C416.3,3867.3,321.8,4026,309,4510c-8.5,328.2,24.9,706.1,116.7,1107.9"/>
		<path class="st1" d="M386.2-87.3c-46.7,199.1-97.5,495.8-79.3,832.8c17,316.9,74.2,355.6,92.7,672.7
			c26.1,449.8-78.5,554.4-78.8,1053.8c-1,433.9,79.7,427.5,89.8,883.4c12.1,509.4-82.2,668.6-95,1152.3
			c-8.6,327.4,24.5,706,116.8,1110.1"/>
		<path class="st1" d="M392.4-87.8c-46.5,198.8-96.9,495-79,831.7c16.9,317.3,73.9,356.1,92.3,673.5
			c25.9,450.2-78.5,554.6-78.6,1053.9c-0.8,433.1,79.4,426.4,89.7,881.8c12.2,509.4-81.7,669-94.6,1152.4
			c-8.6,326.6,24.1,705.8,116.9,1112.2"/>
		<path class="st1" d="M398.6-88.3c-46.2,198.4-96.4,494.1-78.6,830.6c16.8,317.8,73.6,356.6,91.9,674.3
			c25.8,450.7-78.5,554.7-78.5,1054c-0.7,432.3,79.1,425.4,89.5,880.2c12.4,509.3-81.2,669.4-94.1,1152.5
			c-8.5,325.8,23.8,705.7,117,1114.3"/>
		<path class="st1" d="M404.8-88.8c-45.9,198-95.8,493.2-78.2,829.5c16.6,318.3,73.3,357.1,91.5,675.1
			c25.6,451.2-78.4,554.9-78.3,1054.1c-0.6,431.4,78.8,424.4,89.4,878.6c12.6,509.3-80.8,669.8-93.7,1152.6
			c-8.6,325,23.4,705.6,117.1,1116.5"/>
		<path class="st1" d="M411-89.3c-45.7,197.7-95.2,492.3-77.9,828.4c16.5,318.8,73,357.6,91.1,675.9
			c25.4,451.7-78.4,555.1-78.2,1054.2c-0.5,430.6,78.6,423.4,89.2,876.9c12.8,509.2-80.3,670.2-93.2,1152.7
			c-8.5,324.2,23.1,705.5,117.2,1118.6"/>
		<path class="st1" d="M417.2-89.8c-45.4,197.3-94.7,491.5-77.5,827.3c16.3,319.2,72.8,358.2,90.7,676.7
			c25.3,452.2-78.4,555.2-78.1,1054.3c-0.4,429.8,78.3,422.4,89.1,875.3c13,509.2-79.8,670.6-92.8,1152.8
			c-8.6,323.4,22.7,705.3,117.3,1120.7"/>
		<path class="st1" d="M423.4-90.3c-45.1,196.9-94.1,490.6-77.1,826.1c16.2,319.7,72.5,358.7,90.2,677.5
			c25.1,452.8-78.4,555.4-77.9,1054.4c-0.3,428.9,78,421.3,89,873.7c13.1,509.1-79.3,671-92.3,1152.9
			c-8.5,322.6,22.4,705.2,117.4,1122.9"/>
		<path class="st1" d="M429.6-90.8c-44.9,196.6-94.3,489.8-76.8,825c15.4,320.2,72.2,359.2,89.8,678.4
			c25,453.3-78.4,555.6-77.8,1054.5c-0.1,428.1,77.7,420.3,88.8,872c13.3,509.1-78.9,671.4-91.9,1153
			c-8.5,321.8,22,705.1,117.4,1125"/>
		<path class="st1" d="M435.8-91.3c-44.6,196.2-93.7,488.9-76.4,823.9c15.3,320.7,71.9,359.7,89.4,679.2
			c24.8,453.8-78.4,555.8-77.6,1054.6c0,427.3,77.4,419.3,88.7,870.4c13.5,509.1-78.4,671.8-91.4,1153.1
			c-8.6,321,21.7,705,117.5,1127.2"/>
		<path class="st1" d="M442-91.9c-44.3,195.9-93.1,488-76,822.8c15.1,321.2,71.6,360.2,89,680c24.6,454.3-78.4,555.9-77.5,1054.7
			c0.1,426.4,77.1,418.3,88.6,868.8c13.7,509-77.9,672.2-90.9,1153.2c-8.5,320.1,21.3,704.9,117.6,1129.3"/>
		<path class="st1" d="M448.2-92.4c-44,195.4-92.6,487.1-75.7,821.7c15,321.7,71.3,360.7,88.6,680.8
			c24.5,454.8-78.4,556.1-77.4,1054.8c0.2,425.6,76.8,417.2,88.4,867.1c13.9,509-77.4,672.6-90.5,1153.3
			c-8.5,319.3,21,704.7,117.7,1131.4"/>
		<path class="st1" d="M454.4-92.9c-43.8,195.1-92,486.3-75.3,820.5c14.9,322.1,71,361.2,88.2,681.6
			c24.3,455.3-78.4,556.3-77.2,1054.9c0.3,424.8,76.5,416.2,88.3,865.5c14,508.9-76.9,673-90,1153.4
			c-8.5,318.5,20.6,704.6,117.8,1133.6"/>
		<path class="st1" d="M460.6-93.4c-43.5,194.7-91.5,485.4-75,819.4c14.7,322.6,70.7,361.7,87.8,682.4
			c24.1,455.8-78.3,556.4-77.1,1055c0.4,423.9,76.3,415.2,88.1,863.9c14.2,508.9-76.5,673.4-89.6,1153.5
			c-8.5,317.7,20.3,704.5,117.9,1135.7"/>
		<path class="st1" d="M466.9-93.9c-43.2,194.3-90.9,484.5-74.6,818.3c14.6,323.1,70.4,362.3,87.4,683.2
			c24,456.3-78.3,556.6-77,1055.1c0.5,423.1,76,414.2,88,862.3c14.4,508.8-76,673.8-89.1,1153.6c-8.6,316.9,19.9,704.4,118,1137.8"
			/>
		<path class="st1" d="M473-94.4c-43,194-90.3,483.6-74.2,817.2c14.5,323.6,70.1,362.8,87,684.1c23.8,456.8-78.3,556.8-76.8,1055.2
			c0.6,422.3,75.7,413.1,87.9,860.6c14.6,508.8-75.5,674.2-88.6,1153.7c-8.5,316.1,19.6,704.2,118.1,1140"/>
		<path class="st1" d="M479.3-94.9c-42.7,193.6-89.8,482.8-73.9,816c14.3,324.1,69.8,363.3,86.5,684.9
			c23.7,457.3-78.3,557-76.7,1055.3c0.8,421.4,75.4,412.1,87.7,859c14.7,508.7-75,674.6-88.2,1153.8
			c-8.5,315.3,19.2,704.1,118.2,1142.1"/>
		<path class="st1" d="M485.5-95.4C443,97.8,396.2,386.5,412,719.5c14.2,324.5,69.5,363.8,86.1,685.7
			c23.5,457.8-78.3,557.1-76.6,1055.4c0.9,420.6,75.1,411.1,87.6,857.4c14.9,508.7-74.5,675-87.7,1153.9
			c-8.5,314.5,18.9,704,118.3,1144.2"/>
		<path class="st1" d="M491.7-95.9c-42.2,192.9-88.7,481-73.1,813.8c14,325,69.2,364.3,85.7,686.5
			c23.3,458.3-78.3,557.3-76.4,1055.5c1,419.8,74.8,410.1,87.5,855.8c15.1,508.6-74.1,675.4-87.3,1154
			c-8.5,313.7,18.5,703.9,118.4,1146.4"/>
		<path class="st1" d="M497.9-96.4C456,96,409.8,383.7,425.1,716.3c13.9,325.5,69,364.8,85.3,687.3
			c23.2,458.9-78.3,557.5-76.3,1055.6c1.1,418.9,74.5,409,87.3,854.1c15.3,508.6-73.6,675.9-86.8,1154.1
			c-8.5,312.9,18.2,703.7,118.5,1148.5"/>
		<path class="st1" d="M504.1-96.9c-41.6,192.1-87.6,479.3-72.4,811.6c13.8,326,68.7,365.3,84.9,688.1
			c23,459.4-78.3,557.6-76.1,1055.7c1.2,418.1,74.2,408,87.2,852.5c15.5,508.5-73.1,676.2-86.4,1154.2
			c-8.5,312.1,17.8,703.6,118.5,1150.7"/>
		<path class="st1" d="M510.3-97.5c-41.3,191.7-87,478.4-72,810.5c13.6,326.4,68.4,365.8,84.5,689c22.8,459.9-78.3,557.8-76,1055.8
			c1.3,417.3,74,407,87,850.9c15.6,508.5-72.6,676.6-85.9,1154.3c-8.5,311.2,17.5,703.5,118.6,1152.8"/>
		<path class="st1" d="M516.5-98c-41.1,191.4-86.4,477.5-71.7,809.3c13.5,326.9,68.1,366.3,84.1,689.8
			c22.7,460.4-78.3,558-75.9,1055.9c1.5,416.5,73.7,406,86.9,849.2c15.8,508.4-72.1,677.1-85.5,1154.4
			c-8.5,310.4,17.1,703.4,118.7,1154.9"/>
		<path class="st1" d="M522.7-98.5c-40.8,191-85.9,476.7-71.3,808.2c13.4,327.4,67.8,366.9,83.7,690.6
			c22.5,460.9-78.2,558.1-75.7,1056c1.6,415.7,73.4,405,86.8,847.7c16,508.4-71.7,677.5-85,1154.5
			c-8.5,309.6,16.8,703.2,118.8,1157.1"/>
		<path class="st1" d="M528.9-99C488.4,91.6,443.6,376.8,458,708.1c13.2,327.9,67.5,367.4,83.3,691.4
			c22.4,461.4-78.2,558.3-75.6,1056.1c1.7,414.8,73.1,403.9,86.7,846c16.2,508.4-71.2,677.9-84.5,1154.6
			c-8.5,308.8,16.4,703.1,118.9,1159.2"/>
		<path class="st1" d="M535.1-99.5c-40.3,190.2-84.8,474.9-70.6,806c13.1,328.3,67.2,367.9,82.9,692.2
			c22.2,461.9-78.2,558.5-75.5,1056.2c1.8,413.9,72.8,402.9,86.5,844.3c16.4,508.3-70.7,678.2-84.1,1154.7
			c-8.5,308,16.1,703,119,1161.4"/>
		<path class="st1" d="M541.3-100c-40,189.9-84.2,474-70.2,804.9c13,328.8,66.9,368.4,82.4,693c22,462.4-78.2,558.6-75.3,1056.3
			c1.9,413.1,72.5,401.9,86.4,842.7c16.5,508.3-70.2,678.7-83.6,1154.8c-8.5,307.3,15.7,702.9,119.1,1163.5"/>
		<path class="st1" d="M547.5-100.5C507.8,89,463.9,372.7,477.7,703.2c12.8,329.3,66.6,368.9,82,693.8
			c21.9,462.9-78.2,558.8-75.2,1056.4c2,412.3,72.2,400.9,86.2,841.1c16.7,508.2-69.8,679.1-83.2,1154.9
			c-8.5,306.4,15.4,702.8,119.2,1165.6"/>
		<path class="st1" d="M553.7-101c-39.5,189.1-83.1,472.3-69.5,802.6c12.7,329.8,66.3,369.4,81.6,694.7
			c21.7,463.4-78.2,559-75.1,1056.5c2.1,411.5,72,399.8,86.1,839.5c16.9,508.2-69.3,679.5-82.7,1155
			c-8.5,305.6,15,702.6,119.3,1167.8"/>
		<path class="st1" d="M559.9-101.5C520.7,87.3,477.4,369.9,490.8,700c12.5,330.3,66,369.9,81.2,695.5
			c21.6,463.9-78.2,559.2-74.9,1056.6c2.2,410.6,71.7,398.8,86,837.8c17.1,508.1-68.8,679.9-82.3,1155.1
			c-8.5,304.8,14.7,702.5,119.4,1169.9"/>
		<path class="st1" d="M566.1-102c-38.9,188.4-82,470.5-68.8,800.4c12.4,330.7,65.8,370.4,80.8,696.3
			c21.4,464.4-78.2,559.3-74.8,1056.7c2.4,409.8,71.4,397.8,85.8,836.2c17.2,508.1-68.3,680.3-81.8,1155.2
			c-8.5,304,14.3,702.4,119.5,1172"/>
		<path class="st1" d="M572.3-102.5c-38.6,188-81.4,469.7-68.4,799.3c12.3,331.2,65.5,371,80.4,697.1
			c21.2,465-78.2,559.5-74.6,1056.8c2.5,409,71.1,396.8,85.7,834.6c17.4,508-67.8,680.7-81.4,1155.4
			c-8.5,303.2,14,702.2,119.5,1174.2"/>
		<path class="st1" d="M578.5-103c-38.4,187.7-80.8,468.8-68,798.2c12.1,331.7,65.2,371.5,80,697.9c21,465.4-78.2,559.6-74.5,1056.9
			c2.6,408.1,70.8,395.7,85.5,833c17.6,508-67.4,681.1-80.9,1155.5c-8.5,302.4,13.6,702.1,119.6,1176.3"/>
		<path class="st1" d="M584.7-103.6c-38.1,187.3-80.3,467.9-67.7,797c12,332.2,64.9,372,79.6,698.7c20.9,466-78.1,559.8-74.4,1057
			c2.7,407.3,70.5,394.7,85.4,831.3c17.8,508-66.9,681.5-80.4,1155.5c-8.5,301.5,13.2,702,119.7,1178.4"/>
		<path class="st1" d="M591-104.1c-37.8,186.9-79.7,467-67.3,795.9c11.8,332.6,64.6,372.5,79.2,699.5
			c20.7,466.5-78.1,560-74.2,1057.1c2.8,406.5,70.2,393.7,85.3,829.7c18,507.9-66.4,681.9-80,1155.7
			c-8.5,300.7,12.9,701.9,119.8,1180.6"/>
		<path class="st1" d="M597.2-104.6C559.6,82,518,361.6,530.2,690.2c11.7,333.1,64.3,373,78.8,700.3
			c20.6,467-78.1,560.2-74.1,1057.2c3,405.6,70,392.7,85.1,828.1c18.1,507.9-65.9,682.3-79.5,1155.7
			c-8.5,299.9,12.5,701.8,119.9,1182.7"/>
		<path class="st1" d="M603.4-105.1c-37.3,186.2-78.6,465.3-66.6,793.7c11.6,333.6,64,373.5,78.3,701.2
			c20.4,467.5-78.1,560.3-74,1057.4c3.1,404.8,69.7,391.6,85,826.4c18.3,507.8-65.5,682.7-79.1,1155.9
			c-8.5,299.1,12.2,701.6,120,1184.9"/>
		<path class="st1" d="M609.6-105.6c-37,185.8-78,464.4-66.2,792.5c11.4,334.1,63.7,374,77.9,702c20.3,468-78.1,560.5-73.8,1057.5
			c3.2,404,69.4,390.6,84.9,824.8c18.5,507.8-65,683.1-78.6,1155.9c-8.5,298.3,11.8,701.5,120.1,1187"/>
		<path class="st1" d="M615.8-106.1C579,79.3,538.3,357.4,549.9,685.3c11.3,334.6,63.4,374.5,77.5,702.8
			c20.1,468.5-78.1,560.7-73.7,1057.5c3.3,403.1,69.1,389.6,84.7,823.2c18.7,507.7-64.5,683.5-78.2,1156
			c-8.5,297.5,11.5,701.4,120.2,1189.1"/>
		<path class="st1" d="M622-106.6c-36.5,185.1-77,462.7-65.5,790.3c11.2,335,63.1,375,77.1,703.6c19.9,469-78.1,560.9-73.5,1057.7
			c3.4,402.3,68.8,388.6,84.6,821.6c18.8,507.7-64,683.9-77.7,1156.2c-8.5,296.7,11.1,701.3,120.3,1191.3"/>
		<path class="st1" d="M628.2-107.1C592,77.6,551.8,354.7,563.1,682.1c11,335.5,62.8,375.5,76.7,704.4
			c19.8,469.5-78.1,561-73.4,1057.8c3.5,401.5,68.5,387.6,84.5,819.9c19,507.6-63.5,684.3-77.2,1156.3
			c-8.5,295.9,10.8,701.1,120.4,1193.4"/>
		<path class="st1" d="M634.4-107.6c-36,184.3-75.8,460.9-64.8,788.1c10.9,336,62.5,376.1,76.3,705.2
			c19.6,470-78.1,561.2-73.3,1057.9c3.6,400.6,68.2,386.5,84.3,818.3c19.2,507.6-63.1,684.7-76.8,1156.4
			c-8.5,295.1,10.5,701,120.5,1195.5"/>
		<path class="st1" d="M640.6-108.1c-35.7,184-75.2,460-64.4,787c10.8,336.5,62.2,376.6,75.9,706c19.4,470.5-78.1,561.4-73.1,1058
			c3.7,399.8,67.9,385.5,84.2,816.7c19.4,507.5-62.6,685.1-76.3,1156.5c-8.5,294.3,10.1,700.9,120.5,1197.7"/>
		<path class="st1" d="M646.8-108.6c-35.4,183.6-74.7,459.2-64,785.8c10.6,336.9,62,377.1,75.5,706.9c19.3,471.1-78,561.5-73,1058.1
			c3.8,399,67.6,384.5,84,815c19.6,507.5-62.1,685.5-75.9,1156.6c-8.5,293.5,9.7,700.8,120.6,1199.8"/>
		<path class="st1" d="M653-109.2c-35.1,183.2-74.1,458.3-63.7,784.7c10.5,337.4,61.7,377.6,75.1,707.7
			c19.1,471.6-78,561.7-72.9,1058.2c4,398.1,67.4,383.4,83.9,813.4c19.7,507.4-61.6,685.9-75.4,1156.7
			c-8.5,292.7,9.4,700.6,120.7,1202"/>
		<path class="st1" d="M659.2-109.7c-34.9,182.9-73.6,457.4-63.3,783.6c10.3,337.9,61.4,378.1,74.7,708.5
			c19,472.1-78,561.9-72.7,1058.3c4.1,397.3,67.1,382.4,83.8,811.8c19.9,507.4-61.2,686.3-75,1156.8
			c-8.5,291.9,9,700.5,120.8,1204.1"/>
	</g>
</g>
</svg>
