<svg xmlns="http://www.w3.org/2000/svg" xmlns:xlink="http://www.w3.org/1999/xlink" viewBox="0 0 595.28 5429.18"><defs><style>.cls-1{fill:none;stroke:#000;stroke-miterlimit:10;}.cls-2{clip-path:url(#clip-path);}</style><clipPath id="clip-path"><rect class="cls-1" width="595.28" height="5429.18"/></clipPath></defs><title>1</title><g id="Calque_2" data-name="Calque 2"><g class="cls-2"><path class="cls-1" d="M602.67-1.42c-2.5,10.49-5.35,550.87-3.83,569.2,1.41,17.17,5.28,436.33,6.13,452.31,1.21,23-6.3,652.82-6.65,678.54-.3,22.86,5.57,586.22,5.62,610.51.06,24.7-6,632.4-6.38,657.72-.4,25.95,5.9,657.23,5.36,682.88-.52,24.91-6.54,614.08-6.64,638.28-.09,23,5.29,607.82,4.85,628.84-.37,18.13-4.77,528.18-8.43,537.52"/><path class="cls-1" d="M596.85-1.58c-2.78,11.66-5.94,549.16-4.26,569.53,1.58,19.08,5.88,434.78,6.81,452.54,1.35,25.57-7,650.33-7.38,678.9-.34,25.4,6.18,583.86,6.25,610.85.06,27.45-6.67,630-7.1,658.08-.44,28.83,6.56,654.78,6,683.28-.58,27.67-7.27,611.73-7.38,638.63-.1,25.51,5.88,605.84,5.4,629.2-.42,20.15-5.31,527.37-9.37,537.75"/><path class="cls-1" d="M591-1.74c-3,12.83-6.53,547.45-4.68,569.85,1.73,21,6.46,433.24,7.49,452.77,1.49,28.13-7.7,647.84-8.12,679.28-.37,27.93,6.8,581.49,6.87,611.18.07,30.19-7.33,627.51-7.8,658.45-.49,31.71,7.21,652.32,6.55,683.67-.64,30.44-8,609.39-8.11,639-.12,28.07,6.46,603.88,5.93,629.57-.46,22.16-5.84,526.57-10.31,538"/><path class="cls-1" d="M585.21-1.9c-3.33,14-7.12,545.74-5.11,570.18,1.89,22.9,7,431.69,8.18,453,1.62,30.69-8.4,645.35-8.86,679.65-.41,30.47,7.42,579.13,7.5,611.52.07,32.94-8,625.06-8.52,658.81-.53,34.6,7.87,649.87,7.15,684.07-.7,33.21-8.72,607-8.85,639.32-.13,30.62,7,601.91,6.47,629.93-.5,24.18-6.37,525.76-11.24,538.21"/><path class="cls-1" d="M579.39-2.06c-3.61,15.17-7.72,544-5.53,570.51,2,24.81,7.64,430.13,8.85,453.22,1.76,33.24-9.09,642.86-9.59,680-.44,33,8,576.78,8.12,611.87.09,35.68-8.67,622.6-9.22,659.17-.58,37.48,8.52,647.4,7.74,684.46-.76,36-9.44,604.7-9.59,639.66-.14,33.17,7.64,599.94,7,630.31-.54,26.18-6.9,524.94-12.17,538.43"/><path class="cls-1" d="M573.58-2.21c-3.89,16.32-8.32,542.31-6,570.83,2.2,26.71,8.22,428.58,9.53,453.44,1.89,35.8-9.79,640.37-10.33,680.38-.47,35.56,8.65,574.42,8.74,612.21.1,38.42-9.33,620.16-9.93,659.53-.62,40.37,9.18,645,8.34,684.85-.81,38.75-10.17,602.36-10.33,640-.15,35.72,8.23,598,7.55,630.67-.58,28.2-7.42,524.13-13.11,538.66"/><path class="cls-1" d="M567.76-2.37c-4.17,17.49-8.91,540.61-6.39,571.16,2.37,28.62,8.81,427,10.22,453.66,2,38.36-10.49,637.89-11.07,680.75-.51,38.1,9.27,572.06,9.37,612.55.1,41.17-10,617.71-10.65,659.9-.66,43.25,9.85,642.49,8.94,685.24-.87,41.51-10.9,600-11.06,640.36-.16,38.27,8.81,596,8.08,631-.62,30.22-8,523.32-14,538.89"/><path class="cls-1" d="M561.94-2.53c-4.44,18.66-9.5,538.9-6.81,571.49,2.52,30.53,9.4,425.48,10.9,453.89,2.16,40.91-11.2,635.39-11.81,681.12-.54,40.63,9.89,569.7,10,612.88.11,43.91-10.67,615.26-11.35,660.26-.71,46.14,10.5,640,9.53,685.64-.93,44.28-11.62,597.67-11.8,640.71-.17,40.82,9.4,594,8.63,631.4-.67,32.23-8.49,522.51-15,539.12"/><path class="cls-1" d="M556.12-2.69C551.4,17.14,546,534.5,548.88,569.13c2.68,32.43,10,423.93,11.58,454.11,2.3,43.47-11.89,632.9-12.54,681.49-.58,43.17,10.5,567.34,10.61,613.22.12,46.66-11.33,612.81-12.06,660.63-.74,49,11.16,637.58,10.13,686-1,47-12.35,595.33-12.54,641-.18,43.38,10,592.07,9.17,631.77-.72,34.25-9,521.71-15.92,539.34"/><path class="cls-1" d="M550.3-2.85c-5,21-10.69,535.48-7.66,572.14,2.84,34.35,10.57,422.38,12.26,454.34,2.43,46-12.59,630.42-13.28,681.86-.61,45.72,11.12,565,11.24,613.56.12,49.41-12,610.37-12.77,661-.79,51.9,11.81,635.13,10.72,686.43-1,49.81-13.08,593-13.28,641.39-.19,45.93,10.58,590.1,9.71,632.14-.76,36.27-9.55,520.9-16.86,539.57"/><path class="cls-1" d="M544.49-3c-5.28,22.16-11.29,533.76-8.09,572.46,3,36.26,11.16,420.83,12.94,454.57,2.56,48.58-13.29,627.92-14,682.22-.65,48.26,11.74,562.62,11.86,613.91.13,52.14-12.66,607.91-13.48,661.35-.83,54.78,12.47,632.67,11.32,686.82-1.1,52.58-13.8,590.64-14,641.74-.2,48.48,11.17,588.13,10.25,632.51-.8,38.27-10.08,520.08-17.79,539.79"/><path class="cls-1" d="M538.67-3.16c-5.56,23.32-11.88,532.05-8.52,572.79,3.15,38.16,11.75,419.28,13.63,454.79,2.7,51.14-14,625.44-14.76,682.59-.68,50.8,12.36,560.27,12.49,614.25.13,54.89-13.34,605.46-14.19,661.71-.88,57.67,13.12,630.21,11.92,687.22-1.17,55.34-14.54,588.29-14.76,642.08-.21,51,11.75,586.17,10.78,632.88-.84,40.29-10.61,519.27-18.73,540"/><path class="cls-1" d="M532.85-3.32C527,21.17,520.38,527,523.91,569.8c3.31,40.07,12.33,417.73,14.3,455,2.84,53.7-14.69,623-15.49,683-.72,53.33,13,557.9,13.11,614.58.14,57.64-14,603-14.9,662.08C520,3045,534.71,3612.19,533.45,3672c-1.23,58.12-15.27,586-15.5,642.44-.22,53.58,12.34,584.19,11.32,633.24-.88,42.31-11.14,518.46-19.66,540.25"/><path class="cls-1" d="M527-3.48C520.92,22.18,514,525.16,517.67,570c3.46,42,12.92,416.18,15,455.24,3,56.25-15.39,620.45-16.23,683.33-.75,55.87,13.59,555.54,13.73,614.92.15,60.38-14.66,600.57-15.61,662.44-1,63.44,14.44,625.3,13.12,688-1.29,60.89-16,583.61-16.24,642.78-.23,56.14,12.93,582.23,11.87,633.61-.93,44.32-11.68,517.66-20.61,540.48"/><path class="cls-1" d="M521.21-3.64c-6.38,26.83-13.66,526.93-9.79,573.78,3.63,43.88,13.51,414.62,15.67,455.46,3.1,58.81-16.09,618-17,683.7-.79,58.41,14.21,553.18,14.36,615.26.15,63.13-15.34,598.12-16.32,662.81-1,66.32,15.09,622.84,13.71,688.39-1.35,63.65-16.72,581.27-17,643.13-.24,58.69,13.52,580.26,12.41,634-1,46.34-12.2,516.85-21.54,540.71"/><path class="cls-1" d="M515.4-3.8c-6.67,28-14.26,525.22-10.22,574.1,3.78,45.8,14.1,413.08,16.35,455.69,3.24,61.37-16.8,615.48-17.71,684.07-.82,61,14.82,550.83,15,615.6.16,65.88-16,595.67-17,663.17-1,69.2,15.75,620.39,14.31,688.79-1.4,66.42-17.45,578.93-17.71,643.47-.26,61.24,14.1,578.29,12.94,634.34-1,48.35-12.73,516-22.48,540.94"/><path class="cls-1" d="M509.58-3.95c-6.94,29.15-14.85,523.5-10.65,574.42,3.94,47.71,14.69,411.53,17,455.92,3.38,63.92-17.49,613-18.44,684.43-.86,63.5,15.44,548.47,15.6,615.94.17,68.62-16.66,593.23-17.73,663.54-1.1,72.08,16.4,617.93,14.9,689.18-1.46,69.18-18.17,576.58-18.45,643.82-.27,63.79,14.69,576.32,13.48,634.71-1.05,50.36-13.26,515.22-23.41,541.16"/><path class="cls-1" d="M503.76-4.11c-7.22,30.32-15.44,521.8-11.07,574.75,4.1,49.61,15.27,410,17.71,456.14,3.51,66.48-18.19,610.5-19.19,684.81-.88,66,16.07,546.1,16.24,616.28.17,71.36-17.33,590.77-18.45,663.89-1.14,75,17.06,615.48,15.5,689.58-1.52,71.95-18.9,574.24-19.19,644.16-.27,66.35,15.28,574.35,14,635.08C498.24,5013,485.54,5475,475,5502"/><path class="cls-1" d="M497.94-4.27c-7.5,31.49-16,520.09-11.49,575.08,4.25,51.52,15.86,408.42,18.39,456.36,3.64,69-18.89,608-19.93,685.18-.91,68.57,16.69,543.74,16.86,616.62.18,74.1-18,588.32-19.15,664.26-1.19,77.85,17.71,613,16.09,690-1.58,74.72-19.62,571.89-19.93,644.51-.28,68.89,15.87,572.38,14.56,635.44-1.13,54.39-14.32,513.61-25.28,541.62"/><path class="cls-1" d="M492.12-4.43C484.35,28.23,475.49,514,480.2,571c4.41,53.43,16.45,406.87,19.07,456.59,3.79,71.6-19.58,605.52-20.66,685.54-.95,71.11,17.3,541.39,17.49,617,.18,76.85-18.67,585.88-19.87,664.62-1.23,80.74,18.37,610.56,16.69,690.36-1.64,77.49-20.35,569.56-20.66,644.86-.3,71.45,16.45,570.42,15.09,635.81-1.17,56.41-14.85,512.8-26.22,541.85"/><path class="cls-1" d="M486.3-4.59C478.25,29.24,469.08,512.08,474,571.15c4.57,55.33,17,405.32,19.75,456.81,3.92,74.16-20.29,603-21.4,685.91-1,73.65,17.92,539,18.11,617.3.19,79.6-19.33,583.43-20.58,665-1.27,83.62,19,608.1,17.29,690.75-1.69,80.26-21.08,567.21-21.4,645.21-.31,74,17,568.44,15.64,636.17-1.22,58.43-15.39,512-27.16,542.08"/><path class="cls-1" d="M480.49-4.74c-8.33,35-17.82,514.95-12.77,576.06,4.72,57.24,17.62,403.77,20.43,457,4.05,76.72-21,600.55-22.14,686.28-1,76.2,18.54,536.67,18.73,617.64.2,82.34-20,581-21.28,665.35-1.32,86.51,19.68,605.65,17.88,691.15-1.75,83-21.8,564.87-22.14,645.55-.32,76.55,17.63,566.48,16.18,636.54-1.26,60.44-15.92,511.18-28.1,542.31"/><path class="cls-1" d="M474.67-4.9c-8.61,36.15-18.41,513.24-13.2,576.38,4.89,59.16,18.21,402.23,21.12,457.27,4.18,79.27-21.69,598.05-22.88,686.65-1,78.73,19.16,534.3,19.36,618,.2,85.09-20.67,578.53-22,665.72-1.36,89.38,20.34,603.19,18.48,691.54-1.81,85.79-22.53,562.52-22.88,645.9-.32,79.1,18.23,564.51,16.72,636.91-1.3,62.45-16.44,510.36-29,542.53"/><path class="cls-1" d="M468.85-5.06c-8.89,37.32-19,511.54-13.62,576.71,5,61.06,18.79,400.67,21.79,457.49,4.32,81.83-22.38,595.57-23.61,687-1.09,81.27,19.77,532,20,618.32.21,87.83-21.33,576.08-22.7,666.08-1.41,92.26,21,600.73,19.07,691.93-1.87,88.56-23.26,560.18-23.61,646.24-.34,81.65,18.81,562.54,17.25,637.28-1.34,64.46-17,509.56-30,542.76"/><path class="cls-1" d="M463-5.22c-9.16,38.49-19.6,509.83-14,577,5.2,63,19.39,399.12,22.48,457.71,4.46,84.39-23.09,593.08-24.35,687.39-1.12,83.81,20.39,529.59,20.61,618.66.21,90.57-22,573.63-23.42,666.44C442.85,3097.17,466,3600.3,464,3694.35c-1.93,91.32-24,557.83-24.35,646.59-.35,84.2,19.4,560.57,17.79,637.64-1.38,66.48-17.5,508.75-30.9,543"/><path class="cls-1" d="M457.21-5.38C447.77,34.28,437,502.74,442.74,572c5.36,64.88,20,397.57,23.16,457.94,4.59,86.94-23.79,590.58-25.09,687.75-1.16,86.35,21,527.23,21.23,619,.22,93.32-22.67,571.18-24.12,666.81-1.5,98,22.3,595.81,20.26,692.72-2,94.09-24.71,555.49-25.09,646.93-.36,86.76,20,558.6,18.33,638-1.42,68.5-18,507.94-31.84,543.22"/><path class="cls-1" d="M451.4-5.53c-9.72,40.82-20.79,506.4-14.9,577.69,5.51,66.78,20.56,396,23.84,458.16,4.72,89.5-24.49,588.1-25.83,688.12-1.19,88.9,21.62,524.87,21.85,619.34.23,96.06-23.33,568.73-24.83,667.17-1.54,100.92,23,593.36,20.86,693.12-2,96.85-25.44,553.14-25.83,647.28-.37,89.3,20.58,556.63,18.88,638.37-1.47,70.51-18.57,507.13-32.78,543.44"/><path class="cls-1" d="M445.58-5.69c-10,42-21.38,504.69-15.33,578,5.67,68.69,21.15,394.47,24.52,458.38,4.86,92.06-25.18,585.61-26.56,688.5-1.23,91.43,22.24,522.51,22.48,619.67.24,98.81-24,566.29-25.55,667.54-1.58,103.8,23.62,590.9,21.46,693.5-2.1,99.63-26.16,550.81-26.56,647.63-.39,91.86,21.16,554.67,19.41,638.74-1.51,72.53-19.1,506.32-33.72,543.67"/><path class="cls-1" d="M439.76-5.85c-10.27,43.15-22,503-15.75,578.35,5.83,70.6,21.73,392.91,25.2,458.61,5,94.61-25.88,583.12-27.3,688.86-1.26,94,22.86,520.15,23.1,620,.25,101.56-24.67,563.84-26.25,667.9-1.63,106.69,24.27,588.45,22.05,693.9-2.16,102.4-26.89,548.46-27.3,648-.39,94.41,21.75,552.69,19.95,639.11-1.55,74.54-19.63,505.51-34.65,543.89"/><path class="cls-1" d="M433.94-6c-10.55,44.32-22.57,501.28-16.18,578.67,6,72.51,22.33,391.37,25.89,458.84,5.13,97.17-26.59,580.63-28,689.23-1.3,96.51,23.48,517.79,23.72,620.36.26,104.29-25.33,561.38-27,668.26-1.67,109.57,24.93,586,22.65,694.29C432.8,3808.8,407.4,4249.76,407,4352c-.4,97,22.34,550.73,20.49,639.48-1.59,76.55-20.16,504.7-35.59,544.12"/><path class="cls-1" d="M428.12-6.17c-10.83,45.49-23.16,499.57-16.6,579,6.15,74.42,22.91,389.82,26.57,459.07,5.26,99.72-27.29,578.13-28.78,689.59-1.33,99,24.09,515.43,24.35,620.7.26,107-26,558.94-27.67,668.62-1.72,112.45,25.58,583.54,23.24,694.69-2.28,107.93-28.34,543.77-28.78,648.67-.41,99.51,22.93,548.76,21,639.84-1.63,78.57-20.69,503.89-36.52,544.35"/><path class="cls-1" d="M422.31-6.33c-11.11,46.66-23.76,497.86-17,579.33,6.3,76.33,23.49,388.27,27.24,459.29,5.4,102.28-28,575.65-29.51,690-1.36,101.59,24.71,513.08,25,621,.27,109.79-26.66,556.49-28.38,669-1.76,115.33,26.25,581.07,23.84,695.08-2.33,110.69-29.07,541.43-29.52,649-.42,102.07,23.52,546.79,21.57,640.21-1.67,80.59-21.21,503.08-37.46,544.58"/><path class="cls-1" d="M416.49-6.48C405.1,41.33,392.14,489.66,399,573.17c6.46,78.23,24.09,386.72,27.93,459.51,5.54,104.84-28.68,573.16-30.25,690.34-1.4,104.13,25.33,510.71,25.6,621.37.27,112.53-27.34,554-29.09,669.35-1.81,118.22,26.9,578.62,24.43,695.48-2.39,113.46-29.79,539.09-30.25,649.36-.44,104.61,24.1,544.82,22.11,640.57-1.72,82.6-21.75,502.27-38.4,544.81"/><path class="cls-1" d="M410.67-6.64c-11.66,49-24.94,494.43-17.88,580,6.62,80.14,24.67,385.16,28.61,459.74,5.67,107.39-29.39,570.67-31,690.7-1.43,106.67,25.95,508.35,26.22,621.71.28,115.28-28,551.59-29.8,669.72-1.85,121.1,27.56,576.16,25,695.87-2.45,116.23-30.52,536.74-31,649.7-.45,107.17,24.69,542.85,22.65,640.95-1.76,84.61-22.28,501.46-39.34,545"/><path class="cls-1" d="M404.85-6.8c-11.94,50.15-25.54,492.73-18.3,580.31,6.77,82,25.25,383.61,29.29,460,5.8,110-30.09,568.18-31.73,691.07-1.47,109.21,26.56,506,26.84,622.05.29,118-28.66,549.15-30.51,670.08-1.89,124,28.22,573.71,25.63,696.26-2.51,119-31.25,534.41-31.73,650.06-.45,109.72,25.28,540.88,23.19,641.31-1.8,86.62-22.81,500.65-40.27,545.26"/><path class="cls-1" d="M399-7c-12.21,51.32-26.13,491-18.73,580.64,6.93,84,25.85,382.06,30,460.18,5.94,112.51-30.78,565.7-32.47,691.44-1.49,111.75,27.19,503.64,27.48,622.4.29,120.76-29.34,546.69-31.22,670.44-1.94,126.87,28.87,571.25,26.22,696.65-2.57,121.77-32,532.06-32.47,650.4-.46,112.27,25.87,538.92,23.73,641.68-1.84,88.64-23.34,499.84-41.21,545.49"/><path class="cls-1" d="M393.22-7.12c-12.5,52.49-26.73,489.31-19.16,581,7.09,85.87,26.43,380.52,30.65,460.42,6.08,115.06-31.48,563.2-33.21,691.8-1.53,114.29,27.81,501.28,28.1,622.74.3,123.51-30,544.24-31.93,670.8-2,129.76,29.53,568.8,26.82,697.05-2.62,124.53-32.7,529.72-33.2,650.75-.48,114.82,26.45,536.94,24.26,642-1.88,90.66-23.87,499-42.14,545.72"/><path class="cls-1" d="M387.4-7.27C374.62,46.38,360.08,480.32,367.81,574c7.25,87.77,27,379,31.34,460.64,6.21,117.62-32.19,560.71-33.95,692.18-1.56,116.83,28.43,498.91,28.72,623.07.31,126.25-30.66,541.79-32.63,671.17-2,132.63,30.18,566.34,27.41,697.44-2.68,127.3-33.43,527.37-33.94,651.09-.49,117.38,27,535,24.8,642.41-1.92,92.67-24.4,498.22-43.08,545.95"/><path class="cls-1" d="M381.58-7.43c-13.05,54.81-27.91,485.88-20,581.61,7.41,89.68,27.61,377.41,32,460.86,6.35,120.19-32.88,558.23-34.68,692.55-1.6,119.37,29,496.56,29.35,623.41.31,129-31.33,539.35-33.35,671.53-2.06,135.52,30.84,563.88,28,697.84-2.74,130.07-34.15,525-34.68,651.43-.5,119.93,27.63,533,25.35,642.78-2,94.69-24.94,497.41-44,546.18"/><path class="cls-1" d="M375.76-7.59c-13.33,56-28.5,484.17-20.43,581.94,7.56,91.59,28.19,375.86,32.69,461.09,6.48,122.74-33.58,555.73-35.42,692.91-1.63,121.91,29.66,494.2,30,623.75.32,131.75-32,536.9-34.05,671.9-2.11,138.4,31.49,561.42,28.6,698.23-2.8,132.83-34.88,522.68-35.42,651.78-.5,122.48,28.22,531,25.89,643.15-2,96.7-25.46,496.6-45,546.4"/><path class="cls-1" d="M369.94-7.75c-13.6,57.15-29.1,482.47-20.86,582.27,7.72,93.49,28.79,374.31,33.38,461.31,6.61,125.3-34.28,553.25-36.16,693.28-1.67,124.45,30.28,491.84,30.6,624.09.32,134.49-32.67,534.45-34.77,672.26-2.15,141.29,32.15,559,29.2,698.63-2.86,135.6-35.61,520.34-36.15,652.12-.52,125,28.8,529.08,26.42,643.52-2.05,98.71-26,495.79-45.89,546.63"/><path class="cls-1" d="M364.13-7.91c-13.89,58.32-29.7,480.76-21.29,582.6,7.88,95.4,29.37,372.76,34.06,461.53,6.75,127.86-35,550.76-36.9,693.65-1.7,127,30.89,489.48,31.22,624.44.33,137.23-33.33,532-35.48,672.62-2.19,144.17,32.81,556.51,29.8,699-2.91,138.37-36.33,518-36.89,652.48-.53,127.58,29.39,527.1,27,643.88-2.09,100.73-26.52,495-46.83,546.86"/><path class="cls-1" d="M358.31-8.06C344.15,51.42,328,471,336.6,574.86c8,97.31,29.95,371.2,34.73,461.76,6.89,130.41-35.68,548.26-37.63,694-1.73,129.52,31.51,487.12,31.84,624.77.34,140-34,529.55-36.18,673-2.24,147.06,33.46,554.06,30.39,699.41-3,141.14-37.06,515.66-37.63,652.82-.54,130.14,30,525.14,27.5,644.25C347.49,5127.61,322.57,5519,301.86,5572"/><path class="cls-1" d="M352.49-8.22C338.05,52.42,321.61,469.11,330.35,575c8.19,99.22,30.55,369.66,35.42,462,7,133-36.38,545.78-38.37,694.39-1.77,132.07,32.13,484.76,32.47,625.11.34,142.72-34.67,527.1-36.9,673.35-2.28,149.94,34.12,551.6,31,699.8-3,143.91-37.79,513.31-38.37,653.17-.55,132.68,30.57,523.17,28,644.61-2.17,104.76-27.58,493.36-48.7,547.32"/><path class="cls-1" d="M346.67-8.38C332,53.43,315.2,467.24,324.11,575.19c8.35,101.13,31.13,368.11,36.1,462.21,7.15,135.53-37.08,543.29-39.11,694.76-1.8,134.61,32.75,482.4,33.09,625.45.35,145.47-35.33,524.65-37.6,673.72-2.33,152.81,34.77,549.14,31.58,700.19-3.09,146.67-38.51,511-39.1,653.51-.57,135.24,31.15,521.2,28.58,645-2.22,106.78-28.12,492.56-49.64,547.54"/><path class="cls-1" d="M340.85-8.54c-15,63-32.07,473.91-23,583.9,8.51,103,31.72,366.56,36.79,462.44,7.29,138.08-37.78,540.8-39.85,695.12-1.84,137.15,33.36,480,33.72,625.79.35,148.21-36,522.21-38.32,674.08-2.37,155.7,35.43,546.68,32.19,700.59-3.16,149.44-39.25,508.62-39.85,653.86-.57,137.79,31.74,519.23,29.12,645.35-2.26,108.78-28.65,491.74-50.58,547.76"/><path class="cls-1" d="M335-8.7c-15.27,64.15-32.66,472.21-23.41,584.23,8.66,104.94,32.31,365,37.46,462.66,7.43,140.64-38.48,538.31-40.58,695.49-1.87,139.69,34,477.69,34.34,626.13.36,151-36.67,519.76-39,674.45-2.42,158.58,36.08,544.22,32.78,701-3.21,152.2-40,506.28-40.59,654.2-.58,140.34,32.33,517.26,29.66,645.72-2.3,110.8-29.18,490.93-51.51,548"/><path class="cls-1" d="M329.22-8.86C313.67,56.46,296,461.64,305.38,575.7c8.82,106.85,32.89,363.45,38.14,462.88,7.56,143.2-39.18,535.83-41.32,695.87-1.91,142.22,34.6,475.32,35,626.47.37,153.7-37.33,517.3-39.73,674.8-2.46,161.47,36.74,541.77,33.38,701.38-3.27,155-40.7,503.93-41.33,654.55-.59,142.89,32.92,515.29,30.2,646.08C317.33,5150.55,290,5527.85,267.23,5586"/><path class="cls-1" d="M323.4-9c-15.83,66.48-33.85,468.78-24.27,584.88,9,108.76,33.48,361.9,38.83,463.11,7.69,145.75-39.88,533.33-42.06,696.23C294,1880,331.12,2208.17,331.49,2362c.37,156.44-38,514.86-40.45,675.17-2.5,164.35,37.4,539.31,34,701.76-3.33,157.75-41.43,501.6-42.06,654.9-.61,145.45,33.5,513.33,30.73,646.45-2.39,114.83-30.23,489.31-53.38,548.45"/><path class="cls-1" d="M317.58-9.17C301.47,58.47,283.14,457.9,292.89,576,302,686.7,327,936.39,332.4,1039.37c7.83,148.31-40.58,530.84-42.8,696.6-2,147.31,35.83,470.6,36.21,627.15.38,159.19-38.67,512.41-41.15,675.53-2.55,167.24,38,536.86,34.57,702.16-3.39,160.51-42.15,499.26-42.8,655.25-.62,148,34.09,511.35,31.27,646.81-2.43,116.85-30.76,488.51-54.32,548.68"/><path class="cls-1" d="M311.76-9.33c-16.38,68.81-35,465.36-25.11,585.53,9.29,112.58,34.65,358.81,40.18,463.56,8,150.87-41.27,528.36-43.53,697-2,149.85,36.45,468.25,36.83,627.49.4,161.94-39.33,510-41.86,675.9-2.59,170.12,38.71,534.4,35.17,702.55C310,3906,270.56,4239.58,269.9,4398.26c-.62,150.55,34.68,509.39,31.82,647.18-2.48,118.87-31.3,487.7-55.26,548.91"/><path class="cls-1" d="M305.94-9.49c-16.66,70-35.63,463.66-25.54,585.86,9.45,114.49,35.25,357.26,40.87,463.79,8.1,153.42-42,525.86-44.27,697.33-2.05,152.39,37.07,465.89,37.46,627.83.4,164.68-40,507.51-42.57,676.26-2.64,173,39.36,532,35.76,703-3.5,166-43.61,494.57-44.28,655.94-.63,153.1,35.27,507.42,32.36,647.55-2.52,120.87-31.83,486.88-56.2,549.13"/><path class="cls-1" d="M300.13-9.65c-16.94,71.15-36.23,462-26,586.19,9.61,116.39,35.83,355.7,41.55,464,8.23,156-42.68,523.38-45,697.71-2.08,154.92,37.68,463.52,38.08,628.16.41,167.43-40.66,505.07-43.28,676.63-2.68,175.88,40,529.48,36.36,703.34-3.56,168.81-44.33,492.22-45,656.28-.65,155.65,35.85,505.45,32.89,647.92-2.56,122.89-32.36,486.07-57.13,549.36"/><path class="cls-1" d="M294.31-9.8c-17.22,72.31-36.82,460.23-26.4,586.51,9.77,118.3,36.42,354.15,42.23,464.23,8.38,158.54-43.37,520.89-45.75,698.08-2.11,157.46,38.31,461.16,38.72,628.51.41,170.16-41.34,502.61-44,677-2.73,178.77,40.67,527,36.95,703.74-3.62,171.58-45.06,489.88-45.75,656.63-.66,158.2,36.44,503.48,33.43,648.28-2.6,124.9-32.89,485.26-58.07,549.59"/><path class="cls-1" d="M288.49-10C271,63.51,251.08,448.56,261.67,576.88c9.92,120.21,37,352.6,42.91,464.46,8.51,161.09-44.07,518.39-46.49,698.44-2.14,160,38.93,458.81,39.34,628.85.42,172.91-42,500.16-44.7,677.35-2.77,181.65,41.33,524.57,37.55,704.13-3.68,174.34-45.79,487.53-46.49,657-.67,160.76,37,501.51,34,648.65-2.64,126.92-33.42,484.46-59,549.82"/><path class="cls-1" d="M282.67-10.12c-17.77,74.64-38,456.81-27.24,587.17C265.51,699.16,293,928.1,299,1041.73c8.64,163.65-44.78,515.91-47.23,698.81-2.17,162.55,39.55,456.45,40,629.19.43,175.66-42.66,497.71-45.41,677.71-2.81,184.54,42,522.12,38.15,704.52-3.74,177.12-46.51,485.2-47.23,657.33-.68,163.3,37.62,499.54,34.51,649-2.68,128.94-33.95,483.65-59.94,550.05"/><path class="cls-1" d="M276.85-10.28c-18.05,75.81-38.6,455.1-27.67,587.5,10.24,124,38.18,349.5,44.28,464.9,8.77,166.21-45.48,513.42-48,699.18-2.21,165.09,40.16,454.09,40.59,629.53.43,178.4-43.34,495.27-46.12,678.08-2.86,187.42,42.64,519.66,38.74,704.91-3.79,179.88-47.24,482.85-48,657.67-.68,165.86,38.21,497.58,35.06,649.38-2.73,130.95-34.48,482.84-60.88,550.28"/><path class="cls-1" d="M271-10.44c-18.33,77-39.2,453.4-28.1,587.82,10.4,125.94,38.77,348,44.95,465.14,8.91,168.77-46.17,510.93-48.7,699.55C237,1909.69,280,2193.79,280.4,2371.93c.44,181.15-44,492.82-46.83,678.44-2.9,190.31,43.31,517.21,39.34,705.31-3.85,182.65-48,480.51-48.7,658-.7,168.4,38.79,495.6,35.59,649.75-2.77,133-35,482-61.82,550.5"/><path class="cls-1" d="M265.22-10.59c-18.61,78.14-39.79,451.68-28.53,588.14,10.56,127.84,39.36,346.4,45.64,465.36,9.05,171.33-46.87,508.44-49.44,699.92-2.28,170.16,41.4,449.37,41.84,630.2.44,183.9-44.67,490.37-47.54,678.81-2.95,193.19,44,514.74,39.93,705.7-3.91,185.42-48.69,478.16-49.44,658.36-.71,171,39.38,493.64,36.13,650.12-2.81,135-35.54,481.21-62.75,550.73"/><path class="cls-1" d="M259.4-10.75c-18.88,79.3-40.38,450-28.95,588.47,10.71,129.75,39.94,344.85,46.32,465.58,9.18,173.89-47.57,506-50.18,700.29-2.31,172.7,42,447,42.46,630.55.45,186.63-45.33,487.92-48.25,679.16-3,196.07,44.62,512.29,40.53,706.1-4,188.18-49.42,475.82-50.18,658.71-.72,173.51,40,491.67,36.67,650.48-2.85,137-36.07,480.41-63.69,551"/><path class="cls-1" d="M253.58-10.91c-19.16,80.47-41,448.26-29.37,588.8,10.87,131.66,40.53,343.3,47,465.81,9.31,176.44-48.28,503.46-50.92,700.65-2.35,175.25,42.63,444.65,43.08,630.89.46,189.38-46,485.47-49,679.53-3,198.95,45.27,509.83,41.12,706.49-4,190.95-50.15,473.47-50.92,659.05-.73,176.06,40.56,489.7,37.21,650.85-2.89,139-36.6,479.6-64.62,551.19"/><path class="cls-1" d="M247.76-11.07C228.33,70.57,206.19,435.48,218,578.06c11,133.56,41.12,341.74,47.68,466,9.45,179-49,501-51.65,701-2.38,177.79,43.25,442.29,43.71,631.23.46,192.13-46.67,483-49.67,679.89C205,3258.07,254,3563.61,249.75,3763.12c-4.08,193.71-50.87,471.13-51.65,659.4-.74,178.61,41.14,487.73,37.74,651.21-2.93,141-37.13,478.79-65.56,551.42"/><path class="cls-1" d="M242-11.23c-19.72,82.81-42.17,444.84-30.23,589.46,11.18,135.47,41.7,340.19,48.36,466.26,9.59,181.55-49.67,498.48-52.39,701.39-2.42,180.32,43.87,439.93,44.33,631.56.47,194.87-47.33,480.57-50.38,680.26C198.52,3262.42,248.23,3562.62,244,3765c-4.14,196.48-51.6,468.78-52.39,659.74-.75,181.17,41.73,485.76,38.28,651.59-3,143-37.66,478-66.49,551.64"/><path class="cls-1" d="M236.13-11.39c-20,84-42.76,443.14-30.65,589.79,11.34,137.38,42.29,338.64,49,466.48,9.72,184.11-50.37,496-53.13,701.76-2.45,182.86,44.49,437.57,45,631.9.48,197.62-48,478.13-51.08,680.62-3.17,207.61,47.24,502.47,42.91,707.67-4.2,199.26-52.32,466.45-53.13,660.1-.76,183.71,42.32,483.79,38.83,651.95-3,145.05-38.2,477.16-67.44,551.86"/><path class="cls-1" d="M230.31-11.54C210,73.6,187,429.88,199.23,578.56c11.5,139.29,42.88,337.1,49.73,466.71,9.85,186.67-51.08,493.51-53.87,702.13-2.49,185.4,45.1,435.21,45.58,632.24.48,200.36-48.67,475.68-51.8,681-3.2,210.49,47.9,500,43.51,708.06-4.26,202-53,464.1-53.87,660.44-.77,186.27,42.91,481.83,39.37,652.32-3.06,147.06-38.73,476.36-68.37,552.09"/><path class="cls-1" d="M224.49-11.7C203.94,74.6,180.54,428,193,578.73c11.66,141.2,43.47,335.55,50.4,466.94,10,189.22-51.77,491-54.6,702.49C186.27,1936.1,234.51,2181,235,2380.75c.49,203.1-49.33,473.22-52.5,681.34-3.25,213.38,48.55,497.55,44.1,708.46-4.32,204.79-53.78,461.76-54.6,660.79-.79,188.82,43.49,479.85,39.9,652.68-3.1,149.08-39.25,475.55-69.31,552.32"/><path class="cls-1" d="M218.67-11.86c-20.82,87.47-44.54,438-31.93,590.76,11.82,143.11,44.06,334,51.09,467.16,10.13,191.78-52.47,488.52-55.34,702.86-2.56,190.49,46.34,430.5,46.83,632.93.49,205.85-50,470.77-53.22,681.71-3.29,216.25,49.21,495.09,44.7,708.85-4.38,207.55-54.5,459.42-55.34,661.13-.8,191.37,44.08,477.89,40.44,653.05-3.14,151.1-39.78,474.74-70.24,552.55"/><path class="cls-1" d="M212.85-12c-21.1,88.64-45.13,436.29-32.35,591.09,12,145,44.64,332.44,51.77,467.38,10.26,194.34-53.17,486-56.08,703.24-2.59,193,46.95,428.13,47.45,633.26.5,208.59-50.67,468.33-53.92,682.08-3.34,219.13,49.86,492.63,45.29,709.24-4.43,210.32-55.23,457.07-56.08,661.48-.8,193.92,44.67,475.92,41,653.41-3.18,153.11-40.31,473.93-71.18,552.78"/><path class="cls-1" d="M207-12.18c-21.38,89.81-45.73,434.58-32.78,591.42,12.13,146.92,45.23,330.89,52.44,467.61,10.4,196.89-53.87,483.54-56.81,703.6-2.62,195.56,47.57,425.77,48.07,633.6.51,211.34-51.33,465.88-54.63,682.44-3.38,222,50.52,490.18,45.89,709.64-4.49,213.09-56,454.73-56.82,661.82-.81,196.48,45.26,473.95,41.52,653.79-3.22,155.12-40.84,473.11-72.11,553"/><path class="cls-1" d="M201.22-12.33c-21.66,91-46.32,432.87-33.21,591.74,12.29,148.83,45.82,329.34,53.13,467.83,10.53,199.45-54.57,481.06-57.55,704-2.66,198.1,48.19,423.42,48.7,633.94.51,214.09-52,463.43-55.35,682.81-3.42,224.9,51.18,487.72,46.49,710-4.55,215.85-56.68,452.38-57.55,662.16-.83,199,45.84,472,42.06,654.16-3.27,157.14-41.38,472.3-73.06,553.23"/><path class="cls-1" d="M195.4-12.49c-21.94,92.13-46.92,431.16-33.63,592.06,12.44,150.74,46.4,327.8,53.81,468.06,10.66,202-55.27,478.57-58.3,704.34-2.68,200.64,48.82,421.06,49.33,634.28.52,216.83-52.67,461-56.05,683.17-3.47,227.79,51.83,485.27,47.08,710.42-4.61,218.63-57.41,450.05-58.29,662.52-.84,201.58,46.43,470,42.6,654.52-3.31,159.15-41.91,471.5-74,553.46"/><path class="cls-1" d="M189.58-12.65c-22.21,93.3-47.51,429.45-34.05,592.39C168.13,732.39,202.52,906,210,1048c10.8,204.56-56,476.07-59,704.7-2.72,203.19,49.43,418.7,50,634.63.53,219.57-53.33,458.53-56.76,683.53-3.51,230.67,52.49,482.81,47.68,710.81-4.67,221.39-58.14,447.7-59,662.86-.85,204.13,47,468,43.14,654.89-3.35,161.17-42.44,470.69-74.93,553.69"/><path class="cls-1" d="M183.76-12.81c-22.49,94.47-48.1,427.74-34.48,592.72C162,734.47,196.86,904.6,204.45,1048.42c10.94,207.12-56.66,473.59-59.77,705.08-2.75,205.72,50,416.33,50.58,635,.54,222.31-54,456.08-57.47,683.89-3.56,233.56,53.14,480.35,48.27,711.21-4.72,224.16-58.86,445.36-59.77,663.21C125.44,4653.45,173.9,4912.85,170,5102c-3.39,163.18-43,469.88-75.86,553.92"/><path class="cls-1" d="M178-13c-22.77,95.64-48.7,426-34.91,593.05C156,736.54,191.2,903.22,198.89,1048.81c11.07,209.68-57.37,471.1-60.51,705.45-2.79,208.26,50.67,414,51.2,635.3.55,225.06-54.66,453.63-58.18,684.26-3.6,236.43,53.8,477.89,48.87,711.6-4.78,226.93-59.59,443-60.5,663.55C118.9,4658.21,168,4913.08,164,5104.59c-3.43,165.2-43.5,469.07-76.8,554.15"/><path class="cls-1" d="M172.13-13.12c-23,96.8-49.29,424.32-35.34,593.37,13.08,158.37,48.76,321.59,56.54,469,11.2,212.23-58.07,468.61-61.25,705.81-2.82,210.8,51.29,411.62,51.83,635.64.55,227.81-55.34,451.19-58.89,684.62-3.65,239.32,54.45,475.44,49.46,712-4.84,229.69-60.32,440.67-61.24,663.9-.88,211.78,48.78,462.14,44.75,656-3.47,167.21-44,468.25-77.73,554.37"/><path class="cls-1" d="M166.31-13.28c-23.33,98-49.89,422.61-35.76,593.7,13.23,160.28,49.34,320,57.22,469.18,11.34,214.79-58.77,466.12-62,706.18-2.86,213.34,51.9,409.26,52.45,636,.56,230.55-56,448.74-59.6,685-3.69,242.2,55.11,473,50.06,712.39-4.9,232.46-61,438.32-62,664.24-.89,214.34,49.37,460.18,45.3,656.36-3.52,169.22-44.56,467.45-78.68,554.6"/><path class="cls-1" d="M160.49-13.44c-23.6,99.13-50.48,420.9-36.18,594C137.7,742.77,174.24,899.07,182.2,1050c11.48,217.35-59.46,463.64-62.72,706.55-2.89,215.88,52.52,406.9,53.07,636.32.57,233.3-56.66,446.29-60.31,685.35C108.51,3323.3,168,3548.74,162.9,3791c-5,235.22-61.77,436-62.72,664.59-.9,216.89,50,458.2,45.84,656.72-3.56,171.24-45.09,466.64-79.61,554.83"/><path class="cls-1" d="M154.67-13.6C130.79,86.7,103.6,405.59,118.06,580.75c13.55,164.1,50.52,316.94,58.58,469.64,11.61,219.91-60.17,461.14-63.46,706.92-2.93,218.42,53.14,404.54,53.7,636.66.57,236-57.34,443.84-61,685.71-3.78,248,56.42,468.07,51.25,713.17-5,238-62.49,433.64-63.46,664.94C92.74,4677.23,144.21,4914,140,5114.88c-3.6,173.26-45.62,465.83-80.55,555.06"/><path class="cls-1" d="M148.86-13.76c-24.16,101.47-51.67,417.48-37,594.68,13.7,166,51.1,315.39,59.26,469.86,11.74,222.47-60.87,458.65-64.2,707.29-3,221,53.75,402.18,54.32,637,.58,238.78-58,441.39-61.73,686.07-3.82,250.86,57.08,465.62,51.85,713.57C146.25,4035.48,88.1,4226,87.13,4460c-.92,222,51.14,454.26,46.91,657.45-3.64,175.27-46.15,465-81.48,555.29"/><path class="cls-1" d="M143-13.92c-24.44,102.64-52.26,415.77-37.47,595,13.87,167.91,51.7,313.84,60,470.08,11.88,225-61.57,456.17-64.94,707.66-3,223.5,54.37,399.82,55,637.34.58,241.53-58.67,438.94-62.44,686.44-3.87,253.74,57.73,463.15,52.45,714-5.14,243.53-64,429-64.94,665.63-.93,224.55,51.73,452.3,47.45,657.82-3.68,177.29-46.68,464.21-82.42,555.52"/><path class="cls-1" d="M137.22-14.07C112.51,89.73,84.36,400,99.33,581.26c14,169.82,52.28,312.28,60.62,470.31,12,227.58-62.26,453.67-65.67,708-3,226,55,397.46,55.57,637.68.59,244.27-59.33,436.49-63.15,686.8-3.91,256.62,58.39,460.7,53.05,714.36-5.2,246.3-64.68,426.61-65.68,666-.94,227.09,52.32,450.33,48,658.19-3.72,179.3-47.21,463.4-83.35,555.74"/><path class="cls-1" d="M131.4-14.23c-25,105-53.45,412.35-38.31,595.66C107.27,753.16,146,892.16,154.39,1052c12.15,230.14-63,451.19-66.41,708.39-3.06,228.58,55.61,395.11,56.19,638,.6,247-60,434.05-63.85,687.17-4,259.5,59,458.24,53.64,714.75-5.26,249.06-65.41,424.26-66.42,666.32-1,229.65,52.91,448.36,48.54,658.56-3.77,181.31-47.75,462.59-84.3,556"/><path class="cls-1" d="M125.58-14.39c-25.27,106.13-54,410.64-38.74,596,14.34,173.63,53.46,309.18,62,470.75,12.28,232.7-63.67,448.7-67.15,708.76-3.1,231.12,56.22,392.75,56.82,638.36.6,249.77-60.67,431.6-64.57,687.53-4,262.39,59.71,455.79,54.24,715.15C122.86,4054,62,4224.07,61,4468.82c-1,232.2,53.49,446.39,49.07,658.92-3.81,183.33-48.27,461.78-85.23,556.19"/><path class="cls-1" d="M119.77-14.55C94.22,92.75,65.13,394.38,80.6,581.77c14.49,175.54,54,307.63,62.66,471C155.69,1288,78.9,1499,75.38,1761.88c-3.13,233.66,56.84,390.38,57.44,638.7.61,252.5-61.33,429.14-65.28,687.89-4,265.27,60.37,453.33,54.84,715.54-5.37,254.6-66.86,419.58-67.89,667-1,234.75,54.08,444.43,49.61,659.29-3.85,185.34-48.8,461-86.17,556.42"/><path class="cls-1" d="M114-14.71C88.12,93.76,58.72,392.51,74.36,581.93,89,759.39,129,888,137.7,1053.14c12.56,237.81-65.06,443.72-68.62,709.5-3.17,236.2,57.46,388,58.06,639,.62,255.25-62,426.69-66,688.25-4.09,268.16,61,450.88,55.43,715.93C111.16,4063.23,49,4223.1,48,4473.23c-1,237.3,54.67,442.45,50.15,659.65C94.22,5320.24,48.78,5593,11,5689.53"/><path class="cls-1" d="M108.13-14.86c-26.1,109.63-55.83,405.5-40,597,14.81,179.36,55.22,304.53,64,471.43,12.69,240.37-65.76,441.23-69.36,709.87-3.2,238.74,58.08,385.67,58.69,639.38.62,258-62.67,424.25-66.7,688.62-4.13,271,61.68,448.41,56,716.32-5.49,260.14-68.32,414.9-69.37,667.71-1,239.86,55.26,440.49,50.69,660-3.93,189.37-49.86,459.35-88,556.87"/><path class="cls-1" d="M102.31-15C75.93,95.78,45.89,388.78,61.87,582.27c15,181.27,55.8,303,64.71,471.66,12.82,242.92-66.47,438.74-70.1,710.23-3.24,241.28,58.69,383.31,59.31,639.72.63,260.74-63.33,421.8-67.4,689-4.18,273.93,62.33,446,56.62,716.72-5.55,262.9-69,412.55-70.1,668.06C33.9,4720,90.75,4916.15,86.13,5138c-4,191.38-50.39,458.54-89,557.1"/><path class="cls-1" d="M96.49-15.18c-26.65,112-57,402.09-40.87,597.62C70.75,765.62,112,883.87,121,1054.32c13,245.48-67.16,436.25-70.83,710.6-3.27,243.82,59.31,380.95,59.94,640.06.63,263.49-64,419.35-68.12,689.35-4.22,276.8,63,443.5,57.22,717.11-5.6,265.67-69.77,410.21-70.84,668.4-1,245,56.43,436.55,51.77,660.76-4,193.4-50.93,457.73-89.92,557.33"/><path class="cls-1" d="M90.67-15.34C63.74,97.79,33.07,385,49.38,582.61c15.28,185.08,57,299.88,66.07,472.1,13.1,248-67.86,433.76-71.58,711-3.3,246.36,59.94,378.58,60.57,640.39.64,266.24-64.67,416.91-68.82,689.72-4.27,279.68,63.64,441,57.81,717.5-5.66,268.44-70.5,407.86-71.58,668.75-1,247.5,57,434.58,52.31,661.12-4.07,195.42-51.46,456.92-90.85,557.56"/><path class="cls-1" d="M84.86-15.5C57.64,98.8,26.66,383.17,43.14,582.78c15.44,187,57.56,298.33,66.75,472.33,13.23,250.59-68.56,431.27-72.32,711.34-3.33,248.9,60.56,376.23,61.19,640.74.65,269-65.33,414.45-69.53,690.07-4.31,282.57,64.3,438.59,58.41,717.9-5.72,271.2-71.22,405.52-72.32,669.09-1,250.06,57.61,432.61,52.85,661.49-4.11,197.43-52,456.11-91.78,557.79"/><path class="cls-1" d="M79-15.65C51.55,99.81,20.24,381.3,36.89,583c15.6,188.9,58.16,296.77,67.44,472.55,13.36,253.15-69.27,428.78-73.06,711.71-3.37,251.44,61.17,373.87,61.82,641.08.65,271.72-66,412-70.25,690.44-4.35,285.45,65,436.13,59,718.29-5.78,274-71.95,403.17-73,669.44C7.75,4739.07,67,4917.1,62.18,5148.31c-4.15,199.45-52.52,455.31-92.72,558"/><path class="cls-1" d="M73.22-15.81C45.45,100.82,13.83,379.44,30.65,583.11,46.4,773.92,89.39,878.34,98.76,1055.89c13.5,255.71-70,426.3-73.79,712.08-3.4,254,61.79,371.51,62.44,641.42.66,274.46-66.66,409.55-70.95,690.8-4.4,288.34,65.61,433.68,59.6,718.68-5.84,276.74-72.68,400.84-73.79,669.79-1.06,255.16,58.78,428.68,53.92,662.23-4.19,201.45-53,454.49-93.65,558.24"/><path class="cls-1" d="M67.4-16c-28,117.79-60,393.54-43,599.25C40.32,776,83.73,877,93.2,1056.29c13.64,258.26-70.66,423.8-74.53,712.44-3.43,256.52,62.41,369.16,63.06,641.76.67,277.21-67.33,407.11-71.66,691.17-4.43,291.22,66.27,431.21,60.2,719.07-5.89,279.51-73.4,398.49-74.53,670.14-1.07,257.71,59.37,426.7,54.46,662.59C46,5356.93-3.37,5607.14-44.39,5711.93"/><path class="cls-1" d="M61.58-16.13C33.26,102.83,1,375.7,18.16,583.45c16.07,194.63,59.92,292.13,69.48,473.23C101.41,1317.5,16.28,1478,12.37,1769.5c-3.47,259,63,366.79,63.69,642.09.67,280-68,404.66-72.37,691.53-4.48,294.11,66.92,428.76,60.79,719.47-6,282.28-74.13,396.15-75.27,670.48-1.08,260.27,60,424.74,55,663-4.28,205.49-54.11,452.87-95.53,558.7"/><path class="cls-1" d="M55.77-16.29C27.17,103.84-5.4,373.83,11.92,583.62c16.22,196.53,60.5,290.58,70.16,473.45C96,1320.45,10,1475.9,6.07,1770.26c-3.5,261.6,63.64,364.43,64.31,642.43.68,282.7-68.66,402.21-73.08,691.9-4.52,297,67.58,426.3,61.39,719.86-6,285-74.85,393.8-76,670.83-1.1,262.81,60.54,422.76,55.54,663.32-4.32,207.5-54.64,452.06-96.47,558.93"/><path class="cls-1" d="M50-16.45C21.07,104.85-11.81,372,5.67,583.79c16.39,198.44,61.09,289,70.84,473.68C90.55,1323.4,3.75,1473.8-.23,1771-3.77,2035.16,64,2133.09,64.71,2413.8c.69,285.44-69.34,399.76-73.79,692.25-4.57,299.87,68.23,423.85,62,720.26-6.07,287.81-75.58,391.46-76.74,671.17-1.1,265.37,61.13,420.8,56.08,663.69-4.36,209.52-55.17,451.26-97.4,559.16"/><path class="cls-1" d="M44.13-16.6C15,105.86-18.23,370.09-.57,584,16,784.31,61.11,871.43,71,1057.86c14.18,268.5-73.46,413.85-77.48,713.92C-10.1,2038.46,58.35,2131.5,59,2414.9c.7,288.19-70,397.31-74.5,692.62-4.61,302.75,68.89,421.39,62.58,720.65C41,4118.74-29.2,4217.28-30.37,4499.69c-1.11,267.92,61.72,418.83,56.62,664.05-4.4,211.54-55.7,450.45-98.34,559.39"/><path class="cls-1" d="M38.31-16.76C8.88,106.87-24.64,368.23-6.81,584.13c16.7,202.25,62.26,285.92,72.2,474.13,14.31,271-74.16,411.35-78.22,714.28C-16.44,2041.76,52.66,2129.9,53.35,2416c.71,290.93-70.66,394.86-75.21,693-4.65,305.64,69.55,418.94,63.18,721.05-6.19,293.34-77,386.77-78.22,671.86-1.12,270.47,62.31,416.86,57.16,664.43C15.82,5379.86-36,5616-79,5725.93"/><path class="cls-1" d="M32.49-16.92C2.78,107.87-31,366.36-13.06,584.29,3.8,788.46,49.79,868.67,59.82,1058.65,74.27,1332.26-15,1467.52-19.13,1773.31c-3.64,271.75,66.11,355,66.81,643.79.71,293.68-71.33,392.41-75.92,693.35C-32.94,3419,42,3526.93,35.53,3831.89c-6.24,296.11-77.76,384.43-78.95,672.2-1.14,273,62.89,414.9,57.69,664.8-4.48,215.56-56.76,448.82-100.21,559.84"/><path class="cls-1" d="M26.68-17.08c-30,126-64.14,381.57-46,601.54,17,206.08,63.44,282.82,73.56,474.58,14.58,276.17-75.56,406.38-79.69,715C-29.11,2048.36,41.3,2126.7,42,2418.2c.72,296.42-72,390-76.63,693.71-4.74,311.41,70.86,414,64.37,721.83-6.3,298.88-78.49,382.09-79.69,672.56-1.15,275.58,63.48,412.92,58.24,665.16C3.76,5389-49,5619.47-92.86,5731.53"/><path class="cls-1" d="M20.86-17.24C-9.41,109.89-43.87,362.62-25.54,584.63c17.17,208,64,281.27,74.24,474.81,14.72,278.72-76.26,403.88-80.43,715.39-3.71,276.84,67.35,350.28,68.06,644.47.72,299.17-72.67,387.52-77.34,694.08-4.79,314.29,71.51,411.56,65,722.22-6.36,301.65-79.21,379.75-80.43,672.9-1.15,278.13,64.07,411,58.78,665.53-4.57,219.59-57.82,447.2-102.09,560.29"/><path class="cls-1" d="M15-17.39C-15.51,110.9-50.29,360.75-31.79,584.8c17.33,209.89,64.62,279.72,74.93,475,14.85,281.28-77,401.4-81.17,715.76-3.75,279.38,68,347.92,68.68,644.82.73,301.91-73.33,385.06-78,694.43C-52.23,3432,24.77,3524,18.16,3837.46c-6.42,304.41-79.94,377.4-81.17,673.25-1.16,280.68,64.66,409,59.32,665.89C-8.3,5398.21-62,5623-106.71,5737.12"/><path class="cls-1" d="M9.22-17.55C-21.6,111.91-56.7,358.88-38,585c17.48,211.8,65.2,278.17,75.6,475.25,15,283.84-77.65,398.91-81.9,716.13-3.78,281.92,68.58,345.56,69.3,645.16.74,304.65-74,382.61-78.75,694.8-4.88,320.05,72.82,406.65,66.15,723C5.89,4146.5-68.3,4214.38-69.54,4512.91c-1.17,283.24,65.25,407,59.86,666.26-4.65,223.62-58.88,445.59-104,560.75"/><path class="cls-1" d="M3.4-17.71C-27.7,112.91-63.11,357-44.28,585.14-26.63,798.84,21.51,861.76,32,1060.62,47.13,1347-46.34,1457-50.63,1777.12c-3.82,284.45,69.2,343.19,69.93,645.49C20,2730-55.37,2802.78-60.17,3117.77c-4.92,322.94,73.48,404.2,66.75,723.41-6.53,310-81.39,372.71-82.64,673.94-1.19,285.78,65.83,405.05,60.39,666.63-4.69,225.63-59.41,444.77-104.89,561"/><path class="cls-1" d="M-2.41-17.87c-31.38,131.79-67.11,373-48.11,603.18,17.8,215.61,66.38,275.06,77,475.7,15.25,289-79.06,393.93-83.38,716.87-3.85,287,69.81,340.84,70.55,645.83.75,310.15-75.33,377.72-80.18,695.53C-71.52,3445.06,7.58,3521,.79,3843c-6.59,312.71-82.12,370.37-83.38,674.28-1.2,288.34,66.42,403.09,60.93,667-4.73,227.65-59.94,444-105.83,561.2"/><path class="cls-1" d="M-8.23-18c-31.66,133-67.7,371.31-48.53,603.5C-38.8,803,10.2,859,20.89,1061.4c15.39,291.51-79.76,391.45-84.12,717.24-3.88,289.54,70.43,338.48,71.17,646.17.76,312.89-76,375.27-80.88,695.89C-77.95,3449.41,1.85,3520-5,3844.9c-6.65,315.48-82.85,368-84.12,674.63-1.21,290.88,67,401.11,61.47,667.36-4.77,229.66-60.47,443.15-106.76,561.43"/><path class="cls-1" d="M-14-18.18C-46,115.94-82.35,351.41-63,585.64c18.12,219.43,67.55,272,78.33,476.16,15.53,294.06-80.45,389-84.86,717.6-3.91,292.08,71.06,336.12,71.81,646.51.76,315.64-76.67,372.83-81.6,696.26-5,331.59,75.45,396.82,68.54,724.58-6.71,318.25-83.57,365.69-84.86,675-1.21,293.44,67.6,399.15,62,667.73-4.82,231.68-61,442.35-107.71,561.66"/><path class="cls-1" d="M-19.87-18.34C-52.08,117-88.76,349.54-69.25,585.81-51,807.15-1.11,856.23,9.76,1062.19c15.66,296.62-81.15,386.46-85.6,718C-79.78,2074.78-4.16,2113.92-3.41,2427c.77,318.38-77.33,370.37-82.3,696.61-5.1,334.48,76.1,394.37,69.13,725-6.77,321-84.3,363.34-85.59,675.33-1.23,296,68.18,397.17,62.55,668.09-4.86,233.7-61.54,441.54-108.64,561.89"/><path class="cls-1" d="M-25.69-18.5C-58.18,118-95.17,347.68-75.5,586c18.44,223.25,68.73,268.87,79.7,476.6,15.79,299.18-81.86,384-86.34,718.35-4,297.15,72.29,331.4,73.06,647.19.77,321.12-78,367.92-83,697-5.14,337.36,76.77,391.91,69.73,725.37-6.82,323.79-85,361-86.33,675.67-1.24,298.54,68.77,395.21,63.09,668.46-4.9,235.71-62.06,440.73-109.58,562.12"/><path class="cls-1" d="M-31.5-18.66C-64.27,119-101.58,345.81-81.74,586.15-63.15,811.3-12.43,853.46-1.36,1063c15.93,301.73-82.56,381.48-87.08,718.71-4,299.69,72.91,329,73.68,647.53.78,323.87-78.67,365.47-83.72,697.35-5.19,340.23,77.42,389.45,70.32,725.76-6.88,326.55-85.75,358.65-87.07,676-1.25,301.09,69.36,393.24,63.63,668.83-4.94,237.72-62.59,439.91-110.51,562.34"/></g><rect class="cls-1" width="595.28" height="5429.18"/></g></svg>