<svg id="Calque_1" data-name="Calque 1" xmlns="http://www.w3.org/2000/svg" xmlns:xlink="http://www.w3.org/1999/xlink" viewBox="0 0 595.28 5429.18"><defs><style>.cls-1{fill:none;stroke:#000;stroke-miterlimit:10;}.cls-2{clip-path:url(#clip-path);}</style><clipPath id="clip-path"><rect class="cls-1" width="595.28" height="5429.18"/></clipPath></defs><title>1</title><g class="cls-2"><path class="cls-1" d="M595.33-14s462,2307.08,0,5443.16"/><path class="cls-1" d="M589.84-13.82s458.13,2333.28,0,5443"/><path class="cls-1" d="M584.36-13.66s454.25,2359.47,0,5442.84"/><path class="cls-1" d="M578.88-13.51s450.36,2385.67,0,5442.69"/><path class="cls-1" d="M573.4-13.35s446.48,2411.87,0,5442.53"/><path class="cls-1" d="M567.91-13.19s442.6,2438.06,0,5442.37"/><path class="cls-1" d="M562.43-13s438.72,2464.25,0,5442.21"/><path class="cls-1" d="M557-12.87s434.84,2490.45,0,5442.05"/><path class="cls-1" d="M551.47-12.72s430.95,2516.65,0,5441.9"/><path class="cls-1" d="M546-12.56s427.07,2542.84,0,5441.74"/><path class="cls-1" d="M540.5-12.4s423.19,2569,0,5441.58"/><path class="cls-1" d="M535-12.24S954.33,2583,535,5429.18"/><path class="cls-1" d="M529.54-12.08s415.42,2621.43,0,5441.26"/><path class="cls-1" d="M524.06-11.93s411.54,2647.63,0,5441.11"/><path class="cls-1" d="M518.58-11.77s407.65,2673.82,0,5441"/><path class="cls-1" d="M513.09-11.61s403.78,2700,0,5440.79"/><path class="cls-1" d="M507.61-11.45s399.89,2726.21,0,5440.63"/><path class="cls-1" d="M502.13-11.29s396,2752.4,0,5440.47"/><path class="cls-1" d="M496.65-11.14s392.12,2778.61,0,5440.32"/><path class="cls-1" d="M491.16-11s388.25,2804.8,0,5440.16"/><path class="cls-1" d="M485.68-10.82s384.37,2831,0,5440"/><path class="cls-1" d="M480.2-10.66s380.48,2857.19,0,5439.84"/><path class="cls-1" d="M474.72-10.5s376.6,2883.38,0,5439.68"/><path class="cls-1" d="M469.24-10.35s372.71,2909.59,0,5439.53"/><path class="cls-1" d="M463.75-10.19s368.84,2935.78,0,5439.37"/><path class="cls-1" d="M458.27-10s365,2962,0,5439.21"/><path class="cls-1" d="M452.79-9.87s361.07,2988.17,0,5439.05"/><path class="cls-1" d="M447.31-9.71s357.18,3014.36,0,5438.89"/><path class="cls-1" d="M441.83-9.56s353.3,3040.56,0,5438.74"/><path class="cls-1" d="M436.34-9.4s349.42,3066.76,0,5438.58"/><path class="cls-1" d="M430.86-9.24s345.54,3093,0,5438.42"/><path class="cls-1" d="M425.38-9.08s341.65,3119.14,0,5438.26"/><path class="cls-1" d="M419.9-8.92s337.77,3145.34,0,5438.1"/><path class="cls-1" d="M414.41-8.77s333.9,3171.54,0,5438"/><path class="cls-1" d="M408.93-8.61s330,3197.74,0,5437.79"/><path class="cls-1" d="M403.45-8.45s326.13,3223.93,0,5437.63"/><path class="cls-1" d="M398-8.29s322.24,3250.12,0,5437.47"/><path class="cls-1" d="M392.49-8.13s318.36,3276.32,0,5437.31"/><path class="cls-1" d="M387-8s314.48,3302.52,0,5437.16"/><path class="cls-1" d="M381.52-7.82s310.6,3328.71,0,5437"/><path class="cls-1" d="M376-7.66s306.71,3354.91,0,5436.84"/><path class="cls-1" d="M370.56-7.5s302.83,3381.1,0,5436.68"/><path class="cls-1" d="M365.08-7.35S664,3400,365.08,5429.18"/><path class="cls-1" d="M359.59-7.19s295.07,3433.5,0,5436.37"/><path class="cls-1" d="M354.11-7s291.18,3459.69,0,5436.21"/><path class="cls-1" d="M348.63-6.87s287.3,3485.89,0,5436.05"/><path class="cls-1" d="M343.15-6.71s283.42,3512.08,0,5435.89"/><path class="cls-1" d="M337.66-6.56s279.54,3538.28,0,5435.74"/><path class="cls-1" d="M332.18-6.4s275.66,3564.48,0,5435.58"/><path class="cls-1" d="M326.7-6.24s271.77,3590.67,0,5435.42"/><path class="cls-1" d="M321.22-6.08s267.89,3616.86,0,5435.26"/><path class="cls-1" d="M315.74-5.92s264,3643.06,0,5435.1"/><path class="cls-1" d="M310.25-5.77s260.13,3669.26,0,5435"/><path class="cls-1" d="M304.77-5.61s256.24,3695.45,0,5434.79"/><path class="cls-1" d="M299.29-5.45s252.36,3721.65,0,5434.63"/><path class="cls-1" d="M293.81-5.29s248.47,3747.84,0,5434.47"/><path class="cls-1" d="M288.33-5.13s244.59,3774,0,5434.31"/><path class="cls-1" d="M282.84-5s240.72,3800.24,0,5434.16"/><path class="cls-1" d="M277.36-4.82s236.83,3826.43,0,5434"/><path class="cls-1" d="M271.88-4.66s233,3852.63,0,5433.84"/><path class="cls-1" d="M266.4-4.5s229.06,3878.82,0,5433.68"/><path class="cls-1" d="M260.91-4.34s225.19,3905,0,5433.52"/><path class="cls-1" d="M255.43-4.19s221.3,3931.22,0,5433.37"/><path class="cls-1" d="M250-4s217.42,3957.41,0,5433.21"/><path class="cls-1" d="M244.47-3.87s213.53,3983.6,0,5433.05"/><path class="cls-1" d="M239-3.71s209.65,4009.8,0,5432.89"/><path class="cls-1" d="M233.5-3.55s205.77,4036,0,5432.73"/><path class="cls-1" d="M228-3.4s201.89,4062.2,0,5432.58"/><path class="cls-1" d="M222.54-3.24s198,4088.39,0,5432.42"/><path class="cls-1" d="M217.06-3.08s194.12,4114.58,0,5432.26"/><path class="cls-1" d="M211.57-2.92s190.25,4140.78,0,5432.1"/><path class="cls-1" d="M206.09-2.76s186.36,4167,0,5431.94"/><path class="cls-1" d="M200.61-2.61s182.48,4193.17,0,5431.79"/><path class="cls-1" d="M195.13-2.45s178.59,4219.37,0,5431.63"/><path class="cls-1" d="M189.65-2.29s174.71,4245.56,0,5431.47"/><path class="cls-1" d="M184.16-2.13s170.83,4271.75,0,5431.31"/><path class="cls-1" d="M178.68-2s167,4298,0,5431.15"/><path class="cls-1" d="M173.2-1.82s163.06,4324.15,0,5431"/><path class="cls-1" d="M167.72-1.66s159.18,4350.34,0,5430.84"/><path class="cls-1" d="M162.24-1.5s155.29,4376.54,0,5430.68"/><path class="cls-1" d="M156.75-1.34s151.42,4402.73,0,5430.52"/><path class="cls-1" d="M151.27-1.18s147.53,4428.93,0,5430.36"/><path class="cls-1" d="M145.79-1s143.65,4455.13,0,5430.21"/><path class="cls-1" d="M140.31-.87s139.77,4481.32,0,5430.05"/><path class="cls-1" d="M134.82-.71s135.89,4507.52,0,5429.89"/><path class="cls-1" d="M129.34-.55s132,4533.71,0,5429.73"/><path class="cls-1" d="M123.86-.39s128.12,4559.9,0,5429.57"/><path class="cls-1" d="M118.38-.24s124.24,4586.11,0,5429.42"/><path class="cls-1" d="M112.9-.08s120.35,4612.3,0,5429.26"/><path class="cls-1" d="M107.41.08s116.48,4638.49,0,5429.1"/><path class="cls-1" d="M101.93.24s112.59,4664.69,0,5428.94"/><path class="cls-1" d="M96.45.4s108.71,4690.88,0,5428.78"/><path class="cls-1" d="M91,.55s104.82,4717.09,0,5428.63"/><path class="cls-1" d="M85.49.71s100.94,4743.28,0,5428.47"/><path class="cls-1" d="M80,.87s97.06,4769.47,0,5428.31"/><path class="cls-1" d="M74.52,1s93.18,4795.67,0,5428.15"/><path class="cls-1" d="M69,1.19s89.3,4821.86,0,5428"/><path class="cls-1" d="M63.56,1.34s85.41,4848.06,0,5427.84"/><path class="cls-1" d="M58.07,1.5s81.54,4874.26,0,5427.68"/><path class="cls-1" d="M52.59,1.66s77.65,4900.45,0,5427.52"/><path class="cls-1" d="M47.11,1.82s73.77,4926.64,0,5427.36"/><path class="cls-1" d="M41.63,2s69.88,4952.84,0,5427.2"/><path class="cls-1" d="M36.15,2.13s66,4979,0,5427.05"/><path class="cls-1" d="M30.66,2.29s62.12,5005.24,0,5426.89"/><path class="cls-1" d="M25.18,2.45s58.24,5031.43,0,5426.73"/><path class="cls-1" d="M19.7,2.61s54.35,5057.62,0,5426.57"/><path class="cls-1" d="M14.22,2.77s50.47,5083.82,0,5426.41"/><path class="cls-1" d="M8.74,2.92s46.58,5110,0,5426.26"/><path class="cls-1" d="M3.25,3.08s42.71,5136.21,0,5426.1"/><path class="cls-1" d="M-2.23,3.24s38.83,5162.41,0,5425.94"/><path class="cls-1" d="M-7.71,3.4s34.94,5188.6,0,5425.78"/><path class="cls-1" d="M-13.19,3.56s31.06,5214.79,0,5425.62"/><path class="cls-1" d="M595.33-14s462,2307.08,0,5443.16"/><path class="cls-1" d="M589.84-13.82s458.13,2333.28,0,5443"/><path class="cls-1" d="M584.36-13.66s454.25,2359.47,0,5442.84"/><path class="cls-1" d="M578.88-13.51s450.36,2385.67,0,5442.69"/><path class="cls-1" d="M573.4-13.35s446.48,2411.87,0,5442.53"/><path class="cls-1" d="M567.91-13.19s442.6,2438.06,0,5442.37"/><path class="cls-1" d="M562.43-13s438.72,2464.25,0,5442.21"/><path class="cls-1" d="M557-12.87s434.84,2490.45,0,5442.05"/><path class="cls-1" d="M551.47-12.72s430.95,2516.65,0,5441.9"/><path class="cls-1" d="M546-12.56s427.07,2542.84,0,5441.74"/><path class="cls-1" d="M540.5-12.4s423.19,2569,0,5441.58"/><path class="cls-1" d="M535-12.24S954.33,2583,535,5429.18"/><path class="cls-1" d="M529.54-12.08s415.42,2621.43,0,5441.26"/><path class="cls-1" d="M524.06-11.93s411.54,2647.63,0,5441.11"/><path class="cls-1" d="M518.58-11.77s407.65,2673.82,0,5441"/><path class="cls-1" d="M513.09-11.61s403.78,2700,0,5440.79"/><path class="cls-1" d="M507.61-11.45s399.89,2726.21,0,5440.63"/><path class="cls-1" d="M502.13-11.29s396,2752.4,0,5440.47"/><path class="cls-1" d="M496.65-11.14s392.12,2778.61,0,5440.32"/><path class="cls-1" d="M491.16-11s388.25,2804.8,0,5440.16"/><path class="cls-1" d="M485.68-10.82s384.37,2831,0,5440"/><path class="cls-1" d="M480.2-10.66s380.48,2857.19,0,5439.84"/><path class="cls-1" d="M474.72-10.5s376.6,2883.38,0,5439.68"/><path class="cls-1" d="M469.24-10.35s372.71,2909.59,0,5439.53"/><path class="cls-1" d="M463.75-10.19s368.84,2935.78,0,5439.37"/><path class="cls-1" d="M458.27-10s365,2962,0,5439.21"/><path class="cls-1" d="M452.79-9.87s361.07,2988.17,0,5439.05"/><path class="cls-1" d="M447.31-9.71s357.18,3014.36,0,5438.89"/><path class="cls-1" d="M441.83-9.56s353.3,3040.56,0,5438.74"/><path class="cls-1" d="M436.34-9.4s349.42,3066.76,0,5438.58"/><path class="cls-1" d="M430.86-9.24s345.54,3093,0,5438.42"/><path class="cls-1" d="M425.38-9.08s341.65,3119.14,0,5438.26"/><path class="cls-1" d="M419.9-8.92s337.77,3145.34,0,5438.1"/><path class="cls-1" d="M414.41-8.77s333.9,3171.54,0,5438"/><path class="cls-1" d="M408.93-8.61s330,3197.74,0,5437.79"/><path class="cls-1" d="M403.45-8.45s326.13,3223.93,0,5437.63"/><path class="cls-1" d="M398-8.29s322.24,3250.12,0,5437.47"/><path class="cls-1" d="M392.49-8.13s318.36,3276.32,0,5437.31"/><path class="cls-1" d="M387-8s314.48,3302.52,0,5437.16"/><path class="cls-1" d="M381.52-7.82s310.6,3328.71,0,5437"/><path class="cls-1" d="M376-7.66s306.71,3354.91,0,5436.84"/><path class="cls-1" d="M370.56-7.5s302.83,3381.1,0,5436.68"/><path class="cls-1" d="M365.08-7.35S664,3400,365.08,5429.18"/><path class="cls-1" d="M359.59-7.19s295.07,3433.5,0,5436.37"/><path class="cls-1" d="M354.11-7s291.18,3459.69,0,5436.21"/><path class="cls-1" d="M348.63-6.87s287.3,3485.89,0,5436.05"/><path class="cls-1" d="M343.15-6.71s283.42,3512.08,0,5435.89"/><path class="cls-1" d="M337.66-6.56s279.54,3538.28,0,5435.74"/><path class="cls-1" d="M332.18-6.4s275.66,3564.48,0,5435.58"/><path class="cls-1" d="M326.7-6.24s271.77,3590.67,0,5435.42"/><path class="cls-1" d="M321.22-6.08s267.89,3616.86,0,5435.26"/><path class="cls-1" d="M315.74-5.92s264,3643.06,0,5435.1"/><path class="cls-1" d="M310.25-5.77s260.13,3669.26,0,5435"/><path class="cls-1" d="M304.77-5.61s256.24,3695.45,0,5434.79"/><path class="cls-1" d="M299.29-5.45s252.36,3721.65,0,5434.63"/><path class="cls-1" d="M293.81-5.29s248.47,3747.84,0,5434.47"/><path class="cls-1" d="M288.33-5.13s244.59,3774,0,5434.31"/><path class="cls-1" d="M282.84-5s240.72,3800.24,0,5434.16"/><path class="cls-1" d="M277.36-4.82s236.83,3826.43,0,5434"/><path class="cls-1" d="M271.88-4.66s233,3852.63,0,5433.84"/><path class="cls-1" d="M266.4-4.5s229.06,3878.82,0,5433.68"/><path class="cls-1" d="M260.91-4.34s225.19,3905,0,5433.52"/><path class="cls-1" d="M255.43-4.19s221.3,3931.22,0,5433.37"/><path class="cls-1" d="M250-4s217.42,3957.41,0,5433.21"/><path class="cls-1" d="M244.47-3.87s213.53,3983.6,0,5433.05"/><path class="cls-1" d="M239-3.71s209.65,4009.8,0,5432.89"/><path class="cls-1" d="M233.5-3.55s205.77,4036,0,5432.73"/><path class="cls-1" d="M228-3.4s201.89,4062.2,0,5432.58"/><path class="cls-1" d="M222.54-3.24s198,4088.39,0,5432.42"/><path class="cls-1" d="M217.06-3.08s194.12,4114.58,0,5432.26"/><path class="cls-1" d="M211.57-2.92s190.25,4140.78,0,5432.1"/><path class="cls-1" d="M206.09-2.76s186.36,4167,0,5431.94"/><path class="cls-1" d="M200.61-2.61s182.48,4193.17,0,5431.79"/><path class="cls-1" d="M195.13-2.45s178.59,4219.37,0,5431.63"/><path class="cls-1" d="M189.65-2.29s174.71,4245.56,0,5431.47"/><path class="cls-1" d="M184.16-2.13s170.83,4271.75,0,5431.31"/><path class="cls-1" d="M178.68-2s167,4298,0,5431.15"/><path class="cls-1" d="M173.2-1.82s163.06,4324.15,0,5431"/><path class="cls-1" d="M167.72-1.66s159.18,4350.34,0,5430.84"/><path class="cls-1" d="M162.24-1.5s155.29,4376.54,0,5430.68"/><path class="cls-1" d="M156.75-1.34s151.42,4402.73,0,5430.52"/><path class="cls-1" d="M151.27-1.18s147.53,4428.93,0,5430.36"/><path class="cls-1" d="M145.79-1s143.65,4455.13,0,5430.21"/><path class="cls-1" d="M140.31-.87s139.77,4481.32,0,5430.05"/><path class="cls-1" d="M134.82-.71s135.89,4507.52,0,5429.89"/><path class="cls-1" d="M129.34-.55s132,4533.71,0,5429.73"/><path class="cls-1" d="M123.86-.39s128.12,4559.9,0,5429.57"/><path class="cls-1" d="M118.38-.24s124.24,4586.11,0,5429.42"/><path class="cls-1" d="M112.9-.08s120.35,4612.3,0,5429.26"/><path class="cls-1" d="M107.41.08s116.48,4638.49,0,5429.1"/><path class="cls-1" d="M101.93.24s112.59,4664.69,0,5428.94"/><path class="cls-1" d="M96.45.4s108.71,4690.88,0,5428.78"/><path class="cls-1" d="M91,.55s104.82,4717.09,0,5428.63"/><path class="cls-1" d="M85.49.71s100.94,4743.28,0,5428.47"/><path class="cls-1" d="M80,.87s97.06,4769.47,0,5428.31"/><path class="cls-1" d="M74.52,1s93.18,4795.67,0,5428.15"/><path class="cls-1" d="M69,1.19s89.3,4821.86,0,5428"/><path class="cls-1" d="M63.56,1.34s85.41,4848.06,0,5427.84"/><path class="cls-1" d="M58.07,1.5s81.54,4874.26,0,5427.68"/><path class="cls-1" d="M52.59,1.66s77.65,4900.45,0,5427.52"/><path class="cls-1" d="M47.11,1.82s73.77,4926.64,0,5427.36"/><path class="cls-1" d="M41.63,2s69.88,4952.84,0,5427.2"/><path class="cls-1" d="M36.15,2.13s66,4979,0,5427.05"/><path class="cls-1" d="M30.66,2.29s62.12,5005.24,0,5426.89"/><path class="cls-1" d="M25.18,2.45s58.24,5031.43,0,5426.73"/><path class="cls-1" d="M19.7,2.61s54.35,5057.62,0,5426.57"/><path class="cls-1" d="M14.22,2.77s50.47,5083.82,0,5426.41"/><path class="cls-1" d="M8.74,2.92s46.58,5110,0,5426.26"/><path class="cls-1" d="M3.25,3.08s42.71,5136.21,0,5426.1"/><path class="cls-1" d="M-2.23,3.24s38.83,5162.41,0,5425.94"/><path class="cls-1" d="M-7.71,3.4s34.94,5188.6,0,5425.78"/><path class="cls-1" d="M-13.19,3.56s31.06,5214.79,0,5425.62"/></g><rect class="cls-1" width="595.28" height="5429.18"/></svg>