<svg id="Calque_1" data-name="Calque 1" xmlns="http://www.w3.org/2000/svg" xmlns:xlink="http://www.w3.org/1999/xlink" viewBox="0 0 250 250"><defs><style>.cls-1{fill:none;}.cls-2{clip-path:url(#clip-path);}.cls-3{fill:#fff;}</style><clipPath id="clip-path"><rect class="cls-1" x="-0.463" width="250.1433" height="250"/></clipPath></defs><title>phi-white</title><g class="cls-2"><path class="cls-3" d="M143.1629,203.8676c37.9567-1.7751,58.7047-19.9671,64.0056-56.6782a200.7476,200.7476,0,0,0,1.5819-33.8947c-1.1067-40.9388-24.2908-64.513-65.5875-66.8854Zm-36.96-157.4549c-38.6313,2.4925-57.8207,18.539-63.9557,55.1065-2.3663,14.1145-2.3032,28.9431-1.2031,43.2811,2.7518,35.8,28.4517,58.5768,65.1588,58.7737ZM72.2778,249.9883c-2.8415-7.1573,1.1665-7.1139,5.6531-7.6378,17.6939-2.0655,25.8927-9.98,27.807-26.7975-9.5415-1.1712-19.1761-1.892-28.6411-3.5937-45.79-8.2285-78.4093-45.4734-77.5419-88.8245C.25,88.3757,17.4482,63.3767,48.3692,49.5425c17.7437-7.9381,37.4216-11.5185,56.9965-17.2877.1064-13.0868-8.5777-21.9425-27.1689-24.5586-4.1875-.5906-8.8236.0267-5.9954-7.6745h34.3474c21.39.0033,42.7823-.1168,64.1685.1735,2.343.0334,4.6494,2.4359,6.9758,3.7372-2.1037,1.2112-4.0878,3.1566-6.3277,3.5169-18.8637,3.06-27.375,11.1048-28.07,26.564,13.8453,2.5893,27.9632,3.9874,41.3333,7.9448,59.7948,17.7015,84.1654,84.8771,48.3357,132.7262C214.45,199.41,188.69,211.1151,158.5337,213.988c-4.9752.4738-9.98.6607-14.9188.9744-.4155,15.4291,9.1593,24.9689,26.5407,27.6083,2.6554.4,5.0117,2.7762,7.5043,4.241-2.5424,1.0578-5.0815,3.0231-7.6306,3.04-32.6591.2069-65.3216.1368-97.7515.1368"/></g></svg>