<?xml version="1.0" standalone="no"?>
<!DOCTYPE svg PUBLIC "-//W3C//DTD SVG 1.1//EN" "http://www.w3.org/Graphics/SVG/1.1/DTD/svg11.dtd" >
<svg xmlns="http://www.w3.org/2000/svg" xmlns:xlink="http://www.w3.org/1999/xlink" version="1.1">
<metadata>
Created by FontForge 20170910 at Fri Apr 27 10:10:54 2018
 By Jimmy Wärting
Copyright 2017 Dinamo (Johannes Breyer, Fabian Harb)
</metadata>
<defs>
<font id="Ginto-Medium" horiz-adv-x="1270" >
  <font-face 
    font-family="Ginto"
    font-weight="500"
    font-stretch="normal"
    units-per-em="2048"
    panose-1="2 0 6 3 0 0 0 2 0 4"
    ascent="1616"
    descent="-432"
    x-height="1029"
    cap-height="1434"
    bbox="-1449 -489 4544 2239"
    underline-thickness="50"
    underline-position="-100"
    unicode-range="U+000D-FB02"
  />
<missing-glyph horiz-adv-x="1287" 
d="M165 1434h957v-1434h-957v1434zM942 175v1083h-597v-1083h597z" />
    <glyph glyph-name="f_f" unicode="ff" horiz-adv-x="1510" 
d="M511.5 1246q-38.5 -40 -38.5 -120v-97h304v-209h-304v-820h-254v820h-180v209h180v86q0 182 94.5 281.5t271.5 99.5q66 0 121.5 -14t90.5 -37v-200q-65 41 -164 41q-83 0 -121.5 -40zM1218.5 1246q-38.5 -40 -38.5 -120v-97h304v-209h-304v-820h-254v820h-180v209h180v86
q0 182 94.5 281.5t271.5 99.5q66 0 121.5 -14t90.5 -37v-200q-65 41 -164 41q-83 0 -121.5 -40z" />
    <glyph glyph-name="f_f_i" unicode="ffi" horiz-adv-x="2059" 
d="M511.5 1246q-38.5 -40 -38.5 -120v-97h304v-209h-304v-820h-254v820h-180v209h180v86q0 182 94.5 281.5t271.5 99.5q66 0 121.5 -14t90.5 -37v-200q-65 41 -164 41q-83 0 -121.5 -40zM1218.5 1246q-38.5 -40 -38.5 -120v-97h304v-209h-304v-820h-254v820h-180v209h180v86
q0 182 94.5 281.5t271.5 99.5q66 0 121.5 -14t90.5 -37v-200q-65 41 -164 41q-83 0 -121.5 -40zM1707 1205q-35 19 -55 52.5t-20 74.5q0 61 43.5 101.5t108.5 40.5q66 0 108 -40t42 -102q0 -63 -42.5 -104.5t-107.5 -41.5q-42 0 -77 19zM1657 1029h254v-1029h-254v1029z" />
    <glyph glyph-name="f_f_l" unicode="ffl" horiz-adv-x="2059" 
d="M511.5 1246q-38.5 -40 -38.5 -120v-97h304v-209h-304v-820h-254v820h-180v209h180v86q0 182 94.5 281.5t271.5 99.5q66 0 121.5 -14t90.5 -37v-200q-65 41 -164 41q-83 0 -121.5 -40zM1218.5 1246q-38.5 -40 -38.5 -120v-97h304v-209h-304v-820h-254v820h-180v209h180v86
q0 182 94.5 281.5t271.5 99.5q66 0 121.5 -14t90.5 -37v-200q-65 41 -164 41q-83 0 -121.5 -40zM1657 1475h254v-1475h-254v1475z" />
    <glyph glyph-name="fi" unicode="fi" horiz-adv-x="1352" 
d="M511.5 1246q-38.5 -40 -38.5 -120v-97h304v-209h-304v-820h-254v820h-180v209h180v86q0 182 94.5 281.5t271.5 99.5q66 0 121.5 -14t90.5 -37v-200q-65 41 -164 41q-83 0 -121.5 -40zM1000 1205q-35 19 -55 52.5t-20 74.5q0 61 43.5 101.5t108.5 40.5q66 0 108 -40
t42 -102q0 -63 -42.5 -104.5t-107.5 -41.5q-42 0 -77 19zM950 1029h254v-1029h-254v1029z" />
    <glyph glyph-name="fl" unicode="fl" horiz-adv-x="1352" 
d="M511.5 1246q-38.5 -40 -38.5 -120v-97h304v-209h-304v-820h-254v820h-180v209h180v86q0 182 94.5 281.5t271.5 99.5q66 0 121.5 -14t90.5 -37v-200q-65 41 -164 41q-83 0 -121.5 -40zM950 1475h254v-1475h-254v1475z" />
    <glyph glyph-name=".notdef" horiz-adv-x="1287" 
d="M165 1434h957v-1434h-957v1434zM942 175v1083h-597v-1083h597z" />
    <glyph glyph-name="NULL" horiz-adv-x="1229" 
 />
    <glyph glyph-name="nonmarkingreturn" unicode="&#xd;" horiz-adv-x="1229" 
 />
    <glyph glyph-name="space" unicode=" " horiz-adv-x="527" 
 />
    <glyph glyph-name="A" unicode="A" horiz-adv-x="1389" 
d="M961 341h-540l-106 -341h-273l471 1434h362l474 -1434h-280zM896 549l-207 655l-204 -655h411z" />
    <glyph glyph-name="Aacute" unicode="&#xc1;" horiz-adv-x="1389" 
d="M961 341h-540l-106 -341h-273l471 1434h362l474 -1434h-280zM896 549l-207 655l-204 -655h411zM754 1858h249l-215 -308h-197z" />
    <glyph glyph-name="Abreve" unicode="&#x102;" horiz-adv-x="1389" 
d="M961 341h-540l-106 -341h-273l471 1434h362l474 -1434h-280zM896 549l-207 655l-204 -655h411zM517 1570.5q-80 36.5 -129.5 110t-52.5 177.5h174q5 -75 54 -120t130 -45q80 0 128 44.5t53 120.5h174q-3 -105 -52 -178t-128.5 -109.5t-174.5 -36.5q-96 0 -176 36.5z" />
    <glyph glyph-name="Acircumflex" unicode="&#xc2;" horiz-adv-x="1389" 
d="M961 341h-540l-106 -341h-273l471 1434h362l474 -1434h-280zM896 549l-207 655l-204 -655h411zM851 1550l-160 179l-156 -179h-196l241 308h228l241 -308h-198z" />
    <glyph glyph-name="Adieresis" unicode="&#xc4;" horiz-adv-x="1389" 
d="M961 341h-540l-106 -341h-273l471 1434h362l474 -1434h-280zM896 549l-207 655l-204 -655h411zM394 1556q-33 20 -52.5 52.5t-19.5 70.5t19 70t52.5 50t72.5 18t71.5 -18t51.5 -50t19 -70t-19 -71t-51.5 -52.5t-71.5 -19.5t-72 20zM850.5 1556q-32.5 20 -52 52.5
t-19.5 70.5t19 70t52 50t72 18q61 0 101.5 -39.5t40.5 -98.5q0 -38 -18.5 -71t-51.5 -52.5t-72 -19.5t-71.5 20z" />
    <glyph glyph-name="uni0226" unicode="&#x226;" horiz-adv-x="1389" 
d="M961 341h-540l-106 -341h-273l471 1434h362l474 -1434h-280zM896 549l-207 655l-204 -655h411zM614 1559.5q-36 20.5 -57 56.5t-21 78t21 76t57 54t79 20t78.5 -19.5t56 -54t20.5 -76.5t-20.5 -78t-56 -56.5t-78.5 -20.5t-79 20.5z" />
    <glyph glyph-name="uni1EA0" unicode="&#x1ea0;" horiz-adv-x="1389" 
d="M961 341h-540l-106 -341h-273l471 1434h362l474 -1434h-280zM896 549l-207 655l-204 -655h411zM615 -372.5q-36 20.5 -57 56.5t-21 78t21 76t57 54t79 20t78.5 -19.5t56 -54t20.5 -76.5t-20.5 -78t-56 -56.5t-78.5 -20.5t-79 20.5z" />
    <glyph glyph-name="Agrave" unicode="&#xc0;" horiz-adv-x="1389" 
d="M961 341h-540l-106 -341h-273l471 1434h362l474 -1434h-280zM896 549l-207 655l-204 -655h411zM655 1550l-215 308h249l163 -308h-197z" />
    <glyph glyph-name="Amacron" unicode="&#x100;" horiz-adv-x="1389" 
d="M961 341h-540l-106 -341h-273l471 1434h362l474 -1434h-280zM896 549l-207 655l-204 -655h411zM306 1744h772v-176h-772v176z" />
    <glyph glyph-name="Aogonek" unicode="&#x104;" horiz-adv-x="1389" 
d="M961 341h-540l-106 -341h-273l471 1434h362l474 -1434h-280zM896 549l-207 655l-204 -655h411zM1037 -401q-53 27 -80.5 75t-27.5 111q0 73 39.5 132t115.5 93t181 34l32 -44q-107 -10 -164 -58.5t-57 -116.5q0 -58 34.5 -90t90.5 -32q35 0 68.5 10.5t54.5 23.5v-129
q-79 -36 -161 -36q-73 0 -126 27z" />
    <glyph glyph-name="Aring" unicode="&#xc5;" horiz-adv-x="1389" 
d="M961 341h-540l-106 -341h-273l471 1434h362l474 -1434h-280zM896 549l-207 655l-204 -655h411zM571 1538q-56 32 -88.5 87t-32.5 119q0 65 32.5 118.5t88.5 84t122 30.5q68 0 123 -30.5t87 -84t32 -118.5t-32 -119.5t-87.5 -86.5t-122.5 -32q-66 0 -122 32zM777.5 1656
q33.5 36 33.5 88q0 50 -33.5 84.5t-84.5 34.5q-52 0 -85 -34.5t-33 -84.5q0 -53 33 -88.5t85 -35.5q51 0 84.5 36z" />
    <glyph glyph-name="Aringacute" unicode="&#x1fa;" horiz-adv-x="1389" 
d="M961 341h-540l-106 -341h-273l471 1434h362l474 -1434h-280zM896 549l-207 655l-204 -655h411zM761 2239h210l-195 -206h-157zM571 1538q-56 32 -88.5 87t-32.5 119q0 65 32.5 118.5t88.5 84t122 30.5q68 0 123 -30.5t87 -84t32 -118.5t-32 -119.5t-87.5 -86.5
t-122.5 -32q-66 0 -122 32zM777.5 1656q33.5 36 33.5 88q0 50 -33.5 84.5t-84.5 34.5q-52 0 -85 -34.5t-33 -84.5q0 -53 33 -88.5t85 -35.5q51 0 84.5 36z" />
    <glyph glyph-name="Atilde" unicode="&#xc3;" horiz-adv-x="1389" 
d="M961 341h-540l-106 -341h-273l471 1434h362l474 -1434h-280zM896 549l-207 655l-204 -655h411zM351.5 1776q60.5 70 169.5 70q58 0 102.5 -18.5t103.5 -54.5q44 -26 71.5 -38.5t56.5 -12.5q54 0 79.5 27.5t23.5 78.5h145q1 -129 -58.5 -198.5t-167.5 -69.5
q-59 0 -105 18.5t-106 52.5q-42 25 -70.5 37.5t-57.5 12.5q-54 0 -78 -27t-25 -78h-143q-1 130 59.5 200z" />
    <glyph glyph-name="AE" unicode="&#xc6;" horiz-adv-x="1989" 
d="M1878 232v-232h-931v341h-487l-190 -341h-290l830 1434h1059v-233h-658v-343h615v-217h-615v-409h667zM947 549v663l-370 -663h370z" />
    <glyph glyph-name="AEacute" unicode="&#x1fc;" horiz-adv-x="1989" 
d="M1878 232v-232h-931v341h-487l-190 -341h-290l830 1434h1059v-233h-658v-343h615v-217h-615v-409h667zM947 549v663l-370 -663h370zM1306 1858h249l-215 -308h-197z" />
    <glyph glyph-name="uni01E2" unicode="&#x1e2;" horiz-adv-x="1989" 
d="M1878 232v-232h-931v341h-487l-190 -341h-290l830 1434h1059v-233h-658v-343h615v-217h-615v-409h667zM947 549v663l-370 -663h370zM858 1744h772v-176h-772v176z" />
    <glyph glyph-name="B" unicode="B" horiz-adv-x="1326" 
d="M1163.5 639q68.5 -95 68.5 -228q0 -119 -57 -212t-167.5 -146t-265.5 -53h-561v1434h583q129 0 223 -48.5t143.5 -132.5t49.5 -189q0 -111 -55.5 -188t-158.5 -107q129 -35 197.5 -130zM445 1211v-387h270q97 0 148 51.5t51 138.5q0 92 -54.5 144.5t-154.5 52.5h-260z
M893 276q65 56 65 155q0 96 -60.5 154t-173.5 58h-279v-423h256q127 0 192 56z" />
    <glyph glyph-name="C" unicode="C" horiz-adv-x="1386" 
d="M442 58q-171 99 -261 270t-90 382q0 221 95 395t267 272t395 98q136 0 249.5 -35t193.5 -89v-267q-180 143 -407 143q-156 0 -273 -65t-180 -180t-63 -262q0 -148 63 -264t181 -182t275 -66q117 0 223.5 38.5t186.5 99.5v-256q-88 -63 -205 -97t-245 -34q-234 0 -405 99z
" />
    <glyph glyph-name="Cacute" unicode="&#x106;" horiz-adv-x="1386" 
d="M442 58q-171 99 -261 270t-90 382q0 221 95 395t267 272t395 98q136 0 249.5 -35t193.5 -89v-267q-180 143 -407 143q-156 0 -273 -65t-180 -180t-63 -262q0 -148 63 -264t181 -182t275 -66q117 0 223.5 38.5t186.5 99.5v-256q-88 -63 -205 -97t-245 -34q-234 0 -405 99z
M891 1858h249l-215 -308h-197z" />
    <glyph glyph-name="Ccaron" unicode="&#x10c;" horiz-adv-x="1386" 
d="M442 58q-171 99 -261 270t-90 382q0 221 95 395t267 272t395 98q136 0 249.5 -35t193.5 -89v-267q-180 143 -407 143q-156 0 -273 -65t-180 -180t-63 -262q0 -148 63 -264t181 -182t275 -66q117 0 223.5 38.5t186.5 99.5v-256q-88 -63 -205 -97t-245 -34q-234 0 -405 99z
M1186 1858l-241 -308h-228l-241 308h196l156 -179l160 179h198z" />
    <glyph glyph-name="Ccedilla" unicode="&#xc7;" horiz-adv-x="1386" 
d="M442 58q-171 99 -261 270t-90 382q0 221 95 395t267 272t395 98q136 0 249.5 -35t193.5 -89v-267q-180 143 -407 143q-156 0 -273 -65t-180 -180t-63 -262q0 -148 63 -264t181 -182t275 -66q117 0 223.5 38.5t186.5 99.5v-256q-88 -63 -205 -97t-245 -34q-234 0 -405 99z
M1015 -124q51 -48 51 -124q0 -53 -26.5 -94t-77 -64.5t-119.5 -23.5q-86 0 -165 45v136q26 -22 64.5 -37.5t84.5 -15.5q45 0 69 17.5t24 47.5q0 28 -25.5 43.5t-76.5 15.5h-64v188h107v-86h13q90 0 141 -48z" />
    <glyph glyph-name="Ccircumflex" unicode="&#x108;" horiz-adv-x="1386" 
d="M442 58q-171 99 -261 270t-90 382q0 221 95 395t267 272t395 98q136 0 249.5 -35t193.5 -89v-267q-180 143 -407 143q-156 0 -273 -65t-180 -180t-63 -262q0 -148 63 -264t181 -182t275 -66q117 0 223.5 38.5t186.5 99.5v-256q-88 -63 -205 -97t-245 -34q-234 0 -405 99z
M988 1550l-160 179l-156 -179h-196l241 308h228l241 -308h-198z" />
    <glyph glyph-name="Cdotaccent" unicode="&#x10a;" horiz-adv-x="1386" 
d="M442 58q-171 99 -261 270t-90 382q0 221 95 395t267 272t395 98q136 0 249.5 -35t193.5 -89v-267q-180 143 -407 143q-156 0 -273 -65t-180 -180t-63 -262q0 -148 63 -264t181 -182t275 -66q117 0 223.5 38.5t186.5 99.5v-256q-88 -63 -205 -97t-245 -34q-234 0 -405 99z
M751 1559.5q-36 20.5 -57 56.5t-21 78t21 76t57 54t79 20t78.5 -19.5t56 -54t20.5 -76.5t-20.5 -78t-56 -56.5t-78.5 -20.5t-79 20.5z" />
    <glyph glyph-name="D" unicode="D" horiz-adv-x="1499" 
d="M181 1434h525q224 0 381.5 -89t237.5 -249.5t80 -373.5t-84.5 -376t-249.5 -254.5t-400 -91.5h-490v1434zM669 239q151 0 254 59t154 167.5t51 254.5q0 224 -109.5 349t-332.5 125h-241v-955h224z" />
    <glyph glyph-name="Eth" unicode="&#xd0;" horiz-adv-x="1499" 
d="M181 1434h525q224 0 381.5 -89t237.5 -249.5t80 -373.5t-84.5 -376t-249.5 -254.5t-400 -91.5h-490v1434zM669 239q151 0 254 59t154 167.5t51 254.5q0 224 -109.5 349t-332.5 125h-241v-955h224zM12 794h716v-155h-716v155z" />
    <glyph glyph-name="Dcaron" unicode="&#x10e;" horiz-adv-x="1499" 
d="M181 1434h525q224 0 381.5 -89t237.5 -249.5t80 -373.5t-84.5 -376t-249.5 -254.5t-400 -91.5h-490v1434zM669 239q151 0 254 59t154 167.5t51 254.5q0 224 -109.5 349t-332.5 125h-241v-955h224zM1113 1858l-241 -308h-228l-241 308h196l156 -179l160 179h198z" />
    <glyph glyph-name="Dcroat" unicode="&#x110;" horiz-adv-x="1499" 
d="M181 1434h525q224 0 381.5 -89t237.5 -249.5t80 -373.5t-84.5 -376t-249.5 -254.5t-400 -91.5h-490v1434zM669 239q151 0 254 59t154 167.5t51 254.5q0 224 -109.5 349t-332.5 125h-241v-955h224zM12 794h716v-155h-716v155z" />
    <glyph glyph-name="E" unicode="E" horiz-adv-x="1223" 
d="M1112 232v-232h-931v1434h922v-233h-658v-343h615v-217h-615v-409h667z" />
    <glyph glyph-name="Eacute" unicode="&#xc9;" horiz-adv-x="1223" 
d="M1112 232v-232h-931v1434h922v-233h-658v-343h615v-217h-615v-409h667zM720 1858h249l-215 -308h-197z" />
    <glyph glyph-name="Ebreve" unicode="&#x114;" horiz-adv-x="1223" 
d="M1112 232v-232h-931v1434h922v-233h-658v-343h615v-217h-615v-409h667zM483 1570.5q-80 36.5 -129.5 110t-52.5 177.5h174q5 -75 54 -120t130 -45q80 0 128 44.5t53 120.5h174q-3 -105 -52 -178t-128.5 -109.5t-174.5 -36.5q-96 0 -176 36.5z" />
    <glyph glyph-name="Ecaron" unicode="&#x11a;" horiz-adv-x="1223" 
d="M1112 232v-232h-931v1434h922v-233h-658v-343h615v-217h-615v-409h667zM1015 1858l-241 -308h-228l-241 308h196l156 -179l160 179h198z" />
    <glyph glyph-name="Ecircumflex" unicode="&#xca;" horiz-adv-x="1223" 
d="M1112 232v-232h-931v1434h922v-233h-658v-343h615v-217h-615v-409h667zM817 1550l-160 179l-156 -179h-196l241 308h228l241 -308h-198z" />
    <glyph glyph-name="Edieresis" unicode="&#xcb;" horiz-adv-x="1223" 
d="M1112 232v-232h-931v1434h922v-233h-658v-343h615v-217h-615v-409h667zM360 1556q-33 20 -52.5 52.5t-19.5 70.5t19 70t52.5 50t72.5 18t71.5 -18t51.5 -50t19 -70t-19 -71t-51.5 -52.5t-71.5 -19.5t-72 20zM816.5 1556q-32.5 20 -52 52.5t-19.5 70.5t19 70t52 50t72 18
q61 0 101.5 -39.5t40.5 -98.5q0 -38 -18.5 -71t-51.5 -52.5t-72 -19.5t-71.5 20z" />
    <glyph glyph-name="Edotaccent" unicode="&#x116;" horiz-adv-x="1223" 
d="M1112 232v-232h-931v1434h922v-233h-658v-343h615v-217h-615v-409h667zM580 1559.5q-36 20.5 -57 56.5t-21 78t21 76t57 54t79 20t78.5 -19.5t56 -54t20.5 -76.5t-20.5 -78t-56 -56.5t-78.5 -20.5t-79 20.5z" />
    <glyph glyph-name="uni1EB8" unicode="&#x1eb8;" horiz-adv-x="1223" 
d="M1112 232v-232h-931v1434h922v-233h-658v-343h615v-217h-615v-409h667zM577 -372.5q-36 20.5 -57 56.5t-21 78t21 76t57 54t79 20t78.5 -19.5t56 -54t20.5 -76.5t-20.5 -78t-56 -56.5t-78.5 -20.5t-79 20.5z" />
    <glyph glyph-name="Egrave" unicode="&#xc8;" horiz-adv-x="1223" 
d="M1112 232v-232h-931v1434h922v-233h-658v-343h615v-217h-615v-409h667zM621 1550l-215 308h249l163 -308h-197z" />
    <glyph glyph-name="Emacron" unicode="&#x112;" horiz-adv-x="1223" 
d="M1112 232v-232h-931v1434h922v-233h-658v-343h615v-217h-615v-409h667zM272 1744h772v-176h-772v176z" />
    <glyph glyph-name="Eogonek" unicode="&#x118;" horiz-adv-x="1223" 
d="M1112 232v-232h-931v1434h922v-233h-658v-343h615v-217h-615v-409h667zM826 -401q-53 27 -80.5 75t-27.5 111q0 73 39.5 132t115.5 93t181 34l32 -44q-107 -10 -164 -58.5t-57 -116.5q0 -58 34.5 -90t90.5 -32q35 0 68.5 10.5t54.5 23.5v-129q-79 -36 -161 -36
q-73 0 -126 27z" />
    <glyph glyph-name="F" unicode="F" horiz-adv-x="1173" 
d="M445 1201v-349h615v-219h-615v-633h-264v1434h922v-233h-658z" />
    <glyph glyph-name="G" unicode="G" horiz-adv-x="1596" 
d="M1505 812v-127q0 -232 -80.5 -395t-231 -247t-358.5 -84q-219 0 -388.5 98.5t-263 270.5t-93.5 385t92 386t268.5 274.5t420.5 101.5q160 0 288 -42.5t219 -113.5v-265q-87 73 -210 121.5t-278 48.5q-172 0 -289.5 -66.5t-175 -182t-57.5 -263.5q0 -147 58.5 -262.5
t166 -180.5t249.5 -65q187 0 292 101.5t117 287.5h-650l46 219h858z" />
    <glyph glyph-name="Gbreve" unicode="&#x11e;" horiz-adv-x="1596" 
d="M1505 812v-127q0 -232 -80.5 -395t-231 -247t-358.5 -84q-219 0 -388.5 98.5t-263 270.5t-93.5 385t92 386t268.5 274.5t420.5 101.5q160 0 288 -42.5t219 -113.5v-265q-87 73 -210 121.5t-278 48.5q-172 0 -289.5 -66.5t-175 -182t-57.5 -263.5q0 -147 58.5 -262.5
t166 -180.5t249.5 -65q187 0 292 101.5t117 287.5h-650l46 219h858zM674 1570.5q-80 36.5 -129.5 110t-52.5 177.5h174q5 -75 54 -120t130 -45q80 0 128 44.5t53 120.5h174q-3 -105 -52 -178t-128.5 -109.5t-174.5 -36.5q-96 0 -176 36.5z" />
    <glyph glyph-name="Gcircumflex" unicode="&#x11c;" horiz-adv-x="1596" 
d="M1505 812v-127q0 -232 -80.5 -395t-231 -247t-358.5 -84q-219 0 -388.5 98.5t-263 270.5t-93.5 385t92 386t268.5 274.5t420.5 101.5q160 0 288 -42.5t219 -113.5v-265q-87 73 -210 121.5t-278 48.5q-172 0 -289.5 -66.5t-175 -182t-57.5 -263.5q0 -147 58.5 -262.5
t166 -180.5t249.5 -65q187 0 292 101.5t117 287.5h-650l46 219h858zM1008 1550l-160 179l-156 -179h-196l241 308h228l241 -308h-198z" />
    <glyph glyph-name="uni0122" unicode="&#x122;" horiz-adv-x="1596" 
d="M1505 812v-127q0 -232 -80.5 -395t-231 -247t-358.5 -84q-219 0 -388.5 98.5t-263 270.5t-93.5 385t92 386t268.5 274.5t420.5 101.5q160 0 288 -42.5t219 -113.5v-265q-87 73 -210 121.5t-278 48.5q-172 0 -289.5 -66.5t-175 -182t-57.5 -263.5q0 -147 58.5 -262.5
t166 -180.5t249.5 -65q187 0 292 101.5t117 287.5h-650l46 219h858zM723 -119h264l-190 -353h-169z" />
    <glyph glyph-name="Gdotaccent" unicode="&#x120;" horiz-adv-x="1596" 
d="M1505 812v-127q0 -232 -80.5 -395t-231 -247t-358.5 -84q-219 0 -388.5 98.5t-263 270.5t-93.5 385t92 386t268.5 274.5t420.5 101.5q160 0 288 -42.5t219 -113.5v-265q-87 73 -210 121.5t-278 48.5q-172 0 -289.5 -66.5t-175 -182t-57.5 -263.5q0 -147 58.5 -262.5
t166 -180.5t249.5 -65q187 0 292 101.5t117 287.5h-650l46 219h858zM771 1559.5q-36 20.5 -57 56.5t-21 78t21 76t57 54t79 20t78.5 -19.5t56 -54t20.5 -76.5t-20.5 -78t-56 -56.5t-78.5 -20.5t-79 20.5z" />
    <glyph glyph-name="H" unicode="H" horiz-adv-x="1545" 
d="M1364 1434v-1434h-264v608h-655v-608h-264v1434h264v-586h655v586h264z" />
    <glyph glyph-name="Hbar" unicode="&#x126;" horiz-adv-x="1610" 
d="M1563 1053h-167v-1053h-264v608h-655v-608h-264v1053h-166v166h166v215h264v-215h655v215h264v-215h167v-166zM1132 1053h-655v-205h655v205z" />
    <glyph glyph-name="Hcircumflex" unicode="&#x124;" horiz-adv-x="1545" 
d="M1364 1434v-1434h-264v608h-655v-608h-264v1434h264v-586h655v586h264zM931 1550l-160 179l-156 -179h-196l241 308h228l241 -308h-198z" />
    <glyph glyph-name="I" unicode="I" horiz-adv-x="627" 
d="M181 1434h264v-1434h-264v1434z" />
    <glyph glyph-name="IJ" unicode="&#x132;" horiz-adv-x="1559" 
d="M181 1434h264v-1434h-264v1434zM789.5 -18q-78.5 23 -123.5 57v252q49 -38 106 -60t139 -22q101 0 158.5 63t57.5 188v974h264v-1004q0 -156 -54.5 -261.5t-152 -157.5t-228.5 -52q-88 0 -166.5 23z" />
    <glyph glyph-name="Iacute" unicode="&#xcd;" horiz-adv-x="627" 
d="M181 1434h264v-1434h-264v1434zM375 1858h249l-215 -308h-197z" />
    <glyph glyph-name="Ibreve" unicode="&#x12c;" horiz-adv-x="627" 
d="M181 1434h264v-1434h-264v1434zM138 1570.5q-80 36.5 -129.5 110t-52.5 177.5h174q5 -75 54 -120t130 -45q80 0 128 44.5t53 120.5h174q-3 -105 -52 -178t-128.5 -109.5t-174.5 -36.5q-96 0 -176 36.5z" />
    <glyph glyph-name="Icircumflex" unicode="&#xce;" horiz-adv-x="627" 
d="M181 1434h264v-1434h-264v1434zM472 1550l-160 179l-156 -179h-196l241 308h228l241 -308h-198z" />
    <glyph glyph-name="Idieresis" unicode="&#xcf;" horiz-adv-x="627" 
d="M181 1434h264v-1434h-264v1434zM15 1556q-33 20 -52.5 52.5t-19.5 70.5t19 70t52.5 50t72.5 18t71.5 -18t51.5 -50t19 -70t-19 -71t-51.5 -52.5t-71.5 -19.5t-72 20zM471.5 1556q-32.5 20 -52 52.5t-19.5 70.5t19 70t52 50t72 18q61 0 101.5 -39.5t40.5 -98.5
q0 -38 -18.5 -71t-51.5 -52.5t-72 -19.5t-71.5 20z" />
    <glyph glyph-name="Idotaccent" unicode="&#x130;" horiz-adv-x="627" 
d="M181 1434h264v-1434h-264v1434zM235 1559.5q-36 20.5 -57 56.5t-21 78t21 76t57 54t79 20t78.5 -19.5t56 -54t20.5 -76.5t-20.5 -78t-56 -56.5t-78.5 -20.5t-79 20.5z" />
    <glyph glyph-name="uni1ECA" unicode="&#x1eca;" horiz-adv-x="627" 
d="M181 1434h264v-1434h-264v1434zM235 -372.5q-36 20.5 -57 56.5t-21 78t21 76t57 54t79 20t78.5 -19.5t56 -54t20.5 -76.5t-20.5 -78t-56 -56.5t-78.5 -20.5t-79 20.5z" />
    <glyph glyph-name="Igrave" unicode="&#xcc;" horiz-adv-x="627" 
d="M181 1434h264v-1434h-264v1434zM276 1550l-215 308h249l163 -308h-197z" />
    <glyph glyph-name="Imacron" unicode="&#x12a;" horiz-adv-x="627" 
d="M181 1434h264v-1434h-264v1434zM-123.246 1744h656.181v-176h-656.181v176z" />
    <glyph glyph-name="Iogonek" unicode="&#x12e;" horiz-adv-x="627" 
d="M181 1434h264v-1434h-264v1434zM142 -401q-53 27 -80.5 75t-27.5 111q0 73 39.5 132t115.5 93t181 34l32 -44q-107 -10 -164 -58.5t-57 -116.5q0 -58 34.5 -90t90.5 -32q35 0 68.5 10.5t54.5 23.5v-129q-79 -36 -161 -36q-73 0 -126 27z" />
    <glyph glyph-name="Itilde" unicode="&#x128;" horiz-adv-x="627" 
d="M181 1434h264v-1434h-264v1434zM-27.5 1776q60.5 70 169.5 70q58 0 102.5 -18.5t103.5 -54.5q44 -26 71.5 -38.5t56.5 -12.5q54 0 79.5 27.5t23.5 78.5h145q1 -129 -58.5 -198.5t-167.5 -69.5q-59 0 -105 18.5t-106 52.5q-42 25 -70.5 37.5t-57.5 12.5q-54 0 -78 -27
t-25 -78h-143q-1 130 59.5 200z" />
    <glyph glyph-name="J" unicode="J" horiz-adv-x="932" 
d="M162.5 -18q-78.5 23 -123.5 57v252q49 -38 106 -60t139 -22q101 0 158.5 63t57.5 188v974h264v-1004q0 -156 -54.5 -261.5t-152 -157.5t-228.5 -52q-88 0 -166.5 23z" />
    <glyph glyph-name="Jcircumflex" unicode="&#x134;" horiz-adv-x="932" 
d="M162.5 -18q-78.5 23 -123.5 57v252q49 -38 106 -60t139 -22q101 0 158.5 63t57.5 188v974h264v-1004q0 -156 -54.5 -261.5t-152 -157.5t-228.5 -52q-88 0 -166.5 23zM791 1550l-160 179l-156 -179h-196l241 308h228l241 -308h-198z" />
    <glyph glyph-name="K" unicode="K" horiz-adv-x="1346" 
d="M1003 0l-558 707v-707h-264v1434h264v-630l547 630h334l-610 -663l629 -771h-342z" />
    <glyph glyph-name="uni0136" unicode="&#x136;" horiz-adv-x="1346" 
d="M1003 0l-558 707v-707h-264v1434h264v-630l547 630h334l-610 -663l629 -771h-342zM536 -119h264l-190 -353h-169z" />
    <glyph glyph-name="L" unicode="L" horiz-adv-x="1109" 
d="M1079 246v-246h-898v1434h264v-1188h634z" />
    <glyph glyph-name="Lacute" unicode="&#x139;" horiz-adv-x="1109" 
d="M1079 246v-246h-898v1434h264v-1188h634zM392 1858h249l-215 -308h-197z" />
    <glyph glyph-name="Lcaron" unicode="&#x13d;" horiz-adv-x="1122" 
d="M1079 246v-246h-898v1434h264v-1188h634zM804 963h-180l108 471h275z" />
    <glyph glyph-name="uni013B" unicode="&#x13b;" horiz-adv-x="1109" 
d="M1079 246v-246h-898v1434h264v-1188h634zM447 -119h264l-190 -353h-169z" />
    <glyph glyph-name="Ldot" unicode="&#x13f;" horiz-adv-x="1118" 
d="M1079 246v-246h-898v1434h264v-1188h634zM713 666q-39 22 -61 60.5t-22 85.5q0 46 22 83.5t60 59.5t86 22t86 -21t59.5 -58.5t21.5 -85.5q0 -47 -21.5 -85.5t-59 -60.5t-84.5 -22q-48 0 -87 22z" />
    <glyph glyph-name="Lslash" unicode="&#x141;" horiz-adv-x="1167" 
d="M1137 246v-246h-898v619l-189 -116v203l189 116v612h264v-450l217 133v-203l-217 -133v-535h634z" />
    <glyph glyph-name="M" unicode="M" horiz-adv-x="1939" 
d="M1545 0l-86 1180l-357 -1180h-290l-353 1192l-72 -1192h-247l90 1434h406l329 -1107l340 1107h391l114 -1434h-265z" />
    <glyph glyph-name="N" unicode="N" horiz-adv-x="1590" 
d="M1409 1434v-1434h-337l-642 1146v-1146h-249v1434h366l613 -1108v1108h249z" />
    <glyph glyph-name="Nacute" unicode="&#x143;" horiz-adv-x="1590" 
d="M1409 1434v-1434h-337l-642 1146v-1146h-249v1434h366l613 -1108v1108h249zM849 1858h249l-215 -308h-197z" />
    <glyph glyph-name="Ncaron" unicode="&#x147;" horiz-adv-x="1590" 
d="M1409 1434v-1434h-337l-642 1146v-1146h-249v1434h366l613 -1108v1108h249zM1144 1858l-241 -308h-228l-241 308h196l156 -179l160 179h198z" />
    <glyph glyph-name="uni0145" unicode="&#x145;" horiz-adv-x="1590" 
d="M1409 1434v-1434h-337l-642 1146v-1146h-249v1434h366l613 -1108v1108h249zM657 -119h264l-190 -353h-169z" />
    <glyph glyph-name="Eng" unicode="&#x14a;" horiz-adv-x="1590" 
d="M1409 1434v-1373q0 -156 -54.5 -261.5t-152 -157.5t-228.5 -52q-86 0 -163 27.5t-121 68.5v241q48 -45 105.5 -71t139.5 -26q79 0 133.5 32t77.5 95l-716 1175v-1132h-249v1434h361l618 -1042v1042h249z" />
    <glyph glyph-name="Ntilde" unicode="&#xd1;" horiz-adv-x="1590" 
d="M1409 1434v-1434h-337l-642 1146v-1146h-249v1434h366l613 -1108v1108h249zM446.5 1776q60.5 70 169.5 70q58 0 102.5 -18.5t103.5 -54.5q44 -26 71.5 -38.5t56.5 -12.5q54 0 79.5 27.5t23.5 78.5h145q1 -129 -58.5 -198.5t-167.5 -69.5q-59 0 -105 18.5t-106 52.5
q-42 25 -70.5 37.5t-57.5 12.5q-54 0 -78 -27t-25 -78h-143q-1 130 59.5 200z" />
    <glyph glyph-name="O" unicode="O" horiz-adv-x="1643" 
d="M443.5 56.5q-166.5 97.5 -259.5 270t-93 389.5q0 216 93 389.5t259.5 271.5t377.5 98q212 0 378.5 -98t259.5 -271.5t93 -389.5q0 -217 -93 -389.5t-259.5 -270t-378.5 -97.5q-211 0 -377.5 97.5zM1061.5 276q102.5 65 158 179.5t55.5 259.5t-55.5 260.5t-158.5 181.5
t-240 66t-239.5 -66t-158 -181.5t-55.5 -260.5q0 -144 55.5 -259t158 -180t239.5 -65q138 0 240.5 65z" />
    <glyph glyph-name="Oacute" unicode="&#xd3;" horiz-adv-x="1643" 
d="M443.5 56.5q-166.5 97.5 -259.5 270t-93 389.5q0 216 93 389.5t259.5 271.5t377.5 98q212 0 378.5 -98t259.5 -271.5t93 -389.5q0 -217 -93 -389.5t-259.5 -270t-378.5 -97.5q-211 0 -377.5 97.5zM1061.5 276q102.5 65 158 179.5t55.5 259.5t-55.5 260.5t-158.5 181.5
t-240 66t-239.5 -66t-158 -181.5t-55.5 -260.5q0 -144 55.5 -259t158 -180t239.5 -65q138 0 240.5 65zM883 1858h249l-215 -308h-197z" />
    <glyph glyph-name="Obreve" unicode="&#x14e;" horiz-adv-x="1643" 
d="M443.5 56.5q-166.5 97.5 -259.5 270t-93 389.5q0 216 93 389.5t259.5 271.5t377.5 98q212 0 378.5 -98t259.5 -271.5t93 -389.5q0 -217 -93 -389.5t-259.5 -270t-378.5 -97.5q-211 0 -377.5 97.5zM1061.5 276q102.5 65 158 179.5t55.5 259.5t-55.5 260.5t-158.5 181.5
t-240 66t-239.5 -66t-158 -181.5t-55.5 -260.5q0 -144 55.5 -259t158 -180t239.5 -65q138 0 240.5 65zM646 1570.5q-80 36.5 -129.5 110t-52.5 177.5h174q5 -75 54 -120t130 -45q80 0 128 44.5t53 120.5h174q-3 -105 -52 -178t-128.5 -109.5t-174.5 -36.5q-96 0 -176 36.5z
" />
    <glyph glyph-name="Ocircumflex" unicode="&#xd4;" horiz-adv-x="1643" 
d="M443.5 56.5q-166.5 97.5 -259.5 270t-93 389.5q0 216 93 389.5t259.5 271.5t377.5 98q212 0 378.5 -98t259.5 -271.5t93 -389.5q0 -217 -93 -389.5t-259.5 -270t-378.5 -97.5q-211 0 -377.5 97.5zM1061.5 276q102.5 65 158 179.5t55.5 259.5t-55.5 260.5t-158.5 181.5
t-240 66t-239.5 -66t-158 -181.5t-55.5 -260.5q0 -144 55.5 -259t158 -180t239.5 -65q138 0 240.5 65zM980 1550l-160 179l-156 -179h-196l241 308h228l241 -308h-198z" />
    <glyph glyph-name="Odieresis" unicode="&#xd6;" horiz-adv-x="1643" 
d="M443.5 56.5q-166.5 97.5 -259.5 270t-93 389.5q0 216 93 389.5t259.5 271.5t377.5 98q212 0 378.5 -98t259.5 -271.5t93 -389.5q0 -217 -93 -389.5t-259.5 -270t-378.5 -97.5q-211 0 -377.5 97.5zM1061.5 276q102.5 65 158 179.5t55.5 259.5t-55.5 260.5t-158.5 181.5
t-240 66t-239.5 -66t-158 -181.5t-55.5 -260.5q0 -144 55.5 -259t158 -180t239.5 -65q138 0 240.5 65zM523 1556q-33 20 -52.5 52.5t-19.5 70.5t19 70t52.5 50t72.5 18t71.5 -18t51.5 -50t19 -70t-19 -71t-51.5 -52.5t-71.5 -19.5t-72 20zM979.5 1556q-32.5 20 -52 52.5
t-19.5 70.5t19 70t52 50t72 18q61 0 101.5 -39.5t40.5 -98.5q0 -38 -18.5 -71t-51.5 -52.5t-72 -19.5t-71.5 20z" />
    <glyph glyph-name="uni1ECC" unicode="&#x1ecc;" horiz-adv-x="1643" 
d="M443.5 56.5q-166.5 97.5 -259.5 270t-93 389.5q0 216 93 389.5t259.5 271.5t377.5 98q212 0 378.5 -98t259.5 -271.5t93 -389.5q0 -217 -93 -389.5t-259.5 -270t-378.5 -97.5q-211 0 -377.5 97.5zM1061.5 276q102.5 65 158 179.5t55.5 259.5t-55.5 260.5t-158.5 181.5
t-240 66t-239.5 -66t-158 -181.5t-55.5 -260.5q0 -144 55.5 -259t158 -180t239.5 -65q138 0 240.5 65zM743 -372.5q-36 20.5 -57 56.5t-21 78t21 76t57 54t79 20t78.5 -19.5t56 -54t20.5 -76.5t-20.5 -78t-56 -56.5t-78.5 -20.5t-79 20.5z" />
    <glyph glyph-name="Ograve" unicode="&#xd2;" horiz-adv-x="1643" 
d="M443.5 56.5q-166.5 97.5 -259.5 270t-93 389.5q0 216 93 389.5t259.5 271.5t377.5 98q212 0 378.5 -98t259.5 -271.5t93 -389.5q0 -217 -93 -389.5t-259.5 -270t-378.5 -97.5q-211 0 -377.5 97.5zM1061.5 276q102.5 65 158 179.5t55.5 259.5t-55.5 260.5t-158.5 181.5
t-240 66t-239.5 -66t-158 -181.5t-55.5 -260.5q0 -144 55.5 -259t158 -180t239.5 -65q138 0 240.5 65zM784 1550l-215 308h249l163 -308h-197z" />
    <glyph glyph-name="Ohungarumlaut" unicode="&#x150;" horiz-adv-x="1643" 
d="M443.5 56.5q-166.5 97.5 -259.5 270t-93 389.5q0 216 93 389.5t259.5 271.5t377.5 98q212 0 378.5 -98t259.5 -271.5t93 -389.5q0 -217 -93 -389.5t-259.5 -270t-378.5 -97.5q-211 0 -377.5 97.5zM1061.5 276q102.5 65 158 179.5t55.5 259.5t-55.5 260.5t-158.5 181.5
t-240 66t-239.5 -66t-158 -181.5t-55.5 -260.5q0 -144 55.5 -259t158 -180t239.5 -65q138 0 240.5 65zM712 1858h208l-225 -308h-166zM1045 1858h209l-225 -308h-166z" />
    <glyph glyph-name="Omacron" unicode="&#x14c;" horiz-adv-x="1643" 
d="M443.5 56.5q-166.5 97.5 -259.5 270t-93 389.5q0 216 93 389.5t259.5 271.5t377.5 98q212 0 378.5 -98t259.5 -271.5t93 -389.5q0 -217 -93 -389.5t-259.5 -270t-378.5 -97.5q-211 0 -377.5 97.5zM1061.5 276q102.5 65 158 179.5t55.5 259.5t-55.5 260.5t-158.5 181.5
t-240 66t-239.5 -66t-158 -181.5t-55.5 -260.5q0 -144 55.5 -259t158 -180t239.5 -65q138 0 240.5 65zM435 1744h772v-176h-772v176z" />
    <glyph glyph-name="Oslash" unicode="&#xd8;" horiz-adv-x="1643" 
d="M443.5 56.5q-166.5 97.5 -259.5 270t-93 389.5q0 216 93 389.5t259.5 271.5t377.5 98q212 0 378.5 -98t259.5 -271.5t93 -389.5q0 -217 -93 -389.5t-259.5 -270t-378.5 -97.5q-211 0 -377.5 97.5zM1061.5 276q102.5 65 158 179.5t55.5 259.5t-55.5 260.5t-158.5 181.5
t-240 66t-239.5 -66t-158 -181.5t-55.5 -260.5q0 -144 55.5 -259t158 -180t239.5 -65q138 0 240.5 65zM94 -16l1312 1563l133 -108l-1312 -1563z" />
    <glyph glyph-name="Oslashacute" unicode="&#x1fe;" horiz-adv-x="1643" 
d="M443.5 56.5q-166.5 97.5 -259.5 270t-93 389.5q0 216 93 389.5t259.5 271.5t377.5 98q212 0 378.5 -98t259.5 -271.5t93 -389.5q0 -217 -93 -389.5t-259.5 -270t-378.5 -97.5q-211 0 -377.5 97.5zM1061.5 276q102.5 65 158 179.5t55.5 259.5t-55.5 260.5t-158.5 181.5
t-240 66t-239.5 -66t-158 -181.5t-55.5 -260.5q0 -144 55.5 -259t158 -180t239.5 -65q138 0 240.5 65zM94 -16l1312 1563l133 -108l-1312 -1563zM883 1858h249l-215 -308h-197z" />
    <glyph glyph-name="Otilde" unicode="&#xd5;" horiz-adv-x="1643" 
d="M443.5 56.5q-166.5 97.5 -259.5 270t-93 389.5q0 216 93 389.5t259.5 271.5t377.5 98q212 0 378.5 -98t259.5 -271.5t93 -389.5q0 -217 -93 -389.5t-259.5 -270t-378.5 -97.5q-211 0 -377.5 97.5zM1061.5 276q102.5 65 158 179.5t55.5 259.5t-55.5 260.5t-158.5 181.5
t-240 66t-239.5 -66t-158 -181.5t-55.5 -260.5q0 -144 55.5 -259t158 -180t239.5 -65q138 0 240.5 65zM480.5 1776q60.5 70 169.5 70q58 0 102.5 -18.5t103.5 -54.5q44 -26 71.5 -38.5t56.5 -12.5q54 0 79.5 27.5t23.5 78.5h145q1 -129 -58.5 -198.5t-167.5 -69.5
q-59 0 -105 18.5t-106 52.5q-42 25 -70.5 37.5t-57.5 12.5q-54 0 -78 -27t-25 -78h-143q-1 130 59.5 200z" />
    <glyph glyph-name="OE" unicode="&#x152;" horiz-adv-x="2326" 
d="M2215 232v-232h-927v170q-82 -102 -201.5 -156.5t-272.5 -54.5q-207 0 -372 97.5t-258 270.5t-93 389t93.5 389t258 271.5t371.5 98.5q153 0 272.5 -54.5t201.5 -157.5v171h918v-233h-667v-343h629v-217h-629v-409h676zM1059.5 279.5q102.5 64.5 157.5 178.5t55 257
t-55 258t-157.5 180.5t-239.5 65.5q-135 0 -237 -65.5t-157 -180.5t-55 -258t55 -256.5t157 -178.5t237 -65q137 0 239.5 64.5z" />
    <glyph glyph-name="P" unicode="P" horiz-adv-x="1266" 
d="M984.5 1376.5q108.5 -57.5 167 -163.5t58.5 -249q0 -139 -60 -244t-175.5 -163.5t-275.5 -58.5h-254v-498h-264v1434h548q147 0 255.5 -57.5zM866 773q71 67 71 192q0 117 -67 179.5t-187 62.5h-238v-501h213q137 0 208 67z" />
    <glyph glyph-name="Thorn" unicode="&#xde;" horiz-adv-x="1290" 
d="M984.5 1177q108.5 -58 167 -165t58.5 -251q0 -140 -60 -246t-175.5 -165t-275.5 -59h-254v-291h-264v1434h264v-199h284q147 0 255.5 -58zM866 570q71 66 71 191q0 117 -66.5 179t-187.5 62h-238v-498h213q137 0 208 66z" />
    <glyph glyph-name="Q" unicode="Q" horiz-adv-x="1638" 
d="M1270 -104l-117 136q-152 -73 -332 -73q-211 0 -377.5 97.5t-259.5 270t-93 389.5q0 216 93 389.5t259.5 271.5t377.5 98q212 0 378.5 -98t259.5 -271.5t93 -389.5q0 -170 -58.5 -314.5t-164.5 -247.5l225 -258h-284zM977 236l-279 325h277l179 -206q59 68 90 160t31 200
q0 145 -55.5 260.5t-158.5 181.5t-240 66t-239.5 -66t-158 -181.5t-55.5 -260.5q0 -144 55.5 -259t158 -180t239.5 -65q83 0 156 25z" />
    <glyph glyph-name="R" unicode="R" horiz-adv-x="1331" 
d="M944 0l-499 648v-648h-264v1434h588q141 0 246.5 -53.5t162.5 -149.5t57 -222q0 -120 -53 -212t-153.5 -144.5t-239.5 -56.5l483 -596h-328zM445 766h243q132 0 200 58.5t68 165.5q0 102 -61.5 158t-177.5 56h-272v-438z" />
    <glyph glyph-name="Racute" unicode="&#x154;" horiz-adv-x="1331" 
d="M944 0l-499 648v-648h-264v1434h588q141 0 246.5 -53.5t162.5 -149.5t57 -222q0 -120 -53 -212t-153.5 -144.5t-239.5 -56.5l483 -596h-328zM445 766h243q132 0 200 58.5t68 165.5q0 102 -61.5 158t-177.5 56h-272v-438zM733 1858h249l-215 -308h-197z" />
    <glyph glyph-name="Rcaron" unicode="&#x158;" horiz-adv-x="1331" 
d="M944 0l-499 648v-648h-264v1434h588q141 0 246.5 -53.5t162.5 -149.5t57 -222q0 -120 -53 -212t-153.5 -144.5t-239.5 -56.5l483 -596h-328zM445 766h243q132 0 200 58.5t68 165.5q0 102 -61.5 158t-177.5 56h-272v-438zM1028 1858l-241 -308h-228l-241 308h196l156 -179
l160 179h198z" />
    <glyph glyph-name="uni0156" unicode="&#x156;" horiz-adv-x="1331" 
d="M944 0l-499 648v-648h-264v1434h588q141 0 246.5 -53.5t162.5 -149.5t57 -222q0 -120 -53 -212t-153.5 -144.5t-239.5 -56.5l483 -596h-328zM445 766h243q132 0 200 58.5t68 165.5q0 102 -61.5 158t-177.5 56h-272v-438zM531 -119h264l-190 -353h-169z" />
    <glyph glyph-name="S" unicode="S" horiz-adv-x="1182" 
d="M336.5 -2q-123.5 39 -230.5 119v260q98 -83 215 -130.5t243 -47.5q122 0 183.5 48t61.5 138q0 48 -19 81.5t-65 63.5t-132 66l-148 57q-171 65 -252.5 163.5t-81.5 240.5q0 126 59.5 220.5t171.5 146.5t265 52q132 0 241 -38t187 -97v-260q-92 76 -192.5 116.5
t-216.5 40.5q-118 0 -178 -43t-60 -124q0 -70 47.5 -114t154.5 -89l146 -56q129 -50 208.5 -109t116.5 -134t37 -173q0 -131 -61.5 -230t-176.5 -153t-271 -54q-129 0 -252.5 39z" />
    <glyph glyph-name="Sacute" unicode="&#x15a;" horiz-adv-x="1182" 
d="M336.5 -2q-123.5 39 -230.5 119v260q98 -83 215 -130.5t243 -47.5q122 0 183.5 48t61.5 138q0 48 -19 81.5t-65 63.5t-132 66l-148 57q-171 65 -252.5 163.5t-81.5 240.5q0 126 59.5 220.5t171.5 146.5t265 52q132 0 241 -38t187 -97v-260q-92 76 -192.5 116.5
t-216.5 40.5q-118 0 -178 -43t-60 -124q0 -70 47.5 -114t154.5 -89l146 -56q129 -50 208.5 -109t116.5 -134t37 -173q0 -131 -61.5 -230t-176.5 -153t-271 -54q-129 0 -252.5 39zM669 1858h249l-215 -308h-197z" />
    <glyph glyph-name="Scaron" unicode="&#x160;" horiz-adv-x="1182" 
d="M336.5 -2q-123.5 39 -230.5 119v260q98 -83 215 -130.5t243 -47.5q122 0 183.5 48t61.5 138q0 48 -19 81.5t-65 63.5t-132 66l-148 57q-171 65 -252.5 163.5t-81.5 240.5q0 126 59.5 220.5t171.5 146.5t265 52q132 0 241 -38t187 -97v-260q-92 76 -192.5 116.5
t-216.5 40.5q-118 0 -178 -43t-60 -124q0 -70 47.5 -114t154.5 -89l146 -56q129 -50 208.5 -109t116.5 -134t37 -173q0 -131 -61.5 -230t-176.5 -153t-271 -54q-129 0 -252.5 39zM964 1858l-241 -308h-228l-241 308h196l156 -179l160 179h198z" />
    <glyph glyph-name="Scedilla" unicode="&#x15e;" horiz-adv-x="1182" 
d="M336.5 -2q-123.5 39 -230.5 119v260q98 -83 215 -130.5t243 -47.5q122 0 183.5 48t61.5 138q0 48 -19 81.5t-65 63.5t-132 66l-148 57q-171 65 -252.5 163.5t-81.5 240.5q0 126 59.5 220.5t171.5 146.5t265 52q132 0 241 -38t187 -97v-260q-92 76 -192.5 116.5
t-216.5 40.5q-118 0 -178 -43t-60 -124q0 -70 47.5 -114t154.5 -89l146 -56q129 -50 208.5 -109t116.5 -134t37 -173q0 -131 -61.5 -230t-176.5 -153t-271 -54q-129 0 -252.5 39zM766 -124q51 -48 51 -124q0 -53 -26.5 -94t-77 -64.5t-119.5 -23.5q-86 0 -165 45v136
q26 -22 64.5 -37.5t84.5 -15.5q45 0 69 17.5t24 47.5q0 28 -25.5 43.5t-76.5 15.5h-64v188h107v-86h13q90 0 141 -48z" />
    <glyph glyph-name="Scircumflex" unicode="&#x15c;" horiz-adv-x="1182" 
d="M336.5 -2q-123.5 39 -230.5 119v260q98 -83 215 -130.5t243 -47.5q122 0 183.5 48t61.5 138q0 48 -19 81.5t-65 63.5t-132 66l-148 57q-171 65 -252.5 163.5t-81.5 240.5q0 126 59.5 220.5t171.5 146.5t265 52q132 0 241 -38t187 -97v-260q-92 76 -192.5 116.5
t-216.5 40.5q-118 0 -178 -43t-60 -124q0 -70 47.5 -114t154.5 -89l146 -56q129 -50 208.5 -109t116.5 -134t37 -173q0 -131 -61.5 -230t-176.5 -153t-271 -54q-129 0 -252.5 39zM766 1550l-160 179l-156 -179h-196l241 308h228l241 -308h-198z" />
    <glyph glyph-name="uni0218" unicode="&#x218;" horiz-adv-x="1182" 
d="M336.5 -2q-123.5 39 -230.5 119v260q98 -83 215 -130.5t243 -47.5q122 0 183.5 48t61.5 138q0 48 -19 81.5t-65 63.5t-132 66l-148 57q-171 65 -252.5 163.5t-81.5 240.5q0 126 59.5 220.5t171.5 146.5t265 52q132 0 241 -38t187 -97v-260q-92 76 -192.5 116.5
t-216.5 40.5q-118 0 -178 -43t-60 -124q0 -70 47.5 -114t154.5 -89l146 -56q129 -50 208.5 -109t116.5 -134t37 -173q0 -131 -61.5 -230t-176.5 -153t-271 -54q-129 0 -252.5 39zM477 -119h264l-190 -353h-169z" />
    <glyph glyph-name="uni1E9E" unicode="&#x1e9e;" horiz-adv-x="1405" 
d="M1112.5 781.5q95.5 -50.5 148 -140.5t52.5 -213q0 -137 -62.5 -241t-174.5 -161t-257 -57q-83 0 -161.5 19.5t-121.5 48.5v222q45 -27 102.5 -42t119.5 -15q127 0 200 62t73 174q0 105 -72 166t-224 61h-173v189l458 326q-98 54 -225 54q-114 0 -197 -40t-127.5 -116.5
t-44.5 -184.5v-893h-264v892q0 176 72 307.5t213 203.5t340 72q141 0 250 -36.5t204 -99.5v-258l-354 -240q130 -9 225.5 -59.5z" />
    <glyph glyph-name="T" unicode="T" horiz-adv-x="1158" 
d="M1127 1189h-421v-1189h-264v1189h-411v245h1096v-245z" />
    <glyph glyph-name="Tbar" unicode="&#x166;" horiz-adv-x="1158" 
d="M1127 1189h-421v-1189h-264v1189h-411v245h1096v-245zM218 794h716v-155h-716v155z" />
    <glyph glyph-name="Tcaron" unicode="&#x164;" horiz-adv-x="1158" 
d="M1127 1189h-421v-1189h-264v1189h-411v245h1096v-245zM933 1858l-241 -308h-228l-241 308h196l156 -179l160 179h198z" />
    <glyph glyph-name="uni0162" unicode="&#x162;" horiz-adv-x="1158" 
d="M1127 1189h-421v-1189h-264v1189h-411v245h1096v-245zM446 -119h264l-190 -353h-169z" />
    <glyph glyph-name="uni021A" unicode="&#x21a;" horiz-adv-x="1158" 
d="M1127 1189h-421v-1189h-264v1189h-411v245h1096v-245zM446 -119h264l-190 -353h-169z" />
    <glyph glyph-name="U" unicode="U" horiz-adv-x="1490" 
d="M442.5 30q-131.5 71 -205 202t-73.5 306v896h264v-878q0 -109 39.5 -186t111 -116t165.5 -39t166 39t112 116t40 186v878h264v-896q0 -175 -74 -306t-206 -202t-302 -71t-301.5 71z" />
    <glyph glyph-name="Uacute" unicode="&#xda;" horiz-adv-x="1490" 
d="M442.5 30q-131.5 71 -205 202t-73.5 306v896h264v-878q0 -109 39.5 -186t111 -116t165.5 -39t166 39t112 116t40 186v878h264v-896q0 -175 -74 -306t-206 -202t-302 -71t-301.5 71zM806 1858h249l-215 -308h-197z" />
    <glyph glyph-name="Ubreve" unicode="&#x16c;" horiz-adv-x="1490" 
d="M442.5 30q-131.5 71 -205 202t-73.5 306v896h264v-878q0 -109 39.5 -186t111 -116t165.5 -39t166 39t112 116t40 186v878h264v-896q0 -175 -74 -306t-206 -202t-302 -71t-301.5 71zM569 1570.5q-80 36.5 -129.5 110t-52.5 177.5h174q5 -75 54 -120t130 -45q80 0 128 44.5
t53 120.5h174q-3 -105 -52 -178t-128.5 -109.5t-174.5 -36.5q-96 0 -176 36.5z" />
    <glyph glyph-name="Ucircumflex" unicode="&#xdb;" horiz-adv-x="1490" 
d="M442.5 30q-131.5 71 -205 202t-73.5 306v896h264v-878q0 -109 39.5 -186t111 -116t165.5 -39t166 39t112 116t40 186v878h264v-896q0 -175 -74 -306t-206 -202t-302 -71t-301.5 71zM903 1550l-160 179l-156 -179h-196l241 308h228l241 -308h-198z" />
    <glyph glyph-name="Udieresis" unicode="&#xdc;" horiz-adv-x="1490" 
d="M442.5 30q-131.5 71 -205 202t-73.5 306v896h264v-878q0 -109 39.5 -186t111 -116t165.5 -39t166 39t112 116t40 186v878h264v-896q0 -175 -74 -306t-206 -202t-302 -71t-301.5 71zM446 1556q-33 20 -52.5 52.5t-19.5 70.5t19 70t52.5 50t72.5 18t71.5 -18t51.5 -50
t19 -70t-19 -71t-51.5 -52.5t-71.5 -19.5t-72 20zM902.5 1556q-32.5 20 -52 52.5t-19.5 70.5t19 70t52 50t72 18q61 0 101.5 -39.5t40.5 -98.5q0 -38 -18.5 -71t-51.5 -52.5t-72 -19.5t-71.5 20z" />
    <glyph glyph-name="uni1EE4" unicode="&#x1ee4;" horiz-adv-x="1490" 
d="M442.5 30q-131.5 71 -205 202t-73.5 306v896h264v-878q0 -109 39.5 -186t111 -116t165.5 -39t166 39t112 116t40 186v878h264v-896q0 -175 -74 -306t-206 -202t-302 -71t-301.5 71zM666 -372.5q-36 20.5 -57 56.5t-21 78t21 76t57 54t79 20t78.5 -19.5t56 -54t20.5 -76.5
t-20.5 -78t-56 -56.5t-78.5 -20.5t-79 20.5z" />
    <glyph glyph-name="Ugrave" unicode="&#xd9;" horiz-adv-x="1490" 
d="M442.5 30q-131.5 71 -205 202t-73.5 306v896h264v-878q0 -109 39.5 -186t111 -116t165.5 -39t166 39t112 116t40 186v878h264v-896q0 -175 -74 -306t-206 -202t-302 -71t-301.5 71zM707 1550l-215 308h249l163 -308h-197z" />
    <glyph glyph-name="Uhungarumlaut" unicode="&#x170;" horiz-adv-x="1490" 
d="M442.5 30q-131.5 71 -205 202t-73.5 306v896h264v-878q0 -109 39.5 -186t111 -116t165.5 -39t166 39t112 116t40 186v878h264v-896q0 -175 -74 -306t-206 -202t-302 -71t-301.5 71zM635 1858h208l-225 -308h-166zM968 1858h209l-225 -308h-166z" />
    <glyph glyph-name="Umacron" unicode="&#x16a;" horiz-adv-x="1490" 
d="M442.5 30q-131.5 71 -205 202t-73.5 306v896h264v-878q0 -109 39.5 -186t111 -116t165.5 -39t166 39t112 116t40 186v878h264v-896q0 -175 -74 -306t-206 -202t-302 -71t-301.5 71zM358 1744h772v-176h-772v176z" />
    <glyph glyph-name="Uogonek" unicode="&#x172;" horiz-adv-x="1490" 
d="M442.5 30q-131.5 71 -205 202t-73.5 306v896h264v-878q0 -109 39.5 -186t111 -116t165.5 -39t166 39t112 116t40 186v878h264v-896q0 -175 -74 -306t-206 -202t-302 -71t-301.5 71zM689 -401q-53 27 -80.5 75t-27.5 111q0 73 39.5 132t115.5 93t181 34l32 -44
q-107 -10 -164 -58.5t-57 -116.5q0 -58 34.5 -90t90.5 -32q35 0 68.5 10.5t54.5 23.5v-129q-79 -36 -161 -36q-73 0 -126 27z" />
    <glyph glyph-name="Uring" unicode="&#x16e;" horiz-adv-x="1490" 
d="M442.5 30q-131.5 71 -205 202t-73.5 306v896h264v-878q0 -109 39.5 -186t111 -116t165.5 -39t166 39t112 116t40 186v878h264v-896q0 -175 -74 -306t-206 -202t-302 -71t-301.5 71zM623 1538q-56 32 -88.5 87t-32.5 119q0 65 32.5 118.5t88.5 84t122 30.5q68 0 123 -30.5
t87 -84t32 -118.5t-32 -119.5t-87.5 -86.5t-122.5 -32q-66 0 -122 32zM829.5 1656q33.5 36 33.5 88q0 50 -33.5 84.5t-84.5 34.5q-52 0 -85 -34.5t-33 -84.5q0 -53 33 -88.5t85 -35.5q51 0 84.5 36z" />
    <glyph glyph-name="Utilde" unicode="&#x168;" horiz-adv-x="1490" 
d="M442.5 30q-131.5 71 -205 202t-73.5 306v896h264v-878q0 -109 39.5 -186t111 -116t165.5 -39t166 39t112 116t40 186v878h264v-896q0 -175 -74 -306t-206 -202t-302 -71t-301.5 71zM403.5 1776q60.5 70 169.5 70q58 0 102.5 -18.5t103.5 -54.5q44 -26 71.5 -38.5
t56.5 -12.5q54 0 79.5 27.5t23.5 78.5h145q1 -129 -58.5 -198.5t-167.5 -69.5q-59 0 -105 18.5t-106 52.5q-42 25 -70.5 37.5t-57.5 12.5q-54 0 -78 -27t-25 -78h-143q-1 130 59.5 200z" />
    <glyph glyph-name="V" unicode="V" horiz-adv-x="1402" 
d="M1364 1434l-508 -1434h-309l-510 1434h285l380 -1134l377 1134h285z" />
    <glyph glyph-name="W" unicode="W" horiz-adv-x="2059" 
d="M2015 1434l-386 -1434h-307l-297 1160l-296 -1160h-307l-370 1434h278l254 -1116l280 1116h329l277 -1114l268 1114h277z" />
    <glyph glyph-name="Wacute" unicode="&#x1e82;" horiz-adv-x="2059" 
d="M2015 1434l-386 -1434h-307l-297 1160l-296 -1160h-307l-370 1434h278l254 -1116l280 1116h329l277 -1114l268 1114h277zM1094 1858h249l-215 -308h-197z" />
    <glyph glyph-name="Wcircumflex" unicode="&#x174;" horiz-adv-x="2059" 
d="M2015 1434l-386 -1434h-307l-297 1160l-296 -1160h-307l-370 1434h278l254 -1116l280 1116h329l277 -1114l268 1114h277zM1191 1550l-160 179l-156 -179h-196l241 308h228l241 -308h-198z" />
    <glyph glyph-name="Wdieresis" unicode="&#x1e84;" horiz-adv-x="2059" 
d="M2015 1434l-386 -1434h-307l-297 1160l-296 -1160h-307l-370 1434h278l254 -1116l280 1116h329l277 -1114l268 1114h277zM734 1556q-33 20 -52.5 52.5t-19.5 70.5t19 70t52.5 50t72.5 18t71.5 -18t51.5 -50t19 -70t-19 -71t-51.5 -52.5t-71.5 -19.5t-72 20zM1190.5 1556
q-32.5 20 -52 52.5t-19.5 70.5t19 70t52 50t72 18q61 0 101.5 -39.5t40.5 -98.5q0 -38 -18.5 -71t-51.5 -52.5t-72 -19.5t-71.5 20z" />
    <glyph glyph-name="Wgrave" unicode="&#x1e80;" horiz-adv-x="2059" 
d="M2015 1434l-386 -1434h-307l-297 1160l-296 -1160h-307l-370 1434h278l254 -1116l280 1116h329l277 -1114l268 1114h277zM995 1550l-215 308h249l163 -308h-197z" />
    <glyph glyph-name="X" unicode="X" horiz-adv-x="1299" 
d="M962 0l-318 567l-318 -567h-307l451 755l-430 679h305l300 -507l309 507h308l-440 -679l456 -755h-316z" />
    <glyph glyph-name="Y" unicode="Y" horiz-adv-x="1356" 
d="M1315 1434l-507 -912v-522h-264v525l-497 909h286l343 -646l350 646h289z" />
    <glyph glyph-name="Yacute" unicode="&#xdd;" horiz-adv-x="1356" 
d="M1315 1434l-507 -912v-522h-264v525l-497 909h286l343 -646l350 646h289zM743 1858h249l-215 -308h-197z" />
    <glyph glyph-name="Ycircumflex" unicode="&#x176;" horiz-adv-x="1356" 
d="M1315 1434l-507 -912v-522h-264v525l-497 909h286l343 -646l350 646h289zM840 1550l-160 179l-156 -179h-196l241 308h228l241 -308h-198z" />
    <glyph glyph-name="Ydieresis" unicode="&#x178;" horiz-adv-x="1356" 
d="M1315 1434l-507 -912v-522h-264v525l-497 909h286l343 -646l350 646h289zM383 1556q-33 20 -52.5 52.5t-19.5 70.5t19 70t52.5 50t72.5 18t71.5 -18t51.5 -50t19 -70t-19 -71t-51.5 -52.5t-71.5 -19.5t-72 20zM839.5 1556q-32.5 20 -52 52.5t-19.5 70.5t19 70t52 50
t72 18q61 0 101.5 -39.5t40.5 -98.5q0 -38 -18.5 -71t-51.5 -52.5t-72 -19.5t-71.5 20z" />
    <glyph glyph-name="Ygrave" unicode="&#x1ef2;" horiz-adv-x="1356" 
d="M1315 1434l-507 -912v-522h-264v525l-497 909h286l343 -646l350 646h289zM644 1550l-215 308h249l163 -308h-197z" />
    <glyph glyph-name="uni0232" unicode="&#x232;" horiz-adv-x="1356" 
d="M1315 1434l-507 -912v-522h-264v525l-497 909h286l343 -646l350 646h289zM295 1744h772v-176h-772v176z" />
    <glyph glyph-name="Z" unicode="Z" horiz-adv-x="1233" 
d="M1154 236v-236h-1067v237l716 966h-703v231h1028v-221l-735 -977h761z" />
    <glyph glyph-name="Zacute" unicode="&#x179;" horiz-adv-x="1233" 
d="M1154 236v-236h-1067v237l716 966h-703v231h1028v-221l-735 -977h761zM675 1858h249l-215 -308h-197z" />
    <glyph glyph-name="Zcaron" unicode="&#x17d;" horiz-adv-x="1233" 
d="M1154 236v-236h-1067v237l716 966h-703v231h1028v-221l-735 -977h761zM970 1858l-241 -308h-228l-241 308h196l156 -179l160 179h198z" />
    <glyph glyph-name="Zdotaccent" unicode="&#x17b;" horiz-adv-x="1233" 
d="M1154 236v-236h-1067v237l716 966h-703v231h1028v-221l-735 -977h761zM535 1559.5q-36 20.5 -57 56.5t-21 78t21 76t57 54t79 20t78.5 -19.5t56 -54t20.5 -76.5t-20.5 -78t-56 -56.5t-78.5 -20.5t-79 20.5z" />
    <glyph glyph-name="M.ss02" horiz-adv-x="1928" 
d="M1746 1434v-1434h-259v1193l-407 -1193h-259l-392 1200v-1201h-248v1435h426l355 -1071l368 1071h416z" />
    <glyph glyph-name="a" unicode="a" horiz-adv-x="1102" 
d="M757 1005.5q105 -54.5 160 -156.5t55 -242v-607h-250v129q-41 -76 -115.5 -118t-173.5 -42q-100 0 -180.5 43.5t-125.5 120t-45 171.5q0 99 47 174t131.5 116.5t193.5 41.5q91 0 159.5 -32t108.5 -86v63q0 126 -70.5 194.5t-194.5 68.5q-93 0 -174.5 -34t-144.5 -95v230
q75 53 167.5 84t200.5 31q146 0 251 -54.5zM629.5 171q45.5 22 70.5 61t25 87q0 46 -24.5 83t-69.5 57.5t-105 20.5q-93 0 -146 -44.5t-53 -119.5q0 -77 52 -122t145 -45q60 0 105.5 22z" />
    <glyph glyph-name="aacute" unicode="&#xe1;" horiz-adv-x="1102" 
d="M757 1005.5q105 -54.5 160 -156.5t55 -242v-607h-250v129q-41 -76 -115.5 -118t-173.5 -42q-100 0 -180.5 43.5t-125.5 120t-45 171.5q0 99 47 174t131.5 116.5t193.5 41.5q91 0 159.5 -32t108.5 -86v63q0 126 -70.5 194.5t-194.5 68.5q-93 0 -174.5 -34t-144.5 -95v230
q75 53 167.5 84t200.5 31q146 0 251 -54.5zM629.5 171q45.5 22 70.5 61t25 87q0 46 -24.5 83t-69.5 57.5t-105 20.5q-93 0 -146 -44.5t-53 -119.5q0 -77 52 -122t145 -45q60 0 105.5 22zM605 1459h243l-215 -307h-191z" />
    <glyph glyph-name="abreve" unicode="&#x103;" horiz-adv-x="1102" 
d="M757 1005.5q105 -54.5 160 -156.5t55 -242v-607h-250v129q-41 -76 -115.5 -118t-173.5 -42q-100 0 -180.5 43.5t-125.5 120t-45 171.5q0 99 47 174t131.5 116.5t193.5 41.5q91 0 159.5 -32t108.5 -86v63q0 126 -70.5 194.5t-194.5 68.5q-93 0 -174.5 -34t-144.5 -95v230
q75 53 167.5 84t200.5 31q146 0 251 -54.5zM629.5 171q45.5 22 70.5 61t25 87q0 46 -24.5 83t-69.5 57.5t-105 20.5q-93 0 -146 -44.5t-53 -119.5q0 -77 52 -122t145 -45q60 0 105.5 22zM396 1170q-72 35 -116.5 105t-47.5 169h168q5 -71 46 -113.5t108 -42.5q66 0 106 42.5
t45 113.5h168q-3 -99 -47 -169t-115 -105t-157 -35t-158 35z" />
    <glyph glyph-name="acircumflex" unicode="&#xe2;" horiz-adv-x="1102" 
d="M757 1005.5q105 -54.5 160 -156.5t55 -242v-607h-250v129q-41 -76 -115.5 -118t-173.5 -42q-100 0 -180.5 43.5t-125.5 120t-45 171.5q0 99 47 174t131.5 116.5t193.5 41.5q91 0 159.5 -32t108.5 -86v63q0 126 -70.5 194.5t-194.5 68.5q-93 0 -174.5 -34t-144.5 -95v230
q75 53 167.5 84t200.5 31q146 0 251 -54.5zM629.5 171q45.5 22 70.5 61t25 87q0 46 -24.5 83t-69.5 57.5t-105 20.5q-93 0 -146 -44.5t-53 -119.5q0 -77 52 -122t145 -45q60 0 105.5 22zM689 1152l-139 175l-134 -175h-192l217 307h223l217 -307h-192z" />
    <glyph glyph-name="adieresis" unicode="&#xe4;" horiz-adv-x="1102" 
d="M757 1005.5q105 -54.5 160 -156.5t55 -242v-607h-250v129q-41 -76 -115.5 -118t-173.5 -42q-100 0 -180.5 43.5t-125.5 120t-45 171.5q0 99 47 174t131.5 116.5t193.5 41.5q91 0 159.5 -32t108.5 -86v63q0 126 -70.5 194.5t-194.5 68.5q-93 0 -174.5 -34t-144.5 -95v230
q75 53 167.5 84t200.5 31q146 0 251 -54.5zM629.5 171q45.5 22 70.5 61t25 87q0 46 -24.5 83t-69.5 57.5t-105 20.5q-93 0 -146 -44.5t-53 -119.5q0 -77 52 -122t145 -45q60 0 105.5 22zM272.5 1186.5q-31.5 18.5 -50 50t-18.5 67.5t18.5 66t50 47.5t68.5 17.5q57 0 96 -38
t39 -93q0 -37 -18 -68t-49 -49.5t-68 -18.5t-68.5 18.5zM694 1186.5q-31 18.5 -49.5 50t-18.5 67.5t18.5 66t49.5 47.5t68 17.5q57 0 96 -38t39 -93q0 -37 -18 -68t-49 -49.5t-68 -18.5t-68 18.5z" />
    <glyph glyph-name="uni0227" unicode="&#x227;" horiz-adv-x="1102" 
d="M757 1005.5q105 -54.5 160 -156.5t55 -242v-607h-250v129q-41 -76 -115.5 -118t-173.5 -42q-100 0 -180.5 43.5t-125.5 120t-45 171.5q0 99 47 174t131.5 116.5t193.5 41.5q91 0 159.5 -32t108.5 -86v63q0 126 -70.5 194.5t-194.5 68.5q-93 0 -174.5 -34t-144.5 -95v230
q75 53 167.5 84t200.5 31q146 0 251 -54.5zM629.5 171q45.5 22 70.5 61t25 87q0 46 -24.5 83t-69.5 57.5t-105 20.5q-93 0 -146 -44.5t-53 -119.5q0 -77 52 -122t145 -45q60 0 105.5 22zM468 1173q-36 21 -57.5 56.5t-21.5 77.5q0 41 21.5 75.5t57.5 54.5t79 20t78.5 -20
t56 -54.5t20.5 -75.5q0 -42 -20.5 -77.5t-56 -56.5t-78.5 -21t-79 21z" />
    <glyph glyph-name="uni1EA1" unicode="&#x1ea1;" horiz-adv-x="1102" 
d="M757 1005.5q105 -54.5 160 -156.5t55 -242v-607h-250v129q-41 -76 -115.5 -118t-173.5 -42q-100 0 -180.5 43.5t-125.5 120t-45 171.5q0 99 47 174t131.5 116.5t193.5 41.5q91 0 159.5 -32t108.5 -86v63q0 126 -70.5 194.5t-194.5 68.5q-93 0 -174.5 -34t-144.5 -95v230
q75 53 167.5 84t200.5 31q146 0 251 -54.5zM629.5 171q45.5 22 70.5 61t25 87q0 46 -24.5 83t-69.5 57.5t-105 20.5q-93 0 -146 -44.5t-53 -119.5q0 -77 52 -122t145 -45q60 0 105.5 22zM474 -397q-36 21 -57.5 56.5t-21.5 77.5q0 41 21.5 75.5t57.5 54.5t79 20t78.5 -20
t56 -54.5t20.5 -75.5q0 -42 -20.5 -77.5t-56 -56.5t-78.5 -21t-79 21z" />
    <glyph glyph-name="agrave" unicode="&#xe0;" horiz-adv-x="1102" 
d="M757 1005.5q105 -54.5 160 -156.5t55 -242v-607h-250v129q-41 -76 -115.5 -118t-173.5 -42q-100 0 -180.5 43.5t-125.5 120t-45 171.5q0 99 47 174t131.5 116.5t193.5 41.5q91 0 159.5 -32t108.5 -86v63q0 126 -70.5 194.5t-194.5 68.5q-93 0 -174.5 -34t-144.5 -95v230
q75 53 167.5 84t200.5 31q146 0 251 -54.5zM629.5 171q45.5 22 70.5 61t25 87q0 46 -24.5 83t-69.5 57.5t-105 20.5q-93 0 -146 -44.5t-53 -119.5q0 -77 52 -122t145 -45q60 0 105.5 22zM484 1152l-215 307h243l163 -307h-191z" />
    <glyph glyph-name="amacron" unicode="&#x101;" horiz-adv-x="1102" 
d="M757 1005.5q105 -54.5 160 -156.5t55 -242v-607h-250v129q-41 -76 -115.5 -118t-173.5 -42q-100 0 -180.5 43.5t-125.5 120t-45 171.5q0 99 47 174t131.5 116.5t193.5 41.5q91 0 159.5 -32t108.5 -86v63q0 126 -70.5 194.5t-194.5 68.5q-93 0 -174.5 -34t-144.5 -95v230
q75 53 167.5 84t200.5 31q146 0 251 -54.5zM629.5 171q45.5 22 70.5 61t25 87q0 46 -24.5 83t-69.5 57.5t-105 20.5q-93 0 -146 -44.5t-53 -119.5q0 -77 52 -122t145 -45q60 0 105.5 22zM230 1354h640v-164h-640v164z" />
    <glyph glyph-name="aogonek" unicode="&#x105;" horiz-adv-x="1102" 
d="M757 1005.5q105 -54.5 160 -156.5t55 -242v-607h-250v129q-41 -76 -115.5 -118t-173.5 -42q-100 0 -180.5 43.5t-125.5 120t-45 171.5q0 99 47 174t131.5 116.5t193.5 41.5q91 0 159.5 -32t108.5 -86v63q0 126 -70.5 194.5t-194.5 68.5q-93 0 -174.5 -34t-144.5 -95v230
q75 53 167.5 84t200.5 31q146 0 251 -54.5zM629.5 171q45.5 22 70.5 61t25 87q0 46 -24.5 83t-69.5 57.5t-105 20.5q-93 0 -146 -44.5t-53 -119.5q0 -77 52 -122t145 -45q60 0 105.5 22zM626.5 -360.5q-60.5 57.5 -60.5 151.5q0 69 38.5 124.5t113 87.5t177.5 32l49 -35
q-114 -10 -172.5 -57.5t-58.5 -115.5q0 -54 33.5 -84t86.5 -30q34 0 67 10.5t56 23.5v-128q-77 -37 -161 -37q-108 0 -168.5 57.5z" />
    <glyph glyph-name="aring" unicode="&#xe5;" horiz-adv-x="1102" 
d="M757 1005.5q105 -54.5 160 -156.5t55 -242v-607h-250v129q-41 -76 -115.5 -118t-173.5 -42q-100 0 -180.5 43.5t-125.5 120t-45 171.5q0 99 47 174t131.5 116.5t193.5 41.5q91 0 159.5 -32t108.5 -86v63q0 126 -70.5 194.5t-194.5 68.5q-93 0 -174.5 -34t-144.5 -95v230
q75 53 167.5 84t200.5 31q146 0 251 -54.5zM629.5 171q45.5 22 70.5 61t25 87q0 46 -24.5 83t-69.5 57.5t-105 20.5q-93 0 -146 -44.5t-53 -119.5q0 -77 52 -122t145 -45q60 0 105.5 22zM444 1160.5q-49 28.5 -78 76.5t-29 104q0 57 28.5 104.5t78 74.5t107.5 27
q59 0 107.5 -27t76 -74t27.5 -105q0 -56 -28 -104t-76 -76.5t-107 -28.5q-58 0 -107 28.5zM621 1267.5q28 30.5 28 73.5q0 42 -28 71.5t-70 29.5q-44 0 -72 -29t-28 -72q0 -44 28 -74t72 -30q42 0 70 30.5z" />
    <glyph glyph-name="aringacute" unicode="&#x1fb;" horiz-adv-x="1102" 
d="M757 1005.5q105 -54.5 160 -156.5t55 -242v-607h-250v129q-41 -76 -115.5 -118t-173.5 -42q-100 0 -180.5 43.5t-125.5 120t-45 171.5q0 99 47 174t131.5 116.5t193.5 41.5q91 0 159.5 -32t108.5 -86v63q0 126 -70.5 194.5t-194.5 68.5q-93 0 -174.5 -34t-144.5 -95v230
q75 53 167.5 84t200.5 31q146 0 251 -54.5zM629.5 171q45.5 22 70.5 61t25 87q0 46 -24.5 83t-69.5 57.5t-105 20.5q-93 0 -146 -44.5t-53 -119.5q0 -77 52 -122t145 -45q60 0 105.5 22zM592 1797h202l-189 -205h-150zM444 1160.5q-49 28.5 -78 76.5t-29 104
q0 57 28.5 104.5t78 74.5t107.5 27q59 0 107.5 -27t76 -74t27.5 -105q0 -56 -28 -104t-76 -76.5t-107 -28.5q-58 0 -107 28.5zM621 1267.5q28 30.5 28 73.5q0 42 -28 71.5t-70 29.5q-44 0 -72 -29t-28 -72q0 -44 28 -74t72 -30q42 0 70 30.5z" />
    <glyph glyph-name="atilde" unicode="&#xe3;" horiz-adv-x="1102" 
d="M757 1005.5q105 -54.5 160 -156.5t55 -242v-607h-250v129q-41 -76 -115.5 -118t-173.5 -42q-100 0 -180.5 43.5t-125.5 120t-45 171.5q0 99 47 174t131.5 116.5t193.5 41.5q91 0 159.5 -32t108.5 -86v63q0 126 -70.5 194.5t-194.5 68.5q-93 0 -174.5 -34t-144.5 -95v230
q75 53 167.5 84t200.5 31q146 0 251 -54.5zM629.5 171q45.5 22 70.5 61t25 87q0 46 -24.5 83t-69.5 57.5t-105 20.5q-93 0 -146 -44.5t-53 -119.5q0 -77 52 -122t145 -45q60 0 105.5 22zM607 1164.5q-36 17.5 -80 48.5q-32 23 -53.5 34t-43.5 11q-78 0 -78 -85h-134
q-1 115 50.5 177t144.5 62q44 0 78.5 -17t79.5 -49q31 -24 52.5 -35.5t43.5 -11.5q39 0 58.5 23t18.5 62h136q1 -114 -49.5 -175.5t-142.5 -61.5q-45 0 -81 17.5z" />
    <glyph glyph-name="ae" unicode="&#xe6;" horiz-adv-x="1791" 
d="M1708 460h-731q17 -135 111.5 -207.5t255.5 -72.5q89 0 175.5 26.5t148.5 72.5v-197q-61 -50 -159.5 -81.5t-213.5 -31.5q-137 0 -246.5 45t-183.5 130q-51 -83 -150 -129t-225 -46q-119 0 -212 43.5t-144.5 120.5t-51.5 175q0 97 47 171.5t131.5 115.5t193.5 41
q91 0 159.5 -32t108.5 -88v63q0 126 -70.5 195.5t-195.5 69.5q-93 0 -174 -33.5t-145 -94.5v232q74 52 166.5 82t199.5 30q122 0 211.5 -43t143.5 -124q66 80 164.5 123.5t222.5 43.5q143 0 247 -54.5t160 -159t56 -252.5v-134zM1066.5 792q-65.5 -62 -82.5 -172h501
q-4 114 -67.5 174t-172.5 60q-113 0 -178.5 -62zM629.5 175.5q45.5 21.5 70.5 59t25 84.5q0 46 -24.5 83t-69.5 57.5t-105 20.5q-93 0 -146 -44.5t-53 -119.5t52 -118.5t145 -43.5q60 0 105.5 21.5z" />
    <glyph glyph-name="aeacute" unicode="&#x1fd;" horiz-adv-x="1791" 
d="M1708 460h-731q17 -135 111.5 -207.5t255.5 -72.5q89 0 175.5 26.5t148.5 72.5v-197q-61 -50 -159.5 -81.5t-213.5 -31.5q-137 0 -246.5 45t-183.5 130q-51 -83 -150 -129t-225 -46q-119 0 -212 43.5t-144.5 120.5t-51.5 175q0 97 47 171.5t131.5 115.5t193.5 41
q91 0 159.5 -32t108.5 -88v63q0 126 -70.5 195.5t-195.5 69.5q-93 0 -174 -33.5t-145 -94.5v232q74 52 166.5 82t199.5 30q122 0 211.5 -43t143.5 -124q66 80 164.5 123.5t222.5 43.5q143 0 247 -54.5t160 -159t56 -252.5v-134zM1066.5 792q-65.5 -62 -82.5 -172h501
q-4 114 -67.5 174t-172.5 60q-113 0 -178.5 -62zM629.5 175.5q45.5 21.5 70.5 59t25 84.5q0 46 -24.5 83t-69.5 57.5t-105 20.5q-93 0 -146 -44.5t-53 -119.5t52 -118.5t145 -43.5q60 0 105.5 21.5zM943 1459h243l-215 -307h-191z" />
    <glyph glyph-name="uni01E3" unicode="&#x1e3;" horiz-adv-x="1791" 
d="M1708 460h-731q17 -135 111.5 -207.5t255.5 -72.5q89 0 175.5 26.5t148.5 72.5v-197q-61 -50 -159.5 -81.5t-213.5 -31.5q-137 0 -246.5 45t-183.5 130q-51 -83 -150 -129t-225 -46q-119 0 -212 43.5t-144.5 120.5t-51.5 175q0 97 47 171.5t131.5 115.5t193.5 41
q91 0 159.5 -32t108.5 -88v63q0 126 -70.5 195.5t-195.5 69.5q-93 0 -174 -33.5t-145 -94.5v232q74 52 166.5 82t199.5 30q122 0 211.5 -43t143.5 -124q66 80 164.5 123.5t222.5 43.5q143 0 247 -54.5t160 -159t56 -252.5v-134zM1066.5 792q-65.5 -62 -82.5 -172h501
q-4 114 -67.5 174t-172.5 60q-113 0 -178.5 -62zM629.5 175.5q45.5 21.5 70.5 59t25 84.5q0 46 -24.5 83t-69.5 57.5t-105 20.5q-93 0 -146 -44.5t-53 -119.5t52 -118.5t145 -43.5q60 0 105.5 21.5zM568 1354h640v-164h-640v164z" />
    <glyph glyph-name="b" unicode="b" horiz-adv-x="1273" 
d="M981.5 989q101.5 -71 156.5 -193.5t55 -271.5q0 -155 -60 -282t-166.5 -200t-238.5 -73q-111 0 -199 55.5t-135 150.5v-175h-251v1475h254v-631q48 96 137.5 156t210.5 60q135 0 236.5 -71zM802 230.5q63 41.5 97.5 115t34.5 168.5q0 94 -34 167.5t-95.5 114.5t-141.5 41
q-82 0 -143.5 -42t-94.5 -116.5t-33 -171.5q0 -93 32 -165t92 -112.5t141 -40.5q82 0 145 41.5z" />
    <glyph glyph-name="c" unicode="c" horiz-adv-x="1055" 
d="M341 39q-126 71 -195 196t-69 282q0 158 69 281.5t195.5 193t293.5 69.5q196 0 328 -81v-245q-64 52 -137 77t-160 25q-100 0 -174.5 -40t-114.5 -112t-40 -166q0 -95 39.5 -169t117.5 -116t188 -42q83 0 161 27t131 70v-228q-148 -93 -342 -93q-165 0 -291 71z" />
    <glyph glyph-name="cacute" unicode="&#x107;" horiz-adv-x="1055" 
d="M341 39q-126 71 -195 196t-69 282q0 158 69 281.5t195.5 193t293.5 69.5q196 0 328 -81v-245q-64 52 -137 77t-160 25q-100 0 -174.5 -40t-114.5 -112t-40 -166q0 -95 39.5 -169t117.5 -116t188 -42q83 0 161 27t131 70v-228q-148 -93 -342 -93q-165 0 -291 71zM665 1459
h243l-215 -307h-191z" />
    <glyph glyph-name="ccaron" unicode="&#x10d;" horiz-adv-x="1055" 
d="M341 39q-126 71 -195 196t-69 282q0 158 69 281.5t195.5 193t293.5 69.5q196 0 328 -81v-245q-64 52 -137 77t-160 25q-100 0 -174.5 -40t-114.5 -112t-40 -166q0 -95 39.5 -169t117.5 -116t188 -42q83 0 161 27t131 70v-228q-148 -93 -342 -93q-165 0 -291 71zM939 1459
l-217 -307h-223l-217 307h192l134 -175l139 175h192z" />
    <glyph glyph-name="ccedilla" unicode="&#xe7;" horiz-adv-x="1055" 
d="M341 39q-126 71 -195 196t-69 282q0 158 69 281.5t195.5 193t293.5 69.5q196 0 328 -81v-245q-64 52 -137 77t-160 25q-100 0 -174.5 -40t-114.5 -112t-40 -166q0 -95 39.5 -169t117.5 -116t188 -42q83 0 161 27t131 70v-228q-148 -93 -342 -93q-165 0 -291 71zM811 -109
q51 -51 51 -131q0 -54 -26 -97t-76 -67t-118 -24q-87 0 -163 46v135q27 -22 64 -37.5t83 -15.5q44 0 67 19t23 52t-25.5 51t-76.5 18h-59v172h107v-70h8q90 0 141 -51z" />
    <glyph glyph-name="ccircumflex" unicode="&#x109;" horiz-adv-x="1055" 
d="M341 39q-126 71 -195 196t-69 282q0 158 69 281.5t195.5 193t293.5 69.5q196 0 328 -81v-245q-64 52 -137 77t-160 25q-100 0 -174.5 -40t-114.5 -112t-40 -166q0 -95 39.5 -169t117.5 -116t188 -42q83 0 161 27t131 70v-228q-148 -93 -342 -93q-165 0 -291 71zM749 1152
l-139 175l-134 -175h-192l217 307h223l217 -307h-192z" />
    <glyph glyph-name="cdotaccent" unicode="&#x10b;" horiz-adv-x="1055" 
d="M341 39q-126 71 -195 196t-69 282q0 158 69 281.5t195.5 193t293.5 69.5q196 0 328 -81v-245q-64 52 -137 77t-160 25q-100 0 -174.5 -40t-114.5 -112t-40 -166q0 -95 39.5 -169t117.5 -116t188 -42q83 0 161 27t131 70v-228q-148 -93 -342 -93q-165 0 -291 71zM528 1173
q-36 21 -57.5 56.5t-21.5 77.5q0 41 21.5 75.5t57.5 54.5t79 20t78.5 -20t56 -54.5t20.5 -75.5q0 -42 -20.5 -77.5t-56 -56.5t-78.5 -21t-79 21z" />
    <glyph glyph-name="d" unicode="d" horiz-adv-x="1273" 
d="M1130 1475v-1475h-251v193q-44 -99 -132 -161.5t-216 -62.5q-135 0 -238 69.5t-158.5 192.5t-55.5 279q0 155 60 280.5t168 197.5t246 72q220 0 323 -195v610h254zM750.5 232q62.5 42 96.5 116.5t34 169.5q0 94 -33 167t-94 114t-143 41t-143.5 -41t-95 -115.5
t-33.5 -173.5q0 -97 33 -169.5t93 -111.5t140 -39q83 0 145.5 42z" />
    <glyph glyph-name="eth" unicode="&#xf0;" horiz-adv-x="1201" 
d="M1076 848q38 -141 38 -284q0 -186 -67 -321t-186 -205.5t-272 -70.5q-149 0 -265 67.5t-180.5 186t-64.5 265.5q0 149 63 264t172 178t244 63q99 0 170 -41t117 -113q-39 146 -126 279h-380v155h258q-101 110 -232 204h303q109 -88 198 -204h207v-155h-106
q71 -127 109 -268zM738.5 230.5q62.5 41.5 96.5 111.5t34 154q0 85 -33 151t-93.5 102.5t-142.5 36.5t-143.5 -37t-95 -104.5t-33.5 -156.5q0 -86 33 -154t93.5 -106.5t139.5 -38.5q82 0 144.5 41.5z" />
    <glyph glyph-name="dcaron" unicode="&#x10f;" horiz-adv-x="1446" 
d="M1130 1475v-1475h-251v193q-44 -99 -132 -161.5t-216 -62.5q-135 0 -238 69.5t-158.5 192.5t-55.5 279q0 155 60 280.5t168 197.5t246 72q220 0 323 -195v610h254zM750.5 232q62.5 42 96.5 116.5t34 169.5q0 94 -33 167t-94 114t-143 41t-143.5 -41t-95 -115.5
t-33.5 -173.5q0 -97 33 -169.5t93 -111.5t140 -39q83 0 145.5 42zM1331 1494h258l-189 -369h-164z" />
    <glyph glyph-name="dcroat" unicode="&#x111;" horiz-adv-x="1275" 
d="M1130 1475v-1475h-251v193q-44 -99 -132 -161.5t-216 -62.5q-135 0 -238 69.5t-158.5 192.5t-55.5 279q0 155 60 280.5t168 197.5t246 72q220 0 323 -195v610h254zM750.5 232q62.5 42 96.5 116.5t34 169.5q0 94 -33 167t-94 114t-143 41t-143.5 -41t-95 -115.5
t-33.5 -173.5q0 -97 33 -169.5t93 -111.5t140 -39q83 0 145.5 42zM552 1337h716v-155h-716v155z" />
    <glyph glyph-name="e" unicode="e" horiz-adv-x="1148" 
d="M1065 460h-727q18 -134 111 -206t252 -72q89 0 175.5 27.5t148.5 75.5v-208q-62 -48 -160.5 -78t-212.5 -30q-173 0 -302.5 67.5t-200.5 192.5t-71 292q0 157 62.5 279.5t181 191t280.5 68.5q143 0 247 -54.5t160 -159t56 -252.5v-134zM425.5 791.5
q-65.5 -62.5 -81.5 -171.5h492q-2 112 -64.5 173t-169.5 61q-111 0 -176.5 -62.5z" />
    <glyph glyph-name="eacute" unicode="&#xe9;" horiz-adv-x="1148" 
d="M1065 460h-727q18 -134 111 -206t252 -72q89 0 175.5 27.5t148.5 75.5v-208q-62 -48 -160.5 -78t-212.5 -30q-173 0 -302.5 67.5t-200.5 192.5t-71 292q0 157 62.5 279.5t181 191t280.5 68.5q143 0 247 -54.5t160 -159t56 -252.5v-134zM425.5 791.5
q-65.5 -62.5 -81.5 -171.5h492q-2 112 -64.5 173t-169.5 61q-111 0 -176.5 -62.5zM659 1459h243l-215 -307h-191z" />
    <glyph glyph-name="ebreve" unicode="&#x115;" horiz-adv-x="1148" 
d="M1065 460h-727q18 -134 111 -206t252 -72q89 0 175.5 27.5t148.5 75.5v-208q-62 -48 -160.5 -78t-212.5 -30q-173 0 -302.5 67.5t-200.5 192.5t-71 292q0 157 62.5 279.5t181 191t280.5 68.5q143 0 247 -54.5t160 -159t56 -252.5v-134zM425.5 791.5
q-65.5 -62.5 -81.5 -171.5h492q-2 112 -64.5 173t-169.5 61q-111 0 -176.5 -62.5zM450 1170q-72 35 -116.5 105t-47.5 169h168q5 -71 46 -113.5t108 -42.5q66 0 106 42.5t45 113.5h168q-3 -99 -47 -169t-115 -105t-157 -35t-158 35z" />
    <glyph glyph-name="ecaron" unicode="&#x11b;" horiz-adv-x="1148" 
d="M1065 460h-727q18 -134 111 -206t252 -72q89 0 175.5 27.5t148.5 75.5v-208q-62 -48 -160.5 -78t-212.5 -30q-173 0 -302.5 67.5t-200.5 192.5t-71 292q0 157 62.5 279.5t181 191t280.5 68.5q143 0 247 -54.5t160 -159t56 -252.5v-134zM425.5 791.5
q-65.5 -62.5 -81.5 -171.5h492q-2 112 -64.5 173t-169.5 61q-111 0 -176.5 -62.5zM933 1459l-217 -307h-223l-217 307h192l134 -175l139 175h192z" />
    <glyph glyph-name="ecircumflex" unicode="&#xea;" horiz-adv-x="1148" 
d="M1065 460h-727q18 -134 111 -206t252 -72q89 0 175.5 27.5t148.5 75.5v-208q-62 -48 -160.5 -78t-212.5 -30q-173 0 -302.5 67.5t-200.5 192.5t-71 292q0 157 62.5 279.5t181 191t280.5 68.5q143 0 247 -54.5t160 -159t56 -252.5v-134zM425.5 791.5
q-65.5 -62.5 -81.5 -171.5h492q-2 112 -64.5 173t-169.5 61q-111 0 -176.5 -62.5zM743 1152l-139 175l-134 -175h-192l217 307h223l217 -307h-192z" />
    <glyph glyph-name="edieresis" unicode="&#xeb;" horiz-adv-x="1148" 
d="M1065 460h-727q18 -134 111 -206t252 -72q89 0 175.5 27.5t148.5 75.5v-208q-62 -48 -160.5 -78t-212.5 -30q-173 0 -302.5 67.5t-200.5 192.5t-71 292q0 157 62.5 279.5t181 191t280.5 68.5q143 0 247 -54.5t160 -159t56 -252.5v-134zM425.5 791.5
q-65.5 -62.5 -81.5 -171.5h492q-2 112 -64.5 173t-169.5 61q-111 0 -176.5 -62.5zM326.5 1186.5q-31.5 18.5 -50 50t-18.5 67.5t18.5 66t50 47.5t68.5 17.5q57 0 96 -38t39 -93q0 -37 -18 -68t-49 -49.5t-68 -18.5t-68.5 18.5zM748 1186.5q-31 18.5 -49.5 50t-18.5 67.5
t18.5 66t49.5 47.5t68 17.5q57 0 96 -38t39 -93q0 -37 -18 -68t-49 -49.5t-68 -18.5t-68 18.5z" />
    <glyph glyph-name="edotaccent" unicode="&#x117;" horiz-adv-x="1148" 
d="M1065 460h-727q18 -134 111 -206t252 -72q89 0 175.5 27.5t148.5 75.5v-208q-62 -48 -160.5 -78t-212.5 -30q-173 0 -302.5 67.5t-200.5 192.5t-71 292q0 157 62.5 279.5t181 191t280.5 68.5q143 0 247 -54.5t160 -159t56 -252.5v-134zM425.5 791.5
q-65.5 -62.5 -81.5 -171.5h492q-2 112 -64.5 173t-169.5 61q-111 0 -176.5 -62.5zM522 1173q-36 21 -57.5 56.5t-21.5 77.5q0 41 21.5 75.5t57.5 54.5t79 20t78.5 -20t56 -54.5t20.5 -75.5q0 -42 -20.5 -77.5t-56 -56.5t-78.5 -21t-79 21z" />
    <glyph glyph-name="uni1EB9" unicode="&#x1eb9;" horiz-adv-x="1148" 
d="M1065 460h-727q18 -134 111 -206t252 -72q89 0 175.5 27.5t148.5 75.5v-208q-62 -48 -160.5 -78t-212.5 -30q-173 0 -302.5 67.5t-200.5 192.5t-71 292q0 157 62.5 279.5t181 191t280.5 68.5q143 0 247 -54.5t160 -159t56 -252.5v-134zM425.5 791.5
q-65.5 -62.5 -81.5 -171.5h492q-2 112 -64.5 173t-169.5 61q-111 0 -176.5 -62.5zM532 -397q-36 21 -57.5 56.5t-21.5 77.5q0 41 21.5 75.5t57.5 54.5t79 20t78.5 -20t56 -54.5t20.5 -75.5q0 -42 -20.5 -77.5t-56 -56.5t-78.5 -21t-79 21z" />
    <glyph glyph-name="egrave" unicode="&#xe8;" horiz-adv-x="1148" 
d="M1065 460h-727q18 -134 111 -206t252 -72q89 0 175.5 27.5t148.5 75.5v-208q-62 -48 -160.5 -78t-212.5 -30q-173 0 -302.5 67.5t-200.5 192.5t-71 292q0 157 62.5 279.5t181 191t280.5 68.5q143 0 247 -54.5t160 -159t56 -252.5v-134zM425.5 791.5
q-65.5 -62.5 -81.5 -171.5h492q-2 112 -64.5 173t-169.5 61q-111 0 -176.5 -62.5zM538 1152l-215 307h243l163 -307h-191z" />
    <glyph glyph-name="emacron" unicode="&#x113;" horiz-adv-x="1148" 
d="M1065 460h-727q18 -134 111 -206t252 -72q89 0 175.5 27.5t148.5 75.5v-208q-62 -48 -160.5 -78t-212.5 -30q-173 0 -302.5 67.5t-200.5 192.5t-71 292q0 157 62.5 279.5t181 191t280.5 68.5q143 0 247 -54.5t160 -159t56 -252.5v-134zM425.5 791.5
q-65.5 -62.5 -81.5 -171.5h492q-2 112 -64.5 173t-169.5 61q-111 0 -176.5 -62.5zM284 1354h640v-164h-640v164z" />
    <glyph glyph-name="eogonek" unicode="&#x119;" horiz-adv-x="1148" 
d="M1065 460h-727q18 -134 111 -206t252 -72q89 0 175.5 27.5t148.5 75.5v-208q-62 -48 -160.5 -78t-212.5 -30q-173 0 -302.5 67.5t-200.5 192.5t-71 292q0 157 62.5 279.5t181 191t280.5 68.5q143 0 247 -54.5t160 -159t56 -252.5v-134zM425.5 791.5
q-65.5 -62.5 -81.5 -171.5h492q-2 112 -64.5 173t-169.5 61q-111 0 -176.5 -62.5zM544.5 -360.5q-60.5 57.5 -60.5 151.5q0 69 38.5 124.5t113 87.5t177.5 32l49 -35q-114 -10 -172.5 -57.5t-58.5 -115.5q0 -54 33.5 -84t86.5 -30q34 0 67 10.5t56 23.5v-128
q-77 -37 -161 -37q-108 0 -168.5 57.5z" />
    <glyph glyph-name="f" unicode="f" horiz-adv-x="803" 
d="M511.5 1246q-38.5 -40 -38.5 -120v-97h304v-209h-304v-820h-254v820h-180v209h180v86q0 182 94.5 281.5t271.5 99.5q66 0 121.5 -14t90.5 -37v-200q-65 41 -164 41q-83 0 -121.5 -40z" />
    <glyph glyph-name="g" unicode="g" horiz-adv-x="1258" 
d="M1116 1029v-915q0 -170 -70 -291t-197 -183.5t-295 -62.5q-232 0 -372 113v231q68 -65 159.5 -99t197.5 -34q164 0 244 92t80 252v114q-103 -213 -337 -213q-135 0 -236 64t-155.5 178.5t-54.5 261.5q0 148 58.5 267.5t165 187.5t245.5 68q116 0 193.5 -51t121.5 -156
v176h252zM737.5 281q60.5 38 93.5 107t33 159q0 89 -33 157t-92.5 105t-135.5 37q-79 0 -138.5 -39t-92 -109t-32.5 -162q0 -88 31 -154.5t89 -102.5t137 -36q80 0 140.5 38z" />
    <glyph glyph-name="gbreve" unicode="&#x11f;" horiz-adv-x="1258" 
d="M1116 1029v-915q0 -170 -70 -291t-197 -183.5t-295 -62.5q-232 0 -372 113v231q68 -65 159.5 -99t197.5 -34q164 0 244 92t80 252v114q-103 -213 -337 -213q-135 0 -236 64t-155.5 178.5t-54.5 261.5q0 148 58.5 267.5t165 187.5t245.5 68q116 0 193.5 -51t121.5 -156
v176h252zM737.5 281q60.5 38 93.5 107t33 159q0 89 -33 157t-92.5 105t-135.5 37q-79 0 -138.5 -39t-92 -109t-32.5 -162q0 -88 31 -154.5t89 -102.5t137 -36q80 0 140.5 38zM463 1170q-72 35 -116.5 105t-47.5 169h168q5 -71 46 -113.5t108 -42.5q66 0 106 42.5t45 113.5
h168q-3 -99 -47 -169t-115 -105t-157 -35t-158 35z" />
    <glyph glyph-name="gcircumflex" unicode="&#x11d;" horiz-adv-x="1258" 
d="M1116 1029v-915q0 -170 -70 -291t-197 -183.5t-295 -62.5q-232 0 -372 113v231q68 -65 159.5 -99t197.5 -34q164 0 244 92t80 252v114q-103 -213 -337 -213q-135 0 -236 64t-155.5 178.5t-54.5 261.5q0 148 58.5 267.5t165 187.5t245.5 68q116 0 193.5 -51t121.5 -156
v176h252zM737.5 281q60.5 38 93.5 107t33 159q0 89 -33 157t-92.5 105t-135.5 37q-79 0 -138.5 -39t-92 -109t-32.5 -162q0 -88 31 -154.5t89 -102.5t137 -36q80 0 140.5 38zM756 1152l-139 175l-134 -175h-192l217 307h223l217 -307h-192z" />
    <glyph glyph-name="uni0123" unicode="&#x123;" horiz-adv-x="1258" 
d="M1116 1029v-915q0 -170 -70 -291t-197 -183.5t-295 -62.5q-232 0 -372 113v231q68 -65 159.5 -99t197.5 -34q164 0 244 92t80 252v114q-103 -213 -337 -213q-135 0 -236 64t-155.5 178.5t-54.5 261.5q0 148 58.5 267.5t165 187.5t245.5 68q116 0 193.5 -51t121.5 -156
v176h252zM737.5 281q60.5 38 93.5 107t33 159q0 89 -33 157t-92.5 105t-135.5 37q-79 0 -138.5 -39t-92 -109t-32.5 -162q0 -88 31 -154.5t89 -102.5t137 -36q80 0 140.5 38zM677 1505h170l-111 -353h-264z" />
    <glyph glyph-name="gdotaccent" unicode="&#x121;" horiz-adv-x="1258" 
d="M1116 1029v-915q0 -170 -70 -291t-197 -183.5t-295 -62.5q-232 0 -372 113v231q68 -65 159.5 -99t197.5 -34q164 0 244 92t80 252v114q-103 -213 -337 -213q-135 0 -236 64t-155.5 178.5t-54.5 261.5q0 148 58.5 267.5t165 187.5t245.5 68q116 0 193.5 -51t121.5 -156
v176h252zM737.5 281q60.5 38 93.5 107t33 159q0 89 -33 157t-92.5 105t-135.5 37q-79 0 -138.5 -39t-92 -109t-32.5 -162q0 -88 31 -154.5t89 -102.5t137 -36q80 0 140.5 38zM535 1173q-36 21 -57.5 56.5t-21.5 77.5q0 41 21.5 75.5t57.5 54.5t79 20t78.5 -20t56 -54.5
t20.5 -75.5q0 -42 -20.5 -77.5t-56 -56.5t-78.5 -21t-79 21z" />
    <glyph glyph-name="h" unicode="h" horiz-adv-x="1219" 
d="M920 1011q81 -49 124.5 -142.5t43.5 -223.5v-645h-254v589q0 131 -47.5 192.5t-153.5 61.5q-112 0 -174 -77t-62 -213v-553h-254v1475h254v-601q45 89 129.5 137.5t202.5 48.5q110 0 191 -49z" />
    <glyph glyph-name="hbar" unicode="&#x127;" horiz-adv-x="1219" 
d="M920 1011q81 -49 124.5 -142.5t43.5 -223.5v-645h-254v589q0 131 -47.5 192.5t-153.5 61.5q-112 0 -174 -77t-62 -213v-553h-254v1475h254v-601q45 89 129.5 137.5t202.5 48.5q110 0 191 -49zM0 1338h716v-155h-716v155z" />
    <glyph glyph-name="hcircumflex" unicode="&#x125;" horiz-adv-x="1219" 
d="M920 1011q81 -49 124.5 -142.5t43.5 -223.5v-645h-254v589q0 131 -47.5 192.5t-153.5 61.5q-112 0 -174 -77t-62 -213v-553h-254v1475h254v-601q45 89 129.5 137.5t202.5 48.5q110 0 191 -49zM741 1516l-139 175l-134 -175h-192l217 307h223l217 -307h-192z" />
    <glyph glyph-name="i" unicode="i" horiz-adv-x="549" 
d="M197 1205q-35 19 -55 52.5t-20 74.5q0 61 43.5 101.5t108.5 40.5q66 0 108 -40t42 -102q0 -63 -42.5 -104.5t-107.5 -41.5q-42 0 -77 19zM147 1029h254v-1029h-254v1029z" />
    <glyph glyph-name="dotlessi" unicode="&#x131;" horiz-adv-x="549" 
d="M147 1029h254v-1029h-254v1029z" />
    <glyph glyph-name="iacute" unicode="&#xed;" horiz-adv-x="549" 
d="M147 1029h254v-1029h-254v1029zM328 1459h243l-215 -307h-191z" />
    <glyph glyph-name="ibreve" unicode="&#x12d;" horiz-adv-x="549" 
d="M147 1029h254v-1029h-254v1029zM119 1170q-72 35 -116.5 105t-47.5 169h168q5 -71 46 -113.5t108 -42.5q66 0 106 42.5t45 113.5h168q-3 -99 -47 -169t-115 -105t-157 -35t-158 35z" />
    <glyph glyph-name="icircumflex" unicode="&#xee;" horiz-adv-x="549" 
d="M147 1029h254v-1029h-254v1029zM412 1152l-139 175l-134 -175h-192l217 307h223l217 -307h-192z" />
    <glyph glyph-name="idieresis" unicode="&#xef;" horiz-adv-x="549" 
d="M147 1029h254v-1029h-254v1029zM-4.5 1186.5q-31.5 18.5 -50 50t-18.5 67.5t18.5 66t50 47.5t68.5 17.5q57 0 96 -38t39 -93q0 -37 -18 -68t-49 -49.5t-68 -18.5t-68.5 18.5zM417 1186.5q-31 18.5 -49.5 50t-18.5 67.5t18.5 66t49.5 47.5t68 17.5q57 0 96 -38t39 -93
q0 -37 -18 -68t-49 -49.5t-68 -18.5t-68 18.5z" />
    <glyph glyph-name="i.locl" horiz-adv-x="549" 
d="M197 1205q-35 19 -55 52.5t-20 74.5q0 61 43.5 101.5t108.5 40.5q66 0 108 -40t42 -102q0 -63 -42.5 -104.5t-107.5 -41.5q-42 0 -77 19zM147 1029h254v-1029h-254v1029z" />
    <glyph glyph-name="uni1ECB" unicode="&#x1ecb;" horiz-adv-x="549" 
d="M197 1205q-35 19 -55 52.5t-20 74.5q0 61 43.5 101.5t108.5 40.5q66 0 108 -40t42 -102q0 -63 -42.5 -104.5t-107.5 -41.5q-42 0 -77 19zM147 1029h254v-1029h-254v1029zM199 -397q-36 21 -57.5 56.5t-21.5 77.5q0 41 21.5 75.5t57.5 54.5t79 20t78.5 -20t56 -54.5
t20.5 -75.5q0 -42 -20.5 -77.5t-56 -56.5t-78.5 -21t-79 21z" />
    <glyph glyph-name="igrave" unicode="&#xec;" horiz-adv-x="549" 
d="M147 1029h254v-1029h-254v1029zM207 1152l-215 307h243l163 -307h-191z" />
    <glyph glyph-name="ij" unicode="&#x133;" horiz-adv-x="1110" 
d="M197 1205q-35 19 -55 52.5t-20 74.5q0 61 43.5 101.5t108.5 40.5q66 0 108 -40t42 -102q0 -63 -42.5 -104.5t-107.5 -41.5q-42 0 -77 19zM147 1029h254v-1029h-254v1029zM758 1205q-35 19 -55 52.5t-20 74.5q0 61 43.5 101.5t108.5 40.5t107.5 -40.5t42.5 -101.5
q0 -41 -20 -74.5t-54 -52.5t-76 -19t-77 19zM532.5 -407q-48.5 15 -82.5 38v202q20 -18 58.5 -31t81.5 -13q118 0 118 145v1095h254v-1136q0 -94 -40.5 -165.5t-113.5 -110.5t-168 -39q-59 0 -107.5 15z" />
    <glyph glyph-name="imacron" unicode="&#x12b;" horiz-adv-x="549" 
d="M147 1029h254v-1029h-254v1029zM-47 1354h640v-164h-640v164z" />
    <glyph glyph-name="iogonek" unicode="&#x12f;" horiz-adv-x="569" 
d="M57.5 -360.5q-60.5 57.5 -60.5 151.5q0 69 38.5 124.5t113 87.5t177.5 32l49 -35q-114 -10 -172.5 -57.5t-58.5 -115.5q0 -54 33.5 -84t86.5 -30q34 0 67 10.5t56 23.5v-128q-77 -37 -161 -37q-108 0 -168.5 57.5zM205 1205q-35 19 -55 52.5t-20 74.5q0 61 43.5 101.5
t108.5 40.5q66 0 108 -40t42 -102q0 -63 -42.5 -104.5t-107.5 -41.5q-42 0 -77 19zM155 1029h254v-1029h-254v1029z" />
    <glyph glyph-name="itilde" unicode="&#x129;" horiz-adv-x="549" 
d="M147 1029h254v-1029h-254v1029zM330 1164.5q-36 17.5 -80 48.5q-32 23 -53.5 34t-43.5 11q-78 0 -78 -85h-134q-1 115 50.5 177t144.5 62q44 0 78.5 -17t79.5 -49q31 -24 52.5 -35.5t43.5 -11.5q39 0 58.5 23t18.5 62h136q1 -114 -49.5 -175.5t-142.5 -61.5
q-45 0 -81 17.5z" />
    <glyph glyph-name="j" unicode="j" horiz-adv-x="561" 
d="M209 1205q-35 19 -55 52.5t-20 74.5q0 61 43.5 101.5t108.5 40.5t107.5 -40.5t42.5 -101.5q0 -41 -20 -74.5t-54 -52.5t-76 -19t-77 19zM-16.5 -407q-48.5 15 -82.5 38v202q20 -18 58.5 -31t81.5 -13q118 0 118 145v1095h254v-1136q0 -94 -40.5 -165.5t-113.5 -110.5
t-168 -39q-59 0 -107.5 15z" />
    <glyph glyph-name="uni0237" unicode="&#x237;" horiz-adv-x="561" 
d="M-16.5 -407q-48.5 15 -82.5 38v202q20 -18 58.5 -31t81.5 -13q118 0 118 145v1095h254v-1136q0 -94 -40.5 -165.5t-113.5 -110.5t-168 -39q-59 0 -107.5 15z" />
    <glyph glyph-name="jcircumflex" unicode="&#x135;" horiz-adv-x="561" 
d="M-16.5 -407q-48.5 15 -82.5 38v202q20 -18 58.5 -31t81.5 -13q118 0 118 145v1095h254v-1136q0 -94 -40.5 -165.5t-113.5 -110.5t-168 -39q-59 0 -107.5 15zM423 1152l-139 175l-134 -175h-192l217 307h223l217 -307h-192z" />
    <glyph glyph-name="k" unicode="k" horiz-adv-x="1096" 
d="M786 0l-390 502v-502h-253v1475h253v-858l356 412h319l-445 -461l471 -568h-311z" />
    <glyph glyph-name="uni0137" unicode="&#x137;" horiz-adv-x="1096" 
d="M786 0l-390 502v-502h-253v1475h253v-858l356 412h319l-445 -461l471 -568h-311zM415 -120h258l-189 -369h-164z" />
    <glyph glyph-name="l" unicode="l" horiz-adv-x="549" 
d="M147 1475h254v-1475h-254v1475z" />
    <glyph glyph-name="lacute" unicode="&#x13a;" horiz-adv-x="549" 
d="M147 1475h254v-1475h-254v1475zM328 1905h243l-215 -307h-191z" />
    <glyph glyph-name="lcaron" unicode="&#x13e;" horiz-adv-x="708" 
d="M147 1475h254v-1475h-254v1475zM592 1494h258l-189 -369h-164z" />
    <glyph glyph-name="uni013C" unicode="&#x13c;" horiz-adv-x="549" 
d="M147 1475h254v-1475h-254v1475zM137 -120h258l-189 -369h-164z" />
    <glyph glyph-name="ldot" unicode="&#x140;" horiz-adv-x="880" 
d="M147 1475h254v-1475h-254v1475zM630 564q-39 22 -61 60.5t-22 85.5q0 46 22 83.5t60 59.5t86 22t86 -21t59.5 -58.5t21.5 -85.5q0 -47 -21.5 -85.5t-59 -60.5t-84.5 -22q-48 0 -87 22z" />
    <glyph glyph-name="lslash" unicode="&#x142;" horiz-adv-x="715" 
d="M670 861l-174 -112v-749h-254v584l-174 -112v203l174 112v688h254v-524l174 112v-202z" />
    <glyph glyph-name="m" unicode="m" horiz-adv-x="1767" 
d="M1476.5 1012.5q77.5 -47.5 118.5 -136t41 -209.5v-667h-254v623q0 109 -43.5 164.5t-129.5 55.5q-56 0 -99.5 -26t-68.5 -72.5t-26 -104.5v-640h-250v637q0 98 -46 152t-130 54q-55 0 -98 -29.5t-68 -82.5t-26 -119v-612h-254v1029h251v-173q42 99 117 151.5t180 52.5
q102 0 177 -50.5t113 -141.5q47 92 126.5 142t184.5 50q107 0 184.5 -47.5z" />
    <glyph glyph-name="n" unicode="n" horiz-adv-x="1219" 
d="M920 1011q81 -49 124.5 -142.5t43.5 -223.5v-645h-254v589q0 131 -47.5 192.5t-153.5 61.5q-112 0 -174 -77t-62 -213v-553h-254v1029h251v-167q44 94 129 146t206 52q110 0 191 -49z" />
    <glyph glyph-name="nacute" unicode="&#x144;" horiz-adv-x="1219" 
d="M920 1011q81 -49 124.5 -142.5t43.5 -223.5v-645h-254v589q0 131 -47.5 192.5t-153.5 61.5q-112 0 -174 -77t-62 -213v-553h-254v1029h251v-167q44 94 129 146t206 52q110 0 191 -49zM679 1459h243l-215 -307h-191z" />
    <glyph glyph-name="ncaron" unicode="&#x148;" horiz-adv-x="1219" 
d="M920 1011q81 -49 124.5 -142.5t43.5 -223.5v-645h-254v589q0 131 -47.5 192.5t-153.5 61.5q-112 0 -174 -77t-62 -213v-553h-254v1029h251v-167q44 94 129 146t206 52q110 0 191 -49zM953 1459l-217 -307h-223l-217 307h192l134 -175l139 175h192z" />
    <glyph glyph-name="uni0146" unicode="&#x146;" horiz-adv-x="1219" 
d="M920 1011q81 -49 124.5 -142.5t43.5 -223.5v-645h-254v589q0 131 -47.5 192.5t-153.5 61.5q-112 0 -174 -77t-62 -213v-553h-254v1029h251v-167q44 94 129 146t206 52q110 0 191 -49zM487 -120h258l-189 -369h-164z" />
    <glyph glyph-name="eng" unicode="&#x14b;" horiz-adv-x="1219" 
d="M920 1011q81 -49 124.5 -142.5t43.5 -223.5v-752q0 -94 -40.5 -165.5t-113.5 -110.5t-168 -39q-60 0 -108.5 15t-81.5 38v202q20 -18 58.5 -31t81.5 -13q118 0 118 145v655q0 131 -47.5 192.5t-153.5 61.5q-112 0 -174 -77t-62 -213v-553h-254v1029h251v-167
q44 94 129 146t206 52q110 0 191 -49z" />
    <glyph glyph-name="ntilde" unicode="&#xf1;" horiz-adv-x="1219" 
d="M920 1011q81 -49 124.5 -142.5t43.5 -223.5v-645h-254v589q0 131 -47.5 192.5t-153.5 61.5q-112 0 -174 -77t-62 -213v-553h-254v1029h251v-167q44 94 129 146t206 52q110 0 191 -49zM681 1164.5q-36 17.5 -80 48.5q-32 23 -53.5 34t-43.5 11q-78 0 -78 -85h-134
q-1 115 50.5 177t144.5 62q44 0 78.5 -17t79.5 -49q31 -24 52.5 -35.5t43.5 -11.5q39 0 58.5 23t18.5 62h136q1 -114 -49.5 -175.5t-142.5 -61.5q-45 0 -81 17.5z" />
    <glyph glyph-name="o" unicode="o" horiz-adv-x="1211" 
d="M331.5 38.5q-119.5 69.5 -186.5 193.5t-67 281q0 159 66.5 283t186 194t273.5 70q156 0 276 -70t186.5 -194t66.5 -283q0 -157 -67 -281t-187.5 -193.5t-274.5 -69.5q-153 0 -272.5 69.5zM748 231q61 41 93 114t32 169t-32 169.5t-93 114.5t-144 41t-143 -41
t-91.5 -114.5t-31.5 -169.5t32 -169t92 -114t142 -41q83 0 144 41z" />
    <glyph glyph-name="oacute" unicode="&#xf3;" horiz-adv-x="1211" 
d="M331.5 38.5q-119.5 69.5 -186.5 193.5t-67 281q0 159 66.5 283t186 194t273.5 70q156 0 276 -70t186.5 -194t66.5 -283q0 -157 -67 -281t-187.5 -193.5t-274.5 -69.5q-153 0 -272.5 69.5zM748 231q61 41 93 114t32 169t-32 169.5t-93 114.5t-144 41t-143 -41
t-91.5 -114.5t-31.5 -169.5t32 -169t92 -114t142 -41q83 0 144 41zM660 1459h243l-215 -307h-191z" />
    <glyph glyph-name="obreve" unicode="&#x14f;" horiz-adv-x="1211" 
d="M331.5 38.5q-119.5 69.5 -186.5 193.5t-67 281q0 159 66.5 283t186 194t273.5 70q156 0 276 -70t186.5 -194t66.5 -283q0 -157 -67 -281t-187.5 -193.5t-274.5 -69.5q-153 0 -272.5 69.5zM748 231q61 41 93 114t32 169t-32 169.5t-93 114.5t-144 41t-143 -41
t-91.5 -114.5t-31.5 -169.5t32 -169t92 -114t142 -41q83 0 144 41zM451 1170q-72 35 -116.5 105t-47.5 169h168q5 -71 46 -113.5t108 -42.5q66 0 106 42.5t45 113.5h168q-3 -99 -47 -169t-115 -105t-157 -35t-158 35z" />
    <glyph glyph-name="ocircumflex" unicode="&#xf4;" horiz-adv-x="1211" 
d="M331.5 38.5q-119.5 69.5 -186.5 193.5t-67 281q0 159 66.5 283t186 194t273.5 70q156 0 276 -70t186.5 -194t66.5 -283q0 -157 -67 -281t-187.5 -193.5t-274.5 -69.5q-153 0 -272.5 69.5zM748 231q61 41 93 114t32 169t-32 169.5t-93 114.5t-144 41t-143 -41
t-91.5 -114.5t-31.5 -169.5t32 -169t92 -114t142 -41q83 0 144 41zM744 1152l-139 175l-134 -175h-192l217 307h223l217 -307h-192z" />
    <glyph glyph-name="odieresis" unicode="&#xf6;" horiz-adv-x="1211" 
d="M331.5 38.5q-119.5 69.5 -186.5 193.5t-67 281q0 159 66.5 283t186 194t273.5 70q156 0 276 -70t186.5 -194t66.5 -283q0 -157 -67 -281t-187.5 -193.5t-274.5 -69.5q-153 0 -272.5 69.5zM748 231q61 41 93 114t32 169t-32 169.5t-93 114.5t-144 41t-143 -41
t-91.5 -114.5t-31.5 -169.5t32 -169t92 -114t142 -41q83 0 144 41zM327.5 1186.5q-31.5 18.5 -50 50t-18.5 67.5t18.5 66t50 47.5t68.5 17.5q57 0 96 -38t39 -93q0 -37 -18 -68t-49 -49.5t-68 -18.5t-68.5 18.5zM749 1186.5q-31 18.5 -49.5 50t-18.5 67.5t18.5 66t49.5 47.5
t68 17.5q57 0 96 -38t39 -93q0 -37 -18 -68t-49 -49.5t-68 -18.5t-68 18.5z" />
    <glyph glyph-name="uni1ECD" unicode="&#x1ecd;" horiz-adv-x="1211" 
d="M331.5 38.5q-119.5 69.5 -186.5 193.5t-67 281q0 159 66.5 283t186 194t273.5 70q156 0 276 -70t186.5 -194t66.5 -283q0 -157 -67 -281t-187.5 -193.5t-274.5 -69.5q-153 0 -272.5 69.5zM748 231q61 41 93 114t32 169t-32 169.5t-93 114.5t-144 41t-143 -41
t-91.5 -114.5t-31.5 -169.5t32 -169t92 -114t142 -41q83 0 144 41zM531 -397q-36 21 -57.5 56.5t-21.5 77.5q0 41 21.5 75.5t57.5 54.5t79 20t78.5 -20t56 -54.5t20.5 -75.5q0 -42 -20.5 -77.5t-56 -56.5t-78.5 -21t-79 21z" />
    <glyph glyph-name="ograve" unicode="&#xf2;" horiz-adv-x="1211" 
d="M331.5 38.5q-119.5 69.5 -186.5 193.5t-67 281q0 159 66.5 283t186 194t273.5 70q156 0 276 -70t186.5 -194t66.5 -283q0 -157 -67 -281t-187.5 -193.5t-274.5 -69.5q-153 0 -272.5 69.5zM748 231q61 41 93 114t32 169t-32 169.5t-93 114.5t-144 41t-143 -41
t-91.5 -114.5t-31.5 -169.5t32 -169t92 -114t142 -41q83 0 144 41zM539 1152l-215 307h243l163 -307h-191z" />
    <glyph glyph-name="ohungarumlaut" unicode="&#x151;" horiz-adv-x="1211" 
d="M331.5 38.5q-119.5 69.5 -186.5 193.5t-67 281q0 159 66.5 283t186 194t273.5 70q156 0 276 -70t186.5 -194t66.5 -283q0 -157 -67 -281t-187.5 -193.5t-274.5 -69.5q-153 0 -272.5 69.5zM748 231q61 41 93 114t32 169t-32 169.5t-93 114.5t-144 41t-143 -41
t-91.5 -114.5t-31.5 -169.5t32 -169t92 -114t142 -41q83 0 144 41zM524 1459h202l-224 -307h-161zM847 1459h202l-225 -307h-160z" />
    <glyph glyph-name="omacron" unicode="&#x14d;" horiz-adv-x="1211" 
d="M331.5 38.5q-119.5 69.5 -186.5 193.5t-67 281q0 159 66.5 283t186 194t273.5 70q156 0 276 -70t186.5 -194t66.5 -283q0 -157 -67 -281t-187.5 -193.5t-274.5 -69.5q-153 0 -272.5 69.5zM748 231q61 41 93 114t32 169t-32 169.5t-93 114.5t-144 41t-143 -41
t-91.5 -114.5t-31.5 -169.5t32 -169t92 -114t142 -41q83 0 144 41zM285 1354h640v-164h-640v164z" />
    <glyph glyph-name="oslash" unicode="&#xf8;" horiz-adv-x="1211" 
d="M331.5 38.5q-119.5 69.5 -186.5 193.5t-67 281q0 159 66.5 283t186 194t273.5 70q156 0 276 -70t186.5 -194t66.5 -283q0 -157 -67 -281t-187.5 -193.5t-274.5 -69.5q-153 0 -272.5 69.5zM748 231q61 41 93 114t32 169t-32 169.5t-93 114.5t-144 41t-143 -41
t-91.5 -114.5t-31.5 -169.5t32 -169t92 -114t142 -41q83 0 144 41zM43 -39l1010 1203l115 -95l-1009 -1203z" />
    <glyph glyph-name="oslashacute" unicode="&#x1ff;" horiz-adv-x="1211" 
d="M331.5 38.5q-119.5 69.5 -186.5 193.5t-67 281q0 159 66.5 283t186 194t273.5 70q156 0 276 -70t186.5 -194t66.5 -283q0 -157 -67 -281t-187.5 -193.5t-274.5 -69.5q-153 0 -272.5 69.5zM748 231q61 41 93 114t32 169t-32 169.5t-93 114.5t-144 41t-143 -41
t-91.5 -114.5t-31.5 -169.5t32 -169t92 -114t142 -41q83 0 144 41zM43 -39l1010 1203l115 -95l-1009 -1203zM660 1459h243l-215 -307h-191z" />
    <glyph glyph-name="otilde" unicode="&#xf5;" horiz-adv-x="1211" 
d="M331.5 38.5q-119.5 69.5 -186.5 193.5t-67 281q0 159 66.5 283t186 194t273.5 70q156 0 276 -70t186.5 -194t66.5 -283q0 -157 -67 -281t-187.5 -193.5t-274.5 -69.5q-153 0 -272.5 69.5zM748 231q61 41 93 114t32 169t-32 169.5t-93 114.5t-144 41t-143 -41
t-91.5 -114.5t-31.5 -169.5t32 -169t92 -114t142 -41q83 0 144 41zM662 1164.5q-36 17.5 -80 48.5q-32 23 -53.5 34t-43.5 11q-78 0 -78 -85h-134q-1 115 50.5 177t144.5 62q44 0 78.5 -17t79.5 -49q31 -24 52.5 -35.5t43.5 -11.5q39 0 58.5 23t18.5 62h136
q1 -114 -49.5 -175.5t-142.5 -61.5q-45 0 -81 17.5z" />
    <glyph glyph-name="oe" unicode="&#x153;" horiz-adv-x="1917" 
d="M1105 465q0 -9 -1 -14q19 -130 112.5 -198t253.5 -68q89 0 175.5 26.5t148.5 72.5v-202q-61 -50 -159.5 -81.5t-213.5 -31.5q-140 0 -249.5 45t-181.5 131q-67 -84 -166 -130t-220 -46q-154 0 -273.5 69.5t-186 193t-66.5 281.5q0 159 65.5 283.5t185 194t275.5 69.5
q122 0 219.5 -44.5t164.5 -127.5q65 82 161.5 127t221.5 45q143 0 247 -54.5t160 -159t56 -252.5v-129h-729zM1195.5 792.5q-64.5 -61.5 -83.5 -167.5h494q-5 111 -67.5 170t-169.5 59q-109 0 -173.5 -61.5zM748 229.5q61 40.5 93 114t32 170.5t-32 170.5t-93 114.5t-144 41
q-84 0 -144 -41t-91 -114.5t-31 -170.5t31.5 -170.5t91.5 -114t143 -40.5t144 40.5z" />
    <glyph glyph-name="p" unicode="p" horiz-adv-x="1273" 
d="M978.5 990.5q101.5 -69.5 158 -191.5t56.5 -275q0 -163 -62.5 -289.5t-169.5 -196t-236 -69.5q-108 0 -194 48.5t-134 130.5v-537h-254v1418h251v-195q46 98 135.5 162t215.5 64q132 0 233.5 -69.5zM802 230.5q63 41.5 97.5 115.5t34.5 168t-33.5 167.5t-95 114.5
t-142.5 41q-82 0 -143.5 -42t-94.5 -116.5t-33 -171.5q0 -93 32 -165t92 -112.5t141 -40.5q82 0 145 41.5z" />
    <glyph glyph-name="thorn" unicode="&#xfe;" horiz-adv-x="1273" 
d="M978.5 990.5q101.5 -69.5 158 -191.5t56.5 -275q0 -163 -62.5 -289.5t-169.5 -196t-236 -69.5q-108 0 -194 48.5t-134 130.5v-537h-254v1864h254v-535h-3v-106q46 98 135.5 162t215.5 64q132 0 233.5 -69.5zM802 230.5q63 41.5 97.5 115.5t34.5 168t-33.5 167.5
t-95 114.5t-142.5 41q-82 0 -143.5 -42t-94.5 -116.5t-33 -171.5q0 -93 32 -165t92 -112.5t141 -40.5q82 0 145 41.5z" />
    <glyph glyph-name="q" unicode="q" horiz-adv-x="1272" 
d="M1129 1029v-1418h-253v565q-48 -95 -134.5 -151t-206.5 -56q-134 0 -237.5 69.5t-161 192t-57.5 275.5q0 158 60.5 284t167.5 198t241 72q117 0 198.5 -53t131.5 -160v182h251zM751 232q62 42 95.5 117t33.5 170q0 94 -33 167t-93.5 113.5t-142.5 40.5q-81 0 -143 -40.5
t-96 -114.5t-34 -172q0 -99 33.5 -172t94 -112t140.5 -39q83 0 145 42z" />
    <glyph glyph-name="r" unicode="r" horiz-adv-x="817" 
d="M782 1002v-237q-65 46 -164 46q-65 0 -114.5 -34.5t-77.5 -101t-29 -159.5v-516h-254v1029h254v-206q35 111 100 168t151 57q77 0 134 -46z" />
    <glyph glyph-name="racute" unicode="&#x155;" horiz-adv-x="817" 
d="M782 1002v-237q-65 46 -164 46q-65 0 -114.5 -34.5t-77.5 -101t-29 -159.5v-516h-254v1029h254v-206q35 111 100 168t151 57q77 0 134 -46zM507 1459h243l-215 -307h-191z" />
    <glyph glyph-name="rcaron" unicode="&#x159;" horiz-adv-x="817" 
d="M782 1002v-237q-65 46 -164 46q-65 0 -114.5 -34.5t-77.5 -101t-29 -159.5v-516h-254v1029h254v-206q35 111 100 168t151 57q77 0 134 -46zM781 1459l-217 -307h-223l-217 307h192l134 -175l139 175h192z" />
    <glyph glyph-name="uni0157" unicode="&#x157;" horiz-adv-x="817" 
d="M782 1002v-237q-65 46 -164 46q-65 0 -114.5 -34.5t-77.5 -101t-29 -159.5v-516h-254v1029h254v-206q35 111 100 168t151 57q77 0 134 -46zM138 -120h258l-189 -369h-164z" />
    <glyph glyph-name="s" unicode="s" horiz-adv-x="966" 
d="M92 92v218q79 -64 176.5 -101t188.5 -37q84 0 131.5 32t47.5 93q0 42 -27 71.5t-90 48.5l-171 49q-255 73 -255 285q0 92 49 162t140 108.5t214 38.5q191 0 345 -98v-213q-69 53 -155 81t-173 28q-82 0 -123.5 -25.5t-41.5 -73.5q0 -81 113 -110l167 -44
q267 -66 267 -299q0 -100 -51.5 -176.5t-144.5 -118.5t-215 -42q-220 0 -392 123z" />
    <glyph glyph-name="sacute" unicode="&#x15b;" horiz-adv-x="966" 
d="M92 92v218q79 -64 176.5 -101t188.5 -37q84 0 131.5 32t47.5 93q0 42 -27 71.5t-90 48.5l-171 49q-255 73 -255 285q0 92 49 162t140 108.5t214 38.5q191 0 345 -98v-213q-69 53 -155 81t-173 28q-82 0 -123.5 -25.5t-41.5 -73.5q0 -81 113 -110l167 -44
q267 -66 267 -299q0 -100 -51.5 -176.5t-144.5 -118.5t-215 -42q-220 0 -392 123zM548 1459h243l-215 -307h-191z" />
    <glyph glyph-name="scaron" unicode="&#x161;" horiz-adv-x="966" 
d="M92 92v218q79 -64 176.5 -101t188.5 -37q84 0 131.5 32t47.5 93q0 42 -27 71.5t-90 48.5l-171 49q-255 73 -255 285q0 92 49 162t140 108.5t214 38.5q191 0 345 -98v-213q-69 53 -155 81t-173 28q-82 0 -123.5 -25.5t-41.5 -73.5q0 -81 113 -110l167 -44
q267 -66 267 -299q0 -100 -51.5 -176.5t-144.5 -118.5t-215 -42q-220 0 -392 123zM822 1459l-217 -307h-223l-217 307h192l134 -175l139 175h192z" />
    <glyph glyph-name="scedilla" unicode="&#x15f;" horiz-adv-x="966" 
d="M92 92v218q79 -64 176.5 -101t188.5 -37q84 0 131.5 32t47.5 93q0 42 -27 71.5t-90 48.5l-171 49q-255 73 -255 285q0 92 49 162t140 108.5t214 38.5q191 0 345 -98v-213q-69 53 -155 81t-173 28q-82 0 -123.5 -25.5t-41.5 -73.5q0 -81 113 -110l167 -44
q267 -66 267 -299q0 -100 -51.5 -176.5t-144.5 -118.5t-215 -42q-220 0 -392 123zM350 -120h258l-189 -369h-164z" />
    <glyph glyph-name="scircumflex" unicode="&#x15d;" horiz-adv-x="966" 
d="M92 92v218q79 -64 176.5 -101t188.5 -37q84 0 131.5 32t47.5 93q0 42 -27 71.5t-90 48.5l-171 49q-255 73 -255 285q0 92 49 162t140 108.5t214 38.5q191 0 345 -98v-213q-69 53 -155 81t-173 28q-82 0 -123.5 -25.5t-41.5 -73.5q0 -81 113 -110l167 -44
q267 -66 267 -299q0 -100 -51.5 -176.5t-144.5 -118.5t-215 -42q-220 0 -392 123zM632 1152l-139 175l-134 -175h-192l217 307h223l217 -307h-192z" />
    <glyph glyph-name="uni0219" unicode="&#x219;" horiz-adv-x="966" 
d="M92 92v218q79 -64 176.5 -101t188.5 -37q84 0 131.5 32t47.5 93q0 42 -27 71.5t-90 48.5l-171 49q-255 73 -255 285q0 92 49 162t140 108.5t214 38.5q191 0 345 -98v-213q-69 53 -155 81t-173 28q-82 0 -123.5 -25.5t-41.5 -73.5q0 -81 113 -110l167 -44
q267 -66 267 -299q0 -100 -51.5 -176.5t-144.5 -118.5t-215 -42q-220 0 -392 123zM350 -120h258l-189 -369h-164z" />
    <glyph glyph-name="germandbls" unicode="&#xdf;" horiz-adv-x="1214" 
d="M1062 691.5q76 -101.5 76 -255.5q0 -141 -57.5 -246.5t-164.5 -163t-251 -57.5q-46 0 -86.5 6.5t-84.5 22.5v201q56 -17 116 -17q128 0 197 72t69 191q0 116 -71 182.5t-222 66.5h-73v196h80q102 0 158.5 53t56.5 146t-55 142.5t-143 49.5q-98 0 -154 -62t-56 -176v-1043
h-254v1025q0 152 59 258t166.5 159.5t249.5 53.5q137 0 237 -49t152 -134t52 -190t-54 -180t-159 -111q140 -39 216 -140.5z" />
    <glyph glyph-name="t" unicode="t" horiz-adv-x="827" 
d="M799 820h-270v-820h-254v820h-244v209h244v266l254 66v-332h270v-209z" />
    <glyph glyph-name="tbar" unicode="&#x167;" horiz-adv-x="827" 
d="M799 820h-270v-820h-254v820h-244v209h244v266l254 66v-332h270v-209zM51 576h716v-155h-716v155z" />
    <glyph glyph-name="tcaron" unicode="&#x165;" horiz-adv-x="827" 
d="M799 820h-270v-820h-254v820h-244v209h244v266l254 66v-332h270v-209zM784 1487h243l-215 -307h-191z" />
    <glyph glyph-name="uni0163" unicode="&#x163;" horiz-adv-x="827" 
d="M799 820h-270v-820h-254v820h-244v209h244v266l254 66v-332h270v-209zM568 -109q51 -51 51 -131q0 -54 -26 -97t-76 -67t-118 -24q-87 0 -163 46v135q27 -22 64 -37.5t83 -15.5q44 0 67 19t23 52t-25.5 51t-76.5 18h-59v172h107v-70h8q90 0 141 -51z" />
    <glyph glyph-name="uni021B" unicode="&#x21b;" horiz-adv-x="827" 
d="M799 820h-270v-820h-254v820h-244v209h244v266l254 66v-332h270v-209zM281 -120h258l-189 -369h-164z" />
    <glyph glyph-name="u" unicode="u" horiz-adv-x="1213" 
d="M1070 1029v-1029h-251v180q-43 -99 -125 -153.5t-193 -54.5q-117 0 -200 48.5t-126.5 139.5t-43.5 219v650h254v-590q0 -255 206 -255q109 0 167 80t58 227v538h254z" />
    <glyph glyph-name="uacute" unicode="&#xfa;" horiz-adv-x="1213" 
d="M1070 1029v-1029h-251v180q-43 -99 -125 -153.5t-193 -54.5q-117 0 -200 48.5t-126.5 139.5t-43.5 219v650h254v-590q0 -255 206 -255q109 0 167 80t58 227v538h254zM662 1459h243l-215 -307h-191z" />
    <glyph glyph-name="ubreve" unicode="&#x16d;" horiz-adv-x="1213" 
d="M1070 1029v-1029h-251v180q-43 -99 -125 -153.5t-193 -54.5q-117 0 -200 48.5t-126.5 139.5t-43.5 219v650h254v-590q0 -255 206 -255q109 0 167 80t58 227v538h254zM453 1170q-72 35 -116.5 105t-47.5 169h168q5 -71 46 -113.5t108 -42.5q66 0 106 42.5t45 113.5h168
q-3 -99 -47 -169t-115 -105t-157 -35t-158 35z" />
    <glyph glyph-name="ucircumflex" unicode="&#xfb;" horiz-adv-x="1213" 
d="M1070 1029v-1029h-251v180q-43 -99 -125 -153.5t-193 -54.5q-117 0 -200 48.5t-126.5 139.5t-43.5 219v650h254v-590q0 -255 206 -255q109 0 167 80t58 227v538h254zM746 1152l-139 175l-134 -175h-192l217 307h223l217 -307h-192z" />
    <glyph glyph-name="udieresis" unicode="&#xfc;" horiz-adv-x="1213" 
d="M1070 1029v-1029h-251v180q-43 -99 -125 -153.5t-193 -54.5q-117 0 -200 48.5t-126.5 139.5t-43.5 219v650h254v-590q0 -255 206 -255q109 0 167 80t58 227v538h254zM329.5 1186.5q-31.5 18.5 -50 50t-18.5 67.5t18.5 66t50 47.5t68.5 17.5q57 0 96 -38t39 -93
q0 -37 -18 -68t-49 -49.5t-68 -18.5t-68.5 18.5zM751 1186.5q-31 18.5 -49.5 50t-18.5 67.5t18.5 66t49.5 47.5t68 17.5q57 0 96 -38t39 -93q0 -37 -18 -68t-49 -49.5t-68 -18.5t-68 18.5z" />
    <glyph glyph-name="uni1EE5" unicode="&#x1ee5;" horiz-adv-x="1213" 
d="M1070 1029v-1029h-251v180q-43 -99 -125 -153.5t-193 -54.5q-117 0 -200 48.5t-126.5 139.5t-43.5 219v650h254v-590q0 -255 206 -255q109 0 167 80t58 227v538h254zM535 -397q-36 21 -57.5 56.5t-21.5 77.5q0 41 21.5 75.5t57.5 54.5t79 20t78.5 -20t56 -54.5
t20.5 -75.5q0 -42 -20.5 -77.5t-56 -56.5t-78.5 -21t-79 21z" />
    <glyph glyph-name="ugrave" unicode="&#xf9;" horiz-adv-x="1213" 
d="M1070 1029v-1029h-251v180q-43 -99 -125 -153.5t-193 -54.5q-117 0 -200 48.5t-126.5 139.5t-43.5 219v650h254v-590q0 -255 206 -255q109 0 167 80t58 227v538h254zM541 1152l-215 307h243l163 -307h-191z" />
    <glyph glyph-name="uhungarumlaut" unicode="&#x171;" horiz-adv-x="1213" 
d="M1070 1029v-1029h-251v180q-43 -99 -125 -153.5t-193 -54.5q-117 0 -200 48.5t-126.5 139.5t-43.5 219v650h254v-590q0 -255 206 -255q109 0 167 80t58 227v538h254zM526 1459h202l-224 -307h-161zM849 1459h202l-225 -307h-160z" />
    <glyph glyph-name="umacron" unicode="&#x16b;" horiz-adv-x="1213" 
d="M1070 1029v-1029h-251v180q-43 -99 -125 -153.5t-193 -54.5q-117 0 -200 48.5t-126.5 139.5t-43.5 219v650h254v-590q0 -255 206 -255q109 0 167 80t58 227v538h254zM287 1354h640v-164h-640v164z" />
    <glyph glyph-name="uogonek" unicode="&#x173;" horiz-adv-x="1213" 
d="M1070 1029v-1029h-251v180q-43 -99 -125 -153.5t-193 -54.5q-117 0 -200 48.5t-126.5 139.5t-43.5 219v650h254v-590q0 -255 206 -255q109 0 167 80t58 227v538h254zM727.5 -360.5q-60.5 57.5 -60.5 151.5q0 69 38.5 124.5t113 87.5t177.5 32l49 -35
q-114 -10 -172.5 -57.5t-58.5 -115.5q0 -54 33.5 -84t86.5 -30q34 0 67 10.5t56 23.5v-128q-77 -37 -161 -37q-108 0 -168.5 57.5z" />
    <glyph glyph-name="uring" unicode="&#x16f;" horiz-adv-x="1213" 
d="M1070 1029v-1029h-251v180q-43 -99 -125 -153.5t-193 -54.5q-117 0 -200 48.5t-126.5 139.5t-43.5 219v650h254v-590q0 -255 206 -255q109 0 167 80t58 227v538h254zM501 1160.5q-49 28.5 -78 76.5t-29 104q0 57 28.5 104.5t78 74.5t107.5 27q59 0 107.5 -27t76 -74
t27.5 -105q0 -56 -28 -104t-76 -76.5t-107 -28.5q-58 0 -107 28.5zM678 1267.5q28 30.5 28 73.5q0 42 -28 71.5t-70 29.5q-44 0 -72 -29t-28 -72q0 -44 28 -74t72 -30q42 0 70 30.5z" />
    <glyph glyph-name="utilde" unicode="&#x169;" horiz-adv-x="1213" 
d="M1070 1029v-1029h-251v180q-43 -99 -125 -153.5t-193 -54.5q-117 0 -200 48.5t-126.5 139.5t-43.5 219v650h254v-590q0 -255 206 -255q109 0 167 80t58 227v538h254zM664 1164.5q-36 17.5 -80 48.5q-32 23 -53.5 34t-43.5 11q-78 0 -78 -85h-134q-1 115 50.5 177
t144.5 62q44 0 78.5 -17t79.5 -49q31 -24 52.5 -35.5t43.5 -11.5q39 0 58.5 23t18.5 62h136q1 -114 -49.5 -175.5t-142.5 -61.5q-45 0 -81 17.5z" />
    <glyph glyph-name="v" unicode="v" horiz-adv-x="1117" 
d="M1085 1029l-403 -1029h-246l-404 1029h270l257 -719l260 719h266z" />
    <glyph glyph-name="w" unicode="w" horiz-adv-x="1657" 
d="M1626 1029l-326 -1029h-247l-231 746l-232 -746h-244l-304 1029h262l180 -702l211 702h266l208 -706l201 706h256z" />
    <glyph glyph-name="wacute" unicode="&#x1e83;" horiz-adv-x="1657" 
d="M1626 1029l-326 -1029h-247l-231 746l-232 -746h-244l-304 1029h262l180 -702l211 702h266l208 -706l201 706h256zM889 1459h243l-215 -307h-191z" />
    <glyph glyph-name="wcircumflex" unicode="&#x175;" horiz-adv-x="1657" 
d="M1626 1029l-326 -1029h-247l-231 746l-232 -746h-244l-304 1029h262l180 -702l211 702h266l208 -706l201 706h256zM973 1152l-139 175l-134 -175h-192l217 307h223l217 -307h-192z" />
    <glyph glyph-name="wdieresis" unicode="&#x1e85;" horiz-adv-x="1657" 
d="M1626 1029l-326 -1029h-247l-231 746l-232 -746h-244l-304 1029h262l180 -702l211 702h266l208 -706l201 706h256zM556.5 1186.5q-31.5 18.5 -50 50t-18.5 67.5t18.5 66t50 47.5t68.5 17.5q57 0 96 -38t39 -93q0 -37 -18 -68t-49 -49.5t-68 -18.5t-68.5 18.5zM978 1186.5
q-31 18.5 -49.5 50t-18.5 67.5t18.5 66t49.5 47.5t68 17.5q57 0 96 -38t39 -93q0 -37 -18 -68t-49 -49.5t-68 -18.5t-68 18.5z" />
    <glyph glyph-name="wgrave" unicode="&#x1e81;" horiz-adv-x="1657" 
d="M1626 1029l-326 -1029h-247l-231 746l-232 -746h-244l-304 1029h262l180 -702l211 702h266l208 -706l201 706h256zM768 1152l-215 307h243l163 -307h-191z" />
    <glyph glyph-name="x" unicode="x" horiz-adv-x="1079" 
d="M769 0l-232 375l-229 -375h-288l358 535l-341 494h291l210 -346l220 346h283l-339 -488l359 -541h-292z" />
    <glyph glyph-name="y" unicode="y" horiz-adv-x="1122" 
d="M1101 1029l-644 -1418h-275l240 498l-388 920h270l254 -652l273 652h270z" />
    <glyph glyph-name="yacute" unicode="&#xfd;" horiz-adv-x="1122" 
d="M1101 1029l-644 -1418h-275l240 498l-388 920h270l254 -652l273 652h270zM619 1459h243l-215 -307h-191z" />
    <glyph glyph-name="ycircumflex" unicode="&#x177;" horiz-adv-x="1122" 
d="M1101 1029l-644 -1418h-275l240 498l-388 920h270l254 -652l273 652h270zM703 1152l-139 175l-134 -175h-192l217 307h223l217 -307h-192z" />
    <glyph glyph-name="ydieresis" unicode="&#xff;" horiz-adv-x="1122" 
d="M1101 1029l-644 -1418h-275l240 498l-388 920h270l254 -652l273 652h270zM286.5 1186.5q-31.5 18.5 -50 50t-18.5 67.5t18.5 66t50 47.5t68.5 17.5q57 0 96 -38t39 -93q0 -37 -18 -68t-49 -49.5t-68 -18.5t-68.5 18.5zM708 1186.5q-31 18.5 -49.5 50t-18.5 67.5t18.5 66
t49.5 47.5t68 17.5q57 0 96 -38t39 -93q0 -37 -18 -68t-49 -49.5t-68 -18.5t-68 18.5z" />
    <glyph glyph-name="ygrave" unicode="&#x1ef3;" horiz-adv-x="1122" 
d="M1101 1029l-644 -1418h-275l240 498l-388 920h270l254 -652l273 652h270zM498 1152l-215 307h243l163 -307h-191z" />
    <glyph glyph-name="uni0233" unicode="&#x233;" horiz-adv-x="1122" 
d="M1101 1029l-644 -1418h-275l240 498l-388 920h270l254 -652l273 652h270zM244 1354h640v-164h-640v164z" />
    <glyph glyph-name="z" unicode="z" horiz-adv-x="975" 
d="M908 214v-214h-833v208l502 611h-487v210h786v-198l-519 -617h551z" />
    <glyph glyph-name="zacute" unicode="&#x17a;" horiz-adv-x="975" 
d="M908 214v-214h-833v208l502 611h-487v210h786v-198l-519 -617h551zM546 1459h243l-215 -307h-191z" />
    <glyph glyph-name="zcaron" unicode="&#x17e;" horiz-adv-x="975" 
d="M908 214v-214h-833v208l502 611h-487v210h786v-198l-519 -617h551zM820 1459l-217 -307h-223l-217 307h192l134 -175l139 175h192z" />
    <glyph glyph-name="zdotaccent" unicode="&#x17c;" horiz-adv-x="975" 
d="M908 214v-214h-833v208l502 611h-487v210h786v-198l-519 -617h551zM409 1173q-36 21 -57.5 56.5t-21.5 77.5q0 41 21.5 75.5t57.5 54.5t79 20t78.5 -20t56 -54.5t20.5 -75.5q0 -42 -20.5 -77.5t-56 -56.5t-78.5 -21t-79 21z" />
    <glyph glyph-name="a.salt" horiz-adv-x="1273" 
d="M1130 1029v-1029h-251v192q-45 -101 -134 -162t-213 -61q-135 0 -238 69.5t-159 192.5t-56 277q0 156 60 282t168 198t246 72q222 0 323 -207v176h254zM750.5 232q62.5 42 96.5 116.5t34 169.5q0 94 -33 167t-94 114t-143 41t-143.5 -41t-95 -115.5t-33.5 -173.5
q0 -97 33 -169.5t93 -111.5t140 -39q83 0 145.5 42z" />
    <glyph glyph-name="aacute.salt" horiz-adv-x="1273" 
d="M1130 1029v-1029h-251v192q-45 -101 -134 -162t-213 -61q-135 0 -238 69.5t-159 192.5t-56 277q0 156 60 282t168 198t246 72q222 0 323 -207v176h254zM750.5 232q62.5 42 96.5 116.5t34 169.5q0 94 -33 167t-94 114t-143 41t-143.5 -41t-95 -115.5t-33.5 -173.5
q0 -97 33 -169.5t93 -111.5t140 -39q83 0 145.5 42zM691 1459h243l-215 -307h-191z" />
    <glyph glyph-name="abreve.salt" horiz-adv-x="1273" 
d="M1130 1029v-1029h-251v192q-45 -101 -134 -162t-213 -61q-135 0 -238 69.5t-159 192.5t-56 277q0 156 60 282t168 198t246 72q222 0 323 -207v176h254zM750.5 232q62.5 42 96.5 116.5t34 169.5q0 94 -33 167t-94 114t-143 41t-143.5 -41t-95 -115.5t-33.5 -173.5
q0 -97 33 -169.5t93 -111.5t140 -39q83 0 145.5 42zM482 1170q-72 35 -116.5 105t-47.5 169h168q5 -71 46 -113.5t108 -42.5q66 0 106 42.5t45 113.5h168q-3 -99 -47 -169t-115 -105t-157 -35t-158 35z" />
    <glyph glyph-name="acircumflex.salt" horiz-adv-x="1273" 
d="M1130 1029v-1029h-251v192q-45 -101 -134 -162t-213 -61q-135 0 -238 69.5t-159 192.5t-56 277q0 156 60 282t168 198t246 72q222 0 323 -207v176h254zM750.5 232q62.5 42 96.5 116.5t34 169.5q0 94 -33 167t-94 114t-143 41t-143.5 -41t-95 -115.5t-33.5 -173.5
q0 -97 33 -169.5t93 -111.5t140 -39q83 0 145.5 42zM775 1152l-139 175l-134 -175h-192l217 307h223l217 -307h-192z" />
    <glyph glyph-name="adieresis.salt" horiz-adv-x="1273" 
d="M1130 1029v-1029h-251v192q-45 -101 -134 -162t-213 -61q-135 0 -238 69.5t-159 192.5t-56 277q0 156 60 282t168 198t246 72q222 0 323 -207v176h254zM750.5 232q62.5 42 96.5 116.5t34 169.5q0 94 -33 167t-94 114t-143 41t-143.5 -41t-95 -115.5t-33.5 -173.5
q0 -97 33 -169.5t93 -111.5t140 -39q83 0 145.5 42zM358.5 1186.5q-31.5 18.5 -50 50t-18.5 67.5t18.5 66t50 47.5t68.5 17.5q57 0 96 -38t39 -93q0 -37 -18 -68t-49 -49.5t-68 -18.5t-68.5 18.5zM780 1186.5q-31 18.5 -49.5 50t-18.5 67.5t18.5 66t49.5 47.5t68 17.5
q57 0 96 -38t39 -93q0 -37 -18 -68t-49 -49.5t-68 -18.5t-68 18.5z" />
    <glyph glyph-name="uni0227.salt" horiz-adv-x="1273" 
d="M1130 1029v-1029h-251v192q-45 -101 -134 -162t-213 -61q-135 0 -238 69.5t-159 192.5t-56 277q0 156 60 282t168 198t246 72q222 0 323 -207v176h254zM750.5 232q62.5 42 96.5 116.5t34 169.5q0 94 -33 167t-94 114t-143 41t-143.5 -41t-95 -115.5t-33.5 -173.5
q0 -97 33 -169.5t93 -111.5t140 -39q83 0 145.5 42zM554 1173q-36 21 -57.5 56.5t-21.5 77.5q0 41 21.5 75.5t57.5 54.5t79 20t78.5 -20t56 -54.5t20.5 -75.5q0 -42 -20.5 -77.5t-56 -56.5t-78.5 -21t-79 21z" />
    <glyph glyph-name="uni1EA1.salt" horiz-adv-x="1273" 
d="M1130 1029v-1029h-251v192q-45 -101 -134 -162t-213 -61q-135 0 -238 69.5t-159 192.5t-56 277q0 156 60 282t168 198t246 72q222 0 323 -207v176h254zM750.5 232q62.5 42 96.5 116.5t34 169.5q0 94 -33 167t-94 114t-143 41t-143.5 -41t-95 -115.5t-33.5 -173.5
q0 -97 33 -169.5t93 -111.5t140 -39q83 0 145.5 42zM559 -397q-36 21 -57.5 56.5t-21.5 77.5q0 41 21.5 75.5t57.5 54.5t79 20t78.5 -20t56 -54.5t20.5 -75.5q0 -42 -20.5 -77.5t-56 -56.5t-78.5 -21t-79 21z" />
    <glyph glyph-name="agrave.salt" horiz-adv-x="1273" 
d="M1130 1029v-1029h-251v192q-45 -101 -134 -162t-213 -61q-135 0 -238 69.5t-159 192.5t-56 277q0 156 60 282t168 198t246 72q222 0 323 -207v176h254zM750.5 232q62.5 42 96.5 116.5t34 169.5q0 94 -33 167t-94 114t-143 41t-143.5 -41t-95 -115.5t-33.5 -173.5
q0 -97 33 -169.5t93 -111.5t140 -39q83 0 145.5 42zM570 1152l-215 307h243l163 -307h-191z" />
    <glyph glyph-name="amacron.salt" horiz-adv-x="1273" 
d="M1130 1029v-1029h-251v192q-45 -101 -134 -162t-213 -61q-135 0 -238 69.5t-159 192.5t-56 277q0 156 60 282t168 198t246 72q222 0 323 -207v176h254zM750.5 232q62.5 42 96.5 116.5t34 169.5q0 94 -33 167t-94 114t-143 41t-143.5 -41t-95 -115.5t-33.5 -173.5
q0 -97 33 -169.5t93 -111.5t140 -39q83 0 145.5 42zM316 1354h640v-164h-640v164z" />
    <glyph glyph-name="aogonek.salt" horiz-adv-x="1273" 
d="M1130 1029v-1029h-251v192q-45 -101 -134 -162t-213 -61q-135 0 -238 69.5t-159 192.5t-56 277q0 156 60 282t168 198t246 72q222 0 323 -207v176h254zM750.5 232q62.5 42 96.5 116.5t34 169.5q0 94 -33 167t-94 114t-143 41t-143.5 -41t-95 -115.5t-33.5 -173.5
q0 -97 33 -169.5t93 -111.5t140 -39q83 0 145.5 42zM786.5 -360.5q-60.5 57.5 -60.5 151.5q0 69 38.5 124.5t113 87.5t177.5 32l49 -35q-114 -10 -172.5 -57.5t-58.5 -115.5q0 -54 33.5 -84t86.5 -30q34 0 67 10.5t56 23.5v-128q-77 -37 -161 -37q-108 0 -168.5 57.5z" />
    <glyph glyph-name="aring.salt" horiz-adv-x="1273" 
d="M1130 1029v-1029h-251v192q-45 -101 -134 -162t-213 -61q-135 0 -238 69.5t-159 192.5t-56 277q0 156 60 282t168 198t246 72q222 0 323 -207v176h254zM750.5 232q62.5 42 96.5 116.5t34 169.5q0 94 -33 167t-94 114t-143 41t-143.5 -41t-95 -115.5t-33.5 -173.5
q0 -97 33 -169.5t93 -111.5t140 -39q83 0 145.5 42zM530 1160.5q-49 28.5 -78 76.5t-29 104q0 57 28.5 104.5t78 74.5t107.5 27q59 0 107.5 -27t76 -74t27.5 -105q0 -56 -28 -104t-76 -76.5t-107 -28.5q-58 0 -107 28.5zM707 1267.5q28 30.5 28 73.5q0 42 -28 71.5t-70 29.5
q-44 0 -72 -29t-28 -72q0 -44 28 -74t72 -30q42 0 70 30.5z" />
    <glyph glyph-name="aringacute.salt" horiz-adv-x="1273" 
d="M1130 1029v-1029h-251v192q-45 -101 -134 -162t-213 -61q-135 0 -238 69.5t-159 192.5t-56 277q0 156 60 282t168 198t246 72q222 0 323 -207v176h254zM750.5 232q62.5 42 96.5 116.5t34 169.5q0 94 -33 167t-94 114t-143 41t-143.5 -41t-95 -115.5t-33.5 -173.5
q0 -97 33 -169.5t93 -111.5t140 -39q83 0 145.5 42zM678 1797h202l-189 -205h-150zM530 1160.5q-49 28.5 -78 76.5t-29 104q0 57 28.5 104.5t78 74.5t107.5 27q59 0 107.5 -27t76 -74t27.5 -105q0 -56 -28 -104t-76 -76.5t-107 -28.5q-58 0 -107 28.5zM707 1267.5
q28 30.5 28 73.5q0 42 -28 71.5t-70 29.5q-44 0 -72 -29t-28 -72q0 -44 28 -74t72 -30q42 0 70 30.5z" />
    <glyph glyph-name="atilde.salt" horiz-adv-x="1273" 
d="M1130 1029v-1029h-251v192q-45 -101 -134 -162t-213 -61q-135 0 -238 69.5t-159 192.5t-56 277q0 156 60 282t168 198t246 72q222 0 323 -207v176h254zM750.5 232q62.5 42 96.5 116.5t34 169.5q0 94 -33 167t-94 114t-143 41t-143.5 -41t-95 -115.5t-33.5 -173.5
q0 -97 33 -169.5t93 -111.5t140 -39q83 0 145.5 42zM693 1164.5q-36 17.5 -80 48.5q-32 23 -53.5 34t-43.5 11q-78 0 -78 -85h-134q-1 115 50.5 177t144.5 62q44 0 78.5 -17t79.5 -49q31 -24 52.5 -35.5t43.5 -11.5q39 0 58.5 23t18.5 62h136q1 -114 -49.5 -175.5
t-142.5 -61.5q-45 0 -81 17.5z" />
    <glyph glyph-name="t.ss03" horiz-adv-x="851" 
d="M736 188.5q35 13.5 68 35.5v-199q-49 -32 -100 -47.5t-128 -15.5q-107 0 -182.5 42.5t-113.5 120.5t-38 182v513h-212v209h212v266l254 66v-332h296v-209h-296v-482q0 -82 38.5 -122.5t112.5 -40.5q54 0 89 13.5z" />
    <glyph glyph-name="tbar.ss03" horiz-adv-x="851" 
d="M736 188.5q35 13.5 68 35.5v-199q-49 -32 -100 -47.5t-128 -15.5q-107 0 -182.5 42.5t-113.5 120.5t-38 182v513h-212v209h212v266l254 66v-332h296v-209h-296v-482q0 -82 38.5 -122.5t112.5 -40.5q54 0 89 13.5zM54 591h716v-155h-716v155z" />
    <glyph glyph-name="tcaron.ss03" horiz-adv-x="851" 
d="M736 188.5q35 13.5 68 35.5v-199q-49 -32 -100 -47.5t-128 -15.5q-107 0 -182.5 42.5t-113.5 120.5t-38 182v513h-212v209h212v266l254 66v-332h296v-209h-296v-482q0 -82 38.5 -122.5t112.5 -40.5q54 0 89 13.5zM761 1487h243l-215 -307h-191z" />
    <glyph glyph-name="uni0163.ss03" horiz-adv-x="851" 
d="M736 188.5q35 13.5 68 35.5v-199q-49 -32 -100 -47.5t-128 -15.5q-107 0 -182.5 42.5t-113.5 120.5t-38 182v513h-212v209h212v266l254 66v-332h296v-209h-296v-482q0 -82 38.5 -122.5t112.5 -40.5q54 0 89 13.5zM712 -109q51 -51 51 -131q0 -54 -26 -97t-76 -67
t-118 -24q-87 0 -163 46v135q27 -22 64 -37.5t83 -15.5q44 0 67 19t23 52t-25.5 51t-76.5 18h-59v172h107v-70h8q90 0 141 -51z" />
    <glyph glyph-name="uni021B.ss03" horiz-adv-x="851" 
d="M736 188.5q35 13.5 68 35.5v-199q-49 -32 -100 -47.5t-128 -15.5q-107 0 -182.5 42.5t-113.5 120.5t-38 182v513h-212v209h212v266l254 66v-332h296v-209h-296v-482q0 -82 38.5 -122.5t112.5 -40.5q54 0 89 13.5zM425 -120h258l-189 -369h-164z" />
    <glyph glyph-name="u.ss04" horiz-adv-x="1176" 
d="M343 16.5q-103 54.5 -158.5 153t-55.5 227.5v632h253v-621q0 -102 55 -160t148 -58q96 0 152.5 58t56.5 160v621h254v-632q0 -128 -56.5 -227t-161.5 -153.5t-245 -54.5q-139 0 -242 54.5z" />
    <glyph glyph-name="uacute.ss04" horiz-adv-x="1176" 
d="M343 16.5q-103 54.5 -158.5 153t-55.5 227.5v632h253v-621q0 -102 55 -160t148 -58q96 0 152.5 58t56.5 160v621h254v-632q0 -128 -56.5 -227t-161.5 -153.5t-245 -54.5q-139 0 -242 54.5zM645 1459h243l-215 -307h-191z" />
    <glyph glyph-name="ubreve.ss04" horiz-adv-x="1176" 
d="M343 16.5q-103 54.5 -158.5 153t-55.5 227.5v632h253v-621q0 -102 55 -160t148 -58q96 0 152.5 58t56.5 160v621h254v-632q0 -128 -56.5 -227t-161.5 -153.5t-245 -54.5q-139 0 -242 54.5zM436 1170q-72 35 -116.5 105t-47.5 169h168q5 -71 46 -113.5t108 -42.5
q66 0 106 42.5t45 113.5h168q-3 -99 -47 -169t-115 -105t-157 -35t-158 35z" />
    <glyph glyph-name="ucircumflex.ss04" horiz-adv-x="1176" 
d="M343 16.5q-103 54.5 -158.5 153t-55.5 227.5v632h253v-621q0 -102 55 -160t148 -58q96 0 152.5 58t56.5 160v621h254v-632q0 -128 -56.5 -227t-161.5 -153.5t-245 -54.5q-139 0 -242 54.5zM729 1152l-139 175l-134 -175h-192l217 307h223l217 -307h-192z" />
    <glyph glyph-name="udieresis.ss04" horiz-adv-x="1176" 
d="M343 16.5q-103 54.5 -158.5 153t-55.5 227.5v632h253v-621q0 -102 55 -160t148 -58q96 0 152.5 58t56.5 160v621h254v-632q0 -128 -56.5 -227t-161.5 -153.5t-245 -54.5q-139 0 -242 54.5zM312.5 1186.5q-31.5 18.5 -50 50t-18.5 67.5t18.5 66t50 47.5t68.5 17.5
q57 0 96 -38t39 -93q0 -37 -18 -68t-49 -49.5t-68 -18.5t-68.5 18.5zM734 1186.5q-31 18.5 -49.5 50t-18.5 67.5t18.5 66t49.5 47.5t68 17.5q57 0 96 -38t39 -93q0 -37 -18 -68t-49 -49.5t-68 -18.5t-68 18.5z" />
    <glyph glyph-name="uni1EE5.ss04" horiz-adv-x="1176" 
d="M343 16.5q-103 54.5 -158.5 153t-55.5 227.5v632h253v-621q0 -102 55 -160t148 -58q96 0 152.5 58t56.5 160v621h254v-632q0 -128 -56.5 -227t-161.5 -153.5t-245 -54.5q-139 0 -242 54.5zM516 -397q-36 21 -57.5 56.5t-21.5 77.5q0 41 21.5 75.5t57.5 54.5t79 20
t78.5 -20t56 -54.5t20.5 -75.5q0 -42 -20.5 -77.5t-56 -56.5t-78.5 -21t-79 21z" />
    <glyph glyph-name="ugrave.ss04" horiz-adv-x="1176" 
d="M343 16.5q-103 54.5 -158.5 153t-55.5 227.5v632h253v-621q0 -102 55 -160t148 -58q96 0 152.5 58t56.5 160v621h254v-632q0 -128 -56.5 -227t-161.5 -153.5t-245 -54.5q-139 0 -242 54.5zM524 1152l-215 307h243l163 -307h-191z" />
    <glyph glyph-name="uhungarumlaut.ss04" horiz-adv-x="1176" 
d="M343 16.5q-103 54.5 -158.5 153t-55.5 227.5v632h253v-621q0 -102 55 -160t148 -58q96 0 152.5 58t56.5 160v621h254v-632q0 -128 -56.5 -227t-161.5 -153.5t-245 -54.5q-139 0 -242 54.5zM509 1459h202l-224 -307h-161zM832 1459h202l-225 -307h-160z" />
    <glyph glyph-name="umacron.ss04" horiz-adv-x="1176" 
d="M343 16.5q-103 54.5 -158.5 153t-55.5 227.5v632h253v-621q0 -102 55 -160t148 -58q96 0 152.5 58t56.5 160v621h254v-632q0 -128 -56.5 -227t-161.5 -153.5t-245 -54.5q-139 0 -242 54.5zM270 1354h640v-164h-640v164z" />
    <glyph glyph-name="uogonek.ss04" horiz-adv-x="1176" 
d="M343 16.5q-103 54.5 -158.5 153t-55.5 227.5v632h253v-621q0 -102 55 -160t148 -58q96 0 152.5 58t56.5 160v621h254v-632q0 -128 -56.5 -227t-161.5 -153.5t-245 -54.5q-139 0 -242 54.5zM475.5 -360.5q-60.5 57.5 -60.5 151.5q0 69 38.5 124.5t113 87.5t177.5 32
l49 -35q-114 -10 -172.5 -57.5t-58.5 -115.5q0 -54 33.5 -84t86.5 -30q34 0 67 10.5t56 23.5v-128q-77 -37 -161 -37q-108 0 -168.5 57.5z" />
    <glyph glyph-name="uring.ss04" horiz-adv-x="1176" 
d="M343 16.5q-103 54.5 -158.5 153t-55.5 227.5v632h253v-621q0 -102 55 -160t148 -58q96 0 152.5 58t56.5 160v621h254v-632q0 -128 -56.5 -227t-161.5 -153.5t-245 -54.5q-139 0 -242 54.5zM484 1160.5q-49 28.5 -78 76.5t-29 104q0 57 28.5 104.5t78 74.5t107.5 27
q59 0 107.5 -27t76 -74t27.5 -105q0 -56 -28 -104t-76 -76.5t-107 -28.5q-58 0 -107 28.5zM661 1267.5q28 30.5 28 73.5q0 42 -28 71.5t-70 29.5q-44 0 -72 -29t-28 -72q0 -44 28 -74t72 -30q42 0 70 30.5z" />
    <glyph glyph-name="utilde.ss04" horiz-adv-x="1176" 
d="M343 16.5q-103 54.5 -158.5 153t-55.5 227.5v632h253v-621q0 -102 55 -160t148 -58q96 0 152.5 58t56.5 160v621h254v-632q0 -128 -56.5 -227t-161.5 -153.5t-245 -54.5q-139 0 -242 54.5zM647 1164.5q-36 17.5 -80 48.5q-32 23 -53.5 34t-43.5 11q-78 0 -78 -85h-134
q-1 115 50.5 177t144.5 62q44 0 78.5 -17t79.5 -49q31 -24 52.5 -35.5t43.5 -11.5q39 0 58.5 23t18.5 62h136q1 -114 -49.5 -175.5t-142.5 -61.5q-45 0 -81 17.5z" />
    <glyph glyph-name="I_S_B_N" horiz-adv-x="4725" 
d="M181 1434h264v-1434h-264v1434zM963.5 -2q-123.5 39 -230.5 119v260q98 -83 215 -130.5t243 -47.5q122 0 183.5 48t61.5 138q0 48 -19 81.5t-65 63.5t-132 66l-148 57q-171 65 -252.5 163.5t-81.5 240.5q0 126 59.5 220.5t171.5 146.5t265 52q132 0 241 -38t187 -97v-260
q-92 76 -192.5 116.5t-216.5 40.5q-118 0 -178 -43t-60 -124q0 -70 47.5 -114t154.5 -89l146 -56q129 -50 208.5 -109t116.5 -134t37 -173q0 -131 -61.5 -230t-176.5 -153t-271 -54q-129 0 -252.5 39zM2972.5 639q68.5 -95 68.5 -228q0 -119 -57 -212t-167.5 -146
t-265.5 -53h-561v1434h583q129 0 223 -48.5t143.5 -132.5t49.5 -189q0 -111 -55.5 -188t-158.5 -107q129 -35 197.5 -130zM2254 1211v-387h270q97 0 148 51.5t51 138.5q0 92 -54.5 144.5t-154.5 52.5h-260zM2702 276q65 56 65 155q0 96 -60.5 154t-173.5 58h-279v-423h256
q127 0 192 56zM4544 1434v-1434h-337l-642 1146v-1146h-249v1434h366l613 -1108v1108h249z" />
    <glyph glyph-name="w_w_w" horiz-adv-x="4388" 
d="M4377 1029l-326 -1029h-247l-231 743l-231 -743h-244l-214 741l-219 -741h-247l-231 743l-231 -743h-244l-214 741l-219 -741h-247l-231 743l-231 -743h-244l-304 1029h261l181 -689l208 689h271l207 -700l214 700h272l211 -699l211 699h271l207 -698l209 698h277
l211 -699l211 699h271l206 -698l198 698h258z" />
    <glyph glyph-name="ordfeminine" unicode="&#xaa;" horiz-adv-x="991" 
d="M676 1408.5q91 -47.5 139 -135.5t48 -209v-524h-226v114q-34 -67 -97.5 -103t-146.5 -36q-86 0 -155 37.5t-108.5 103.5t-39.5 148q0 87 41 153.5t114.5 102.5t166.5 36q72 0 131 -28t94 -78v50q0 104 -58 161t-162 57q-79 0 -150 -29.5t-127 -81.5v203q66 52 147.5 79
t171.5 27q126 0 217 -47.5zM591.5 716q45.5 39 45.5 100q0 60 -44 96.5t-118 36.5q-79 0 -122 -36t-43 -98q0 -64 42.5 -101t119.5 -37q74 0 119.5 39z" />
    <glyph glyph-name="ordmasculine" unicode="&#xba;" horiz-adv-x="1080" 
d="M303.5 574q-103.5 58 -161.5 164.5t-58 247.5q0 140 57.5 247t161 165t235.5 58q133 0 237 -58t162 -165t58 -247q0 -141 -58.5 -247.5t-162.5 -164.5t-236 -58q-131 0 -234.5 58zM702.5 787q59.5 72 59.5 199t-60 199.5t-164 72.5q-103 0 -162 -72.5t-59 -199.5
t59.5 -199t161.5 -72q105 0 164.5 72z" />
    <glyph glyph-name="ordfeminine.salt" horiz-adv-x="1124" 
d="M985 1432v-891h-225v161q-38 -87 -114 -136.5t-176 -49.5q-116 0 -202.5 60.5t-133.5 166.5t-47 239q0 131 50 239.5t142.5 171.5t216.5 63q178 0 261 -158v134h228zM654 748.5q51 34.5 79.5 97t28.5 143.5q0 82 -27 142.5t-76.5 93.5t-115.5 33q-67 0 -117.5 -33.5
t-78 -95.5t-27.5 -146q0 -81 27 -142t76 -94t114 -33q66 0 117 34.5z" />
    <glyph glyph-name="a.sups_salt" horiz-adv-x="958" 
d="M831 1433v-733h-195v121q-34 -67 -95 -105.5t-140 -38.5q-97 0 -170.5 50t-113.5 138t-40 198q0 108 42.5 197.5t120.5 142t182 52.5q142 0 213 -124v102h196zM551.5 874.5q41.5 27.5 64.5 78t23 116.5q0 99 -49 158t-130 59q-83 0 -132 -60t-49 -162q0 -100 47.5 -158.5
t128.5 -58.5q55 0 96.5 27.5z" />
    <glyph glyph-name="t.sups_ss03" horiz-adv-x="686" 
d="M570 857.5q27 10.5 50 27.5v-160q-35 -24 -73.5 -36t-94.5 -12q-117 0 -181.5 68.5t-64.5 185.5v339h-159v163h159v207l197 58v-265h215v-163h-215v-316q0 -53 25.5 -80t75.5 -27q39 0 66 10.5z" />
    <glyph glyph-name="u.sups_ss04" horiz-adv-x="904" 
d="M275 718q-76 39 -118 112t-42 170v433h198v-426q0 -72 37 -111t99 -39q65 0 103.5 38.5t38.5 111.5v426h198v-433q0 -97 -43 -170t-120 -112t-177 -39q-98 0 -174 39z" />
    <glyph glyph-name="a.sups" horiz-adv-x="834" 
d="M562.5 1418.5q75.5 -38.5 116 -111.5t40.5 -174v-433h-194v86q-29 -51 -79 -78.5t-114 -27.5q-72 0 -130 31t-91.5 85.5t-33.5 122.5q0 70 34.5 124.5t96 84.5t140.5 30q56 0 102.5 -21.5t74.5 -60.5v38q0 83 -46.5 128.5t-128.5 45.5q-66 0 -125.5 -24.5t-108.5 -69.5
v174q112 89 268 89q103 0 178.5 -38.5zM489 846q36 32 36 82q0 48 -34.5 77.5t-93.5 29.5q-63 0 -97 -29t-34 -80q0 -52 34 -82t95 -30q58 0 94 32z" />
    <glyph glyph-name="b.sups" horiz-adv-x="959" 
d="M728 1405q74 -50 114 -137.5t40 -194.5t-41.5 -197.5t-118 -144.5t-175.5 -54q-71 0 -129.5 33.5t-94.5 93.5v-104h-196v1049h198v-427q36 61 97 97t136 36q96 0 170 -50zM593.5 874q41.5 27 64.5 76.5t23 115.5t-22.5 115t-63.5 76t-94 27q-54 0 -94.5 -27.5t-63 -78
t-22.5 -117.5q0 -99 47.5 -156.5t128.5 -57.5q55 0 96.5 27z" />
    <glyph glyph-name="c.sups" horiz-adv-x="813" 
d="M263.5 726.5q-89.5 49.5 -139 138.5t-49.5 203q0 113 50.5 201t141.5 137.5t208 49.5q141 0 249 -71v-179q-101 79 -226 79q-101 0 -161.5 -58t-60.5 -157q0 -104 62 -163t170 -59q61 0 119.5 22.5t101.5 56.5v-169q-113 -81 -261 -81q-115 0 -204.5 49.5z" />
    <glyph glyph-name="d.sups" horiz-adv-x="959" 
d="M833 1749v-1049h-197v123q-34 -67 -95 -105t-140 -38q-97 0 -170.5 49.5t-113.5 136.5t-40 196t42.5 199t120.5 143t182 53q143 0 213 -123v415h198zM551.5 876.5q41.5 27.5 64.5 78t23 116.5q0 99 -49 158t-130 59q-83 0 -132 -60t-49 -162q0 -100 47.5 -158.5
t128.5 -58.5q55 0 96.5 27.5z" />
    <glyph glyph-name="e.sups" horiz-adv-x="867" 
d="M786 1027h-515q12 -90 76 -138t175 -48q63 0 127 22t110 55v-159q-44 -36 -116.5 -59t-155.5 -23q-124 0 -217 47.5t-143 135.5t-50 206q0 116 46.5 204t131.5 136.5t197 48.5q104 0 179 -39.5t115 -114.5t40 -180v-94zM334 1255.5q-45 -39.5 -58 -113.5h333
q-4 74 -45.5 113.5t-113.5 39.5q-71 0 -116 -39.5z" />
    <glyph glyph-name="f.sups" horiz-adv-x="650" 
d="M413 1570q-30 -28 -30 -86v-49h224v-164h-224v-571h-197v571h-126v164h126v42q0 135 72 209.5t204 74.5q48 0 90.5 -10.5t68.5 -28.5v-150q-59 26 -114 26q-64 0 -94 -28z" />
    <glyph glyph-name="g.sups" horiz-adv-x="949" 
d="M823 1435v-640q0 -120 -48.5 -207t-139.5 -133.5t-215 -46.5q-74 0 -143 21t-127 60v182q50 -51 116.5 -76t137.5 -25q224 0 224 255v39q-73 -142 -233 -142q-94 0 -165.5 45t-111 126.5t-39.5 188.5q0 108 42 193t117.5 132.5t172.5 47.5q77 0 129.5 -35.5t87.5 -102.5
v118h195zM579 940q49 56 49 149q0 91 -47.5 146t-126.5 55t-126.5 -56.5t-47.5 -152.5q0 -91 45.5 -144t124.5 -53q80 0 129 56z" />
    <glyph glyph-name="h.sups" horiz-adv-x="924" 
d="M738 1377.5q69 -79.5 69 -220.5v-457h-196v420q0 89 -32 129.5t-99 40.5q-74 0 -115.5 -51t-41.5 -145v-394h-196v1049h196v-412q34 59 91 89.5t133 30.5q122 0 191 -79.5z" />
    <glyph glyph-name="i.sups" horiz-adv-x="466" 
d="M152.5 1562q-33.5 31 -33.5 77t33.5 76.5t81.5 30.5t80.5 -30.5t32.5 -76.5q0 -45 -32.5 -76.5t-80.5 -31.5t-81.5 31zM135 1432h196v-732h-196v732z" />
    <glyph glyph-name="j.sups" horiz-adv-x="450" 
d="M144 1562q-33 31 -33 77t33 76.5t82 30.5q47 0 79.5 -31t32.5 -76q0 -46 -32.5 -77t-79.5 -31q-49 0 -82 31zM-17 423.5q-41 15.5 -70 39.5v150q63 -42 119 -42q48 0 71.5 26t23.5 80v754h196v-784q0 -71 -32 -125t-89 -84t-131 -30q-47 0 -88 15.5z" />
    <glyph glyph-name="k.sups" horiz-adv-x="843" 
d="M585 700l-261 345v-345h-197v1049h197v-598l237 282h245l-308 -328l325 -405h-238z" />
    <glyph glyph-name="l.sups" horiz-adv-x="466" 
d="M135 1749h196v-1049h-196v1049z" />
    <glyph glyph-name="m.sups" horiz-adv-x="1300" 
d="M1117 1379.5q66 -75.5 66 -206.5v-473h-196v443q0 145 -110 145q-53 0 -87 -34.5t-37 -92.5v-461h-195v452q0 66 -29 101t-83 35q-53 0 -87 -41t-36 -108v-439h-196v733h195v-104q31 63 80.5 94.5t115.5 31.5q71 0 124.5 -34t81.5 -95q33 62 87 95.5t124 33.5
q116 0 182 -75.5z" />
    <glyph glyph-name="n.sups" horiz-adv-x="924" 
d="M738 1376q69 -79 69 -218v-458h-196v418q0 89 -32 129.5t-99 40.5q-74 0 -115.5 -50.5t-41.5 -143.5v-394h-196v733h195v-108q32 63 90 96.5t135 33.5q122 0 191 -79z" />
    <glyph glyph-name="o.sups" horiz-adv-x="918" 
d="M261.5 725.5q-86.5 48.5 -135.5 136.5t-49 203q0 114 47.5 203t134 138t198.5 49q113 0 200.5 -49t135.5 -138t48 -203q0 -115 -49.5 -203t-137 -136.5t-197.5 -48.5q-109 0 -195.5 48.5zM591 905.5q49 58.5 49 160.5q0 103 -49 161.5t-134 58.5q-83 0 -131 -59t-48 -161
t48 -160.5t131 -58.5q85 0 134 58.5z" />
    <glyph glyph-name="p.sups" horiz-adv-x="959" 
d="M728 1406q73 -49 113.5 -136t40.5 -197q0 -113 -43 -203t-118.5 -141.5t-171.5 -51.5q-71 0 -130 31.5t-94 88.5v-369h-198v1005h196v-127q33 65 95 107t145 42q92 0 165 -49zM593 874q42 27 65 77t23 115t-22.5 114.5t-63.5 76.5t-94 27q-54 0 -94.5 -27.5t-63 -78
t-22.5 -117.5q0 -98 48 -156t128 -58q54 0 96 27z" />
    <glyph glyph-name="q.sups" horiz-adv-x="959" 
d="M833 1433v-1005h-198v386q-35 -64 -95 -100.5t-139 -36.5q-95 0 -168.5 50t-114.5 137.5t-41 195.5q0 110 42.5 200.5t120 142.5t178.5 52q76 0 130 -34t88 -104v116h197zM552 875q41 28 64 78t23 116q0 65 -22.5 114.5t-63 76t-93.5 26.5q-83 0 -132 -60t-49 -161
q0 -100 48.5 -159t129.5 -59q54 0 95 28z" />
    <glyph glyph-name="r.sups" horiz-adv-x="647" 
d="M552.5 1438q27.5 -9 46.5 -24v-187q-26 18 -55.5 28.5t-69.5 10.5q-69 0 -109 -51t-42 -139v-376h-196v733h196v-134q24 72 68 110t105 38q29 0 56.5 -9z" />
    <glyph glyph-name="s.sups" horiz-adv-x="742" 
d="M87 766v174q57 -47 129 -76t136 -29q57 0 86 20.5t29 59.5q0 29 -16.5 47.5t-56.5 29.5l-121 37q-93 26 -139.5 76.5t-46.5 127.5q0 67 36.5 117.5t102.5 77.5t153 27q139 0 250 -71v-169q-49 39 -112 61.5t-126 22.5q-107 0 -107 -63q0 -25 17.5 -43t52.5 -28l120 -29
q98 -26 146 -79t48 -136q0 -72 -37.5 -127.5t-105 -86t-155.5 -30.5q-156 0 -283 89z" />
    <glyph glyph-name="t.sups" horiz-adv-x="655" 
d="M612 1273h-193v-573h-193v573h-182v160h182v208l193 52v-260h193v-160z" />
    <glyph glyph-name="u.sups" horiz-adv-x="920" 
d="M793 1433v-733h-194v111q-33 -63 -86.5 -96.5t-126.5 -33.5q-128 0 -198.5 76.5t-70.5 216.5v459h196v-419q0 -171 136 -171q71 0 109 53.5t38 154.5v382h197z" />
    <glyph glyph-name="v.sups" horiz-adv-x="851" 
d="M808 1433l-289 -733h-186l-290 733h212l171 -481l173 481h209z" />
    <glyph glyph-name="w.sups" horiz-adv-x="1224" 
d="M1178 1433l-232 -733h-186l-156 507l-154 -507h-185l-217 733h204l118 -467l138 467h201l138 -473l132 473h199z" />
    <glyph glyph-name="x.sups" horiz-adv-x="828" 
d="M566 700l-154 252l-155 -252h-221l254 380l-245 353h228l140 -232l146 232h224l-245 -348l256 -385h-228z" />
    <glyph glyph-name="y.sups" horiz-adv-x="855" 
d="M819 1433l-455 -1005h-214l171 357l-275 648h211l169 -442l182 442h211z" />
    <glyph glyph-name="z.sups" horiz-adv-x="755" 
d="M681 865v-165h-601v157l344 413h-333v163h567v-149l-357 -419h380z" />
    <glyph glyph-name="uni0394" unicode="&#x394;" horiz-adv-x="1296" 
d="M1237 197v-197h-1178v197l447 1165h284zM309 218h678l-339 903z" />
    <glyph glyph-name="uni03A9" unicode="&#x3a9;" horiz-adv-x="1532" 
d="M1353.5 436.5q-79.5 -138.5 -229.5 -220.5h257v-216h-558v252q105 27 182 92t118.5 161t41.5 213q0 127 -48.5 225.5t-139 154t-211.5 55.5t-211.5 -55.5t-139 -154t-48.5 -225.5q0 -117 41.5 -213t118.5 -161t182 -92v-252h-558v216h259q-152 83 -231.5 220.5
t-79.5 305.5q0 186 87.5 334.5t240 232.5t339.5 84t339.5 -84t240 -232.5t87.5 -334.5q0 -167 -79.5 -305.5z" />
    <glyph glyph-name="uni03BC" unicode="&#x3bc;" horiz-adv-x="1225" 
d="M1082 1029v-1029h-251v180q-43 -98 -123 -152.5t-183 -55.5q-73 0 -128 33v-394h-254v1418h254v-590q0 -255 206 -255q109 0 167 80t58 227v538h254z" />
    <glyph glyph-name="pi" unicode="&#x3c0;" horiz-adv-x="1433" 
d="M1118 813v-498q0 -61 28 -93t77 -32q35 0 68.5 10.5t53.5 23.5v-199q-33 -20 -81.5 -32.5t-108.5 -12.5q-87 0 -152.5 36t-102 102.5t-36.5 157.5v537h-360v-813h-254v813h-213v216h1309v-216h-228z" />
    <glyph glyph-name="zero" unicode="0" horiz-adv-x="1299" 
d="M358 54q-124 87 -190.5 248.5t-66.5 378.5q0 214 67 375t191 249t291 88q168 0 292 -88t191 -249.5t67 -375.5q0 -217 -66.5 -378t-191 -248t-292.5 -87t-292 87zM806 263.5q64 59.5 96 166.5t32 248q0 142 -32 249.5t-95.5 167.5t-156.5 60q-92 0 -155.5 -59.5
t-95.5 -166.5t-32 -249q0 -143 32 -250t96 -166.5t155 -59.5q92 0 156 59.5z" />
    <glyph glyph-name="one" unicode="1" horiz-adv-x="854" 
d="M672 1362v-1362h-256v1069l-365 -248v260l414 281h207z" />
    <glyph glyph-name="two" unicode="2" horiz-adv-x="1096" 
d="M997 228v-228h-891v184l384 361q122 111 173 198t51 176q0 110 -69.5 174.5t-195.5 64.5q-104 0 -192 -43.5t-154 -113.5v254q84 67 183.5 102.5t224.5 35.5q142 0 247.5 -53.5t162.5 -151t57 -227.5q0 -136 -70 -257.5t-215 -249.5l-243 -226h547z" />
    <glyph glyph-name="three" unicode="3" horiz-adv-x="1116" 
d="M895 667.5q60 -49.5 91.5 -119t31.5 -148.5q0 -123 -64.5 -222t-181 -155t-268.5 -56q-114 0 -207.5 25.5t-182.5 79.5v238q60 -53 146.5 -86.5t201.5 -33.5q91 0 157 27t101 76.5t35 115.5q0 85 -62.5 140.5t-205.5 55.5h-289l34 188h240q128 0 185.5 52t57.5 142
q0 82 -65 129.5t-191 47.5q-116 0 -201.5 -34.5t-141.5 -84.5v237q89 56 184 83.5t209 27.5q143 0 248.5 -46t161.5 -128t56 -187q0 -107 -57.5 -188.5t-166.5 -105.5q84 -21 144 -70.5z" />
    <glyph glyph-name="four" unicode="4" horiz-adv-x="1223" 
d="M1169 332h-221v-332h-241v332h-657v230l572 800h326v-827h221v-203zM707 535v593l-417 -593h417z" />
    <glyph glyph-name="five" unicode="5" horiz-adv-x="1142" 
d="M847.5 823q101.5 -58 154.5 -157t53 -221q0 -137 -67 -246t-190.5 -170.5t-284.5 -61.5q-105 0 -208 30.5t-178 84.5v233q63 -59 156 -93t194 -34q99 0 169.5 32t106.5 88.5t36 128.5q0 73 -34 130t-101.5 89.5t-166.5 32.5q-98 0 -179.5 -23t-165.5 -62v758h837v-225
h-610v-293q103 37 237 37q140 0 241.5 -58z" />
    <glyph glyph-name="six" unicode="6" horiz-adv-x="1234" 
d="M935.5 848q99.5 -56 155 -157t55.5 -230q0 -140 -65 -252.5t-182.5 -177t-268.5 -64.5q-157 0 -276 70.5t-186.5 218.5t-67.5 373q0 238 78 410.5t219 263t324 90.5q198 0 354 -101v-251q-58 53 -144.5 88t-183.5 35q-119 0 -207 -55.5t-136 -159.5t-51 -246
q44 92 136.5 146.5t219.5 54.5t226.5 -56zM762 217.5q59 33.5 93 94.5t34 139q0 76 -34 136t-93.5 93t-133.5 33t-133 -34t-92.5 -93t-33.5 -133q0 -77 33.5 -138t93.5 -96t134 -35q73 0 132 33.5z" />
    <glyph glyph-name="seven" unicode="7" horiz-adv-x="1051" 
d="M1010 1362v-213l-621 -1149h-293l643 1136h-666v226h937z" />
    <glyph glyph-name="eight" unicode="8" horiz-adv-x="1205" 
d="M1039.5 580q63.5 -88 63.5 -205q0 -115 -62 -208t-175 -146.5t-262 -53.5t-263 53.5t-176.5 146.5t-62.5 209q0 117 63.5 204.5t178.5 132.5q-103 42 -158.5 119.5t-55.5 180.5q0 104 59 191t166.5 138t248.5 51q140 0 247 -51t165.5 -138t58.5 -191q0 -103 -55.5 -180.5
t-157.5 -119.5q114 -45 177.5 -133zM442.5 1122q-58.5 -52 -58.5 -137q0 -55 26.5 -100.5t76 -72.5t115.5 -27t115.5 27t76.5 72.5t27 100.5q0 85 -59 137t-160 52t-159.5 -52zM732.5 214q55.5 29 85 79.5t29.5 112.5q0 60 -29.5 110t-85 79t-128.5 29q-75 0 -131 -29
t-85.5 -78.5t-29.5 -110.5q0 -62 29 -112t84.5 -79.5t130.5 -29.5t130.5 29z" />
    <glyph glyph-name="nine" unicode="9" horiz-adv-x="1227" 
d="M876 1322q117 -71 183 -221t66 -379q0 -242 -76.5 -412t-213 -256.5t-315.5 -86.5q-110 0 -198.5 29t-167.5 90v240q139 -136 343 -136q355 0 378 488q-52 -106 -141.5 -159t-210.5 -53q-127 0 -225.5 55.5t-153.5 156t-55 229.5q0 137 64 247.5t180.5 174.5t268.5 64
q157 0 274 -71zM729 698.5q60 32.5 93.5 89t33.5 125.5q0 74 -33.5 133t-92.5 92t-132 33t-130 -33t-89.5 -92t-32.5 -134q0 -72 31.5 -128t88 -87t127.5 -31q76 0 136 32.5z" />
    <glyph glyph-name="uni2776" unicode="&#x2776;" horiz-adv-x="1473" 
d="M1074.5 53.5q145.5 94.5 224.5 258t79 364.5q0 202 -79 366t-224.5 259t-338.5 95q-192 0 -337.5 -95t-224.5 -259.5t-79 -365.5t79 -364.5t224.5 -258t337.5 -94.5q193 0 338.5 94.5zM687 870l-205 -139v172l241 164h134v-782h-170v585z" />
    <glyph glyph-name="uni2777" unicode="&#x2777;" horiz-adv-x="1473" 
d="M1074.5 53.5q145.5 94.5 224.5 258t79 364.5q0 202 -79 366t-224.5 259t-338.5 95q-192 0 -337.5 -95t-224.5 -259.5t-79 -365.5t79 -364.5t224.5 -258t337.5 -94.5q193 0 338.5 94.5zM473 414l212 203q67 62 96.5 108.5t29.5 92.5q0 59 -35.5 91.5t-97.5 32.5
q-53 0 -107 -26.5t-99 -71.5v164q108 85 239 85q82 0 144 -30.5t96 -87.5t34 -133q0 -69 -37 -133t-116 -139l-129 -124h294v-152h-524v120z" />
    <glyph glyph-name="uni2778" unicode="&#x2778;" horiz-adv-x="1473" 
d="M1074.5 53.5q145.5 94.5 224.5 258t79 364.5q0 202 -79 366t-224.5 259t-338.5 95q-192 0 -337.5 -95t-224.5 -259.5t-79 -365.5t79 -364.5t224.5 -258t337.5 -94.5q193 0 338.5 94.5zM603 276q-57 16 -107 49v148q38 -29 92.5 -48t118.5 -19q68 0 107.5 32t39.5 85
q0 49 -36 75.5t-106 26.5h-171l24 123h146q61 0 89.5 25t28.5 75q0 46 -34.5 70.5t-102.5 24.5q-63 0 -114.5 -21t-79.5 -51v154q54 33 111 49.5t125 16.5q80 0 140.5 -26.5t93.5 -74.5t33 -110q0 -60 -30 -103.5t-85 -61.5q66 -20 103.5 -72t37.5 -125t-38.5 -132
t-106.5 -92.5t-152 -33.5q-70 0 -127 16z" />
    <glyph glyph-name="uni2779" unicode="&#x2779;" horiz-adv-x="1473" 
d="M1074.5 53.5q145.5 94.5 224.5 258t79 364.5q0 202 -79 366t-224.5 259t-338.5 95q-192 0 -337.5 -95t-224.5 -259.5t-79 -365.5t79 -364.5t224.5 -258t337.5 -94.5q193 0 338.5 94.5zM752 468h-367v143l317 454h210v-462h120v-134h-120v-184h-160v183zM752 603v299
l-206 -299h206z" />
    <glyph glyph-name="uni277A" unicode="&#x277a;" horiz-adv-x="1473" 
d="M1074.5 53.5q145.5 94.5 224.5 258t79 364.5q0 202 -79 366t-224.5 259t-338.5 95q-192 0 -337.5 -95t-224.5 -259.5t-79 -365.5t79 -364.5t224.5 -258t337.5 -94.5q193 0 338.5 94.5zM593 271q-62 20 -104 52v154q34 -36 91 -59t117 -23q75 0 117 36.5t42 100.5
q0 61 -40 96.5t-113 35.5q-60 0 -106 -15.5t-99 -44.5v463h490v-147h-337v-157q55 23 127 23q74 0 131.5 -32t89.5 -88.5t32 -128.5q0 -83 -39.5 -148t-111 -101.5t-163.5 -36.5q-62 0 -124 20z" />
    <glyph glyph-name="uni277B" unicode="&#x277b;" horiz-adv-x="1473" 
d="M1074.5 53.5q145.5 94.5 224.5 258t79 364.5q0 202 -79 366t-224.5 259t-338.5 95q-192 0 -337.5 -95t-224.5 -259.5t-79 -365.5t79 -364.5t224.5 -258t337.5 -94.5q193 0 338.5 94.5zM509.5 360.5q-80.5 100.5 -80.5 287.5q0 136 44 236t124.5 153.5t187.5 53.5
q118 0 208 -61v-163q-37 36 -86.5 56.5t-107.5 20.5q-89 0 -143 -66.5t-60 -176.5q27 51 76.5 79t115.5 28q69 0 125 -32.5t87.5 -91t31.5 -131.5q0 -83 -38 -150t-105.5 -105t-153.5 -38q-145 0 -225.5 100.5zM827 442.5q36 41.5 36 106.5q0 59 -37 97.5t-92 38.5
q-56 0 -92.5 -38.5t-36.5 -97.5q0 -64 37 -106t93 -42t92 41.5z" />
    <glyph glyph-name="uni277C" unicode="&#x277c;" horiz-adv-x="1471" 
d="M1072.5 53.5q145.5 94.5 224.5 258t79 364.5q0 202 -79 366t-224.5 259t-338.5 95q-192 0 -337.5 -95t-224.5 -259.5t-79 -365.5t79 -364.5t224.5 -258t337.5 -94.5q193 0 338.5 94.5zM839 919h-361v148h545v-133l-348 -649h-192z" />
    <glyph glyph-name="uni277D" unicode="&#x277d;" horiz-adv-x="1473" 
d="M1074.5 53.5q145.5 94.5 224.5 258t79 364.5q0 202 -79 366t-224.5 259t-338.5 95q-192 0 -337.5 -95t-224.5 -259.5t-79 -365.5t79 -364.5t224.5 -258t337.5 -94.5q193 0 338.5 94.5zM584.5 292q-66.5 32 -103.5 88t-37 127q0 61 30 108t85 77q-50 28 -76.5 71t-26.5 98
q0 64 36 117t100 83t145 30t145.5 -30t100 -82.5t35.5 -117.5q0 -55 -26.5 -98t-76.5 -71q56 -30 87 -77.5t31 -107.5q0 -70 -37.5 -126.5t-105 -88.5t-153.5 -32t-152.5 32zM816.5 771.5q30.5 29.5 30.5 74.5q0 48 -29 75.5t-81 27.5q-51 0 -80.5 -27.5t-29.5 -75.5
q0 -45 30.5 -74.5t79.5 -29.5t79.5 29.5zM827.5 435.5q33.5 32.5 33.5 86.5q0 51 -33.5 82t-90.5 31q-56 0 -89 -31t-33 -82q0 -54 33 -86.5t89 -32.5q57 0 90.5 32.5z" />
    <glyph glyph-name="uni277E" unicode="&#x277e;" horiz-adv-x="1471" 
d="M1072.5 53.5q145.5 94.5 224.5 258t79 364.5q0 202 -79 366t-224.5 259t-338.5 95q-192 0 -337.5 -95t-224.5 -259.5t-79 -365.5t79 -364.5t224.5 -258t337.5 -94.5q193 0 338.5 94.5zM579.5 278.5q-52.5 18.5 -96.5 55.5v156q80 -83 203 -83q90 0 138 62t57 185
q-25 -48 -73 -73t-114 -25q-72 0 -129 30.5t-89 87t-32 130.5q0 83 38 148t106.5 102t155.5 37q146 0 226.5 -100t80.5 -289q0 -138 -42.5 -237.5t-121.5 -152t-187 -52.5q-68 0 -120.5 18.5zM835 715.5q37 36.5 37 92.5q0 59 -37 99.5t-92 40.5t-90.5 -39.5t-35.5 -99.5
q0 -58 34 -94t89 -36q58 0 95 36.5z" />
    <glyph glyph-name="uni277F" unicode="&#x277f;" horiz-adv-x="1471" 
d="M1072.5 53.5q145.5 94.5 224.5 258t79 364.5q0 202 -79 366t-224.5 259t-338.5 95q-192 0 -337.5 -95t-224.5 -259.5t-79 -365.5t79 -364.5t224.5 -258t337.5 -94.5q193 0 338.5 94.5zM725.5 366q-58.5 106 -58.5 318q0 202 59.5 305t170.5 103q114 0 176 -104t62 -306
q0 -209 -61.5 -315.5t-176.5 -106.5q-113 0 -171.5 106zM441 895l-120 -91v141l154 120h101v-780h-135v610zM967 471.5q22 67.5 22 209.5q0 138 -22 202t-69 64q-46 0 -65.5 -62.5t-19.5 -200.5q0 -147 19.5 -213.5t65.5 -66.5q47 0 69 67.5z" />
    <glyph glyph-name="uni2460" unicode="&#x2460;" horiz-adv-x="1473" 
d="M398.5 53.5q-145.5 94.5 -224.5 258t-79 364.5t79 365.5t224.5 259.5t337.5 95q193 0 338.5 -95t224.5 -259t79 -366q0 -201 -79 -364.5t-224.5 -258t-338.5 -94.5q-192 0 -337.5 94.5zM1014.5 152.5q117.5 78.5 179.5 215t62 308.5q0 171 -62 309t-179.5 217t-278.5 79
q-160 0 -277.5 -79.5t-180 -217t-62.5 -308.5q0 -172 62.5 -308.5t180 -215t277.5 -78.5q161 0 278.5 78.5zM687 870l-205 -139v172l241 164h134v-782h-170v585z" />
    <glyph glyph-name="uni2461" unicode="&#x2461;" horiz-adv-x="1473" 
d="M398.5 53.5q-145.5 94.5 -224.5 258t-79 364.5t79 365.5t224.5 259.5t337.5 95q193 0 338.5 -95t224.5 -259t79 -366q0 -201 -79 -364.5t-224.5 -258t-338.5 -94.5q-192 0 -337.5 94.5zM1014.5 152.5q117.5 78.5 179.5 215t62 308.5q0 171 -62 309t-179.5 217t-278.5 79
q-160 0 -277.5 -79.5t-180 -217t-62.5 -308.5q0 -172 62.5 -308.5t180 -215t277.5 -78.5q161 0 278.5 78.5zM473 414l212 203q67 62 96.5 108.5t29.5 92.5q0 59 -35.5 91.5t-97.5 32.5q-53 0 -107 -26.5t-99 -71.5v164q108 85 239 85q82 0 144 -30.5t96 -87.5t34 -133
q0 -69 -37 -133t-116 -139l-129 -124h294v-152h-524v120z" />
    <glyph glyph-name="uni2462" unicode="&#x2462;" horiz-adv-x="1473" 
d="M398.5 53.5q-145.5 94.5 -224.5 258t-79 364.5t79 365.5t224.5 259.5t337.5 95q193 0 338.5 -95t224.5 -259t79 -366q0 -201 -79 -364.5t-224.5 -258t-338.5 -94.5q-192 0 -337.5 94.5zM1014.5 152.5q117.5 78.5 179.5 215t62 308.5q0 171 -62 309t-179.5 217t-278.5 79
q-160 0 -277.5 -79.5t-180 -217t-62.5 -308.5q0 -172 62.5 -308.5t180 -215t277.5 -78.5q161 0 278.5 78.5zM603 276q-57 16 -107 49v148q38 -29 92.5 -48t118.5 -19q68 0 107.5 32t39.5 85q0 49 -36 75.5t-106 26.5h-171l24 123h146q61 0 89.5 25t28.5 75q0 46 -34.5 70.5
t-102.5 24.5q-63 0 -114.5 -21t-79.5 -51v154q54 33 111 49.5t125 16.5q80 0 140.5 -26.5t93.5 -74.5t33 -110q0 -60 -30 -103.5t-85 -61.5q66 -20 103.5 -72t37.5 -125t-38.5 -132t-106.5 -92.5t-152 -33.5q-70 0 -127 16z" />
    <glyph glyph-name="uni2463" unicode="&#x2463;" horiz-adv-x="1473" 
d="M398.5 53.5q-145.5 94.5 -224.5 258t-79 364.5t79 365.5t224.5 259.5t337.5 95q193 0 338.5 -95t224.5 -259t79 -366q0 -201 -79 -364.5t-224.5 -258t-338.5 -94.5q-192 0 -337.5 94.5zM1014.5 152.5q117.5 78.5 179.5 215t62 308.5q0 171 -62 309t-179.5 217t-278.5 79
q-160 0 -277.5 -79.5t-180 -217t-62.5 -308.5q0 -172 62.5 -308.5t180 -215t277.5 -78.5q161 0 278.5 78.5zM752 468h-367v143l317 454h210v-462h120v-134h-120v-184h-160v183zM752 603v299l-206 -299h206z" />
    <glyph glyph-name="uni2464" unicode="&#x2464;" horiz-adv-x="1473" 
d="M398.5 53.5q-145.5 94.5 -224.5 258t-79 364.5t79 365.5t224.5 259.5t337.5 95q193 0 338.5 -95t224.5 -259t79 -366q0 -201 -79 -364.5t-224.5 -258t-338.5 -94.5q-192 0 -337.5 94.5zM1014.5 152.5q117.5 78.5 179.5 215t62 308.5q0 171 -62 309t-179.5 217t-278.5 79
q-160 0 -277.5 -79.5t-180 -217t-62.5 -308.5q0 -172 62.5 -308.5t180 -215t277.5 -78.5q161 0 278.5 78.5zM593 271q-62 20 -104 52v154q34 -36 91 -59t117 -23q75 0 117 36.5t42 100.5q0 61 -40 96.5t-113 35.5q-60 0 -106 -15.5t-99 -44.5v463h490v-147h-337v-157
q55 23 127 23q74 0 131.5 -32t89.5 -88.5t32 -128.5q0 -83 -39.5 -148t-111 -101.5t-163.5 -36.5q-62 0 -124 20z" />
    <glyph glyph-name="uni2465" unicode="&#x2465;" horiz-adv-x="1473" 
d="M398.5 53.5q-145.5 94.5 -224.5 258t-79 364.5t79 365.5t224.5 259.5t337.5 95q193 0 338.5 -95t224.5 -259t79 -366q0 -201 -79 -364.5t-224.5 -258t-338.5 -94.5q-192 0 -337.5 94.5zM1014.5 152.5q117.5 78.5 179.5 215t62 308.5q0 171 -62 309t-179.5 217t-278.5 79
q-160 0 -277.5 -79.5t-180 -217t-62.5 -308.5q0 -172 62.5 -308.5t180 -215t277.5 -78.5q161 0 278.5 78.5zM509.5 360.5q-80.5 100.5 -80.5 287.5q0 136 44 236t124.5 153.5t187.5 53.5q118 0 208 -61v-163q-37 36 -86.5 56.5t-107.5 20.5q-89 0 -143 -66.5t-60 -176.5
q27 51 76.5 79t115.5 28q69 0 125 -32.5t87.5 -91t31.5 -131.5q0 -83 -38 -150t-105.5 -105t-153.5 -38q-145 0 -225.5 100.5zM827 442.5q36 41.5 36 106.5q0 59 -37 97.5t-92 38.5q-56 0 -92.5 -38.5t-36.5 -97.5q0 -64 37 -106t93 -42t92 41.5z" />
    <glyph glyph-name="uni2466" unicode="&#x2466;" horiz-adv-x="1473" 
d="M398.5 53.5q-145.5 94.5 -224.5 258t-79 364.5t79 365.5t224.5 259.5t337.5 95q193 0 338.5 -95t224.5 -259t79 -366q0 -201 -79 -364.5t-224.5 -258t-338.5 -94.5q-192 0 -337.5 94.5zM1014.5 152.5q117.5 78.5 179.5 215t62 308.5q0 171 -62 309t-179.5 217t-278.5 79
q-160 0 -277.5 -79.5t-180 -217t-62.5 -308.5q0 -172 62.5 -308.5t180 -215t277.5 -78.5q161 0 278.5 78.5zM839 919h-361v148h545v-133l-348 -649h-192z" />
    <glyph glyph-name="uni2467" unicode="&#x2467;" horiz-adv-x="1473" 
d="M398.5 53.5q-145.5 94.5 -224.5 258t-79 364.5t79 365.5t224.5 259.5t337.5 95q193 0 338.5 -95t224.5 -259t79 -366q0 -201 -79 -364.5t-224.5 -258t-338.5 -94.5q-192 0 -337.5 94.5zM1014.5 152.5q117.5 78.5 179.5 215t62 308.5q0 171 -62 309t-179.5 217t-278.5 79
q-160 0 -277.5 -79.5t-180 -217t-62.5 -308.5q0 -172 62.5 -308.5t180 -215t277.5 -78.5q161 0 278.5 78.5zM584.5 292q-66.5 32 -103.5 88t-37 127q0 61 30 108t85 77q-50 28 -76.5 71t-26.5 98q0 64 36 117t100 83t145 30t145.5 -30t100 -82.5t35.5 -117.5
q0 -55 -26.5 -98t-76.5 -71q56 -30 87 -77.5t31 -107.5q0 -70 -37.5 -126.5t-105 -88.5t-153.5 -32t-152.5 32zM816.5 771.5q30.5 29.5 30.5 74.5q0 48 -29 75.5t-81 27.5q-51 0 -80.5 -27.5t-29.5 -75.5q0 -45 30.5 -74.5t79.5 -29.5t79.5 29.5zM827.5 435.5
q33.5 32.5 33.5 86.5q0 51 -33.5 82t-90.5 31q-56 0 -89 -31t-33 -82q0 -54 33 -86.5t89 -32.5q57 0 90.5 32.5z" />
    <glyph glyph-name="uni2468" unicode="&#x2468;" horiz-adv-x="1473" 
d="M398.5 53.5q-145.5 94.5 -224.5 258t-79 364.5t79 365.5t224.5 259.5t337.5 95q193 0 338.5 -95t224.5 -259t79 -366q0 -201 -79 -364.5t-224.5 -258t-338.5 -94.5q-192 0 -337.5 94.5zM1014.5 152.5q117.5 78.5 179.5 215t62 308.5q0 171 -62 309t-179.5 217t-278.5 79
q-160 0 -277.5 -79.5t-180 -217t-62.5 -308.5q0 -172 62.5 -308.5t180 -215t277.5 -78.5q161 0 278.5 78.5zM579.5 278.5q-52.5 18.5 -96.5 55.5v156q80 -83 203 -83q90 0 138 62t57 185q-25 -48 -73 -73t-114 -25q-72 0 -129 30.5t-89 87t-32 130.5q0 83 38 148t106.5 102
t155.5 37q146 0 226.5 -100t80.5 -289q0 -138 -42.5 -237.5t-121.5 -152t-187 -52.5q-68 0 -120.5 18.5zM835 715.5q37 36.5 37 92.5q0 59 -37 99.5t-92 40.5t-90.5 -39.5t-35.5 -99.5q0 -58 34 -94t89 -36q58 0 95 36.5z" />
    <glyph glyph-name="uni2469" unicode="&#x2469;" horiz-adv-x="1473" 
d="M398.5 53.5q-145.5 94.5 -224.5 258t-79 364.5t79 365.5t224.5 259.5t337.5 95q193 0 338.5 -95t224.5 -259t79 -366q0 -201 -79 -364.5t-224.5 -258t-338.5 -94.5q-192 0 -337.5 94.5zM1014.5 152.5q117.5 78.5 179.5 215t62 308.5q0 171 -62 309t-179.5 217t-278.5 79
q-160 0 -277.5 -79.5t-180 -217t-62.5 -308.5q0 -172 62.5 -308.5t180 -215t277.5 -78.5q161 0 278.5 78.5zM725.5 366q-58.5 106 -58.5 318q0 202 59.5 305t170.5 103q114 0 176 -104t62 -306q0 -209 -61.5 -315.5t-176.5 -106.5q-113 0 -171.5 106zM441 895l-120 -91v141
l154 120h101v-780h-135v610zM967 471.5q22 67.5 22 209.5q0 138 -22 202t-69 64q-46 0 -65.5 -62.5t-19.5 -200.5q0 -147 19.5 -213.5t65.5 -66.5q47 0 69 67.5z" />
    <glyph glyph-name="zero.case" horiz-adv-x="1320" 
d="M363 58.5q-126 91.5 -194 260.5t-68 397q0 225 68 394t194.5 261.5t296.5 92.5q171 0 297.5 -92.5t194.5 -262t68 -394.5q0 -228 -67.5 -396.5t-194 -260t-298.5 -91.5q-171 0 -297 91.5zM822 268q66 64 99 179t33 266q0 153 -33 269t-99 180.5t-162 64.5
q-95 0 -161 -64.5t-99 -179.5t-33 -268t33 -268t99 -179t161 -64q96 0 162 64z" />
    <glyph glyph-name="one.case" horiz-adv-x="868" 
d="M687 1434v-1434h-257v1141l-380 -248v260l430 281h207z" />
    <glyph glyph-name="two.case" horiz-adv-x="1108" 
d="M1013 228v-228h-911v184l390 389q87 86 137 152t72 125.5t22 124.5q0 77 -32 134.5t-93 89t-145 31.5q-106 0 -197.5 -44.5t-156.5 -114.5v254q177 139 410 139q145 0 253 -56t166.5 -158t58.5 -237q0 -147 -69.5 -271.5t-218.5 -261.5l-256 -252h570z" />
    <glyph glyph-name="three.case" horiz-adv-x="1134" 
d="M909.5 700q61.5 -53 94 -129t32.5 -165q0 -122 -65.5 -222.5t-185 -158.5t-272.5 -58q-117 0 -212.5 26t-188.5 81v237q63 -53 154.5 -86.5t209.5 -33.5q92 0 159 28.5t102.5 78.5t35.5 115q0 100 -71 162.5t-222 62.5h-284l35 195h249q133 0 193.5 56t60.5 151
q0 90 -68 142.5t-199 52.5q-120 0 -207 -35t-146 -85v237q90 57 188 84.5t216 27.5q146 0 253.5 -48.5t165 -134.5t57.5 -197q0 -73 -26 -137.5t-78.5 -110t-127.5 -62.5q86 -21 147.5 -74z" />
    <glyph glyph-name="four.case" horiz-adv-x="1248" 
d="M1197 375h-232v-375h-241v375h-673v232l586 827h328v-854h232v-205zM724 580v617l-430 -617h430z" />
    <glyph glyph-name="five.case" horiz-adv-x="1156" 
d="M862 868.5q103 -60.5 157 -164.5t54 -231q0 -145 -68 -260t-193 -180.5t-289 -65.5q-108 0 -214.5 30.5t-183.5 84.5v233q66 -59 162 -93t201 -34q101 0 173 35.5t109 98t37 142.5t-34.5 141.5t-104 96.5t-170.5 35q-102 0 -187 -23t-171 -62v782h858v-225h-631v-318
q106 38 250 38q142 0 245 -60.5z" />
    <glyph glyph-name="six.case" horiz-adv-x="1253" 
d="M950.5 886.5q101.5 -58.5 158.5 -164t57 -241.5q0 -146 -66.5 -263t-186 -184t-274.5 -67q-160 0 -281 75t-189.5 232t-68.5 396q0 247 79.5 426.5t222 274t329.5 94.5q205 0 364 -101v-255q-60 56 -148 91.5t-190 35.5q-122 0 -212 -59.5t-139.5 -170.5t-52.5 -262
q48 89 143 145t223 56q130 0 231.5 -58.5zM776.5 220q61.5 36 97 101.5t35.5 150.5q0 82 -35 146t-97 100t-139 36q-78 0 -139.5 -36.5t-96 -100t-34.5 -143.5q0 -83 35 -149t97 -103.5t139 -37.5q76 0 137.5 36z" />
    <glyph glyph-name="seven.case" horiz-adv-x="1063" 
d="M1023 1434v-213l-642 -1221h-292l664 1208h-688v226h958z" />
    <glyph glyph-name="eight.case" horiz-adv-x="1225" 
d="M1058 611.5q65 -91.5 65 -215.5q0 -121 -63 -219t-179 -154t-268 -56t-268 56t-179.5 154t-63.5 219q0 123 65 214.5t183 139.5q-106 45 -163.5 126t-57.5 190t60 200t170.5 145t253.5 54t252.5 -54t169.5 -145t60 -200t-57 -190t-163 -125q118 -48 183 -139.5z
M444 1189.5q-61 -56.5 -61 -150.5q0 -60 28 -109t79.5 -78t121.5 -29q69 0 121 29t80 78t28 109q0 61 -27.5 108t-79.5 73t-122 26q-107 0 -168 -56.5zM747.5 216.5q57.5 31.5 88.5 86.5t31 123q0 66 -30.5 119.5t-88.5 85t-135 31.5q-78 0 -135.5 -31.5t-88.5 -85
t-31 -119.5q0 -67 30.5 -122t88 -87t135.5 -32t135.5 31.5z" />
    <glyph glyph-name="nine.case" horiz-adv-x="1245" 
d="M890 1392q120 -72 187 -224.5t67 -385.5q0 -261 -78 -444.5t-217 -277t-321 -93.5q-113 0 -204.5 29t-171.5 90v240q142 -136 353 -136q363 0 387 527q-51 -97 -143.5 -145t-212.5 -48q-131 0 -233.5 57t-159 159t-56.5 233q0 138 65 250t184 176.5t274 64.5
q160 0 280 -72zM742 758.5q62 33.5 97 91.5t35 129q0 76 -35 136t-96 94t-137 34t-135.5 -33.5t-93 -94t-33.5 -137.5q0 -74 33 -131.5t91.5 -89.5t132.5 -32q79 0 141 33.5z" />
    <glyph glyph-name="zero.case_zero" horiz-adv-x="1320" 
d="M957.5 1371.5q126.5 -92.5 194.5 -262t68 -394.5q0 -228 -67.5 -396.5t-194 -260t-298.5 -91.5q-171 0 -297 91.5t-194 260.5t-68 397q0 225 68 394t194.5 261.5t296.5 92.5q171 0 297.5 -92.5zM499 1162.5q-66 -64.5 -99 -179.5t-33 -268q0 -97 14 -186l485 579
q-37 57 -89 88t-117 31q-95 0 -161 -64.5zM822 268q66 64 99 179t33 266q0 119 -19 211l-490 -585q78 -135 215 -135q96 0 162 64z" />
    <glyph glyph-name="zero.onum" horiz-adv-x="1298" 
d="M356.5 43.5q-128.5 76.5 -200.5 213.5t-72 311q0 165 72.5 297t201 207t290.5 75q163 0 291.5 -75t201 -207.5t72.5 -298.5q0 -173 -72.5 -309.5t-201 -213t-291.5 -76.5t-291.5 76.5zM806 246q68 45 105 127.5t37 191.5q0 104 -37 182.5t-105 122t-158 43.5t-157.5 -43
t-104 -121.5t-36.5 -182.5q0 -110 36.5 -192.5t104 -127.5t157.5 -45t158 45z" />
    <glyph glyph-name="one.onum" horiz-adv-x="838" 
d="M680 1116v-1116h-256v835l-370 -207v249l420 239h206z" />
    <glyph glyph-name="two.onum" horiz-adv-x="1058" 
d="M974 219v-219h-875v183l367 260q111 77 162 143.5t51 143.5q0 94 -57.5 145t-171.5 51q-104 0 -194.5 -45.5t-157.5 -118.5v248q173 142 402 142q136 0 235 -49t151 -135.5t52 -197.5q0 -122 -63.5 -219t-204.5 -194l-194 -138h498z" />
    <glyph glyph-name="three.onum" horiz-adv-x="1083" 
d="M878 421.5q60 -49.5 91.5 -119t31.5 -148.5q0 -123 -64.5 -222t-181 -155t-268.5 -56q-114 0 -207.5 25.5t-182.5 79.5v238q60 -53 146.5 -86.5t201.5 -33.5q91 0 157 27t101 76.5t35 115.5q0 85 -62.5 140.5t-205.5 55.5h-289l34 188h240q128 0 185.5 52t57.5 142
q0 82 -65 129.5t-191 47.5q-116 0 -201.5 -34.5t-141.5 -84.5v237q89 56 184 83.5t209 27.5q143 0 248.5 -46t161.5 -128t56 -187q0 -107 -57.5 -188.5t-166.5 -105.5q84 -21 144 -70.5z" />
    <glyph glyph-name="four.onum" horiz-adv-x="1234" 
d="M1178 95h-220v-337h-240v337h-658v232l571 793h327v-820h220v-205zM718 300v585l-414 -585h414z" />
    <glyph glyph-name="five.onum" horiz-adv-x="1102" 
d="M829.5 577.5q101.5 -57.5 154.5 -156.5t53 -221q0 -137 -67 -246t-190.5 -171t-284.5 -62q-106 0 -208.5 31t-177.5 85v232q64 -59 156.5 -92.5t193.5 -33.5q99 0 169.5 31.5t106.5 88t36 128.5q0 73 -34 130t-101.5 89.5t-166.5 32.5q-98 0 -179 -23t-166 -62v758h838
v-225h-611v-293q103 37 237 37q140 0 241.5 -57.5z" />
    <glyph glyph-name="six.onum" horiz-adv-x="1221" 
d="M929.5 848q99.5 -56 155 -157t55.5 -230q0 -140 -65 -252.5t-182.5 -177t-268.5 -64.5q-157 0 -276 70.5t-186.5 218.5t-67.5 373q0 238 78 410.5t219 263t324 90.5q198 0 354 -101v-251q-58 53 -144.5 88t-183.5 35q-119 0 -207 -55.5t-136 -159.5t-51 -246
q44 92 136.5 146.5t219.5 54.5t226.5 -56zM756 217.5q59 33.5 93 94.5t34 139q0 76 -34 136t-93.5 93t-133.5 33t-133 -34t-92.5 -93t-33.5 -133q0 -77 33.5 -138t93.5 -96t134 -35q73 0 132 33.5z" />
    <glyph glyph-name="seven.onum" horiz-adv-x="1025" 
d="M990 1116v-212l-621 -1150h-293l642 1136h-665v226h937z" />
    <glyph glyph-name="eight.onum" horiz-adv-x="1205" 
d="M1039.5 580q63.5 -88 63.5 -205q0 -115 -62 -208t-175 -146.5t-262 -53.5t-263 53.5t-176.5 146.5t-62.5 209q0 117 63.5 204.5t178.5 132.5q-103 42 -158.5 119.5t-55.5 180.5q0 104 59 191t166.5 138t248.5 51q140 0 247 -51t165.5 -138t58.5 -191q0 -103 -55.5 -180.5
t-157.5 -119.5q114 -45 177.5 -133zM442.5 1122q-58.5 -52 -58.5 -137q0 -55 26.5 -100.5t76 -72.5t115.5 -27t115.5 27t76.5 72.5t27 100.5q0 85 -59 137t-160 52t-159.5 -52zM732.5 214q55.5 29 85 79.5t29.5 112.5q0 60 -29.5 110t-85 79t-128.5 29q-75 0 -131 -29
t-85.5 -78.5t-29.5 -110.5q0 -62 29 -112t84.5 -79.5t130.5 -29.5t130.5 29z" />
    <glyph glyph-name="nine.onum" horiz-adv-x="1201" 
d="M865.5 1083q117.5 -71 183.5 -221t66 -379q0 -242 -78.5 -412t-218.5 -256.5t-324 -86.5q-110 0 -199 29t-168 90v240q141 -136 344 -136q370 0 393 488q-52 -105 -141.5 -157t-210.5 -52q-127 0 -225.5 55.5t-153.5 155t-55 227.5q0 137 64 247.5t180.5 174.5t268.5 64
q157 0 274.5 -71zM718 458.5q60 32.5 93.5 89.5t33.5 126q0 74 -33.5 133t-92.5 92t-132 33t-130 -33t-89.5 -92t-32.5 -134q0 -72 31.5 -128t88 -87.5t127.5 -31.5q76 0 136 32.5z" />
    <glyph glyph-name="zero.onum_zero" horiz-adv-x="1298" 
d="M939.5 1072q128.5 -75 201 -207.5t72.5 -298.5q0 -173 -72.5 -309.5t-201 -213t-291.5 -76.5t-291.5 76.5t-200.5 213.5t-72 311q0 165 72.5 297t201 207t290.5 75q163 0 291.5 -75zM490.5 870q-67.5 -43 -104 -121.5t-36.5 -182.5q0 -114 38 -196l419 499
q-68 44 -159 44q-90 0 -157.5 -43zM806 246q68 45 105 127.5t37 191.5q0 106 -38 184l-421 -502q67 -46 159 -46q90 0 158 45z" />
    <glyph glyph-name="zero.tnum" 
d="M352 51.5q-119 84.5 -183 245t-64 384.5q0 221 64 381.5t183.5 245.5t281.5 85q163 0 283 -85.5t184 -246t64 -381.5q0 -224 -64 -384.5t-183.5 -244.5t-283.5 -84q-163 0 -282 84.5zM834 328.5q68 124.5 68 349.5q0 226 -68 351.5t-200 125.5q-131 0 -198.5 -124.5
t-67.5 -350.5q0 -227 67.5 -351.5t198.5 -124.5q132 0 200 124.5z" />
    <glyph glyph-name="one.tnum" 
d="M1154 225v-225h-966v225h362v845l-345 -229v260l395 261h207v-1137h347z" />
    <glyph glyph-name="two.tnum" 
d="M1085 228v-228h-891v184l384 361q122 111 173 198t51 176q0 110 -69.5 174.5t-195.5 64.5q-104 0 -192 -43.5t-154 -113.5v254q84 67 183.5 102.5t224.5 35.5q142 0 247.5 -53.5t162.5 -151t57 -227.5q0 -136 -70 -257.5t-215 -249.5l-243 -226h547z" />
    <glyph glyph-name="three.tnum" 
d="M972 667.5q60 -49.5 91.5 -119t31.5 -148.5q0 -123 -64.5 -222t-181 -155t-268.5 -56q-114 0 -207.5 25.5t-182.5 79.5v238q60 -53 146.5 -86.5t201.5 -33.5q91 0 157 27t101 76.5t35 115.5q0 85 -62.5 140.5t-205.5 55.5h-289l34 188h240q128 0 185.5 52t57.5 142
q0 82 -65 129.5t-191 47.5q-116 0 -201.5 -34.5t-141.5 -84.5v237q89 56 184 83.5t209 27.5q143 0 248.5 -46t161.5 -128t56 -187q0 -107 -57.5 -188.5t-166.5 -105.5q84 -21 144 -70.5z" />
    <glyph glyph-name="four.tnum" 
d="M1193 332h-221v-332h-241v332h-657v230l572 800h326v-827h221v-203zM731 535v593l-417 -593h417z" />
    <glyph glyph-name="five.tnum" 
d="M912.5 823q101.5 -58 154.5 -157t53 -221q0 -137 -67 -246t-190.5 -170.5t-284.5 -61.5q-105 0 -208 30.5t-178 84.5v233q63 -59 156 -93t194 -34q99 0 169.5 32t106.5 88.5t36 128.5q0 73 -34 130t-101.5 89.5t-166.5 32.5q-98 0 -179.5 -23t-165.5 -62v758h837v-225
h-610v-293q103 37 237 37q140 0 241.5 -58z" />
    <glyph glyph-name="six.tnum" 
d="M952.5 848q99.5 -56 155 -157t55.5 -230q0 -140 -65 -252.5t-182.5 -177t-268.5 -64.5q-157 0 -276 70.5t-186.5 218.5t-67.5 373q0 238 78 410.5t219 263t324 90.5q198 0 354 -101v-251q-58 53 -144.5 88t-183.5 35q-119 0 -207 -55.5t-136 -159.5t-51 -246
q44 92 136.5 146.5t219.5 54.5t226.5 -56zM779 217.5q59 33.5 93 94.5t34 139q0 76 -34 136t-93.5 93t-133.5 33t-133 -34t-92.5 -93t-33.5 -133q0 -77 33.5 -138t93.5 -96t134 -35q73 0 132 33.5z" />
    <glyph glyph-name="seven.tnum" 
d="M1116 1362v-213l-621 -1149h-293l643 1136h-666v226h937z" />
    <glyph glyph-name="eight.tnum" 
d="M1072.5 580q63.5 -88 63.5 -205q0 -115 -62 -208t-175 -146.5t-262 -53.5t-263 53.5t-176.5 146.5t-62.5 209q0 117 63.5 204.5t178.5 132.5q-103 42 -158.5 119.5t-55.5 180.5q0 104 59 191t166.5 138t248.5 51q140 0 247 -51t165.5 -138t58.5 -191q0 -103 -55.5 -180.5
t-157.5 -119.5q114 -45 177.5 -133zM475.5 1122q-58.5 -52 -58.5 -137q0 -55 26.5 -100.5t76 -72.5t115.5 -27t115.5 27t76.5 72.5t27 100.5q0 85 -59 137t-160 52t-159.5 -52zM765.5 214q55.5 29 85 79.5t29.5 112.5q0 60 -29.5 110t-85 79t-128.5 29q-75 0 -131 -29
t-85.5 -78.5t-29.5 -110.5q0 -62 29 -112t84.5 -79.5t130.5 -29.5t130.5 29z" />
    <glyph glyph-name="nine.tnum" 
d="M898 1322q117 -71 183 -221t66 -379q0 -242 -76.5 -412t-213 -256.5t-315.5 -86.5q-110 0 -198.5 29t-167.5 90v240q139 -136 343 -136q355 0 378 488q-52 -106 -141.5 -159t-210.5 -53q-127 0 -225.5 55.5t-153.5 156t-55 229.5q0 137 64 247.5t180.5 174.5t268.5 64
q157 0 274 -71zM751 698.5q60 32.5 93.5 89t33.5 125.5q0 74 -33.5 133t-92.5 92t-132 33t-130 -33t-89.5 -92t-32.5 -134q0 -72 31.5 -128t88 -87t127.5 -31q76 0 136 32.5z" />
    <glyph glyph-name="zero.tnum_zero" 
d="M917 1307.5q120 -85.5 184 -246t64 -381.5q0 -224 -64 -384.5t-183.5 -244.5t-283.5 -84q-163 0 -282 84.5t-183 245t-64 384.5q0 221 64 381.5t183.5 245.5t281.5 85q163 0 283 -85.5zM435.5 1030.5q-67.5 -124.5 -67.5 -350.5q0 -87 11 -166l446 532q-70 109 -191 109
q-131 0 -198.5 -124.5zM834 328.5q68 124.5 68 349.5q0 101 -14 187l-452 -538q69 -123 198 -123q132 0 200 124.5z" />
    <glyph glyph-name="zero.tnum_onum" 
d="M349 43.5q-126 76.5 -196.5 213.5t-70.5 311q0 165 71 297t196.5 207t284.5 75t285.5 -75t197.5 -207.5t71 -298.5q0 -173 -71 -309.5t-197 -213t-286 -76.5q-159 0 -285 76.5zM787.5 246q65.5 45 101.5 127t36 192q0 104 -36 182.5t-101.5 122t-153.5 43.5
q-87 0 -152.5 -43t-101 -121.5t-35.5 -182.5q0 -110 35.5 -192.5t101 -127.5t152.5 -45q88 0 153.5 45z" />
    <glyph glyph-name="one.tnum_onum" 
d="M1147 225v-225h-975v225h367v612l-335 -181v247l380 213h212v-891h351z" />
    <glyph glyph-name="two.tnum_onum" 
d="M1080 219v-219h-875v183l367 260q111 77 162 143.5t51 143.5q0 94 -57.5 145t-171.5 51q-104 0 -194.5 -45.5t-157.5 -118.5v248q173 142 402 142q136 0 235 -49t151 -135.5t52 -197.5q0 -122 -63.5 -219t-204.5 -194l-194 -138h498z" />
    <glyph glyph-name="three.tnum_onum" 
d="M971 421.5q60 -49.5 91.5 -119t31.5 -148.5q0 -123 -64.5 -222t-181 -155t-268.5 -56q-114 0 -207.5 25.5t-182.5 79.5v238q60 -53 146.5 -86.5t201.5 -33.5q91 0 157 27t101 76.5t35 115.5q0 85 -62.5 140.5t-205.5 55.5h-289l34 188h240q128 0 185.5 52t57.5 142
q0 82 -65 129.5t-191 47.5q-116 0 -201.5 -34.5t-141.5 -84.5v237q89 56 184 83.5t209 27.5q143 0 248.5 -46t161.5 -128t56 -187q0 -107 -57.5 -188.5t-166.5 -105.5q84 -21 144 -70.5z" />
    <glyph glyph-name="four.tnum_onum" 
d="M1195 95h-220v-337h-240v337h-658v232l571 793h327v-820h220v-205zM735 300v585l-414 -585h414z" />
    <glyph glyph-name="five.tnum_onum" 
d="M913.5 577.5q101.5 -57.5 154.5 -156.5t53 -221q0 -137 -67 -246t-190.5 -171t-284.5 -62q-106 0 -208.5 31t-177.5 85v232q64 -59 156.5 -92.5t193.5 -33.5q99 0 169.5 31.5t106.5 88t36 128.5q0 73 -34 130t-101.5 89.5t-166.5 32.5q-98 0 -179 -23t-166 -62v758h838
v-225h-611v-293q103 37 237 37q140 0 241.5 -57.5z" />
    <glyph glyph-name="six.tnum_onum" 
d="M954.5 848q99.5 -56 155 -157t55.5 -230q0 -140 -65 -252.5t-182.5 -177t-268.5 -64.5q-157 0 -276 70.5t-186.5 218.5t-67.5 373q0 238 78 410.5t219 263t324 90.5q198 0 354 -101v-251q-58 53 -144.5 88t-183.5 35q-119 0 -207 -55.5t-136 -159.5t-51 -246
q44 92 136.5 146.5t219.5 54.5t226.5 -56zM781 217.5q59 33.5 93 94.5t34 139q0 76 -34 136t-93.5 93t-133.5 33t-133 -34t-92.5 -93t-33.5 -133q0 -77 33.5 -138t93.5 -96t134 -35q73 0 132 33.5z" />
    <glyph glyph-name="seven.tnum_onum" 
d="M1112 1116v-212l-621 -1150h-293l642 1136h-665v226h937z" />
    <glyph glyph-name="eight.tnum_onum" 
d="M1080.5 580q63.5 -88 63.5 -205q0 -115 -62 -208t-175 -146.5t-262 -53.5t-263 53.5t-176.5 146.5t-62.5 209q0 117 63.5 204.5t178.5 132.5q-103 42 -158.5 119.5t-55.5 180.5q0 104 59 191t166.5 138t248.5 51q140 0 247 -51t165.5 -138t58.5 -191q0 -103 -55.5 -180.5
t-157.5 -119.5q114 -45 177.5 -133zM483.5 1122q-58.5 -52 -58.5 -137q0 -55 26.5 -100.5t76 -72.5t115.5 -27t115.5 27t76.5 72.5t27 100.5q0 85 -59 137t-160 52t-159.5 -52zM773.5 214q55.5 29 85 79.5t29.5 112.5q0 60 -29.5 110t-85 79t-128.5 29q-75 0 -131 -29
t-85.5 -78.5t-29.5 -110.5q0 -62 29 -112t84.5 -79.5t130.5 -29.5t130.5 29z" />
    <glyph glyph-name="nine.tnum_onum" 
d="M899.5 1083q117.5 -71 183.5 -221t66 -379q0 -242 -78.5 -412t-218.5 -256.5t-324 -86.5q-110 0 -199 29t-168 90v240q141 -136 344 -136q370 0 393 488q-52 -105 -141.5 -157t-210.5 -52q-127 0 -225.5 55.5t-153.5 155t-55 227.5q0 137 64 247.5t180.5 174.5t268.5 64
q157 0 274.5 -71zM752 458.5q60 32.5 93.5 89.5t33.5 126q0 74 -33.5 133t-92.5 92t-132 33t-130 -33t-89.5 -92t-32.5 -134q0 -72 31.5 -128t88 -87.5t127.5 -31.5q76 0 136 32.5z" />
    <glyph glyph-name="zero.tnum_onum_zero" 
d="M919.5 1072q126.5 -75 197.5 -207.5t71 -298.5q0 -173 -71 -309.5t-197 -213t-286 -76.5q-159 0 -285 76.5t-196.5 213.5t-70.5 311q0 165 71 297t196.5 207t284.5 75t285.5 -75zM481.5 870q-65.5 -43 -101 -121.5t-35.5 -182.5q0 -107 34 -190l412 491q-67 46 -157 46
q-87 0 -152.5 -43zM787.5 246q65.5 45 101.5 127t36 192q0 100 -34 177l-414 -493q68 -48 157 -48q88 0 153.5 45z" />
    <glyph glyph-name="zero.zero" horiz-adv-x="1299" 
d="M942 1305q124 -88 191 -249.5t67 -375.5q0 -217 -66.5 -378t-191 -248t-292.5 -87t-292 87t-190.5 248.5t-66.5 378.5q0 214 67 375t191 249t291 88q168 0 292 -88zM494.5 1095.5q-63.5 -59.5 -95.5 -166.5t-32 -249q0 -98 15 -179l462 550q-72 104 -194 104
q-92 0 -155.5 -59.5zM806 263.5q64 59.5 96 166.5t32 248q0 110 -20 202l-467 -558q36 -57 87 -87.5t116 -30.5q92 0 156 59.5z" />
    <glyph glyph-name="zero.subs" horiz-adv-x="870" 
d="M246 31q-80 57 -123 162t-43 247q0 135 43.5 236.5t124 157t187.5 55.5q108 0 188 -55.5t123.5 -157.5t43.5 -238q0 -141 -43 -246t-123.5 -161.5t-188.5 -56.5q-109 0 -189 57zM553 222.5q41 80.5 41 215.5q0 130 -41 206.5t-118 76.5q-76 0 -118 -77t-42 -205
q0 -136 41.5 -216.5t118.5 -80.5t118 80.5z" />
    <glyph glyph-name="one.subs" horiz-adv-x="599" 
d="M467 861v-861h-187v647l-227 -154v189l267 179h147z" />
    <glyph glyph-name="two.subs" horiz-adv-x="741" 
d="M661 176v-166h-576v130l232 224q74 70 106 120.5t32 100.5q0 65 -38.5 101t-106.5 36q-59 0 -118.5 -29t-108.5 -78v179q120 95 264 95q89 0 157 -34t105.5 -96.5t37.5 -146.5q0 -80 -45.5 -153.5t-142.5 -161.5l-124 -121h326z" />
    <glyph glyph-name="three.subs" horiz-adv-x="752" 
d="M633.5 394q40.5 -57 40.5 -136q0 -80 -42.5 -145t-117 -102t-167.5 -37q-77 0 -139.5 17.5t-117.5 53.5v168q48 -38 107.5 -58.5t123.5 -20.5q76 0 119 35.5t43 94.5q0 53 -39.5 82t-117.5 29h-188l27 135h161q67 0 99 28t32 84q0 50 -38.5 76.5t-114.5 26.5
q-63 0 -119 -20.5t-94 -53.5v168q59 35 122 52.5t138 17.5q88 0 155 -29.5t103.5 -82t36.5 -121.5q0 -65 -33.5 -112.5t-90.5 -68.5q71 -24 111.5 -81z" />
    <glyph glyph-name="four.subs" horiz-adv-x="827" 
d="M767 204h-132v-204h-176v204h-405v156l350 500h231v-509h132v-147zM459 351v332l-227 -332h227z" />
    <glyph glyph-name="five.subs" horiz-adv-x="764" 
d="M559.5 519q63.5 -35 98.5 -98t35 -143q0 -91 -43.5 -162t-121.5 -111t-179 -40q-69 0 -137.5 21.5t-113.5 56.5v176q36 -45 98.5 -70.5t129.5 -25.5q82 0 128 40t46 110q0 68 -44 106.5t-124 38.5q-62 0 -109.5 -14.5t-115.5 -49.5v507h539v-161h-370v-171q60 25 139 25
q81 0 144.5 -35z" />
    <glyph glyph-name="six.subs" horiz-adv-x="824" 
d="M613.5 541q61.5 -36 96.5 -99.5t35 -144.5q0 -92 -41.5 -165.5t-116 -115.5t-169.5 -42q-160 0 -248.5 110.5t-88.5 316.5q0 149 48.5 259.5t137.5 169.5t207 59q126 0 231 -67v-183q-41 41 -96 64t-120 23q-98 0 -157.5 -72t-65.5 -192q28 54 82.5 84.5t127.5 30.5
q76 0 137.5 -36zM519.5 174.5q39.5 45.5 39.5 117.5q0 65 -40.5 107.5t-102.5 42.5q-61 0 -101.5 -42.5t-40.5 -107.5q0 -45 19 -82.5t52 -59t73 -21.5q62 0 101.5 45.5z" />
    <glyph glyph-name="seven.subs" horiz-adv-x="705" 
d="M663 861v-147l-382 -714h-211l391 700h-398v161h600z" />
    <glyph glyph-name="eight.subs" horiz-adv-x="812" 
d="M695 365.5q35 -52.5 35 -120.5q0 -77 -41 -138.5t-115 -97t-168 -35.5t-168 35t-115 97t-41 140q0 67 35 119.5t99 83.5q-57 29 -88 77t-31 110q0 71 39.5 129t110 91t159.5 33t159.5 -33t110 -91t39.5 -129q0 -62 -31 -110t-88 -77q64 -31 99 -83.5zM317 702
q-32 -30 -32 -84q0 -51 33 -83t88 -32q54 0 86.5 32t32.5 83q0 53 -31.5 83.5t-87.5 30.5q-57 0 -89 -30zM504 167.5q37 36.5 37 95.5q0 57 -37 91.5t-98 34.5q-62 0 -98.5 -34.5t-36.5 -91.5q0 -59 36.5 -95.5t98.5 -36.5q61 0 98 36.5z" />
    <glyph glyph-name="nine.subs" horiz-adv-x="824" 
d="M652.5 778.5q88.5 -110.5 88.5 -318.5q0 -151 -47 -260.5t-134.5 -167.5t-205.5 -58q-75 0 -132 18t-106 56v164q43 -36 97 -55.5t126 -19.5q197 0 215 271q-27 -53 -80 -81t-127 -28q-79 0 -141 34t-97.5 96t-35.5 144q0 91 42 163t117 112.5t171 40.5
q161 0 249.5 -110.5zM502.5 475q40.5 40 40.5 102q0 66 -40.5 110t-101.5 44t-100 -43.5t-39 -110.5q0 -63 38 -102.5t98 -39.5q64 0 104.5 40z" />
    <glyph glyph-name="zero.dnom" horiz-adv-x="870" 
d="M246 31q-80 57 -123 162t-43 247q0 135 43.5 236.5t124 157t187.5 55.5q108 0 188 -55.5t123.5 -157.5t43.5 -238q0 -141 -43 -246t-123.5 -161.5t-188.5 -56.5q-109 0 -189 57zM553 222.5q41 80.5 41 215.5q0 130 -41 206.5t-118 76.5q-76 0 -118 -77t-42 -205
q0 -136 41.5 -216.5t118.5 -80.5t118 80.5z" />
    <glyph glyph-name="one.dnom" horiz-adv-x="599" 
d="M467 861v-861h-187v647l-227 -154v189l267 179h147z" />
    <glyph glyph-name="two.dnom" horiz-adv-x="741" 
d="M661 176v-166h-576v130l232 224q74 70 106 120.5t32 100.5q0 65 -38.5 101t-106.5 36q-59 0 -118.5 -29t-108.5 -78v179q120 95 264 95q89 0 157 -34t105.5 -96.5t37.5 -146.5q0 -80 -45.5 -153.5t-142.5 -161.5l-124 -121h326z" />
    <glyph glyph-name="three.dnom" horiz-adv-x="752" 
d="M633.5 394q40.5 -57 40.5 -136q0 -80 -42.5 -145t-117 -102t-167.5 -37q-77 0 -139.5 17.5t-117.5 53.5v168q48 -38 107.5 -58.5t123.5 -20.5q76 0 119 35.5t43 94.5q0 53 -39.5 82t-117.5 29h-188l27 135h161q67 0 99 28t32 84q0 50 -38.5 76.5t-114.5 26.5
q-63 0 -119 -20.5t-94 -53.5v168q59 35 122 52.5t138 17.5q88 0 155 -29.5t103.5 -82t36.5 -121.5q0 -65 -33.5 -112.5t-90.5 -68.5q71 -24 111.5 -81z" />
    <glyph glyph-name="four.dnom" horiz-adv-x="827" 
d="M767 204h-132v-204h-176v204h-405v156l350 500h231v-509h132v-147zM459 351v332l-227 -332h227z" />
    <glyph glyph-name="five.dnom" horiz-adv-x="764" 
d="M559.5 519q63.5 -35 98.5 -98t35 -143q0 -91 -43.5 -162t-121.5 -111t-179 -40q-69 0 -137.5 21.5t-113.5 56.5v176q36 -45 98.5 -70.5t129.5 -25.5q82 0 128 40t46 110q0 68 -44 106.5t-124 38.5q-62 0 -109.5 -14.5t-115.5 -49.5v507h539v-161h-370v-171q60 25 139 25
q81 0 144.5 -35z" />
    <glyph glyph-name="six.dnom" horiz-adv-x="824" 
d="M613.5 541q61.5 -36 96.5 -99.5t35 -144.5q0 -92 -41.5 -165.5t-116 -115.5t-169.5 -42q-160 0 -248.5 110.5t-88.5 316.5q0 149 48.5 259.5t137.5 169.5t207 59q126 0 231 -67v-183q-41 41 -96 64t-120 23q-98 0 -157.5 -72t-65.5 -192q28 54 82.5 84.5t127.5 30.5
q76 0 137.5 -36zM519.5 174.5q39.5 45.5 39.5 117.5q0 65 -40.5 107.5t-102.5 42.5q-61 0 -101.5 -42.5t-40.5 -107.5q0 -45 19 -82.5t52 -59t73 -21.5q62 0 101.5 45.5z" />
    <glyph glyph-name="seven.dnom" horiz-adv-x="705" 
d="M663 861v-147l-382 -714h-211l391 700h-398v161h600z" />
    <glyph glyph-name="eight.dnom" horiz-adv-x="812" 
d="M695 365.5q35 -52.5 35 -120.5q0 -77 -41 -138.5t-115 -97t-168 -35.5t-168 35t-115 97t-41 140q0 67 35 119.5t99 83.5q-57 29 -88 77t-31 110q0 71 39.5 129t110 91t159.5 33t159.5 -33t110 -91t39.5 -129q0 -62 -31 -110t-88 -77q64 -31 99 -83.5zM317 702
q-32 -30 -32 -84q0 -51 33 -83t88 -32q54 0 86.5 32t32.5 83q0 53 -31.5 83.5t-87.5 30.5q-57 0 -89 -30zM504 167.5q37 36.5 37 95.5q0 57 -37 91.5t-98 34.5q-62 0 -98.5 -34.5t-36.5 -91.5q0 -59 36.5 -95.5t98.5 -36.5q61 0 98 36.5z" />
    <glyph glyph-name="nine.dnom" horiz-adv-x="824" 
d="M652.5 778.5q88.5 -110.5 88.5 -318.5q0 -151 -47 -260.5t-134.5 -167.5t-205.5 -58q-75 0 -132 18t-106 56v164q43 -36 97 -55.5t126 -19.5q197 0 215 271q-27 -53 -80 -81t-127 -28q-79 0 -141 34t-97.5 96t-35.5 144q0 91 42 163t117 112.5t171 40.5
q161 0 249.5 -110.5zM502.5 475q40.5 40 40.5 102q0 66 -40.5 110t-101.5 44t-100 -43.5t-39 -110.5q0 -63 38 -102.5t98 -39.5q64 0 104.5 40z" />
    <glyph glyph-name="zero.numr" horiz-adv-x="870" 
d="M246 647q-80 57 -123 162t-43 247q0 135 43.5 236.5t124 157t187.5 55.5q108 0 188 -55.5t123.5 -157.5t43.5 -238q0 -141 -43 -246t-123.5 -161.5t-188.5 -56.5q-109 0 -189 57zM553 838.5q41 80.5 41 215.5q0 130 -41 206.5t-118 76.5q-76 0 -118 -77t-42 -205
q0 -136 41.5 -216.5t118.5 -80.5t118 80.5z" />
    <glyph glyph-name="one.numr" horiz-adv-x="599" 
d="M467 1477v-861h-187v647l-227 -154v189l267 179h147z" />
    <glyph glyph-name="two.numr" horiz-adv-x="741" 
d="M661 792v-166h-576v130l232 224q74 70 106 120.5t32 100.5q0 65 -38.5 101t-106.5 36q-59 0 -118.5 -29t-108.5 -78v179q120 95 264 95q89 0 157 -34t105.5 -96.5t37.5 -146.5q0 -80 -45.5 -153.5t-142.5 -161.5l-124 -121h326z" />
    <glyph glyph-name="three.numr" horiz-adv-x="752" 
d="M633.5 1010q40.5 -57 40.5 -136q0 -80 -42.5 -145t-117 -102t-167.5 -37q-77 0 -139.5 17.5t-117.5 53.5v168q48 -38 107.5 -58.5t123.5 -20.5q76 0 119 35.5t43 94.5q0 53 -39.5 82t-117.5 29h-188l27 135h161q67 0 99 28t32 84q0 50 -38.5 76.5t-114.5 26.5
q-63 0 -119 -20.5t-94 -53.5v168q59 35 122 52.5t138 17.5q88 0 155 -29.5t103.5 -82t36.5 -121.5q0 -65 -33.5 -112.5t-90.5 -68.5q71 -24 111.5 -81z" />
    <glyph glyph-name="four.numr" horiz-adv-x="827" 
d="M767 820h-132v-204h-176v204h-405v156l350 500h231v-509h132v-147zM459 967v332l-227 -332h227z" />
    <glyph glyph-name="five.numr" horiz-adv-x="764" 
d="M559.5 1135q63.5 -35 98.5 -98t35 -143q0 -91 -43.5 -162t-121.5 -111t-179 -40q-69 0 -137.5 21.5t-113.5 56.5v176q36 -45 98.5 -70.5t129.5 -25.5q82 0 128 40t46 110q0 68 -44 106.5t-124 38.5q-62 0 -109.5 -14.5t-115.5 -49.5v507h539v-161h-370v-171q60 25 139 25
q81 0 144.5 -35z" />
    <glyph glyph-name="six.numr" horiz-adv-x="824" 
d="M613.5 1157q61.5 -36 96.5 -99.5t35 -144.5q0 -92 -41.5 -165.5t-116 -115.5t-169.5 -42q-160 0 -248.5 110.5t-88.5 316.5q0 149 48.5 259.5t137.5 169.5t207 59q126 0 231 -67v-183q-41 41 -96 64t-120 23q-98 0 -157.5 -72t-65.5 -192q28 54 82.5 84.5t127.5 30.5
q76 0 137.5 -36zM519.5 790.5q39.5 45.5 39.5 117.5q0 65 -40.5 107.5t-102.5 42.5q-61 0 -101.5 -42.5t-40.5 -107.5q0 -45 19 -82.5t52 -59t73 -21.5q62 0 101.5 45.5z" />
    <glyph glyph-name="seven.numr" horiz-adv-x="705" 
d="M663 1477v-147l-382 -714h-211l391 700h-398v161h600z" />
    <glyph glyph-name="eight.numr" horiz-adv-x="812" 
d="M695 981.5q35 -52.5 35 -120.5q0 -77 -41 -138.5t-115 -97t-168 -35.5t-168 35t-115 97t-41 140q0 67 35 119.5t99 83.5q-57 29 -88 77t-31 110q0 71 39.5 129t110 91t159.5 33t159.5 -33t110 -91t39.5 -129q0 -62 -31 -110t-88 -77q64 -31 99 -83.5zM317 1318
q-32 -30 -32 -84q0 -51 33 -83t88 -32q54 0 86.5 32t32.5 83q0 53 -31.5 83.5t-87.5 30.5q-57 0 -89 -30zM504 783.5q37 36.5 37 95.5q0 57 -37 91.5t-98 34.5q-62 0 -98.5 -34.5t-36.5 -91.5q0 -59 36.5 -95.5t98.5 -36.5q61 0 98 36.5z" />
    <glyph glyph-name="nine.numr" horiz-adv-x="824" 
d="M652.5 1394.5q88.5 -110.5 88.5 -318.5q0 -151 -47 -260.5t-134.5 -167.5t-205.5 -58q-75 0 -132 18t-106 56v164q43 -36 97 -55.5t126 -19.5q197 0 215 271q-27 -53 -80 -81t-127 -28q-79 0 -141 34t-97.5 96t-35.5 144q0 91 42 163t117 112.5t171 40.5
q161 0 249.5 -110.5zM502.5 1091q40.5 40 40.5 102q0 66 -40.5 110t-101.5 44t-100 -43.5t-39 -110.5q0 -63 38 -102.5t98 -39.5q64 0 104.5 40z" />
    <glyph glyph-name="uni2070" unicode="&#x2070;" horiz-adv-x="870" 
d="M246 647q-80 57 -123 162t-43 247q0 135 43.5 236.5t124 157t187.5 55.5q108 0 188 -55.5t123.5 -157.5t43.5 -238q0 -141 -43 -246t-123.5 -161.5t-188.5 -56.5q-109 0 -189 57zM553 838.5q41 80.5 41 215.5q0 130 -41 206.5t-118 76.5q-76 0 -118 -77t-42 -205
q0 -136 41.5 -216.5t118.5 -80.5t118 80.5z" />
    <glyph glyph-name="onesuperior" unicode="&#xb9;" horiz-adv-x="599" 
d="M467 1477v-861h-187v647l-227 -154v189l267 179h147z" />
    <glyph glyph-name="twosuperior" unicode="&#xb2;" horiz-adv-x="741" 
d="M661 792v-166h-576v130l232 224q74 70 106 120.5t32 100.5q0 65 -38.5 101t-106.5 36q-59 0 -118.5 -29t-108.5 -78v179q120 95 264 95q89 0 157 -34t105.5 -96.5t37.5 -146.5q0 -80 -45.5 -153.5t-142.5 -161.5l-124 -121h326z" />
    <glyph glyph-name="threesuperior" unicode="&#xb3;" horiz-adv-x="752" 
d="M633.5 1010q40.5 -57 40.5 -136q0 -80 -42.5 -145t-117 -102t-167.5 -37q-77 0 -139.5 17.5t-117.5 53.5v168q48 -38 107.5 -58.5t123.5 -20.5q76 0 119 35.5t43 94.5q0 53 -39.5 82t-117.5 29h-188l27 135h161q67 0 99 28t32 84q0 50 -38.5 76.5t-114.5 26.5
q-63 0 -119 -20.5t-94 -53.5v168q59 35 122 52.5t138 17.5q88 0 155 -29.5t103.5 -82t36.5 -121.5q0 -65 -33.5 -112.5t-90.5 -68.5q71 -24 111.5 -81z" />
    <glyph glyph-name="uni2074" unicode="&#x2074;" horiz-adv-x="827" 
d="M767 820h-132v-204h-176v204h-405v156l350 500h231v-509h132v-147zM459 967v332l-227 -332h227z" />
    <glyph glyph-name="uni2075" unicode="&#x2075;" horiz-adv-x="764" 
d="M559.5 1135q63.5 -35 98.5 -98t35 -143q0 -91 -43.5 -162t-121.5 -111t-179 -40q-69 0 -137.5 21.5t-113.5 56.5v176q36 -45 98.5 -70.5t129.5 -25.5q82 0 128 40t46 110q0 68 -44 106.5t-124 38.5q-62 0 -109.5 -14.5t-115.5 -49.5v507h539v-161h-370v-171q60 25 139 25
q81 0 144.5 -35z" />
    <glyph glyph-name="uni2076" unicode="&#x2076;" horiz-adv-x="824" 
d="M613.5 1157q61.5 -36 96.5 -99.5t35 -144.5q0 -92 -41.5 -165.5t-116 -115.5t-169.5 -42q-160 0 -248.5 110.5t-88.5 316.5q0 149 48.5 259.5t137.5 169.5t207 59q126 0 231 -67v-183q-41 41 -96 64t-120 23q-98 0 -157.5 -72t-65.5 -192q28 54 82.5 84.5t127.5 30.5
q76 0 137.5 -36zM519.5 790.5q39.5 45.5 39.5 117.5q0 65 -40.5 107.5t-102.5 42.5q-61 0 -101.5 -42.5t-40.5 -107.5q0 -45 19 -82.5t52 -59t73 -21.5q62 0 101.5 45.5z" />
    <glyph glyph-name="uni2077" unicode="&#x2077;" horiz-adv-x="705" 
d="M663 1477v-147l-382 -714h-211l391 700h-398v161h600z" />
    <glyph glyph-name="uni2078" unicode="&#x2078;" horiz-adv-x="812" 
d="M695 981.5q35 -52.5 35 -120.5q0 -77 -41 -138.5t-115 -97t-168 -35.5t-168 35t-115 97t-41 140q0 67 35 119.5t99 83.5q-57 29 -88 77t-31 110q0 71 39.5 129t110 91t159.5 33t159.5 -33t110 -91t39.5 -129q0 -62 -31 -110t-88 -77q64 -31 99 -83.5zM317 1318
q-32 -30 -32 -84q0 -51 33 -83t88 -32q54 0 86.5 32t32.5 83q0 53 -31.5 83.5t-87.5 30.5q-57 0 -89 -30zM504 783.5q37 36.5 37 95.5q0 57 -37 91.5t-98 34.5q-62 0 -98.5 -34.5t-36.5 -91.5q0 -59 36.5 -95.5t98.5 -36.5q61 0 98 36.5z" />
    <glyph glyph-name="uni2079" unicode="&#x2079;" horiz-adv-x="824" 
d="M652.5 1394.5q88.5 -110.5 88.5 -318.5q0 -151 -47 -260.5t-134.5 -167.5t-205.5 -58q-75 0 -132 18t-106 56v164q43 -36 97 -55.5t126 -19.5q197 0 215 271q-27 -53 -80 -81t-127 -28q-79 0 -141 34t-97.5 96t-35.5 144q0 91 42 163t117 112.5t171 40.5
q161 0 249.5 -110.5zM502.5 1091q40.5 40 40.5 102q0 66 -40.5 110t-101.5 44t-100 -43.5t-39 -110.5q0 -63 38 -102.5t98 -39.5q64 0 104.5 40z" />
    <glyph glyph-name="fraction" unicode="&#x2044;" horiz-adv-x="367" 
d="M505 1434h216l-857 -1434h-217z" />
    <glyph glyph-name="onehalf" unicode="&#xbd;" horiz-adv-x="1738" 
d="M467 1477v-861h-187v647l-227 -154v189l267 179h147zM1118 1434h216l-857 -1434h-217zM1658 176v-166h-576v130l232 224q74 70 106 120.5t32 100.5q0 65 -38.5 101t-106.5 36q-59 0 -118.5 -29t-108.5 -78v179q120 95 264 95q89 0 157 -34t105.5 -96.5t37.5 -146.5
q0 -80 -45.5 -153.5t-142.5 -161.5l-124 -121h326z" />
    <glyph glyph-name="onethird" unicode="&#x2153;" horiz-adv-x="1753" 
d="M467 1477v-861h-187v647l-227 -154v189l267 179h147zM1118 1434h216l-857 -1434h-217zM1634.5 394q40.5 -57 40.5 -136q0 -80 -42.5 -145t-117 -102t-167.5 -37q-77 0 -139.5 17.5t-117.5 53.5v168q48 -38 107.5 -58.5t123.5 -20.5q76 0 119 35.5t43 94.5q0 53 -39.5 82
t-117.5 29h-188l27 135h161q67 0 99 28t32 84q0 50 -38.5 76.5t-114.5 26.5q-63 0 -119 -20.5t-94 -53.5v168q59 35 122 52.5t138 17.5q88 0 155 -29.5t103.5 -82t36.5 -121.5q0 -65 -33.5 -112.5t-90.5 -68.5q71 -24 111.5 -81z" />
    <glyph glyph-name="twothirds" unicode="&#x2154;" horiz-adv-x="1903" 
d="M661 792v-166h-576v130l232 224q74 70 106 120.5t32 100.5q0 65 -38.5 101t-106.5 36q-59 0 -118.5 -29t-108.5 -78v179q120 95 264 95q89 0 157 -34t105.5 -96.5t37.5 -146.5q0 -80 -45.5 -153.5t-142.5 -161.5l-124 -121h326zM1269 1434h216l-857 -1434h-217z
M1784.5 394q40.5 -57 40.5 -136q0 -80 -42.5 -145t-117 -102t-167.5 -37q-77 0 -139.5 17.5t-117.5 53.5v168q48 -38 107.5 -58.5t123.5 -20.5q76 0 119 35.5t43 94.5q0 53 -39.5 82t-117.5 29h-188l27 135h161q67 0 99 28t32 84q0 50 -38.5 76.5t-114.5 26.5
q-63 0 -119 -20.5t-94 -53.5v168q59 35 122 52.5t138 17.5q88 0 155 -29.5t103.5 -82t36.5 -121.5q0 -65 -33.5 -112.5t-90.5 -68.5q71 -24 111.5 -81z" />
    <glyph glyph-name="onequarter" unicode="&#xbc;" horiz-adv-x="1768" 
d="M467 1477v-861h-187v647l-227 -154v189l267 179h147zM1118 1434h216l-857 -1434h-217zM1708 204h-132v-204h-176v204h-405v156l350 500h231v-509h132v-147zM1400 351v332l-227 -332h227z" />
    <glyph glyph-name="threequarters" unicode="&#xbe;" horiz-adv-x="1907" 
d="M633.5 1010q40.5 -57 40.5 -136q0 -80 -42.5 -145t-117 -102t-167.5 -37q-77 0 -139.5 17.5t-117.5 53.5v168q48 -38 107.5 -58.5t123.5 -20.5q76 0 119 35.5t43 94.5q0 53 -39.5 82t-117.5 29h-188l27 135h161q67 0 99 28t32 84q0 50 -38.5 76.5t-114.5 26.5
q-63 0 -119 -20.5t-94 -53.5v168q59 35 122 52.5t138 17.5q88 0 155 -29.5t103.5 -82t36.5 -121.5q0 -65 -33.5 -112.5t-90.5 -68.5q71 -24 111.5 -81zM1257 1434h216l-857 -1434h-217zM1847 204h-132v-204h-176v204h-405v156l350 500h231v-509h132v-147zM1539 351v332
l-227 -332h227z" />
    <glyph glyph-name="asterisk" unicode="*" horiz-adv-x="865" 
d="M782 1123l-242 28l144 -196l-152 -85l-99 208l-99 -208l-152 85l144 196l-243 -28v164l244 -28l-145 193l151 85l100 -208l101 208l150 -85l-144 -193l242 28v-164z" />
    <glyph glyph-name="backslash" unicode="\" horiz-adv-x="915" 
d="M280.982 1638h-230.985l583.964 -1884h229.986z" />
    <glyph glyph-name="periodcentered" unicode="&#xb7;" horiz-adv-x="547" 
d="M187 564q-39 22 -61 60.5t-22 85.5q0 46 22 83.5t60 59.5t86 22t86 -21t59.5 -58.5t21.5 -85.5q0 -47 -21.5 -85.5t-59 -60.5t-84.5 -22q-48 0 -87 22z" />
    <glyph glyph-name="bullet" unicode="&#x2022;" horiz-adv-x="1210" 
d="M371.5 290q-107.5 63 -170.5 171t-63 235q0 128 63 236t170.5 171t234.5 63t234 -63t170 -171t63 -236q0 -127 -63 -235t-170.5 -171t-233.5 -63q-127 0 -234.5 63z" />
    <glyph glyph-name="colon" unicode=":" horiz-adv-x="576" 
d="M204 -9q-39 22 -61 60.5t-22 85.5q0 46 22 83.5t60 59.5t86 22t86 -21t59.5 -58.5t21.5 -85.5q0 -47 -21.5 -85.5t-59 -60.5t-84.5 -22q-48 0 -87 22zM204 703q-39 22 -61 60.5t-22 85.5q0 46 22 83.5t60 59.5t86 22t86 -21t59.5 -58.5t21.5 -85.5q0 -47 -21.5 -85.5
t-59 -60.5t-84.5 -22q-48 0 -87 22z" />
    <glyph glyph-name="comma" unicode="," horiz-adv-x="552" 
d="M152 292h299l-225 -599h-184z" />
    <glyph glyph-name="ellipsis" unicode="&#x2026;" horiz-adv-x="1698" 
d="M239 -9q-39 22 -61 60.5t-22 85.5q0 46 22 83.5t60 59.5t86 22t86 -21t59.5 -58.5t21.5 -85.5q0 -47 -21.5 -85.5t-59 -60.5t-84.5 -22q-48 0 -87 22zM765 -9q-39 22 -61 60.5t-22 85.5q0 46 22 83.5t60 59.5t86 22t86 -21t59.5 -58.5t21.5 -85.5q0 -47 -21.5 -85.5
t-59 -60.5t-84.5 -22q-48 0 -87 22zM1290 -9q-39 22 -61 60.5t-22 85.5q0 46 22 83.5t60 59.5t86 22t86 -21t59.5 -58.5t21.5 -85.5q0 -47 -21.5 -85.5t-59 -60.5t-84.5 -22q-48 0 -87 22z" />
    <glyph glyph-name="exclam" unicode="!" horiz-adv-x="588" 
d="M167 1434h254v-1002h-254v1002zM211.5 -9q-38.5 22 -60.5 59.5t-22 82.5q0 46 22 83.5t60.5 59t86.5 21.5q47 0 85 -21.5t59 -59t21 -83.5q0 -45 -21.5 -82.5t-59 -59.5t-84.5 -22q-48 0 -86.5 22z" />
    <glyph glyph-name="exclamdown" unicode="&#xa1;" horiz-adv-x="588" 
d="M167 -389.977h254v1001.94h-254v-1001.94zM211.5 1052.94q-38.5 -21.998 -60.5 -59.4961t-22 -82.4951q0 -45.9971 22 -83.4951q22 -37.4971 60.5 -58.9961t86.5 -21.499q47 0 85 21.499t59 58.9961q21 37.498 21 83.4951q0 44.9971 -21.5 82.4951t-59 59.4961
q-37.5 21.999 -84.5 21.999q-48 0 -86.5 -21.999z" />
    <glyph glyph-name="numbersign" unicode="#" horiz-adv-x="1433" 
d="M290 415h-215v179h256l75 308h-244v177h286l87 355h206l-87 -355h278l87 355h206l-87 -355h236l-42 -177h-237l-74 -308h248l-42 -179h-248l-102 -415h-206l103 415h-278l-103 -415h-206zM815 594l74 308h-278l-74 -308h278z" />
    <glyph glyph-name="period" unicode="." horiz-adv-x="525" 
d="M178 -9q-39 22 -61 60.5t-22 85.5q0 46 22 83.5t60 59.5t86 22t86 -21t59.5 -58.5t21.5 -85.5q0 -47 -21.5 -85.5t-59 -60.5t-84.5 -22q-48 0 -87 22z" />
    <glyph glyph-name="question" unicode="?" horiz-adv-x="1027" 
d="M735 1418.5q113 -56.5 171.5 -156.5t58.5 -230q0 -122 -53 -220.5t-154.5 -156t-242.5 -57.5h-15v-166h-246v338h143q152 0 229 63t77 176q0 108 -70.5 174t-206.5 66q-117 0 -207 -37.5t-146 -86.5v239q167 111 392 111q157 0 270 -56.5zM467.5 275.5
q37.5 -21.5 58.5 -58.5t21 -82q0 -47 -21 -84.5t-58.5 -59.5t-85.5 -22t-86 22t-60 60t-22 84q0 45 22 82t60 58.5t86 21.5t85.5 -21.5z" />
    <glyph glyph-name="questiondown" unicode="&#xbf;" horiz-adv-x="1013" 
d="M285.982 -374.478q-112.993 56.4971 -171.489 156.491q-58.4971 99.9932 -58.4971 229.985q0 121.993 52.9971 220.486q52.9971 98.4941 154.491 155.991q101.493 57.4961 242.484 57.4961h14.999v165.99h245.985v-337.979h-142.991q-151.991 0 -228.986 -62.9961
t-76.9951 -175.989q0 -107.993 70.4961 -173.989q70.4951 -65.9961 206.487 -65.9961q116.993 0 206.987 37.4971q89.9941 37.498 145.991 86.4951v-238.985q-166.99 -110.993 -391.977 -110.993q-156.99 0 -269.983 56.4961zM553.466 768.453
q-37.4971 21.499 -58.4961 58.4961q-20.999 36.998 -20.999 81.9951q0 46.9971 20.999 84.4951t58.4961 59.4961q37.498 21.999 85.4951 21.999t85.9951 -21.999q37.9971 -21.998 59.9961 -59.9961t21.999 -83.9951q0 -44.9971 -21.999 -81.9951
q-21.999 -36.9971 -59.9961 -58.4961q-37.998 -21.499 -85.9951 -21.499t-85.4951 21.499z" />
    <glyph glyph-name="quotedbl" unicode="&#x22;" horiz-adv-x="877" 
d="M122 1495h224v-551h-224v551zM531 1495h224v-551h-224v551z" />
    <glyph glyph-name="quotesingle" unicode="'" horiz-adv-x="468" 
d="M122 1495h224v-551h-224v551z" />
    <glyph glyph-name="semicolon" unicode=";" horiz-adv-x="599" 
d="M180 292h299l-225 -599h-184zM217 703q-39 22 -61 60.5t-22 85.5q0 46 22 83.5t60 59.5t86 22t86 -21t59.5 -58.5t21.5 -85.5q0 -47 -21.5 -85.5t-59 -60.5t-84.5 -22q-48 0 -87 22z" />
    <glyph glyph-name="slash" unicode="/" horiz-adv-x="915" 
d="M634 1638h231l-584 -1884h-230z" />
    <glyph glyph-name="underscore" unicode="_" horiz-adv-x="1236" 
d="M109 0h1018v-184h-1018v184z" />
    <glyph glyph-name="exclamdown.case" horiz-adv-x="588" 
d="M167 0h254v1001.94h-254v-1001.94zM211.5 1442.91q-38.5 -21.999 -60.5 -59.4961q-22 -37.498 -22 -82.4951q0 -45.9971 22 -83.4951t60.5 -58.9961q38.5 -21.499 86.5 -21.499q47 0 85 21.499q38 21.498 59 58.9961t21 83.4951q0 44.9971 -21.5 82.4951
q-21.5 37.4971 -59 59.4961q-37.5 21.998 -84.5 21.998q-48 0 -86.5 -21.998z" />
    <glyph glyph-name="questiondown.case" horiz-adv-x="1027" 
d="M291.982 15.499q-112.993 56.4971 -171.49 156.49q-58.4961 99.9941 -58.4961 229.986q0 121.992 52.9971 220.486t154.49 155.99q101.494 57.4971 242.485 57.4971h14.999v165.989h245.985v-337.979h-142.991q-151.991 0 -228.986 -62.9961t-76.9951 -175.989
q0 -107.993 70.4951 -173.989q70.4961 -65.9961 206.487 -65.9961q116.993 0 206.988 37.498q89.9941 37.498 145.99 86.4951v-238.985q-166.989 -110.993 -391.976 -110.993q-156.99 0 -269.983 56.4961zM559.466 1158.43q-37.498 21.498 -58.4961 58.4961
q-20.999 36.998 -20.999 81.9951q0 46.9971 20.999 84.4951q20.998 37.4971 58.4961 59.4961q37.498 21.998 85.4951 21.998t85.9941 -21.998q37.998 -21.999 59.9971 -59.9961q21.998 -37.998 21.998 -83.9951q0 -44.9971 -21.998 -81.9951
q-21.999 -36.998 -59.9971 -58.4961q-37.9971 -21.499 -85.9941 -21.499t-85.4951 21.499z" />
    <glyph glyph-name="angleleft" unicode="&#x2329;" horiz-adv-x="730" 
d="M716 -246h-260l-408 945l383 939h261l-373 -936z" />
    <glyph glyph-name="angleright" unicode="&#x232a;" horiz-adv-x="730" 
d="M13.999 -246h259.984l407.975 945l-382.977 939h-260.983l372.977 -936z" />
    <glyph glyph-name="uni3010" unicode="&#x3010;" horiz-adv-x="825" 
d="M167 1640h660q-373 -389 -373 -935q0 -552 373 -951h-660v1886z" />
    <glyph glyph-name="uni3011" unicode="&#x3011;" horiz-adv-x="825" 
d="M657.96 1640h-659.96q372.978 -389 372.978 -935q0 -552 -372.978 -951h659.96v1886z" />
    <glyph glyph-name="braceleft" unicode="{" horiz-adv-x="823" 
d="M438.5 815.5q-40.5 -75.5 -149.5 -115.5q79 -28 120.5 -76.5t55.5 -105.5t14 -129v-295q0 -171 160 -171q36 0 70.5 7.5t59.5 18.5v-189q-94 -34 -189 -34q-166 0 -253.5 92.5t-87.5 262.5v300q0 84 -15 125.5t-55 58.5t-122 17v218q82 0 122 17t55 58.5t15 125.5v308
q0 170 90 262.5t261 92.5q95 0 179 -32v-190q-64 24 -130 24q-160 0 -160 -171v-302q0 -102 -40.5 -177.5z" />
    <glyph glyph-name="braceright" unicode="}" horiz-adv-x="822" 
d="M384.477 574.465q40.4971 75.4951 149.491 115.493q-78.9951 27.998 -120.493 76.4951q-41.4971 48.4971 -55.4961 105.494q-14 56.9961 -14 128.991v294.982q0 170.989 -159.99 170.989q-35.9971 0 -70.4951 -7.49902q-34.498 -7.5 -59.4961 -18.499v188.988
q93.9941 33.998 188.988 33.998q165.989 0 253.484 -92.4941t87.4951 -262.484v-299.981q0 -83.9951 14.999 -125.492q14.999 -41.498 54.9961 -58.4971q39.998 -16.998 121.993 -16.998v-217.987q-81.9951 0 -121.993 -16.999q-39.9971 -16.999 -54.9961 -58.4961
q-14.999 -41.498 -14.999 -125.492v-307.981q0 -169.989 -89.9951 -262.484q-89.9941 -92.4941 -260.984 -92.4941q-94.9941 0 -178.988 31.998v189.988q63.9961 -23.998 129.991 -23.998q159.99 0 159.99 170.989v301.981q0 101.994 40.498 177.489z" />
    <glyph glyph-name="bracketleft" unicode="[" horiz-adv-x="771" 
d="M167 1638h549v-203h-308v-1477h308v-204h-549v1884z" />
    <glyph glyph-name="bracketright" unicode="]" horiz-adv-x="771" 
d="M603.963 1638h-548.966v-203h307.98v-1477h-307.98v-204h548.966v1884z" />
    <glyph glyph-name="uni300C" unicode="&#x300c;" horiz-adv-x="719" 
d="M133 1638h548v-217h-308v-669h-240v886z" />
    <glyph glyph-name="uni300D" unicode="&#x300d;" horiz-adv-x="567" 
d="M436.974 -244.985h-547.967v216.987h307.981v668.959h239.985v-885.946z" />
    <glyph glyph-name="uni300A" unicode="&#x300a;" horiz-adv-x="1274" 
d="M716 -246h-260l-408 945l383 939h261l-373 -936zM1261 -246h-260l-408 945l383 939h261l-373 -936z" />
    <glyph glyph-name="uni300B" unicode="&#x300b;" horiz-adv-x="1274" 
d="M557.966 -246h259.984l407.975 945l-382.977 939h-260.983l372.977 -936zM12.999 -246h259.984l407.975 945l-382.977 939h-260.983l372.977 -936z" />
    <glyph glyph-name="parenleft" unicode="(" horiz-adv-x="740" 
d="M289 -12q-86 137 -146 324.5t-60 402.5q0 194 54 369.5t140.5 314.5t189.5 241h281q-183 -162 -299 -397t-116 -526q0 -301 112 -539.5t303 -423.5h-281q-92 97 -178 234z" />
    <glyph glyph-name="parenright" unicode=")" horiz-adv-x="740" 
d="M450.973 1406.91q85.9941 -136.991 145.991 -324.48q59.9961 -187.488 59.9961 -402.475q0 -193.988 -53.9971 -369.478q-53.9961 -175.489 -140.491 -314.481q-86.4951 -138.991 -189.488 -240.985h-280.983q182.989 161.99 298.982 396.976
q115.993 234.986 115.993 525.969q0 300.981 -111.993 539.467t-302.982 423.474h280.983q91.9941 -96.9932 177.989 -233.985z" />
    <glyph glyph-name="uni3014" unicode="&#x3014;" horiz-adv-x="647" 
d="M120 72v1253l316 341l180 -151l-256 -283v-1067l256 -283l-180 -151z" />
    <glyph glyph-name="uni3015" unicode="&#x3015;" horiz-adv-x="647" 
d="M526.968 72v1253l-315.98 341l-179.989 -151l255.984 -283v-1067l-255.984 -283l179.989 -151z" />
    <glyph glyph-name="uni300E" unicode="&#x300e;" horiz-adv-x="929" 
d="M133 1636h729v-403h-322v-568h-407v971zM402 805v564h322v132h-454v-696h132z" />
    <glyph glyph-name="uni300F" unicode="&#x300f;" horiz-adv-x="918" 
d="M786.952 -242.985h-728.956v402.976h321.98v567.965h406.976v-970.94zM517.969 587.964v-563.966h-321.98v-131.991h453.972v695.957h-131.991z" />
    <glyph glyph-name="emdash" unicode="&#x2014;" horiz-adv-x="1826" 
d="M135 750h1556v-205h-1556v205z" />
    <glyph glyph-name="endash" unicode="&#x2013;" horiz-adv-x="1391" 
d="M135 750h1121v-205h-1121v205z" />
    <glyph glyph-name="hyphen" unicode="-" horiz-adv-x="947" 
d="M125 801h697v-229h-697v229z" />
    <glyph glyph-name="uni00AD" unicode="&#xad;" horiz-adv-x="947" 
d="M125 801h697v-229h-697v229z" />
    <glyph glyph-name="emdash.frac" horiz-adv-x="1839" 
d="M142 832h1556v-205h-1556v205z" />
    <glyph glyph-name="endash.frac" horiz-adv-x="1404" 
d="M142 832h1121v-205h-1121v205z" />
    <glyph glyph-name="hyphen.frac" horiz-adv-x="964" 
d="M133 846h697v-229h-697v229z" />
    <glyph glyph-name="uni00AD.frac" horiz-adv-x="964" 
d="M133 846h697v-229h-697v229z" />
    <glyph glyph-name="guillemotleft" unicode="&#xab;" horiz-adv-x="1321" 
d="M613.963 523l384.977 -523h268.983l-376.978 525l351.979 519h-267.983zM65.9961 523l384.977 -523h268.983l-376.977 525l351.979 519h-267.984z" />
    <glyph glyph-name="guillemotright" unicode="&#xbb;" horiz-adv-x="1321" 
d="M707 523l-385 -523h-269l377 525l-352 519h268zM1255 523l-385 -523h-269l377 525l-352 519h268z" />
    <glyph glyph-name="guilsinglleft" unicode="&#x2039;" horiz-adv-x="773" 
d="M65.9961 523l384.977 -523h268.983l-376.977 525l351.979 519h-267.984z" />
    <glyph glyph-name="guilsinglright" unicode="&#x203a;" horiz-adv-x="773" 
d="M707 523l-385 -523h-269l377 525l-352 519h268z" />
    <glyph glyph-name="quotedblbase" unicode="&#x201e;" horiz-adv-x="983" 
d="M201 267h272l-210 -574h-177zM605 267h272l-210 -574h-177z" />
    <glyph glyph-name="quotedblleft" unicode="&#x201c;" horiz-adv-x="928" 
d="M742.955 941.942h-271.983l209.986 573.965h176.989zM338.979 941.942h-271.983l209.987 573.965h176.989z" />
    <glyph glyph-name="quotedblright" unicode="&#x201d;" horiz-adv-x="916" 
d="M201 1516h272l-210 -574h-177zM605 1516h272l-210 -574h-177z" />
    <glyph glyph-name="quoteleft" unicode="&#x2018;" horiz-adv-x="523" 
d="M338.979 941.942h-271.983l209.987 573.965h176.989z" />
    <glyph glyph-name="quoteright" unicode="&#x2019;" horiz-adv-x="511" 
d="M201 1516h272l-210 -574h-177z" />
    <glyph glyph-name="quotesinglbase" unicode="&#x201a;" horiz-adv-x="511" 
d="M201 267h272l-210 -574h-177z" />
    <glyph glyph-name="guillemotleft.case" horiz-adv-x="1363" 
d="M592.964 677l384.977 -523h268.983l-376.977 525l351.979 519h-267.984zM44.9971 677l384.977 -523h268.983l-376.977 525l351.979 519h-267.983z" />
    <glyph glyph-name="guillemotright.case" horiz-adv-x="1362" 
d="M740 677l-385 -523h-269l377 525l-352 519h268zM1288 677l-385 -523h-269l377 525l-352 519h268z" />
    <glyph glyph-name="guilsinglleft.case" horiz-adv-x="814" 
d="M728 154h-269l-385 523l361 521h268l-352 -519z" />
    <glyph glyph-name="guilsinglright.case" horiz-adv-x="814" 
d="M740 677l-385 -523h-269l377 525l-352 519h268z" />
    <glyph glyph-name="uni2003" unicode="&#x2003;" horiz-adv-x="1536" 
 />
    <glyph glyph-name="uni2002" unicode="&#x2002;" horiz-adv-x="1229" 
 />
    <glyph glyph-name="uni200A" unicode="&#x200a;" horiz-adv-x="154" 
 />
    <glyph glyph-name="uni00A0" unicode="&#xa0;" horiz-adv-x="527" 
 />
    <glyph glyph-name="uni2009" unicode="&#x2009;" horiz-adv-x="584" 
 />
    <glyph glyph-name="cent" unicode="&#xa2;" horiz-adv-x="1080" 
d="M980 61q-108 -68 -241 -86v-219h-192v218q-140 19 -245 93.5t-162 191t-57 258.5q0 143 56.5 258t161.5 188t246 92v226h192v-225q132 -16 230 -76v-245q-64 52 -137 77t-160 25q-100 0 -174.5 -40t-114.5 -112t-40 -166q0 -95 39.5 -169t117.5 -116t188 -42q83 0 161 27
t131 70v-228z" />
    <glyph glyph-name="currency" unicode="&#xa4;" horiz-adv-x="1321" 
d="M1107.5 563.5q-20.5 -66.5 -58.5 -123.5l166 -165l-126 -127l-164 164q-57 -40 -124 -62t-139 -22t-139 22t-125 62l-166 -164l-127 127l167 166q-38 57 -59 123t-22 136q1 71 22.5 138t61.5 124l-170 168l127 126l170 -169q57 39 123.5 60t136.5 21t136 -21t123 -60
l169 169l126 -126l-169 -169q39 -57 60 -123.5t21 -137.5q0 -70 -20.5 -136.5zM786.5 478.5q55.5 32.5 86.5 90t31 131.5t-31 131.5t-86.5 89.5t-127.5 32q-71 0 -126.5 -32t-86.5 -89.5t-31 -131.5t31 -131.5t86.5 -90t126.5 -32.5q72 0 127.5 32.5z" />
    <glyph glyph-name="dollar" unicode="$" horiz-adv-x="1117" 
d="M997.5 185q-47.5 -86 -132.5 -141t-195 -73v-215h-192v212q-101 12 -200 52t-184 106v256q95 -86 207 -139t231 -53q116 0 180 45.5t64 131.5q0 49 -18 83t-57 60t-106 51l-179 65q-167 60 -244.5 151.5t-77.5 227.5q0 104 45.5 185t132 131.5t206.5 65.5v221h192v-221
q93 -12 174 -44.5t142 -75.5v-262q-82 73 -186 115.5t-220 42.5q-110 0 -165 -42.5t-55 -111.5q0 -56 33 -94t117 -68l197 -68q177 -60 257.5 -156.5t80.5 -242.5q0 -109 -47.5 -195z" />
    <glyph glyph-name="Euro" unicode="&#x20ac;" horiz-adv-x="1415" 
d="M1309 328v-230q-171 -139 -421 -139q-170 0 -301.5 60.5t-217.5 171.5t-123 261h-173v154h149q-2 46 -2 71q0 20 2 58h-149v154h170q36 158 125 271t223 173t301 60q132 0 228 -33.5t174 -89.5v-243q-159 134 -373 134q-149 0 -255 -70t-151 -202h571l-45 -154h-556
q-1 -16 -1 -48q0 -46 4 -81h532l-44 -154h-452q49 -126 152.5 -194t248.5 -68q205 0 384 138z" />
    <glyph glyph-name="florin" unicode="&#x192;" horiz-adv-x="1128" 
d="M811 1137q-45 -46 -58 -145l-14 -111h290v-186h-314l-43 -340q-24 -190 -117.5 -293t-278.5 -103q-59 0 -113.5 14t-88.5 37v200q58 -41 149 -41q94 0 139 47.5t58 150.5l42 328h-256v186h280l15 116q24 190 117.5 293t278.5 103q59 0 113.5 -14t88.5 -37v-200
q-58 41 -149 41q-94 0 -139 -46z" />
    <glyph glyph-name="sterling" unicode="&#xa3;" horiz-adv-x="1205" 
d="M806 1142q-49 -24 -88 -77t-74 -143l-60 -154h329v-185h-400l-138 -355h712v-228h-996v211l150 372h-156v185h230l98 244q75 183 189.5 282t299.5 99q59 0 115 -13t94 -34v-232q-30 24 -80 38t-110 14q-66 0 -115 -24z" />
    <glyph glyph-name="uni20A9" unicode="&#x20a9;" horiz-adv-x="2038" 
d="M1734 789l-34 -143h249v-144h-282l-117 -502h-301l-99 502h-267l-101 -502h-296l-111 502h-286v144h255l-32 143h-223v143h192l-95 430h251l79 -430h270l89 430h292l88 -430h278l84 430h250l-100 -430h182v-143h-215zM969 932h96l-48 238zM569 646h158l29 143h-213z
M1121 646l-28 143h-152l-29 -143h209zM1505 789h-221l30 -143h162zM697 502h-102l48 -258zM1448 502h-105l54 -262z" />
    <glyph glyph-name="yen" unicode="&#xa5;" horiz-adv-x="1285" 
d="M856 769h284v-152h-376v-149h376v-152h-376v-316h-249v316h-369v152h369v149h-369v152h280l-355 593h277l290 -523l296 523h281z" />
    <glyph glyph-name="cent.tnum" horiz-adv-x="1274" 
d="M1080 61q-108 -68 -241 -86v-219h-192v218q-140 19 -245 93.5t-162 191t-57 258.5q0 143 56.5 258t161.5 188t246 92v226h192v-225q132 -16 230 -76v-245q-64 52 -137 77t-160 25q-100 0 -174.5 -40t-114.5 -112t-40 -166q0 -95 39.5 -169t117.5 -116t188 -42
q83 0 161 27t131 70v-228z" />
    <glyph glyph-name="currency.tnum" 
d="M1082.5 563.5q-20.5 -66.5 -58.5 -123.5l166 -165l-126 -127l-164 164q-57 -40 -124 -62t-139 -22t-139 22t-125 62l-166 -164l-127 127l167 166q-38 57 -59 123t-22 136q1 71 22.5 138t61.5 124l-170 168l127 126l170 -169q57 39 123.5 60t136.5 21t136 -21t123 -60
l169 169l126 -126l-169 -169q39 -57 60 -123.5t21 -137.5q0 -70 -20.5 -136.5zM761.5 478.5q55.5 32.5 86.5 90t31 131.5t-31 131.5t-86.5 89.5t-127.5 32q-71 0 -126.5 -32t-86.5 -89.5t-31 -131.5t31 -131.5t86.5 -90t126.5 -32.5q72 0 127.5 32.5z" />
    <glyph glyph-name="dollar.tnum" 
d="M1073.5 185q-47.5 -86 -132.5 -141t-195 -73v-215h-192v212q-101 12 -200 52t-184 106v256q95 -86 207 -139t231 -53q116 0 180 45.5t64 131.5q0 49 -18 83t-57 60t-106 51l-179 65q-167 60 -244.5 151.5t-77.5 227.5q0 104 45.5 185t132 131.5t206.5 65.5v221h192v-221
q93 -12 174 -44.5t142 -75.5v-262q-82 73 -186 115.5t-220 42.5q-110 0 -165 -42.5t-55 -111.5q0 -56 33 -94t117 -68l197 -68q177 -60 257.5 -156.5t80.5 -242.5q0 -109 -47.5 -195z" />
    <glyph glyph-name="Euro.tnum" 
d="M1199 291v-223q-149 -109 -369 -109q-163 0 -290 60.5t-209.5 171.5t-117.5 261h-172v154h149q-2 46 -2 71q0 20 2 58h-149v154h169q35 158 121 271t214.5 173t289.5 60q113 0 194 -24.5t155 -68.5v-238q-136 99 -322 99q-143 0 -243.5 -70t-143.5 -202h554l-45 -154
h-537q-1 -16 -1 -48q0 -46 4 -81h513l-44 -154h-435q47 -126 145.5 -194t236.5 -68q177 0 333 101z" />
    <glyph glyph-name="florin.tnum" horiz-adv-x="1040" 
d="M782 1137q-45 -46 -58 -145l-14 -111h290v-186h-314l-43 -340q-24 -190 -117.5 -293t-278.5 -103q-59 0 -113.5 14t-88.5 37v200q58 -41 149 -41q94 0 139 47.5t58 150.5l42 328h-256v186h280l15 116q24 190 117.5 293t278.5 103q59 0 113.5 -14t88.5 -37v-200
q-58 41 -149 41q-94 0 -139 -46z" />
    <glyph glyph-name="sterling.tnum" 
d="M838 1142q-49 -24 -88 -77t-74 -143l-60 -154h329v-185h-400l-138 -355h712v-228h-996v211l150 372h-156v185h230l98 244q75 183 189.5 282t299.5 99q59 0 115 -13t94 -34v-232q-30 24 -80 38t-110 14q-66 0 -115 -24z" />
    <glyph glyph-name="uni20A9.tnum" 
d="M1121 793l-19 -150h132v-137h-149l-64 -506h-258l-59 506h-154l-61 -506h-256l-58 506h-139v137h123l-17 150h-106v137h90l-50 432h199l37 -432h155l57 432h219l54 -432h158l42 432h196l-55 -432h96v-137h-113zM601 930h54l-27 232zM336 643h93l20 150h-126zM689 643
l-18 150h-87l-18 -150h123zM942 793h-128l18 -150h96zM411 506h-64l25 -294zM914 506h-65l37 -294z" />
    <glyph glyph-name="yen.tnum" 
d="M843 769h278v-152h-365v-149h365v-152h-365v-316h-250v316h-358v152h358v149h-358v152h275l-335 593h274l268 -518l274 518h278z" />
    <glyph glyph-name="uni2215" unicode="&#x2215;" horiz-adv-x="915" 
d="M634 1638h231l-584 -1884h-230z" />
    <glyph glyph-name="plus" unicode="+" 
d="M1111 548h-371v-369h-209v369h-372v201h372v360h209v-360h371v-201z" />
    <glyph glyph-name="minus" unicode="&#x2212;" 
d="M159 749h952v-201h-952v201z" />
    <glyph glyph-name="multiply" unicode="&#xd7;" 
d="M926 222l-291 290l-291 -290l-136 136l291 290l-291 290l136 136l291 -290l291 290l135 -136l-290 -290l291 -290z" />
    <glyph glyph-name="divide" unicode="&#xf7;" 
d="M569 918q-31 18 -49 48t-18 65q0 54 39 90t96 36t95 -36t38 -90q0 -35 -17.5 -65t-48 -48t-67.5 -18t-68 18zM159 749h952v-201h-952v201zM569 156.5q-31 17.5 -49 47.5t-18 66q0 53 39.5 89.5t95.5 36.5t94.5 -36.5t38.5 -89.5q0 -55 -38.5 -93t-94.5 -38
q-37 0 -68 17.5z" />
    <glyph glyph-name="equal" unicode="=" 
d="M159 549h952v-201h-952v201zM159 944h952v-201h-952v201z" />
    <glyph glyph-name="notequal" unicode="&#x2260;" 
d="M752 743l-73 -194h432v-201h-508l-96 -253h-190l96 253h-254v201h330l73 194h-403v201h479l97 257h190l-97 -257h283v-201h-359z" />
    <glyph glyph-name="greater" unicode="&#x3e;" 
d="M1121 811v-238l-937 -387v231l716 276l-716 279v226z" />
    <glyph glyph-name="less" unicode="&#x3c;" 
d="M148.991 811v-238l936.942 -387v231l-715.956 276l715.956 279v226z" />
    <glyph glyph-name="greaterequal" unicode="&#x2265;" 
d="M1102 684l-936 -281v213l714 187l-714 186v209l936 -277v-237zM1118 339v-201h-952v201h952z" />
    <glyph glyph-name="lessequal" unicode="&#x2264;" 
d="M167.99 684l935.942 -281v213l-713.956 187l713.956 186v209l-935.942 -277v-237zM151.99 339v-201h951.942v201h-951.942z" />
    <glyph glyph-name="plusminus" unicode="&#xb1;" 
d="M1111 878v-201h-371v-264h-209v264h-372v201h372v262h209v-262h371zM159 339h952v-201h-952v201z" />
    <glyph glyph-name="approxequal" unicode="&#x2248;" 
d="M737.5 245.5q-42.5 13.5 -73 32.5t-70.5 49q-45 33 -73 48t-61 15q-52 0 -84 -36t-33 -101h-194q0 103 40 180.5t108.5 118.5t152.5 41q52 0 95 -13.5t73.5 -32.5t71.5 -50q45 -33 72 -47.5t59 -14.5q51 0 85.5 37t34.5 100h191q0 -103 -39.5 -180.5t-108 -118.5
t-151.5 -41q-53 0 -95.5 13.5zM737.5 649.5q-42.5 13.5 -73 32.5t-70.5 49q-45 33 -73 48t-61 15q-52 0 -84 -36t-33 -101h-194q0 103 40 180.5t108.5 118.5t152.5 41q52 0 95 -13.5t73.5 -32.5t71.5 -50q45 -33 72 -47.5t59 -14.5q51 0 85.5 37t34.5 100h191
q0 -103 -39.5 -180.5t-108 -118.5t-151.5 -41q-53 0 -95.5 13.5z" />
    <glyph glyph-name="logicalnot" unicode="&#xac;" 
d="M1103 749v-591h-209v390h-743v201h952z" />
    <glyph glyph-name="asciitilde" unicode="~" 
d="M735.5 447.5q-42.5 13.5 -73 32.5t-70.5 49q-45 33 -73 48t-61 15q-52 0 -84 -36t-33 -101h-194q0 103 40 180.5t108.5 118.5t152.5 41q52 0 95 -13.5t73.5 -32.5t71.5 -50q45 -33 72 -47.5t59 -14.5q51 0 85.5 37t34.5 100h191q0 -103 -39.5 -180.5t-108 -118.5
t-151.5 -41q-53 0 -95.5 13.5z" />
    <glyph glyph-name="infinity" unicode="&#x221e;" 
d="M220.5 452q-64.5 38 -102 104t-37.5 146q0 81 37 147t102 104t143 38q89 0 153 -36t121 -120q59 84 120.5 120t149.5 36q78 0 142.5 -38t101.5 -104t37 -147q0 -80 -37 -146t-101.5 -104t-142.5 -38q-92 0 -152 35.5t-118 120.5q-59 -84 -120 -120t-154 -36
q-78 0 -142.5 38zM457 609.5q33 25.5 80 95.5q-43 63 -78 89.5t-78 26.5q-51 0 -84.5 -33.5t-33.5 -85.5q0 -51 33.5 -84.5t84.5 -33.5q43 0 76 25.5zM973.5 618q33.5 34 33.5 84t-33.5 84.5t-82.5 34.5q-43 0 -78.5 -26t-79.5 -90q33 -49 57.5 -75t47.5 -36t53 -10
q49 0 82.5 34z" />
    <glyph glyph-name="integral" unicode="&#x222b;" horiz-adv-x="1028" 
d="M96.5 -252q-50.5 14 -82.5 37v200q25 -20 59.5 -30.5t73.5 -10.5q87 0 129 47.5t54 149.5l109 855q23 190 113.5 293.5t267.5 103.5q55 0 105 -14t82 -38v-200q-25 21 -59.5 31.5t-74.5 10.5q-86 0 -127.5 -46t-53.5 -145l-110 -862q-23 -190 -113.5 -293t-267.5 -103
q-54 0 -104.5 14z" />
    <glyph glyph-name="Omega" unicode="&#x2126;" horiz-adv-x="1532" 
d="M1353.5 436.5q-79.5 -138.5 -229.5 -220.5h257v-216h-558v252q105 27 182 92t118.5 161t41.5 213q0 127 -48.5 225.5t-139 154t-211.5 55.5t-211.5 -55.5t-139 -154t-48.5 -225.5q0 -117 41.5 -213t118.5 -161t182 -92v-252h-558v216h259q-152 83 -231.5 220.5
t-79.5 305.5q0 186 87.5 334.5t240 232.5t339.5 84t339.5 -84t240 -232.5t87.5 -334.5q0 -167 -79.5 -305.5z" />
    <glyph glyph-name="Delta" unicode="&#x2206;" horiz-adv-x="1296" 
d="M1237 197v-197h-1178v197l447 1165h284zM309 218h678l-339 903z" />
    <glyph glyph-name="product" unicode="&#x220f;" horiz-adv-x="1543" 
d="M1481 1137h-218v-1137h-250v1137h-483v-1137h-250v1137h-218v225h1419v-225z" />
    <glyph glyph-name="summation" unicode="&#x2211;" horiz-adv-x="1164" 
d="M1076 1137h-721l514 -578l-517 -579h724v-226h-983v254l478 547l-478 545v262h983v-225z" />
    <glyph glyph-name="radical" unicode="&#x221a;" horiz-adv-x="1377" 
d="M1360 1137h-378l-421 -1383h-267l-277 871h249l156 -568l373 1305h565v-225z" />
    <glyph glyph-name="partialdiff" unicode="&#x2202;" horiz-adv-x="1227" 
d="M840.5 1302.5q136.5 -90.5 211 -262.5t74.5 -411q0 -225 -67.5 -373t-186.5 -218.5t-276 -70.5q-151 0 -268.5 64.5t-182.5 177t-65 252.5q0 129 55.5 230t155 157t226.5 56t219.5 -54t136.5 -146q-3 143 -47.5 246t-128.5 158.5t-202 55.5q-98 0 -184 -35t-145 -88v251
q157 101 355 101q183 0 319.5 -90.5zM730.5 219q59.5 35 93.5 96t34 138q0 74 -33.5 133t-92.5 93t-134 34q-74 0 -133.5 -33t-93.5 -93t-34 -136q0 -78 34 -139t93 -94.5t132 -33.5q75 0 134.5 35z" />
    <glyph glyph-name="mu" unicode="&#xb5;" horiz-adv-x="1225" 
d="M1082 1029v-1029h-251v180q-43 -98 -123 -152.5t-183 -55.5q-73 0 -128 33v-394h-254v1418h254v-590q0 -255 206 -255q109 0 167 80t58 227v538h254z" />
    <glyph glyph-name="percent" unicode="%" horiz-adv-x="1900" 
d="M234.5 601q-81.5 54 -126.5 153.5t-45 232.5q0 132 45.5 231.5t127 154t187.5 54.5q107 0 189 -54.5t127.5 -154.5t45.5 -233q0 -132 -45 -231t-127 -153t-190 -54q-107 0 -188.5 54zM1154 1362h206l-640 -1362h-207zM539 795q42 70 42 190q0 122 -42 193t-116 71
q-71 0 -113 -71t-42 -191q0 -122 41 -192t114 -70q74 0 116 70zM1285 29.5q-82 53.5 -127 153t-45 232.5q0 132 45.5 232t127.5 154.5t188 54.5q107 0 189 -54.5t127.5 -154.5t45.5 -233q0 -132 -45.5 -231t-127.5 -153t-189 -54t-189 53.5zM1589 224q42 70 42 190
q0 121 -42 192.5t-115 71.5q-72 0 -114 -71.5t-42 -191.5q0 -122 41.5 -191.5t114.5 -69.5t115 70z" />
    <glyph glyph-name="perthousand" unicode="&#x2030;" horiz-adv-x="2707" 
d="M234.5 601q-81.5 54 -126.5 153.5t-45 232.5q0 132 45.5 231.5t127 154t187.5 54.5q107 0 189 -54.5t127.5 -154.5t45.5 -233q0 -132 -45 -231t-127 -153t-190 -54q-107 0 -188.5 54zM1154 1362h206l-640 -1362h-207zM539 795q42 70 42 190q0 122 -42 193t-116 71
q-71 0 -113 -71t-42 -191q0 -122 41 -192t114 -70q74 0 116 70zM1285 29.5q-82 53.5 -127 153t-45 232.5q0 132 45.5 232t127.5 154.5t188 54.5q107 0 189 -54.5t127.5 -154.5t45.5 -233q0 -132 -45.5 -231t-127.5 -153t-189 -54t-189 53.5zM2093.5 29.5
q-81.5 53.5 -126.5 153t-45 232.5q0 132 45.5 232t127 154.5t187.5 54.5q107 0 189 -54.5t127.5 -154.5t45.5 -233q0 -132 -45 -231t-127 -153t-190 -54q-107 0 -188.5 53.5zM1589 224q42 70 42 190q0 121 -42 192.5t-115 71.5q-72 0 -114 -71.5t-42 -191.5
q0 -122 41.5 -191.5t114.5 -69.5t115 70zM2398 223.5q42 69.5 42 190.5q0 122 -42 193t-116 71q-71 0 -113 -71.5t-42 -191.5q0 -122 41 -191.5t114 -69.5q74 0 116 69.5z" />
    <glyph glyph-name="arrowup" unicode="&#x2191;" horiz-adv-x="1101" 
d="M1052 689l-386 445v-1134h-231v1133l-386 -444v306l419 480h170l414 -480v-306z" />
    <glyph glyph-name="uni2197" unicode="&#x2197;" horiz-adv-x="1273" 
d="M1214 1434v-713l-210 -211v556l-798 -796l-161 156l795 798h-539l217 210h696z" />
    <glyph glyph-name="arrowright" unicode="&#x2192;" horiz-adv-x="1613" 
d="M1543 818v-170l-494 -431h-312l468 408h-1147v218h1149l-470 408h312z" />
    <glyph glyph-name="uni2198" unicode="&#x2198;" horiz-adv-x="1315" 
d="M1221 0v712.956l-210 210.987v-555.966l-798 795.951l-161 -155.99l795 -797.951h-539l217 -209.987h696z" />
    <glyph glyph-name="arrowdown" unicode="&#x2193;" horiz-adv-x="1101" 
d="M1052 744.954l-386 -444.973v1133.93h-231v-1132.93l-386 443.973v-305.98l419 -479.971h170l414 479.971v305.98z" />
    <glyph glyph-name="uni2199" unicode="&#x2199;" horiz-adv-x="1273" 
d="M58.9961 0v712.956l209.987 210.987v-555.966l797.951 795.951l160.99 -155.99l-794.951 -797.951h538.967l-216.986 -209.987h-695.958z" />
    <glyph glyph-name="arrowleft" unicode="&#x2190;" horiz-adv-x="1613" 
d="M69.9961 818v-170l493.97 -431h311.98l-467.972 408h1146.93v218h-1148.93l469.971 408h-311.98z" />
    <glyph glyph-name="uni2196" unicode="&#x2196;" horiz-adv-x="1273" 
d="M58.9961 1434v-713l209.987 -211v556l797.951 -796l160.99 156l-794.951 798h538.967l-216.986 210h-695.958z" />
    <glyph glyph-name="uni21A4" unicode="&#x21a4;" horiz-adv-x="1696" 
d="M1594 1251v-1034h-231v408h-941l468 -408h-312l-494 431v170l494 433h312l-470 -408h943v408h231z" />
    <glyph glyph-name="uni21A5" unicode="&#x21a5;" horiz-adv-x="1193" 
d="M712 1134v-917h386v-217h-1003v217h386v916l-386 -444v306l419 480h170l414 -480v-306z" />
    <glyph glyph-name="uni21A6" unicode="&#x21a6;" horiz-adv-x="1696" 
d="M101.994 1251v-1034h230.985v408h940.942l-467.971 -408h311.98l493.97 431v170l-493.97 433h-311.98l469.971 -408h-942.942v408h-230.985z" />
    <glyph glyph-name="uni21A7" unicode="&#x21a7;" horiz-adv-x="1193" 
d="M712 299.981v916.944h386v216.986h-1003v-216.986h386v-915.944l-386 443.973v-305.98l419 -479.971h170l414 479.971v305.98z" />
    <glyph glyph-name="uni21B0" unicode="&#x21b0;" horiz-adv-x="1679" 
d="M1556 1026v-1026h-231v808h-915l468 -408h-312l-494 432v168l494 434h312l-469 -408h1147z" />
    <glyph glyph-name="uni21B1" unicode="&#x21b1;" horiz-adv-x="1679" 
d="M122.992 1026v-1026h230.986v808h914.944l-467.972 -408h311.98l493.971 432v168l-493.971 434h-311.98l468.972 -408h-1146.93z" />
    <glyph glyph-name="uni21B2" unicode="&#x21b2;" horiz-adv-x="1681" 
d="M1558 407.975v1025.94h-231v-807.95h-915l468 407.975h-312l-494 -431.974v-167.989l494 -433.974h312l-469 407.975h1147z" />
    <glyph glyph-name="uni21B3" unicode="&#x21b3;" horiz-adv-x="1681" 
d="M122.992 407.975v1025.94h230.986v-807.95h914.944l-467.972 407.975h311.98l493.971 -431.974v-167.989l-493.971 -433.974h-311.98l468.972 407.975h-1146.93z" />
    <glyph glyph-name="H18533" unicode="&#x25cf;" horiz-adv-x="1505" 
d="M417.5 105q-150.5 87 -237.5 237.5t-87 331.5t87 332.5t238 239t333 87.5q183 0 334 -87.5t238 -239t87 -332.5t-87 -331.5t-238 -237.5t-334 -87t-333.5 87z" />
    <glyph glyph-name="circle" unicode="&#x25cb;" horiz-adv-x="1505" 
d="M417.5 105q-150.5 87 -237.5 237.5t-87 331.5t87 332.5t238 239t333 87.5q183 0 334 -87.5t238 -239t87 -332.5t-87 -331.5t-238 -237.5t-334 -87t-333.5 87zM1001 244q112 65 176.5 178t64.5 252t-64.5 253t-176.5 179.5t-250 65.5q-136 0 -248.5 -66t-177 -180
t-64.5 -252t64.5 -251.5t176.5 -178.5t249 -65q138 0 250 65z" />
    <glyph glyph-name="uni25C6" unicode="&#x25c6;" horiz-adv-x="1839" 
d="M43 670l870 876l883 -876l-883 -875z" />
    <glyph glyph-name="uni25C7" unicode="&#x25c7;" horiz-adv-x="1839" 
d="M43 670l870 876l883 -876l-883 -875zM1569 670l-656 653l-645 -653l645 -650z" />
    <glyph glyph-name="lozenge" unicode="&#x25ca;" horiz-adv-x="1179" 
d="M1114 696l-425 -696h-201l-423 696l423 666h201zM874 687l-286 462l-285 -462l285 -475z" />
    <glyph glyph-name="filledbox" unicode="&#x25a0;" horiz-adv-x="1602" 
d="M181 1300h1239v-1239h-1239v1239z" />
    <glyph glyph-name="H22073" unicode="&#x25a1;" horiz-adv-x="1602" 
d="M181 1300h1239v-1239h-1239v1239zM1257 218v926h-913v-926h913z" />
    <glyph glyph-name="triagup" unicode="&#x25b2;" horiz-adv-x="1538" 
d="M768 1434l723 -1373h-1444z" />
    <glyph glyph-name="uni25B6" unicode="&#x25b6;" horiz-adv-x="1521" 
d="M206 1438l1270 -744l-1270 -700v1444z" />
    <glyph glyph-name="triagdn" unicode="&#x25bc;" horiz-adv-x="1538" 
d="M768 -71.9961l723 1372.92h-1444z" />
    <glyph glyph-name="uni25C0" unicode="&#x25c0;" horiz-adv-x="1521" 
d="M1314.92 1438l-1269.92 -744l1269.92 -700v1444z" />
    <glyph glyph-name="uni25B3" unicode="&#x25b3;" horiz-adv-x="1538" 
d="M1491 61h-1444l721 1373zM768 1099l-462 -881h925z" />
    <glyph glyph-name="uni25B7" unicode="&#x25b7;" horiz-adv-x="1521" 
d="M1476 694l-1270 -700v1444zM367 1170v-915l803 445z" />
    <glyph glyph-name="uni25BD" unicode="&#x25bd;" horiz-adv-x="1538" 
d="M1491 1300.92h-1444l721 -1372.92zM768 262.984l-462 880.945h925z" />
    <glyph glyph-name="uni25C1" unicode="&#x25c1;" horiz-adv-x="1521" 
d="M44.9971 694l1269.92 -700v1444zM1153.93 1170v-915l-802.951 445z" />
    <glyph glyph-name="uni2661" unicode="&#x2661;" horiz-adv-x="1628" 
d="M1359.5 1380.5q87.5 -53.5 135.5 -151t48 -225.5q0 -162 -81.5 -328.5t-241 -347t-408.5 -398.5q-245 216 -403.5 395.5t-241 347.5t-82.5 331q0 128 48 225.5t136 151t203 53.5q119 0 209 -54t133 -158q43 104 133 158t209 54q116 0 203.5 -53.5zM1139.5 479.5
q124.5 148.5 182.5 275t58 245.5q0 128 -63 203t-176 75q-213 0 -239 -270h-175q-27 270 -240 270q-113 0 -176 -74.5t-63 -201.5q0 -120 59 -248.5t183 -277.5t322 -329q203 184 327.5 332.5z" />
    <glyph glyph-name="heart" unicode="&#x2665;" horiz-adv-x="1628" 
d="M1360.5 1380.5q86.5 -53.5 134.5 -151.5t48 -225q0 -162 -82 -329t-241.5 -347.5t-407.5 -397.5q-241 212 -400 392t-243 350t-84 334q0 126 48 223.5t135 151t198 53.5q138 0 229 -80t119 -215q27 136 119 215.5t229 79.5q112 0 198.5 -53.5z" />
    </font>
</defs>
</svg>
