<?xml version="1.0" encoding="utf-8"?>
<!-- Generator: Adobe Illustrator 23.0.0, SVG Export Plug-In . SVG Version: 6.00 Build 0)  -->
<svg version="1.1" id="Calque_1" xmlns="http://www.w3.org/2000/svg" xmlns:xlink="http://www.w3.org/1999/xlink" x="0px" y="0px"
	 viewBox="0 0 100 98.8" style="enable-background:new 0 0 100 98.8;" xml:space="preserve">
<style type="text/css">
	.st0{fill:#FFFFFF;}
</style>
<g>
	<g>
		<g>
			<path class="st0" d="M48.6,84.1L48.6,84.1c-2.7,0-5.4-0.3-8.1-1c-8.8-2.2-16.3-7.6-21-15.4s-6.1-16.9-4-25.8
				c3.7-15.3,17.3-26,33.1-26c2.7,0,5.4,0.3,8.1,1c18.2,4.4,29.5,22.9,25,41.2C77.9,73.4,64.3,84.1,48.6,84.1z M48.5,19.1
				c-14.3,0-26.6,9.7-30,23.6c-2,8-0.7,16.3,3.6,23.3s11.1,12,19.1,14c2.4,0.6,4.9,0.9,7.3,0.9c14.3,0,26.6-9.7,30-23.6
				c4-16.5-6.1-33.3-22.7-37.3C53.4,19.4,51,19.1,48.5,19.1z"/>
		</g>
	</g>
</g>
<g>
	<g>
		<g>
			<path class="st0" d="M66.5,78.2l-3.2-0.3c3.3-38.3-31.7-54.1-32.1-54.3l1.3-2.9C32.9,20.8,70,37.6,66.5,78.2z"/>
		</g>
	</g>
</g>
<g>
	<g>
		<g>
			<path class="st0" d="M17.8,46.2L15,44.8c3.7-7.4,11.6-7,19.2-6.5c5.9,0.4,12.1,0.7,16.5-2.5c9.4-6.7,3.2-16.4,2.9-16.8l2.7-1.8
				c2.9,4.3,5.8,14.4-3.7,21.2c-5.3,3.8-12.3,3.4-18.5,3C26.8,41,20.6,40.7,17.8,46.2z"/>
		</g>
	</g>
</g>
<g>
	<g>
		<g>
			<path class="st0" d="M36.1,81.5l-0.5-3.1c6.5-1,10-7,13.8-13.4c3.1-5.3,6.3-10.7,11.4-13.1c9.2-4.5,17.3,2,20.3,6.1l-2.6,1.9
				c-0.3-0.4-7.3-9.5-16.4-5.1c-4.2,2-7,6.8-10,11.9C48.2,73.2,44.1,80.2,36.1,81.5z"/>
		</g>
	</g>
</g>
<g>
	<g>
		<g>
			<polygon class="st0" points="22,68.7 20.3,66 75.3,31.6 77,34.3 			"/>
		</g>
	</g>
</g>
</svg>
