<svg xmlns="http://www.w3.org/2000/svg" xmlns:xlink="http://www.w3.org/1999/xlink" viewBox="0 0 446.92 561.37"><defs><style>.cls-1,.cls-2,.cls-3{stroke:#000;}.cls-1,.cls-2,.cls-3,.cls-4,.cls-5,.cls-6,.cls-7{stroke-miterlimit:10;}.cls-2,.cls-3,.cls-4,.cls-5,.cls-6,.cls-7{fill:none;}.cls-3,.cls-4,.cls-5,.cls-6,.cls-7{stroke-width:0.5px;}.cls-4{stroke:url(#Dégradé_sans_nom_4);}.cls-5{stroke:url(#Dégradé_sans_nom);}.cls-6{stroke:url(#Dégradé_sans_nom-2);}.cls-7{stroke:url(#Dégradé_sans_nom-3);}</style><linearGradient id="Dégradé_sans_nom_4" x1="333.26" y1="192.85" x2="349.21" y2="192.85" gradientUnits="userSpaceOnUse"><stop offset="0" stop-color="#fff"/><stop offset="0.01" stop-color="#f6f6f6"/><stop offset="0.05" stop-color="#c8c8c8"/><stop offset="0.09" stop-color="#9d9d9d"/><stop offset="0.14" stop-color="#777"/><stop offset="0.2" stop-color="#575757"/><stop offset="0.25" stop-color="#3b3b3b"/><stop offset="0.32" stop-color="#252525"/><stop offset="0.4" stop-color="#141414"/><stop offset="0.49" stop-color="#090909"/><stop offset="0.63" stop-color="#020202"/><stop offset="1"/></linearGradient><linearGradient id="Dégradé_sans_nom" x1="271.9" y1="364.07" x2="362.7" y2="364.07" gradientUnits="userSpaceOnUse"><stop offset="0" stop-color="#fff"/><stop offset="1"/></linearGradient><linearGradient id="Dégradé_sans_nom-2" x1="313.01" y1="394.16" x2="349.21" y2="394.16" xlink:href="#Dégradé_sans_nom"/><linearGradient id="Dégradé_sans_nom-3" x1="268.75" y1="440.76" x2="349.08" y2="440.76" xlink:href="#Dégradé_sans_nom"/></defs><title>typFichier 6</title><g id="Calque_2" data-name="Calque 2"><g id="Calque_2-2" data-name="Calque 2"><path class="cls-1" d="M442.6,282.56a47.48,47.48,0,0,0-11.22-10.72l-2.51-2-4.35-3.34-4.35-4.19c-10.83-8.64-20-13-27.5-20.41-6.65-8.26-11.56-10.58-15.14-8.4a161.6,161.6,0,0,1-20.81-15.88l1.46,5.66-6-5.11a131,131,0,0,0,6.75,15.15c-3.83,3.35-5.52,6.64-4.93,9.85a39.07,39.07,0,0,0-8.39,4.38c-6.88,2.31-10.21,4.72-6.75,7.3-4,2.61-7.94,6.6-11.86,11.13a18,18,0,0,1-7.3-2.73c.93-6.79-7.1-6.79-15.88-9.13-11.12-4.43-17.66-8.58-19.16-12.41.64-2.51-.06-6.08-1.46-10.22a21.49,21.49,0,0,0-2.19-6,11.86,11.86,0,0,0-6.21-5.66A188.3,188.3,0,0,1,262,196.26a37.67,37.67,0,0,0-5.16-12.59c-1.31-3.92.15-6,4.78-5.89,3.07.07,5.27-3.2,5.89-12.58,1-2.49,1.44-5.91,1.3-10.2a17.62,17.62,0,0,0,11.89-12.29A36.59,36.59,0,0,0,267,138.4c-8.16-11.92-18.64-10.9-30.53-2.05L192.81,33.29,207.15,29c1.22-2.67.24-5.11-2.46-7.38L167.4,30.22c-1.83,3.83-.29,6.49,2.87,8.6l16.59-3.89L232.35,141c-1.75,9.21-1.23,17.79,3.86,25.11l-.43,4.51q-8.15,5.06-17.59,10.09c-18.83,12.9-12.8,25.09-13.95,44.85-4,4.42-5,15.65-3.44,32.62-11.35,22-6.43,37.92,11.38,48.72-5.83-.08-11.73-.43-18.67-5.15-9.21-9.74-16.85-16.81-21.68-19.1-2,4.07-1.72,9.07,2.15,15.45-1.66,2.58-3,6.67-4.11,12.45a388.54,388.54,0,0,1-46.56-7.2c-13.31-1.48-31.86,4.15-52.8,13a64.24,64.24,0,0,1-21.57,4,50.55,50.55,0,0,0-17.74,3.84c-5.62,4.94-10.34,10-9.3,15.87l-1.27,3.16a18.65,18.65,0,0,0-3.38,7.82l-2.32,2.32a13.53,13.53,0,0,0-6.55,6.13l-2.75,1.48c-5.5,2.09-6.25,5.94-3.8,11,3.32,3.18,6.83,2.59,10.56-2.74l2.11-2.75c5.08.16,7.49-2.71,7.4-8.45L23,355.36c3.64-2.47,6-5.26,6.76-8.45l1.48-2.33c7.14-8.4,16.42-13.13,28.62-12.84-8,10.68-11.43,20.94-10.64,30.82C54.4,377.42,66,393.7,82.18,411,85,428.49,78.26,440.69,66,449.86c-3,4.85-3.3,9-.73,12.48C73,471.05,80.22,480,85.48,490.21a6.19,6.19,0,0,0,3.67,3.31,179.26,179.26,0,0,1,19.44,34.11c-.52,3.89-4.26,7.56-5.13,14.31,5.3,7.58,9.83,11.95,13.71,13.66a21.73,21.73,0,0,0,5.24-14.11l1.82-8.87a66.72,66.72,0,0,1-2-18.2c8.92,12.29,10.74,25.06,20.24,28.44-3.57,2.59-3.16,7.06-.68,12.51,6.77,3.79,13.25,5.8,19.34,5.46a18.24,18.24,0,0,0-2.5-13.2L149.7,534c-.07-6-2.92-11.23-6.82-16.15a176.49,176.49,0,0,0-21.61-37.08c.66-18.8,3-35.42,8-48.59,2.13-13.63,10.87-26.41,13.67-39.57a429.25,429.25,0,0,1,39,19.2,224.9,224.9,0,0,0,62,17.78c1,7.42,3.47,16.36,6.8,26.19l-1.3-22c1.51-2.26,3.7-2.07,6.28-.52a61.15,61.15,0,0,1,9.17,8.9,103.77,103.77,0,0,0,17,38c3.45,5,3,9.53-1.84,13.62-14.58,11.3-34.7,16.24-40.59,25.4-4.17,2-8.27,1.68-12.3-1.31-2.87.78-4.13,3.08-4.72,6a88.42,88.42,0,0,0,.53,21.47,33.52,33.52,0,0,0,10.21-8.64l9.16-7.33a17,17,0,0,1,8.65-.79c15.52-8.87,29.65-17.48,38.75-25.14,6.49-5.55,12.05-11.68,10.74-22-.57-6.29-1.9-15.11-3.67-25.4l10,10c3.54,4.82,4.75,10.72,3.92,17.55-6.2,18.47-19.16,31.71-19.64,41.64l-3.66,4.71c-7.55-.43-10.61,1.63-9.43,6l-2.88-.26c1.94,6.94,4,13.7,6.28,20.17a23.62,23.62,0,0,0,7.07-8.65,25.24,25.24,0,0,0,8.38-13.09c1-2.47,9.26-1.8,10.22-6.55,1-7.76,9.86-19.44,16.76-36.66,1.94-2.54,3.36-5.12,2.62-7.86,1.59-6.23.66-12.23-1.84-18.06-5.49-13.35-10.89-29-16.23-45.57,10.6-5.63,16.62-12.07,16.23-19.64a23.14,23.14,0,0,0,7.6-14.93l13.23-20.35-1.15,10.09c2.24-10.23,7.45-21,16.05-32.26,2.1,1,3.38-1.11,3.8-6.45L377,319.44c6.64-7,19.22-10.85,35-12.93,2.72-6,6.25-9,11.55-5.53,2.62,5.91,6.37,7.43,11.73,2.85,5.44.35,10.15-.91,10.38-11.89C447.38,288.35,446.19,285.26,442.6,282.56ZM93.09,471.38c-1.94-4.76.72-10.83,4.86-17.32-1.82,6.57-3.14,13,0,18.38,1.15,2.91,5.39,10.74,9.51,18.37C101.71,482.17,96.36,474.43,93.09,471.38Zm161.59-236.1a24.37,24.37,0,0,0,6,6.73,23.85,23.85,0,0,0-7.26.71A67.91,67.91,0,0,0,254.68,235.28ZM246,273.72l3.9-20.19,22.67-3.9L297,262l-5.66,9.21-35.43,21.08Zm31.71,23.73L271,289.31l-2.13,1.41,5.31,8-16.82-4.07,32.94-21.08c-3.59,5.65-3.72,15.13-3.36,25.15Zm12-3.72c-1.3-9-.07-16.71,6.2-21.78A38.32,38.32,0,0,1,289.75,293.73Zm5.85.36a81.92,81.92,0,0,1,9.56-23.21c7.93-.72,13.06-.14,13.46,2.66C310.72,283.43,303,291.13,295.6,294.09Zm70.23,10a78.56,78.56,0,0,1,14.43,5c-6.54.71-12.86,1.14-18,0A16.83,16.83,0,0,1,365.83,304ZM333,379.79c-.5-4.66-.54-8.73.2-11.82,3.9-1.43,6-4.37,5.21-9.82l4.41,6.21Zm11.63-19.64-4.61-5c7.8-15.26,15.1-30.06,20.24-42.88a130.6,130.6,0,0,0,20.24,1C370.31,324.26,357.8,341.32,344.59,360.15Zm40.26-53.59a106,106,0,0,1-13.66-3.42c7.46-.07,14.15-.28,18.26-.92A23.86,23.86,0,0,1,384.85,306.56Zm-8.8-7.49c-1.92-3.55,3-5.29,16.55-4.73a6.62,6.62,0,0,1-3,5.52C383.31,300.05,378.7,299.82,376.05,299.07ZM390.23,307A89,89,0,0,1,403,297.36c3.21,0,5.72.57,7.36,1.84C400.14,306.78,394.74,307.51,390.23,307Z"/><path class="cls-2" d="M98,472.44c1.15,2.91,5.39,10.74,9.51,18.37-5.75-8.64-11.1-16.38-14.37-19.43-1.94-4.76.72-10.83,4.86-17.32C96.13,460.63,94.81,467.07,98,472.44Z"/><path class="cls-2" d="M253.44,242.72a67.91,67.91,0,0,0,1.24-7.44,24.37,24.37,0,0,0,6,6.73A23.85,23.85,0,0,0,253.44,242.72Z"/><path class="cls-2" d="M286.92,298.69l-9.21-1.24L271,289.31l-2.13,1.41,5.31,8-16.82-4.07,32.94-21.08C286.69,279.19,286.56,288.67,286.92,298.69Z"/><path class="cls-2" d="M296,272a38.32,38.32,0,0,1-6.2,21.78C288.45,284.72,289.68,277,296,272Z"/><polygon class="cls-2" points="291.35 271.24 255.92 292.32 246 273.72 249.9 253.53 272.57 249.63 297.01 262.03 291.35 271.24"/><path class="cls-2" d="M318.62,273.54c-7.9,9.89-15.64,17.59-23,20.55a81.92,81.92,0,0,1,9.56-23.21C313.09,270.16,318.22,270.74,318.62,273.54Z"/><path class="cls-2" d="M338.37,358.15l4.41,6.21L333,379.79c-.5-4.66-.54-8.73.2-11.82C337.06,366.54,339.19,363.6,338.37,358.15Z"/><path class="cls-2" d="M362.22,309.05a16.83,16.83,0,0,1,3.61-5,78.56,78.56,0,0,1,14.43,5C373.72,309.76,367.4,310.19,362.22,309.05Z"/><path class="cls-2" d="M380.46,313.26c-10.15,11-22.66,28.06-35.87,46.89l-4.61-5c7.8-15.26,15.1-30.06,20.24-42.88A130.6,130.6,0,0,0,380.46,313.26Z"/><path class="cls-2" d="M371.19,303.14c7.46-.07,14.15-.28,18.26-.92a23.86,23.86,0,0,1-4.6,4.34A106,106,0,0,1,371.19,303.14Z"/><path class="cls-2" d="M389.58,299.86c-6.27.19-10.88,0-13.53-.79-1.92-3.55,3-5.29,16.55-4.73A6.62,6.62,0,0,1,389.58,299.86Z"/><path class="cls-2" d="M410.34,299.2c-10.2,7.58-15.6,8.31-20.11,7.75A89,89,0,0,1,403,297.36C406.19,297.37,408.7,297.93,410.34,299.2Z"/><path class="cls-2" d="M107.46,490.81c-5.75-8.64-11.1-16.38-14.37-19.43-1.94-4.76.72-10.83,4.86-17.32-1.82,6.57-3.14,13,0,18.38C99.1,475.35,103.34,483.18,107.46,490.81Z"/><path class="cls-2" d="M260.7,242a23.85,23.85,0,0,0-7.26.71,67.91,67.91,0,0,0,1.24-7.44A24.37,24.37,0,0,0,260.7,242Z"/><polygon class="cls-2" points="297.01 262.03 291.35 271.24 255.92 292.32 246 273.72 249.9 253.53 272.57 249.63 297.01 262.03"/><path class="cls-2" d="M318.62,273.54c-7.9,9.89-15.64,17.59-23,20.55a81.92,81.92,0,0,1,9.56-23.21C313.09,270.16,318.22,270.74,318.62,273.54Z"/><path class="cls-2" d="M296,272a38.32,38.32,0,0,1-6.2,21.78C288.45,284.72,289.68,277,296,272Z"/><path class="cls-2" d="M286.92,298.69l-9.21-1.24L271,289.31l-2.13,1.41,5.31,8-16.82-4.07,32.94-21.08C286.69,279.19,286.56,288.67,286.92,298.69Z"/><path class="cls-2" d="M380.46,313.26c-10.15,11-22.66,28.06-35.87,46.89l-4.61-5c7.8-15.26,15.1-30.06,20.24-42.88A130.6,130.6,0,0,0,380.46,313.26Z"/><path class="cls-2" d="M342.78,364.36,333,379.79c-.5-4.66-.54-8.73.2-11.82,3.9-1.43,6-4.37,5.21-9.82Z"/><path class="cls-2" d="M380.26,309.05c-6.54.71-12.86,1.14-18,0a16.83,16.83,0,0,1,3.61-5A78.56,78.56,0,0,1,380.26,309.05Z"/><path class="cls-2" d="M389.45,302.22a23.86,23.86,0,0,1-4.6,4.34,106,106,0,0,1-13.66-3.42C378.65,303.07,385.34,302.86,389.45,302.22Z"/><path class="cls-2" d="M392.6,294.34a6.62,6.62,0,0,1-3,5.52c-6.27.19-10.88,0-13.53-.79C374.13,295.52,379,293.78,392.6,294.34Z"/><path class="cls-2" d="M410.34,299.2c-10.2,7.58-15.6,8.31-20.11,7.75A89,89,0,0,1,403,297.36C406.19,297.37,408.7,297.93,410.34,299.2Z"/></g><g id="Calque_3" data-name="Calque 3"><polyline class="cls-3" points="164.32 307.53 164.32 273.1 90.45 273.1"/><polyline class="cls-3" points="173.26 279.65 173.26 226.04 90.45 226.04"/><polyline class="cls-3" points="194.71 261.78 194.71 196.84 90.45 196.84"/><line class="cls-3" x1="94.02" y1="510.2" x2="67.81" y2="510.2"/><line class="cls-3" x1="25.51" y1="357.68" x2="25.51" y2="391.65"/><polyline class="cls-3" points="276.32 216.5 276.32 44.34 349 44.34"/><polyline class="cls-3" points="187.56 21.7 187.56 0.25 350.19 0.25"/><line class="cls-3" x1="194.11" y1="65.78" x2="125" y2="65.78"/><line class="cls-3" x1="241.17" y1="132.72" x2="163.13" y2="132.72"/><polyline class="cls-3" points="349.21 90.21 284.66 90.21 284.66 271.91"/><polyline class="cls-3" points="341.85 243.91 341.85 145.61 349.21 145.61"/><polyline class="cls-4" points="349.21 109.27 333.51 109.27 333.51 276.67"/><line class="cls-3" x1="406.19" y1="219.48" x2="406.19" y2="257.01"/><line class="cls-3" x1="377.6" y1="321.35" x2="377.6" y2="339.23"/><polyline class="cls-5" points="272.15 348.16 272.15 379.74 362.7 379.74"/><polyline class="cls-6" points="313.26 365.44 313.26 422.63 349.21 422.63"/><line class="cls-3" x1="318.02" y1="512.59" x2="347.81" y2="512.59"/><polyline class="cls-7" points="268.98 426.99 280.86 454.38 349.08 454.38"/></g></g></svg>