<?xml version="1.0" encoding="utf-8"?>
<!-- Generator: Adobe Illustrator 22.0.0, SVG Export Plug-In . SVG Version: 6.00 Build 0)  -->
<svg version="1.1" id="Calque_1" xmlns="http://www.w3.org/2000/svg" xmlns:xlink="http://www.w3.org/1999/xlink" x="0px" y="0px"
	 viewBox="0 0 238.8 276.8" style="enable-background:new 0 0 238.8 276.8;" xml:space="preserve">
<style type="text/css">
	.st0{fill:#0000FF;}
</style>
<title>Plan de travail 1 copie 6</title>
<rect x="-8.3" y="-8.1" width="256" height="293"/>
<path class="st0" d="M1.9,91.7l5.5-54.5c0.1-1.4,0.9-2.7,2.1-3.6L53.8,2.3C55,1.4,56.5,1.1,58,1.4l76.8,15.9c1.7,0.3,3,1.9,2.9,3.6
	V45c0,1.8-0.9,3.6-2.4,4.6l-31.9,21.8c-3.9,2.7-9.1,2.2-12.5-1.1L64.7,44.9c-1-1-2.2-1.7-3.6-2.2l-22.6-7.5
	c-1.5-0.5-3.2-0.2-4.4,0.7L20.3,46.6c-0.7,0.6-1.2,1.4-1.3,2.3l-5.6,43.9c-0.1,0.9-0.9,1.6-1.9,1.6L3.9,94
	C2.8,93.9,1.9,92.9,1.9,91.7C1.9,91.8,1.9,91.7,1.9,91.7z"/>
<path class="st0" d="M146.6,22.6l57.6,38.7c3.5,2.4,6.1,5.9,7.2,10l24.7,87.4c1,3.4,0.9,7.1-0.2,10.4L209.3,250
	c-1,3.1-3.3,5.8-6.2,7.3l-32.9,16.8c-2.2,1.1-4.8,1.2-7.1,0.1l-23.9-11.5c-0.9-0.4-1.4-1.4-1.2-2.4c0.1-0.3,7.1-34.5,9.5-46.2
	c0.4-2,0.6-4,0.5-6.1l-3.1-55.7c-0.2-2.9-1.1-5.7-2.6-8.2L103,82.3c-1-1.6-0.5-3.7,1.1-4.7c0,0,0,0,0,0L135.8,58
	c4.6-2.8,7.4-7.9,7.3-13.3l-0.3-20.1c0-1.4,1.1-2.5,2.4-2.5C145.7,22.1,146.2,22.3,146.6,22.6z"/>
</svg>
