<svg id="Calque_1" data-name="Calque 1" xmlns="http://www.w3.org/2000/svg" viewBox="0 0 170.67 274.76"><defs><style>.cls-1{fill:#dfdfe0;}.cls-2{fill:blue;}</style></defs><title>Plan de travail 1 copie 7</title><rect x="-53.55" y="-8.06" width="256" height="293"/><path class="cls-1" d="M2.33,98.08l-.8,103.24s63.92,32.62,65.92,31.62,36-29,36-29l-4-84,38-60-30-22h-45l-46,40Z"/><path class="cls-2" d="M83.05,2.13l-59.9,30A6.23,6.23,0,0,0,20,35.94L2.46,97.16a3.44,3.44,0,0,0,3.11,4.38l29.92,1.71a3.91,3.91,0,0,0,4.08-3.33l3.94-26.36a6.27,6.27,0,0,1,2.9-4.39L82.84,46.78a6.21,6.21,0,0,1,5.47-.51L113.86,56a6.23,6.23,0,0,1,3.76,4l4.69,15.64a6.2,6.2,0,0,1-1,5.51L80.4,136.06a6.24,6.24,0,0,0-1.21,4.3l5.94,63.35a6.22,6.22,0,0,1-2.28,5.43L67,222a6.24,6.24,0,0,1-7.56.21l-24.1-17.38A6.19,6.19,0,0,1,33,201.37l-4.16-15.23A4.41,4.41,0,0,0,22,183.7L4.16,196.36a6.22,6.22,0,0,0-2.61,5.56l2.74,35.69a6.26,6.26,0,0,0,2.57,4.57l41.81,30.14a6.19,6.19,0,0,0,4.95,1l35.15-7.6a6.19,6.19,0,0,0,3.44-2.07l26.33-31.21a6.18,6.18,0,0,0,1.47-3.92l1-64.9a12.59,12.59,0,0,1,1.45-5.67l45.69-86.3a6.25,6.25,0,0,0,.12-5.59L149.13,25.91a6.25,6.25,0,0,0-3.5-3.18L88,1.85A6.26,6.26,0,0,0,83.05,2.13Z"/></svg>