<?xml version="1.0" encoding="utf-8"?>
<!-- Generator: Adobe Illustrator 22.0.0, SVG Export Plug-In . SVG Version: 6.00 Build 0)  -->
<svg version="1.1" id="Calque_1" xmlns="http://www.w3.org/2000/svg" xmlns:xlink="http://www.w3.org/1999/xlink" x="0px" y="0px"
	 viewBox="0 0 195.5 283.5" style="enable-background:new 0 0 195.5 283.5;" xml:space="preserve">
<style type="text/css">
	.st0{fill:#FFFFFF;}
</style>
<g>
	<path class="st0" d="M74.7,281.8c-6.6,0-13.7-1.2-21.2-4.1c-0.6-0.2-12.7-5.1-24.1-16.1c-15.5-14.9-22.4-33.9-20-54.9
		c0.4-3.5,3.5-6,7-5.6c3.5,0.4,6,3.5,5.6,7c-4.7,41.1,35.7,57.6,36.1,57.8c13.6,5.2,27.3,4,40.7-3.7c11.1-6.5,18.6-15.6,20.7-18.3
		c0.4-0.6,0.8-1.1,1.1-1.6c12.2-20.8,5.7-54.2,4.2-60.7c-0.2-1.1-0.6-2.8-0.7-4.7c-0.5-12.6,7.7-24.6,11.2-29.2
		c0.6-0.8,1.3-1.6,2-2.3c43.7-45.9,37-71.9,36.1-74.7c-0.2-0.6-0.4-1.3-0.6-2c-14.7-57.3-69.4-54.1-71.8-53.9
		c-34.7,2.4-58.4,17.4-70.5,44.5c-9.2,20.5-8,40.4-8,40.6c0.2,3.5-2.4,6.5-5.9,6.7c-3.5,0.2-6.5-2.4-6.7-5.9
		C9.8,99.8,8.6,77.5,19,54.2c9.7-21.8,31.7-48.5,81.2-52c0.7,0,17.1-1.2,35.8,6c17.4,6.7,40.1,22.1,49.1,57.4
		c0.1,0.4,0.2,0.8,0.4,1.2c1.1,3.4,3.2,12.9-1,27.9c-5.2,18.5-18,38.5-38,59.5c-0.4,0.4-0.8,0.9-1.1,1.3c-4.3,5.6-8.8,14-8.5,20.9
		c0,0.7,0.1,1.4,0.4,2.4c2.3,10.3,8.6,45.6-5.7,69.8c-0.6,1-1.2,1.9-2,2.9C125,257.4,104.5,281.8,74.7,281.8z"/>
</g>
<g>
	<path class="st0" d="M78.2,230.6c-6.2,0-15.7-1.3-23.8-7.8c-9.5-7.6-14.5-20-14.9-36.8c-0.1-3.5,2.7-6.4,6.2-6.5
		c3.5-0.1,6.4,2.7,6.5,6.2c0.3,12.9,3.7,22,10.2,27.2c8.5,6.8,20.1,4.7,20.3,4.7l0.4-0.1c7.5-1,11.4-8,11.5-20.7
		c0-4.6-0.6-9.6-2.1-15.2c-2.8-10.9-2.3-25.9-2.2-28.5c-0.7-14.8,24-35.6,31.9-41.9c17.7-15.3,10.3-30.6,10-31.3
		c-10.5-20.1-33-18.8-34-18.7l-0.3,0c-11.9,0.3-21.2,3.9-27.8,10.9c-12.1,12.9-11.4,32.9-11.4,33.1c0.1,3.5-2.6,6.4-6.1,6.6
		c-3.5,0.1-6.4-2.6-6.6-6.1c0-1-0.9-25.5,14.8-42.3C69.5,54,81.8,49,97.2,48.6c3-0.2,32-1.2,46,25.6c4.5,8.5,7.5,29.2-13.1,46.8
		l-0.2,0.2c-14.9,11.8-27.6,26.5-27.2,31.4l0,0.4l0,0.4c0,0.1-0.8,15.2,1.8,25c1.7,6.7,2.5,12.7,2.5,18.5c-0.2,26.1-14,32-22.3,33.2
		C84,230.2,81.6,230.6,78.2,230.6z"/>
</g>
</svg>
