<svg xmlns="http://www.w3.org/2000/svg" xmlns:xlink="http://www.w3.org/1999/xlink" xml:space="preserve" style="shape-rendering:geometricPrecision;text-rendering:geometricPrecision;image-rendering:optimizeQuality;" viewBox="0 0 6827 8533.75" x="0px" y="0px" fill-rule="evenodd" clip-rule="evenodd"><defs><style type="text/css">
   
    .fil2 {fill:none}
    .fil1 {fill:black}
    .fil0 {fill:black;fill-rule:nonzero}
   
  </style></defs><g><g><path class="fil0" d="M2725 5912c-2,1 -672,261 -1212,-1122 -42,-108 -61,-136 -114,-216 -14,-21 -13,-19 -23,-35 -486,-730 -373,-1462 -32,-1973 146,-219 334,-398 534,-519 204,-124 423,-188 627,-177 303,17 568,199 700,599l0 0c116,327 -51,567 -229,820 -248,355 -519,742 164,1476l15 24c1,2 365,831 -430,1122z"/><path class="fil0" d="M2358 1051c58,-97 143,-157 240,-157 97,0 182,60 240,157 51,84 82,199 82,324 0,125 -31,239 -82,324 -58,97 -143,157 -240,157 -97,0 -182,-60 -240,-157 -51,-84 -82,-199 -82,-324 0,-125 31,-239 82,-324z"/><path class="fil0" d="M1783 1279c46,-77 114,-125 193,-125 79,0 147,48 193,125 39,64 63,151 63,246 0,94 -24,182 -63,246 -46,77 -114,125 -193,125 -79,0 -147,-48 -193,-125 -39,-64 -63,-151 -63,-246 0,-94 24,-182 63,-246z"/><path class="fil0" d="M1361 1675c42,-69 103,-112 174,-112 71,0 133,43 174,112 34,56 55,133 55,215 0,82 -21,158 -55,215 -42,69 -103,112 -174,112 -71,0 -133,-43 -174,-112 -34,-56 -55,-133 -55,-215 0,-82 21,-158 55,-215z"/><path class="fil0" d="M1051 2119c34,-56 85,-91 144,-91 60,0 110,35 144,91 26,44 42,102 42,165 0,63 -16,121 -42,164 -34,56 -85,91 -144,91 -60,0 -110,-35 -144,-91 -26,-44 -42,-102 -42,-164 0,-63 16,-121 42,-165z"/><path class="fil1" d="M939 2540c-48,0 -86,64 -86,143 0,79 39,143 86,143 48,0 86,-64 86,-143 0,-79 -39,-143 -86,-143z"/><path class="fil0" d="M5314 4790c-540,1383 -1210,1123 -1212,1122 -795,-290 -431,-1119 -430,-1122l15 -24c130,-140 226,-267 295,-383 22,-37 41,-73 57,-108l351 0c103,0 186,-83 186,-186 0,-232 47,-1421 -66,-1510 -2,-1 -3,-3 -5,-4l-81 -64 0 0 -368 -290c-68,-54 -164,-57 -233,-3l-80 63 0 0 -68 53c143,-308 381,-451 648,-466 204,-12 423,53 627,177 201,121 388,300 534,519 341,512 454,1243 -32,1973 -10,15 -9,13 -23,35 -54,80 -72,108 -114,216z"/><path class="fil0" d="M4229 894c97,0 182,60 240,157 51,84 82,199 82,324 0,125 -31,239 -82,324 -58,97 -143,157 -240,157 -97,0 -182,-60 -240,-157 -51,-84 -82,-199 -82,-324 0,-125 31,-239 82,-324 58,-97 143,-157 240,-157z"/><path class="fil0" d="M4850 1154c79,0 147,48 193,125 39,64 63,151 63,246 0,94 -24,182 -63,246 -46,77 -114,125 -193,125 -79,0 -147,-48 -193,-125 -39,-64 -63,-151 -63,-246 0,-94 24,-182 63,-246 46,-77 114,-125 193,-125z"/><path class="fil0" d="M5292 1563c71,0 133,43 174,112 34,56 55,133 55,215 0,82 -21,158 -55,215 -42,69 -103,112 -174,112 -71,0 -133,-43 -174,-112 -34,-56 -55,-133 -55,-215 0,-82 21,-158 55,-215 42,-69 103,-112 174,-112z"/><path class="fil0" d="M5631 2028c60,0 110,35 144,91 26,44 42,102 42,165 0,63 -16,121 -42,164 -34,56 -85,91 -144,91 -60,0 -110,-35 -144,-91 -26,-44 -42,-102 -42,-164 0,-63 16,-121 42,-165 34,-56 85,-91 144,-91z"/><path class="fil1" d="M5887 2540c48,0 86,64 86,143 0,79 -39,143 -86,143 -48,0 -86,-64 -86,-143 0,-79 39,-143 86,-143z"/><path class="fil1" d="M3885 2305l-449 354c-21,15 -35,40 -35,67l0 1368c0,46 37,83 83,83l904 0c46,0 83,-37 83,-83l0 -1367c0,-25 -11,-49 -31,-65l0 0 -449 -353c-29,-26 -74,-28 -106,-3l0 0zm138 381l0 0zm-173 0c22,-22 54,-36 87,-36 34,0 64,14 86,36l0 0c48,49 48,125 0,173l0 0c-6,5 -11,10 -18,14l-1 1c-17,11 -37,18 -56,20l0 0 0 0 0 0 0 0 0 0 0 0 0 0 0 0 0 0 0 0 0 0 0 0 0 0 0 0 0 0 0 0 0 0c-35,3 -71,-9 -97,-35 -48,-48 -48,-126 0,-173z"/></g></g><rect class="fil2" width="6827" height="6827"/><text x="0" y="6842" fill="#000000" font-size="5px" font-weight="bold" font-family="'Helvetica Neue', Helvetica, Arial-Unicode, Arial, Sans-serif">Created by IYIKON</text><text x="0" y="6847" fill="#000000" font-size="5px" font-weight="bold" font-family="'Helvetica Neue', Helvetica, Arial-Unicode, Arial, Sans-serif">from the Noun Project</text></svg>