<?xml version="1.0" encoding="utf-8"?>
<!-- Generator: Adobe Illustrator 22.0.0, SVG Export Plug-In . SVG Version: 6.00 Build 0)  -->
<svg version="1.1" id="Calque_1" xmlns="http://www.w3.org/2000/svg" xmlns:xlink="http://www.w3.org/1999/xlink" x="0px" y="0px"
	 viewBox="0 0 280.5 522" style="enable-background:new 0 0 280.5 522;" xml:space="preserve">
<style type="text/css">
	.st0{display:none;}
	.st1{display:inline;fill:#FFFFFF;}
	.st2{fill:none;stroke:#FF4700;stroke-width:4;stroke-miterlimit:10;}
	.st3{fill:none;stroke:#FF4700;stroke-miterlimit:10;}
	.st4{fill:#FF4700;}
	.st5{fill:none;stroke:#FF4700;stroke-width:1.5;stroke-miterlimit:10;}
	.st6{fill:#FF4700;stroke:#FF4700;stroke-miterlimit:10;}
	.st7{fill:none;stroke:#FF4700;stroke-width:1.5;stroke-miterlimit:10;stroke-dasharray:13.7026,1.827;}
	.st8{fill:none;stroke:#FF4700;stroke-width:1.5;stroke-miterlimit:10;stroke-dasharray:9.7848,1.957;}
	.st9{fill:none;stroke:#FF4700;stroke-width:1.5;stroke-miterlimit:10;stroke-dasharray:9.1188,1.8238;}
	.st10{fill:none;stroke:#FF4700;stroke-width:1.5;stroke-miterlimit:10;stroke-dasharray:9.1848,1.837;}
	.st11{fill:none;stroke:#FF4700;stroke-miterlimit:10;stroke-dasharray:9.1188,1.8238;}
</style>
<g id="Calque_2_1_" class="st0">
	<rect x="3.9" y="107.2" class="st1" width="37" height="34.6"/>
	<rect x="3.9" y="141.9" class="st1" width="37" height="34.6"/>
	<rect x="40.3" y="141.9" class="st1" width="34.6" height="34.6"/>
	<rect x="4" y="3.4" class="st1" width="277" height="34.6"/>
	<rect x="4" y="38" class="st1" width="277" height="34.6"/>
	<rect x="4" y="72.6" class="st1" width="105.3" height="34.6"/>
	<rect x="109.2" y="72.6" class="st1" width="105.3" height="34.6"/>
	<rect x="109.2" y="107.2" class="st1" width="34.6" height="34.6"/>
	<rect x="109.2" y="141.5" class="st1" width="34.6" height="34.6"/>
	<rect x="213.8" y="141.5" class="st1" width="34.6" height="34.6"/>
	<rect x="213.8" y="176.2" class="st1" width="34.6" height="34.6"/>
	<rect x="178.6" y="176.2" class="st1" width="34.6" height="34.6"/>
	<rect x="109.5" y="176.2" class="st1" width="34.6" height="34.6"/>
	<rect x="109.5" y="210.9" class="st1" width="34.6" height="34.6"/>
	<rect x="143.9" y="210.9" class="st1" width="34.6" height="34.6"/>
	<rect x="213.2" y="210.9" class="st1" width="34.6" height="34.6"/>
	<rect x="213.2" y="243.5" class="st1" width="34.6" height="34.6"/>
	<rect x="213.2" y="275.9" class="st1" width="34.6" height="34.6"/>
	<rect x="109.1" y="275.9" class="st1" width="34.6" height="34.6"/>
	<rect x="75.2" y="275.9" class="st1" width="34.6" height="34.6"/>
	<rect x="213.4" y="345.4" class="st1" width="34.6" height="34.6"/>
	<rect x="213.4" y="381.6" class="st1" width="34.6" height="34.6"/>
	<rect x="143.9" y="345.4" class="st1" width="34.6" height="34.6"/>
	<rect x="110.1" y="345.4" class="st1" width="34.6" height="34.6"/>
	<rect x="110.1" y="415.3" class="st1" width="34.6" height="34.6"/>
	<rect x="178.7" y="415.3" class="st1" width="34.6" height="34.6"/>
	<rect x="178.7" y="450.3" class="st1" width="34.6" height="34.6"/>
	<rect x="144.6" y="450.3" class="st1" width="34.6" height="34.6"/>
	<rect x="109.6" y="450.3" class="st1" width="34.6" height="34.6"/>
	<rect x="75.3" y="415.1" class="st1" width="34.6" height="34.6"/>
	<rect x="3.7" y="310.5" class="st1" width="277.3" height="34.6"/>
	<rect x="3.7" y="485.8" class="st1" width="277.3" height="34.6"/>
	<rect x="109.1" y="245.7" class="st1" width="34.6" height="34.6"/>
	<rect x="76" y="245.7" class="st1" width="33.1" height="30.2"/>
	<rect x="143.9" y="107.2" class="st1" width="34.6" height="34.6"/>
	<rect x="179.1" y="107.2" class="st1" width="34.6" height="34.6"/>
	<rect x="76.1" y="175.5" class="st1" width="33.2" height="34.6"/>
	<rect x="214.2" y="72.6" class="st1" width="67.2" height="34.6"/>
</g>
<g id="Calque_1_1_">
	<rect x="2" y="1.4" class="st2" width="276.9" height="517.4"/>
	<line class="st2" x1="107.3" y1="309.2" x2="107.3" y2="70.6"/>
	<line class="st2" x1="212.2" y1="309.2" x2="212.2" y2="70.6"/>
	<line class="st3" x1="176.6" y1="309.2" x2="176.6" y2="105.2"/>
	<line class="st3" x1="246" y1="309.2" x2="246" y2="105.2"/>
	<line class="st3" x1="141.9" y1="309.2" x2="141.9" y2="105.2"/>
	<line class="st3" x1="73.5" y1="309.2" x2="73.5" y2="105.2"/>
	<line class="st3" x1="38.8" y1="309.2" x2="38.8" y2="105.2"/>
	<line class="st3" x1="73.5" y1="482.6" x2="73.5" y2="346"/>
	<line class="st3" x1="38.8" y1="482.6" x2="38.8" y2="346"/>
	<line class="st3" x1="141.9" y1="482.6" x2="141.9" y2="346"/>
	<line class="st2" x1="107.3" y1="482.6" x2="107.3" y2="346"/>
	<line class="st2" x1="211.3" y1="482.6" x2="211.3" y2="346"/>
	<line class="st3" x1="246" y1="482.6" x2="246" y2="346"/>
	<line class="st3" x1="176.6" y1="482.6" x2="176.6" y2="346"/>
	<line class="st2" x1="2" y1="36" x2="279" y2="36"/>
	<line class="st2" x1="2" y1="70.6" x2="279" y2="70.6"/>
	<line class="st2" x1="2" y1="105.2" x2="279" y2="105.2"/>
	<line class="st2" x1="2" y1="139.8" x2="279" y2="139.8"/>
	<line class="st2" x1="2" y1="174.4" x2="279" y2="174.4"/>
	<line class="st2" x1="2" y1="209" x2="279" y2="209"/>
	<line class="st2" x1="2" y1="243.7" x2="279" y2="243.7"/>
	<line class="st2" x1="2" y1="275.5" x2="279" y2="275.5"/>
	<line class="st2" x1="2" y1="309.2" x2="279" y2="309.2"/>
	<line class="st2" x1="2" y1="343.8" x2="279" y2="343.8"/>
	<line class="st2" x1="2" y1="378.5" x2="279" y2="378.5"/>
	<line class="st2" x1="2" y1="413.2" x2="279" y2="413.2"/>
	<line class="st2" x1="2" y1="447.9" x2="279" y2="447.9"/>
	<line class="st2" x1="2" y1="482.6" x2="279" y2="482.6"/>
	<g>
		<path class="st4" d="M98.1,10.9h2.5v14.3h-2.5V10.9z"/>
		<path class="st4" d="M117.6,18.1c0,4.3-2.9,7.4-7.2,7.4c-4.3,0-7.2-3.1-7.2-7.4s2.9-7.4,7.2-7.4C114.7,10.7,117.6,13.8,117.6,18.1
			z M105.8,18.1c0,3,1.7,5.3,4.6,5.3s4.6-2.2,4.6-5.3s-1.7-5.2-4.6-5.2C107.5,12.8,105.8,15.1,105.8,18.1z"/>
		<path class="st4" d="M120.2,10.9h8.5v2.3h-5.9v3.7h5.5v2.2h-5.5v6.1h-2.5V10.9H120.2z"/>
		<path class="st4" d="M135.7,10.9h8.8v2.3h-6.3v3.6h5.8V19h-5.8v3.9h6.4v2.2h-8.9V10.9z"/>
		<path class="st4" d="M145.7,14.7h2.7l1.4,4.2c0.4,1.2,0.7,1.9,1.2,3.4l0,0c0.4-1.5,0.7-2,1.2-3.7l1.3-3.9h2.6l-4,10.5h-2.3
			C148.4,21.8,147,18.1,145.7,14.7z"/>
		<path class="st4" d="M159.1,20.6c0.2,1.7,1.3,3,3,3c1.2,0,2-0.5,2.4-1.3h2.5c-0.6,1.9-2.4,3.3-4.9,3.3c-3.3,0-5.4-2.3-5.4-5.6
			c0-3.2,2.2-5.6,5.4-5.6c3.4,0,5.1,2.5,5.1,5.6c0,0.4,0,0.6,0,0.7L159.1,20.6z M164.7,18.8c-0.2-1.4-1.2-2.6-2.7-2.6
			s-2.6,0.9-2.8,2.6H164.7z"/>
		<path class="st4" d="M171.5,15.4c0,0.2,0,0.4,0,0.7l0,0c0.6-1,1.7-1.7,3.3-1.7c2.4,0,3.8,1.6,3.8,4.3v6.5h-2.4v-5.4
			c0-2.1-0.5-3.4-2.1-3.4c-1.7,0-2.4,1.3-2.4,2.9v5.9h-2.4v-8.9c0-0.5,0-1.1,0-1.6h2.3L171.5,15.4L171.5,15.4z"/>
		<path class="st4" d="M184.2,14.7h2v1.8h-2v5.7c0,1,0.5,1.3,1.3,1.3c0.2,0,0.4,0,0.5,0v1.8c-0.2,0-0.5,0.1-0.9,0.1
			c-2,0-3.3-0.6-3.3-2.7v-6.2h-1.6v-1.8h1.6v-2.8h2.4V14.7z"/>
	</g>
	<g>
		<path class="st4" d="M60.5,44.6h4l2.6,7.6c0.3,1,0.8,2.5,1.2,3.7l0,0c0.4-1.2,1-2.9,1.3-3.9l2.5-7.5H76v14.3h-2.5v-7.3
			c0-1.5,0-3.7,0-4.9l0,0c-0.2,0.7-0.9,2.7-1.5,4.7l-2.5,7.4H67l-3-8.9c-0.5-1.4-0.7-2.4-1-3.3l0,0c0,1.2,0,2.8,0,4.8v7.5h-2.5V44.6
			z"/>
		<path class="st4" d="M88.7,56h-1.9v2.9h-2.3V56H78v-2l4.3-6.2c0.8-1.2,2.2-3.2,2.2-3.3h2.2v9.3h1.9V56H88.7z M84.5,47.8
			c-0.2,0.3-0.9,1.6-1.6,2.5L82,51.7c-0.7,1-1.5,2.2-1.5,2.2h4v-3.5C84.5,49.6,84.6,48.5,84.5,47.8L84.5,47.8z"/>
		<path class="st4" d="M91.6,44.6h7.6v2.2h-5.6c-0.1,0.7-0.2,1.4-0.3,2.2l-0.2,1.1c0.7-0.4,1.5-0.7,2.5-0.7c2.7,0,4.5,2,4.5,4.8
			c0,2.9-2,5-5,5c-2.8,0-4.7-1.7-5-4.2h2.5c0.2,1.2,1,2.1,2.4,2.1c1.7,0,2.6-1.2,2.6-2.9c0-1.5-1-2.8-2.6-2.8
			c-1.1,0-1.8,0.5-2.1,1.2c-0.8-0.1-1.5-0.3-2.2-0.4C91.1,49.7,91.3,47.3,91.6,44.6z"/>
		<path class="st4" d="M103.5,61.4h-2.2l1.4-5.1h2.5L103.5,61.4z"/>
		<path class="st4" d="M113.1,44.6h4l2.6,7.6c0.3,1,0.8,2.5,1.2,3.7l0,0c0.4-1.2,1-2.9,1.3-3.9l2.5-7.5h3.9v14.3h-2.5v-7.3
			c0-1.5,0-3.7,0-4.9l0,0c-0.2,0.7-0.9,2.7-1.5,4.7l-2.5,7.4h-2.6l-3-8.9c-0.5-1.4-0.7-2.4-1-3.3l0,0c0,1.2,0,2.8,0,4.8v7.5H113
			V44.6H113.1z"/>
		<path class="st4" d="M132.5,44.6h7.6v2.2h-5.6c-0.1,0.7-0.2,1.4-0.3,2.2l-0.2,1.1c0.7-0.4,1.5-0.7,2.5-0.7c2.7,0,4.5,2,4.5,4.8
			c0,2.9-2,5-5,5c-2.8,0-4.7-1.7-5-4.2h2.5c0.2,1.2,1,2.1,2.4,2.1c1.7,0,2.6-1.2,2.6-2.9c0-1.5-1-2.8-2.6-2.8
			c-1.1,0-1.8,0.5-2.1,1.2c-0.8-0.1-1.5-0.3-2.2-0.4C131.9,49.7,132.2,47.3,132.5,44.6z"/>
		<path class="st4" d="M152.8,51.8c0,4.2-1,7.4-5,7.4s-5-3.2-5-7.4c0-3.8,0.9-7.5,5-7.5S152.8,48,152.8,51.8z M145.4,51.8
			c0,3.1,0.5,5.3,2.4,5.3s2.4-2.2,2.4-5.3c0-2.8-0.4-5.2-2.4-5.2S145.4,49,145.4,51.8z"/>
		<path class="st4" d="M160.3,44.6h4l2.6,7.6c0.3,1,0.8,2.5,1.2,3.7l0,0c0.4-1.2,1-2.9,1.3-3.9l2.5-7.5h3.9v14.3h-2.5v-7.3
			c0-1.5,0-3.7,0-4.9l0,0c-0.2,0.7-0.9,2.7-1.5,4.7l-2.5,7.4h-2.5l-3-8.9c-0.5-1.4-0.7-2.4-1-3.3l0,0c0,1.2,0,2.8,0,4.8v7.5h-2.5
			V44.6z"/>
		<path class="st4" d="M197.4,58.9h-3.3l-1.8-8.4c-0.4-1.7-0.4-2.1-0.7-3.7l0,0c-0.3,1.6-0.4,2-0.7,3.7l-1.8,8.4h-3.5l-3-14.3h2.7
			l1.5,8.3c0.3,1.7,0.4,1.9,0.6,3.6h0.1c0.3-1.7,0.3-2,0.7-3.6l1.9-8.3h3.4l1.8,8.2c0.4,1.6,0.5,2.2,0.7,3.7l0,0
			c0.2-1.5,0.3-2,0.7-3.7l1.6-8.2h2.5L197.4,58.9z"/>
		<path class="st4" d="M202.1,58.9v-2.1c0,0,2.6-2.3,4.2-3.9c1.8-1.7,2.6-2.8,2.6-4.2c0-1.3-0.8-2.2-2.2-2.2c-1.6,0-2.3,1.1-2.3,2.7
			H202c0-0.1,0-0.1,0-0.1c0-2.6,1.7-4.7,4.7-4.7s4.7,1.9,4.7,4.4c0,3.6-4,6-6.2,8.1h6.2V59h-9.3V58.9z"/>
		<path class="st4" d="M218.3,48.7h-3.4v-1.9c2.5-0.1,3.5-0.6,3.7-2.2h2.2v14.3h-2.5L218.3,48.7L218.3,48.7z"/>
	</g>
	<g>
		<path class="st4" d="M51.1,79.5h7.6v2.2h-5.6c-0.1,0.7-0.2,1.4-0.3,2.2L52.6,85c0.7-0.4,1.5-0.7,2.5-0.7c2.7,0,4.5,2,4.5,4.8
			c0,2.9-2,5-5,5c-2.8,0-4.7-1.7-5-4.2h2.5c0.2,1.2,1,2.1,2.4,2.1c1.7,0,2.6-1.2,2.6-2.9c0-1.5-1-2.8-2.6-2.8
			c-1.1,0-1.8,0.5-2.1,1.2c-0.8-0.1-1.5-0.3-2.2-0.4C50.5,84.6,50.8,82.1,51.1,79.5z"/>
	</g>
	<g>
		<path class="st4" d="M20.2,152.7h-3.4v-1.9c2.5-0.1,3.5-0.6,3.7-2.2h2.2v14.3h-2.5V152.7z"/>
	</g>
	<g>
		<path class="st4" d="M15.8,197.4v-2.1c0,0,2.6-2.3,4.2-3.9c1.8-1.7,2.6-2.8,2.6-4.2c0-1.3-0.8-2.2-2.2-2.2c-1.6,0-2.3,1.1-2.3,2.7
			h-2.4c0-0.1,0-0.1,0-0.1c0-2.6,1.7-4.7,4.7-4.7s4.7,1.9,4.7,4.4c0,3.6-4,6-6.2,8.1h6.2v2.1h-9.3V197.4z"/>
	</g>
	<g>
		<path class="st4" d="M17.8,229.4c0.2,1.4,1,2.3,2.5,2.3s2.4-1.1,2.4-2.5c0-1.7-1.3-2.5-2.9-2.5h-0.6v-2c1.6,0,2.8-0.5,2.8-2
			c0-1.2-0.8-1.7-1.8-1.7s-1.8,0.6-1.9,1.8H16c0.1-2.2,1.7-3.8,4.3-3.8s4.2,1.5,4.2,3.7c0,1.3-0.8,2.4-1.9,3
			c1.7,0.6,2.6,1.9,2.6,3.7c0,2.6-1.9,4.5-5,4.5c-3,0-4.7-1.9-4.9-4.4h2.5V229.4z"/>
	</g>
	<g>
		<path class="st4" d="M25.6,263.6h-1.9v2.9h-2.2v-2.9H15v-2l4.3-6.2c0.8-1.2,2.2-3.2,2.2-3.3h2.2v9.3h1.9L25.6,263.6L25.6,263.6z
			 M21.5,255.4c-0.2,0.3-0.9,1.6-1.6,2.5l-0.9,1.4c-0.7,1-1.5,2.2-1.5,2.2h4V258C21.5,257.2,21.5,256.1,21.5,255.4L21.5,255.4z"/>
	</g>
	<g>
		<path class="st4" d="M16.8,286.4h7.6v2.2h-5.6c-0.1,0.7-0.2,1.4-0.3,2.2l-0.2,1.1c0.7-0.4,1.5-0.7,2.5-0.7c2.7,0,4.5,2,4.5,4.8
			c0,2.9-2,5-5,5c-2.8,0-4.7-1.7-5-4.2h2.5c0.2,1.2,1,2.1,2.4,2.1c1.7,0,2.6-1.2,2.6-2.9c0-1.5-1-2.8-2.6-2.8
			c-1.1,0-1.8,0.5-2.1,1.2c-0.8-0.1-1.5-0.3-2.2-0.4C16.3,291.5,16.5,289,16.8,286.4z"/>
	</g>
	<g>
		<path class="st4" d="M44.9,154.3h-3.1v-1.7c2.2-0.1,3.2-0.5,3.4-2h2v12.9h-2.3L44.9,154.3L44.9,154.3z"/>
		<path class="st4" d="M60.2,157.1c0,3.8-0.9,6.7-4.5,6.7s-4.5-2.9-4.5-6.7c0-3.4,0.8-6.7,4.5-6.7S60.2,153.7,60.2,157.1z
			 M53.5,157.1c0,2.8,0.4,4.8,2.1,4.8c1.7,0,2.1-2,2.1-4.8c0-2.5-0.3-4.7-2.1-4.7S53.5,154.6,53.5,157.1z"/>
		<path class="st4" d="M66,154.3h-3.1v-1.7c2.2-0.1,3.2-0.5,3.4-2h2v12.9H66L66,154.3L66,154.3z"/>
	</g>
	<g>
		<path class="st4" d="M41.3,196.9V195c0,0,2.3-2.1,3.8-3.5c1.6-1.5,2.3-2.5,2.3-3.8c0-1.2-0.7-2-2-2c-1.4,0-2.1,1-2.1,2.4h-2.1
			c0-0.1,0-0.1,0-0.1c0-2.3,1.5-4.2,4.3-4.2c2.7,0,4.3,1.7,4.3,3.9c0,3.3-3.6,5.4-5.5,7.3h5.5v1.9L41.3,196.9L41.3,196.9z"/>
		<path class="st4" d="M60.3,194.3h-1.7v2.6h-2v-2.6h-5.8v-1.8l3.9-5.5c0.7-1.1,2-2.9,2-2.9h2v8.4h1.7L60.3,194.3L60.3,194.3z
			 M56.6,186.9c-0.1,0.2-0.8,1.4-1.4,2.3l-0.8,1.2c-0.6,0.9-1.4,2-1.4,2h3.6v-3.2C56.6,188.5,56.6,187.5,56.6,186.9L56.6,186.9z"/>
		<path class="st4" d="M61.6,196.9V195c0,0,2.3-2.1,3.8-3.5c1.6-1.5,2.3-2.5,2.3-3.8c0-1.2-0.7-2-2-2c-1.4,0-2.1,1-2.1,2.4h-2.1
			c0-0.1,0-0.1,0-0.1c0-2.3,1.5-4.2,4.3-4.2c2.7,0,4.3,1.7,4.3,3.9c0,3.3-3.6,5.4-5.5,7.3h5.5v1.9L61.6,196.9L61.6,196.9z"/>
	</g>
	<g>
		<path class="st4" d="M43.9,222.9h-3.1v-1.7c2.2-0.1,3.2-0.5,3.4-2h2v12.9h-2.3L43.9,222.9L43.9,222.9z"/>
		<path class="st4" d="M52.3,228.4c0.1,1.2,0.9,2.1,2.3,2.1c1.4,0,2.2-1,2.2-2.2c0-1.6-1.2-2.2-2.6-2.2h-0.5v-1.8
			c1.4,0,2.5-0.4,2.5-1.8c0-1.1-0.8-1.6-1.7-1.6s-1.6,0.6-1.7,1.6h-2.1c0.1-2,1.5-3.5,3.9-3.5c2.3,0,3.8,1.4,3.8,3.4
			c0,1.2-0.7,2.1-1.7,2.7c1.5,0.5,2.4,1.7,2.4,3.3c0,2.4-1.7,4-4.5,4c-2.7,0-4.3-1.7-4.4-3.9h2.1V228.4z"/>
		<path class="st4" d="M62,219.2h6.8v2h-5c-0.1,0.6-0.1,1.3-0.2,1.9l-0.1,1c0.6-0.4,1.3-0.7,2.2-0.7c2.4,0,4.1,1.8,4.1,4.3
			c0,2.6-1.8,4.5-4.5,4.5c-2.5,0-4.2-1.6-4.5-3.8H63c0.2,1.1,0.9,1.9,2.2,1.9c1.5,0,2.3-1.1,2.3-2.6c0-1.4-0.9-2.5-2.3-2.5
			c-1,0-1.6,0.5-1.9,1.1c-0.7-0.1-1.3-0.2-2-0.3C61.5,223.8,61.7,221.6,62,219.2z"/>
	</g>
	<g>
		<path class="st4" d="M40.3,265v-1.9c0,0,2.3-2.1,3.8-3.5c1.6-1.5,2.3-2.5,2.3-3.8c0-1.2-0.7-2-2-2c-1.4,0-2.1,1-2.1,2.4h-2.1
			c0-0.1,0-0.1,0-0.1c0-2.3,1.5-4.2,4.3-4.2c2.7,0,4.3,1.7,4.3,3.9c0,3.3-3.6,5.4-5.5,7.3h5.5v1.9L40.3,265L40.3,265z"/>
		<path class="st4" d="M59.3,262.4h-1.7v2.6h-2v-2.6h-5.8v-1.8l3.9-5.5c0.7-1.1,2-2.9,2-2.9h2v8.4h1.7L59.3,262.4L59.3,262.4z
			 M55.6,255.1c-0.1,0.2-0.8,1.4-1.4,2.3l-0.8,1.2c-0.6,0.9-1.4,2-1.4,2h3.6v-3.2C55.6,256.7,55.6,255.7,55.6,255.1L55.6,255.1z"/>
		<path class="st4" d="M67.1,255.5c-0.1-0.8-0.8-1.7-2-1.7c-1.8,0-2.6,1.8-2.6,3.9l0,0c0.5-0.5,1.4-1.1,2.9-1.1
			c2.4,0,4.1,1.7,4.1,4.3s-1.8,4.4-4.5,4.4c-3.1,0-4.7-2.2-4.7-6.2c0-4.6,1.5-7.2,4.8-7.2c2.4,0,3.9,1.5,4.2,3.6L67.1,255.5
			L67.1,255.5z M62.6,260.9c0,1.4,1,2.4,2.3,2.4s2.3-1,2.3-2.4s-1-2.4-2.3-2.4S62.6,259.4,62.6,260.9z"/>
	</g>
	<g>
		<path class="st4" d="M43.9,289.1h-3.1v-1.7c2.2-0.1,3.2-0.5,3.4-2h2v12.9h-2.3L43.9,289.1L43.9,289.1z"/>
		<path class="st4" d="M56.9,288.7c-0.1-0.8-0.8-1.7-2-1.7c-1.8,0-2.6,1.8-2.6,3.9l0,0c0.5-0.5,1.4-1.1,2.9-1.1
			c2.4,0,4.1,1.7,4.1,4.3s-1.8,4.4-4.5,4.4c-3.1,0-4.7-2.2-4.7-6.2c0-4.6,1.5-7.2,4.8-7.2c2.4,0,3.9,1.5,4.2,3.6L56.9,288.7
			L56.9,288.7z M52.5,294.1c0,1.4,1,2.4,2.3,2.4s2.3-1,2.3-2.4s-1-2.4-2.3-2.4C53.4,291.7,52.5,292.7,52.5,294.1z"/>
		<path class="st4" d="M69.9,295.6h-1.7v2.6h-2v-2.6h-5.8v-1.8l3.9-5.5c0.7-1.1,2-2.9,2-2.9h2v8.4H70L69.9,295.6L69.9,295.6z
			 M66.2,288.3c-0.1,0.2-0.8,1.4-1.4,2.3l-0.8,1.2c-0.6,0.9-1.4,2-1.4,2h3.6v-3.2C66.2,289.9,66.2,288.9,66.2,288.3L66.2,288.3z"/>
	</g>
	<g>
		<path class="st4" d="M121.4,325.3H118v-1.9c2.5-0.1,3.5-0.6,3.7-2.2h2.2v14.3h-2.5L121.4,325.3L121.4,325.3z"/>
		<path class="st4" d="M128.7,335.5v-2.1c0,0,2.6-2.3,4.2-3.9c1.8-1.7,2.6-2.8,2.6-4.2c0-1.3-0.8-2.2-2.2-2.2
			c-1.6,0-2.3,1.1-2.3,2.7h-2.4c0-0.1,0-0.1,0-0.1c0-2.6,1.7-4.7,4.7-4.7s4.7,1.9,4.7,4.4c0,3.6-4,6-6.2,8.1h6.2v2.1L128.7,335.5
			L128.7,335.5z"/>
		<path class="st4" d="M150.2,328.4c0,4.2-1,7.4-5,7.4s-5-3.2-5-7.4c0-3.8,0.9-7.5,5-7.5S150.2,324.6,150.2,328.4z M142.7,328.4
			c0,3.1,0.5,5.3,2.4,5.3s2.4-2.2,2.4-5.3c0-2.8-0.4-5.2-2.4-5.2S142.7,325.6,142.7,328.4z"/>
		<path class="st4" d="M159.6,325.7c0,0.2,0,0.4,0,0.7c0.5-0.9,1.6-1.7,3.2-1.7c1.5,0,2.5,0.6,3.1,1.8c0.6-0.9,1.7-1.8,3.5-1.8
			c2.4,0,3.8,1.6,3.8,4.3v6.5h-2.4v-5.6c0-2.2-0.6-3.2-2-3.2c-1.5,0-2.3,1.2-2.3,2.7v6.1h-2.4v-5.7c0-2.1-0.6-3.1-2-3.1
			c-1.6,0-2.3,1.3-2.3,2.9v5.9h-2.4v-8.9c0-0.6,0-1.1,0-1.6h2.3v0.7H159.6z"/>
	</g>
	<g>
		<path class="st4" d="M112,507.2v-2.1c0,0,2.6-2.3,4.2-3.9c1.8-1.7,2.6-2.8,2.6-4.2c0-1.3-0.8-2.2-2.2-2.2c-1.6,0-2.3,1.1-2.3,2.7
			h-2.4c0-0.1,0-0.1,0-0.1c0-2.6,1.7-4.7,4.7-4.7s4.7,1.9,4.7,4.4c0,3.6-4,6-6.2,8.1h6.2v2.1L112,507.2L112,507.2z"/>
		<path class="st4" d="M124.8,492.9h7.6v2.2h-5.6c-0.1,0.7-0.2,1.4-0.3,2.2l-0.2,1.1c0.7-0.4,1.5-0.7,2.5-0.7c2.7,0,4.5,2,4.5,4.8
			c0,2.9-2,5-5,5c-2.8,0-4.7-1.7-5-4.2h2.5c0.2,1.2,1,2.1,2.4,2.1c1.7,0,2.6-1.2,2.6-2.9c0-1.5-1-2.8-2.6-2.8
			c-1.1,0-1.8,0.5-2.1,1.2c-0.8-0.1-1.5-0.3-2.2-0.4C124.2,498,124.5,495.5,124.8,492.9z"/>
		<path class="st4" d="M145.1,500.1c0,4.2-1,7.4-5,7.4s-5-3.2-5-7.4c0-3.8,0.9-7.5,5-7.5S145.1,496.3,145.1,500.1z M137.7,500.1
			c0,3.1,0.5,5.3,2.4,5.3s2.4-2.2,2.4-5.3c0-2.8-0.4-5.2-2.4-5.2S137.7,497.2,137.7,500.1z"/>
		<path class="st4" d="M154.6,497.3c0,0.2,0,0.4,0,0.7c0.5-0.9,1.6-1.7,3.2-1.7c1.5,0,2.5,0.6,3.1,1.8c0.6-0.9,1.7-1.8,3.5-1.8
			c2.4,0,3.8,1.6,3.8,4.3v6.5h-2.4v-5.6c0-2.2-0.6-3.2-2-3.2c-1.5,0-2.3,1.2-2.3,2.7v6.1h-2.4v-5.6c0-2.1-0.6-3.1-2-3.1
			c-1.6,0-2.3,1.3-2.3,2.9v5.9h-2.4v-8.9c0-0.6,0-1.1,0-1.6h2.3v0.6H154.6z"/>
	</g>
	<g>
		<path class="st4" d="M22.9,358.3c-0.1-0.9-0.8-1.8-2.2-1.8c-2,0-2.9,2-2.9,4.4l0,0c0.6-0.6,1.6-1.3,3.2-1.3c2.7,0,4.5,1.9,4.5,4.7
			c0,2.8-2,4.9-5,4.9c-3.5,0-5.2-2.5-5.2-6.8c0-5.1,1.7-8,5.4-8c2.7,0,4.3,1.6,4.6,4h-2.4V358.3z M18,364.3c0,1.6,1.1,2.7,2.6,2.7
			c1.4,0,2.5-1.1,2.5-2.7s-1.1-2.7-2.5-2.7S18,362.7,18,364.3z"/>
	</g>
	<g>
		<path class="st4" d="M17.1,405.1c0.9-2.4,1.9-4.7,3-7c0.8-1.7,1.6-3.4,2.4-5l0,0c-0.4,0-0.7,0-1.1,0h-5.3v-2.3h9v2.1l-0.5,1
			c-1.8,3.6-3.4,7.6-4.8,11.2L17.1,405.1L17.1,405.1z"/>
	</g>
	<g>
		<path class="st4" d="M16,427.2c0-2,1.7-3.7,4.4-3.7s4.4,1.7,4.4,3.7c0,1.4-0.7,2.4-1.9,3.1c1.6,0.7,2.5,2,2.5,3.7
			c0,2.6-2.1,4.3-5,4.3s-5-1.7-5-4.3c0-1.7,0.9-3,2.5-3.7C16.8,429.6,16,428.6,16,427.2z M17.9,433.9c0,1.3,0.9,2.4,2.5,2.4
			c1.5,0,2.5-1.1,2.5-2.4c0-1.4-1-2.5-2.5-2.5S17.9,432.4,17.9,433.9z M18.4,427.5c0,1.1,0.8,1.9,2,1.9c1.3,0,2-0.9,2-1.9
			s-0.8-1.9-2-1.9S18.4,426.4,18.4,427.5z"/>
	</g>
	<g>
		<path class="st4" d="M18,470.6c0.1,0.9,0.9,1.8,2.2,1.8c2.1,0,2.8-2.1,2.9-4.5l0,0c-0.5,0.6-1.5,1.3-3.3,1.3
			c-2.6,0-4.4-1.9-4.4-4.7c0-2.8,2-4.9,5-4.9c3.5,0,5.2,2.5,5.2,6.9c0,5.1-1.7,8-5.3,8c-2.7,0-4.4-1.6-4.7-4H18V470.6z M17.8,464.5
			c0,1.6,1.1,2.7,2.5,2.7s2.5-1.1,2.5-2.6c0-1.6-1.1-2.7-2.5-2.7C18.9,461.9,17.8,463,17.8,464.5z"/>
	</g>
	<g>
		<path class="st4" d="M44.9,358.3h-3.1v-1.7c2.2-0.1,3.2-0.5,3.4-2h2v12.9h-2.3L44.9,358.3L44.9,358.3z"/>
		<path class="st4" d="M51.7,357.7c0-1.8,1.5-3.3,4-3.3s4,1.5,4,3.4c0,1.2-0.6,2.2-1.7,2.8c1.4,0.6,2.2,1.8,2.2,3.4
			c0,2.3-1.9,3.9-4.5,3.9s-4.5-1.5-4.5-3.9c0-1.5,0.8-2.7,2.2-3.4C52.4,359.9,51.7,359,51.7,357.7z M53.4,363.7
			c0,1.2,0.8,2.2,2.2,2.2s2.2-1,2.2-2.2c0-1.3-0.9-2.2-2.2-2.2C54.3,361.5,53.4,362.4,53.4,363.7z M53.8,358c0,1,0.7,1.7,1.8,1.7
			s1.8-0.8,1.8-1.7c0-0.9-0.7-1.7-1.8-1.7S53.8,357,53.8,358z"/>
		<path class="st4" d="M63,354.6h6.8v2h-5c-0.1,0.6-0.1,1.3-0.2,1.9l-0.1,1c0.6-0.4,1.3-0.7,2.2-0.7c2.4,0,4.1,1.8,4.1,4.3
			c0,2.6-1.8,4.5-4.5,4.5c-2.5,0-4.2-1.6-4.5-3.8H64c0.2,1.1,0.9,1.9,2.2,1.9c1.5,0,2.3-1.1,2.3-2.6c0-1.4-0.9-2.5-2.3-2.5
			c-1,0-1.6,0.5-1.9,1.1c-0.7-0.1-1.3-0.2-2-0.3C62.5,359.2,62.7,357,63,354.6z"/>
	</g>
	<g>
		<path class="st4" d="M43.9,394.4h-3.1v-1.7c2.2-0.1,3.2-0.5,3.4-2h2v12.9h-2.3L43.9,394.4L43.9,394.4z"/>
		<path class="st4" d="M51.6,403.6c0.8-2.2,1.7-4.2,2.7-6.3c0.7-1.5,1.4-3.1,2.2-4.5l0,0c-0.3,0-0.6,0-1,0h-4.7v-2h8.1v1.9l-0.4,0.9
			c-1.6,3.3-3.1,6.8-4.3,10.1h-2.6V403.6z"/>
		<path class="st4" d="M61.2,393.9c0-1.8,1.5-3.3,4-3.3s4,1.5,4,3.4c0,1.2-0.6,2.2-1.7,2.8c1.4,0.6,2.2,1.8,2.2,3.4
			c0,2.3-1.9,3.9-4.5,3.9s-4.5-1.5-4.5-3.9c0-1.5,0.8-2.7,2.2-3.4C61.9,396,61.2,395.1,61.2,393.9z M63,399.9c0,1.2,0.8,2.2,2.3,2.2
			c1.4,0,2.2-1,2.2-2.2c0-1.3-0.9-2.2-2.2-2.2C63.8,397.7,63,398.6,63,399.9z M63.4,394.1c0,1,0.7,1.7,1.8,1.7s1.8-0.8,1.8-1.7
			c0-0.9-0.7-1.7-1.8-1.7C64.1,392.4,63.4,393.2,63.4,394.1z"/>
	</g>
	<g>
		<path class="st4" d="M43.9,427.4h-3.1v-1.7c2.2-0.1,3.2-0.5,3.4-2h2v12.9h-2.3L43.9,427.4L43.9,427.4z"/>
		<path class="st4" d="M59.3,434h-1.7v2.6h-2V434h-5.8v-1.8l3.9-5.5c0.7-1.1,2-2.9,2-2.9h2v8.4h1.7L59.3,434L59.3,434z M55.6,426.6
			c-0.1,0.2-0.8,1.4-1.4,2.3l-0.8,1.2c-0.6,0.9-1.4,2-1.4,2h3.6v-3.2C55.6,428.2,55.6,427.2,55.6,426.6L55.6,426.6z"/>
		<path class="st4" d="M62.2,436.6c0.8-2.2,1.7-4.2,2.7-6.3c0.7-1.5,1.4-3.1,2.2-4.5l0,0c-0.3,0-0.6,0-1,0h-4.7v-2h8.1v1.9l-0.4,0.9
			c-1.6,3.3-3.1,6.8-4.3,10.1h-2.6V436.6z"/>
	</g>
	<g>
		<path class="st4" d="M44.9,462.6h-3.1v-1.7c2.2-0.1,3.2-0.5,3.4-2h2v12.9h-2.3L44.9,462.6L44.9,462.6z"/>
		<path class="st4" d="M52.6,471.8c0.8-2.2,1.7-4.2,2.7-6.3c0.7-1.5,1.4-3.1,2.2-4.5l0,0c-0.3,0-0.6,0-1,0h-4.7v-2h8.1v1.9l-0.4,0.9
			c-1.6,3.3-3.1,6.8-4.3,10.1L52.6,471.8L52.6,471.8z"/>
		<path class="st4" d="M64,468.5c0.1,0.8,0.8,1.6,2,1.6c1.9,0,2.5-1.9,2.6-4l0,0c-0.5,0.5-1.4,1.2-2.9,1.2c-2.4,0-4-1.7-4-4.2
			s1.8-4.4,4.5-4.4c3.1,0,4.7,2.3,4.7,6.2c0,4.6-1.5,7.2-4.8,7.2c-2.4,0-3.9-1.5-4.2-3.6L64,468.5L64,468.5z M63.8,463.1
			c0,1.4,1,2.4,2.3,2.4s2.3-1,2.3-2.4c0-1.5-1-2.4-2.3-2.4S63.8,461.7,63.8,463.1z"/>
	</g>
	<g>
		<path class="st4" d="M133.3,93.8c0.9-2.4,1.9-4.7,3-7c0.8-1.7,1.6-3.4,2.4-5l0,0c-0.4,0-0.7,0-1.1,0h-5.3v-2.3h9v2.1l-0.5,1
			c-1.8,3.6-3.4,7.6-4.8,11.2H133.3z"/>
		<path class="st4" d="M143.8,91.1h2.6v2.7h-2.6V91.1z"/>
		<path class="st4" d="M155.9,83.2c-0.1-0.9-0.8-1.8-2.2-1.8c-2,0-2.9,2-2.9,4.4l0,0c0.6-0.6,1.6-1.3,3.2-1.3c2.7,0,4.5,1.9,4.5,4.7
			s-2,4.9-5,4.9c-3.5,0-5.2-2.5-5.2-6.8c0-5.1,1.7-8,5.4-8c2.7,0,4.3,1.6,4.6,4L155.9,83.2L155.9,83.2z M151,89.2
			c0,1.6,1.1,2.7,2.6,2.7c1.4,0,2.5-1.1,2.5-2.7c0-1.6-1.1-2.7-2.5-2.7S151,87.6,151,89.2z"/>
		<path class="st4" d="M167.2,93.8c-1.3-1.6-4.1-5.1-4.1-5.1v5.1h-2.4V79.5h2.4v8.4c0,0,2.7-3.2,3.8-4.6h2.9c-1.8,2-4.3,4.8-4.3,4.8
			c0.5,0.7,3.2,3.8,4.9,5.7L167.2,93.8L167.2,93.8z"/>
		<path class="st4" d="M174.1,84c0,0.2,0,0.4,0,0.7c0.5-0.9,1.6-1.7,3.2-1.7c1.5,0,2.5,0.6,3.1,1.8c0.6-0.9,1.7-1.8,3.5-1.8
			c2.4,0,3.8,1.6,3.8,4.3v6.5h-2.4v-5.6c0-2.2-0.6-3.2-2-3.2c-1.5,0-2.3,1.2-2.3,2.7v6.1h-2.5v-5.7c0-2.1-0.6-3.1-2-3.1
			c-1.6,0-2.3,1.3-2.3,2.9v5.9h-2.4v-8.9c0-0.6,0-1.1,0-1.6h2.3V84z"/>
	</g>
	<g>
		<path class="st4" d="M220.9,93.8v-2.1c0,0,2.6-2.3,4.2-3.9c1.8-1.7,2.6-2.8,2.6-4.2c0-1.3-0.8-2.2-2.2-2.2c-1.6,0-2.3,1.1-2.3,2.7
			h-2.4c0-0.1,0-0.1,0-0.1c0-2.6,1.7-4.7,4.7-4.7s4.7,1.9,4.7,4.4c0,3.6-4,6-6.2,8.1h6.2v2.1h-9.3V93.8z"/>
		<path class="st4" d="M237.1,83.6h-3.4v-1.9c2.5-0.1,3.5-0.6,3.7-2.2h2.2v14.3h-2.5L237.1,83.6L237.1,83.6z"/>
		<path class="st4" d="M254.1,86.7c0,4.2-1,7.4-5,7.4s-5-3.2-5-7.4c0-3.8,0.9-7.5,5-7.5S254.1,82.9,254.1,86.7z M246.7,86.7
			c0,3.1,0.5,5.3,2.4,5.3s2.4-2.2,2.4-5.3c0-2.8-0.4-5.2-2.4-5.2C247,81.4,246.7,83.9,246.7,86.7z"/>
		<path class="st4" d="M258.6,84c0,0.2,0,0.4,0,0.7c0.5-0.9,1.6-1.7,3.2-1.7c1.5,0,2.5,0.6,3.1,1.8c0.6-0.9,1.7-1.8,3.5-1.8
			c2.4,0,3.8,1.6,3.8,4.3v6.5h-2.4v-5.6c0-2.2-0.6-3.2-2-3.2c-1.5,0-2.3,1.2-2.3,2.7v6.1h-2.4v-5.7c0-2.1-0.6-3.1-2-3.1
			c-1.6,0-2.3,1.3-2.3,2.9v5.9h-2.4v-8.9c0-0.6,0-1.1,0-1.6h2.3V84H258.6z"/>
	</g>
	<line class="st5" x1="137.6" y1="110.1" x2="113.1" y2="134.7"/>
	<g>
		<g>
			<line class="st5" x1="101.1" y1="200.7" x2="82.7" y2="182.2"/>
			<g>
				<polygon class="st4" points="90.5,181.4 90.5,182.9 83.1,182.7 83.3,190 81.8,190.1 81.5,181.1 				"/>
			</g>
		</g>
	</g>
	<path class="st3" d="M102.1,202.1"/>
	<line class="st5" x1="205.3" y1="111.5" x2="183.5" y2="133.3"/>
	<line class="st5" x1="194.4" y1="122.4" x2="184.9" y2="112.9"/>
	<line class="st5" x1="172.5" y1="110.1" x2="148" y2="134.7"/>
	<circle class="st6" cx="152.7" cy="130" r="2.2"/>
	<circle class="st6" cx="90.3" cy="258.9" r="2.2"/>
	<circle class="st6" cx="160.2" cy="122.4" r="2.2"/>
	<circle class="st6" cx="167.2" cy="115.4" r="2.2"/>
	<circle class="st4" cx="114.7" cy="144.4" r="2.2"/>
	<circle class="st4" cx="119.7" cy="149.8" r="2.2"/>
	<circle class="st4" cx="124.6" cy="155" r="2.2"/>
	<circle class="st4" cx="130.1" cy="160.5" r="2.2"/>
	<circle class="st4" cx="135.2" cy="165.6" r="2.2"/>
	<circle class="st4" cx="241.5" cy="191.9" r="2.2"/>
	<circle class="st4" cx="229.5" cy="226" r="2.2"/>
	<circle class="st4" cx="235.4" cy="258.8" r="2.2"/>
	<circle class="st4" cx="217.2" cy="293.8" r="2.2"/>
	<circle class="st4" cx="239.1" cy="372.7" r="2.2"/>
	<polygon class="st5" points="11,110.8 31.6,122.4 11,135 	"/>
	<polygon class="st5" points="124.6,181.6 135.4,199.3 114.3,200.1 	"/>
	<polyline class="st5" points="114.3,289.2 114.3,281.2 122.3,281.2 	"/>
	<polyline class="st5" points="128.1,281.2 136.1,281.2 136.1,289.2 	"/>
	<polyline class="st5" points="136.1,295.1 136.1,303.1 128.1,303.1 	"/>
	<polyline class="st5" points="235.3,349.5 235.3,369.7 215.1,369.7 	"/>
	<polyline class="st5" points="122.3,303.1 114.3,303.1 114.3,295.1 	"/>
	<polyline class="st3" points="219.9,392.4 215.9,392.4 215.9,384.4 	"/>
	<line class="st5" x1="80.5" y1="247.8" x2="80.5" y2="269.9"/>
	<line class="st5" x1="136.6" y1="427.6" x2="113.4" y2="427.6"/>
	<line class="st5" x1="90.3" y1="247.8" x2="90.3" y2="269.9"/>
	<line class="st5" x1="99.4" y1="248.2" x2="99.4" y2="270.2"/>
	<g>
		<g>
			<line class="st5" x1="79.7" y1="292.4" x2="99.9" y2="292.4"/>
			<g>
				<polygon class="st4" points="94.9,298.5 93.9,297.4 99.3,292.4 93.9,287.3 94.9,286.2 101.5,292.4 				"/>
			</g>
		</g>
	</g>
	<line class="st5" x1="217.2" y1="219.2" x2="241.9" y2="219.2"/>
	<line class="st5" x1="217.2" y1="234.1" x2="241.9" y2="234.1"/>
	<path class="st5" d="M232.8,165.7l-9-5.3c-4.2-2.5-4.2-6.4,0-8.9l9-5.3"/>
	<g>
		<g>
			<path class="st5" d="M152.6,369.8l-0.2-10.5c-0.1-4.9,3.3-7,7.6-4.6l7.8,4.2"/>
			<g>
				<polygon class="st4" points="160.5,361.9 160.1,360.4 167.3,358.6 164.9,351.6 166.3,351.1 169.2,359.6 				"/>
			</g>
		</g>
	</g>
	<circle class="st5" cx="227.4" cy="191.6" r="9.5"/>
	<circle class="st5" cx="231.4" cy="293.4" r="9.5"/>
	<circle class="st5" cx="38.8" cy="500.1" r="9.5"/>
	<circle class="st5" cx="247" cy="500.1" r="9.5"/>
	<circle class="st5" cx="231.4" cy="399.9" r="9.5"/>
	<circle class="st3" cx="38.8" cy="327.4" r="9.5"/>
	<circle class="st5" cx="229.1" cy="258.8" r="11.9"/>
	<circle class="st5" cx="247" cy="500.1" r="11.9"/>
	<ellipse class="st5" cx="124.8" cy="259.3" rx="11.9" ry="6.9"/>
	<line class="st3" x1="126.9" y1="214.1" x2="113.7" y2="227.3"/>
	<line class="st3" x1="131.7" y1="218.8" x2="118.5" y2="232"/>
	<line class="st3" x1="136.3" y1="223.5" x2="123.1" y2="236.7"/>
	<line class="st3" x1="136.4" y1="228.3" x2="121.9" y2="213.8"/>
	<line class="st3" x1="131.6" y1="233" x2="117.1" y2="218.5"/>
	<line class="st3" x1="127" y1="237.6" x2="112.5" y2="223.1"/>
	<line class="st3" x1="160.9" y1="214.1" x2="147.7" y2="227.3"/>
	<line class="st3" x1="165.6" y1="218.9" x2="152.4" y2="232.1"/>
	<line class="st3" x1="170.3" y1="223.5" x2="157.1" y2="236.7"/>
	<line class="st3" x1="170.3" y1="228.3" x2="155.8" y2="213.8"/>
	<line class="st3" x1="165.6" y1="233.1" x2="151.1" y2="218.5"/>
	<line class="st3" x1="161" y1="237.7" x2="146.5" y2="223.2"/>
	<line class="st5" x1="113" y1="259.3" x2="119.7" y2="259.3"/>
	<line class="st5" x1="130.2" y1="259.3" x2="136.9" y2="259.3"/>
	<g>
		<path class="st4" d="M185.4,189h-2.8v-1.5c2,0,2.8-0.5,3-1.7h1.8v11.4h-2V189z"/>
		<path class="st4" d="M191,195h2.1v2.1H191V195z"/>
		<path class="st4" d="M202.5,191.5c0,3.4-0.8,5.9-4,5.9s-4-2.6-4-5.9c0-3,0.7-6,4-6S202.5,188.4,202.5,191.5z M196.5,191.5
			c0,2.4,0.4,4.2,1.9,4.2c1.6,0,1.9-1.8,1.9-4.2c0-2.3-0.3-4.2-1.9-4.2S196.5,189.2,196.5,191.5z"/>
	</g>
	<g>
		<path class="st4" d="M183.5,435.9v-1.7c0,0,2-1.8,3.4-3.1c1.4-1.3,2.1-2.3,2.1-3.3c0-1.1-0.7-1.8-1.8-1.8c-1.3,0-1.9,0.9-1.9,2.1
			h-1.9V428c0-2.1,1.3-3.8,3.8-3.8c2.4,0,3.8,1.5,3.8,3.5c0,2.9-3.2,4.8-4.9,6.5h4.9v1.7L183.5,435.9L183.5,435.9z"/>
		<path class="st4" d="M192.6,433.8h2.1v2.1h-2.1V433.8z"/>
		<path class="st4" d="M204.1,430.2c0,3.4-0.8,5.9-4,5.9s-4-2.6-4-5.9c0-3,0.7-6,4-6S204.1,427.2,204.1,430.2z M198.1,430.2
			c0,2.4,0.4,4.2,1.9,4.2c1.6,0,1.9-1.8,1.9-4.2c0-2.3-0.3-4.2-1.9-4.2S198.1,428,198.1,430.2z"/>
	</g>
	<line class="st5" x1="137.1" y1="349.6" x2="112.6" y2="374.2"/>
	<circle class="st6" cx="117.3" cy="369.5" r="2.2"/>
	<circle class="st6" cx="124.8" cy="361.9" r="2.2"/>
	<circle class="st6" cx="131.9" cy="354.9" r="2.2"/>
	<circle class="st6" cx="90" cy="428.9" r="2.2"/>
	<line class="st5" x1="101" y1="428.9" x2="78.9" y2="428.9"/>
	<line class="st5" x1="101" y1="437.3" x2="78.9" y2="437.3"/>
	<line class="st5" x1="204.2" y1="477.1" x2="181.3" y2="454.2"/>
	<line class="st5" x1="181.3" y1="477" x2="204.2" y2="454.1"/>
	<g>
		<g>
			<line class="st5" x1="148.4" y1="477.1" x2="153.7" y2="471.8"/>
			<line class="st7" x1="155" y1="470.5" x2="165.3" y2="460.1"/>
			<line class="st5" x1="166" y1="459.5" x2="171.3" y2="454.2"/>
		</g>
	</g>
	<g>
		<g>
			<line class="st5" x1="175.5" y1="327.6" x2="180.5" y2="327.6"/>
			<line class="st8" x1="182.4" y1="327.6" x2="228.4" y2="327.6"/>
			<line class="st5" x1="229.4" y1="327.6" x2="234.4" y2="327.6"/>
			<g>
				<path class="st4" d="M220,337.8c-0.3-0.5-0.2-1.1,0.3-1.5l13.6-8.7l-13.6-8.7c-0.5-0.3-0.6-1-0.3-1.5s1-0.6,1.5-0.3l15,9.6
					c0.3,0.2,0.5,0.5,0.5,0.9s-0.2,0.7-0.5,0.9l-15,9.6c-0.2,0.1-0.4,0.2-0.6,0.2C220.5,338.3,220.2,338.1,220,337.8z"/>
			</g>
		</g>
	</g>
	<g>
		<g>
			<line class="st5" x1="51.9" y1="327.6" x2="56.9" y2="327.6"/>
			<line class="st9" x1="58.7" y1="327.6" x2="101.6" y2="327.6"/>
			<line class="st5" x1="102.5" y1="327.6" x2="107.5" y2="327.6"/>
		</g>
	</g>
	<g>
		<g>
			<line class="st5" x1="171.3" y1="501.1" x2="176.3" y2="501.1"/>
			<line class="st10" x1="178.1" y1="501.1" x2="221.3" y2="501.1"/>
			<line class="st5" x1="222.2" y1="501.1" x2="227.2" y2="501.1"/>
			<g>
				<path class="st4" d="M212.8,511.3c-0.3-0.5-0.2-1.1,0.3-1.5l13.6-8.7l-13.6-8.7c-0.5-0.3-0.6-1-0.3-1.5s1-0.6,1.5-0.3l15,9.6
					c0.3,0.2,0.5,0.5,0.5,0.9s-0.2,0.7-0.5,0.9l-15,9.6c-0.2,0.1-0.4,0.2-0.6,0.2C213.3,511.7,213,511.6,212.8,511.3z"/>
			</g>
		</g>
	</g>
	<g>
		<g>
			<line class="st3" x1="51.9" y1="501.1" x2="56.9" y2="501.1"/>
			<line class="st11" x1="58.7" y1="501.1" x2="101.6" y2="501.1"/>
			<line class="st3" x1="102.5" y1="501.1" x2="107.5" y2="501.1"/>
		</g>
	</g>
	<g>
		<g>
			<line class="st5" x1="113.7" y1="477.1" x2="119" y2="471.8"/>
			<line class="st7" x1="120.3" y1="470.5" x2="130.7" y2="460.1"/>
			<line class="st5" x1="131.3" y1="459.5" x2="136.6" y2="454.2"/>
		</g>
	</g>
	<line class="st5" x1="114.1" y1="427.1" x2="114.1" y2="433.7"/>
	<line class="st5" x1="120.7" y1="427.1" x2="120.7" y2="433.7"/>
	<line class="st5" x1="129" y1="427.1" x2="129" y2="433.7"/>
	<line class="st5" x1="135.8" y1="427.1" x2="135.8" y2="433.7"/>
</g>
</svg>
