<?xml version="1.0" encoding="utf-8"?>
<!-- Generator: Adobe Illustrator 23.0.1, SVG Export Plug-In . SVG Version: 6.00 Build 0)  -->
<svg version="1.1" id="Calque_1" xmlns="http://www.w3.org/2000/svg" xmlns:xlink="http://www.w3.org/1999/xlink" x="0px" y="0px"
	 viewBox="0 0 100 125" style="enable-background:new 0 0 100 125;" xml:space="preserve">
<path d="M47.3,68.6l-4.6-2.7v3.3v2.1c0,6.2-2.3,12.3-4.4,17.6C36.5,93.4,35,97.4,35,101c0,8.8,7.1,15.9,15.9,15.9
	c8.8,0,15.9-7.1,15.9-15.9C66.7,93.1,57.3,74.5,47.3,68.6z M51.7,113c-7.1,0-12.8-5.7-12.8-12.8c0-3.3,1.6-7.3,3.4-11.9
	c-1,3.4-1.7,6.4-1.7,9.1c0,8.3,5.3,15.1,12,15.6C52.3,112.9,52,113,51.7,113z"/>
<path d="M62.6,36.2L59,34v2.6v1.7c0,4.9-1.8,9.6-3.4,13.8c-1.4,3.6-2.6,6.7-2.6,9.6c0,6.9,5.6,12.4,12.4,12.4
	c6.9,0,12.4-5.6,12.4-12.4C77.8,55.4,70.4,40.8,62.6,36.2z M66,71c-5.5,0-10-4.5-10-10c0-2.6,1.3-5.7,2.7-9.3
	c-0.8,2.6-1.3,5-1.3,7.1c0,6.5,4.2,11.8,9.4,12.2C66.5,70.9,66.3,71,66,71z"/>
<path d="M36.2,11.5l-3.6-2.1V12v1.7c0,4.9-1.8,9.6-3.4,13.8c-1.4,3.6-2.6,6.7-2.6,9.6c0,6.9,5.6,12.4,12.4,12.4
	c6.9,0,12.4-5.6,12.4-12.4C51.4,30.8,44,16.2,36.2,11.5z M39.6,46.3c-5.5,0-10-4.5-10-10c0-2.6,1.3-5.7,2.7-9.3
	c-0.8,2.6-1.3,5-1.3,7.1c0,6.5,4.2,11.8,9.4,12.2C40.1,46.3,39.9,46.3,39.6,46.3z"/>
</svg>
