<?xml version="1.0" encoding="utf-8"?>
<!-- Generator: Adobe Illustrator 23.0.1, SVG Export Plug-In . SVG Version: 6.00 Build 0)  -->
<svg version="1.1" id="Calque_1" xmlns="http://www.w3.org/2000/svg" xmlns:xlink="http://www.w3.org/1999/xlink" x="0px" y="0px"
	 viewBox="0 0 2000 2000" style="enable-background:new 0 0 2000 2000;" xml:space="preserve">
<style type="text/css">
	.st0{fill:#FFFFFF;}
</style>
<g>
	<g>
		<path class="st0" d="M-418.5,635c90.7-26.8,182.6-49.5,275.3-68c46.4-9.2,93-17.4,139.7-24.5c11.3-1.7,22.5-3.4,33.8-5
			c1.8-0.3,17.2-2.4,10.7-1.5c6.1-0.8,12.2-1.6,18.2-2.4c21.4-2.7,42.7-5.1,64.1-7.8c89.2-11.3,177.3-30.5,243.6-96
			c30.6-30.3,55-66.9,76.5-104c22.9-39.4,43.7-79.9,62.7-121.3c38.6-84.1,70.3-171.4,93.1-261.1c4.5-17.9,8.8-35.7,15.2-53.1
			c3.2-8.6-2.9,5.1,1.4-2.9c2.1-3.9,4.8-7.7,6.7-11.7c2.2-4.5-1.3,1.3-1.9,2c1.2-1.4,2.4-2.9,3.7-4.3c1.3-1.4,2.7-2.7,4-4
			c7.3-7.3-4.5,1.6,1.1-0.8c1.8-0.8,11.7-5.7,7.6-4.3c-5.1,1.8,1.8-0.4,2.3-0.5c2.8-0.7,5.5-1.6,8.3-2.2c3.1-0.7,12.8-2.3,4.4-1.2
			c5.8-0.8,11.6-1.2,17.4-1.6c22.4-1.7,44.8-2.9,67.2-3.8c45.3-1.7,90.7-1.3,135.8,3.8c2.5,0.3,5,0.6,7.5,0.9
			c-1.1-0.1-6.1-0.9-0.4,0c5.8,0.8,11.5,1.8,17.2,2.8c11.5,2,22.8,4.4,34.1,7.2c10.5,2.6,20.9,5.6,31.2,8.9
			c4.8,1.5,9.5,3.2,14.2,4.9c2.7,1,5.3,1.9,7.9,3c1,0.4,8.9,3.6,3.5,1.3c-4.9-2.1,5.4,2.5,7,3.2c4.2,2,8.4,4,12.6,6.2
			c8.3,4.3,16.5,8.9,24.5,13.8c7.4,4.6,14.6,9.4,21.7,14.5c1.6,1.2,3.2,2.4,4.9,3.6c-0.5-0.4-6-4.8-1.8-1.4
			c4.1,3.4,8.3,6.7,12.3,10.3c13.5,11.8,25.8,24.7,37.1,38.6c5.8,7.1-3.2-4.7,2,2.8c2.6,3.8,5.2,7.5,7.7,11.3
			c4.9,7.6,9.5,15.5,13.6,23.7c2.1,4.1,3.9,8.2,5.8,12.3c-3.5-7.6-0.4-0.7,1,3c3.1,8.6,5.7,17.3,7.8,26.2c0.9,3.8,1.6,7.7,2.4,11.5
			c1.8,8.9,0.3,0.7,0-1c0.2,2.1,0.5,4.2,0.7,6.2c0.9,9.6,1.2,19.3,0.8,29c-0.2,4.8-0.6,9.6-1,14.4c-0.8,9.5,1.3-5.9-0.5,3.5
			c-1.7,9.4-3.7,18.8-6.4,28c-2.5,8.6-5.7,17-8.7,25.4c-1.9,5.2,0.5-1.2,0.8-1.9c-1.2,2.5-2.3,5.1-3.5,7.6c-2.1,4.4-4.3,8.8-6.6,13
			c-4.3,8-8.9,15.9-13.9,23.5c-2.7,4.1-5.5,8.2-8.3,12.2c-1.6,2.3-9.5,12-4,5.5c-12.4,14.7-25,28.8-39.2,41.8
			c-6.8,6.2-13.8,12.1-21,17.8c6.8-5.4-3.3,2.3-5.5,3.8c-4.4,3.1-8.9,6.2-13.5,9.2c-17.8,11.6-36.4,22-55.5,31.3
			c-4.9,2.4-9.9,4.8-14.9,7c-1.9,0.8-12.4,5.5-5.9,2.7c-10.2,4.3-20.5,8.3-30.9,12c-20.1,7.3-40.5,13.9-61.1,19.8
			c-41.6,12.1-83.8,22-126,31.9c-90.5,21.2-181.2,41.8-271,66c-167.7,45.2-334.6,104-481.3,198.5c-67.6,43.6-131.4,94.2-186.8,152.6
			c-28.5,30.1-54.7,62.4-78.5,96.2c-24,34.1-50.7,72.4-56.7,114.5c-14.2,99.1,81.1,169.4,160.7,207.1c84.1,39.8,175.5,53.2,267.7,41
			c88.7-11.8,173.7-40.3,257.2-71.6c71.5-26.8,141.9-56.9,210.6-90.3c133.3-64.6,260.6-142,378.5-231.7
			c118.6-90.2,228.5-191.3,324.4-305.4c94.9-113,177.1-236.7,240-370.4c33.1-70.4,60.7-143,84.1-217.2c6.5-20.6,12.9-41.2,19.9-61.6
			c3.3-9.8,6.8-19.6,10.4-29.3c2-5.2,3.9-10.4,6-15.6c0.9-2.2,1.8-4.4,2.7-6.6c3.1-7.4-2.5,5.6,0.7-1.7
			c8.7-19.5,18.3-38.7,29.5-56.9c1.7-2.7,3.5-5.3,5.1-8.1c0.3-0.5,4.2-6.2,1.1-1.9c-3.9,5.3,7.7-8.2,2.7-3.5
			c-3.7,3.5,0.4-0.7,1.7-0.9c-6.1,1-11.1,2.7-17.9,1.8c-0.7-0.1-6.7-4-1.8-1.1c2.4,1.5,4.8,2.9,7.2,4.5
			c39.2,27.2,76.6,57.6,114.7,86.4c18.1,13.7,36.3,27.3,54.4,41.1c2.3,1.7,4.5,3.5,6.8,5.2c-0.6-0.5-5.5-4.3-1.2-0.9
			c3.4,2.7,6.8,5.3,10.2,8c8.4,6.7,16.8,13.6,24.9,20.6c14,12.1,27.6,24.8,40.3,38.4c6.7,7.2,13.2,14.7,19.3,22.4
			c-5-6.3,0.8,1.3,2.5,3.7c3.2,4.5,6.3,9.2,9.2,13.9c4.4,7.1,8.4,14.4,12,21.9c1.2,2.5,2.4,5,3.5,7.6c-0.3-0.8-2.5-7-0.9-1.8
			c1.7,5.4,3.8,10.6,5.4,16.1c2.7,9.1,4.6,18.3,6.1,27.6c-1.4-8.4,0,1.2,0.2,4.4c0.4,5.7,0.6,11.5,0.6,17.3c0,4.3-0.2,8.7-0.4,13
			c-0.1,2.3-1.4,15.6-0.8,10.9c0.6-4.8-1.2,6.7-1.5,8.7c-1.1,5.7-2.4,11.4-3.8,17.1c-2.4,9.3-5.2,18.4-8.5,27.4
			c-1.5,4.2-3.1,8.3-4.8,12.4c0.4-0.9,2.9-6.2,0.4-1.3c-1.7,3.3-3.1,6.7-4.7,10.1c-8.8,18-19.2,35.1-30.9,51.3
			c-1.3,1.8-2.6,3.6-3.9,5.3c0.6-0.8,4.3-5.3,0.7-0.9c-3.5,4.2-6.9,8.5-10.5,12.7c-7.1,8.3-14.6,16.3-22.2,24.1
			c-14.8,15-30.5,29.2-46.7,42.6c-3.6,3-7.3,6-10.9,8.9c-1.5,1.2-13,10.2-7,5.6c-8.7,6.7-17.6,13.3-26.5,19.7
			c-34.9,25.3-70.8,49.3-106.1,74c-147.4,103-291.3,212.1-423.1,334.7c-32.4,30.2-64.1,61.2-94.9,93.1
			c-14.9,15.5-29.3,31.6-44.2,47.1c-5.5,5.7-11.3,10.8-17.2,16c-6.4,5.6,6.7-4.5-3.1,2.4c-3.4,2.4-6.9,4.8-10.4,7.1
			c-13.8,8.9-28.3,16.5-43.3,23.2c-1.7,0.8-3.4,1.5-5.1,2.2c9.6-4.3,3.3-1.4,1.2-0.6c-3.5,1.4-6.9,2.7-10.4,4.1
			c-8.2,3.1-16.6,6-24.9,8.8c-32.9,10.9-66.4,19.6-99.6,29.5c-71.4,21.2-137.4,49.5-192.6,100.6c-52.2,48.3-92.1,108.3-135,164.5
			c6.7-8.8-1.3,1.7-2.9,3.7c-2.7,3.4-5.5,6.9-8.2,10.3c-5.5,6.8-11.1,13.5-16.8,20c-10.9,12.5-22.3,24.6-34.4,35.9
			c-5.8,5.4-11.7,10.6-17.8,15.7c-3.4,2.8-8.4,6.3-1.7,1.5c-3.9,2.8-7.8,5.7-11.8,8.5c-13.7,9.3-28.2,17.4-43.3,24.1
			c-41.2,18.3-82.3,36.8-123.6,54.8c-4.6,2-9.2,4-13.8,6c-1.7,0.7-15.5,6.6-9.4,4c-10.8,4.5-21.7,8.9-32.6,13.2
			c-21,8.2-42.2,15.9-63.6,22.8c-21.5,6.9-43.2,13-65.2,18c-9.4,2.1-18.9,4-28.4,5.7c-4.3,0.8-8.6,1.3-12.9,2.1
			c-5.6,1,1.2-0.1,1.9-0.2c-3.6,0.5-7.2,0.9-10.9,1.3c-19.6,2.1-39.3,3.2-59,3.1c-9.5-0.1-18.9-0.4-28.3-1.1
			c-4.3-0.3-8.7-0.7-13-1.1c-2.9-0.3-5.8-0.7-8.6-0.9c-7.6-0.7,7.3,1.3-0.1,0c-19.1-3.4-38-7.1-56.6-12.9c-8.9-2.8-17.5-6-26.2-9.3
			c-5.2-2,0.9,0.4,1.6,0.7c-1.9-0.9-3.9-1.8-5.8-2.7c-5.2-2.4-10.2-5-15.3-7.7c-34.8-18.7-63.8-49-103.2-58.2
			c-28-6.5-55.1-1.8-77.3,16.9c-18.1,15.2-26.1,39.3-33.4,61.1c-11.3,33.5-17.5,68.5-20.6,103.7c-5.9,66.5,3.5,136.6,28.2,198.7
			c26.8,67.3,67.9,125.3,126.4,168.5c67.6,49.8,155.1,67.8,237.8,63.7c85.8-4.2,169.8-27.8,248.6-61c73.8-31,143.3-70.2,207-118.8
			c63.5-48.5,121.4-103.4,170.9-166.4c50.8-64.7,89.6-136,132.7-205.8c10.4-16.9,21.3-33.6,32.8-49.8c2.5-3.6,5.1-7.1,7.7-10.7
			c0.7-1,6.2-8.3,2.9-3.9c-3.1,4,1.4-1.7,1.6-2c6.4-7.9,12.9-15.8,19.8-23.3c12.9-14.2,26.7-27.7,41.6-39.8c1.3-1.1,2.6-2.1,3.9-3.1
			c5.8-4.7-3.1,2.5-4.7,3.6c3.5-2.3,6.7-5.1,10-7.5c39-28.7,80-54.6,121.3-79.7c52.4-31.7,106-61.5,161.2-87.9
			c13.3-6.4,26.8-12.4,40.3-18.3c10.1-4.4-6.3,2.5,1.6-0.7c2.9-1.2,5.7-2.3,8.6-3.5c6.5-2.6,13.1-5.1,19.7-7.5
			c22.3-8.2,45.1-15.4,68.5-19.5c2-0.4,12.2-1.8,2.5-0.5c-9.2,1.2-1.1,0.2,1.1,0c4.6-0.4,9.3-0.4,13.9-0.7c9.3-0.5-3.4,0-6.1-1.3
			c1.2,0.6,3,0.5,4.3,0.9c4.1,1.2,8,2.6,12,4c6.5,2.1-11.4-5.2-2.5-1c2.1,1,4.3,2,6.4,3c5.9,2.8,11.7,5.9,17.5,9
			c11.4,6.2,22.6,12.8,33.6,19.6c25,15.3,49.4,31.6,73.4,48.4c10.3,7.2,20.6,14.5,30.7,21.9c4.1,3,8.1,6,12.2,9
			c1.6,1.2,3.3,2.5,4.9,3.7c7.5,5.6-9.3-7.5-2.6-2c3.1,2.5,6.3,4.9,9.3,7.6c3.2,2.9,5.9,6.2,8.9,9.2c-0.6-0.6-4-5.9-0.9-1.3
			c2,3,4,5.9,5.9,8.9c2.2,3.7,4.3,7.5,6.2,11.4c1,1.9,1.8,3.9,2.8,5.9c3.2,6.7-2-6.5,0.2,0.6c3,9.8,6.7,19.2,9.4,29.1
			c6,21.1,10.9,42.6,14.9,64.2c0.9,4.8,1.7,9.6,2.5,14.5c0.4,2.4,0.8,4.8,1.1,7.3c0.2,1.1,1.6,11.1,0.9,5.7
			c-0.7-4.8,0.4,3.2,0.4,3.3c0.3,2.4,0.6,4.9,0.9,7.3c0.7,6.5,1.4,13,1.9,19.5c3.8,44,3.6,88.2-0.4,132.2c-0.4,4.9-0.9,9.8-1.5,14.6
			c-0.2,2.1-2.2,17.2-1,9.1c-1.6,11.3-3.5,22.6-5.6,33.9c-4.1,21.7-9.2,43.2-15.2,64.4c-6,21.2-13,42.1-20.9,62.7
			c-1.7,4.5-3.5,9-5.4,13.5c-1.2,3-2.4,6-3.7,9c0.4-1,2.3-5.4,0.1-0.3c-4.5,10.4-9.1,20.8-13.8,31.1
			c-19.2,42.1-39.3,83.8-56.7,126.7c-28.2,69.4-71.4,198.9,29.2,232.8c42.7,14.4,94.6-8.3,132.2-28c33.9-17.7,65-42.1,91.9-69.2
			c55.8-56.6,95.1-126.8,123.6-200.5c32.5-84.2,48.8-173.6,69.6-261.1c10.8-45.4,22.7-90.6,38.5-134.5c2.9-8.1,6-16.3,9.2-24.3
			c1.8-4.7,3.8-9.3,5.7-14c2.1-5.1-0.3,0.8-0.6,1.5c1.1-2.6,2.3-5.3,3.4-7.9c8.1-18.4,16.8-36.6,26-54.6
			c71.4-139.8,169.9-263,252.2-396.1c42.2-68.4,79.7-139.7,107.6-215.2c25.5-69,38.3-141.1,26.5-214.4
			c-12-74.2-62.8-141.4-138.7-158.1c-91.1-20.1-183.3,24.2-263,63.3c-75.7,37.1-147.4,81.9-214.2,133.4
			c-35.4,27.3-69.7,55.8-102.2,86.5c-30.9,29.2-62.6,60.6-82.4,98.7c-24.2,46.6-26,96-22.4,147.2c1.5,21.3,2.7,42.6,2.1,64
			c-0.3,9.6-0.8,19.1-1.6,28.6c-0.4,4.4-0.8,8.7-1.2,13.1c-0.2,2.2-0.5,4.4-0.7,6.5c-1.1,9.3,0.7-3.3-0.3,2.4
			c-7,38.9-15.8,76.8-29.3,114.1c-3.2,9-6.7,17.8-10.2,26.7c-3.4,8.4,1.6-3.5-2,4.8c-2.4,5.4-4.8,10.8-7.3,16.2
			c-8.4,18.2-17.6,36.1-27.2,53.7c-19.7,35.8-41.6,70.3-65,103.7c-11.8,16.9-24,33.6-36.5,50c-1.3,1.7-8.1,10.6-3.7,4.9
			c-3.3,4.2-6.6,8.5-9.9,12.7c-6.6,8.4-13.3,16.8-20.1,25.1c-51.1,62.9-104.5,124.6-160.8,182.9c-27.9,28.9-57,56.6-88.2,81.9
			c-1.7,1.4-12.6,9.9-5.9,4.8c-3.5,2.7-7,5.3-10.6,7.9c-8.3,6-16.7,11.9-25.3,17.5c-16.5,10.8-33.5,20.7-51.1,29.5
			c-4.6,2.3-9.2,4.5-13.8,6.6c-2.4,1.1-12,5.2-4.6,2.2c-9.5,3.9-19.1,7.5-28.9,10.7c-18.6,6.1-37.5,11-56.6,15.6
			c-38,9.1-76.4,16.6-113.3,29.7c-41.3,14.6-79.7,34.9-111.4,65.5c-28.9,27.9-51.3,62.3-75.1,94.5c-4.4,5.9,4.5-5.4-0.2,0.2
			c-1.3,1.6-2.6,3.3-3.9,4.9c-2.6,3.2-5.3,6.4-8,9.5c-6.4,7.2-13.1,14.2-20.3,20.6c-2,1.8-4.2,3.6-6.3,5.4c0.6-0.5,6-4.3,1.5-1.1
			c-3.5,2.4-6.9,4.9-10.5,7.2c-4.1,2.6-8.4,5.1-12.7,7.4c-1.8,1-3.7,1.9-5.6,2.8c-0.9,0.4-8.8,4.1-3.7,1.9c4.4-1.9-7.6,2.8-9.8,3.5
			c-3.9,1.3-7.9,2.5-11.9,3.7c-9.5,2.6-19,4.5-28.7,6.3c-9.3,1.7-1.7,0.4,0.2,0.1c-2.1,0.3-4.2,0.5-6.4,0.7
			c-4.3,0.5-8.5,0.8-12.8,1.2c-10.1,0.7-20.2,1.1-30.3,1.2c-38.1,0.5-76-2.7-114-4.9c-44.7-2.6-89.5-2.7-134.2-0.3
			c-93.7,5.1-187,20.5-277.2,46.3c-24.1,6.9-41.6,34.2-33.5,59c7.9,24.6,33.2,40.9,59,33.5c45.2-12.9,91-23.3,137.4-30.8
			c5.2-0.8,10.3-1.6,15.5-2.4c3.4-0.5,6.9-1,10.3-1.5c-1.2,0.2-5.5,0.7,0.2,0c12.1-1.6,24.2-2.9,36.3-4.1
			c23.4-2.3,46.8-3.9,70.3-4.8c44.5-1.7,88.9-0.5,133.3,2.2c39.4,2.5,78.9,5.3,118.4,3.1c44-2.4,86.3-10.6,126.4-29.2
			c36.7-17,66.8-45.2,91.6-76.7c13.3-17,25.8-34.4,38.6-51.8c2.5-3.4,5-6.7,7.5-10.1c-4.9,6.5,0.9-1.1,2.8-3.4
			c6.1-7.5,12.5-14.8,19.3-21.7c3.4-3.5,6.9-6.8,10.5-10c1.5-1.3,9.9-8.2,6.6-5.7c-4.5,3.4,2.7-1.8,3.7-2.5c1.7-1.2,3.5-2.4,5.3-3.5
			c4.1-2.7,8.3-5.2,12.6-7.6c8-4.5,16.2-8.5,24.6-12.1c-8.2,3.6,3.6-1.2,6.3-2.2c4.7-1.7,9.4-3.3,14.1-4.9
			c37.3-12.1,75.8-19.4,113.8-28.8c40.9-10.2,80.5-24.1,118.1-43.2c72.6-36.8,135.7-91.3,192.3-149.2
			c56.6-57.9,109.9-119.6,161.2-182.2c53.2-64.9,104-132.4,146-205.2c40.8-70.8,74.4-147.8,90.7-228.1c8.4-41.4,13.1-84,12.3-126.3
			c-0.4-21.7-2.6-43.4-3.7-65.1c-0.5-11.1-0.8-22.3-0.2-33.4c0.2-3.4,0.4-6.8,0.8-10.2c0.7-5.7,0.2-0.9,0,0.1
			c1.1-5.8,2.4-11.5,4.1-17.1c0.8-2.5,5.7-14.7,2.2-7.1c1.9-4,3.8-7.9,5.9-11.8c2.5-4.5,5.2-8.9,8-13.2c1.3-2,9-12.8,4.2-6.5
			c12.1-16.1,26.8-30.4,41.2-44.4c30.2-29.3,62-57.1,95.1-83.1c1.8-1.4,3.7-2.9,5.5-4.3c-0.8,0.6-4.8,3.7-0.4,0.4
			c4.3-3.3,8.7-6.6,13.1-9.9c8.8-6.5,17.6-12.9,26.5-19.2c17.2-12.1,34.8-23.8,52.6-35c35-22,71-42.4,108-60.8
			c18.8-9.4,37.9-18.3,57.2-26.8c1.9-0.8,14.8-6.3,7.9-3.4c4.3-1.8,8.6-3.6,13-5.3c10.2-4.1,20.6-7.9,31.1-11.3
			c9.8-3.2,19.7-6,29.7-8.2c5.3-1.2,10.7-2.3,16.1-3.2c0.4-0.1,8-1,2.8-0.4c-4.9,0.5,4.2-0.3,5.1-0.3c9.9-0.7,19.6-0.3,29.5,0.2
			c-8.1-0.4,2,0.4,5,1c5.9,1.3,11.6,3.2,17.3,5.1c-6.7-2.2,1.9,0.9,4.2,2.2c3.5,1.9,6.8,4,10.2,6c0.6,0.4,3.9,2.1,4.1,2.8
			c0.1,0.3-7.2-6.3-3.2-2.5c3.1,3,6.5,5.7,9.6,8.8c2.2,2.3,4.2,5,6.5,7.1c4.1,3.8-2.9-3.6-2.5-3.4c0.9,0.4,3,4.2,3.7,5.2
			c4.3,6.3,7.7,13,11.1,19.7c4.1,8-2.6-7.9,0.3,0.7c1.3,3.7,2.6,7.3,3.8,11.1c2.3,7.6,4.2,15.4,5.6,23.2c0.3,1.8,1.8,12.7,1,5.6
			c-0.8-7.4,0.5,6.1,0.6,7.6c0.6,8.3,0.9,16.7,0.8,25c-0.1,7.2-0.4,14.5-0.9,21.7c-0.3,4.2-0.8,8.4-1.2,12.7
			c-0.2,1.8-0.2,3.7-0.6,5.4c0.8-3.2,1.2-8,0.2-2c-2.7,15.9-6,31.6-10.5,47.2c-5.2,18-11.5,35.7-18.1,53.2c-1.8,4.7-3.6,9.4-5.5,14
			c-0.7,1.8-5,12.2-3.3,8.2c2.1-4.9-0.7,1.7-1,2.2c-1.2,2.6-2.3,5.3-3.5,7.9c-2,4.6-4.1,9.2-6.2,13.7
			c-32.7,70.7-73.6,137.3-116.5,202.2c-85.7,129.6-181.1,254.7-242.2,398.6c-35.6,83.9-56.5,171.3-76.6,259.9
			c-10.2,44.7-20.6,89.4-33.9,133.3c-6.1,20.3-12.8,40.4-20.5,60.1c-1.5,3.8-3,7.6-4.6,11.4c3.5-8.7-1.2,2.6-2.4,5.5
			c-3.9,8.8-8,17.4-12.3,26c-8.3,16.5-17.4,32.7-27.4,48.3c-4.4,6.9-9,13.7-13.7,20.4c-2.7,3.9-5.6,7.7-8.4,11.5
			c-3.2,4.4,0.9-1.1,1.3-1.7c-1.7,2.1-3.4,4.2-5.1,6.3c-11.5,14-23.8,27.3-37.1,39.6c-6.3,5.9-12.9,11.5-19.5,16.9
			c-1.6,1.3-7.3,5.2,0.3-0.2c-1.6,1.1-3.2,2.3-4.8,3.5c-3.7,2.7-7.5,5.3-11.4,7.8c-7.2,4.7-14.5,9.1-22,13.1
			c-4.1,2.2-8.2,4.3-12.3,6.3c-1.8,0.9-3.6,1.6-5.4,2.5c-6.3,3.3,7.1-2.7,0.5-0.1c-8.1,3.1-16.2,6.2-24.5,8.6
			c-4.2,1.2-8.4,2.3-12.6,3.4c-9.9,2.4-2.2,0.8-0.6,0.3c-8.1,2.8,0.3-0.9-0.4,1c-0.1,0.3-8.4-2.6-2.1-0.1c5,2,0.4,0-0.6-0.7
			c8.9,6.1,4.6,3.8,2.6,1.4c-0.1-0.1,6.2,7.6,2.9,3.5c-0.2-0.3-2.4-4-2.3-4.1c1-0.7,2.4,9.7,1.9,4c-0.2-1.9-0.9-4.6-1.7-6.4
			c-2.2-5,0.1,8.3,0.2,2.6c0.1-6-2.9-17.7,0.3-22.9c0.1-0.2-2,9.6-0.5,4.1c0.4-1.6,0.6-3.4,0.9-5.1c1.2-5.9,2.7-11.7,4.2-17.4
			c5.5-21,12.5-41.7,20.3-62c1.7-4.5,3.5-9,5.3-13.5c0.9-2.2,1.8-4.5,2.8-6.7c-0.8,2-3,7,0.8-1.9c4.5-10.4,9.1-20.7,13.8-31.1
			c18.9-41.4,38.6-82.4,55.9-124.5c34.4-84.1,52.9-174.4,56.5-265.1c3.4-87.3-6.2-180.5-35.4-263.3c-12.6-35.9-30.8-68.7-61.2-92.4
			c-20-15.7-40.5-30.7-61.4-45.2c-43.2-30.2-87.9-61.5-136.4-82.7c-22.5-9.8-43.3-15.5-68.1-13c-25.7,2.6-50.6,8.3-75.1,16.2
			c-113.2,36.8-219.8,98.9-319.7,162.6c-37.3,23.8-75,48.4-108.9,77c-62.2,52.5-105.3,124-146,193.4
			c-20.1,34.3-40.1,68.8-62.5,101.7c-5.2,7.7-10.6,15.2-16.1,22.7c-2.5,3.5-5.1,6.9-7.7,10.3c-0.3,0.4-4.6,6.1-1.4,1.9
			c3.5-4.7-3.5,4.4-4.1,5.3c-12,15.1-24.4,29.8-37.4,44.1c-25.4,28-52.5,54.5-81.2,79.1c-7,6-14.2,12-21.4,17.8
			c-3.9,3.1-7.8,6.2-11.7,9.3c6.7-5.2-3.5,2.6-5.6,4.2c-15.4,11.5-31.3,22.6-47.4,33.1c-32.3,21-65.9,40-100.6,56.8
			c-8.4,4-16.8,7.9-25.2,11.7c-1.8,0.8-12.1,5.3-8,3.5c4.9-2.1-1.6,0.7-2.2,0.9c-3.3,1.4-6.6,2.7-9.9,4c-17.9,7.1-36,13.7-54.3,19.6
			c-18.8,6.1-37.7,11.6-56.9,16.2c-10.1,2.5-20.3,4.7-30.6,6.7c-5.5,1.1-11,2.1-16.6,3c-2.4,0.4-4.8,0.8-7.1,1.1
			c-0.8,0.1-10,1.3-5.5,0.8c5.5-0.7-4.4,0.5-5.5,0.6c-2.4,0.3-4.8,0.5-7.2,0.7c-4.8,0.4-9.5,0.8-14.3,1.1c-11.1,0.7-22.2,1-33.4,0.9
			c-10.3-0.1-20.5-0.6-30.8-1.4c-2.4-0.2-17-1.9-8.3-0.7c-5.4-0.8-10.9-1.7-16.2-2.7c-10-1.9-19.9-4.3-29.7-7.2
			c-5.3-1.5-10.5-3.2-15.7-5.1c-2.1-0.7-14.9-5.7-8.4-2.9c-14.9-6.3-29.2-14.3-42.6-23.2c-2.9-1.9-5.7-3.9-8.5-5.9
			c-9.8-6.9,3.9,3.5-2.6-1.9c-6.2-5.2-12.3-10.4-18.1-15.9c-5.4-5.2-10.5-10.5-15.5-16.1c-2.3-2.6-4.5-5.2-6.8-7.8
			c-1.1-1.3-2.2-2.7-3.3-4c-7.2-8.7,3.8,5.6,0.1,0.2c-8.8-13-17.7-25.6-25.2-39.4c-3.4-6.1-6.5-12.4-9.5-18.7
			c-0.6-1.3-6.1-13.3-3.3-7.1c2.6,5.8-2.1-5.3-2.9-7.3c-5.7-14.9-10.4-30.2-14.2-45.7c-1.9-7.5-3.5-15.1-4.9-22.7
			c-0.8-4.1-1.4-8.2-2.1-12.3c-0.3-1.7-0.7-3.6-0.8-5.3c0.1,3.2,1,8.3,0.3,2.1c-3.3-32.4-3.4-64.4,0.1-96.8c1-9.5-1.4,7.9,0.2-1.5
			c0.7-4.1,1.4-8.3,2.1-12.4c1.5-8.2,3.4-16.4,5.4-24.5c3.9-15.2,8-31.6,14.9-45.7c-0.5,1-2.4,5.4,0.2,0.7c2.9-5.3-0.2,0.7-0.9,1.2
			c-2.3,1.7-4.6,2.9-7,4.5c-0.9,0.4-1.8,0.7-2.7,1.1c4.2-1,4.2-1.1,0-0.3c-1-0.8-5,0.3,0.3,0.6c-0.7,0-9-2.3-4-0.4
			c1.6,0.6,3.7,1,5.4,1.5c8.5,2.1-3.7-2.5,1.2,0.3c16.3,9.1,30.9,19.6,46.3,30.2c33.2,22.7,71.6,39.1,110.4,49.5
			c176.7,47.1,349.3-24.1,508.3-95.3c36.5-16.4,75.5-30.2,109.5-51.5c30.2-18.9,57.6-42.7,81.8-68.8c24.9-26.8,47.2-56.1,69.1-85.3
			c10.3-13.7,20.5-27.5,30.8-41.2c2.3-3,4.6-6.1,6.9-9.1c3.3-4.3-1.4,1.8-1.7,2.2c1.2-1.5,2.3-3,3.5-4.5c5.5-7,11-13.9,16.7-20.7
			c21.7-26.2,45.2-50.1,71.2-71.9c4.1-3.5-2,1.5-2.3,1.8c2-1.4,4-3,6-4.4c3-2.1,6-4.2,9.1-6.2c7.2-4.7,14.6-9,22.1-13.1
			c7.1-3.8,14.3-7.3,21.6-10.6c1.7-0.8,3.4-1.5,5.1-2.3c-0.4,0.2-7.9,3.2-2.8,1.2c4.7-1.8,9.3-3.7,14-5.5
			c63.8-24,131.5-36.4,194.7-62.3c36.2-14.8,69.3-32.5,99.6-57.6c31.1-25.9,57-59,85.5-87.7c62.5-62.9,128.5-122.2,196.7-178.8
			c16.5-13.6,33-27.1,49.7-40.4c8.4-6.7,16.7-13.3,25.2-19.9c4.5-3.5,9.1-7.1,13.6-10.6c-0.1,0.1,6.3-4.8,2.9-2.3
			c-2.6,2,4.2-3.3,4.9-3.8c35.2-27,70.9-53.5,106.9-79.5c71.4-51.6,145.9-99.3,215.6-153.2c67.5-52.2,130.5-114.1,164.7-193.6
			c36-83.6,41.5-175.5-2-257.6c-38.4-72.7-106.2-123.6-170.4-172.1c-38.7-29.2-77.3-58.3-116-87.5c-19.3-14.6-38.3-32.4-61.7-40
			c-29.2-9.5-60.1,1.9-80.9,23c-31.6,32.1-50.4,79.5-66.8,120.7c-16,40.1-28.3,81.5-41.4,122.5c-11.5,35.9-24,71.5-38,106.5
			c-1.5,3.8-3,7.5-4.5,11.2c-0.6,1.5-5.8,14-3.8,9.2c2-4.8-2.4,5.6-3.1,7.3c-2.1,4.9-4.3,9.9-6.5,14.8c-7.4,16.6-15,33-23,49.3
			c-31.4,64.4-67.3,126.6-107,186.3c-20.1,30.1-41.1,59.6-63,88.4c-1.2,1.6-2.4,3.2-3.7,4.8c1.1-1.4,5.7-7.3,0.1-0.2
			c-2.5,3.2-5,6.3-7.5,9.5c-5.8,7.4-11.7,14.7-17.7,22c-11.5,14.1-23.2,27.9-35,41.7c-47.3,54.5-97.8,106.3-151,155.1
			c-27,24.8-54.7,48.8-82.9,72c-14.2,11.7-28.5,23.1-43,34.4c-1.6,1.3-3.2,2.5-4.8,3.8c1.4-1.1,7.2-5.5,0,0c-3.2,2.5-6.5,5-9.8,7.4
			c-7.6,5.7-15.3,11.4-22.9,17.1c-118.3,87-245.5,161.8-378.5,224.1c-16.7,7.8-33.5,15.4-50.3,22.9c-8.1,3.6-16.2,7.1-24.4,10.6
			c-1.9,0.8-3.8,1.6-5.6,2.4c0.6-0.3,7.2-3,2-0.9c-5,2.1-10.1,4.2-15.1,6.3c-33.3,13.7-67,26.6-100.9,38.7
			c-40.8,14.6-82,28.4-123.9,39.5c-22.5,6-45.3,11.1-68.3,15c-1.9,0.3-17.2,2.7-10.2,1.7c-5.1,0.7-10.2,1.2-15.3,1.8
			c-11.9,1.2-23.9,2-35.9,2.3c-11.2,0.3-22.3,0.2-33.5-0.4c-4.9-0.2-9.7-0.6-14.6-1c-3.1-0.3-6.1-0.6-9.2-0.9c-0.9-0.1-10-1.3-5-0.6
			c5.2,0.8-2.3-0.4-2.7-0.5c-2.3-0.4-4.5-0.8-6.8-1.2c-5.3-1-10.5-2-15.8-3.2c-10.5-2.3-20.9-5.1-31.1-8.2
			c-9.5-2.9-18.9-6.2-28.2-9.8c-2.1-0.8-4.3-1.7-6.4-2.5c0.9,0.4,5.9,2.7,0.9,0.4c-5.6-2.6-11.2-5.1-16.7-7.8
			c-18.5-9.2-36.4-19.7-53.4-31.6c-3.8-2.6-7.5-5.3-11.2-8.1c5.8,4.4-3.1-2.5-4.7-3.9c-7.9-6.5-15.4-13.5-22.4-21
			c-2-2.2-3.8-4.4-5.8-6.6c0.6,0.7,3.8,5.6,0.8,1.1c-2.4-3.6-4.9-7.1-7-10.9c-0.7-1.2-4.9-9.1-2.3-3.8c2.3,4.7-0.5-1.4-0.7-2.1
			c-0.6-2-1.2-4-1.8-6.1c-0.3-1.2-1.3-9.6-1-4.1c0.4,7.4,1-14.6-0.4-3.2c0.5-4.4,1.8-9,3.1-13.2c0.9-2.9,1.9-5.8,3-8.6
			c-0.4,1-2.9,5.7-0.3,0.9c2.6-4.8,4.8-9.7,7.5-14.4c9.6-17.2,20.6-33.8,31.9-49.9c5.4-7.7,10.9-15.2,16.5-22.6
			c5.4-7.2-2.6,3.1,3.1-3.9c3.6-4.5,7.2-8.9,10.9-13.4c12.4-14.9,25.3-29.3,38.8-43.3c26.9-28,55.8-54.1,86.2-78.4
			c1.6-1.3,10.2-8,7.1-5.6c-4,3.1,1.6-1.3,2-1.5c2.3-1.7,4.6-3.5,6.9-5.2c8.1-6.1,16.3-12,24.6-17.8c15.4-10.8,31.1-21.3,47.1-31.3
			c33.2-20.9,67.5-40,102.6-57.6c17.5-8.8,35.2-17.1,53.1-25.1c20.4-9.1,30.9-13.5,53.7-22.4c42.8-16.8,86.2-31.8,130-45.5
			c87.1-27.2,175.6-49.4,264.4-70.4c167.4-39.7,357-66.2,489.5-185.6c59-53.2,106.1-127.4,117.3-207c12-84.9-13.7-163.7-67.7-229.6
			c-114.3-139.7-306.2-156.2-473.8-146.3c-48.3,2.9-97.3,5-135.8,38.2c-31.3,27-44.2,69-53.9,107.7c-10.9,43.3-23.3,86.2-38,128.4
			c-7.4,21.3-15.2,42.4-23.6,63.3c-1.9,4.6-3.7,9.3-5.6,13.9c-1,2.3-1.9,4.6-2.9,6.9c0.8-2,2.9-6.7-1,2.4
			c-4.6,10.7-9.3,21.4-14.2,32C406,194,385.9,233.3,364,271.6c-10.1,17.7-20.7,35.1-32.3,51.8c-3,4.3-6.1,8.6-9.3,12.8
			c-3.3,4.4,0-0.1,0.6-0.8c-1.4,1.7-2.8,3.5-4.3,5.2c-6.7,8-13.7,15.7-21.2,23c-3.2,3.1-6.5,6.1-9.8,9.1c-1.8,1.5-12.4,9.6-6,5.1
			c-8.6,6-17.3,11.7-26.5,16.7c-3.9,2.1-7.9,4.1-11.9,6c-2.7,1.3-5.4,2.5-8.1,3.7c0.9-0.4,6.4-2.3,1.2-0.6c-9.9,3.3-19.6,7-29.7,9.9
			c-19.6,5.6-39.7,9.6-59.8,12.9c-4.5,0.7-9,1.4-13.5,2.1c-2.3,0.3-4.5,0.6-6.8,1c-7.8,1.1,7-0.8-0.8,0.1
			c-10.6,1.2-21.1,2.6-31.7,3.9C-88.2,455-268,490.5-444,542.5c-24.1,7.1-41.6,34.1-33.5,59C-469.6,625.9-444.3,642.6-418.5,635
			L-418.5,635z"/>
	</g>
</g>
</svg>
