<?xml version="1.0" encoding="utf-8"?>
<!-- Generator: Adobe Illustrator 23.0.1, SVG Export Plug-In . SVG Version: 6.00 Build 0)  -->
<svg version="1.1" id="Calque_1" xmlns="http://www.w3.org/2000/svg" xmlns:xlink="http://www.w3.org/1999/xlink" x="0px" y="0px"
	 viewBox="0 0 146 146" style="enable-background:new 0 0 146 146;" xml:space="preserve">
<style type="text/css">
	.st0{fill:#FFFFFF;}
</style>
<g>
	<path class="st0" d="M53.2,27.1c-3.4,2.5-12.6,11.8-5.9,26.1C54.9,70,66.7,92.8,70,98.7l16-7.6L53.2,27.1z"/>
	<g>
		<g>
			<path d="M87.7,129c-1.7-0.8-2.5-0.8-2.5-1.7c-0.8-1.7-0.8-3.4,0-5.9c0.8-3.4,1.7-6.7-0.8-11.8l-5.9-11l-10.1,5.1l-0.8-1.7
				c0,0-14.3-27.8-23.6-47.2c-9.3-20.2,9.3-32,9.3-32L55,22l49.7,98.6v0.8c0,0-1.7,10.1-13.5,8.4C89.4,129.8,88.6,129,87.7,129z
				 M53.2,27.1c-3.4,2.5-12.6,11.8-5.9,26.1C54.9,70,66.7,92.8,70,98.7l16-7.6L53.2,27.1z"/>
		</g>
		<g>
			<path d="M78.4,94.5c-5.1-7.6-9.3-16-13.5-23.6c-2.5-4.2-5.1-7.6-6.7-11.8c-1.7-4.2-3.4-8.4-4.2-13.5l0,0c3.4,3.4,5.9,7.6,8.4,11
				c2.5,4.2,4.2,8.4,5.9,12.6C71.7,77.6,75.1,86,78.4,94.5L78.4,94.5z"/>
		</g>
	</g>
</g>
</svg>
