<?xml version="1.0" encoding="utf-8"?>
<!-- Generator: Adobe Illustrator 23.0.1, SVG Export Plug-In . SVG Version: 6.00 Build 0)  -->
<svg version="1.1"
	 id="Calque_1" xmlns:cc="http://creativecommons.org/ns#" xmlns:dc="http://purl.org/dc/elements/1.1/" xmlns:inkscape="http://www.inkscape.org/namespaces/inkscape" xmlns:rdf="http://www.w3.org/1999/02/22-rdf-syntax-ns#" xmlns:sodipodi="http://sodipodi.sourceforge.net/DTD/sodipodi-0.dtd" xmlns:svg="http://www.w3.org/2000/svg"
	 xmlns="http://www.w3.org/2000/svg" xmlns:xlink="http://www.w3.org/1999/xlink" x="0px" y="0px" viewBox="0 0 28.6 29"
	 style="enable-background:new 0 0 28.6 29;" xml:space="preserve">
<style type="text/css">
	.st0{fill:none;stroke:#000000;stroke-miterlimit:10;}
</style>
<g>
	<path d="M17.8,6.2c0.1,0,0.1,0,0.2,0c0.2,0.1,0.3,0.2,0.3,0.3s0.1,0.2,0,0.4l-6.8,15.9c-0.1,0.2-0.3,0.3-0.5,0.3
		c-0.1,0-0.1,0-0.2,0c-0.3-0.1-0.4-0.4-0.3-0.7l6.9-15.9C17.5,6.3,17.6,6.2,17.8,6.2 M17.8,5.2c-0.5,0-1.1,0.3-1.3,0.9L9.6,22
		c-0.3,0.8,0,1.6,0.8,2c0.2,0.1,0.4,0.1,0.6,0.1h0.1c0.5,0,1-0.4,1.2-0.9l6.8-15.9c0.3-0.8,0-1.6-0.8-2C18.2,5.2,18,5.2,17.8,5.2
		L17.8,5.2z"/>
</g>
<g>
	<line class="st0" x1="11.7" y1="17.2" x2="13.8" y2="18"/>
</g>
</svg>
