<?xml version="1.0" encoding="utf-8"?>
<!-- Generator: Adobe Illustrator 23.0.1, SVG Export Plug-In . SVG Version: 6.00 Build 0)  -->
<svg version="1.1" id="Calque_1" xmlns="http://www.w3.org/2000/svg" xmlns:xlink="http://www.w3.org/1999/xlink" x="0px" y="0px"
	 viewBox="0 0 100 125" style="enable-background:new 0 0 100 125;" xml:space="preserve">
<style type="text/css">
	.st0{fill:none;stroke:#000000;stroke-width:1.1397;stroke-linecap:round;stroke-linejoin:round;stroke-miterlimit:10;}
	.st1{fill:#FFFFFF;}
</style>
<path d="M54.6,5C51,18,40.4,20.6,34.8,26.5C25.1,35.1,25,44,33.3,48c7.2,0,9-7.1,9.8-8.9c0.8-4.4-1.9-5.7-3-1.1
	C39.6,30.8,58.4,19.4,54.6,5z"/>
<path d="M70.6,8.3C67,24.8,58,27.2,55.6,31.1c6.3,1.1,6.8,2.7,9.2,4.8C64.3,30.8,77.6,21.3,70.6,8.3z"/>
<path class="st0" d="M43.9,30.1c3.2-1,9.1,0.7,11.6,1"/>
<path class="st0" d="M64.8,35.9c0,0,5.7,6.3,8.3,12.1c1.8,1.7,5.5,2.1,4.9,5.2"/>
<path class="st0" d="M27.3,41.5c0,0-4,4-2.6,6.6"/>
<path d="M43.9,75.2c0,0,5.2,8.5-6.5,12.7c15.4-1.5,12.3-12,12.3-12"/>
<path class="st0" d="M64.5,60.5c0,0,1.9,1.3,2.4-0.3c-1.7-3.9-4.2-15-4.2-15s4.6,10.4,7.9,15c-1.4-5.4,1.3-9,1.3-9s0.9,7.8,1.6,5.8
	c0.7-2.3,2.1-5.5,2.1-5.5s0.3,4.3,1.5,3.3c1.1-1,3.9-6.6,3.9-6.6s2.2,6.2-2.8,8"/>
<ellipse cx="77.6" cy="60.8" rx="4" ry="4.6"/>
<ellipse transform="matrix(0.9397 -0.3419 0.3419 0.9397 -17.9836 24.9126)" cx="61.7" cy="63.5" rx="4" ry="4.6"/>
<path d="M61.1,58.9c-0.2,0-7.8-4.7-11.4-10.6c-1.8,4.4,3.1,9.2,3.1,9.2s-4.9-0.5-10.9-5.8c2.7,8,10.1,7.9,9.5,7.9s-5.7,1-9.5,0.5
	c6,5.2,10.7,2.3,10.7,2.3s-3,3.4-4.7,4.2c4.3,0.8,9.5-2.5,9.5-2.5"/>
<path class="st0" d="M78.1,65.3c1.6,2.8,7.6,4.6,7,11.1c-0.2,2.7-1.8,4.3-3.4,3.1c-2.5-1.6-7.3-7.2-10.1-2.6"/>
<path class="st0" d="M75.5,75.8c0,0-1.1,4.1-4,3.1c-5.9-1.8-4-7.3-0.5-7.2c0.1-0.7-0.6-1.8-0.6-1.8"/>
<path class="st0" d="M58.8,67.2c0,0-8.9,6.2-20.6-4.2c3.8,3.9,10.7,8,10.7,9.1c0,1.1,5.6,6.8,12,4.9c5.1-2.8,0.2-4.2,3.6-7.4"/>
<path class="st0" d="M59.8,77.5c0,0,8.9,7,13.7,6.3c4.8-0.6,2.6-3.5,4.4-3.9c1.8-0.3,3.4,3.4,5.6-0.3"/>
<path class="st1" d="M62.7,61.4c-1-0.2-3.5,2.8-1,4.6c2.4,1.1,3.8-1.9,2.8-3.8c-0.7,0.6-1.4,1.3-1.4,1.3S63,62.7,62.7,61.4z"/>
<path class="st1" d="M78.1,58.9c0.2,1.3,0.5,2.5,0.5,2.5s0,0,1.1-1.3c1,1.3-0.1,4.6-2.4,3.6C74.9,62.9,75.9,59,78.1,58.9z"/>
<path d="M53.7,76.8c0,0,2.1,2.1-2.4,6.7c6.7-1.3,6.4-4.8,6.4-4.8"/>
<path d="M68.6,85.6c0,0-2.4,2.5,0.7,7.4c-4.8-1.1-5.1-9.8-5.1-9.8s-1.3,3.3-5.7,3.5c2.7-2.5,1.9-6.2,1.9-6.2"/>
<path d="M69.1,85.7l0.5,2.3l3.9,0.7v-2.2l1,2.2l2.5-0.3l-0.3-3.1l1,2.5l2.8-0.9v-3.8l0.7,2.7l2.5-0.6l0.6-3.4c0,0,0.8,3.2,0.5,6.3
	c1.9-2.5,0.5-8.1,0.5-8.1"/>
<path class="st0" d="M44.6,86.3c12.2,1.8,17.9,5.5,21.1,7.8"/>
<path class="st0" d="M48.8,72c-13.6-5.2-19.1,11.7-8,13.8"/>
<path d="M65.3,93.7c7.2,8.7,10.6,7.9,10.6,7.9s5.5-2.4,7.4-1.9s3.2-1.7,3.2-1.7s-0.5-5.5-3.6-9.6c1.5,6.3,0.5,10.8,0.5,10.8"/>
<path class="st0" d="M84.4,78.6c1.6,2.1-0.9,6.8-5.6,3.6c-4.8,11.4-19.3-3.2-22.7-4.4c-14.9-6.6-15.7-1.5-16.3-0.7
	c-1.7,4.2,1.5,5.8,3.3,6.4"/>
<path d="M83,99.1c0,0-1-6-3-7.2c1.4,4.6,0,8.1,0,8.1"/>
<path d="M79.7,100.1c0,0-2.7-3.5-3.5-7.8c-0.7,3.2,0.6,8.5,0.6,8.5"/>
<path d="M71.7,99.9c0,0-0.8-6.8,1-9.6c0.5,7.6,3.8,10.8,3.8,10.8"/>
<path class="st0" d="M27.5,77.5c0,0-0.3,17,17.7,17.1c7.4,0.3,10.4,0.9,12,3.1c1.6,2.2,3.4,5,9,4.8c5.7-0.2,6.8,1.8,7.9,2.7
	c3.8,3.9,8.1,1.8,8.2,0.5c0.1-1.5,0.5-2.4,3.5-2.3c3.8,0,2.1-7.4,2.1-7.4s-0.6-5.1-3.2-8l-0.2,2.3"/>
<path class="st0" d="M34.9,72.4c-0.3-4.8-2.3-3.2-3.1-2.4c-3.6,3.5-1.3,7.5-4.8,7.5c-6.2-0.9,1.1-9.3-5.6-15.3
	c0-4.3-1.1-4.7-3.2-5.9c-6.6-3.1-5.9-9-3.9-11.6c3.9,1.6,19,4.1,20.9,12.9l-2.2-0.1c0,0-0.8-3.2-5.8-3.2c-2.3-3.6-6.6-2.1-6.6-2.1
	S16,47.3,13,48.3"/>
<path class="st0" d="M23.5,58.9c5.6,3.8,1.5,12.9,5,10.9c4.7-4.6-1.1-4.9-0.7-7.3c0.5-2.3,6-8.5-2.1-8.3c-6.6,2.1-5.1-2.1-5.1-2.1"
	/>
<path class="st0" d="M27,77.5"/>
</svg>
