<?xml version="1.0" encoding="utf-8"?>
<!-- Generator: Adobe Illustrator 23.0.1, SVG Export Plug-In . SVG Version: 6.00 Build 0)  -->
<svg version="1.1" id="Calque_1" xmlns="http://www.w3.org/2000/svg" xmlns:xlink="http://www.w3.org/1999/xlink" x="0px" y="0px"
	 viewBox="0 0 841 1053.8" style="enable-background:new 0 0 841 1053.8;" xml:space="preserve">
<style type="text/css">
	.st0{fill-rule:evenodd;clip-rule:evenodd;}
</style>
<g>
	<path class="st0" d="M660.5,980.6c1.1,2.2,3,7.3,6.9,6.9c4.7-0.2,11-2.5,16.6-5.1c4.4-2.1,11-5.2,13.5-9.8c1.7-2.1,0.3-6.2-1.4-9.5
		c0,0-9.4,3.1-18.2,7.3C668.2,974.2,660,979.5,660.5,980.6z"/>
	<path class="st0" d="M659.4,978.4c0.8,0.3,8.6-6.1,17.4-10.2c8.6-3.4,17.9-6.4,17.9-6.4C713.5,920.5,530.6,724.9,591,697
		c2.5-1.8,11.8-23.8,6.3-21.2c-17.9,9.1-43.9,22.7-54.9,28c-14.1,6-32.8,14.8-53.8,24.7c-4.4,2.1,11,11,18.8,7.3
		C569.5,708.6,623.2,975.9,659.4,978.4z"/>
	<path class="st0" d="M522,709.4l38.9-19C373.2,338.5,233.9,75.1,225.3,78.5C216.8,81.8,350.3,364.8,522,709.4z"/>
	<path class="st0" d="M564.2,688.8l31.2-15.4c-22.9-43.8-37.3-85.6-58.9-125.3C432.3,352.4,352.4,218.1,347.2,219.9
		C340.8,222.2,437.6,434.2,564.2,688.8z"/>
	<path class="st0" d="M518.7,710.9l-32,15.1c-22.1-43.5-47.8-79.3-66.9-118.2c-97.9-200.7-159.3-345.7-154.6-348.6
		C271.9,256.2,386.8,458.2,518.7,710.9z"/>
</g>
</svg>
