<?xml version="1.0" encoding="utf-8"?>
<!-- Generator: Adobe Illustrator 23.0.1, SVG Export Plug-In . SVG Version: 6.00 Build 0)  -->
<svg version="1.1" id="Calque_1" xmlns="http://www.w3.org/2000/svg" xmlns:xlink="http://www.w3.org/1999/xlink" x="0px" y="0px"
	 viewBox="0 0 32 40" style="enable-background:new 0 0 32 40;" xml:space="preserve">
<style type="text/css">
	.st0{fill:#010101;}
</style>
<g>
	<g>
		<g>
			<path class="st0" d="M12.1,15.8L12.1,15.8c-0.3,0-0.5-0.2-0.6-0.3c-0.2-0.2-2.4-3.7-2.4-6.9c0-3.4,1.6-3.7,1.9-3.7
				c0.3,0,0.6,0.1,0.7,0.4c0.1,0.2,0.1,0.6,0,0.7c-0.1,0.1-0.1,0.2-0.1,0.4c0,0.9,2.5,3.4,4.8,5.4c0.2,0.2,0.3,0.5,0.2,0.7
				c-0.1,0.3-0.2,0.5-0.5,0.5c-0.4,0.2-2.2,1.5-3.7,2.6C12.4,15.7,12.2,15.8,12.1,15.8z M10.6,7.7c0,0.3-0.1,0.6-0.1,0.9
				c0,2,1.1,4.3,1.7,5.4c0.8-0.7,1.8-1.3,2.5-1.8C13.5,11.2,11.4,9.3,10.6,7.7z"/>
		</g>
	</g>
	<g>
		<g>
			<path class="st0" d="M19.9,15.8c-0.2,0-0.3-0.1-0.5-0.2c-1.5-1.1-3.4-2.5-3.7-2.6c-0.3-0.1-0.5-0.3-0.5-0.5s0-0.5,0.2-0.7
				c0,0,0,0,0.1-0.1c2.4-2,4.8-4.5,4.8-5.4c0-0.2,0-0.3-0.1-0.4c-0.2-0.2-0.2-0.6,0-0.7c0.2-0.3,0.4-0.4,0.7-0.4s1.9,0.4,1.9,3.7
				c0,3.2-2.2,6.6-2.3,6.8C20.4,15.6,20.2,15.7,19.9,15.8C20,15.8,20,15.8,19.9,15.8z M17.2,12.3c0.7,0.5,1.7,1.1,2.5,1.8
				c0.7-1.1,1.7-3.4,1.7-5.4c0-0.4,0-0.7-0.1-0.9C20.6,9.3,18.5,11.2,17.2,12.3z"/>
		</g>
	</g>
	<g>
		<g>
			<path class="st0" d="M14.1,33.9h-3.3c-0.3,0-0.6-0.2-0.7-0.5L6.6,22.9c-0.1-0.2,0-0.4,0.1-0.6l1.6-2.6l-3.1-1.4
				c-0.2-0.1-0.4-0.3-0.4-0.5c-0.1-0.2-0.1-0.4,0-0.6l4.4-9C9.4,8,9.7,7.8,9.9,7.9c0.3,0.1,0.6,0.4,0.6,0.7c0,2.7,2,6.1,2.1,6.1
				c0.1,0.1,0.1,0.2,0.1,0.3l2,18.1c0,0.2,0,0.4-0.2,0.6C14.5,33.8,14.3,33.9,14.1,33.9z M11.3,32.5h2l-2-17.1
				C11.1,14.8,9.9,13,9.5,11l-3.1,6.3l3.2,1.4c0.2,0.1,0.3,0.3,0.4,0.5s0,0.4-0.1,0.6l-1.9,3L11.3,32.5z"/>
		</g>
	</g>
	<g>
		<g>
			<path class="st0" d="M21.1,33.9h-3.3c-0.2,0-0.4-0.1-0.6-0.3c-0.1-0.2-0.2-0.4-0.2-0.6l2-18.1c0-0.1,0.1-0.2,0.1-0.3
				c0,0,2.1-3.4,2.1-6.1C21.4,8.4,21.6,8,22,8c0.3-0.1,0.7,0.1,0.7,0.4l4.4,9c0.1,0.2,0.1,0.4,0,0.6s-0.2,0.3-0.4,0.4l-3.1,1.4
				l1.6,2.6c0.1,0.2,0.1,0.4,0.1,0.6l-3.6,10.5C21.7,33.7,21.4,33.9,21.1,33.9z M18.6,32.5h2l3.4-9.8l-1.9-3
				c-0.1-0.2-0.1-0.4-0.1-0.6c0.1-0.2,0.2-0.4,0.4-0.5l3.2-1.4L22.5,11c-0.6,2-1.6,3.8-1.9,4.4L18.6,32.5z"/>
		</g>
	</g>
	<g>
		<g>
			<path class="st0" d="M16.9,16.4h-1.9c-0.3,0-0.5-0.2-0.7-0.4l-1-2c-0.2-0.3-0.1-0.7,0.2-0.9c1.7-1.2,2-1.4,2.3-1.4
				c0.1,0,0.2,0,0.3,0c0.3,0.1,0.7,0.2,2.3,1.4c0.3,0.2,0.4,0.6,0.2,0.9l-1,2C17.5,16.3,17.2,16.4,16.9,16.4z M15.4,15h1.1l0.6-1.1
				c-0.7-0.5-0.9-0.7-1.1-0.7c-0.2,0.1-0.6,0.3-1.1,0.7L15.4,15z"/>
		</g>
	</g>
	<g>
		<g>
			<path class="st0" d="M17.9,33.9h-3.7c-0.4,0-0.7-0.3-0.7-0.7l-0.7-5.9c0-0.1,0-0.1,0-0.2l1.6-11.6c0-0.4,0.4-0.6,0.7-0.6h2
				c0.4,0,0.7,0.3,0.7,0.6l1.6,11.6c0,0.1,0,0.1,0,0.2l-0.7,5.9C18.5,33.6,18.2,33.9,17.9,33.9z M14.8,32.5h2.5l0.6-5.2l-1.5-10.9
				h-0.7l-1.5,10.9L14.8,32.5z"/>
		</g>
	</g>
	<g>
		<g>
			<path class="st0" d="M16,13c-0.2,0-0.3-0.1-0.5-0.2C14.8,12.2,10.9,9,10.2,7V6.9c0-0.1-0.1-0.3-0.1-0.5c0-0.2,0-0.4,0.1-0.6V5.8
				c0.1-0.2,0.1-0.3,0.2-0.5c0.8-1.2,2.7-1.2,4.9-1.2H16h0.7c2.1,0,4.1,0,4.8,1.2c0.1,0.1,0.2,0.3,0.2,0.5v0.1
				c0.1,0.2,0.1,0.4,0.1,0.6c0,0.2,0,0.5-0.1,0.7l0,0c-0.7,2-4.5,5.1-5.2,5.8C16.3,13,16.2,13,16,13z M14.7,5.5
				c-1.4,0-2.8,0.1-3.1,0.6c0,0,0,0.1-0.1,0.1c0,0.1,0,0.2,0,0.3c0,0,0,0.1,0,0.2c0.5,1.2,2.8,3.4,4.5,4.8c1.6-1.3,3.9-3.5,4.4-4.8
				c0.1-0.2,0.1-0.3,0.1-0.3c0-0.1,0-0.2,0-0.2c0-0.1,0-0.1-0.1-0.2c-0.4-0.6-2.1-0.6-3.6-0.6h-0.7h-0.7C15.2,5.5,14.9,5.5,14.7,5.5
				z M21,6.9L21,6.9L21,6.9z"/>
		</g>
	</g>
	<g>
		<g>
			<g>
				<path class="st0" d="M8,22.7l1.9-3c0.1-0.2,0.1-0.4,0.1-0.6c-0.1-0.2-0.2-0.4-0.4-0.5l-3.2-1.4l4.1-8.4c0-0.1,0.1-0.2,0.1-0.3
					s0-0.3,0-0.4c0-0.4-0.3-0.7-0.7-0.7c-0.1,0-0.3,0-0.4,0.1l-8.1,4.1c-0.2,0.1-0.4,0.4-0.4,0.7v20.9c0,0.4,0.3,0.7,0.7,0.7h9
					c0.2,0,0.5-0.1,0.6-0.3c0.1-0.2,0.2-0.5,0.1-0.7L8,22.7z"/>
			</g>
		</g>
		<g>
			<g>
				<path class="st0" d="M30.5,11.7l-8-4.1c-0.1-0.1-0.2-0.1-0.4-0.1c-0.4,0-0.7,0.4-0.7,0.7c0,0.1,0,0.2,0,0.4c0,0.1,0,0.2,0.1,0.3
					l4.1,8.4l-3.2,1.4c-0.2,0.1-0.3,0.3-0.4,0.5c-0.1,0.2,0,0.4,0.1,0.6l1.9,3L20.6,33c-0.1,0.2,0,0.5,0.1,0.7
					c0.1,0.2,0.4,0.3,0.6,0.3h9c0.4,0,0.7-0.3,0.7-0.7V12.4C30.9,12.1,30.7,11.8,30.5,11.7z"/>
			</g>
		</g>
		<g>
			<g>
				<path class="st0" d="M20.4,14.5c0,0-0.9-0.7-2-1.4c-0.2-0.1-0.4-0.2-0.6-0.1c-0.2,0.1-0.4,0.2-0.5,0.4l-1,2
					c-0.1,0.1-0.1,0.3-0.1,0.4l1.6,11.6c0.1,0.4,0.4,0.6,0.7,0.6l0,0c0.4,0,0.7-0.3,0.7-0.7l1.5-12.1C20.7,14.9,20.6,14.7,20.4,14.5
					z"/>
			</g>
		</g>
		<g>
			<g>
				<path class="st0" d="M14.6,13.3c-0.1-0.2-0.3-0.3-0.5-0.4c-0.2-0.1-0.4,0-0.6,0.1c-0.9,0.7-2,1.4-2,1.4
					c-0.2,0.2-0.3,0.4-0.3,0.7l1.4,12.3c0,0.4,0.4,0.7,0.7,0.7l0,0c0.4,0,0.7-0.3,0.7-0.6l1.6-11.6c0-0.2,0-0.3-0.1-0.4L14.6,13.3z"
					/>
			</g>
		</g>
	</g>
</g>
</svg>
