<?xml version="1.0" encoding="utf-8"?>
<!-- Generator: Adobe Illustrator 23.0.1, SVG Export Plug-In . SVG Version: 6.00 Build 0)  -->
<svg version="1.1" id="Calque_1" xmlns="http://www.w3.org/2000/svg" xmlns:xlink="http://www.w3.org/1999/xlink" x="0px" y="0px"
	 viewBox="0 0 32 40" style="enable-background:new 0 0 32 40;" xml:space="preserve">
<style type="text/css">
	.st0{fill:#FFFFFF;}
</style>
<g>
	<path class="st0" d="M10,16.6h12h1h2v-12c0-2-1.3-3.6-3-3.6H10C8.3,1,7,2.6,7,4.6v12h2H10z"/>
	<path class="st0" d="M28,17.7h-2h-1H7H6H4c-0.5,0-1,0.6-1,1.2v4.8c0,0.6,0.5,1.2,1,1.2h2.5H8l1.8,1.2l3.2,2.2l1,0.7l-1,0.7l-7.5,5
		c-0.5,0.2-0.6,1-0.4,1.6c0.2,0.4,0.6,0.6,0.9,0.6c0.2,0,0.3,0,0.5-0.1L15,31l1-0.7l1,0.7l8.4,5.6c0.3,0.2,0.4,0.2,0.6,0.2
		c0.3,0,0.7-0.2,0.9-0.6c0.3-0.6,0.1-1.3-0.4-1.7l-7.4-4.9l-1-0.7l1-0.7l3.3-2.2l1.8-1.2h1.5H28c0.5,0,1-0.6,1-1.2v-4.8
		C29,18.3,28.5,17.7,28,17.7z M18.3,26.1L17.1,27l-1,0.7l-1-0.7l-1.3-0.8L12,24.9h2h4h2.1L18.3,26.1z"/>
</g>
</svg>
