<?xml version="1.0" encoding="utf-8"?>
<!-- Generator: Adobe Illustrator 23.0.1, SVG Export Plug-In . SVG Version: 6.00 Build 0)  -->
<svg version="1.1" id="Calque_1" xmlns="http://www.w3.org/2000/svg" xmlns:xlink="http://www.w3.org/1999/xlink" x="0px" y="0px"
	 viewBox="0 0 100 125" style="enable-background:new 0 0 100 125;" xml:space="preserve">
<style type="text/css">
	.st0{fill-rule:evenodd;clip-rule:evenodd;fill:#FFFFFF;}
</style>
<path class="st0" d="M79.6,95.4l-4-1.5c-1.6,3.4-2.5,5.3-3.9,7.3c1.2,0.5,2.3,1,3.1,1.8C76.5,101.3,78.8,97.5,79.6,95.4L79.6,95.4z
	 M79.6,27.8l-4,1.5C74,25.9,73,24,71.6,22c1.2-0.5,2.3-1,3.1-1.8C76.5,21.8,78.8,25.6,79.6,27.8L79.6,27.8z M22.3,27.8l4,1.5
	c1.6-3.4,2.5-5.3,3.9-7.3c-1.2-0.5-2.3-1-3.1-1.8C25.4,21.8,23.1,25.6,22.3,27.8L22.3,27.8z M31.3,15.6c0.6,0.4,2.1,0.8,2.9,1.3
	c2.7-2.8,5-4.8,8.1-5C39.6,9.9,34.8,12.4,31.3,15.6L31.3,15.6z M17.3,5c2.9,5.7,9.8,9.8,18.5,13.1c6.7,2.5,13.1,11.4,12.6,19.6
	c-1.6-3.5-5.7-4-6.2-0.9c-0.5,3,3.1,7,6,8.3c1.3,0.5,2.2,1.5,2.8,2.8c0.6-1.3,1.6-2.3,2.8-2.8c2.9-1.3,6.5-5.2,6-8.3
	s-4.6-2.6-6.2,0.9c-0.5-8.3,5.9-17.1,12.6-19.6c8.7-3.3,15.6-7.4,18.5-13.1c-0.3,6-6,12.3-10.1,14.7c-5,2.9-8.8,1.6-12.7,9.9
	c3-0.3,4.4,2.3,3.7,4.5c4.7-2.4,10.8-4,16.1-6.2c3.2-1.3,7.2-1.9,13.4-8.2C91.7,28.8,82.5,32.5,76,35.9c-1.6,0.8-5.1,1.9-6.6,4.9
	c1.6,0.1,3.2,2.8,3.2,4.9c2.2,0.1,6.7-4.9,5.4-9.7l3.9-2.1c2,6.8-0.1,14.5-7.3,17.2c-0.8,6-4.9,9.6-13.1,10.2
	c4.9-4.1,6.2-8.3,6-12.6c-0.5-9.1-10.6-1.6-12.9,4c-0.7,1.6-1.8,5.3-2.8,8.5c0.9,3.4,2.2,7,2.8,8.5c2.3,5.8,12.6,13.2,12.9,4
	c0.2-4.3-1.2-8.5-6-12.6c8.2,0.8,12.3,4.1,13.1,10.2c7.3,2.6,9.2,10.4,7.3,17.2L78,86.7c1.3-4.9-3.2-9.8-5.4-9.7
	c0,2.3-1.6,4.8-3.2,4.9c1.5,3,5.1,4.1,6.6,4.9c6.5,3.4,15.7,7.2,19.1,16.2c-6.2-6.3-10.2-6.9-13.4-8.2c-5.3-2.1-11.3-3.8-16.1-6.2
	c0.7,2.4-0.8,4.9-3.7,4.5c3.9,8.3,7.7,7,12.7,9.9c4,2.4,9.7,8.7,10.1,14.7c-2.9-5.7-9.8-9.8-18.5-13.1c-6.7-2.5-13.1-11.4-12.6-19.6
	c1.6,3.5,5.7,4,6.2,0.9c0.5-3-3.1-7-6-8.3c-1.3-0.5-2.2-1.5-2.8-2.8c-0.6,1.3-1.6,2.3-2.8,2.8c-2.9,1.3-6.5,5.2-6,8.3
	c0.5,3.1,4.6,2.6,6.2-0.9c0.5,8.3-5.9,17.1-12.6,19.6c-8.7,3.3-15.6,7.4-18.5,13.1c0.3-6,6-12.3,10.1-14.7c5-2.9,8.8-1.6,12.7-9.9
	c-3,0.3-4.4-2.3-3.7-4.5c-4.7,2.4-10.8,4-16.1,6.2c-3.2,1.3-7.2,1.9-13.4,8.2c3.4-9,12.6-12.8,19.1-16.2c1.6-0.8,5.1-1.9,6.6-4.9
	c-1.6-0.1-3.2-2.8-3.2-4.9c-2.2-0.1-6.7,4.9-5.4,9.7l-4,2.2c-2-6.8,0.1-14.5,7.3-17.2c0.8-6,4.9-9.6,13.1-10.2
	c-4.9,4.1-6.2,8.3-6,12.6c0.5,9.1,10.6,1.6,12.9-4c0.7-1.6,1.8-5.3,2.8-8.5c-0.9-3.4-2.2-7-2.8-8.5c-2.3-5.8-12.6-13.2-12.9-4
	c-0.2,4.3,1.2,8.5,6,12.6c-8.2-0.8-12.3-4.1-13.1-10.2C20,48.6,18,40.8,20,34l3.9,2.1c-1.3,4.9,3.2,9.8,5.4,9.7
	c0-2.3,1.6-4.8,3.2-4.9c-1.5-3-5.1-4.1-6.6-4.9c-6.5-3.4-15.7-7.2-19.1-16.2C13,26.1,17,26.7,20.2,28c5.3,2.1,11.3,3.8,16.1,6.2
	c-0.7-2.4,0.8-4.9,3.7-4.5c-3.9-8.3-7.7-7-12.7-9.9C23.3,17.3,17.7,11,17.3,5L17.3,5z M70.6,15.6c-3.5-3-8.3-5.7-11-3.8
	c3.1,0.3,5.4,2.3,8.1,5C68.5,16.3,70,15.9,70.6,15.6L70.6,15.6z M22.3,95.4c0.8,2.1,3.2,6,4.9,7.5c0.8-0.8,2-1.1,3.1-1.8
	c-1.4-2-2.3-3.9-3.9-7.3L22.3,95.4L22.3,95.4z M31.3,107.6c3.5,3,8.3,5.7,11,3.8c-3.1-0.3-5.4-2.3-8.1-5
	C33.4,106.8,31.9,107.2,31.3,107.6L31.3,107.6z M70.6,107.6c-0.6-0.4-2.1-0.8-2.9-1.3c-2.7,2.8-5,4.8-8.1,5
	C62.3,113.2,67.1,110.7,70.6,107.6z"/>
</svg>
