<?xml version="1.0" encoding="utf-8"?>
<!-- Generator: Adobe Illustrator 23.0.1, SVG Export Plug-In . SVG Version: 6.00 Build 0)  -->
<svg version="1.1" id="Calque_1" xmlns="http://www.w3.org/2000/svg" xmlns:xlink="http://www.w3.org/1999/xlink" x="0px" y="0px"
	 viewBox="0 0 100 125" style="enable-background:new 0 0 100 125;" xml:space="preserve">
<style type="text/css">
	.st0{fill:#FFFFFF;}
</style>
<g>
	<path class="st0" d="M34.9,8.7L34.9,8.7L34.9,8.7L34.9,8.7L35,26.9c0,0.1,0,0.3,0,0.4l0,0v0.2l0,0l0,0l0.4,57.4l31.9-0.4l-0.4-52.3
		l0,0L66.8,8.3l0,0c0-2-1.3-3.6-2.9-3.6S61,6.4,61,8.4l0,0v3.4C58.2,9,54.7,7.3,50.8,7.3S43.4,9.1,40.7,12V8.6l0,0
		c0-2-1.3-3.6-2.9-3.6C36.1,5,34.9,6.7,34.9,8.7L34.9,8.7z"/>
	<polygon class="st0" points="71.7,75.7 71.8,88.6 31,89 31,76.2 20,76.3 20.3,118.9 31.3,118.8 31.2,116.3 72,115.8 72,118.3 
		83,118.2 82.7,75.6 	"/>
	<path class="st0" d="M82.7,74c0-3.9-2.5-7-5.6-6.9c-3.1,0-5.5,3.2-5.5,7L82.7,74z"/>
	<path class="st0" d="M25.3,67.6c-3.1,0-5.5,3.2-5.5,7l11.1-0.1C30.9,70.7,28.4,67.6,25.3,67.6z"/>
</g>
</svg>
