<?xml version="1.0" encoding="utf-8"?>
<!-- Generator: Adobe Illustrator 23.0.1, SVG Export Plug-In . SVG Version: 6.00 Build 0)  -->
<svg version="1.1"
	 id="Calque_1" xmlns:cc="http://creativecommons.org/ns#" xmlns:dc="http://purl.org/dc/elements/1.1/" xmlns:inkscape="http://www.inkscape.org/namespaces/inkscape" xmlns:rdf="http://www.w3.org/1999/02/22-rdf-syntax-ns#" xmlns:sodipodi="http://sodipodi.sourceforge.net/DTD/sodipodi-0.dtd" xmlns:svg="http://www.w3.org/2000/svg"
	 xmlns="http://www.w3.org/2000/svg" xmlns:xlink="http://www.w3.org/1999/xlink" x="0px" y="0px" viewBox="0 0 100 125"
	 style="enable-background:new 0 0 100 125;" xml:space="preserve">
<style type="text/css">
	.st0{fill:#FFFFFF;}
</style>
<g transform="translate(0,-952.36216)">
	<path class="st0" d="M50,957.4c-1.7,0-3.1,1.2-3.1,2.7c0,1.1,0.8,2.1,2,2.5c-1,2.8-2.6,6.2-4.7,6.5c-1.6,0.2-3-1-4-2.3
		c0.8-0.5,1.3-1.3,1.3-2.2c0-1.5-1.4-2.7-3.1-2.7c-1.7,0-3.1,1.2-3.1,2.7c0,1.1,0.8,2.1,2,2.5c-1,2.8-2.6,6.2-4.7,6.5
		c-1.6,0.2-3-1-4-2.3c0.8-0.5,1.3-1.3,1.3-2.2c0-1.5-1.4-2.7-3.1-2.7s-3.1,1.2-3.1,2.7s1.4,2.7,3.1,2.7v10.4v25v25.3h45.5v-50.4
		v-10.4c1.7,0,3.1-1.2,3.1-2.7s-1.4-2.7-3.1-2.7s-3.1,1.2-3.1,2.7c0,0.9,0.5,1.7,1.3,2.2c-1,1.3-2.3,2.5-4,2.3
		c-2.1-0.3-3.7-3.7-4.7-6.5c1.2-0.4,2-1.4,2-2.5c0-1.5-1.4-2.7-3.1-2.7c-1.7,0-3.1,1.2-3.1,2.7c0,0.9,0.5,1.7,1.3,2.2
		c-1,1.3-2.3,2.5-4,2.3c-2.1-0.3-3.7-3.7-4.7-6.5c1.2-0.4,2-1.4,2-2.5C53.1,958.6,51.7,957.4,50,957.4L50,957.4z M38.6,977.9
		c1.7,0,3.1,1.2,3.1,2.7s-1.4,2.7-3.1,2.7s-3.1-1.2-3.1-2.7C35.6,979.1,36.9,977.9,38.6,977.9z M50,977.9c1.7,0,3.1,1.2,3.1,2.7
		s-1.4,2.7-3.1,2.7c-1.7,0-3.1-1.2-3.1-2.7C46.9,979.1,48.3,977.9,50,977.9z M61.4,977.9c1.7,0,3.1,1.2,3.1,2.7s-1.4,2.7-3.1,2.7
		c-1.7,0-3.1-1.2-3.1-2.7C58.3,979.1,59.7,977.9,61.4,977.9z M13.7,1021.7c-2.6,0-5,0.9-6.8,2.5c-2.8,2.5-3.6,6.2-2.1,9.4
		c1.3,2.8,4.2,4.7,7.5,5.2v6.3v12.4v14.8h11.2v-14.8v-12.4v-14.8c0-3.5-2.4-6.6-6-7.9C16.3,1021.9,15,1021.7,13.7,1021.7
		L13.7,1021.7z M86.3,1021.7c-1.3,0-2.6,0.2-3.8,0.7c-3.6,1.3-6,4.5-6,7.9v14.8v12.4v14.8h11.2v-14.8v-12.4v-6.3
		c3.4-0.4,6.2-2.4,7.5-5.2c1.5-3.2,0.7-6.9-2.1-9.4C91.3,1022.6,88.9,1021.7,86.3,1021.7L86.3,1021.7z M32.6,1035.8
		c-4.1,0-5.3,2.9-5.3,6.6h45.5c0-3.6-1.7-6.6-5.9-6.6H32.6z M27.2,1045.7v26.5h45.5v-26.5H27.2z"/>
</g>
</svg>
