<?xml version="1.0" encoding="utf-8"?>
<!-- Generator: Adobe Illustrator 22.1.0, SVG Export Plug-In . SVG Version: 6.00 Build 0)  -->
<svg version="1.1" id="Calque_1" xmlns="http://www.w3.org/2000/svg" xmlns:xlink="http://www.w3.org/1999/xlink" x="0px" y="0px"
	 viewBox="0 0 144.6 57.4" style="enable-background:new 0 0 144.6 57.4;" xml:space="preserve">
<style type="text/css">
	.st0{stroke:#FFFFFF;stroke-width:4;stroke-miterlimit:10;}
	.st1{fill:#FFFFFF;}
</style>
<g id="Calque_1_1_">
	<rect x="-0.8" y="-0.4" width="145.4" height="58"/>
</g>
<g id="Calque_2_1_">
	<path class="st0" d="M104,49.7H44.7c-11.7,0-21.2-9.6-21.2-21.2l0,0c0-11.7,9.6-21.2,21.2-21.2H104c11.7,0,21.2,9.6,21.2,21.2l0,0
		C125.2,40.1,115.7,49.7,104,49.7z"/>
	<polygon class="st1" points="72,49.1 72,7.5 105.6,7.2 113.9,9.5 119.6,14.2 122.9,20 125.2,28.4 125.2,33 122,39.7 117,45.9 
		111,48.4 102.2,49 92.7,49.6 80.2,49.3 	"/>
</g>
</svg>
