<?xml version="1.0" encoding="utf-8"?>
<!-- Generator: Adobe Illustrator 22.0.0, SVG Export Plug-In . SVG Version: 6.00 Build 0)  -->
<svg version="1.1" xmlns="http://www.w3.org/2000/svg" xmlns:xlink="http://www.w3.org/1999/xlink" x="0px" y="0px"
	 viewBox="0 0 34.4 30.6" style="enable-background:new 0 0 34.4 30.6;" xml:space="preserve">
<style type="text/css">
	.st0{fill:#FFFFFF;}
	.st1{fill:#fff;}
	.st2{fill:none;stroke:#fff;stroke-width:1.5;stroke-miterlimit:10;}
	.st3{fill:none;stroke:#fff;stroke-miterlimit:10;}
	.st4{fill:none;stroke:#fff;stroke-width:4;stroke-miterlimit:10;}
	.st5{fill:#fff;stroke:#fff;stroke-miterlimit:10;}
	.st6{fill:none;stroke:#fff;stroke-width:1.5;stroke-miterlimit:10;stroke-dasharray:13.7026,1.827;}
	.st7{fill:none;stroke:#fff;stroke-width:1.5;stroke-miterlimit:10;stroke-dasharray:9.7848,1.957;}
	.st8{fill:none;stroke:#fff;stroke-width:1.5;stroke-miterlimit:10;stroke-dasharray:9.1188,1.8238;}
	.st9{fill:none;stroke:#fff;stroke-miterlimit:10;stroke-dasharray:9.1188,1.8238;}
	.st10{fill:none;stroke:#fff;stroke-width:1.5;stroke-miterlimit:10;stroke-dasharray:9.5848,1.917;}
	.st11{fill:none;stroke:#fff;stroke-width:1.5;stroke-miterlimit:10;stroke-dasharray:10.6847,2.1369;}
	.st12{fill:none;}
</style>
<g id="Calque_2">
	<rect x="-432.9" y="6.4" class="st0" width="37" height="34.6"/>
	<rect x="-432.9" y="41.1" class="st0" width="37" height="34.6"/>
	<rect x="-396.4" y="41.1" class="st0" width="34.6" height="34.6"/>
	<rect x="-432.8" y="-97.5" class="st0" width="277" height="34.6"/>
	<rect x="-432.8" y="-62.9" class="st0" width="277" height="34.6"/>
	<rect x="-432.8" y="-28.3" class="st0" width="105.3" height="34.6"/>
	<rect x="-327.5" y="-28.3" class="st0" width="105.3" height="34.6"/>
	<rect x="-327.5" y="6.4" class="st0" width="34.6" height="34.6"/>
	<rect x="-327.5" y="40.6" class="st0" width="34.6" height="34.6"/>
	<rect x="-223" y="40.6" class="st0" width="34.6" height="34.6"/>
	<rect x="-223" y="75.3" class="st0" width="34.6" height="34.6"/>
	<rect x="-258.1" y="75.3" class="st0" width="34.6" height="34.6"/>
	<rect x="-327.2" y="75.3" class="st0" width="34.6" height="34.6"/>
	<rect x="-327.2" y="110.1" class="st0" width="34.6" height="34.6"/>
	<rect x="-292.8" y="110.1" class="st0" width="34.6" height="34.6"/>
	<rect x="-223.5" y="110.1" class="st0" width="34.6" height="34.6"/>
	<rect x="-223.5" y="142.6" class="st0" width="34.6" height="34.6"/>
	<rect x="-223.5" y="175" class="st0" width="34.6" height="34.6"/>
	<rect x="-327.7" y="175" class="st0" width="34.6" height="34.6"/>
	<rect x="-361.5" y="175" class="st0" width="34.6" height="34.6"/>
	<rect x="-223.4" y="244.6" class="st0" width="34.6" height="34.6"/>
	<rect x="-223.4" y="280.8" class="st0" width="34.6" height="34.6"/>
	<rect x="-292.8" y="244.6" class="st0" width="34.6" height="34.6"/>
	<rect x="-326.7" y="244.6" class="st0" width="34.6" height="34.6"/>
	<rect x="-326.7" y="314.4" class="st0" width="34.6" height="34.6"/>
	<rect x="-258" y="314.4" class="st0" width="34.6" height="34.6"/>
	<rect x="-258" y="349.4" class="st0" width="34.6" height="34.6"/>
	<rect x="-292.2" y="349.4" class="st0" width="34.6" height="34.6"/>
	<rect x="-327.1" y="349.4" class="st0" width="34.6" height="34.6"/>
	<rect x="-361.4" y="314.2" class="st0" width="34.6" height="34.6"/>
	<rect x="-433.1" y="209.7" class="st0" width="277.3" height="34.6"/>
	<rect x="-433.1" y="384.9" class="st0" width="277.3" height="34.6"/>
	<rect x="-327.7" y="144.9" class="st0" width="34.6" height="34.6"/>
	<rect x="-360.8" y="144.9" class="st0" width="33.1" height="30.2"/>
	<rect x="-292.8" y="6.4" class="st0" width="34.6" height="34.6"/>
	<rect x="-257.7" y="6.4" class="st0" width="34.6" height="34.6"/>
	<rect x="-360.7" y="74.6" class="st0" width="33.2" height="34.6"/>
	<rect x="-222.6" y="-28.3" class="st0" width="67.2" height="34.6"/>
	<rect x="41.7" y="195.5" class="st0" width="34.4" height="30.5"/>
	<rect x="0" y="117" class="st0" width="34.4" height="30.5"/>
	<rect x="41.7" y="39.1" class="st0" width="34.4" height="30.5"/>
	<rect x="-40.7" y="39.1" class="st0" width="34.4" height="30.5"/>
	<rect x="166.9" y="41.7" class="st0" width="37" height="34.6"/>
	<rect x="203.4" y="41.7" class="st0" width="34.6" height="34.6"/>
	<rect x="167" y="-96.8" class="st0" width="277" height="34.6"/>
	<rect x="167" y="-62.2" class="st0" width="277" height="34.6"/>
	<rect x="167" y="-27.6" class="st0" width="105.3" height="34.6"/>
	<rect x="272.3" y="-27.6" class="st0" width="105.3" height="34.6"/>
	<rect x="272.3" y="7" class="st0" width="34.6" height="34.6"/>
	<rect x="272.3" y="41.3" class="st0" width="34.6" height="34.6"/>
	<rect x="376.8" y="41.3" class="st0" width="34.6" height="34.6"/>
	<rect x="376.8" y="76" class="st0" width="34.6" height="34.6"/>
	<rect x="341.7" y="76" class="st0" width="34.6" height="34.6"/>
	<rect x="272.6" y="76" class="st0" width="34.6" height="34.6"/>
	<rect x="272.6" y="110.7" class="st0" width="34.6" height="34.6"/>
	<rect x="307" y="110.7" class="st0" width="34.6" height="34.6"/>
	<rect x="376.3" y="110.7" class="st0" width="34.6" height="34.6"/>
	<rect x="376.3" y="143.3" class="st0" width="34.6" height="34.6"/>
	<rect x="376.3" y="175.7" class="st0" width="34.6" height="34.6"/>
	<rect x="272.1" y="175.7" class="st0" width="34.6" height="34.6"/>
	<rect x="238.3" y="175.7" class="st0" width="34.6" height="34.6"/>
	<rect x="376.4" y="245.3" class="st0" width="34.6" height="34.6"/>
	<rect x="376.4" y="281.4" class="st0" width="34.6" height="34.6"/>
	<rect x="307" y="245.3" class="st0" width="34.6" height="34.6"/>
	<rect x="273.1" y="245.3" class="st0" width="34.6" height="34.6"/>
	<rect x="273.1" y="315.1" class="st0" width="34.6" height="34.6"/>
	<rect x="341.7" y="315.1" class="st0" width="34.6" height="34.6"/>
	<rect x="341.7" y="350.1" class="st0" width="34.6" height="34.6"/>
	<rect x="307.6" y="350.1" class="st0" width="34.6" height="34.6"/>
	<rect x="272.6" y="350.1" class="st0" width="34.6" height="34.6"/>
	<rect x="238.3" y="314.9" class="st0" width="34.6" height="34.6"/>
	<rect x="166.7" y="210.3" class="st0" width="277.3" height="34.6"/>
	<rect x="166.7" y="385.6" class="st0" width="277.3" height="34.6"/>
	<rect x="272.1" y="145.5" class="st0" width="34.6" height="34.6"/>
	<rect x="239" y="145.5" class="st0" width="33.1" height="30.2"/>
	<rect x="342.1" y="7" class="st0" width="34.6" height="34.6"/>
	<rect x="239.1" y="75.3" class="st0" width="33.2" height="34.6"/>
	<rect x="377.2" y="-27.6" class="st0" width="67.2" height="34.6"/>
	<circle class="st1" cx="-52.3" cy="93.4" r="2.2"/>
	<circle class="st2" cx="-66.3" cy="93" r="9.5"/>
	<line class="st3" x1="-21" y1="81.8" x2="-34.2" y2="95"/>
	<line class="st3" x1="-16.2" y1="86.5" x2="-29.4" y2="99.8"/>
	<line class="st3" x1="-11.6" y1="91.2" x2="-24.8" y2="104.4"/>
	<line class="st3" x1="-11.5" y1="96" x2="-26" y2="81.5"/>
	<line class="st3" x1="-16.3" y1="100.7" x2="-30.8" y2="86.2"/>
	<line class="st3" x1="-20.9" y1="105.4" x2="-35.4" y2="90.9"/>
	<g>
		<g>
			<path class="st2" d="M-31,179.2l-0.2-10.5c-0.1-4.9,3.3-7,7.6-4.6l7.8,4.2"/>
			<g>
				<polygon class="st1" points="-23.1,171.4 -23.5,169.9 -16.4,168 -18.8,161 -17.3,160.6 -14.4,169.1 				"/>
			</g>
		</g>
	</g>
	<circle class="st1" cx="28" cy="180.7" r="2.2"/>
	<polyline class="st2" points="24.1,157.6 24.1,177.8 4,177.8 	"/>
</g>
<g id="Calque_1">
	<rect x="-434.7" y="-99.5" class="st4" width="276.9" height="517.4"/>
	<line class="st4" x1="-329.5" y1="208.3" x2="-329.5" y2="-30.3"/>
	<line class="st4" x1="-224.6" y1="208.3" x2="-224.6" y2="-30.3"/>
	<line class="st3" x1="-260.1" y1="208.3" x2="-260.1" y2="4.4"/>
	<line class="st3" x1="-190.8" y1="208.3" x2="-190.8" y2="4.4"/>
	<line class="st3" x1="-294.8" y1="208.3" x2="-294.8" y2="4.4"/>
	<line class="st3" x1="-363.2" y1="208.3" x2="-363.2" y2="4.4"/>
	<line class="st3" x1="-397.9" y1="208.3" x2="-397.9" y2="4.4"/>
	<line class="st3" x1="-363.2" y1="381.8" x2="-363.2" y2="245.1"/>
	<line class="st3" x1="-397.9" y1="381.8" x2="-397.9" y2="245.1"/>
	<line class="st3" x1="-294.8" y1="381.8" x2="-294.8" y2="245.1"/>
	<line class="st4" x1="-329.5" y1="381.8" x2="-329.5" y2="245.1"/>
	<line class="st4" x1="-225.5" y1="381.8" x2="-225.5" y2="245.1"/>
	<line class="st3" x1="-190.8" y1="381.8" x2="-190.8" y2="245.1"/>
	<line class="st3" x1="-260.1" y1="381.8" x2="-260.1" y2="245.1"/>
	<line class="st4" x1="-434.7" y1="-64.9" x2="-157.8" y2="-64.9"/>
	<line class="st4" x1="-434.7" y1="-30.3" x2="-157.8" y2="-30.3"/>
	<line class="st4" x1="-434.7" y1="4.4" x2="-157.8" y2="4.4"/>
	<line class="st4" x1="-434.7" y1="39" x2="-157.8" y2="39"/>
	<line class="st4" x1="-434.7" y1="73.6" x2="-157.8" y2="73.6"/>
	<line class="st4" x1="-434.7" y1="108.2" x2="-157.8" y2="108.2"/>
	<line class="st4" x1="-434.7" y1="142.8" x2="-157.8" y2="142.8"/>
	<line class="st4" x1="-434.7" y1="174.6" x2="-157.8" y2="174.6"/>
	<line class="st4" x1="-434.7" y1="208.3" x2="-157.8" y2="208.3"/>
	<line class="st4" x1="-434.7" y1="243" x2="-157.8" y2="243"/>
	<line class="st4" x1="-434.7" y1="277.7" x2="-157.8" y2="277.7"/>
	<line class="st4" x1="-434.7" y1="312.4" x2="-157.8" y2="312.4"/>
	<line class="st4" x1="-434.7" y1="347.1" x2="-157.8" y2="347.1"/>
	<line class="st4" x1="-434.7" y1="381.8" x2="-157.8" y2="381.8"/>
	<rect x="-434.7" y="-89.9" class="st12" width="279" height="100"/>
	<text transform="matrix(1 0 0 1 -340.7134 -75.6072)" class="st1" style="font-family:'Plain-Medium'; font-size:20px;">IOF Event </text>
	<rect x="-434.7" y="-57.2" class="st12" width="279" height="100"/>
	<text transform="matrix(1 0 0 1 -368.9839 -42.9123)" class="st1" style="font-family:'Plain-Medium'; font-size:20px;">M45, M50, W21</text>
	<rect x="-434.7" y="-22.3" class="st12" width="105.2" height="100"/>
	<text transform="matrix(1 0 0 1 -387.9429 -8.0397)" class="st1" style="font-family:'Plain-Medium'; font-size:20px;">5</text>
	<rect x="-434.7" y="46.8" class="st12" width="36.8" height="27.5"/>
	<text transform="matrix(1 0 0 1 -422.1685 61.0901)" class="st1" style="font-family:'Plain-Medium'; font-size:20px;">1</text>
	<rect x="-434.7" y="81.2" class="st12" width="36.8" height="27.5"/>
	<text transform="matrix(1 0 0 1 -422.1685 95.5022)" class="st1" style="font-family:'Plain-Medium'; font-size:20px;">2</text>
	<rect x="-434.7" y="115.4" class="st12" width="36.8" height="27.5"/>
	<text transform="matrix(1 0 0 1 -422.1685 129.6577)" class="st1" style="font-family:'Plain-Medium'; font-size:20px;">3</text>
	<rect x="-434.7" y="151.3" class="st12" width="36.8" height="27.5"/>
	<text transform="matrix(1 0 0 1 -422.1685 165.6305)" class="st1" style="font-family:'Plain-Medium'; font-size:20px;">4</text>
	<rect x="-434.7" y="184.6" class="st12" width="36.8" height="27.5"/>
	<text transform="matrix(1 0 0 1 -422.1685 198.8593)" class="st1" style="font-family:'Plain-Medium'; font-size:20px;">5</text>
	<rect x="-399.5" y="48.8" class="st12" width="36.8" height="27.5"/>
	<text transform="matrix(1 0 0 1 -396.9051 61.6604)" class="st1" style="font-family:'Plain-Medium'; font-size:18px;">101</text>
	<rect x="-399.5" y="82.2" class="st12" width="36.8" height="27.5"/>
	<text transform="matrix(1 0 0 1 -396.5457 95.0725)" class="st1" style="font-family:'Plain-Medium'; font-size:18px;">242</text>
	<rect x="-400.5" y="118.4" class="st12" width="36.8" height="27.5"/>
	<text transform="matrix(1 0 0 1 -397.9051 131.228)" class="st1" style="font-family:'Plain-Medium'; font-size:18px;">135</text>
	<rect x="-400.5" y="151.3" class="st12" width="36.8" height="27.5"/>
	<text transform="matrix(1 0 0 1 -397.5457 164.2008)" class="st1" style="font-family:'Plain-Medium'; font-size:18px;">246</text>
	<rect x="-400.5" y="184.6" class="st12" width="36.8" height="27.5"/>
	<text transform="matrix(1 0 0 1 -397.9051 197.4296)" class="st1" style="font-family:'Plain-Medium'; font-size:18px;">164</text>
	<rect x="-323" y="220.4" class="st12" width="62.9" height="27.5"/>
	<text transform="matrix(1 0 0 1 -320.9274 234.6767)" class="st1" style="font-family:'Plain-Medium'; font-size:20px;">120 m</text>
	<rect x="-328" y="392" class="st12" width="62.9" height="27.5"/>
	<text transform="matrix(1 0 0 1 -325.9655 406.3301)" class="st1" style="font-family:'Plain-Medium'; font-size:20px;">250 m</text>
	<rect x="-434.7" y="253.8" class="st12" width="36.8" height="27.5"/>
	<text transform="matrix(1 0 0 1 -422.1685 268.0608)" class="st1" style="font-family:'Plain-Medium'; font-size:20px;">6</text>
	<rect x="-434.7" y="289.9" class="st12" width="36.8" height="27.5"/>
	<text transform="matrix(1 0 0 1 -422.1685 304.2163)" class="st1" style="font-family:'Plain-Medium'; font-size:20px;">7</text>
	<rect x="-434.7" y="324.9" class="st12" width="36.8" height="27.5"/>
	<text transform="matrix(1 0 0 1 -422.1685 339.1891)" class="st1" style="font-family:'Plain-Medium'; font-size:20px;">8</text>
	<rect x="-434.7" y="359.1" class="st12" width="36.8" height="27.5"/>
	<text transform="matrix(1 0 0 1 -422.1685 373.4179)" class="st1" style="font-family:'Plain-Medium'; font-size:20px;">9</text>
	<rect x="-399.5" y="253.8" class="st12" width="36.8" height="27.5"/>
	<text transform="matrix(1 0 0 1 -396.9051 266.6311)" class="st1" style="font-family:'Plain-Medium'; font-size:18px;">185</text>
	<rect x="-400.5" y="289.9" class="st12" width="36.8" height="27.5"/>
	<text transform="matrix(1 0 0 1 -397.9051 302.7866)" class="st1" style="font-family:'Plain-Medium'; font-size:18px;">178</text>
	<rect x="-400.5" y="324.9" class="st12" width="36.8" height="27.5"/>
	<text transform="matrix(1 0 0 1 -397.9051 337.7594)" class="st1" style="font-family:'Plain-Medium'; font-size:18px;">147</text>
	<rect x="-399.5" y="358.1" class="st12" width="36.8" height="27.5"/>
	<text transform="matrix(1 0 0 1 -396.9051 370.9882)" class="st1" style="font-family:'Plain-Medium'; font-size:18px;">179</text>
	<rect x="-329.5" y="-22.3" class="st12" width="105.2" height="100"/>
	<text transform="matrix(1 0 0 1 -305.9537 -8.0397)" class="st1" style="font-family:'Plain-Medium'; font-size:20px;">7.6km</text>
	<rect x="-224.6" y="-22.3" class="st12" width="68.9" height="100"/>
	<text transform="matrix(1 0 0 1 -217.0009 -8.0397)" class="st1" style="font-family:'Plain-Medium'; font-size:20px;">210m</text>
	<line class="st2" x1="-299.1" y1="7.3" x2="-323.7" y2="31.9"/>
	<g>
		<g>
			<line class="st2" x1="-335.7" y1="98.8" x2="-354.1" y2="80.4"/>
			<g>
				<polygon class="st1" points="-346.2,79.6 -346.3,81.1 -353.7,80.8 -353.4,88.2 -354.9,88.2 -355.2,79.2 				"/>
			</g>
		</g>
	</g>
	<path class="st3" d="M-334.7,101.3"/>
	<line class="st2" x1="-231.5" y1="8.7" x2="-253.2" y2="30.4"/>
	<line class="st2" x1="-242.3" y1="19.6" x2="-251.8" y2="10.1"/>
	<line class="st2" x1="-264.2" y1="7.3" x2="-288.8" y2="31.9"/>
	<circle class="st5" cx="-284.1" cy="27.2" r="2.2"/>
	<circle class="st5" cx="-346.5" cy="158" r="2.2"/>
	<circle class="st5" cx="-276.5" cy="19.6" r="2.2"/>
	<circle class="st5" cx="-269.5" cy="12.6" r="2.2"/>
	<circle class="st1" cx="-322.1" cy="43.5" r="2.2"/>
	<circle class="st1" cx="-317.1" cy="48.9" r="2.2"/>
	<circle class="st1" cx="-312.1" cy="54.2" r="2.2"/>
	<circle class="st1" cx="-306.6" cy="59.7" r="2.2"/>
	<circle class="st1" cx="-301.6" cy="64.7" r="2.2"/>
	<circle class="st1" cx="-195.3" cy="89" r="2.2"/>
	<circle class="st1" cx="-207.2" cy="124.2" r="2.2"/>
	<circle class="st1" cx="-201.5" cy="158.3" r="2.2"/>
	<circle class="st1" cx="-219.6" cy="192.9" r="2.2"/>
	<circle class="st1" cx="-197.6" cy="271.8" r="2.2"/>
	<polygon class="st2" points="-425.8,9 -405.2,20.6 -425.8,33.2 	"/>
	<polygon class="st2" points="-312.1,79.8 -301.4,97.4 -322.5,98.2 	"/>
	<polyline class="st2" points="-322.5,188.3 -322.5,180.3 -314.4,180.3 	"/>
	<polyline class="st2" points="-308.6,180.3 -300.6,180.3 -300.6,188.3 	"/>
	<polyline class="st2" points="-300.6,194.3 -300.6,202.3 -308.6,202.3 	"/>
	<polyline class="st2" points="-201.5,248.7 -201.5,268.8 -221.6,268.8 	"/>
	<polyline class="st2" points="-314.4,202.3 -322.5,202.3 -322.5,194.3 	"/>
	<polyline class="st3" points="-216.8,291.6 -220.8,291.6 -220.8,283.6 	"/>
	<line class="st2" x1="-356.2" y1="147" x2="-356.2" y2="169"/>
	<line class="st2" x1="-300.5" y1="326.7" x2="-322.6" y2="326.7"/>
	<line class="st2" x1="-346.5" y1="147" x2="-346.5" y2="169"/>
	<line class="st2" x1="-337.3" y1="147.3" x2="-337.3" y2="169.4"/>
	<g>
		<g>
			<line class="st2" x1="-357" y1="191.5" x2="-336.9" y2="191.5"/>
			<g>
				<polygon class="st1" points="-341.8,197.6 -342.8,196.5 -337.4,191.5 -342.8,186.5 -341.8,185.4 -335.2,191.5 				"/>
			</g>
		</g>
	</g>
	<line class="st2" x1="-219.6" y1="117.4" x2="-194.8" y2="117.4"/>
	<line class="st2" x1="-219.6" y1="132.3" x2="-194.8" y2="132.3"/>
	<path class="st2" d="M-203.9,64.9l-9-5.3c-4.2-2.5-4.2-6.4,0-8.9l9-5.3"/>
	<g>
		<g>
			<path class="st2" d="M-288.1,268.9l-0.2-10.5c-0.1-4.9,3.3-7,7.6-4.6l7.8,4.2"/>
			<g>
				<polygon class="st1" points="-280.3,261 -280.6,259.6 -273.5,257.7 -275.9,250.7 -274.4,250.2 -271.5,258.8 				"/>
			</g>
		</g>
	</g>
	<circle class="st2" cx="-209.3" cy="88.7" r="9.5"/>
	<circle class="st2" cx="-205.3" cy="192.5" r="9.5"/>
	<circle class="st2" cx="-397.9" cy="399.3" r="9.5"/>
	<circle class="st2" cx="-189.8" cy="399.3" r="9.5"/>
	<circle class="st2" cx="-205.3" cy="299" r="9.5"/>
	<circle class="st3" cx="-397.9" cy="226.5" r="9.5"/>
	<circle class="st2" cx="-207.9" cy="158.3" r="11.9"/>
	<circle class="st1" cx="-17.2" cy="132.1" r="2.2"/>
	<circle class="st2" cx="-23.6" cy="132.1" r="11.9"/>
	<circle class="st2" cx="-189.8" cy="399.3" r="11.9"/>
	<ellipse class="st2" cx="-311.9" cy="158.4" rx="11.9" ry="6.9"/>
	<line class="st3" x1="-309.8" y1="112.2" x2="-323" y2="125.4"/>
	<line class="st3" x1="-305.1" y1="117" x2="-318.3" y2="130.2"/>
	<line class="st3" x1="-300.4" y1="121.6" x2="-313.6" y2="134.8"/>
	<line class="st3" x1="-300.4" y1="126.4" x2="-314.9" y2="111.9"/>
	<line class="st3" x1="-305.1" y1="131.2" x2="-319.6" y2="116.7"/>
	<line class="st3" x1="-309.8" y1="135.8" x2="-324.3" y2="121.3"/>
	<line class="st3" x1="-275.8" y1="112.3" x2="-289" y2="125.5"/>
	<line class="st3" x1="-271.1" y1="117" x2="-284.3" y2="130.2"/>
	<line class="st3" x1="-266.5" y1="121.7" x2="-279.7" y2="134.9"/>
	<line class="st3" x1="-266.4" y1="126.5" x2="-280.9" y2="112"/>
	<line class="st3" x1="-271.1" y1="131.2" x2="-285.6" y2="116.7"/>
	<line class="st3" x1="-275.8" y1="135.8" x2="-290.3" y2="121.3"/>
	<line class="st2" x1="-323.8" y1="158.4" x2="-317.1" y2="158.4"/>
	<line class="st2" x1="-306.6" y1="158.4" x2="-299.9" y2="158.4"/>
	<rect x="-261.5" y="83.9" class="st12" width="33.6" height="20.5"/>
	<text transform="matrix(1 0 0 1 -255.8209 95.3159)" class="st1" style="font-family:'Plain-Medium'; font-size:16px;">1.0</text>
	<rect x="-259.9" y="323.6" class="st12" width="33.6" height="20.5"/>
	<text transform="matrix(1 0 0 1 -254.2009 335.0688)" class="st1" style="font-family:'Plain-Medium'; font-size:16px;">2.0</text>
	<line class="st2" x1="-299.6" y1="249.8" x2="-324.2" y2="274.3"/>
	<circle class="st5" cx="-319.5" cy="269.6" r="2.2"/>
	<circle class="st5" cx="-311.9" cy="262.1" r="2.2"/>
	<circle class="st5" cx="-304.9" cy="255.1" r="2.2"/>
	<circle class="st5" cx="-346.8" cy="328" r="2.2"/>
	<line class="st2" x1="-335.8" y1="328" x2="-357.8" y2="328"/>
	<line class="st2" x1="-335.8" y1="336.5" x2="-357.8" y2="336.5"/>
	<line class="st2" x1="-232.6" y1="376.2" x2="-255.5" y2="353.3"/>
	<line class="st2" x1="-255.4" y1="376.2" x2="-232.5" y2="353.3"/>
	<g>
		<g>
			<line class="st2" x1="-288.4" y1="376.2" x2="-283.1" y2="370.9"/>
			<line class="st6" x1="-281.8" y1="369.6" x2="-271.4" y2="359.3"/>
			<line class="st2" x1="-270.8" y1="358.6" x2="-265.5" y2="353.3"/>
		</g>
	</g>
	<g>
		<g>
			<line class="st2" x1="-261.3" y1="226.8" x2="-256.3" y2="226.8"/>
			<line class="st7" x1="-254.3" y1="226.8" x2="-208.3" y2="226.8"/>
			<line class="st2" x1="-207.3" y1="226.8" x2="-202.3" y2="226.8"/>
			<g>
				<path class="st1" d="M-216.8,236.9c-0.3-0.5-0.2-1.1,0.3-1.5l13.6-8.7l-13.6-8.7c-0.5-0.3-0.6-1-0.3-1.5s1-0.6,1.5-0.3l15,9.6
					c0.3,0.2,0.5,0.5,0.5,0.9s-0.2,0.7-0.5,0.9l-15,9.6c-0.2,0.1-0.4,0.2-0.6,0.2C-216.3,237.4-216.6,237.2-216.8,236.9z"/>
			</g>
		</g>
	</g>
	<g>
		<g>
			<line class="st2" x1="-384.8" y1="226.8" x2="-379.8" y2="226.8"/>
			<line class="st8" x1="-378" y1="226.8" x2="-335.2" y2="226.8"/>
			<line class="st2" x1="-334.2" y1="226.8" x2="-329.2" y2="226.8"/>
		</g>
	</g>
	<g>
		<g>
			<line class="st2" x1="-268.4" y1="400.3" x2="-263.4" y2="400.3"/>
			<line class="st7" x1="-261.5" y1="400.3" x2="-215.5" y2="400.3"/>
			<line class="st2" x1="-214.5" y1="400.3" x2="-209.5" y2="400.3"/>
			<g>
				<path class="st1" d="M-224,410.4c-0.3-0.5-0.2-1.1,0.3-1.5l13.6-8.7l-13.6-8.7c-0.5-0.3-0.6-1-0.3-1.5s1-0.6,1.5-0.3l15,9.6
					c0.3,0.2,0.5,0.5,0.5,0.9s-0.2,0.7-0.5,0.9l-15,9.6c-0.2,0.1-0.4,0.2-0.6,0.2C-223.4,410.9-223.8,410.7-224,410.4z"/>
			</g>
		</g>
	</g>
	<g>
		<g>
			<line class="st3" x1="-384.8" y1="400.3" x2="-379.8" y2="400.3"/>
			<line class="st9" x1="-378" y1="400.3" x2="-335.2" y2="400.3"/>
			<line class="st3" x1="-334.2" y1="400.3" x2="-329.2" y2="400.3"/>
		</g>
	</g>
	<g>
		<g>
			<line class="st2" x1="-323" y1="376.2" x2="-317.7" y2="370.9"/>
			<line class="st6" x1="-316.4" y1="369.6" x2="-306.1" y2="359.3"/>
			<line class="st2" x1="-305.4" y1="358.6" x2="-300.1" y2="353.3"/>
		</g>
	</g>
	<line class="st2" x1="-322.6" y1="326.2" x2="-322.6" y2="332.8"/>
	<line class="st2" x1="-316.1" y1="326.2" x2="-316.1" y2="332.8"/>
	<line class="st2" x1="-308.7" y1="326.2" x2="-308.7" y2="332.8"/>
	<line class="st2" x1="-300.9" y1="326.2" x2="-300.9" y2="332.8"/>
	<rect x="165.1" y="-98.8" class="st4" width="276.9" height="517.4"/>
	<line class="st4" x1="270.3" y1="209" x2="270.3" y2="-29.6"/>
	<line class="st4" x1="375.2" y1="209" x2="375.2" y2="-29.6"/>
	<line class="st3" x1="339.6" y1="209" x2="339.6" y2="5"/>
	<line class="st3" x1="409" y1="209" x2="409" y2="5"/>
	<line class="st3" x1="305" y1="209" x2="305" y2="5"/>
	<line class="st3" x1="236.5" y1="209" x2="236.5" y2="5"/>
	<line class="st3" x1="201.9" y1="209" x2="201.9" y2="5"/>
	<line class="st3" x1="236.5" y1="382.4" x2="236.5" y2="245.8"/>
	<line class="st3" x1="201.9" y1="382.4" x2="201.9" y2="245.8"/>
	<line class="st3" x1="305" y1="382.4" x2="305" y2="245.8"/>
	<line class="st4" x1="270.3" y1="382.4" x2="270.3" y2="245.8"/>
	<line class="st4" x1="374.3" y1="382.4" x2="374.3" y2="245.8"/>
	<line class="st3" x1="409" y1="382.4" x2="409" y2="245.8"/>
	<line class="st3" x1="339.6" y1="382.4" x2="339.6" y2="245.8"/>
	<line class="st4" x1="165.1" y1="-64.2" x2="442" y2="-64.2"/>
	<line class="st4" x1="165.1" y1="-29.6" x2="442" y2="-29.6"/>
	<line class="st4" x1="165.1" y1="5" x2="442" y2="5"/>
	<line class="st4" x1="165.1" y1="39.6" x2="442" y2="39.6"/>
	<line class="st4" x1="165.1" y1="74.3" x2="442" y2="74.3"/>
	<line class="st4" x1="165.1" y1="108.9" x2="442" y2="108.9"/>
	<line class="st4" x1="165.1" y1="143.5" x2="442" y2="143.5"/>
	<line class="st4" x1="165.1" y1="175.3" x2="442" y2="175.3"/>
	<line class="st4" x1="165.1" y1="209" x2="442" y2="209"/>
	<line class="st4" x1="165.1" y1="243.7" x2="442" y2="243.7"/>
	<line class="st4" x1="165.1" y1="278.4" x2="442" y2="278.4"/>
	<line class="st4" x1="165.1" y1="313.1" x2="442" y2="313.1"/>
	<line class="st4" x1="165.1" y1="347.8" x2="442" y2="347.8"/>
	<line class="st4" x1="165.1" y1="382.4" x2="442" y2="382.4"/>
	<rect x="167.6" y="-86.3" class="st12" width="279" height="100"/>
	<text transform="matrix(1 0 0 1 261.5694 -72.0113)" class="st1" style="font-family:'Plain-Medium'; font-size:20px;">IOF Event </text>
	<rect x="165.1" y="-56.5" class="st12" width="279" height="100"/>
	<text transform="matrix(1 0 0 1 230.7928 -42.2402)" class="st1" style="font-family:'Plain-Medium'; font-size:20px;">M45, M50, W21</text>
	<rect x="165.1" y="-21.7" class="st12" width="105.2" height="100"/>
	<text transform="matrix(1 0 0 1 211.8339 -7.3675)" class="st1" style="font-family:'Plain-Medium'; font-size:20px;">5</text>
	<rect x="165.1" y="47.5" class="st12" width="36.8" height="27.5"/>
	<text transform="matrix(1 0 0 1 177.6083 61.7622)" class="st1" style="font-family:'Plain-Medium'; font-size:20px;">1</text>
	<rect x="165.1" y="81.9" class="st12" width="36.8" height="27.5"/>
	<text transform="matrix(1 0 0 1 177.6083 96.1743)" class="st1" style="font-family:'Plain-Medium'; font-size:20px;">2</text>
	<rect x="165.1" y="116" class="st12" width="36.8" height="27.5"/>
	<text transform="matrix(1 0 0 1 177.6083 130.3298)" class="st1" style="font-family:'Plain-Medium'; font-size:20px;">3</text>
	<rect x="165.1" y="152" class="st12" width="36.8" height="27.5"/>
	<text transform="matrix(1 0 0 1 177.6083 166.3026)" class="st1" style="font-family:'Plain-Medium'; font-size:20px;">4</text>
	<rect x="165.1" y="185.2" class="st12" width="36.8" height="27.5"/>
	<text transform="matrix(1 0 0 1 177.6083 199.5314)" class="st1" style="font-family:'Plain-Medium'; font-size:20px;">5</text>
	<rect x="200.3" y="49.5" class="st12" width="36.8" height="27.5"/>
	<text transform="matrix(1 0 0 1 202.8717 62.3325)" class="st1" style="font-family:'Plain-Medium'; font-size:18px;">101</text>
	<rect x="200.3" y="82.9" class="st12" width="36.8" height="27.5"/>
	<text transform="matrix(1 0 0 1 203.2311 95.7446)" class="st1" style="font-family:'Plain-Medium'; font-size:18px;">242</text>
	<rect x="199.3" y="119" class="st12" width="36.8" height="27.5"/>
	<text transform="matrix(1 0 0 1 201.8717 131.9002)" class="st1" style="font-family:'Plain-Medium'; font-size:18px;">135</text>
	<rect x="199.3" y="152" class="st12" width="36.8" height="27.5"/>
	<text transform="matrix(1 0 0 1 202.2311 164.8729)" class="st1" style="font-family:'Plain-Medium'; font-size:18px;">246</text>
	<rect x="199.3" y="185.2" class="st12" width="36.8" height="27.5"/>
	<text transform="matrix(1 0 0 1 201.8717 198.1017)" class="st1" style="font-family:'Plain-Medium'; font-size:18px;">164</text>
	<rect x="276.8" y="221" class="st12" width="62.9" height="27.5"/>
	<text transform="matrix(1 0 0 1 278.8494 235.3487)" class="st1" style="font-family:'Plain-Medium'; font-size:20px;">120 m</text>
	<rect x="271.7" y="392.7" class="st12" width="62.9" height="27.5"/>
	<text transform="matrix(1 0 0 1 273.8113 407.0022)" class="st1" style="font-family:'Plain-Medium'; font-size:20px;">250 m</text>
	<rect x="165.1" y="254.4" class="st12" width="36.8" height="27.5"/>
	<text transform="matrix(1 0 0 1 177.6083 268.7329)" class="st1" style="font-family:'Plain-Medium'; font-size:20px;">6</text>
	<rect x="165.1" y="290.6" class="st12" width="36.8" height="27.5"/>
	<text transform="matrix(1 0 0 1 177.6083 304.8883)" class="st1" style="font-family:'Plain-Medium'; font-size:20px;">7</text>
	<rect x="165.1" y="325.6" class="st12" width="36.8" height="27.5"/>
	<text transform="matrix(1 0 0 1 177.6083 339.8612)" class="st1" style="font-family:'Plain-Medium'; font-size:20px;">8</text>
	<rect x="165.1" y="359.8" class="st12" width="36.8" height="27.5"/>
	<text transform="matrix(1 0 0 1 177.6083 374.0899)" class="st1" style="font-family:'Plain-Medium'; font-size:20px;">9</text>
	<rect x="200.3" y="254.4" class="st12" width="36.8" height="27.5"/>
	<text transform="matrix(1 0 0 1 202.8717 267.3032)" class="st1" style="font-family:'Plain-Medium'; font-size:18px;">185</text>
	<rect x="199.3" y="290.6" class="st12" width="36.8" height="27.5"/>
	<text transform="matrix(1 0 0 1 201.8717 303.4586)" class="st1" style="font-family:'Plain-Medium'; font-size:18px;">178</text>
	<rect x="199.3" y="325.6" class="st12" width="36.8" height="27.5"/>
	<text transform="matrix(1 0 0 1 201.8717 338.4315)" class="st1" style="font-family:'Plain-Medium'; font-size:18px;">147</text>
	<rect x="200.3" y="358.8" class="st12" width="36.8" height="27.5"/>
	<text transform="matrix(1 0 0 1 202.8717 371.6602)" class="st1" style="font-family:'Plain-Medium'; font-size:18px;">179</text>
	<rect x="270.3" y="-21.7" class="st12" width="105.2" height="100"/>
	<text transform="matrix(1 0 0 1 293.8231 -7.3675)" class="st1" style="font-family:'Plain-Medium'; font-size:20px;">7.6km</text>
	<rect x="375.2" y="-21.7" class="st12" width="68.9" height="100"/>
	<text transform="matrix(1 0 0 1 382.7759 -7.3675)" class="st1" style="font-family:'Plain-Medium'; font-size:20px;">210m</text>
	<line class="st2" x1="-11.9" y1="3.2" x2="-36.5" y2="27.7"/>
	<g>
		<g>
			<line class="st2" x1="264.1" y1="99.5" x2="245.7" y2="81.1"/>
			<g>
				<polygon class="st1" points="253.5,80.2 253.5,81.7 246.1,81.5 246.4,88.9 244.9,88.9 244.5,79.9 				"/>
			</g>
		</g>
	</g>
	<path class="st3" d="M265.1,102"/>
	<line class="st2" x1="368.3" y1="9.4" x2="346.5" y2="31.1"/>
	<line class="st2" x1="357.4" y1="20.2" x2="348" y2="10.8"/>
	<line class="st2" x1="335.5" y1="8" x2="311" y2="32.5"/>
	<circle class="st5" cx="315.7" cy="27.8" r="2.2"/>
	<circle class="st5" cx="253.3" cy="158.7" r="2.2"/>
	<circle class="st5" cx="323.3" cy="20.2" r="2.2"/>
	<circle class="st5" cx="330.3" cy="13.2" r="2.2"/>
	<circle class="st1" cx="277.7" cy="44.2" r="2.2"/>
	<circle class="st1" cx="282.7" cy="49.6" r="2.2"/>
	<circle class="st1" cx="287.6" cy="54.9" r="2.2"/>
	<circle class="st1" cx="293.1" cy="60.4" r="2.2"/>
	<circle class="st1" cx="298.2" cy="65.4" r="2.2"/>
	<circle class="st1" cx="404.5" cy="89.7" r="2.2"/>
	<circle class="st1" cx="392.6" cy="125.9" r="2.2"/>
	<circle class="st1" cx="398.5" cy="158.6" r="2.2"/>
	<circle class="st1" cx="380.2" cy="193.6" r="2.2"/>
	<circle class="st1" cx="402.1" cy="272.5" r="2.2"/>
	<polygon class="st2" points="-74.3,2.8 -53.7,14.4 -74.3,27 	"/>
	<polygon class="st2" points="287.7,80.4 298.4,98.1 277.3,98.9 	"/>
	<polygon class="st2" points="59.1,44.7 69.8,62.4 48.7,63.2 	"/>
	<polyline class="st2" points="277.3,189 277.3,181 285.3,181 	"/>
	<polyline class="st2" points="291.1,181 299.2,181 299.2,189 	"/>
	<polyline class="st2" points="299.2,194.9 299.2,203 291.1,203 	"/>
	<polyline class="st2" points="398.3,249.4 398.3,269.5 378.2,269.5 	"/>
	<polyline class="st2" points="285.3,203 277.3,203 277.3,194.9 	"/>
	<polyline class="st2" points="47.9,129.2 47.9,121.2 56,121.2 	"/>
	<polyline class="st2" points="61.8,121.2 69.8,121.2 69.8,129.2 	"/>
	<polyline class="st2" points="69.8,135.2 69.8,143.2 61.8,143.2 	"/>
	<polyline class="st2" points="56,143.2 47.9,143.2 47.9,135.2 	"/>
	<polyline class="st3" points="383,292.3 378.9,292.3 378.9,284.3 	"/>
	<line class="st2" x1="243.5" y1="147.7" x2="243.5" y2="169.7"/>
	<line class="st2" x1="299.2" y1="327.4" x2="277.2" y2="327.4"/>
	<line class="st2" x1="253.3" y1="147.7" x2="253.3" y2="169.7"/>
	<line class="st2" x1="262.4" y1="148" x2="262.4" y2="170"/>
	<g>
		<g>
			<line class="st2" x1="242.7" y1="192.2" x2="262.9" y2="192.2"/>
			<g>
				<polygon class="st1" points="258,198.3 256.9,197.2 262.4,192.2 256.9,187.1 258,186.1 264.6,192.2 				"/>
			</g>
		</g>
	</g>
	<g>
		<g>
			<line class="st2" x1="5.3" y1="131.3" x2="28.5" y2="131.3"/>
			<g>
				<polygon class="st1" points="23.6,137.5 22.5,136.4 28,131.4 22.5,126.3 23.6,125.2 30.2,131.4 				"/>
			</g>
		</g>
	</g>
	<line class="st2" x1="380.2" y1="118" x2="405" y2="118"/>
	<line class="st2" x1="380.2" y1="133" x2="405" y2="133"/>
	<path class="st2" d="M395.8,65.5l-9-5.3c-4.2-2.5-4.2-6.4,0-8.9l9-5.3"/>
	<g>
		<g>
			<path class="st2" d="M311.6,269.6l-0.2-10.5c-0.1-4.9,3.3-7,7.6-4.6l7.8,4.2"/>
			<g>
				<polygon class="st1" points="319.5,261.7 319.1,260.3 326.3,258.4 323.9,251.4 325.3,250.9 328.2,259.4 				"/>
			</g>
		</g>
	</g>
	<circle class="st2" cx="390.5" cy="89.4" r="9.5"/>
	<circle class="st2" cx="394.4" cy="193.2" r="9.5"/>
	<circle class="st2" cx="201.9" cy="399.9" r="9.5"/>
	<circle class="st2" cx="410" cy="399.9" r="9.5"/>
	<circle class="st2" cx="394.4" cy="299.7" r="9.5"/>
	<circle class="st3" cx="201.9" cy="227.2" r="9.5"/>
	<circle class="st2" cx="392.1" cy="158.6" r="11.9"/>
	<circle class="st2" cx="410" cy="399.9" r="11.9"/>
	<ellipse class="st2" cx="287.9" cy="159.1" rx="11.9" ry="6.9"/>
	<line class="st3" x1="290" y1="112.9" x2="276.8" y2="126.1"/>
	<line class="st3" x1="294.7" y1="117.6" x2="281.5" y2="130.9"/>
	<line class="st3" x1="299.3" y1="122.3" x2="286.1" y2="135.5"/>
	<line class="st3" x1="299.4" y1="127.1" x2="284.9" y2="112.6"/>
	<line class="st3" x1="294.7" y1="131.8" x2="280.2" y2="117.3"/>
	<line class="st3" x1="290" y1="136.5" x2="275.5" y2="122"/>
	<line class="st3" x1="323.9" y1="113" x2="310.7" y2="126.2"/>
	<line class="st3" x1="328.7" y1="117.7" x2="315.5" y2="130.9"/>
	<line class="st3" x1="333.3" y1="122.3" x2="320.1" y2="135.5"/>
	<line class="st3" x1="333.4" y1="127.1" x2="318.9" y2="112.6"/>
	<line class="st3" x1="328.6" y1="131.9" x2="314.1" y2="117.4"/>
	<line class="st3" x1="324" y1="136.5" x2="309.5" y2="122"/>
	<line class="st2" x1="276" y1="159.1" x2="282.7" y2="159.1"/>
	<line class="st2" x1="293.2" y1="159.1" x2="299.9" y2="159.1"/>
	<rect x="338.3" y="84.5" class="st12" width="33.6" height="20.5"/>
	<text transform="matrix(1 0 0 1 343.9559 95.9881)" class="st1" style="font-family:'Plain-Medium'; font-size:16px;">1.0</text>
	<rect x="339.9" y="324.3" class="st12" width="33.6" height="20.5"/>
	<text transform="matrix(1 0 0 1 345.5759 335.7409)" class="st1" style="font-family:'Plain-Medium'; font-size:16px;">2.0</text>
	<line class="st2" x1="300.2" y1="250.5" x2="275.6" y2="275"/>
	<circle class="st5" cx="280.3" cy="270.3" r="2.2"/>
	<circle class="st5" cx="287.9" cy="262.7" r="2.2"/>
	<circle class="st5" cx="294.9" cy="255.7" r="2.2"/>
	<circle class="st5" cx="253" cy="328.7" r="2.2"/>
	<line class="st2" x1="264" y1="328.7" x2="242" y2="328.7"/>
	<line class="st2" x1="264" y1="337.2" x2="242" y2="337.2"/>
	<line class="st2" x1="367.2" y1="376.9" x2="344.3" y2="354"/>
	<line class="st2" x1="344.4" y1="376.9" x2="367.2" y2="354"/>
	<g>
		<g>
			<line class="st2" x1="311.4" y1="376.9" x2="316.7" y2="371.6"/>
			<line class="st6" x1="318" y1="370.3" x2="328.4" y2="360"/>
			<line class="st2" x1="329" y1="359.3" x2="334.3" y2="354"/>
		</g>
	</g>
	<g>
		<g>
			<line class="st2" x1="339.5" y1="227.4" x2="344.5" y2="227.4"/>
			<line class="st10" x1="346.4" y1="227.4" x2="391.5" y2="227.4"/>
			<line class="st2" x1="392.4" y1="227.4" x2="397.4" y2="227.4"/>
			<g>
				<path class="st1" d="M383,237.6c-0.3-0.5-0.2-1.1,0.3-1.5l13.6-8.7l-13.6-8.7c-0.5-0.3-0.6-1-0.3-1.5s1-0.6,1.5-0.3l15,9.6
					c0.3,0.2,0.5,0.5,0.5,0.9s-0.2,0.7-0.5,0.9l-15,9.6c-0.2,0.1-0.4,0.2-0.6,0.2C383.5,238.1,383.2,237.9,383,237.6z"/>
			</g>
		</g>
	</g>
	<g>
		<g>
			<line class="st2" x1="214.9" y1="227.4" x2="219.9" y2="227.4"/>
			<line class="st11" x1="222.1" y1="227.4" x2="272.3" y2="227.4"/>
			<line class="st2" x1="273.4" y1="227.4" x2="278.4" y2="227.4"/>
		</g>
	</g>
	<g>
		<g>
			<line class="st2" x1="331.3" y1="400.9" x2="336.3" y2="400.9"/>
			<line class="st7" x1="338.3" y1="400.9" x2="384.3" y2="400.9"/>
			<line class="st2" x1="385.3" y1="400.9" x2="390.3" y2="400.9"/>
			<g>
				<path class="st1" d="M375.8,411.1c-0.3-0.5-0.2-1.1,0.3-1.5l13.6-8.7l-13.6-8.7c-0.5-0.3-0.6-1-0.3-1.5s1-0.6,1.5-0.3l15,9.6
					c0.3,0.2,0.5,0.5,0.5,0.9s-0.2,0.7-0.5,0.9l-15,9.6c-0.2,0.1-0.4,0.2-0.6,0.2C376.3,411.6,376,411.4,375.8,411.1z"/>
			</g>
		</g>
	</g>
	<g>
		<g>
			<line class="st3" x1="214.9" y1="400.9" x2="219.9" y2="400.9"/>
			<line class="st9" x1="221.8" y1="400.9" x2="264.6" y2="400.9"/>
			<line class="st3" x1="265.5" y1="400.9" x2="270.5" y2="400.9"/>
		</g>
	</g>
	<g>
		<g>
			<line class="st2" x1="276.8" y1="376.9" x2="282.1" y2="371.6"/>
			<line class="st6" x1="283.4" y1="370.3" x2="293.7" y2="360"/>
			<line class="st2" x1="294.3" y1="359.3" x2="299.6" y2="354"/>
		</g>
	</g>
	<line class="st2" x1="277.2" y1="326.7" x2="277.2" y2="333.5"/>
	<line class="st2" x1="283.7" y1="326.9" x2="283.7" y2="333.5"/>
	<line class="st2" x1="291.1" y1="326.9" x2="291.1" y2="333.5"/>
	<line class="st2" x1="298.8" y1="326.6" x2="298.8" y2="333.5"/>
	<rect x="166.9" y="7" class="st12" width="34.4" height="30.8"/>
	<line class="st2" x1="28.9" y1="3.7" x2="4.4" y2="28.2"/>
	<circle class="st5" cx="9.1" cy="23.5" r="2.2"/>
	<circle class="st5" cx="16.7" cy="16" r="2.2"/>
	<circle class="st5" cx="23.7" cy="8.9" r="2.2"/>
	<line class="st2" x1="71" y1="4.3" x2="49.3" y2="26"/>
	<line class="st2" x1="60.2" y1="15.1" x2="50.7" y2="5.7"/>
	<circle class="st1" cx="-73.6" cy="43.4" r="2.2"/>
	<circle class="st1" cx="-68.6" cy="48.8" r="2.2"/>
	<circle class="st1" cx="-63.6" cy="54.1" r="2.2"/>
	<circle class="st1" cx="-58.2" cy="59.6" r="2.2"/>
	<circle class="st1" cx="-53.1" cy="64.6" r="2.2"/>
	<path class="st2" d="M-18.7,63.4l-9-5.3c-4.2-2.5-4.2-6.4,0-8.9l9-5.3"/>
	<g>
		<g>
			<line class="st2" x1="26.7" y1="64.1" x2="8.3" y2="45.7"/>
			<g>
				<polygon class="st1" points="16.1,44.9 16.1,46.4 8.7,46.1 9,53.5 7.5,53.6 7.1,44.5 				"/>
			</g>
		</g>
	</g>
	<circle class="st1" cx="17.4" cy="93" r="2.2"/>
	<line class="st2" x1="5" y1="85.9" x2="29.8" y2="85.9"/>
	<line class="st2" x1="5" y1="100.8" x2="29.8" y2="100.8"/>
	<circle class="st5" cx="59.1" cy="93.1" r="2.2"/>
	<line class="st2" x1="49.4" y1="82.1" x2="49.4" y2="104.1"/>
	<line class="st2" x1="59.1" y1="82.1" x2="59.1" y2="104.1"/>
	<line class="st2" x1="68.3" y1="82.4" x2="68.3" y2="104.5"/>
	<ellipse class="st2" cx="-63.6" cy="132.3" rx="11.9" ry="6.9"/>
	<line class="st2" x1="-75.5" y1="132.3" x2="-68.8" y2="132.3"/>
	<line class="st2" x1="-58.3" y1="132.3" x2="-51.6" y2="132.3"/>
	<circle class="st1" cx="-75.6" cy="169.7" r="2.2"/>
	<circle class="st2" cx="-61.3" cy="169.3" r="9.5"/>
	<polyline class="st3" points="50.9,165.5 46.9,165.5 46.9,157.5 	"/>
	<circle class="st2" cx="62.4" cy="172.9" r="9.5"/>
	<circle class="st5" cx="-64" cy="207.1" r="2.2"/>
	<line class="st2" x1="-53" y1="207.1" x2="-75" y2="207.1"/>
	<line class="st2" x1="-53" y1="215.5" x2="-75" y2="215.5"/>
	<line class="st2" x1="-12.6" y1="207.7" x2="-34.7" y2="207.7"/>
	<line class="st2" x1="-34.7" y1="206.9" x2="-34.7" y2="213.8"/>
	<line class="st2" x1="-28.1" y1="207.2" x2="-28.1" y2="213.8"/>
	<line class="st2" x1="-20.8" y1="207.2" x2="-20.8" y2="213.8"/>
	<line class="st2" x1="-13" y1="206.9" x2="-13" y2="213.8"/>
	<g>
		<g>
			<line class="st2" x1="6.7" y1="222.9" x2="12" y2="217.6"/>
			<line class="st6" x1="13.3" y1="216.3" x2="23.6" y2="206"/>
			<line class="st2" x1="24.3" y1="205.3" x2="29.6" y2="200"/>
		</g>
	</g>
	<line class="st2" x1="71.1" y1="222.1" x2="48.2" y2="199.2"/>
	<line class="st2" x1="48.3" y1="222.1" x2="71.2" y2="199.2"/>
	<rect x="7" y="245.8" class="st12" width="62.9" height="27.5"/>
	<text transform="matrix(1 0 0 1 9.079 260.0869)" class="st1" style="font-family:'Plain-Medium'; font-size:20px;">120 m</text>
	<circle class="st3" cx="-67.9" cy="251.9" r="9.5"/>
	<g>
		<g>
			<line class="st2" x1="69.7" y1="252.2" x2="74.7" y2="252.2"/>
			<line class="st10" x1="76.7" y1="252.2" x2="121.7" y2="252.2"/>
			<line class="st2" x1="122.7" y1="252.2" x2="127.7" y2="252.2"/>
			<g>
				<path class="st1" d="M113.2,262.3c-0.3-0.5-0.2-1.1,0.3-1.5l13.6-8.7l-13.6-8.7c-0.5-0.3-0.6-1-0.3-1.5s1-0.6,1.5-0.3l15,9.6
					c0.3,0.2,0.5,0.5,0.5,0.9s-0.2,0.7-0.5,0.9l-15,9.6c-0.2,0.1-0.4,0.2-0.6,0.2C113.8,262.8,113.4,262.6,113.2,262.3z"/>
			</g>
		</g>
	</g>
	<g>
		<g>
			<line class="st2" x1="-54.8" y1="252.2" x2="-49.8" y2="252.2"/>
			<line class="st11" x1="-47.7" y1="252.2" x2="2.5" y2="252.2"/>
			<line class="st2" x1="3.6" y1="252.2" x2="8.6" y2="252.2"/>
		</g>
	</g>
	<rect x="1.5" y="287.2" class="st12" width="62.9" height="27.5"/>
	<text transform="matrix(1 0 0 1 3.5885 301.4705)" class="st1" style="font-family:'Plain-Medium'; font-size:20px;">250 m</text>
	<circle class="st2" cx="-68.4" cy="294.4" r="9.5"/>
	<circle class="st2" cx="139.8" cy="294.4" r="9.5"/>
	<circle class="st2" cx="139.8" cy="294.4" r="11.9"/>
	<g>
		<g>
			<line class="st2" x1="61.1" y1="295.4" x2="66.1" y2="295.4"/>
			<line class="st7" x1="68.1" y1="295.4" x2="114.1" y2="295.4"/>
			<line class="st2" x1="115" y1="295.4" x2="120" y2="295.4"/>
			<g>
				<path class="st1" d="M105.6,305.5c-0.3-0.5-0.2-1.1,0.3-1.5l13.6-8.7l-13.6-8.7c-0.5-0.3-0.6-1-0.3-1.5s1-0.6,1.5-0.3l15,9.6
					c0.3,0.2,0.5,0.5,0.5,0.9s-0.2,0.7-0.5,0.9l-15,9.6c-0.2,0.1-0.4,0.2-0.6,0.2C106.1,306,105.8,305.9,105.6,305.5z"/>
			</g>
		</g>
	</g>
	<g>
		<g>
			<line class="st3" x1="-55.3" y1="295.4" x2="-50.3" y2="295.4"/>
			<line class="st9" x1="-48.5" y1="295.4" x2="-5.6" y2="295.4"/>
			<line class="st3" x1="-4.7" y1="295.4" x2="0.3" y2="295.4"/>
		</g>
	</g>
</g>
</svg>
