<?xml version="1.0" encoding="utf-8"?>
<!-- Generator: Adobe Illustrator 22.0.0, SVG Export Plug-In . SVG Version: 6.00 Build 0)  -->
<svg version="1.1" xmlns="http://www.w3.org/2000/svg" xmlns:xlink="http://www.w3.org/1999/xlink" x="0px" y="0px"
	 viewBox="0 0 281.4 524.3" style="enable-background:new 0 0 281.4 524.3;" xml:space="preserve">
<style type="text/css">
	.st0{fill:#FFFFFF;}
	.st1{fill:#fff;}
	.st2{fill:none;stroke:#fff;stroke-width:1.5;stroke-miterlimit:10;}
	.st3{fill:none;stroke:#fff;stroke-miterlimit:10;}
	.st4{fill:none;stroke:#fff;stroke-width:4;stroke-miterlimit:10;}
	.st5{fill:none;}
	.st6{font-family:'Plain-Medium';}
	.st7{font-size:20px;}
	.st8{font-size:18px;}
	.st9{fill:#fff;stroke:#fff;stroke-miterlimit:10;}
	.st10{font-size:16px;}
	.st11{fill:none;stroke:#fff;stroke-width:1.5;stroke-miterlimit:10;stroke-dasharray:13.7026,1.827;}
	.st12{fill:none;stroke:#fff;stroke-width:1.5;stroke-miterlimit:10;stroke-dasharray:9.7848,1.957;}
	.st13{fill:none;stroke:#fff;stroke-width:1.5;stroke-miterlimit:10;stroke-dasharray:9.1188,1.8238;}
	.st14{fill:none;stroke:#fff;stroke-miterlimit:10;stroke-dasharray:9.1188,1.8238;}
	.st15{fill:none;stroke:#fff;stroke-width:1.5;stroke-miterlimit:10;stroke-dasharray:9.5848,1.917;}
	.st16{fill:none;stroke:#fff;stroke-width:1.5;stroke-miterlimit:10;stroke-dasharray:10.6847,2.1369;}
</style>
<g id="Calque_2">
	<rect x="5.1" y="109.8" class="st0" width="37" height="34.6"/>
	<rect x="5.1" y="144.5" class="st0" width="37" height="34.6"/>
	<rect x="41.6" y="144.5" class="st0" width="34.6" height="34.6"/>
	<rect x="5.2" y="6" class="st0" width="277" height="34.6"/>
	<rect x="5.2" y="40.6" class="st0" width="277" height="34.6"/>
	<rect x="5.2" y="75.2" class="st0" width="105.3" height="34.6"/>
	<rect x="110.5" y="75.2" class="st0" width="105.3" height="34.6"/>
	<rect x="110.5" y="109.8" class="st0" width="34.6" height="34.6"/>
	<rect x="110.5" y="144.1" class="st0" width="34.6" height="34.6"/>
	<rect x="215" y="144.1" class="st0" width="34.6" height="34.6"/>
	<rect x="215" y="178.8" class="st0" width="34.6" height="34.6"/>
	<rect x="179.9" y="178.8" class="st0" width="34.6" height="34.6"/>
	<rect x="110.8" y="178.8" class="st0" width="34.6" height="34.6"/>
	<rect x="110.8" y="213.5" class="st0" width="34.6" height="34.6"/>
	<rect x="145.2" y="213.5" class="st0" width="34.6" height="34.6"/>
	<rect x="214.5" y="213.5" class="st0" width="34.6" height="34.6"/>
	<rect x="214.5" y="246.1" class="st0" width="34.6" height="34.6"/>
	<rect x="214.5" y="278.5" class="st0" width="34.6" height="34.6"/>
	<rect x="110.3" y="278.5" class="st0" width="34.6" height="34.6"/>
	<rect x="76.5" y="278.5" class="st0" width="34.6" height="34.6"/>
	<rect x="214.7" y="348.1" class="st0" width="34.6" height="34.6"/>
	<rect x="214.7" y="384.2" class="st0" width="34.6" height="34.6"/>
	<rect x="145.2" y="348.1" class="st0" width="34.6" height="34.6"/>
	<rect x="111.4" y="348.1" class="st0" width="34.6" height="34.6"/>
	<rect x="111.4" y="417.9" class="st0" width="34.6" height="34.6"/>
	<rect x="180" y="417.9" class="st0" width="34.6" height="34.6"/>
	<rect x="180" y="452.9" class="st0" width="34.6" height="34.6"/>
	<rect x="145.8" y="452.9" class="st0" width="34.6" height="34.6"/>
	<rect x="110.9" y="452.9" class="st0" width="34.6" height="34.6"/>
	<rect x="76.6" y="417.7" class="st0" width="34.6" height="34.6"/>
	<rect x="4.9" y="313.1" class="st0" width="277.3" height="34.6"/>
	<rect x="4.9" y="488.4" class="st0" width="277.3" height="34.6"/>
	<rect x="110.3" y="248.3" class="st0" width="34.6" height="34.6"/>
	<rect x="77.3" y="248.3" class="st0" width="33.1" height="30.2"/>
	<rect x="145.2" y="109.8" class="st0" width="34.6" height="34.6"/>
	<rect x="180.4" y="109.8" class="st0" width="34.6" height="34.6"/>
	<rect x="77.3" y="178.1" class="st0" width="33.2" height="34.6"/>
	<rect x="215.5" y="75.2" class="st0" width="67.2" height="34.6"/>
</g>
<g id="Calque_1">
	<rect x="3.3" y="4" class="st4" width="276.9" height="517.4"/>
	<line class="st4" x1="108.6" y1="311.8" x2="108.6" y2="73.2"/>
	<line class="st4" x1="213.5" y1="311.8" x2="213.5" y2="73.2"/>
	<line class="st3" x1="177.9" y1="311.8" x2="177.9" y2="107.8"/>
	<line class="st3" x1="247.2" y1="311.8" x2="247.2" y2="107.8"/>
	<line class="st3" x1="143.2" y1="311.8" x2="143.2" y2="107.8"/>
	<line class="st3" x1="74.8" y1="311.8" x2="74.8" y2="107.8"/>
	<line class="st3" x1="40.1" y1="311.8" x2="40.1" y2="107.8"/>
	<line class="st3" x1="74.8" y1="485.2" x2="74.8" y2="348.6"/>
	<line class="st3" x1="40.1" y1="485.2" x2="40.1" y2="348.6"/>
	<line class="st3" x1="143.2" y1="485.2" x2="143.2" y2="348.6"/>
	<line class="st4" x1="108.6" y1="485.2" x2="108.6" y2="348.6"/>
	<line class="st4" x1="212.6" y1="485.2" x2="212.6" y2="348.6"/>
	<line class="st3" x1="247.2" y1="485.2" x2="247.2" y2="348.6"/>
	<line class="st3" x1="177.9" y1="485.2" x2="177.9" y2="348.6"/>
	<line class="st4" x1="3.3" y1="38.6" x2="280.2" y2="38.6"/>
	<line class="st4" x1="3.3" y1="73.2" x2="280.2" y2="73.2"/>
	<line class="st4" x1="3.3" y1="107.8" x2="280.2" y2="107.8"/>
	<line class="st4" x1="3.3" y1="142.4" x2="280.2" y2="142.4"/>
	<line class="st4" x1="3.3" y1="177.1" x2="280.2" y2="177.1"/>
	<line class="st4" x1="3.3" y1="211.7" x2="280.2" y2="211.7"/>
	<line class="st4" x1="3.3" y1="246.3" x2="280.2" y2="246.3"/>
	<line class="st4" x1="3.3" y1="278.1" x2="280.2" y2="278.1"/>
	<line class="st4" x1="3.3" y1="311.8" x2="280.2" y2="311.8"/>
	<line class="st4" x1="3.3" y1="346.5" x2="280.2" y2="346.5"/>
	<line class="st4" x1="3.3" y1="381.2" x2="280.2" y2="381.2"/>
	<line class="st4" x1="3.3" y1="415.9" x2="280.2" y2="415.9"/>
	<line class="st4" x1="3.3" y1="450.6" x2="280.2" y2="450.6"/>
	<line class="st4" x1="3.3" y1="485.2" x2="280.2" y2="485.2"/>
	<rect x="3.3" y="13.6" class="st5" width="279" height="100"/>
	<text transform="matrix(1 0 0 1 97.3099 27.8668)" class="st1 st6 st7">IOF Event </text>
	<rect x="3.3" y="46.3" class="st5" width="279" height="100"/>
	<text transform="matrix(1 0 0 1 69.0394 60.5617)" class="st1 st6 st7">M45, M50, W21</text>
	<rect x="3.3" y="81.1" class="st5" width="105.2" height="100"/>
	<text transform="matrix(1 0 0 1 50.0804 95.4343)" class="st1 st6 st7">5</text>
	<rect x="3.3" y="150.3" class="st5" width="36.8" height="27.5"/>
	<text transform="matrix(1 0 0 1 15.8548 164.5641)" class="st1 st6 st7">1</text>
	<rect x="3.3" y="184.7" class="st5" width="36.8" height="27.5"/>
	<text transform="matrix(1 0 0 1 15.8548 198.9762)" class="st1 st6 st7">2</text>
	<rect x="3.3" y="218.8" class="st5" width="36.8" height="27.5"/>
	<text transform="matrix(1 0 0 1 15.8548 233.1317)" class="st1 st6 st7">3</text>
	<rect x="3.3" y="254.8" class="st5" width="36.8" height="27.5"/>
	<text transform="matrix(1 0 0 1 15.8548 269.1045)" class="st1 st6 st7">4</text>
	<rect x="3.3" y="288" class="st5" width="36.8" height="27.5"/>
	<text transform="matrix(1 0 0 1 15.8548 302.3333)" class="st1 st6 st7">5</text>
	<rect x="38.6" y="152.3" class="st5" width="36.8" height="27.5"/>
	<text transform="matrix(1 0 0 1 41.1182 165.1344)" class="st1 st6 st8">101</text>
	<rect x="38.6" y="185.7" class="st5" width="36.8" height="27.5"/>
	<text transform="matrix(1 0 0 1 41.4776 198.5465)" class="st1 st6 st8">242</text>
	<rect x="37.6" y="221.8" class="st5" width="36.8" height="27.5"/>
	<text transform="matrix(1 0 0 1 40.1182 234.702)" class="st1 st6 st8">135</text>
	<rect x="37.6" y="254.8" class="st5" width="36.8" height="27.5"/>
	<text transform="matrix(1 0 0 1 40.4776 267.6748)" class="st1 st6 st8">246</text>
	<rect x="37.6" y="288" class="st5" width="36.8" height="27.5"/>
	<text transform="matrix(1 0 0 1 40.1182 300.9036)" class="st1 st6 st8">164</text>
	<rect x="115" y="323.9" class="st5" width="62.9" height="27.5"/>
	<text transform="matrix(1 0 0 1 117.0959 338.1507)" class="st1 st6 st7">120 m</text>
	<rect x="110" y="495.5" class="st5" width="62.9" height="27.5"/>
	<text transform="matrix(1 0 0 1 112.0578 509.8041)" class="st1 st6 st7">250 m</text>
	<rect x="3.3" y="357.2" class="st5" width="36.8" height="27.5"/>
	<text transform="matrix(1 0 0 1 15.8548 371.5348)" class="st1 st6 st7">6</text>
	<rect x="3.3" y="393.4" class="st5" width="36.8" height="27.5"/>
	<text transform="matrix(1 0 0 1 15.8548 407.6903)" class="st1 st6 st7">7</text>
	<rect x="3.3" y="428.4" class="st5" width="36.8" height="27.5"/>
	<text transform="matrix(1 0 0 1 15.8548 442.6631)" class="st1 st6 st7">8</text>
	<rect x="3.3" y="462.6" class="st5" width="36.8" height="27.5"/>
	<text transform="matrix(1 0 0 1 15.8548 476.8919)" class="st1 st6 st7">9</text>
	<rect x="38.6" y="357.2" class="st5" width="36.8" height="27.5"/>
	<text transform="matrix(1 0 0 1 41.1182 370.1051)" class="st1 st6 st8">185</text>
	<rect x="37.6" y="393.4" class="st5" width="36.8" height="27.5"/>
	<text transform="matrix(1 0 0 1 40.1182 406.2606)" class="st1 st6 st8">178</text>
	<rect x="37.6" y="428.4" class="st5" width="36.8" height="27.5"/>
	<text transform="matrix(1 0 0 1 40.1182 441.2334)" class="st1 st6 st8">147</text>
	<rect x="38.6" y="461.6" class="st5" width="36.8" height="27.5"/>
	<text transform="matrix(1 0 0 1 41.1182 474.4622)" class="st1 st6 st8">179</text>
	<rect x="108.6" y="81.1" class="st5" width="105.2" height="100"/>
	<text transform="matrix(1 0 0 1 132.0696 95.4343)" class="st1 st6 st7">7.6km</text>
	<rect x="213.5" y="81.1" class="st5" width="68.9" height="100"/>
	<text transform="matrix(1 0 0 1 221.0224 95.4343)" class="st1 st6 st7">210m</text>
	<line class="st2" x1="138.9" y1="110.8" x2="114.3" y2="135.3"/>
	<g>
		<g>
			<line class="st2" x1="102.4" y1="202.3" x2="83.9" y2="183.9"/>
			<g>
				<polygon class="st1" points="91.8,183 91.7,184.5 84.4,184.3 84.6,191.7 83.1,191.7 82.8,182.7 				"/>
			</g>
		</g>
	</g>
	<line class="st2" x1="206.6" y1="112.2" x2="184.8" y2="133.9"/>
	<line class="st2" x1="195.7" y1="123" x2="186.2" y2="113.6"/>
	<line class="st2" x1="173.8" y1="110.8" x2="149.2" y2="135.3"/>
	<circle class="st9" cx="153.9" cy="130.6" r="2.2"/>
	<circle class="st9" cx="91.5" cy="261.5" r="2.2"/>
	<circle class="st9" cx="161.5" cy="123" r="2.2"/>
	<circle class="st9" cx="168.5" cy="116" r="2.2"/>
	<circle class="st1" cx="115.9" cy="147" r="2.2"/>
	<circle class="st1" cx="121" cy="152.4" r="2.2"/>
	<circle class="st1" cx="125.9" cy="157.7" r="2.2"/>
	<circle class="st1" cx="131.4" cy="163.2" r="2.2"/>
	<circle class="st1" cx="136.4" cy="168.2" r="2.2"/>
	<circle class="st1" cx="242.7" cy="192.5" r="2.2"/>
	<circle class="st1" cx="230.8" cy="227.7" r="2.2"/>
	<circle class="st1" cx="236.5" cy="261.8" r="2.2"/>
	<circle class="st1" cx="218.5" cy="296.4" r="2.2"/>
	<circle class="st1" cx="240.4" cy="375.3" r="2.2"/>
	<polygon class="st2" points="12.2,112.5 32.8,124 12.2,136.6 	"/>
	<polygon class="st2" points="125.9,183.3 136.7,200.9 115.6,201.7 	"/>
	<polyline class="st2" points="115.6,291.8 115.6,283.8 123.6,283.8 	"/>
	<polyline class="st2" points="129.4,283.8 137.4,283.8 137.4,291.8 	"/>
	<polyline class="st2" points="137.4,297.8 137.4,305.8 129.4,305.8 	"/>
	<polyline class="st2" points="236.6,352.2 236.6,372.3 216.4,372.3 	"/>
	<polyline class="st2" points="123.6,305.8 115.6,305.8 115.6,297.8 	"/>
	<polyline class="st3" points="221.2,395.1 217.2,395.1 217.2,387.1 	"/>
	<line class="st2" x1="81.8" y1="250.5" x2="81.8" y2="272.5"/>
	<line class="st2" x1="137.5" y1="430.2" x2="115.4" y2="430.2"/>
	<line class="st2" x1="91.5" y1="250.5" x2="91.5" y2="272.5"/>
	<line class="st2" x1="100.7" y1="250.8" x2="100.7" y2="272.8"/>
	<g>
		<g>
			<line class="st2" x1="81" y1="295" x2="101.2" y2="295"/>
			<g>
				<polygon class="st1" points="96.2,301.1 95.2,300 100.6,295 95.2,290 96.2,288.9 102.8,295 				"/>
			</g>
		</g>
	</g>
	<line class="st2" x1="218.4" y1="220.8" x2="243.2" y2="220.8"/>
	<line class="st2" x1="218.4" y1="235.8" x2="243.2" y2="235.8"/>
	<path class="st2" d="M234.1,168.3l-9-5.3c-4.2-2.5-4.2-6.4,0-8.9l9-5.3"/>
	<g>
		<g>
			<path class="st2" d="M149.9,372.4l-0.2-10.5c-0.1-4.9,3.3-7,7.6-4.6l7.8,4.2"/>
			<g>
				<polygon class="st1" points="157.8,364.5 157.4,363.1 164.5,361.2 162.2,354.2 163.6,353.7 166.5,362.2 				"/>
			</g>
		</g>
	</g>
	<circle class="st2" cx="228.7" cy="192.2" r="9.5"/>
	<circle class="st2" cx="232.7" cy="296" r="9.5"/>
	<circle class="st2" cx="40.1" cy="502.7" r="9.5"/>
	<circle class="st2" cx="248.2" cy="502.7" r="9.5"/>
	<circle class="st2" cx="232.7" cy="402.5" r="9.5"/>
	<circle class="st3" cx="40.1" cy="330" r="9.5"/>
	<circle class="st2" cx="230.1" cy="261.8" r="11.9"/>
	<circle class="st2" cx="248.2" cy="502.7" r="11.9"/>
	<ellipse class="st2" cx="126.1" cy="261.9" rx="11.9" ry="6.9"/>
	<line class="st3" x1="128.2" y1="215.7" x2="115" y2="228.9"/>
	<line class="st3" x1="133" y1="220.4" x2="119.7" y2="233.7"/>
	<line class="st3" x1="137.6" y1="225.1" x2="124.4" y2="238.3"/>
	<line class="st3" x1="137.6" y1="229.9" x2="123.1" y2="215.4"/>
	<line class="st3" x1="132.9" y1="234.6" x2="118.4" y2="220.1"/>
	<line class="st3" x1="128.3" y1="239.3" x2="113.8" y2="224.8"/>
	<line class="st3" x1="162.2" y1="215.8" x2="149" y2="229"/>
	<line class="st3" x1="166.9" y1="220.5" x2="153.7" y2="233.7"/>
	<line class="st3" x1="171.6" y1="225.1" x2="158.4" y2="238.3"/>
	<line class="st3" x1="171.6" y1="229.9" x2="157.1" y2="215.4"/>
	<line class="st3" x1="166.9" y1="234.7" x2="152.4" y2="220.2"/>
	<line class="st3" x1="162.2" y1="239.3" x2="147.7" y2="224.8"/>
	<line class="st2" x1="114.2" y1="261.9" x2="121" y2="261.9"/>
	<line class="st2" x1="131.4" y1="261.9" x2="138.2" y2="261.9"/>
	<rect x="176.5" y="187.3" class="st5" width="33.6" height="20.5"/>
	<text transform="matrix(1 0 0 1 182.2024 198.7899)" class="st1 st6 st10">1.0</text>
	<rect x="178.1" y="427.1" class="st5" width="33.6" height="20.5"/>
	<text transform="matrix(1 0 0 1 183.8224 438.5428)" class="st1 st6 st10">2.0</text>
	<line class="st2" x1="138.4" y1="353.3" x2="113.8" y2="377.8"/>
	<circle class="st9" cx="118.5" cy="373.1" r="2.2"/>
	<circle class="st9" cx="126.1" cy="365.5" r="2.2"/>
	<circle class="st9" cx="133.1" cy="358.5" r="2.2"/>
	<circle class="st9" cx="91.2" cy="431.5" r="2.2"/>
	<line class="st2" x1="102.3" y1="431.5" x2="80.2" y2="431.5"/>
	<line class="st2" x1="102.3" y1="440" x2="80.2" y2="440"/>
	<line class="st2" x1="205.4" y1="479.7" x2="182.6" y2="456.8"/>
	<line class="st2" x1="182.6" y1="479.7" x2="205.5" y2="456.8"/>
	<g>
		<g>
			<line class="st2" x1="149.7" y1="479.7" x2="155" y2="474.4"/>
			<line class="st11" x1="156.3" y1="473.1" x2="166.6" y2="462.8"/>
			<line class="st2" x1="167.2" y1="462.1" x2="172.5" y2="456.8"/>
		</g>
	</g>
	<g>
		<g>
			<line class="st2" x1="176.8" y1="330.2" x2="181.8" y2="330.2"/>
			<line class="st12" x1="183.7" y1="330.2" x2="229.7" y2="330.2"/>
			<line class="st2" x1="230.7" y1="330.2" x2="235.7" y2="330.2"/>
			<g>
				<path class="st1" d="M221.2,340.4c-0.3-0.5-0.2-1.1,0.3-1.5l13.6-8.7l-13.6-8.7c-0.5-0.3-0.6-1-0.3-1.5s1-0.6,1.5-0.3l15,9.6
					c0.3,0.2,0.5,0.5,0.5,0.9s-0.2,0.7-0.5,0.9l-15,9.6c-0.2,0.1-0.4,0.2-0.6,0.2C221.8,340.9,221.4,340.7,221.2,340.4z"/>
			</g>
		</g>
	</g>
	<g>
		<g>
			<line class="st2" x1="53.2" y1="330.2" x2="58.2" y2="330.2"/>
			<line class="st13" x1="60" y1="330.2" x2="102.9" y2="330.2"/>
			<line class="st2" x1="103.8" y1="330.2" x2="108.8" y2="330.2"/>
		</g>
	</g>
	<g>
		<g>
			<line class="st2" x1="169.6" y1="503.7" x2="174.6" y2="503.7"/>
			<line class="st12" x1="176.5" y1="503.7" x2="222.5" y2="503.7"/>
			<line class="st2" x1="223.5" y1="503.7" x2="228.5" y2="503.7"/>
			<g>
				<path class="st1" d="M214,513.9c-0.3-0.5-0.2-1.1,0.3-1.5l13.6-8.7l-13.6-8.7c-0.5-0.3-0.6-1-0.3-1.5s1-0.6,1.5-0.3l15,9.6
					c0.3,0.2,0.5,0.5,0.5,0.9s-0.2,0.7-0.5,0.9l-15,9.6c-0.2,0.1-0.4,0.2-0.6,0.2C214.6,514.4,214.2,514.2,214,513.9z"/>
			</g>
		</g>
	</g>
	<g>
		<g>
			<line class="st3" x1="53.2" y1="503.7" x2="58.2" y2="503.7"/>
			<line class="st14" x1="60" y1="503.7" x2="102.9" y2="503.7"/>
			<line class="st3" x1="103.8" y1="503.7" x2="108.8" y2="503.7"/>
		</g>
	</g>
	<g>
		<g>
			<line class="st2" x1="115" y1="479.7" x2="120.3" y2="474.4"/>
			<line class="st11" x1="121.6" y1="473.1" x2="131.9" y2="462.8"/>
			<line class="st2" x1="132.6" y1="462.1" x2="137.9" y2="456.8"/>
		</g>
	</g>
	<line class="st2" x1="115.4" y1="429.7" x2="115.4" y2="436.3"/>
	<line class="st2" x1="122" y1="429.7" x2="122" y2="436.3"/>
	<line class="st2" x1="129.3" y1="429.7" x2="129.3" y2="436.3"/>
	<line class="st2" x1="137.1" y1="429.7" x2="137.1" y2="436.3"/>
</g>
</svg>
